<svg width="24" height="24" viewBox="0 0 24 24" fill="none" xmlns="http://www.w3.org/2000/svg">
<g clip-path="url(#clip0_2210_98767)">
<rect width="11" height="11" fill="white"/>
<rect width="5.5" height="11" fill="#000091"/>
<rect x="5.5" width="5.5" height="11" fill="#E1000F"/>
<path fill-rule="evenodd" clip-rule="evenodd" d="M3.12585 8.08947C3.03023 8.21696 2.93462 8.31258 2.839 8.4082C2.76863 8.47857 2.6361 8.56137 2.51004 8.64014C2.35063 8.73974 2.20154 8.8329 2.20154 8.88629C2.1346 8.91753 2.04954 8.95687 1.95187 9.00204C1.35198 9.27947 0.27642 9.77688 0.0023192 9.96875V11H10.45C10.4207 10.9854 10.3526 10.9368 10.2436 10.8591C9.87801 10.5983 9.05194 10.0092 7.68366 9.26876C7.4822 9.17719 7.2176 9.08562 7.02289 9.01824C6.87875 8.96835 6.77291 8.93172 6.75935 8.91816C6.66373 8.85442 6.59999 8.50382 6.72748 8.12134C6.73362 8.10293 6.73976 8.08333 6.74612 8.063C6.77281 7.9778 6.8035 7.87982 6.85497 7.80261V7.77074C6.88684 7.707 6.91871 7.64325 6.98246 7.5795V7.54763C7.01433 7.54763 7.01433 7.51576 7.01433 7.51576L7.04621 7.48389C7.06745 7.44139 7.11703 7.39889 7.16661 7.3564C7.1914 7.33515 7.21619 7.3139 7.23744 7.29265C7.27324 7.27475 7.30904 7.2669 7.35048 7.25782C7.38283 7.25073 7.41863 7.24288 7.46055 7.2289C7.63266 7.2289 7.80478 7.26333 7.97689 7.29775C8.09163 7.3207 8.20638 7.34365 8.32112 7.35639C8.35299 7.35639 8.38486 7.3564 8.41673 7.38827C8.51235 7.38827 8.63984 7.38827 8.73546 7.35639C8.86295 7.32452 8.99044 7.26078 9.05419 7.10141C9.11794 6.97392 9.14981 6.84643 9.08606 6.71894C8.99647 6.60695 9.08002 6.54218 9.15973 6.48038C9.19345 6.45424 9.22648 6.42863 9.24543 6.40021C9.26641 6.33726 9.24595 6.30194 9.22043 6.25788C9.20718 6.235 9.19257 6.20977 9.18168 6.1771C9.16877 6.16419 9.15063 6.16174 9.13149 6.15916C9.10339 6.15536 9.07315 6.15128 9.05419 6.11336C9.18168 6.04961 9.37292 5.95399 9.2773 5.79463C9.21356 5.69901 9.14981 5.57152 9.24543 5.4759C9.28206 5.45148 9.33274 5.44109 9.3849 5.4304C9.46887 5.41318 9.55671 5.39518 9.59603 5.31654C9.67214 5.16431 9.56649 5.01207 9.47199 4.87592C9.44777 4.84103 9.42429 4.8072 9.40479 4.7747C9.36229 4.6897 9.3198 4.63304 9.2773 4.57638C9.25605 4.54805 9.2348 4.51972 9.21355 4.48784C9.20479 4.4747 9.19543 4.46095 9.18571 4.44669C9.12473 4.35718 9.04981 4.24721 9.02232 4.13724C9.00319 4.06075 9.01849 3.98425 9.03379 3.90776C9.04399 3.85676 9.05419 3.80577 9.05419 3.75477C9.05419 3.49979 8.99044 3.24481 8.9267 2.98982C8.89483 2.92608 8.87889 2.86233 8.86295 2.79859C8.84702 2.73484 8.83108 2.6711 8.79921 2.60735C8.78858 2.5861 8.7815 2.56485 8.77442 2.5436C8.76025 2.50111 8.74609 2.45861 8.70359 2.41611C8.67172 2.38424 8.67172 2.32049 8.70359 2.28862C8.76733 2.25675 8.83108 2.19301 8.89482 2.12926C8.95857 2.03364 8.9267 1.93802 8.83108 1.87428C8.7583 1.85608 8.73746 1.90021 8.71518 1.94736C8.69843 1.9828 8.68088 2.01996 8.63984 2.03364H8.5761C8.5761 2.00177 8.60797 1.96989 8.63984 1.93802C8.63984 1.90615 8.63984 1.87428 8.60797 1.87428C8.54423 1.87428 8.48048 1.8424 8.44861 1.81053C8.28924 1.58742 8.03426 1.45993 7.77928 1.36431C7.81115 1.36431 7.84302 1.37228 7.8749 1.38025C7.90677 1.38822 7.93864 1.39618 7.97051 1.39618C8.09801 1.42806 8.2255 1.42806 8.32112 1.36431C8.37593 1.3369 8.40718 1.23879 8.43513 1.15103C8.43968 1.13674 8.44414 1.12272 8.44861 1.10933C8.47543 1.05567 8.43452 0.97944 8.40189 0.918637C8.39575 0.9072 8.38991 0.89631 8.38486 0.886219C8.32112 0.758728 8.19363 0.66311 8.06613 0.599364L7.81115 0.471873C7.74741 0.44 7.77928 0 7.77928 0H4.83999C4.83999 0 4.39999 0.22 3.85893 0.599364C3.83527 0.611194 3.81112 0.623025 3.78672 0.634976C3.61394 0.719619 3.42881 0.810318 3.31709 0.949965C3.1896 1.10933 3.06211 1.30057 2.99836 1.4918C2.80123 1.60445 2.67875 1.79174 2.56496 1.96574C2.54996 1.98867 2.53512 2.01137 2.52027 2.03364C2.48506 2.09701 2.44675 2.15882 2.40876 2.22011C2.27478 2.43626 2.14484 2.64589 2.16967 2.8942C2.19658 3.1364 2.24621 3.35587 2.29938 3.59098C2.30918 3.63434 2.31911 3.67823 2.32903 3.7229C2.32903 3.75367 2.33233 3.78444 2.33575 3.81628C2.34295 3.88336 2.35065 3.95516 2.32903 4.04163C2.34155 4.0917 2.34424 4.13686 2.34674 4.17903C2.35062 4.24423 2.35407 4.30229 2.39278 4.36035C2.40229 4.37938 2.40896 4.3984 2.41534 4.41658C2.43033 4.45931 2.44368 4.49736 2.4884 4.51972V4.58346C2.50433 4.58346 2.5123 4.59143 2.52027 4.5994C2.52824 4.60737 2.53621 4.61534 2.55214 4.61534V4.67908C2.58524 4.72045 2.62049 4.76183 2.65621 4.80376C2.75808 4.92334 2.86382 5.04746 2.93462 5.18905C2.96649 5.31654 2.77525 5.25279 2.67963 5.22092C2.52703 5.14462 2.43532 5.04803 2.33971 4.94733C2.3155 4.92184 2.29105 4.89608 2.26529 4.87032C2.26529 4.87032 2.23341 4.87032 2.23341 4.90219C2.25595 4.94727 2.3024 4.99235 2.34739 5.03601C2.42965 5.11585 2.50706 5.19098 2.42465 5.25279C2.39278 5.28466 2.35294 5.2767 2.3131 5.26873C2.27325 5.26076 2.23341 5.25279 2.20154 5.28466C2.18029 5.30591 2.18738 5.32716 2.19446 5.34841C2.198 5.35903 2.20154 5.36966 2.20154 5.38028C2.1257 5.34236 2.06114 5.33828 2.00114 5.33448C1.96029 5.3319 1.92155 5.32945 1.88281 5.31654C1.85654 5.3034 1.8411 5.27403 1.82533 5.24403C1.80283 5.20124 1.77966 5.15717 1.72345 5.15717C1.50034 5.09343 1.3091 5.06155 1.08599 5.02968C1.03011 5.02347 0.97422 5.01605 0.918097 5.0086C0.686155 4.97781 0.450187 4.94648 0.193555 4.99781C0.126651 4.99781 0.0619402 5.01317 0 5.03929V5.31472C0.0486007 5.3023 0.0954585 5.28883 0.141249 5.27567C0.213581 5.25488 0.28325 5.23485 0.352919 5.22092C0.440826 5.20993 0.524944 5.19137 0.607886 5.17306C0.754572 5.14069 0.89758 5.10912 1.05136 5.12172C0.829169 5.13654 0.606981 5.2106 0.384793 5.28466C0.300786 5.30867 0.221299 5.32363 0.144628 5.33806C0.0954076 5.34733 0.0473484 5.35638 0 5.36746V5.44924C0.371849 5.46681 0.740031 5.52882 1.08599 5.63527C1.21348 5.66714 1.37285 5.73088 1.50034 5.8265C1.53221 5.84244 1.55612 5.86634 1.58002 5.89025C1.60393 5.91415 1.62783 5.93806 1.6597 5.95399C1.75532 6.01774 1.85094 6.01774 1.94656 5.98587H2.04218C2.05426 5.98284 2.06642 5.97982 2.07864 5.97679C2.32407 5.91579 2.59157 5.84931 2.74338 5.66714C2.74338 5.69901 2.74338 5.69901 2.77525 5.69901C2.74914 5.75124 2.73372 5.80882 2.71805 5.86737C2.69546 5.95173 2.67233 6.0381 2.61589 6.11336C2.61589 6.11336 2.61589 6.14523 2.64776 6.1771H2.67963C2.67963 6.1771 2.64776 6.1771 2.64776 6.20898C2.64776 6.22491 2.65573 6.22491 2.66768 6.22491C2.67963 6.22491 2.69557 6.22491 2.71151 6.24085C2.61589 6.24085 2.55214 6.27272 2.4884 6.33647C2.4884 6.36834 2.52027 6.36834 2.55214 6.36834C2.53621 6.38428 2.52027 6.39224 2.50433 6.40021C2.4884 6.40818 2.47246 6.41615 2.45652 6.43209C2.45652 6.43209 2.45652 6.46396 2.4884 6.46396C2.4884 6.46396 2.45652 6.46396 2.45652 6.49583V6.55958C2.42465 6.55958 2.39278 6.59145 2.3609 6.62332C2.4034 6.66582 2.4459 6.65165 2.4884 6.63749C2.50965 6.6304 2.53089 6.62332 2.55214 6.62332C2.45652 6.65519 2.36887 6.69504 2.28122 6.73488C2.19357 6.77472 2.10592 6.81456 2.0103 6.84643C1.99437 6.84643 1.99437 6.86237 1.99437 6.8783C1.99437 6.89424 1.99437 6.91018 1.97843 6.91018C1.99549 6.92723 2.01255 6.9169 2.03449 6.90362C2.05355 6.89208 2.07629 6.8783 2.10592 6.8783C2.02731 6.92322 1.94474 6.96814 1.85961 7.01446C1.70313 7.09959 1.53799 7.18944 1.37285 7.29265C1.37285 7.29265 1.34098 7.32452 1.34098 7.35639H1.27723C1.25933 7.35639 1.25149 7.3765 1.2424 7.39977C1.23531 7.41794 1.22746 7.43804 1.21349 7.45201C1.26279 7.48489 1.3121 7.46691 1.35704 7.45052C1.39924 7.43513 1.43759 7.42114 1.46847 7.45201C1.50034 7.45201 1.43659 7.48389 1.40472 7.48389C1.40472 7.48389 1.40472 7.51576 1.37285 7.51576H1.18161C1.17307 7.5243 1.16453 7.53055 1.15661 7.53635C1.13495 7.55221 1.11787 7.56471 1.11787 7.61138C1.08599 7.61138 1.05412 7.61138 1.02225 7.64325C1.10217 7.63598 1.18541 7.63203 1.27045 7.62799C1.55845 7.61432 1.86712 7.59966 2.1378 7.45201C2.42465 7.29265 2.67963 7.13329 2.90274 6.8783C2.90274 6.8783 2.93462 6.8783 2.93462 6.91018C2.87087 7.06954 2.77525 7.19703 2.64776 7.29265C2.59995 7.30859 2.56011 7.34046 2.52027 7.37233C2.48043 7.40421 2.44059 7.43608 2.39278 7.45201C2.36091 7.46795 2.337 7.48389 2.3131 7.49982C2.28919 7.51576 2.26529 7.5317 2.23341 7.54763C1.98902 7.63317 1.72589 7.67186 1.46378 7.7104C1.04221 7.77238 0.623278 7.83398 0.289174 8.08947C0.289174 8.0576 0.289174 8.0576 0.257301 8.0576L0.161683 8.15322H0.225429C0.321047 8.08947 0.416665 8.0576 0.512283 8.02572L0.480411 8.0576L0.289174 8.15322C0.225432 8.18509 0.19356 8.21696 0.161689 8.24883L0.161683 8.28071C0.12981 8.28071 0.12981 8.31258 0.12981 8.31258V8.34445C0.0979368 8.34445 0.0979372 8.37632 0.0979372 8.37632V8.4082H0.161683C0.2085 8.43161 0.238124 8.38625 0.263183 8.34788C0.272245 8.334 0.280709 8.32104 0.289174 8.31258C0.30511 8.29664 0.321047 8.28867 0.336983 8.28071C0.35292 8.27274 0.368856 8.26477 0.384793 8.24883L0.352919 8.28071C0.352919 8.31258 0.384793 8.31258 0.384793 8.31258C0.289174 8.37632 0.193556 8.44007 0.0979372 8.53569H0.12981V8.56756C0.113873 8.5835 0.105905 8.59943 0.0979373 8.61537C0.0899694 8.63131 0.0820014 8.64724 0.066065 8.66318C0.0463666 8.66318 0.0388424 8.67535 0.0284442 8.69218C0.0220177 8.70258 0.0144935 8.71475 0.0023192 8.72693C0.0023192 8.72693 0.00145053 8.72779 0 8.72939V8.82254H0.0341915C0.12981 8.7588 0.225429 8.66318 0.321047 8.56756H0.352919C0.400728 8.53569 0.448538 8.49585 0.496347 8.45601C0.544157 8.41617 0.591966 8.37633 0.639775 8.34445C0.703517 8.31258 0.735389 8.28071 0.76726 8.24884L0.799139 8.21696C0.876343 8.16549 0.974326 8.1348 1.05953 8.10811C1.07986 8.10175 1.09945 8.09561 1.11787 8.08947H1.14974C1.24536 8.07353 1.34894 8.0576 1.45253 8.04166C1.55612 8.02572 1.6597 8.00979 1.75532 7.99385C1.88281 7.99385 2.01031 7.99385 2.16967 7.96198C2.24551 7.94302 2.31007 7.91278 2.37006 7.88468C2.41092 7.86554 2.44966 7.8474 2.4884 7.83449V7.86636C2.61589 7.81855 2.72744 7.73887 2.839 7.65919C2.95055 7.57951 3.0621 7.49982 3.1896 7.45201C3.20235 7.45201 3.21509 7.46221 3.22784 7.47241C3.24697 7.48771 3.26609 7.50301 3.28522 7.48389C3.30365 7.46914 3.32208 7.45397 3.34061 7.43872C3.4823 7.32209 3.62975 7.20072 3.82705 7.2289C3.82705 7.2289 3.82705 7.26078 3.85893 7.26078C3.82705 7.27671 3.79518 7.30062 3.76331 7.32452C3.73143 7.34843 3.69956 7.37233 3.66769 7.38827C3.66769 7.38827 3.66769 7.42014 3.69956 7.42014C3.74737 7.4042 3.77925 7.3803 3.81112 7.3564C3.84299 7.33249 3.87486 7.30859 3.92267 7.29265C3.92267 7.29265 3.92267 7.32452 3.8908 7.35639C3.85893 7.38827 3.82705 7.41217 3.79518 7.43608C3.76331 7.45998 3.73144 7.48389 3.69956 7.51576C3.55082 7.622 3.43041 7.75658 3.31 7.89115C3.2498 7.95844 3.1896 8.02573 3.12585 8.08947ZM1.12338 5.11907C1.16404 5.11883 1.2047 5.12078 1.24536 5.1253C1.20115 5.1032 1.15695 5.11175 1.12338 5.11907Z" fill="white"/>
<path fill-rule="evenodd" clip-rule="evenodd" d="M0 6.90151V5.7756C0.00608513 5.77666 0.0121703 5.77768 0.0182554 5.77869C0.0660646 5.78666 0.113874 5.79463 0.161683 5.8265C0.136618 5.85157 0.11648 5.85692 0.0973955 5.85419C0.13461 5.86494 0.171798 5.8756 0.208928 5.88624C0.680479 6.0214 1.14276 6.15391 1.53221 6.43209C1.14974 6.62332 0.767266 6.71894 0.352919 6.78269C0.289174 6.78269 0.257302 6.78269 0.225429 6.75081C0.225429 6.78269 0.225428 6.81456 0.193555 6.81456C0.12981 6.81456 0.0660643 6.81456 0.0341915 6.84643C0.0261612 6.87052 0.0140843 6.88854 0 6.90151ZM0.0734354 5.84726C0.0692984 5.84562 0.0651332 5.84382 0.060899 5.842C0.043483 5.8345 0.024901 5.8265 0.0023192 5.8265C0.0260273 5.83347 0.0497353 5.84039 0.0734354 5.84726Z" fill="white"/>
<path d="M0 7.90318C0.0396011 7.89996 0.0826904 7.89823 0.12981 7.89823C0.0767047 7.87168 0.0457201 7.86725 0 7.86651V7.90318Z" fill="white"/>
<path d="M0 4.76225C0.0375863 4.73628 0.0700284 4.70884 0.0948276 4.67908C0.0948276 4.71095 0.0948281 4.71095 0.0629553 4.74283C0.0948281 4.7747 0.0948283 4.7747 0.126701 4.7747C0.14795 4.76408 0.169198 4.75699 0.190447 4.74991C0.232944 4.73574 0.27544 4.72158 0.317937 4.67908C0.22863 4.63443 0.108044 4.60541 0 4.61395V4.76225Z" fill="white"/>
<path d="M0.418786 7.16881C0.428604 7.16693 0.437905 7.16516 0.445429 7.16516C0.481294 7.15619 0.51716 7.15227 0.552316 7.14843C0.642128 7.13861 0.72731 7.12929 0.796029 7.03767C0.783117 7.02475 0.764973 7.02231 0.745837 7.01972C0.717737 7.01593 0.687498 7.01184 0.668538 6.97392C0.636665 6.94205 0.57292 6.97392 0.541047 7.0058C0.524073 7.01428 0.504839 7.02051 0.48515 7.02688C0.430899 7.04445 0.373195 7.06313 0.34981 7.13329C0.34981 7.18198 0.387012 7.17488 0.418786 7.16881Z" fill="white"/>
<path d="M8.28909 3.72397C8.35284 3.75584 8.44845 3.75584 8.44845 3.78772C8.41658 3.91521 8.22535 3.94708 8.09785 4.10644H8.06598C8.00224 4.13832 8.03411 4.23393 7.97036 4.23393C7.90662 4.20206 7.87474 4.23394 7.811 4.26581C7.87474 4.32955 7.97036 4.3933 8.06598 4.36143C8.09786 4.36143 8.12973 4.3933 8.12973 4.42517C8.12973 4.42517 8.1616 4.42517 8.1616 4.3933C8.19347 4.3933 8.19347 4.3933 8.19347 4.42517V4.45704C8.12973 4.52079 8.06598 4.48892 8.00224 4.52079C8.12973 4.55266 8.28909 4.55266 8.38471 4.52079C8.48033 4.48892 8.38471 4.32955 8.44845 4.23393C8.41658 4.23393 8.44846 4.17019 8.41658 4.17019C8.44846 4.13832 8.48033 4.07457 8.5122 4.07457C8.54407 4.07457 8.60782 4.0427 8.60782 4.01083C8.60782 3.97895 8.54407 3.94708 8.54407 3.91521C8.63969 3.85146 8.73531 3.75584 8.70344 3.62835C8.67157 3.56461 8.54407 3.56461 8.44845 3.53273C8.35284 3.50086 8.25722 3.53273 8.1616 3.56461C8.06598 3.56461 8.00224 3.62835 7.90662 3.62835C7.77913 3.66023 7.68351 3.72397 7.58789 3.78772C7.71538 3.72397 7.84287 3.72397 7.97036 3.6921C8.09785 3.72397 8.1616 3.6921 8.28909 3.72397Z" fill="#9C9B9B"/>
</g>
<path fill-rule="evenodd" clip-rule="evenodd" d="M13 24H24V13H13V24Z" fill="#E30613"/>
<path fill-rule="evenodd" clip-rule="evenodd" d="M18.4995 23.7273C15.6127 23.7273 13.2725 21.3871 13.2725 18.5003C13.2725 15.6137 15.6127 13.2734 18.4995 13.2734C21.3861 13.2734 23.7266 15.6137 23.7266 18.5003C23.7266 21.3871 21.3861 23.7273 18.4995 23.7273Z" fill="white"/>
<path fill-rule="evenodd" clip-rule="evenodd" d="M14.7079 17.1172H13.7012C13.7012 17.1172 13.7869 17.7144 13.7869 18.5036C13.7869 19.2927 13.7012 19.8846 13.7012 19.8846H14.7079C15.0455 19.8846 15.6239 19.6607 15.6239 18.5036C15.6239 17.3466 15.0507 17.1172 14.7079 17.1172ZM14.5099 19.33V17.6718C14.5099 17.6718 14.9006 17.581 14.9006 18.5036C14.9006 19.426 14.5099 19.33 14.5099 19.33ZM17.795 19.6777C17.7185 19.4162 17.5879 18.9467 17.4982 18.5037C17.3646 17.8432 17.2947 17.1172 17.2947 17.1172H16.02C16.02 17.1172 15.9504 17.8425 15.8165 18.5037C15.6827 19.1646 15.4632 19.8847 15.4632 19.8847H16.3521C16.3521 19.8847 16.32 19.762 16.3521 19.5221C16.3842 19.2822 16.4433 19.1596 16.4433 19.1596H16.8716C16.8716 19.1596 16.9413 19.298 16.9626 19.5274C16.9846 19.7639 16.9626 19.8847 16.9626 19.8847H17.7659H17.857H18.6711C18.6711 19.8847 18.6175 19.7192 18.5854 19.4208C18.5531 19.1222 18.5854 18.9462 18.5854 18.9462C18.5854 18.9462 18.7139 19.1167 18.8102 19.4153C18.9067 19.7139 18.8906 19.8847 18.8906 19.8847H19.8653C19.8653 19.8847 19.7099 19.5466 19.5011 19.1917C19.2976 18.8449 19.1798 18.6689 19.1798 18.6689C19.1798 18.6689 19.6618 18.5248 19.6618 17.8957C19.6618 17.8396 19.6582 17.7874 19.6515 17.7388C19.7139 17.716 19.8648 17.6718 20.0957 17.6718C20.0957 17.6718 20.1222 18.1723 20.0957 18.6476C20.0688 19.1274 20.0099 19.8846 20.0099 19.8846H20.8989C20.8989 19.8846 20.84 19.1222 20.8184 18.6476C20.7971 18.173 20.8184 17.6718 20.8184 17.6718C20.8184 17.6718 21.0543 17.661 21.2846 17.752V17.1919C21.3807 17.3875 21.6365 17.9388 21.7612 18.5036C21.9166 19.2074 21.8254 19.8846 21.8254 19.8846H22.7198C22.7198 19.8846 22.6233 19.2021 22.7787 18.5036C22.9341 17.8051 23.2982 17.1172 23.2982 17.1172H22.4895L22.2699 17.9225L22.0557 17.1172H21.2846H21.2469H19.619V17.5909C19.4989 17.2074 19.1582 17.1172 19.0139 17.1172H17.7766C17.7766 17.1172 17.8571 17.6239 17.8571 18.5037C17.8571 19.0518 17.8217 19.4531 17.795 19.6777ZM16.4859 18.605L16.6574 17.6718L16.8288 18.605H16.4859ZM18.5854 17.5866V18.3061C18.5854 18.3061 18.8906 18.3061 18.8906 17.9436C18.8906 17.5811 18.5854 17.5866 18.5854 17.5866Z" fill="#1D1D1B"/>
<path fill-rule="evenodd" clip-rule="evenodd" d="M18.5 11C15.4674 11 13 8.53279 13 5.5C13 2.46721 15.4672 0 18.5 0C21.5328 0 24 2.46721 24 5.5C24 8.53279 21.5326 11 18.5 11Z" fill="white"/>
<path fill-rule="evenodd" clip-rule="evenodd" d="M18.5 1.1627C16.1084 1.1627 14.163 3.10833 14.163 5.50014C14.163 7.8915 16.1084 9.83735 18.5 9.83735C20.8916 9.83735 22.8372 7.89127 22.8372 5.50014C22.8372 3.10856 20.8918 1.1627 18.5 1.1627ZM18.5 11C15.4674 11 13 8.53279 13 5.5C13 2.46721 15.4672 0 18.5 0C21.5328 0 24 2.46721 24 5.5C24 8.53279 21.5326 11 18.5 11Z" fill="#0B70B5"/>
<path fill-rule="evenodd" clip-rule="evenodd" d="M19.6641 6.93988C19.6641 6.93988 19.4434 7.5396 18.56 7.5396H17.8005V4.31087C17.8005 4.05879 18.0216 3.82138 18.274 3.82138H18.2804V3.10156H16.0015V3.82138H15.9951C16.2477 3.82138 16.481 4.05879 16.481 4.31087V7.05125C16.481 7.30356 16.2477 7.5396 15.9951 7.5396H16.0015V8.61921H18.5801H20.1996V6.93988H19.6641Z" fill="#0B70B5"/>
<path fill-rule="evenodd" clip-rule="evenodd" d="M19.0626 2.04688C18.3941 2.04688 17.7768 2.26183 17.2783 2.62185H18.761V4.14765C18.401 4.20333 18.2812 4.44648 18.2812 4.73775V7.0599H18.7012C19.0892 7.0599 19.4013 6.81996 19.4217 6.46017H20.6803V7.56429C21.52 7.02804 22.0466 6.09969 22.0466 5.05171C22.0466 3.39621 20.7183 2.04688 19.0626 2.04688Z" fill="#ED8B18"/>
<path d="M5.66367 13.8503C5.65183 13.8333 5.63637 13.8191 5.61838 13.8088C5.60039 13.7984 5.58034 13.7922 5.55966 13.7906L5.49106 13.7839C5.44311 13.7707 4.41188 13.7876 4.16993 13.9433C4.14411 13.7795 4.08805 13.5818 3.80553 13.5213C3.60637 13.4793 3.17706 13.6689 3.3209 14.0974C3.33366 14.1328 3.35326 14.1652 3.37857 14.1929C3.40389 14.2206 3.43442 14.2431 3.46843 14.259C3.50531 14.2782 3.56358 14.2693 3.60711 14.3814C3.61965 14.4146 3.64399 14.4109 3.66538 14.4043C3.68677 14.3977 3.6853 14.4006 3.71111 14.422C3.71588 14.4267 3.72195 14.4299 3.72853 14.431C3.73511 14.4322 3.74189 14.4314 3.748 14.4287C3.75114 14.4316 3.75485 14.4339 3.7589 14.4355C3.76296 14.437 3.76727 14.4377 3.7716 14.4375C3.78193 14.4375 3.80553 14.4301 3.81143 14.4375C3.89331 14.5032 3.98847 14.3999 4.02461 14.335L4.15665 14.7355C4.12493 14.7082 3.80037 14.6145 3.64473 14.7886C3.509 14.9362 3.41015 15.142 3.29582 15.4909C3.28045 15.5356 3.25409 15.5757 3.21916 15.6075C3.18422 15.6394 3.14184 15.6619 3.09591 15.6731C2.91888 15.738 3.02215 15.8206 3.06715 15.8287C3.20494 15.8483 3.34513 15.8428 3.48097 15.8125C3.54662 15.78 3.49793 15.6288 3.57096 15.5351L3.73251 15.3264C3.73824 15.4342 3.71853 15.5418 3.67497 15.6406C3.62186 15.7704 3.46031 15.839 3.41237 15.901C3.32754 16.0102 3.52228 16.019 3.57391 16.0013C3.703 15.9571 3.79521 15.9593 3.84905 15.9276C3.92282 15.8848 3.87045 15.769 3.89479 15.7217C3.96118 15.5904 4.18985 15.3035 4.21567 15.2578C4.21928 15.2518 4.22248 15.2457 4.22525 15.2393C4.35954 15.2813 4.49992 15.3005 4.64055 15.2961C5.01749 15.2511 5.10158 14.9848 5.06322 14.7798C5.03007 14.6433 4.96454 14.5168 4.87217 14.4109C4.77111 14.2501 4.71505 14.1653 4.68186 14.1225C4.79029 14.0967 5.39 13.9315 5.39221 13.9366C5.41508 13.9853 5.46598 13.9964 5.48368 14.0104C5.52278 14.0318 5.54491 13.9986 5.52942 13.989C5.51323 13.9796 5.50035 13.9654 5.49253 13.9484C5.53625 13.948 5.57992 13.9512 5.6231 13.958C5.66515 13.9639 5.69318 13.8703 5.66367 13.8503Z" fill="#0C419A"/>
<path fill-rule="evenodd" clip-rule="evenodd" d="M10.998 17.4665C10.9013 16.9502 10.4189 16.6293 10.1703 16.5238C10.0823 16.485 9.99128 16.4535 9.89815 16.4294L9.81553 16.4021C9.83323 16.29 9.96306 16.2811 10.0413 16.1211C10.2625 15.6667 9.80815 15.3465 9.47179 15.4203C9.31319 15.4557 9.20254 15.5125 9.17673 15.6335C9.16345 15.6991 9.11255 15.7014 9.0292 15.7884C9.00264 15.8164 9.06165 15.8622 9.07124 15.8813C9.07124 15.8865 9.05649 15.9108 9.05059 15.9381C9.04469 15.9654 9.05059 15.961 9.05059 15.9647C9.03976 15.9843 9.03417 16.0064 9.03436 16.0289C9.02217 16.053 9.01582 16.0797 9.01582 16.1067C9.01582 16.1337 9.02217 16.1604 9.03436 16.1845C9.06818 16.2365 9.09149 16.2947 9.10296 16.3557C9.10296 16.3697 9.10296 16.377 9.041 16.3557C9.02551 16.3512 8.41695 16.172 8.34908 16.1262C8.28122 16.0805 7.67045 15.421 7.60406 15.2927C7.56791 15.2189 7.53029 15.1754 7.51038 15.1769C7.36801 15.1857 7.61365 15.4424 7.47571 15.3547C7.4403 15.3318 7.33408 15.2573 7.32818 15.2514C7.30162 15.23 7.30826 15.2403 7.28908 15.2093C7.27773 15.1863 7.26194 15.1658 7.24261 15.1489C7.22712 15.1378 7.21753 15.1348 7.20647 15.1378C7.1954 15.1407 7.18803 15.1592 7.18286 15.1607C7.17477 15.1598 7.16661 15.1598 7.15852 15.1607C7.12311 15.1695 7.14967 15.2602 7.15852 15.3023C7.19282 15.398 7.23578 15.4903 7.28687 15.5782C7.44104 15.6844 7.59299 15.7736 7.59816 15.7795C7.76413 15.9721 7.95887 16.2133 8.13295 16.3962C8.27163 16.5438 8.90453 16.9126 8.92593 16.9222C8.96723 16.9472 9.03289 17.0822 8.93847 18.0486C8.90306 18.4122 8.64341 19.1853 8.76659 19.5851C8.90236 19.954 8.99205 20.3383 9.03362 20.7292C9.05428 20.8878 8.93109 20.9837 8.75479 21.1113C8.68619 21.1614 8.49293 21.2809 8.47301 21.2986C8.44055 21.3281 8.47301 21.3724 8.51284 21.3931C8.56529 21.4202 8.6198 21.4431 8.67586 21.4617C8.77942 21.477 8.88509 21.4564 8.97535 21.4034C9.1037 21.3296 9.1155 21.3193 9.19074 21.2736C9.27778 21.2212 9.38253 21.2042 9.41204 21.1157C9.44818 20.9977 9.3486 20.8288 9.35893 20.752C9.43269 20.1988 9.52637 19.9251 9.38696 19.5858C9.35893 19.518 9.58907 18.7788 9.60825 18.8784C9.64366 19.0731 9.65767 19.6522 9.66431 20.083C9.66431 20.2711 9.81848 20.9394 9.86717 21.1791C9.94093 21.548 9.31762 21.843 9.45482 21.9537C9.51055 21.9917 9.57404 22.0169 9.64071 22.0274C9.70679 22.0425 9.77589 22.0372 9.83894 22.0124C9.90199 21.9875 9.95605 21.9441 9.99404 21.888C10.1268 21.7228 10.0862 21.7685 10.191 21.6505C10.2817 21.5487 10.2168 21.3731 10.205 21.2817C10.1814 21.0936 10.2013 21.0441 10.1998 20.7063C10.1928 20.4894 10.2078 20.2724 10.2448 20.0586C10.3429 19.411 10.4034 19.0591 10.4337 18.784V18.7685C10.4337 18.7685 10.4809 18.7855 10.5015 18.7515C10.524 18.7054 10.5368 18.6552 10.5392 18.604C10.5473 18.5679 10.562 18.6143 10.562 18.6143C10.577 18.6521 10.5876 18.6914 10.5937 18.7316C10.5834 18.7867 10.5661 18.8403 10.5421 18.8909C10.517 18.9647 10.5805 18.975 10.5967 18.9809C10.6876 18.9364 10.7679 18.8727 10.832 18.7943C10.8515 18.7402 10.8606 18.6829 10.8586 18.6254C10.8499 18.5013 10.8322 18.378 10.8055 18.2566C10.8645 18.0655 11.0216 17.5956 10.998 17.4665ZM10.5554 18.213C10.5347 18.3053 10.5288 18.2175 10.4418 18.559L10.4514 18.5103C10.4514 18.4624 10.4514 18.4144 10.4514 18.3628C10.4514 17.9394 10.1276 17.035 10.3238 17.2276C10.3238 17.2276 10.5598 17.392 10.6056 17.5174C10.6439 17.617 10.6306 17.8877 10.5554 18.213Z" fill="#0C419A"/>
<path d="M2.66365 19.2254C2.58988 19.162 2.3354 18.8131 2.16869 18.6759C2.08457 18.5837 2.00786 18.485 1.93928 18.3808C1.63758 17.9788 1.57045 17.9559 1.36096 17.9205C1.31818 17.8917 1.33219 17.8586 1.33662 17.8571C1.37274 17.8479 1.4065 17.8312 1.43567 17.808C1.46484 17.7848 1.48875 17.7557 1.50583 17.7226C1.52292 17.6894 1.53278 17.6531 1.53476 17.6159C1.53674 17.5786 1.53081 17.5414 1.51734 17.5067C1.5048 17.4543 1.54021 17.4329 1.53947 17.3828C1.53849 17.3147 1.52499 17.2475 1.49964 17.1843C1.50799 17.1606 1.51014 17.1352 1.50588 17.1104C1.50162 17.0856 1.49109 17.0623 1.4753 17.0427C1.32777 16.8568 0.958943 16.848 0.769368 16.98C0.615937 17.0862 0.70593 17.16 0.657983 17.3105C0.645346 17.3519 0.64452 17.396 0.655598 17.4378C0.666676 17.4796 0.689218 17.5176 0.720683 17.5473C0.728059 17.5974 0.879277 17.6948 0.849771 17.801C0.820265 17.9072 0.640279 17.9338 0.644705 17.9338C0.625657 17.9382 0.607293 17.9451 0.590119 17.9544C0.308337 18.1153 0.0354071 18.3491 0 18.6065C0.0154906 18.8138 0.336368 19.1126 0.542909 19.2704C0.573153 19.6237 0.797398 20.1644 0.807725 20.1858C0.837969 20.2507 0.744287 20.1371 0.518567 20.0604C0.408657 20.0236 0.264078 19.8738 0.233097 20.0494C0.219819 20.1231 0.251538 20.25 0.182199 20.4079C0.129826 20.5281 0.191051 20.7206 0.323828 20.7169C0.419722 20.7169 0.476521 20.4219 0.476521 20.4219C0.476521 20.4219 0.940502 20.6528 1.1618 20.5761C1.29089 20.5311 1.32039 20.014 1.19278 19.5529C1.14778 19.3914 1.27613 19.8163 1.58594 20.1903C1.65455 20.2729 1.59406 20.3378 1.63906 20.6454C1.65172 20.7107 1.65692 20.7773 1.65455 20.8438C1.64569 20.9913 1.50333 21.1691 1.82863 21.2525C2.15393 21.3358 2.13328 21.4155 2.3413 21.2761C2.43424 21.2134 2.05509 21.175 1.98132 20.9508C1.97702 20.9348 1.97405 20.9185 1.97247 20.9021C1.96362 20.7251 2.04624 20.312 2.01968 20.1733C1.90166 19.4725 1.60734 19.1487 1.56972 18.9849C1.56972 18.4959 1.53431 18.3425 1.58078 18.4524C1.64325 18.5657 1.71453 18.674 1.79396 18.7762C1.80503 18.7902 1.8183 18.805 1.83232 18.8204C1.8585 18.8518 1.8882 18.88 1.92084 18.9045C2.12517 19.083 2.45047 19.2962 2.49399 19.3427C2.49399 19.3427 2.51833 19.5581 2.60685 19.5426C2.69537 19.5271 3.07673 19.3575 3.06936 19.3147C3.05387 19.235 2.67693 19.2372 2.66365 19.2254ZM0.540696 18.954C0.481685 18.8404 0.319402 18.6294 0.331204 18.5947C0.421197 18.4472 0.517829 18.4044 0.546598 18.414C0.575366 18.4236 0.540696 18.954 0.540696 18.954Z" fill="#0C419A"/>
<path d="M9.13033 23.1878C9.11337 23.1789 8.88396 23.0941 8.6811 22.7695C8.59037 22.622 7.90879 21.3614 7.81584 21.115C7.63143 20.6274 6.19302 19.7503 6.13253 19.6994C6.08974 19.6648 6.09491 19.5799 6.11114 19.5246C6.23211 19.1145 6.1849 18.7471 6.20777 18.6918C6.26678 18.5524 6.3553 18.3495 6.28965 18.2175L6.14212 17.9829C6.14212 17.9829 6.90263 18.2581 7.07893 18.2212C7.23089 18.1887 7.99657 17.6628 8.03787 17.6399C8.1441 17.5861 8.39858 17.6657 8.65602 17.3854C8.75266 17.28 8.68258 17.2438 8.66488 17.2622C8.65611 17.2476 8.64195 17.2369 8.62541 17.2325C8.60888 17.228 8.59128 17.2303 8.57636 17.2386C8.51513 17.2733 8.30343 17.3345 8.34252 17.3058C8.49595 17.1907 8.38973 17.1582 8.38973 17.1582C8.32261 17.2136 8.01722 17.291 7.95821 17.3397C7.88444 17.3965 7.8424 17.4452 7.81068 17.4651C7.55119 17.6108 7.27297 17.7202 6.98377 17.7904C6.91886 17.8052 6.31178 17.4083 5.96066 17.3545C5.84153 17.3273 5.71734 17.3322 5.60068 17.3685C5.47528 17.4039 5.48487 17.2209 5.57782 17.1789C5.6265 17.156 5.70764 17.1413 5.73789 17.0793C5.74738 17.0548 5.75175 17.0286 5.75073 17.0024C5.74972 16.9761 5.74334 16.9503 5.73198 16.9266C5.73421 16.9195 5.7349 16.912 5.73401 16.9047C5.73312 16.8973 5.73067 16.8902 5.72682 16.8838C5.71797 16.8624 5.71944 16.8735 5.7224 16.8521C5.72535 16.8307 5.71281 16.8241 5.70764 16.8064C5.705 16.7927 5.70681 16.7784 5.71281 16.7658C5.78657 16.7038 5.75485 16.6751 5.74526 16.6662C5.72977 16.6471 5.61617 16.5984 5.60658 16.5246C5.59334 16.443 5.5685 16.3638 5.53282 16.2893C5.52544 16.2672 5.5129 16.13 5.45242 16.0746C5.37865 16.0075 5.22301 15.9271 4.88738 16.0156C4.77968 16.0451 4.7996 16.0968 4.52962 16.1469C4.20727 16.2067 4.02949 16.6861 4.05826 16.8846C4.08186 17.0454 4.2198 16.9672 4.2139 17.0387C4.20505 17.1501 4.19325 17.3338 4.4293 17.4024C4.4802 17.4172 4.78927 17.3677 4.90656 17.3884C4.90656 17.3884 5.00245 17.3965 4.9545 17.4924C4.9309 17.5396 4.62109 17.6621 4.54511 17.6945C4.34152 17.7786 3.82147 18.6321 3.66436 18.7125C3.57262 18.7563 3.48477 18.8079 3.40175 18.8666C3.18783 19.0009 2.97908 19.1617 2.86401 19.1617C2.71058 19.1521 2.58591 19.2259 2.48338 19.4568C2.45314 19.5246 2.47084 19.5593 2.52616 19.5733C2.53769 19.5877 2.55213 19.5994 2.56853 19.6078C2.58493 19.6162 2.60292 19.621 2.62132 19.622C2.66705 19.6648 2.71869 19.6375 2.75779 19.6168C2.87802 19.5512 2.90532 19.4995 2.95252 19.4804C3.06981 19.442 3.76394 19.1742 3.91811 19.0547C4.15268 18.9264 4.62477 18.4417 4.72952 18.4366C4.82541 18.4277 5.06589 18.6402 4.99212 19.0488C4.96631 19.1883 4.79222 19.4398 4.69706 19.5866C4.50528 19.8772 4.65354 20.131 4.61592 20.1922C4.4175 20.516 4.17333 20.949 3.76173 21.3193C3.60166 21.4233 3.26381 21.4469 3.0853 21.4993C2.67517 21.6195 2.23848 21.9139 1.92646 22.0894C1.82318 22.147 1.72434 22.023 1.59451 22.0083C1.46469 21.9935 1.45362 22.1897 1.38723 22.3675C1.36658 22.4221 1.35773 22.4479 1.25888 22.667C1.21979 22.7526 1.11725 23.0166 1.22053 23.1258C1.31494 23.2571 1.53919 22.8455 1.71254 22.6449C1.80474 22.5386 1.86007 22.504 2.05997 22.4582C2.18685 22.4287 3.19226 22.1558 3.85614 22.0105C3.87237 22.0105 3.89008 22.0039 3.90926 21.9987C4.77157 21.7774 5.6656 20.6488 5.67961 20.654L7.14384 21.3798C7.29137 21.4595 7.29137 21.7449 7.46767 22.0695C7.57242 22.2657 7.72659 22.4383 8.35285 23.0513C8.43325 23.1302 8.36687 23.2608 8.40375 23.3825C8.44063 23.5042 8.50407 23.5153 8.62135 23.5057C8.73864 23.4961 8.82863 23.4792 8.93781 23.4718C9.07722 23.4637 9.0396 23.4784 9.20262 23.5028C9.28155 23.5146 9.46227 23.5404 9.58989 23.4135C9.81635 23.1848 9.34425 23.2999 9.13033 23.1878Z" fill="#0C419A"/>
<path d="M7.54062 22.5547C7.53545 22.5442 7.52823 22.5348 7.51939 22.5271C7.51054 22.5194 7.50025 22.5136 7.48911 22.5099C7.47797 22.5063 7.46622 22.5049 7.45454 22.5059C7.44286 22.5068 7.4315 22.5101 7.42112 22.5156C6.75493 22.8539 6.01497 23.021 5.26803 23.0018C4.5211 22.9827 3.79069 22.7778 3.14275 22.4057C3.13261 22.3989 3.12118 22.3943 3.10917 22.3921C3.09716 22.3899 3.08484 22.3902 3.07295 22.3929C3.06106 22.3957 3.04987 22.4009 3.04006 22.4081C3.03025 22.4154 3.02203 22.4246 3.01592 22.4352C3.0098 22.4457 3.00592 22.4574 3.00451 22.4695C3.00309 22.4817 3.00418 22.494 3.0077 22.5056C3.01123 22.5173 3.01711 22.5282 3.02498 22.5375C3.03286 22.5468 3.04257 22.5544 3.0535 22.5598C3.72695 22.9464 4.48599 23.1593 5.26223 23.1794C6.03846 23.1994 6.8075 23.0261 7.50005 22.6749C7.51072 22.6698 7.52026 22.6626 7.5281 22.6538C7.53595 22.6449 7.54194 22.6346 7.54572 22.6234C7.5495 22.6122 7.551 22.6003 7.55012 22.5885C7.54925 22.5767 7.54601 22.5652 7.54062 22.5547Z" fill="#0C419A"/>
<path d="M1.20823 16.696C1.19553 16.6957 1.183 16.6929 1.17135 16.6879C1.14985 16.6781 1.13312 16.6601 1.12482 16.638C1.11653 16.6159 1.11734 16.5914 1.12709 16.5699C1.52683 15.6861 2.19239 14.9491 3.03096 14.4617C3.04105 14.4545 3.05252 14.4496 3.06462 14.4471C3.07673 14.4446 3.08921 14.4447 3.10129 14.4473C3.11337 14.4499 3.12477 14.455 3.13478 14.4623C3.14479 14.4695 3.15318 14.4788 3.15944 14.4894C3.16569 14.5001 3.16966 14.5119 3.17109 14.5242C3.17253 14.5364 3.17141 14.5489 3.16779 14.5607C3.16417 14.5725 3.15814 14.5834 3.15008 14.5928C3.14202 14.6022 3.1321 14.6098 3.12095 14.6151C2.31455 15.0844 1.67457 15.7935 1.29011 16.6436C1.28276 16.6592 1.27118 16.6723 1.2567 16.6816C1.24222 16.6908 1.22542 16.6958 1.20823 16.696Z" fill="#0C419A"/>
<path d="M8.82819 15.5506C8.8156 15.5507 8.80316 15.548 8.7917 15.5427C8.78025 15.5375 8.77005 15.5299 8.7618 15.5204C8.05309 14.7185 7.08177 14.1954 6.02217 14.0451C6.01055 14.0435 5.99936 14.0395 5.98925 14.0336C5.97914 14.0276 5.97031 14.0197 5.96326 14.0103C5.9562 14.0009 5.95106 13.9902 5.94814 13.9789C5.94521 13.9675 5.94455 13.9557 5.9462 13.944C5.94784 13.9324 5.95176 13.9212 5.95773 13.9111C5.9637 13.901 5.97161 13.8922 5.98099 13.8851C5.99037 13.8781 6.00106 13.8729 6.01243 13.87C6.0238 13.8671 6.03563 13.8664 6.04725 13.8681C7.14892 14.0244 8.15875 14.5684 8.89531 15.4024C8.90645 15.4153 8.91365 15.4311 8.91606 15.448C8.91848 15.4649 8.91601 15.4821 8.90895 15.4976C8.90189 15.5131 8.89053 15.5263 8.87622 15.5356C8.86191 15.5448 8.84524 15.5498 8.82819 15.5499V15.5506Z" fill="#0C419A"/>
<defs>
<clipPath id="clip0_2210_98767">
<rect width="11" height="11" fill="white"/>
</clipPath>
</defs>
</svg>
