<svg width="24" height="24" viewBox="0 0 24 24" fill="none" xmlns="http://www.w3.org/2000/svg">
<path fill-rule="evenodd" clip-rule="evenodd" d="M10.5012 22.75L0.630616 18.2091C-0.210205 17.8127 -0.210205 17.2 0.630616 16.8396L4.06702 15.2539L10.4646 18.2091C11.3054 18.6056 12.658 18.6056 13.4623 18.2091L19.8598 15.2539L23.2963 16.8396C24.1371 17.2361 24.1371 17.8488 23.2963 18.2091L13.4258 22.75C12.658 23.1104 11.3054 23.1104 10.5012 22.75Z" fill="#FD7046"/>
<path fill-rule="evenodd" clip-rule="evenodd" d="M10.5012 17.1672L0.630616 12.6262C-0.210205 12.2297 -0.210205 11.6171 0.630616 11.2567L3.99391 9.70703L10.5012 12.6983C11.342 13.0947 12.6946 13.0947 13.4989 12.6983L20.0061 9.70703L23.3693 11.2567C24.2102 11.6531 24.2102 12.2658 23.3693 12.6262L13.4989 17.1672C12.658 17.5636 11.3054 17.5636 10.5012 17.1672Z" fill="#96BF43"/>
<path fill-rule="evenodd" clip-rule="evenodd" d="M10.5012 11.7252L0.630616 7.18431C-0.210205 6.78788 -0.210205 6.17522 0.630616 5.81482L10.5012 1.27389C11.342 0.877455 12.6946 0.877455 13.4989 1.27389L23.3693 5.81482C24.2102 6.21126 24.2102 6.82392 23.3693 7.18431L13.4989 11.7252C12.658 12.0856 11.3054 12.0856 10.5012 11.7252Z" fill="#62C1E6"/>
</svg>
