<svg width="164" height="96" viewBox="0 0 164 96" fill="none" xmlns="http://www.w3.org/2000/svg">
<path d="M90.25 6C90.25 5.17157 90.9216 4.5 91.75 4.5H113.293L121.75 12.9571V42C121.75 42.8284 121.078 43.5 120.25 43.5H91.75C90.9216 43.5 90.25 42.8284 90.25 42V6Z" fill="white" stroke="#65A6FF"/>
<path fill-rule="evenodd" clip-rule="evenodd" d="M112.875 4.625V13.375H121.625" fill="#65A6FF"/>
<path d="M112.875 4.625V13.375H121.625" stroke="#65A6FF"/>
<path fill-rule="evenodd" clip-rule="evenodd" d="M114.75 17.75H97.25V20.25H114.75V17.75ZM112.25 22.75H97.25V25.25H112.25V22.75ZM97.25 27.75H114.75V30.25H97.25V27.75ZM109.75 32.75H97.25V35.25H109.75V32.75Z" fill="#197BFF"/>
<path fill-rule="evenodd" clip-rule="evenodd" d="M89.75 6C89.75 4.89543 90.6454 4 91.75 4H113.5L122.25 12.75V42C122.25 43.1046 121.355 44 120.25 44H91.75C90.6454 44 89.75 43.1046 89.75 42V6Z" fill="#B2D3FF"/>
<path fill-rule="evenodd" clip-rule="evenodd" d="M113.729 5.47855C113.414 5.16357 112.875 5.38665 112.875 5.83211V13.375H120.418C120.863 13.375 121.086 12.8364 120.771 12.5214L113.729 5.47855Z" fill="#65A6FF" stroke="#65A6FF"/>
<path fill-rule="evenodd" clip-rule="evenodd" d="M112.75 4C112.474 4 112.25 4.22386 112.25 4.5V14H121.75C122.026 14 122.25 13.7761 122.25 13.5V12.75L113.5 4L112.75 4Z" fill="#197BFF"/>
<path fill-rule="evenodd" clip-rule="evenodd" d="M114.75 17.75H97.25V20.25H114.75V17.75ZM112.25 22.75H97.25V25.25H112.25V22.75ZM97.25 27.75H114.75V30.25H97.25V27.75ZM109.75 32.75H97.25V35.25H109.75V32.75Z" fill="#197BFF"/>
<path d="M90.25 54C90.25 53.1716 90.9216 52.5 91.75 52.5H113.293L121.75 60.9571V90C121.75 90.8284 121.078 91.5 120.25 91.5H91.75C90.9216 91.5 90.25 90.8284 90.25 90V54Z" fill="white" stroke="#71D17F"/>
<path fill-rule="evenodd" clip-rule="evenodd" d="M112.875 52.625V61.375H121.625" fill="#71D17F"/>
<path d="M112.875 52.625V61.375H121.625" stroke="#71D17F"/>
<path fill-rule="evenodd" clip-rule="evenodd" d="M101 58.25H96V60.75H101V58.25ZM101 63.25H96V65.75H101V63.25ZM96 68.25H101V70.75H96V68.25ZM101 73.25H96V75.75H101V73.25ZM96 78.25H101V80.75H96V78.25ZM101 83.25H96V85.75H101V83.25ZM103.5 63.25H108.5V65.75H103.5V63.25ZM108.5 58.25H103.5V60.75H108.5V58.25ZM103.5 68.25H108.5V70.75H103.5V68.25ZM108.5 73.25H103.5V75.75H108.5V73.25ZM103.5 78.25H108.5V80.75H103.5V78.25ZM108.5 83.25H103.5V85.75H108.5V83.25ZM111 68.25H116V70.75H111V68.25ZM116 73.25H111V75.75H116V73.25ZM111 78.25H116V80.75H111V78.25ZM116 83.25H111V85.75H116V83.25Z" fill="#2BBA40"/>
<path fill-rule="evenodd" clip-rule="evenodd" d="M89.75 54C89.75 52.8954 90.6454 52 91.75 52H113.5L122.25 60.75V90C122.25 91.1046 121.355 92 120.25 92H91.75C90.6454 92 89.75 91.1046 89.75 90V54Z" fill="#9FE6A2"/>
<path fill-rule="evenodd" clip-rule="evenodd" d="M113.729 53.4786C113.414 53.1636 112.875 53.3867 112.875 53.8321V61.375H120.418C120.863 61.375 121.086 60.8364 120.771 60.5214L113.729 53.4786Z" fill="#65A6FF" stroke="#65A6FF"/>
<path fill-rule="evenodd" clip-rule="evenodd" d="M112.75 52C112.474 52 112.25 52.2239 112.25 52.5V62H121.75C122.026 62 122.25 61.7761 122.25 61.5V60.75L113.5 52L112.75 52Z" fill="#10C016"/>
<path fill-rule="evenodd" clip-rule="evenodd" d="M101 58.25H96V60.75H101V58.25ZM101 63.25H96V65.75H101V63.25ZM96 68.25H101V70.75H96V68.25ZM101 73.25H96V75.75H101V73.25ZM96 78.25H101V80.75H96V78.25ZM101 83.25H96V85.75H101V83.25ZM103.5 63.25H108.5V65.75H103.5V63.25ZM108.5 58.25H103.5V60.75H108.5V58.25ZM103.5 68.25H108.5V70.75H103.5V68.25ZM108.5 73.25H103.5V75.75H108.5V73.25ZM103.5 78.25H108.5V80.75H103.5V78.25ZM108.5 83.25H103.5V85.75H108.5V83.25ZM111 68.25H116V70.75H111V68.25ZM116 73.25H111V75.75H116V73.25ZM111 78.25H116V80.75H111V78.25ZM116 83.25H111V85.75H116V83.25Z" fill="#10C016"/>
<path fill-rule="evenodd" clip-rule="evenodd" d="M41.75 54.5022C41.75 53.1203 42.8637 52 44.2468 52H65.5L74.25 60.75V89.4955C74.25 90.8787 73.1313 92 71.7537 92H44.2463C42.8676 92 41.75 90.8884 41.75 89.4978V54.5022Z" fill="#FFDEC1"/>
<path fill-rule="evenodd" clip-rule="evenodd" d="M64.875 52C64.5298 52 64.25 52.2885 64.25 52.6255V62H73.6245C73.9699 62 74.25 61.7101 74.25 61.375V60.75L65.5 52L64.875 52Z" fill="#FF9433"/>
<path fill-rule="evenodd" clip-rule="evenodd" d="M66.7453 82V84.5H54.2453V82H66.7453ZM51.75 82V84.5H49.25V82H51.75ZM66.7453 77V79.5H54.2453V77H66.7453ZM51.75 77V79.5H49.25V77H51.75ZM58 64.5V69.5H63C63 72.2614 60.7614 74.5 58 74.5C55.2386 74.5 53 72.2614 53 69.5C53 66.7386 55.2386 64.5 58 64.5ZM59.25 63.25C61.75 63.25 64.25 65.75 64.25 68.25H59.25V63.25Z" fill="#FF9433"/>
<path fill-rule="evenodd" clip-rule="evenodd" d="M55.5019 41.9196L39.051 34.3513C37.6497 33.6907 37.6497 32.6695 39.051 32.0689L44.7784 29.426L55.4409 34.3513C56.8424 35.0121 59.0967 35.0121 60.4371 34.3513L71.0997 29.426L76.8272 32.0689C78.2285 32.7297 78.2285 33.7508 76.8272 34.3513L60.3763 41.9196C59.0967 42.5203 56.8424 42.5203 55.5019 41.9196Z" fill="#FD7046"/>
<path fill-rule="evenodd" clip-rule="evenodd" d="M55.5019 32.6096L39.051 25.0413C37.6497 24.3805 37.6497 23.3595 39.051 22.7588L44.6565 20.176L55.5019 25.1615C56.9033 25.8221 59.1577 25.8221 60.4981 25.1615L71.3435 20.176L76.9489 22.7588C78.3504 23.4195 78.3504 24.4407 76.9489 25.0413L60.4981 32.6096C59.0967 33.2703 56.8424 33.2703 55.5019 32.6096Z" fill="#96BF43"/>
<path fill-rule="evenodd" clip-rule="evenodd" d="M55.5019 23.5394L39.051 15.9712C37.6497 15.3105 37.6497 14.2894 39.051 13.6888L55.5019 6.12054C56.9033 5.45982 59.1577 5.45982 60.4981 6.12054L76.9489 13.6888C78.3504 14.3495 78.3504 15.3706 76.9489 15.9712L60.4981 23.5394C59.0967 24.1401 56.8424 24.1401 55.5019 23.5394Z" fill="#62C1E6"/>
</svg>
