<?xml version="1.0" encoding="UTF-8"?>
<svg width="163px" height="78px" viewBox="0 0 163 78" version="1.1" xmlns="http://www.w3.org/2000/svg" xmlns:xlink="http://www.w3.org/1999/xlink">
    <!-- Generator: Sketch 46.2 (44496) - http://www.bohemiancoding.com/sketch -->
    <title>illu-recuperation-data</title>
    <desc>Created with Sketch.</desc>
    <defs>
        <polygon id="path-1" points="0 0.172601811 35.3618254 0.172601811 35.3618254 42.5003757 0 42.5003757"></polygon>
        <polygon id="path-3" points="0.930162602 0.124848485 34.2587022 0.124848485 34.2587022 41.916667 0.930162602 41.916667"></polygon>
        <polygon id="path-5" points="0.95131117 0.0643636364 73.9135824 0.0643636364 73.9135824 55.7575758 0.95131117 55.7575758"></polygon>
    </defs>
    <g id="app" stroke="none" stroke-width="1" fill="none" fill-rule="evenodd">
        <g id="Pricing-tableau-201801-Website-A-FR" transform="translate(-226.000000, -449.000000)">
            <g id="Cozy-Gratuit" transform="translate(144.000000, 312.000000)">
                <g id="text-recupdata" transform="translate(48.000000, 130.000000)">
                    <g id="illu-recuperation-data" transform="translate(0.000000, 6.000000)">
                        <g id="Page-1" transform="translate(34.110032, 1.000000)">
                            <path d="M100.320098,42.6390303 C92.2808316,41.7602424 84.0299735,40.8232727 76.7324939,37.1190303 C78.6587075,31.6911515 80.2407806,26.1469091 81.4653369,20.5178182 C88.4478611,23.6535758 96.0894812,25.1347879 103.742046,24.8378182 C103.014851,30.846303 101.870554,36.7929697 100.320098,42.6390303" id="Fill-1" fill="#FFFFFF"></path>
                            <path d="M97.8939688,43.1449697 C94.9341179,41.1958788 92.6248504,38.4964848 90.3459841,35.8249697 C89.2661371,34.5595152 88.2008826,33.2564848 87.0152398,32.0867879 C86.4449152,31.5243636 85.8551339,31.3425455 85.0805139,31.5898182 C84.1514563,31.8855758 83.2503678,32.358303 82.3638717,32.7607273 C80.3561832,33.6734545 78.3776797,34.648 76.4295773,35.6770909 C76.3870158,35.6249697 76.2958125,35.6116364 76.2581151,35.6892121 C76.0744925,36.0673939 75.8884378,36.4431515 75.7072472,36.8225455 C75.590507,37.0649697 75.451878,37.3304242 75.478631,37.608 C75.5309209,38.1473939 76.2131215,38.3558788 76.6387369,38.5170909 C78.1624399,39.0892121 79.851525,39.2989091 81.4396783,39.6370909 C84.8822987,40.3704242 88.3176228,41.1340606 91.7468667,41.9267879 C93.7022654,42.377697 95.6540159,42.8395152 97.6057664,43.3098182 C97.6568402,43.3219394 97.6921055,43.2964848 97.7091301,43.2601212 C97.7261548,43.2710303 97.7443954,43.2843636 97.7638521,43.2964848 C97.8696479,43.368 98.0009807,43.2164848 97.8939688,43.1449697" id="Fill-3" fill="#2BD1D4"></path>
                            <path d="M102.476752,35.2449697 C102.367308,34.8825455 102.029248,34.6473939 101.744694,34.4195152 C101.019931,33.837697 100.235583,33.3322424 99.4378582,32.8534545 C99.0426439,32.6170909 98.6425655,32.3855758 98.242487,32.157697 C97.8959145,31.9601212 97.5469099,31.7601212 97.135887,31.7867879 C96.7370246,31.8110303 96.3442424,32.0122424 95.9830774,32.1637576 C95.4686908,32.3807273 94.9628165,32.6134545 94.4630225,32.858303 C92.4516858,33.8413333 90.4902069,34.9564848 88.5615612,36.0922424 C86.6937178,37.1916364 84.8915406,38.4001212 83.3009552,39.877697 C83.2438011,39.9310303 83.2766343,40.0001212 83.3337884,40.0267879 C83.0212651,40.3067879 82.5725449,40.2292121 82.2466451,40.4716364 C82.021677,40.6389091 81.9426341,40.8873939 81.9000726,41.1540606 C81.7760361,41.9261818 81.8939924,42.8267879 82.2758301,43.5164848 C82.6576679,44.2073939 83.4201275,44.298303 84.1302971,44.4534545 C85.1311013,44.6728485 86.1428499,44.8352727 87.1594626,44.9601212 C89.1999843,45.2098182 91.2550986,45.3116364 93.3077807,45.4389091 C94.3353378,45.5019394 95.3604629,45.5722424 96.3855879,45.6704242 C97.3158615,45.7589091 98.2886967,45.978303 99.2238345,45.8764848 C99.6834991,45.8267879 100.127355,45.6873939 100.557835,45.5273939 C100.882518,45.4061818 101.247332,45.2825455 101.479596,45.0098182 C101.700916,44.7467879 101.773879,44.3807273 101.859002,44.058303 C101.998847,43.5298182 102.116803,42.9964848 102.210438,42.4570909 C102.377036,41.498303 102.467024,40.5261818 102.484048,39.5528485 C102.502289,38.4607273 102.325963,37.3552727 102.436623,36.2655758 C102.469456,35.9298182 102.5789,35.5795152 102.476752,35.2449697" id="Fill-5" fill="#2BD1D4"></path>
                            <path d="M100.320098,42.6390303 C92.2808316,41.7602424 84.0299735,40.8232727 76.7324939,37.1190303 C78.6587075,31.6911515 80.2407806,26.1469091 81.4653369,20.5178182 C88.4478611,23.6535758 96.0894812,25.1347879 103.742046,24.8378182 C103.014851,30.846303 101.870554,36.7929697 100.320098,42.6390303 M104.516666,23.3711515 C104.448567,23.3529697 104.371956,23.3444848 104.289265,23.3481212 C96.4810474,23.7566061 88.6703972,22.2450909 81.579645,18.9614545 C81.4033186,18.8802424 81.2391527,18.8741818 81.0920114,18.9129697 C80.7247661,18.8281212 80.2930705,18.9844848 80.1933549,19.4584242 C78.6805963,26.6196364 76.5877846,33.6414545 73.9295126,40.4608485 C73.8383093,40.6947879 73.1998862,42.3990303 73.2947377,42.5020606 C73.3458115,42.6281212 73.5415946,42.8414545 73.7008963,42.9141818 C75.3680926,44.0329697 77.0644739,44.7347879 78.8058488,45.3311515 C81.1309248,46.1287273 83.4936981,46.8123636 85.8893047,47.366303 C89.9739963,48.3129697 94.1377307,48.8741818 98.32457,49.0814545 C98.4984643,49.0899394 99.9650132,49.145697 100.078105,49.1481212 C100.269024,49.1529697 100.461159,49.1578182 100.653294,49.1614545 C100.785843,49.1638788 100.895287,49.1347879 100.98649,49.0875152 C101.206594,49.0184242 101.392649,48.846303 101.451019,48.5517576 C103.044036,40.4766061 104.387765,32.3566061 105.479772,24.1990303 C105.562463,23.5881212 104.969034,23.2608485 104.516666,23.3711515" id="Fill-7" fill="#BBD9FD"></path>
                            <path d="M95.8336256,27.0631515 C95.1550731,26.3164848 94.0326645,26.2098182 93.2069707,26.7358788 C93.2033225,26.738303 93.1984584,26.7395152 93.1948102,26.7419394 C92.8348612,26.9504242 92.5855722,27.2728485 92.4493753,27.6401212 C92.0675375,28.2207273 92.1769815,29.0522424 92.6743434,29.6243636 C93.4392351,30.4995152 94.7963401,30.5419394 95.6949966,29.8413333 C96.5814926,29.1492121 96.5620359,27.8655758 95.8336256,27.0631515" id="Fill-9" fill="#FD9E2A"></path>
                            <g id="Group-13" transform="translate(0.000000, 0.299394)">
                                <mask id="mask-2" fill="white">
                                    <use xlink:href="#path-1"></use>
                                </mask>
                                <g id="Clip-12"></g>
                                <path d="M31.0459665,20.7001212 C29.6317074,17.758303 28.3585094,14.7619394 27.2069158,11.7170909 C26.2462411,9.47345455 25.3658252,7.19587879 24.5924213,4.87466667 C24.0646582,3.46739394 23.5843209,2.04193939 23.1696499,0.589818182 C22.9848112,0.376484848 22.7829479,0.224969697 22.5579798,0.184969697 C22.3670609,0.152242424 22.1968147,0.188606061 22.0302167,0.245575758 C22.0034638,0.251636364 21.9779268,0.243151515 21.9511739,0.256484848 C21.8842915,0.291636364 21.8259213,0.320727273 21.7590389,0.354666667 C21.6678356,0.395878788 21.5754163,0.437090909 21.4817809,0.471030303 C21.45746,0.47830303 21.4465156,0.508606061 21.428275,0.524363636 C16.9520173,2.82133333 5.74495636,7.3449697 0.981712268,9.81406061 C0.749447877,9.9510303 0.494078651,10.0552727 0.318968324,10.3122424 C0.0623830538,10.6189091 -0.0750299108,11.0625455 0.041710307,11.7073939 C0.157234481,12.3437576 0.447868981,12.9364848 0.674053153,13.537697 C0.698374032,13.6007273 0.733639306,13.6443636 0.765256448,13.6952727 C4.2929999,22.2807273 7.82439149,30.8661818 11.3582152,39.448 C11.3849681,39.5146667 11.4178013,39.5595152 11.4506345,39.6128485 C11.4506345,39.6128485 11.4506345,39.6140606 11.4518505,39.6152727 C11.5333255,39.8358788 11.6196646,40.0528485 11.7108679,40.2637576 C11.9297558,40.8261818 12.1802609,41.3498182 12.5000804,41.7267879 C12.6034442,41.8807273 12.7128881,42.0249697 12.8344925,42.1425455 C13.4048171,42.7037576 14.1259312,42.518303 14.6828793,42.1752727 C19.3123585,39.768 29.6304913,33.7837576 34.160255,31.4128485 C34.6442405,31.2322424 35.1464666,30.9086061 35.3057684,30.2370909 C35.4176444,29.7643636 35.350762,29.2552727 35.2048367,28.7401212 C33.5716897,26.1861818 32.3094361,23.328 31.0459665,20.7001212" id="Fill-11" fill="#BBD9FD" mask="url(#mask-2)"></path>
                            </g>
                            <path d="M27.3420182,27.206303 C24.9366833,28.4002424 28.1531195,26.8293333 25.7319761,27.9905455 C24.7275238,28.4717576 25.6115877,29.9590303 26.6136079,29.4790303 C29.0359674,28.3178182 25.8195312,29.8887273 28.2248661,28.696 C29.2232382,28.1990303 28.3379582,26.7117576 27.3420182,27.206303" id="Fill-14" fill="#3281EE"></path>
                            <path d="M16.346549,16.9884848 C14.0105286,18.3363636 11.4446759,19.4539394 9.04663725,20.7157576 C8.06042562,21.2345455 8.89219967,22.7521212 9.88205943,22.2321212 C12.278882,20.970303 14.8459508,19.8527273 17.1819712,18.5036364 C18.145078,17.9484848 17.316952,16.4284848 16.346549,16.9884848" id="Fill-16" fill="#3281EE"></path>
                            <path d="M21.3318427,22.918303 C17.8965186,24.5195152 16.7984309,24.8261818 11.128018,27.8916364 C10.1551829,28.4164848 10.9188585,29.9352727 11.9184466,29.4310303 C17.9548887,26.377697 18.6857311,26.0589091 22.1210552,24.457697 C23.1315877,23.9861818 22.3435913,22.4455758 21.3318427,22.918303" id="Fill-18" fill="#3281EE"></path>
                            <path d="M22.6026086,29.9081212 C18.5689909,31.9214545 17.7639698,32.3687273 14.5134844,34.1675152 C13.5455134,34.7032727 14.3274296,36.2147879 15.3209375,35.6984242 C21.3233304,32.5796364 19.5089928,33.4717576 23.4112778,31.4378182 C24.3999215,30.9226667 23.6021967,29.4087273 22.6026086,29.9081212" id="Fill-20" fill="#3281EE"></path>
                            <path d="M14.8052133,13.910303 C11.3942101,15.5636364 13.5441757,14.3854545 7.92118858,17.5357576 C6.95686574,18.0763636 7.74364617,19.5830303 8.73593802,19.0618182 C14.7249544,15.9187879 12.2089595,17.0921212 15.6187467,15.4375758 C16.6219829,14.950303 15.8096656,13.4230303 14.8052133,13.910303" id="Fill-22" fill="#3281EE"></path>
                            <path d="M20.3960969,7.28509091 C15.7581053,9.656 11.1152496,12.0184242 6.48941846,14.4123636 C5.49834265,14.9250909 6.28998725,16.4632727 7.2822791,15.9493333 C11.9093263,13.5566061 16.550966,11.1941818 21.1889575,8.82327273 C22.1836815,8.31418182 21.3908208,6.77721212 20.3960969,7.28509091" id="Fill-24" fill="#3281EE"></path>
                            <path d="M26.8847857,23.577697 C22.2467942,25.9486061 17.6051545,28.3110303 12.9781073,30.7049697 C11.9870315,31.2189091 12.7786761,32.7558788 13.7709679,32.2419394 C18.3980151,29.8492121 23.0396548,27.4867879 27.6776464,25.1158788 C28.6735863,24.608 27.8795097,23.0698182 26.8847857,23.577697" id="Fill-26" fill="#3281EE"></path>
                            <path d="M36.1239227,23.4107879 C34.7096636,20.4689697 33.4364656,17.4713939 32.2860881,14.4265455 C31.3241973,12.1829091 30.4437815,9.90654545 29.6703776,7.58412121 C29.1426145,6.17806061 28.6622771,4.75139394 28.2476062,3.30048485 C28.0639835,3.08715152 27.8621202,2.93563636 27.6359361,2.89563636 C27.4462332,2.86169697 27.274771,2.89806061 27.109389,2.95624242 C27.08142,2.96109091 27.0558831,2.95260606 27.0291301,2.96715152 C26.9634638,3.00230303 26.9038776,3.03139394 26.8382112,3.06533333 C26.7457919,3.10654545 26.6545886,3.14775758 26.5609532,3.18169697 C26.5366323,3.1889697 26.5256879,3.21927273 26.5074473,3.2350303 C22.0311896,5.53078788 10.8241287,10.0556364 6.05966853,12.5247273 C5.82740414,12.6604848 5.57203491,12.7659394 5.39692459,13.0229091 C5.14155536,13.3283636 5.00292635,13.7732121 5.12088261,14.4180606 C5.23640679,15.0532121 5.52582524,15.6471515 5.75200941,16.2483636 C5.77633029,16.3101818 5.81159557,16.3550303 5.84321271,16.4047273 C9.37095616,24.9913939 12.9023477,33.5756364 16.4373875,42.1586667 C16.4641404,42.2253333 16.4957576,42.2701818 16.5285908,42.3235152 C16.5285908,42.3235152 16.5298068,42.3247273 16.5298068,42.3259394 C16.6124978,42.5465455 16.6976209,42.762303 16.7900402,42.9744242 C17.0089281,43.5368485 17.2582171,44.0592727 17.5780367,44.4374545 C17.6826165,44.5913939 17.7920604,44.7344242 17.9124488,44.8532121 C18.4839894,45.4132121 19.2038874,45.2289697 19.7608355,44.8859394 C24.3903148,42.4786667 34.7096636,36.4944242 39.2382112,34.122303 C39.7234128,33.941697 40.2244229,33.6180606 40.3837246,32.9477576 C40.4956007,32.4738182 40.4287183,31.9659394 40.282793,31.4507879 C38.650862,28.8968485 37.3886084,26.0374545 36.1239227,23.4107879" id="Fill-28" fill="#288AFC"></path>
                            <path d="M83.783603,17.4318788 C83.7848191,17.4209697 83.7896832,17.413697 83.7896832,17.4027879 C83.7981955,16.7761212 83.6741591,16.1264242 83.8431892,15.5130909 C83.9611454,15.0876364 83.4297342,14.8330909 83.1767971,15.0694545 C82.9214279,15.1446061 82.6855153,15.2573333 82.4508189,15.3785455 C82.4435226,15.0706667 82.455683,14.7652121 82.538374,14.4682424 C82.6538982,14.0427879 82.1249191,13.7870303 81.873198,14.0233939 C81.4427184,14.1506667 81.0608807,14.373697 80.6680985,14.5833939 C80.6462097,14.1276364 80.6170246,13.6694545 80.737413,13.2294545 C80.8553692,12.804 80.322742,12.5494545 80.0710209,12.7858182 C79.6539178,12.9082424 79.2805923,13.1227879 78.8999706,13.3276364 C78.8768657,12.8864242 78.8513288,12.4403636 78.9692851,12.013697 C79.0872413,11.5882424 78.5558301,11.3324848 78.3041091,11.5700606 C77.8857899,11.6924848 77.5124645,11.9070303 77.1330587,12.1118788 C77.1099539,11.6694545 77.084417,11.2233939 77.2023732,10.7979394 C77.3203295,10.3724848 76.7889183,10.1167273 76.5371972,10.354303 C76.0957733,10.484 75.7029911,10.7155152 75.3004805,10.9300606 C75.2773757,10.4621818 75.2421104,9.9870303 75.3661469,9.53369697 C75.4841032,9.10824242 74.952692,8.85369697 74.7009709,9.09006061 C74.288732,9.21248485 73.9202707,9.4209697 73.5457291,9.62339394 C73.5226243,9.18824242 73.5019516,8.75066667 73.6174757,8.33127273 C73.7342159,7.90581818 73.2040208,7.65006061 72.9510837,7.88642424 C72.5218201,8.01248485 72.1399823,8.23672727 71.7484162,8.44521212 C71.7253114,7.99066667 71.6961263,7.53248485 71.8165147,7.09127273 C71.9332549,6.6670303 71.4030597,6.41127273 71.1513386,6.64884848 C70.7342356,6.77127273 70.359694,6.98460606 69.9790723,7.19066667 C69.9559674,6.74824242 69.9316466,6.30218182 70.0483868,5.87551515 C70.166343,5.45006061 69.6349318,5.19551515 69.3832107,5.43187879 C68.9648916,5.55551515 68.5915661,5.76884848 68.2121604,5.97369697 C68.1890556,5.53248485 68.1635187,5.08642424 68.2814749,4.65975758 C68.3994312,4.23430303 67.869236,3.97975758 67.6162989,4.21612121 C67.174875,4.3470303 66.7833088,4.57854545 66.3783662,4.79309091 C66.3564774,4.324 66.3212121,3.85006061 66.4452486,3.39672727 C66.5632049,2.97127273 66.0317937,2.71551515 65.7800726,2.95187879 C65.2158282,3.11793939 64.7306267,3.44763636 64.2040796,3.69733333 C64.160302,3.71430303 64.1165245,3.73612121 64.0739629,3.76036364 C64.0581544,3.76642424 64.0447779,3.77612121 64.0277533,3.78218182 C63.9851917,3.80036364 63.9560067,3.82581818 63.9256056,3.85248485 C63.8976366,3.87187879 63.8696675,3.88278788 63.8416985,3.90460606 C63.2020594,5.17854545 62.5076983,6.41733333 61.7707757,7.62824242 C60.6471511,9.64642424 59.4335393,11.6027879 58.1469648,13.5167273 C56.547867,16.1373333 54.8405413,18.6949091 53.0128273,21.1749091 C51.5766794,23.1252121 50.0444641,25.1882424 48.4405021,27.1433939 C47.7668138,27.9627879 47.1271747,28.2658182 47.1174463,28.7846061 C47.0493478,29.4052121 47.108934,30.0646061 46.8815338,30.6585455 C46.722232,31.0706667 47.2268903,31.3749091 47.5005001,31.164 C47.8701775,31.093697 48.2118858,30.9506667 48.5548102,30.8064242 C48.6083162,30.8500606 48.6630381,30.8924848 48.7189762,30.9385455 C48.6983034,31.3155152 48.6666863,31.6924848 48.5317054,32.0464242 C48.3736197,32.4573333 48.8770619,32.7627879 49.1506718,32.5518788 C49.5337256,32.4779394 49.8888104,32.3288485 50.2451113,32.1773333 C50.2937531,32.2173333 50.3436109,32.2585455 50.3922526,32.2997576 C50.3727959,32.6912727 50.3436109,33.0852121 50.2037658,33.4524848 C50.0456801,33.8646061 50.5491223,34.1688485 50.8227322,33.9579394 C51.2130823,33.8827879 51.5730313,33.7288485 51.9354124,33.5761212 C51.9682456,33.6027879 52.0010787,33.6306667 52.035128,33.6585455 C52.0156713,34.0585455 51.9877023,34.4585455 51.8442091,34.8318788 C51.6861234,35.244 52.1907816,35.5494545 52.4631754,35.3385455 C52.8571737,35.2621818 53.2195548,35.1070303 53.584368,34.9530909 C53.614769,34.9785455 53.6463862,35.004 53.6767873,35.0294545 C53.6585466,35.4330909 53.6305776,35.8355152 53.4858684,36.2124848 C53.3277827,36.6246061 53.8312249,36.9300606 54.1048348,36.7191515 C54.498833,36.6427879 54.8636462,36.4864242 55.2308914,36.3312727 C55.2807492,36.3724848 55.3318231,36.4173333 55.3828969,36.4585455 C55.3634402,36.8633939 55.3354712,37.2682424 55.190762,37.6464242 C55.0326763,38.0585455 55.5361185,38.364 55.8097284,38.1530909 C56.2049426,38.0767273 56.5709719,37.9191515 56.9382171,37.764 C56.9601059,37.7833939 56.9844268,37.8027879 57.0063156,37.8221818 C56.9880749,38.2282424 56.961322,38.634303 56.8153967,39.013697 C56.657311,39.4258182 57.1607532,39.7300606 57.4355791,39.5191515 C57.8320094,39.4427879 58.1980386,39.2852121 58.5665,39.1288485 C58.6041973,39.1615758 58.6406786,39.1918788 58.679592,39.2246061 C58.6601353,39.6306667 58.6333824,40.0391515 58.4874571,40.4197576 C58.3293714,40.8318788 58.8328136,41.1373333 59.1076395,40.9252121 C59.507718,40.8488485 59.8761793,40.6888485 60.2482887,40.5312727 C60.2713935,40.5518788 60.2969305,40.5724848 60.3212513,40.5930909 C60.3017946,41.004 60.2762577,41.4161212 60.1291164,41.8003636 C59.9710307,42.2112727 60.4744729,42.5167273 60.7492988,42.3058182 C61.1554575,42.2270303 61.528783,42.0633939 61.9069726,41.9046061 C61.9252133,41.9203636 61.94467,41.9349091 61.9641267,41.9518788 C61.94467,42.3700606 61.9203491,42.7894545 61.7695597,43.1797576 C61.61269,43.5930909 62.1161322,43.8973333 62.3897421,43.6864242 C62.8092772,43.6052121 63.1935471,43.434303 63.5838972,43.2694545 C63.6118662,43.2924848 63.6422673,43.3167273 63.6714524,43.3409697 C63.6507796,43.773697 63.6313229,44.2088485 63.4756693,44.6149091 C63.3175836,45.0270303 63.8210258,45.3324848 64.0958517,45.1203636 C64.7379229,44.9967273 65.2985192,44.6585455 65.9199176,44.4633939 C66.0099049,44.4355152 66.0670589,44.3833939 66.1096205,44.3264242 C66.1132686,44.3227879 66.1169167,44.3227879 66.1205649,44.3191515 C66.6981857,43.6173333 68.8530156,40.6403636 69.2895754,39.9688485 C73.6332843,33.2997576 77.9745611,26.6282424 82.3121899,19.9567273 C82.3511033,19.9155152 82.3912327,19.8803636 82.4240659,19.8270303 C82.7402373,19.3094545 83.5099931,18.2718788 83.728881,17.7009697 C83.7738747,17.5858182 83.7860351,17.5021818 83.783603,17.4318788" id="Fill-30" fill="#FD9E2A"></path>
                            <path d="M63.8637089,11.7511515 C67.824364,14.6553939 68.267004,14.9305455 72.2422516,17.8153939 C73.0946984,18.4335758 74.0626694,17.1196364 73.2114387,16.4990303 C69.234975,13.6153939 68.793551,13.3414545 64.8316799,10.4372121 C63.9828812,9.81418182 63.0149103,11.1281212 63.8637089,11.7511515" id="Fill-32" fill="#FF9300"></path>
                            <path d="M60.2524233,17.1346667 C64.1583564,20.1092121 64.5949162,20.3916364 68.5166578,23.3455758 C69.3569442,23.978303 70.349236,22.6825455 69.5077336,22.0486061 C65.587208,19.0946667 65.1494322,18.8122424 61.2434991,15.837697 C60.4056448,15.2001212 59.414569,16.4970909 60.2524233,17.1346667" id="Fill-34" fill="#FF9300"></path>
                            <path d="M56.6399215,22.5187879 C60.4923487,25.5624242 60.9240443,25.8521212 64.791064,28.8763636 C65.620406,29.5248485 66.6358027,28.2460606 65.8064607,27.5975758 C61.938225,24.5733333 61.5065294,24.2836364 57.6553182,21.24 C56.8284084,20.5878788 55.8142277,21.8654545 56.6399215,22.5187879" id="Fill-36" fill="#FF9300"></path>
                            <path d="M53.0286359,27.902303 C56.8263411,31.0150303 57.2531725,31.3132121 61.0654702,34.4065455 C61.8838678,35.0707879 62.9223693,33.8101818 62.1039718,33.1459394 C58.290458,30.0513939 57.8648426,29.7544242 54.0671374,26.6404848 C53.252388,25.9738182 52.2138864,27.2344242 53.0286359,27.902303" id="Fill-38" fill="#FF9300"></path>
                            <path d="M75.4043307,20.0448485 C76.0160008,20.4933333 76.1777346,20.6181818 76.6288869,20.9466667 C77.4813337,21.5648485 78.4493047,20.2509091 77.5968579,19.6327273 C77.0386937,19.2266667 76.9839718,19.1866667 76.3723017,18.7309091 C75.5283672,18.1006061 74.555532,19.4218182 75.4043307,20.0448485" id="Fill-40" fill="#FF9300"></path>
                            <path d="M71.8143258,25.6882424 C72.4174836,26.1452121 72.5780014,26.273697 73.0230735,26.6082424 C73.8657919,27.2397576 74.8544356,25.9403636 74.0129332,25.3100606 C73.4608493,24.8955152 73.4061273,24.854303 72.8017535,24.3888485 C71.9675473,23.7452121 70.9752555,25.0518788 71.8143258,25.6882424" id="Fill-42" fill="#FF9300"></path>
                            <path d="M68.2232264,31.3310303 C68.820304,31.797697 68.9783897,31.9286061 69.4185976,32.2704242 C70.2503717,32.9152727 71.2596881,31.6316364 70.426698,30.9867879 C69.8819104,30.5637576 69.8284044,30.5225455 69.2313269,30.0473939 C68.4080651,29.3916364 67.3938845,30.6813333 68.2232264,31.3310303" id="Fill-44" fill="#FF9300"></path>
                            <path d="M64.6332215,36.974303 C65.2217868,37.4506667 65.3786565,37.5827879 65.8140002,37.9318788 C66.6348299,38.5900606 67.6660351,37.3221818 66.8415573,36.664 C66.3040659,36.2324848 66.25056,36.1900606 65.6619947,35.7064242 C64.8484613,35.0373333 63.8136079,36.3124848 64.6332215,36.974303" id="Fill-46" fill="#FF9300"></path>
                            <g id="Group-50" transform="translate(37.697362, 0.087273)">
                                <mask id="mask-4" fill="white">
                                    <use xlink:href="#path-3"></use>
                                </mask>
                                <g id="Clip-49"></g>
                                <path d="M34.2416083,10.492 C34.2403923,10.4810909 34.2440404,10.4726061 34.2416083,10.461697 C34.1127077,9.84957576 33.8488261,9.24230303 33.8792272,8.60715152 C33.9023321,8.16715152 33.3271433,8.03260606 33.1325762,8.31866667 C32.9003119,8.44715152 32.6948004,8.60836364 32.4929371,8.77684848 C32.4175424,8.47866667 32.3628204,8.17806061 32.377413,7.87018182 C32.3980857,7.43018182 31.825329,7.29563636 31.630762,7.58169697 C31.2391958,7.79866667 30.9145121,8.09927273 30.578884,8.3889697 C30.4572796,7.95018182 30.3271629,7.5089697 30.3490517,7.05321212 C30.3697244,6.61321212 29.7969677,6.47866667 29.6024007,6.76472727 C29.221779,6.97563636 28.9031754,7.26533333 28.5784917,7.54775758 C28.4581034,7.12230303 28.337715,6.69321212 28.3583878,6.25078788 C28.3802766,5.81078788 27.8063038,5.67624242 27.6117368,5.96230303 C27.229899,6.17321212 26.9137276,6.46290909 26.5866117,6.74533333 C26.4674394,6.31866667 26.345835,5.89078788 26.3665078,5.44836364 C26.3883966,5.00836364 25.8144239,4.87381818 25.6198568,5.15987879 C25.2173463,5.38290909 24.8865823,5.69442424 24.5400098,5.99139394 C24.4147573,5.53927273 24.2773443,5.08472727 24.2992331,4.61442424 C24.3199059,4.17442424 23.7471492,4.03987879 23.5525821,4.32593939 C23.1768246,4.53442424 22.8630852,4.81927273 22.5420496,5.09684848 C22.4240934,4.67745455 22.3085692,4.25563636 22.3280259,3.82048485 C22.3499147,3.37927273 21.7759419,3.24593939 21.5813749,3.53078788 C21.1910248,3.7489697 20.865125,4.04957576 20.530713,4.33927273 C20.4066765,3.90048485 20.2789919,3.45806061 20.2996646,3.00230303 C20.3215534,2.56230303 19.7475807,2.4289697 19.5542297,2.71381818 C19.1723919,2.92593939 18.8550044,3.21563636 18.5278886,3.49806061 C18.4087163,3.07139394 18.2883279,2.64230303 18.3090007,2.19987879 C18.3308895,1.75987879 17.7557007,1.62654545 17.5623497,1.91139394 C17.181728,2.12351515 16.8631244,2.41321212 16.5372247,2.69563636 C16.4192684,2.2689697 16.296448,1.83987879 16.3183368,1.39866667 C16.3390095,0.957454545 15.7662528,0.822909091 15.5716858,1.11018182 C15.1679592,1.332 14.8371953,1.64472727 14.4906227,1.94169697 C14.3653702,1.48836364 14.2267412,1.03381818 14.2510621,0.564727273 C14.2717348,0.123515152 13.696546,-0.00981818182 13.5031951,0.275030303 C12.9888085,0.559878788 12.587514,0.986545455 12.1278494,1.34533333 C12.088936,1.37078788 12.0524546,1.40230303 12.0147573,1.43381818 C12.0013808,1.44472727 11.9880043,1.45684848 11.9746278,1.46654545 C11.9369305,1.49321212 11.9150417,1.52593939 11.8907208,1.55624242 C11.868832,1.58169697 11.842079,1.59866667 11.8201903,1.62654545 C11.4736177,3.00836364 11.0674591,4.36836364 10.6138747,5.71139394 C9.95842699,7.92351515 9.20083162,10.0980606 8.36662548,12.2435152 C7.37798176,15.1513939 6.27259782,18.0168485 5.03101697,20.8350303 C4.05696577,23.0507879 3.01238403,25.3974545 1.87538296,27.6532121 C1.39626165,28.5998788 0.839313524,29.0350303 0.942677258,29.5429091 C1.01199176,30.1647273 1.2150711,30.7950303 1.12265176,31.4241212 C1.05820143,31.8604848 1.61758164,32.0483636 1.83890164,31.781697 C2.18304207,31.6326061 2.48583701,31.4204848 2.78863195,31.2047273 C2.85065019,31.2350303 2.91145239,31.2653333 2.97590272,31.2968485 C3.04035305,31.6689697 3.09142689,32.0435152 3.03670491,32.4180606 C2.97225458,32.8544242 3.53041875,33.0435152 3.75173875,32.7780606 C4.10925566,32.6229091 4.422995,32.3986667 4.73673433,32.1744242 C4.7938884,32.2035152 4.85104246,32.2326061 4.90819653,32.261697 C4.97629499,32.6483636 5.03223301,33.0386667 4.97629499,33.4277576 C4.91184466,33.8641212 5.47000883,34.052 5.69011278,33.7865455 C6.05492596,33.6289697 6.37352947,33.3998788 6.69334902,33.172 C6.73104639,33.1913939 6.76995979,33.2107879 6.80765715,33.2313939 C6.87697166,33.6253333 6.93777386,34.021697 6.87940375,34.4180606 C6.81495342,34.8544242 7.37311758,35.042303 7.59443758,34.7768485 C7.96289889,34.6180606 8.2815024,34.3865455 8.60375405,34.1562424 C8.64023536,34.1756364 8.67550064,34.1938182 8.71076591,34.212 C8.78129646,34.6095758 8.84209866,35.0095758 8.7825125,35.4083636 C8.72049426,35.8447273 9.27744239,36.0326061 9.49754634,35.7671515 C9.86600765,35.6071515 10.1882593,35.3756364 10.5105109,35.1441212 C10.5700971,35.1744242 10.6296832,35.2059394 10.6880533,35.2362424 C10.7573679,35.6350303 10.8193861,36.0362424 10.761016,36.4374545 C10.6977817,36.8738182 11.2559459,37.061697 11.4760498,36.7962424 C11.8457272,36.6350303 12.1679788,36.402303 12.4914465,36.172 C12.5181995,36.1853333 12.5449524,36.1986667 12.5729214,36.2132121 C12.642236,36.6132121 12.7054702,37.0156364 12.6458841,37.4168485 C12.5814338,37.8532121 13.1395979,38.042303 13.3609179,37.7756364 C13.7318113,37.6144242 14.054063,37.381697 14.3799627,37.1501818 C14.4237403,37.172 14.4663019,37.1950303 14.5100794,37.2168485 C14.58061,37.6192727 14.6450603,38.0229091 14.5854742,38.4253333 C14.5222399,38.8629091 15.079188,39.0507879 15.300508,38.7841212 C15.6738335,38.6229091 15.9997333,38.3865455 16.3280651,38.1526061 C16.3560341,38.1671515 16.3840031,38.181697 16.4131882,38.1962424 C16.4837187,38.6010909 16.5481691,39.0083636 16.4885829,39.4168485 C16.4253486,39.8532121 16.9847288,40.0410909 17.2048328,39.7744242 C17.5842385,39.6095758 17.9137864,39.3695758 18.2469824,39.132 C18.2688712,39.1441212 18.29076,39.1538182 18.3126488,39.1659394 C18.3856115,39.5780606 18.4537099,39.9926061 18.3941238,40.4059394 C18.3284574,40.8435152 18.8878376,41.0313939 19.1091576,40.7659394 C19.4995077,40.5950303 19.8375679,40.3441212 20.1817083,40.0992727 L20.28264,40.1501818 C20.3592508,40.5768485 20.4346455,41.0059394 20.3714112,41.4350303 C20.3069609,41.8713939 20.865125,42.0604848 21.0876611,41.7938182 C21.6859547,41.5344242 22.1589958,41.0810909 22.7220241,40.7562424 C22.8047151,40.7089697 22.8497087,40.6471515 22.8776777,40.581697 C22.8801098,40.5780606 22.884974,40.5756364 22.8874061,40.572 C23.2984289,39.7610909 24.7491694,36.3877576 25.0288595,35.6374545 C27.8087359,28.1853333 30.5849642,20.7295758 33.3575444,13.2750303 C33.3867294,13.2277576 33.4195626,13.1841212 33.4390193,13.1247273 C33.6348024,12.5513939 34.1589173,11.3707879 34.2476885,10.7671515 C34.2659292,10.6435152 34.259849,10.5598788 34.2416083,10.492" id="Fill-48" fill="#FFDEC1" mask="url(#mask-4)"></path>
                            </g>
                            <path d="M43.8488418,24.7590303 C42.4345827,21.8172121 41.1613847,18.8208485 40.0110072,15.776 C39.0491164,13.5323636 38.1687006,11.2547879 37.3952967,8.93357576 C36.8675336,7.52630303 36.3871962,6.10084848 35.9725253,4.64872727 C35.7889026,4.43539394 35.5858233,4.28509091 35.3608552,4.24387879 C35.1711523,4.21115152 34.9996901,4.24751515 34.8330921,4.30448485 C34.8063391,4.31054545 34.7808022,4.30206061 34.7540492,4.31539394 C34.6871668,4.35054545 34.6287967,4.37963636 34.5619143,4.41357576 C34.470711,4.45478788 34.3782917,4.496 34.2846563,4.52993939 C34.2615514,4.53721212 34.249391,4.56751515 34.2323664,4.58448485 C29.7561087,6.88024242 18.5490478,11.4038788 13.7845876,13.8729697 C13.5523232,14.0099394 13.296954,14.1141818 13.1218437,14.3711515 C12.8652584,14.6778182 12.7278454,15.1214545 12.8458017,15.766303 C12.9613259,16.4026667 13.2507443,16.9966061 13.4769285,17.5966061 C13.5012494,17.6596364 13.5365147,17.7032727 13.5681318,17.7541818 C17.0958753,26.3396364 20.6272668,34.9250909 24.1623066,43.5069091 C24.1878435,43.5735758 24.2206767,43.6184242 24.2535099,43.6717576 C24.2535099,43.6717576 24.2547259,43.6729697 24.2547259,43.6741818 C24.3362008,43.8947879 24.42254,44.1117576 24.5149593,44.3226667 C24.7338472,44.8850909 24.9831362,45.4087273 25.3029558,45.7869091 C25.4063195,45.9396364 25.5169795,46.0838788 25.6373679,46.2014545 C26.2089085,46.7626667 26.9288065,46.5772121 27.4857546,46.2341818 C32.1152339,43.8269091 42.4345827,37.8426667 46.9631303,35.4717576 C47.4471158,35.2911515 47.949342,34.9675152 48.1086437,34.296 C48.2205198,33.8232727 48.1536373,33.3141818 48.0077121,32.7990303 C46.3757811,30.2450909 45.1135275,27.3869091 43.8488418,24.7590303" id="Fill-51" fill="#BBD9FD"></path>
                            <path d="M40.1448936,30.9664242 C37.7407747,32.1603636 40.9559949,30.5882424 38.5348514,31.7494545 C37.5303991,32.2306667 38.4156791,33.7191515 39.4164833,33.2391515 C41.8388428,32.0779394 38.6224066,33.6488485 41.0277415,32.4549091 C42.0261136,31.9591515 41.1408336,30.4718788 40.1448936,30.9664242" id="Fill-53" fill="#3281EE"></path>
                            <path d="M29.1494243,20.748 C26.8134039,22.0970909 24.2475512,23.2134545 21.8495126,24.4752727 C20.863301,24.9940606 21.695075,26.5116364 22.6849348,25.9916364 C25.0817574,24.7298182 27.6488261,23.6122424 29.9848465,22.2631515 C30.9479533,21.708 30.1198274,20.188 29.1494243,20.748" id="Fill-55" fill="#3281EE"></path>
                            <path d="M34.1348397,26.6778182 C30.6995155,28.2790303 29.6014279,28.585697 23.931015,31.6511515 C22.9593959,32.176 23.7218554,33.6947879 24.7214436,33.1905455 C30.7578857,30.1372121 31.4899441,29.8184242 34.9240522,28.2172121 C35.9345847,27.745697 35.1465882,26.2050909 34.1348397,26.6778182" id="Fill-57" fill="#3281EE"></path>
                            <path d="M35.4067,33.6676364 C31.3718662,35.6809697 30.5680612,36.1282424 27.3163597,37.9270303 C26.3483887,38.4627879 27.130305,39.974303 28.1238129,39.4579394 C34.1262057,36.3391515 32.3118682,37.2312727 36.2141532,35.1973333 C37.2040129,34.6821818 36.4050721,33.1682424 35.4067,33.6676364" id="Fill-59" fill="#3281EE"></path>
                            <path d="M27.6080887,17.670303 C24.1970854,19.3236364 26.3482671,18.1442424 20.7240639,21.2957576 C19.7597411,21.8351515 20.5465215,23.3430303 21.5388134,22.8218182 C27.5278298,19.6787879 25.0118349,20.8521212 28.421622,19.1975758 C29.4248583,18.710303 28.6125409,17.1830303 27.6080887,17.670303" id="Fill-61" fill="#3281EE"></path>
                            <path d="M33.1989722,11.0444848 C28.5621967,13.4153939 23.919341,15.7778182 19.2922938,18.1717576 C18.301218,18.6844848 19.0928626,20.2226667 20.0851545,19.7087273 C24.7122016,17.316 29.3538413,14.9535758 33.9918329,12.5826667 C34.9865568,12.0735758 34.1936962,10.5366061 33.1989722,11.0444848" id="Fill-63" fill="#3281EE"></path>
                            <path d="M39.6877827,27.337697 C35.0510072,29.7086061 30.4081514,32.0710303 25.7811042,34.4649697 C24.7900284,34.977697 25.581673,36.5158788 26.5739649,36.0019394 C31.2010121,33.608 35.8426518,31.2455758 40.4806433,28.8746667 C41.4765833,28.3667879 40.6825066,26.8298182 39.6877827,27.337697" id="Fill-65" fill="#3281EE"></path>
                            <path d="M144.41835,75.632 L144.574004,75.632 C153.586106,75.632 160.916419,68.2356364 160.916419,59.1435152 C160.916419,50.0526061 153.586106,42.6574545 144.574004,42.6574545 L144.409838,42.6574545 C143.232708,42.6574545 142.269601,41.7132121 142.242848,40.5229091 C142.039769,31.6429091 134.713104,24.422303 125.906514,24.422303 C117.099924,24.422303 109.769611,31.6453333 109.567747,40.5253333 C109.540994,41.6938182 108.609505,42.6344242 107.449399,42.662303 C98.6488889,42.8659394 91.4912543,50.2598788 91.4912543,59.1447273 C91.4912543,68.2368485 98.8215671,75.6332121 107.833669,75.6332121 L107.966218,75.6332121 L108.017291,75.6307879 C108.064717,75.6307879 108.112143,75.6307879 108.159569,75.6332121 L144.413486,75.6332121 L144.41835,75.632 Z" id="Fill-67" fill="#FFFFFF"></path>
                            <g id="Group-71" transform="translate(88.771207, 22.117576)">
                                <mask id="mask-6" fill="white">
                                    <use xlink:href="#path-5"></use>
                                </mask>
                                <g id="Clip-70"></g>
                                <path d="M47.0564009,35.1455758 L47.0564009,35.1431515 C47.3883809,35.3589091 47.4820163,35.8061818 47.2655605,36.1395152 C47.1269315,36.3504242 46.8970991,36.4667879 46.6636187,36.4667879 C46.5286378,36.4667879 46.3912249,36.4292121 46.2708365,36.3504242 C45.9485849,36.1395152 45.6822713,35.8995152 45.4609513,35.6486061 C43.0385917,37.8364848 39.9765931,38.9298182 36.9145945,38.9298182 C33.8598921,38.9298182 30.8051898,37.8401212 28.3876944,35.6631515 C28.1675905,35.9116364 27.9037089,36.1455758 27.5899696,36.3504242 C27.4683652,36.4292121 27.3321683,36.4667879 27.1984035,36.4667879 C26.9612749,36.4667879 26.7326586,36.3516364 26.5964617,36.1407273 C26.3775738,35.8086061 26.4712092,35.3637576 26.8056213,35.1443636 C28.0289615,34.348 28.0861155,32.8789091 28.0861155,32.8207273 C28.099492,32.4255758 28.432688,32.108 28.8218221,32.1189091 C29.2158203,32.1298182 29.5307757,32.4558788 29.5234795,32.8498182 C29.5234795,32.9019394 29.5003746,33.6013333 29.1647465,34.4219394 C33.5181838,38.5189091 40.3426223,38.5128485 44.6875473,34.397697 C44.3592155,33.588 44.3397588,32.9007273 44.3373267,32.8486061 C44.3300304,32.4534545 44.6449858,32.1249697 45.0426321,32.117697 C45.4402785,32.1116364 45.7649622,32.4243636 45.7734746,32.8219394 C45.7759066,32.8861818 45.8367088,34.3492121 47.0564009,35.1455758 L47.0564009,35.1455758 Z M54.6761322,52.1504242 L54.8244896,52.1504242 C63.3550378,52.1504242 70.2962165,45.148 70.2962165,36.5407273 C70.2962165,27.9346667 63.3550378,20.9322424 54.8244896,20.9322424 L54.6688359,20.9322424 C53.5549397,20.9322424 52.6429067,20.037697 52.6173698,18.9116364 C52.4252349,10.5043636 45.4877042,3.67042424 37.150507,3.67042424 C28.8145258,3.67042424 21.8745631,10.508 21.6836442,18.9140606 C21.6581073,20.0195152 20.7752594,20.9116364 19.6771717,20.9370909 C11.3472708,21.1298182 4.57025792,28.1298182 4.57025792,36.5419394 C4.57025792,45.1492121 11.5102207,52.1516364 20.0407689,52.1516364 L20.1672374,52.1516364 L20.2158792,52.148 C20.2608728,52.148 20.3046504,52.148 20.349644,52.1516364 L54.6724841,52.1516364 L54.6761322,52.1504242 Z M54.5946573,55.757697 L20.2718172,55.757697 C9.6156242,55.757697 0.95131117,47.0643636 0.95131117,36.3770909 C0.95131117,31.2813333 2.90670982,26.4667879 6.46120624,22.8231515 C9.57549475,19.6364848 13.6078964,17.6510303 17.9710621,17.1358788 C18.4866647,12.7589091 20.4627361,8.71163636 23.642691,5.59042424 C27.2737982,2.02315152 32.0723075,0.0643636364 37.1529391,0.0643636364 C42.2323546,0.0643636364 47.030864,2.02315152 50.6644033,5.588 C53.8309817,8.69709091 55.8009728,12.7213333 56.3299519,17.0752727 C66.1726116,17.9601212 73.9139472,26.2801212 73.9139472,36.378303 C73.9139472,47.0643636 65.243554,55.757697 54.5922252,55.757697 L54.5946573,55.757697 Z" id="Fill-69" fill="#297EF1" mask="url(#mask-6)"></path>
                            </g>
                            <path d="M51.3743297,14.7489697 C51.381626,14.701697 51.4837737,14.4835152 51.6807728,14.0944242 L51.2928548,13.9659394 C51.0338374,13.8798788 50.8040051,13.5756364 50.6057899,13.0556364 C50.4063587,12.5356364 50.3321801,12.1247273 50.3783897,11.8253333 C50.4343277,11.4665455 51.3767618,11.522303 53.208124,11.9926061 C54.2296009,10.9586667 55.4541571,10.2410909 56.8842248,9.84109091 C58.3130764,9.44109091 59.7759772,9.48957576 61.2704952,9.98775758 C61.7581289,10.1501818 62.1813122,10.5489697 62.5351809,11.1841212 C62.8890497,11.8192727 63.0276787,12.3889697 62.9498519,12.892 C62.9109385,13.1332121 62.7771737,13.3392727 62.5473414,13.5150303 C62.316293,13.6895758 62.0986212,13.7441212 61.8979739,13.6774545 C61.8396038,13.6580606 61.7411042,13.4701818 61.6000431,13.1138182 C61.4589821,12.7574545 61.2668471,12.5392727 61.0224223,12.4580606 C60.404672,12.252 59.7115269,12.2083636 58.9478513,12.3247273 C58.1805276,12.4410909 57.4363087,12.682303 56.7164107,13.0471515 C58.4821065,13.6362424 59.8769089,14.1635152 60.8996018,14.6301818 C61.9235108,15.0980606 62.4050642,15.522303 62.344262,15.9065455 C62.2931882,16.242303 61.4480377,16.2580606 59.8112425,15.9513939 C58.1732313,15.6459394 56.7480279,15.3162424 55.534416,14.9610909 C55.009085,14.8374545 54.6831853,14.7538182 54.5530685,14.7113939 C54.4606492,14.8192727 54.3220202,15.0301818 54.1359655,15.3477576 C56.1497342,15.8168485 57.9677199,16.3210909 59.5911386,16.861697 C61.2145572,17.4010909 61.9952574,17.8641212 61.9368873,18.2483636 C61.8408198,18.8604848 59.1618751,18.6483636 53.8976209,17.6144242 C54.0848916,18.4580606 54.7014259,19.0544242 55.7508718,19.4035152 C57.0727116,19.8447273 58.6219516,20.082303 60.3998078,20.1198788 C60.9993174,20.1429091 61.3969638,20.1877576 61.5915308,20.252 C61.7860979,20.3162424 61.927159,20.4301818 62.0134981,20.5913939 C62.1022693,20.7538182 62.1338864,20.9186667 62.1071335,21.0859394 C62.0536275,21.4338182 61.6474689,21.7113939 60.8898735,21.9198788 C60.1334942,22.1271515 59.2190291,22.2168485 58.1513426,22.1889697 C57.0824399,22.1610909 56.1241973,22.0071515 55.2766147,21.7235152 C52.4468805,20.781697 51.0058684,19.2047273 50.9572266,16.9938182 C50.7687398,16.9441212 50.4525684,16.8447273 50.0074963,16.6956364 C49.777664,16.6192727 49.5624242,16.322303 49.3642091,15.8010909 C49.1659939,15.2798788 49.0881671,14.8762424 49.1319447,14.5889697 C49.1586977,14.421697 49.9065647,14.4750303 51.3743297,14.7489697" id="Fill-72" fill="#FD9E2A"></path>
                        </g>
                    </g>
                </g>
            </g>
        </g>
    </g>
</svg>