<?xml version="1.0" encoding="UTF-8"?>
<svg width="128px" height="73px" viewBox="0 0 128 73" version="1.1" xmlns="http://www.w3.org/2000/svg" xmlns:xlink="http://www.w3.org/1999/xlink">
    <!-- Generator: Sketch 46.2 (44496) - http://www.bohemiancoding.com/sketch -->
    <title>illu-stockage-data</title>
    <desc>Created with Sketch.</desc>
    <defs></defs>
    <g id="app" stroke="none" stroke-width="1" fill="none" fill-rule="evenodd">
        <g id="Pricing-tableau-201801-Website-A-FR" transform="translate(-239.000000, -596.000000)">
            <g id="Cozy-Gratuit" transform="translate(144.000000, 312.000000)">
                <g id="text-stockagedata" transform="translate(49.000000, 280.000000)">
                    <g id="illu-stockage-data">
                        <g id="Group-3" transform="translate(46.000000, 4.000000)">
                            <g id="icon-type-text-02" transform="translate(2.000000, 0.000000)">
                                <g id="text-02">
                                    <path d="M0,2.00174332 C0,0.89621101 0.890925393,0 1.99742191,0 L19,0 L26,7 L26,29.9964051 C26,31.10296 25.1050211,32 24.0029953,32 L1.99700466,32 C0.89408944,32 0,31.1107383 0,29.9982567 L0,2.00174332 Z" id="Rectangle-2" fill="#B2D3FF"></path>
                                    <path d="M18.5,8.57092175e-14 C18.2238576,1.33045111e-13 18,0.230796814 18,0.500435829 L18,8 L25.4995642,8 C25.7759472,8 26,7.76806641 26,7.5 L26,7 L19,0 L18.5,8.57092175e-14 Z" id="Path-2" fill="#197BFF"></path>
                                    <path d="M6,11 L20,11 L20,13 L6,13 L6,11 Z M6,15 L18,15 L18,17 L6,17 L6,15 Z M6,19 L20,19 L20,21 L6,21 L6,19 Z M6,23 L16,23 L16,25 L6,25 L6,23 Z" id="text" fill="#197BFF"></path>
                                </g>
                            </g>
                            <g id="icon-type-keynote-ppt" transform="translate(0.000000, 44.000000)">
                                <g id="keynote">
                                    <path d="M0,1.99124431 C0,0.891510444 0.889763236,0 2.00359486,0 L25,0 L32,7 L32,26.0054385 C32,27.1070044 31.1107383,28 29.9982567,28 L2.00174332,28 C0.89621101,28 0,27.1001025 0,26.0087557 L0,1.99124431 Z" id="Rectangle-2" fill="#FFDEC1"></path>
                                    <path d="M24.5,8.57092175e-14 C24.2238576,1.33045111e-13 24,0.230796814 24,0.500435829 L24,8 L31.4995642,8 C31.7759472,8 32,7.76806641 32,7.5 L32,7 L25,0 L24.5,8.57092175e-14 Z" id="Path-2" fill="#FF9433"></path>
                                    <path d="M9.99621582,16 L25.9962158,16 L25.9962158,18 L9.99621582,18 L9.99621582,16 Z M9.99621582,20 L25.9962158,20 L25.9962158,22 L9.99621582,22 L9.99621582,20 Z M6,16 L8,16 L8,18 L6,18 L6,16 Z M6,20 L8,20 L8,22 L6,22 L6,20 Z M16,14 C13.790861,14 12,12.209139 12,10 C12,7.790861 13.790861,6 16,6 L16,10 L20,10 C20,12.209139 18.209139,14 16,14 Z M17,9 C17,9 16.9999999,6 17,5 C19,5 21.0000002,7 21,9 L17,9 Z" id="text" fill="#FF9433"></path>
                                </g>
                            </g>
                            <g id="icon-type-pdf" transform="translate(50.000000, 41.000000)">
                                <g id="pdf">
                                    <path d="M0,2.00174332 C0,0.89621101 0.890925393,0 1.99742191,0 L19,0 L26,7 L26,29.9964051 C26,31.10296 25.1050211,32 24.0029953,32 L1.99700466,32 C0.89408944,32 0,31.1107383 0,29.9982567 L0,2.00174332 Z" id="Rectangle-2" fill="#FCD0D5"></path>
                                    <path d="M18.5,8.57092175e-14 C18.2238576,1.33045111e-13 18,0.230796814 18,0.500435829 L18,8 L25.4995642,8 C25.7759472,8 26,7.76806641 26,7.5 L26,7 L19,0 L18.5,8.57092175e-14 Z" id="Path-2" fill="#F1142D"></path>
                                    <path d="M6,11 L20,11 L20,13 L6,13 L6,11 Z M6,15 L18,15 L18,17 L6,17 L6,15 Z" id="text" fill="#F1142D"></path>
                                    <path d="M6.06599695,19.784 L7.96999695,19.784 C8.25266503,19.784 8.51799571,19.8119997 8.76599695,19.868 C9.01399819,19.9240003 9.22999603,20.0173327 9.41399695,20.148 C9.59799787,20.2786673 9.74332975,20.4519989 9.84999695,20.668 C9.95666415,20.8840011 10.0099969,21.1493318 10.0099969,21.464 C10.0099969,21.7680015 9.95533083,22.0319989 9.84599695,22.256 C9.73666307,22.4800011 9.58866455,22.6639993 9.40199695,22.808 C9.21532935,22.9520007 8.99933151,23.0586663 8.75399695,23.128 C8.50866239,23.1973337 8.24733167,23.232 7.96999695,23.232 L7.24199695,23.232 L7.24199695,25 L6.06599695,25 L6.06599695,19.784 Z M7.89799695,22.296 C8.53800015,22.296 8.85799695,22.0186694 8.85799695,21.464 C8.85799695,21.1919986 8.77666443,21.0000006 8.61399695,20.888 C8.45132947,20.7759994 8.21266519,20.72 7.89799695,20.72 L7.24199695,20.72 L7.24199695,22.296 L7.89799695,22.296 Z M10.9139969,19.784 L12.3859969,19.784 C12.7859989,19.784 13.1459953,19.8346662 13.4659969,19.936 C13.7859985,20.0373338 14.0606625,20.1933323 14.2899969,20.404 C14.5193314,20.6146677 14.6953297,20.882665 14.8179969,21.208 C14.9406642,21.533335 15.0019969,21.9199978 15.0019969,22.368 C15.0019969,22.8160022 14.9406642,23.2053317 14.8179969,23.536 C14.6953297,23.8666683 14.5219981,24.1399989 14.2979969,24.356 C14.0739958,24.5720011 13.8059985,24.7333328 13.4939969,24.84 C13.1819954,24.9466672 12.8339989,25 12.4499969,25 L10.9139969,25 L10.9139969,19.784 Z M12.3139969,24.048 C12.5379981,24.048 12.7406627,24.018667 12.9219969,23.96 C13.1033312,23.901333 13.2579963,23.8066673 13.3859969,23.676 C13.5139976,23.5453327 13.6139966,23.3733344 13.6859969,23.16 C13.7579973,22.9466656 13.7939969,22.6826682 13.7939969,22.368 C13.7939969,22.0586651 13.7579973,21.7986677 13.6859969,21.588 C13.6139966,21.3773323 13.5139976,21.209334 13.3859969,21.084 C13.2579963,20.958666 13.1033312,20.8693336 12.9219969,20.816 C12.7406627,20.7626664 12.5379981,20.736 12.3139969,20.736 L12.0899969,20.736 L12.0899969,24.048 L12.3139969,24.048 Z M15.9939969,19.784 L19.2819969,19.784 L19.2819969,20.776 L17.1699969,20.776 L17.1699969,21.984 L18.9779969,21.984 L18.9779969,22.976 L17.1699969,22.976 L17.1699969,25 L15.9939969,25 L15.9939969,19.784 Z" id="PDF" fill="#F1142D"></path>
                                </g>
                            </g>
                            <g id="icon-type-audio" transform="translate(48.000000, 1.000000)">
                                <g id="audio">
                                    <rect id="Rectangle-4" fill="#ACF5F7" x="0" y="0" width="30" height="30" rx="2"></rect>
                                    <path d="M8,19.9979317 C6.8954305,19.9979317 6,20.8856614 6,21.9979317 L6,21.9979317 C6,23.1025012 6.89826062,23.9979317 7.99791312,23.9979317 L9,23.9979317 C10.6568542,23.9979317 12,22.6487458 12,21.0005269 L12,13.3224852 C12,13.0410046 12.217172,12.7720898 12.4922264,12.7205046 L18.5077736,11.5923149 C18.7796227,11.5413308 19,11.7161978 19,12.0098818 L19,17.4880499 C19,17.7696499 18.7849426,17.9979317 18.5095215,17.9979317 L17,17.9979317 C15.8954305,17.9979317 15,18.9020069 15,19.9947579 L15,19.8159933 C15,20.9188099 15.8982606,21.8128195 16.9979131,21.8128195 L18,21.8128195 C19.6568542,21.8128195 21,20.464451 21,18.8195676 L21,6.99922157 C21,6.44622446 20.555163,6.07881118 20.0238234,6.17541838 L10.9761766,7.82044507 C10.4370492,7.91846824 10,8.45369268 10,9.00040502 L10,19.4975844 C10,19.7739186 9.78494263,19.9979317 9.50952148,19.9979317 L8,19.9979317 Z" id="Path" fill="#0DCBCF"></path>
                                </g>
                            </g>
                            <g id="icon-type-video" transform="translate(97.000000, 1.000000)">
                                <g id="video">
                                    <path d="M0,1.99161703 C0,0.891677316 0.89784041,0 1.99161703,0 L28.008383,0 C29.1083227,0 30,0.89784041 30,1.99161703 L30,28.008383 C30,29.1083227 29.1021596,30 28.008383,30 L1.99161703,30 C0.891677316,30 0,29.1021596 0,28.008383 L0,1.99161703 Z M1,14.0093689 L1,15.9906311 C1,16.5566468 1.45190985,17 2.0093689,17 L3.9906311,17 C4.55664682,17 5,16.5480902 5,15.9906311 L5,14.0093689 C5,13.4433532 4.54809015,13 3.9906311,13 L2.0093689,13 C1.44335318,13 1,13.4519098 1,14.0093689 Z M25,14.0093689 L25,15.9906311 C25,16.5566468 25.4519098,17 26.0093689,17 L27.9906311,17 C28.5566468,17 29,16.5480902 29,15.9906311 L29,14.0093689 C29,13.4433532 28.5480902,13 27.9906311,13 L26.0093689,13 C25.4433532,13 25,13.4519098 25,14.0093689 Z M1,7.99980749 L1,11.0001925 C1,11.5562834 1.45190985,12 2.0093689,12 L3.9906311,12 C4.55664682,12 5,11.5523709 5,11.0001925 L5,7.99980749 C5,7.44371665 4.54809015,7 3.9906311,7 L2.0093689,7 C1.44335318,7 1,7.44762906 1,7.99980749 Z M25,7.99980749 L25,11.0001925 C25,11.5562834 25.4519098,12 26.0093689,12 L27.9906311,12 C28.5566468,12 29,11.5523709 29,11.0001925 L29,7.99980749 C29,7.44371665 28.5480902,7 27.9906311,7 L26.0093689,7 C25.4433532,7 25,7.44762906 25,7.99980749 Z M1,24.9998075 L1,28.0001925 C1,28.5562834 1.45190985,29 2.0093689,29 L3.9906311,29 C4.55664682,29 5,28.5523709 5,28.0001925 L5,24.9998075 C5,24.4437166 4.54809015,24 3.9906311,24 L2.0093689,24 C1.44335318,24 1,24.4476291 1,24.9998075 Z M25,24.9998075 L25,28.0001925 C25,28.5562834 25.4519098,29 26.0093689,29 L27.9906311,29 C28.5566468,29 29,28.5523709 29,28.0001925 L29,24.9998075 C29,24.4437166 28.5480902,24 27.9906311,24 L26.0093689,24 C25.4433532,24 25,24.4476291 25,24.9998075 Z M1,1.99980749 L1,5.00019251 C1,5.55628335 1.45190985,6 2.0093689,6 L3.9906311,6 C4.55664682,6 5,5.55237094 5,5.00019251 L5,1.99980749 C5,1.44371665 4.54809015,1 3.9906311,1 L2.0093689,1 C1.44335318,1 1,1.44762906 1,1.99980749 Z M25,1.99980749 L25,5.00019251 C25,5.55628335 25.4519098,6 26.0093689,6 L27.9906311,6 C28.5566468,6 29,5.55237094 29,5.00019251 L29,1.99980749 C29,1.44371665 28.5480902,1 27.9906311,1 L26.0093689,1 C25.4433532,1 25,1.44762906 25,1.99980749 Z M1,18.9998075 L1,22.0001925 C1,22.5562834 1.45190985,23 2.0093689,23 L3.9906311,23 C4.55664682,23 5,22.5523709 5,22.0001925 L5,18.9998075 C5,18.4437166 4.54809015,18 3.9906311,18 L2.0093689,18 C1.44335318,18 1,18.4476291 1,18.9998075 Z M25,18.9998075 L25,22.0001925 C25,22.5562834 25.4519098,23 26.0093689,23 L27.9906311,23 C28.5566468,23 29,22.5523709 29,22.0001925 L29,18.9998075 C29,18.4437166 28.5480902,18 27.9906311,18 L26.0093689,18 C25.4433532,18 25,18.4476291 25,18.9998075 Z" id="Combined-Shape" fill="#FFC5CE"></path>
                                    <path d="M11,9.61464155 C11,9.06099084 11.3798008,8.84004874 11.8525944,9.12372488 L20.1474056,14.1006116 C20.6182805,14.3831366 20.6201992,14.8400487 20.1474056,15.1237249 L11.8525944,20.1006116 C11.3817195,20.3831366 11,20.1564073 11,19.609695 L11,9.61464155 Z" id="Rectangle-126" fill="#FF405D"></path>
                                </g>
                            </g>
                            <g id="icon-type-images-02" transform="translate(96.000000, 44.000000)">
                                <g id="images-02">
                                    <rect id="Rectangle-5" fill="#8EE39B" x="0" y="0" width="32" height="26" rx="2"></rect>
                                    <path d="M0,20 L6.29028051,13.7097195 C6.68224776,13.3177522 7.31387329,13.3138733 7.70591205,13.7059121 L11,17 L19.2937851,8.7062149 C19.6838168,8.31618318 20.320971,8.32097101 20.7058543,8.70585426 L32,20 L32,24.0020869 C32,25.1055038 31.1107383,26 29.9982567,26 L2.00174332,26 C0.89621101,26 0,25.1017394 0,24.0020869 L0,20 Z" id="Path-8" fill="#1EC737"></path>
                                    <circle id="Oval-1" fill="#FFFFFF" cx="8" cy="7" r="3"></circle>
                                    <path d="M10.6464466,15.6464466 L5.5,20.7928932 L5.5,20.7928932 C5.30473785,20.9881554 5.30473785,21.3047379 5.5,21.5 L5.5,21.5 L5.5,21.5 C5.69526215,21.6952621 6.01184464,21.6952621 6.20710678,21.5 L11.3535534,16.3535534 L10.6464466,15.6464466 Z" id="Path-3" fill="#8EE39B" fill-rule="nonzero"></path>
                                </g>
                            </g>
                        </g>
                        <rect id="Rectangle-3" x="0" y="0" width="224" height="80"></rect>
                    </g>
                </g>
            </g>
        </g>
    </g>
</svg>