<?xml version="1.0" encoding="UTF-8"?>
<svg width="129px" height="66px" viewBox="0 0 129 66" version="1.1" xmlns="http://www.w3.org/2000/svg" xmlns:xlink="http://www.w3.org/1999/xlink">
    <!-- Generator: Sketch 46.2 (44496) - http://www.bohemiancoding.com/sketch -->
    <title>illu-apps</title>
    <desc>Created with Sketch.</desc>
    <defs></defs>
    <g id="app" stroke="none" stroke-width="1" fill="none" fill-rule="evenodd">
        <g id="Pricing-tableau-201801-Product-A-EN" transform="translate(-216.000000, -568.000000)">
            <g id="illu-apps" transform="translate(199.000000, 560.000000)">
                <rect id="Rectangle-3" x="0" y="0" width="163" height="80"></rect>
                <g id="apps-pricing" transform="translate(17.000000, 7.000000)">
                    <g id="_3402-app-Drive---menu-default" transform="translate(0.000000, 0.000000)" fill-rule="nonzero">
                        <g id="nav-apps" transform="translate(0.000000, 0.000000)">
                            <g id="cozy-drive" transform="translate(0.000000, 0.000000)">
                                <g id="folder-02" transform="translate(0.000000, 0.000000)">
                                    <rect id="Rectangle-6" fill="#B2D3FF" transform="translate(24.511340, 21.875040) rotate(-15.360000) translate(-24.511340, -21.875040) " x="3.96921666" y="5.23503963" width="41.0842467" height="33.28" rx="3.41"></rect>
                                    <path d="M0.0632153691,10.43 C-0.186918605,9.52172859 0.346750288,8.58280804 1.25682508,8.33 L15.2992922,4.49 C16.3565706,4.26122392 17.4604945,4.39879709 18.4287563,4.88 L18.6093023,4.99 C19.5811623,5.47117596 20.6882176,5.60869861 21.7487968,5.38 L37.4362386,1.08 C38.8014311,0.709721676 40.2098331,1.51017247 40.5857634,2.87 L40.5857634,2.87 L22.4308595,7.87 C21.3993058,8.21101494 20.5172248,8.89618042 19.9333064,9.81 L19.833003,9.99 C19.2467592,10.8995168 18.3651041,11.5808214 17.3354499,11.92 L3.29298281,15.77 C2.38518982,16.013019 1.45031912,15.482334 1.19664307,14.58 L0.0632153691,10.43 Z" id="Rectangle-7" fill="#197BFF"></path>
                                </g>
                            </g>
                        </g>
                    </g>
                    <g id="_3402-app-Drive---menu-default-2" transform="translate(19.060667, 30.000000)">
                        <g id="nav-apps-2">
                            <g id="cozy-photos">
                                <g id="images-02">
                                    <rect id="Rectangle-5" fill="#1EC737" fill-rule="nonzero" transform="translate(22.796429, 18.289854) rotate(-85.340000) translate(-22.796429, -18.289854) " x="6.10595414" y="-2.190146" width="33.3809505" height="40.96" rx="3.41"></rect>
                                    <path d="M1.59482305,25.54 L10.0303337,18.44 C10.3745682,18.1463322 10.8218756,18.0013173 11.2735211,18.0369644 C11.7251667,18.0726116 12.1440152,18.2859898 12.4376138,18.63 L16.0284732,22.85 L27.1822042,13.42 C27.526975,13.1231926 27.9765304,12.976255 28.4306395,13.0119479 C28.8847486,13.0476408 29.3056547,13.2629964 29.5995147,13.61 L42.5386451,28.86 L42.1976138,33.12 C42.0328092,34.9969597 40.380275,36.3899987 38.4964206,36.24 L4.39328615,33.47 C2.50681477,33.3159422 1.09948479,31.6715753 1.24376138,29.79 L1.59482305,25.54 Z" id="Path-8" fill="#23A636" fill-rule="nonzero"></path>
                                    <ellipse id="Oval-1" fill="#FFFFFF" fill-rule="nonzero" cx="13.1898888" cy="9.8" rx="3.85164813" ry="3.84"></ellipse>
                                    <path d="M16.3193529,21.87 L8.57593529,28.43 L16.3193529,21.87 Z" id="Path-3" stroke="#1EC737" stroke-width="2" stroke-linecap="round" stroke-linejoin="round"></path>
                                </g>
                            </g>
                        </g>
                    </g>
                    <g id="path-1" transform="translate(80.245703, 24.000000)" fill-rule="nonzero" fill="#8EE39B">
                        <path d="M5.9279272,6.39 L38.927725,0.53 C41.408707,0.116381374 43.7662253,1.75587746 44.2337715,4.22 L47.9650556,25.16 C48.3856663,27.6292513 46.743136,29.9787981 44.2738928,30.44 L9.63915066,36.59 C7.15689817,37.0092519 4.79578641,35.3672568 4.33310415,32.9 L0.862608696,13.46 C0.318413454,10.1167048 2.57926161,6.96108948 5.9279272,6.39 Z" id="Shape"></path>
                    </g>
                    <ellipse id="Oval-2" fill="#16B52D" fill-rule="nonzero" cx="104.529141" cy="42.56" rx="6.92093023" ry="6.9"></ellipse>
                    <ellipse id="Oval-2-Copy" fill="#16B52D" fill-rule="nonzero" cx="92.2520121" cy="44.74" rx="2.76837209" ry="2.76"></ellipse>
                    <ellipse id="Oval-2-Copy-2" fill="#16B52D" fill-rule="nonzero" cx="116.796239" cy="40.38" rx="2.76837209" ry="2.76"></ellipse>
                    <path d="M125.061234,54.34 L89.333185,60.69 C87.1994336,61.0717081 85.1474354,59.694562 84.6991709,57.58 L80.6870374,35.29 C80.5111395,34.2568083 80.759713,33.1965139 81.3767334,32.3480899 C81.9937538,31.4996659 82.9272967,30.9345103 83.9669565,30.78 L119.695005,24.44 C121.825582,24.0577191 123.876167,25.4294913 124.329019,27.54 L128.341153,49.84 C128.644183,51.9764463 127.192981,53.9674747 125.061234,54.34 Z M84.4785035,33.5 C83.8582894,33.6112096 83.4241967,34.1738235 83.4754702,34.8 L87.4876036,57.1 C87.54841,57.4107214 87.737167,57.6817631 88.0079297,57.8471512 C88.2786923,58.0125393 88.6066267,58.0571048 88.911911,57.97 L124.63996,51.63 C125.261684,51.5142151 125.694884,50.9484403 125.642993,50.32 L121.630859,28.03 C121.570053,27.7192786 121.381296,27.4482369 121.110533,27.2828488 C120.839771,27.1174607 120.511836,27.0728952 120.206552,27.16 L84.4785035,33.5 Z" id="Shape" fill="#16B52D" fill-rule="nonzero"></path>
                    <g id="_3402-app-Drive---menu-default-3" transform="translate(50.154702, 1.000000)" fill-rule="nonzero">
                        <g id="nav-apps-3">
                            <g id="cozy-collect">
                                <g id="cozy-data-connect">
                                    <path d="M21.8661274,11.5 C24.9683405,11.8431413 27.5540488,14.0232373 28.408575,17.0161534 C29.2631012,20.0090695 28.216606,23.2199557 25.760697,25.1404474 C23.304788,27.0609391 19.9275836,27.3093335 17.2155791,25.7689434 C14.5035745,24.2285533 12.9957879,21.2055353 13.4005258,18.12 C13.6388306,16.1212524 14.665755,14.2994194 16.2543165,13.0571832 C17.842878,11.8149469 19.8622641,11.2546012 21.8661274,11.5 Z M18.425723,37.88 C14.1248982,37.3226633 10.2252975,35.0763745 7.59296259,31.64 C10.341274,29.64 14.7646512,28.57 19.5591507,29.19 C24.3536502,29.81 28.3657836,31.92 30.5022447,34.6 C27.0760327,37.254165 22.7288108,38.4348765 18.425723,37.88 Z" id="Shape" fill="#855CEA"></path>
                                    <g id="Group" fill="#C2ADF4">
                                        <path d="M18.2552073,39.18 C10.7878965,38.2106365 4.64177885,32.8517086 2.683265,25.6024996 C0.724751144,18.3532905 3.33961798,10.6417081 9.30835055,6.06426039 C15.2770831,1.48681272 23.4239946,0.945139329 29.9495491,4.69186448 C36.4751037,8.43858963 40.0939348,15.7357048 39.1183013,23.18 C37.776286,33.3348524 28.4443135,40.4915838 18.2552073,39.18 Z M22.8290394,4.06 C16.0448302,3.17769955 9.39576839,6.45769889 5.98365516,12.3698716 C2.57154192,18.2820443 3.06869859,25.6614583 7.24320053,31.0656017 C11.4177025,36.4697452 18.4470076,38.833788 25.0519306,37.0548993 C31.6568535,35.2760105 36.5359631,29.7047018 37.4131446,22.94 C38.598108,13.7159382 32.0768595,5.27379043 22.8290394,4.06 Z" id="Shape"></path>
                                        <ellipse id="Oval-2-2" cx="22.7989484" cy="4.27" rx="3.85164813" ry="3.84"></ellipse>
                                        <ellipse id="Oval-2-Copy-2-2" cx="18.5059656" cy="37.28" rx="3.85164813" ry="3.84"></ellipse>
                                        <ellipse id="Oval-2-Copy-2-3" cx="34.0529828" cy="32.19" rx="3.85164813" ry="3.84"></ellipse>
                                        <ellipse id="Oval-2-Copy-4" cx="4.77443883" cy="28.4" rx="3.85164813" ry="3.84"></ellipse>
                                        <ellipse id="Oval-2-Copy-3" cx="36.4502326" cy="13.78" rx="3.85164813" ry="3.84"></ellipse>
                                        <ellipse id="Oval-2-Copy-5" cx="7.17168857" cy="10" rx="3.85164813" ry="3.84"></ellipse>
                                    </g>
                                </g>
                            </g>
                        </g>
                    </g>
                </g>
            </g>
        </g>
    </g>
</svg>