<svg width="73" height="71" viewBox="0 0 73 71" fill="none" xmlns="http://www.w3.org/2000/svg">
<g clip-path="url(#clip0_2676_107891)">
<path d="M34.8989 0H0.162109V12.6316H34.8989V0Z" fill="white"/>
<path fill-rule="evenodd" clip-rule="evenodd" d="M14.5228 11.1416C14.6584 11.006 14.7953 10.8604 14.9313 10.7144C15.1744 10.4252 15.4404 10.1537 15.7245 9.90183C15.8067 9.82724 15.8935 9.75796 15.9844 9.69429C15.9964 9.68236 16.0024 9.66442 16.0083 9.64655C16.0142 9.62861 16.0202 9.61074 16.0322 9.5988C15.9726 9.62267 15.9248 9.65848 15.8771 9.69423C15.8293 9.73004 15.7816 9.76585 15.7219 9.78973C15.698 9.78973 15.6741 9.76592 15.698 9.74204L15.953 9.55074C15.9478 9.55105 15.9422 9.55105 15.9367 9.55105C15.9129 9.55105 15.9129 9.52724 15.9129 9.50331C15.6051 9.456 15.3679 9.66682 15.1544 9.85648L15.149 9.86135C15.1171 9.87733 15.0853 9.86135 15.0606 9.84897C15.0482 9.84278 15.0376 9.83747 15.0297 9.83747C14.842 9.90006 14.6806 10.0151 14.518 10.131C14.3702 10.2363 14.2214 10.3422 14.0511 10.4104V10.3626C13.9917 10.3824 13.9331 10.4089 13.8743 10.4354C13.7911 10.4729 13.7077 10.5105 13.6214 10.5297C13.4599 10.5656 13.3118 10.561 13.1671 10.5565C13.1195 10.555 13.0719 10.5536 13.0246 10.5536C12.7327 10.5891 12.443 10.6407 12.1567 10.7081L12.1442 10.7112L12.1386 10.7126L12.1318 10.7144C11.9769 10.7561 11.8276 10.8162 11.687 10.8935C11.6815 10.8964 11.676 10.8997 11.6707 10.9029C11.6589 10.9179 11.6472 10.9321 11.6362 10.9443C11.5912 11.0018 11.5356 11.0502 11.4725 11.0871C11.3687 11.1399 11.2783 11.2204 11.1885 11.3004C11.1514 11.3334 11.1144 11.3664 11.0767 11.3972C11.0654 11.4051 11.0521 11.4093 11.0384 11.4093C10.9991 11.4471 10.9599 11.485 10.9207 11.5229C10.8324 11.6082 10.744 11.6938 10.654 11.7773C10.6312 11.7879 10.6058 11.7909 10.5811 11.786C10.5877 11.7762 10.5924 11.7687 10.5969 11.7611C10.617 11.7274 10.6374 11.6939 10.6581 11.6605C10.6812 11.6231 10.7047 11.5862 10.7289 11.5496C10.7614 11.5002 10.7949 11.4514 10.8305 11.4043C10.8388 11.3953 10.8384 11.3814 10.8296 11.373C10.8206 11.3644 10.8086 11.36 10.7963 11.3605C10.9183 11.2463 11.0527 11.146 11.1969 11.0615C11.181 11.0629 11.1578 11.0502 11.1699 11.0334C11.1788 11.021 11.1866 11.0082 11.1943 10.9953C11.1998 10.9863 11.2052 10.9772 11.2111 10.9683C11.2138 10.9612 11.2163 10.9541 11.2187 10.947C11.215 10.9429 11.2113 10.9391 11.2075 10.9353L11.2007 10.9282C11.1614 10.9515 11.1239 10.9777 11.0885 11.0066C11.0712 11.0222 11.055 11.0427 11.0385 11.0637C11.0004 11.1121 10.9604 11.163 10.9 11.1623C10.8878 11.1621 10.8756 11.1604 10.8638 11.1572C10.855 11.156 10.8465 11.1531 10.8388 11.1486L10.8419 11.1431L10.8454 11.1364L10.8489 11.1303L10.8602 11.1097L10.8664 11.0987L10.8716 11.0891L10.8808 11.0726C10.8864 11.0625 10.8919 11.0526 10.8977 11.0423L10.9025 11.0339L10.9051 11.0295L10.9102 11.0207C10.9173 11.0084 10.9245 10.9962 10.9317 10.984L10.941 10.9681L10.9557 10.9427L10.9662 10.9247L10.9737 10.9119L10.9811 10.8993C10.986 10.8915 10.9868 10.8819 10.9833 10.8733C10.9797 10.8649 10.9722 10.8586 10.9632 10.8567C11.0076 10.7987 11.0632 10.7503 11.1266 10.7142H11.1194C11.1823 10.6825 11.2452 10.6462 11.3082 10.6098C11.3365 10.5934 11.3652 10.5769 11.3935 10.5609C11.4024 10.5534 11.411 10.5458 11.4196 10.5383L11.433 10.5268C11.2987 10.5722 11.1709 10.6352 11.0531 10.7142C11.0389 10.7197 11.0255 10.7271 11.0131 10.736C10.9907 10.7408 10.9675 10.7323 10.9535 10.7142C10.9497 10.7091 10.9476 10.7029 10.9478 10.6966C10.9617 10.6688 10.9919 10.6491 11.024 10.628C11.0471 10.6129 11.0711 10.5971 11.0911 10.5772C11.1148 10.5772 11.1387 10.5772 11.1387 10.6011C11.6127 10.2308 12.1968 10.1455 12.783 10.0599C13.1415 10.0076 13.5008 9.95514 13.836 9.83728L14.0508 9.6941C14.1122 9.66954 14.1672 9.62602 14.2257 9.57985C14.281 9.53621 14.3392 9.49017 14.4088 9.45537C14.6016 9.32299 14.7446 9.12966 14.8146 8.90646C14.812 8.88834 14.8037 8.87154 14.7907 8.85865C14.4907 9.18208 14.135 9.44893 13.7405 9.64636C13.379 9.8357 12.9928 9.86368 12.6085 9.89147C12.4599 9.90221 12.3115 9.91295 12.1651 9.93303C12.189 9.88535 12.2368 9.88535 12.2844 9.88535C12.2844 9.82863 12.3143 9.80185 12.3504 9.76952C12.36 9.76099 12.37 9.75208 12.3799 9.7421H12.4516C12.4635 9.7421 12.4694 9.73017 12.4754 9.71823C12.4814 9.70629 12.4873 9.69436 12.4992 9.69436C12.547 9.69436 12.6187 9.67048 12.5948 9.67048C12.5584 9.62198 12.5036 9.64118 12.4428 9.66253C12.3839 9.68312 12.3194 9.70573 12.2606 9.67048C12.2837 9.64743 12.29 9.61876 12.2958 9.59261C12.3019 9.5647 12.3075 9.53962 12.3322 9.5273H12.4277C12.4327 9.49112 12.4495 9.45752 12.4754 9.43181C12.6881 9.30417 12.8923 9.19339 13.0932 9.08451C13.2305 9.01004 13.3662 8.93646 13.502 8.8589C13.4742 8.8589 13.4501 8.86964 13.4267 8.88006C13.3898 8.89655 13.3549 8.91208 13.3111 8.88284C13.335 8.88284 13.335 8.86491 13.335 8.84703C13.335 8.82909 13.3349 8.81116 13.3588 8.81116C13.5091 8.77023 13.6437 8.70581 13.7805 8.64025C13.8828 8.59131 13.9864 8.54179 14.0987 8.50093C14.066 8.50093 14.036 8.50939 14.007 8.51754C13.9513 8.5332 13.8989 8.54798 13.8362 8.50093C13.852 8.49297 13.8653 8.48236 13.8786 8.47175C13.9051 8.45053 13.9316 8.42931 13.9794 8.42931V8.35769C13.9794 8.33381 14.0033 8.33381 14.0272 8.33381C14.009 8.33129 13.9922 8.32295 13.9794 8.30994C13.9917 8.2853 14.0168 8.27975 14.0447 8.27356C14.0709 8.26775 14.0995 8.26143 14.1226 8.23838C14.0987 8.23838 14.051 8.23838 14.051 8.21451C14.1226 8.11901 14.2419 8.09507 14.3613 8.07126C14.3493 8.04739 14.3255 8.04739 14.3046 8.04739C14.2837 8.04739 14.2658 8.04739 14.2658 8.02351C14.2658 7.99964 14.2896 7.99964 14.3135 7.99964H14.2658C14.2288 7.98114 14.2348 7.94829 14.2394 7.92335C14.2407 7.91608 14.2419 7.90951 14.2419 7.90421C14.3374 7.7928 14.3692 7.66017 14.401 7.5276C14.4169 7.46128 14.4328 7.39497 14.4567 7.33131C14.4328 7.33131 14.4089 7.33131 14.4089 7.30743C14.1773 7.56234 13.8105 7.65973 13.4618 7.75238L13.4304 7.76072H13.3111C13.1788 7.81263 13.0305 7.80392 12.9052 7.73684C12.8474 7.70792 12.8071 7.67027 12.7632 7.62922C12.7345 7.60238 12.7043 7.57415 12.6666 7.54585C12.4799 7.42667 12.2796 7.33042 12.0698 7.25924C11.4772 7.06547 10.8552 6.97667 10.2319 6.99676C10.4035 6.90316 10.5866 6.86552 10.7719 6.82743C10.8703 6.80722 10.9692 6.78688 11.0674 6.75802C11.1267 6.74059 11.1856 6.72259 11.244 6.70472C11.5859 6.60032 11.9178 6.49895 12.2846 6.51928C12.2361 6.50312 12.1766 6.50886 12.121 6.51429C12.0946 6.51682 12.069 6.51928 12.046 6.51928C11.7772 6.50008 11.5083 6.55813 11.2269 6.61888C11.1585 6.63366 11.0894 6.64857 11.0194 6.66259C10.9002 6.6864 10.7869 6.72221 10.6736 6.75796C10.5602 6.79377 10.4467 6.82958 10.3272 6.85345C10.2722 6.87183 10.2278 6.90423 10.1844 6.93587C10.1149 6.98659 10.0482 7.03528 9.94527 7.02051V6.94895C10.184 6.66227 10.4704 6.3761 10.8523 6.35223C11.2154 6.29173 11.5615 6.33354 11.9194 6.37674C11.9849 6.38463 12.051 6.39259 12.1175 6.39998C12.4235 6.43251 12.7265 6.48834 13.024 6.56703C13.0896 6.56703 13.1264 6.62469 13.162 6.68059C13.1913 6.72644 13.2198 6.77116 13.2628 6.7819C13.32 6.80097 13.3774 6.80482 13.4347 6.80861C13.5206 6.81436 13.6066 6.82004 13.6924 6.87733C13.6924 6.86141 13.6897 6.84549 13.6871 6.82964C13.6818 6.79781 13.6764 6.76598 13.6924 6.73415C13.7462 6.68021 13.8078 6.6948 13.8683 6.70914C13.915 6.72019 13.9612 6.73105 14.0027 6.71027C14.1323 6.6293 14.0091 6.50438 13.8867 6.38021C13.8287 6.32141 13.7709 6.26274 13.7402 6.20899C13.7427 6.19093 13.751 6.17413 13.764 6.16124C13.8212 6.21133 13.8741 6.26356 13.9266 6.31535C14.0493 6.43636 14.1697 6.55503 14.3368 6.63865C14.4562 6.68634 14.7426 6.75802 14.6949 6.61484C14.6112 6.43074 14.4689 6.27013 14.3255 6.10831C14.2643 6.03928 14.203 5.97006 14.1459 5.89869V5.80358C14.111 5.80358 14.1016 5.79076 14.0898 5.77459C14.0854 5.76865 14.0807 5.76221 14.0743 5.75583V5.6604C14.0143 5.6304 14.0015 5.58152 13.9883 5.53156C13.9805 5.50206 13.9727 5.47219 13.955 5.4456C13.9151 5.37909 13.9122 5.29781 13.9092 5.21406C13.9069 5.14743 13.9045 5.07928 13.8834 5.01587C13.8403 4.88356 13.8084 4.74783 13.7878 4.61015C13.7598 4.45093 13.728 4.29909 13.697 4.15029C13.649 3.91977 13.6023 3.6965 13.5731 3.46446C13.5363 3.11539 13.7118 2.82272 13.8926 2.52126C13.9466 2.43126 14.0011 2.34044 14.0505 2.24716C14.2175 1.96048 14.4084 1.67425 14.7187 1.48333C14.7902 1.19747 14.9803 0.959495 15.1704 0.721516L15.172 0.719557C15.3626 0.486568 15.6794 0.344653 15.9088 0.242085C16.1158 0.15019 16.3275 0.0693474 16.5431 0H0.162109V12.6312H11.7631C12.0797 12.4033 12.396 12.2587 12.7732 12.0863C12.9375 12.0112 13.1133 11.9308 13.3056 11.836C13.3426 11.8179 13.3854 11.7972 13.4323 11.7744L13.4334 11.7739C13.7685 11.6117 14.3196 11.345 14.5228 11.1416ZM10.733 9.40787C10.7497 9.32413 10.8369 9.29918 10.9205 9.27518C10.9561 9.26501 10.991 9.25503 11.0196 9.24076L11.031 9.23488L11.0439 9.228C11.0894 9.20362 11.1465 9.17299 11.1867 9.19301C11.2137 9.23356 11.2484 9.24347 11.2821 9.25314C11.3078 9.26052 11.3331 9.26779 11.3538 9.2885C11.2676 9.37459 11.1642 9.38305 11.0592 9.39164C10.9895 9.39739 10.919 9.40314 10.8523 9.43175C10.8407 9.43175 10.8263 9.43314 10.8115 9.43459C10.7652 9.43907 10.7149 9.444 10.733 9.40787ZM7.94026 7.64154C7.7259 8.0712 7.47005 8.47888 7.17649 8.85884C7.17895 8.87697 7.18735 8.89377 7.20036 8.90665C7.77327 8.26213 8.29836 7.71316 9.038 7.25962C9.05632 7.25053 9.05007 7.25886 9.04078 7.2713C9.02588 7.29139 9.00301 7.32208 9.06188 7.30737C9.30996 7.25015 9.42074 7.04034 9.52836 6.83653C9.55533 6.78537 9.58211 6.73465 9.61085 6.68678C9.72181 6.50646 9.88116 6.39069 10.042 6.27379C10.1579 6.18947 10.2747 6.10459 10.3747 5.99463C10.3779 6.02084 10.3691 6.04718 10.3508 6.06619C10.3699 6.08457 10.3962 6.09335 10.4224 6.09006C10.464 6.05893 10.5101 6.04585 10.5547 6.03316C10.6128 6.01667 10.6686 6.00082 10.7091 5.94688C10.5112 5.86762 10.2919 5.85916 10.0884 5.92295C9.58716 6.16168 9.15762 6.5436 8.75177 6.97326C8.50817 7.2312 8.25055 7.47448 7.94026 7.64154ZM9.10981 7.42674C9.09105 7.46937 9.05702 7.50341 9.01438 7.52223C8.99051 7.52223 8.96663 7.52223 8.96663 7.49836C8.98804 7.39813 9.06055 7.31653 9.15763 7.28349C9.1815 7.28343 9.1815 7.30737 9.1815 7.33124C9.16925 7.35581 9.1563 7.36907 9.14367 7.38196C9.13179 7.39415 9.12017 7.40602 9.10981 7.42674ZM10.2626 11.014C10.2819 10.9964 10.261 10.9832 10.2311 10.9771C10.2556 10.9585 10.2756 10.9347 10.2899 10.9074C10.3094 10.8606 10.1832 10.8718 10.1635 10.8855C10.1443 10.9008 10.127 10.9186 10.1123 10.9383C10.0811 10.9719 10.0479 11.0036 10.013 11.0334C9.98683 11.0574 9.96137 11.0821 9.93592 11.1067C9.90327 11.1384 9.87062 11.17 9.83657 11.2C9.7964 11.2353 9.92765 11.2539 9.95594 11.2287C9.98645 11.2017 10.0158 11.1735 10.045 11.1452C10.0574 11.1447 10.0697 11.1431 10.0818 11.1402C10.1503 11.1116 10.212 11.0685 10.2626 11.014ZM9.85628 10.7144L9.82817 10.7342C9.74815 10.7907 9.668 10.8472 9.58375 10.8961C9.50809 10.94 9.42983 10.9761 9.35133 11.0123C9.32386 11.025 9.29632 11.0377 9.26891 11.0507C9.26815 11.0487 9.26708 11.0467 9.26581 11.0449C9.25672 11.0322 9.23967 11.0281 9.22583 11.0353C9.13805 11.0853 9.05733 11.1469 8.98584 11.2182C8.97472 11.2288 8.9636 11.2395 8.95249 11.2504C8.93739 11.2652 8.92609 11.2765 8.91478 11.2878L8.9108 11.2918C8.91043 11.2922 8.91023 11.2926 8.91004 11.293L8.90935 11.294C8.89236 11.3109 8.87607 11.3279 8.85737 11.3499C8.84878 11.3627 8.83798 11.374 8.82554 11.3831C8.8107 11.393 8.76965 11.3928 8.77344 11.3653V11.3606L8.77173 11.3615C8.75821 11.3686 8.7447 11.3757 8.73106 11.3823C8.71868 11.3881 8.70762 11.3946 8.69638 11.4013L8.69379 11.4028C8.68855 11.4008 8.68293 11.3999 8.67731 11.4004C8.67112 11.4004 8.66512 11.4025 8.66013 11.4061C8.63095 11.429 8.60209 11.4534 8.57392 11.4789C8.52377 11.524 8.47741 11.5733 8.43541 11.6261L8.42859 11.6349L8.42146 11.6442C8.41918 11.6473 8.41634 11.6509 8.41388 11.6541L8.41154 11.657L8.408 11.662L8.40112 11.6721L8.39537 11.6807C8.38906 11.6873 8.38217 11.6906 8.37485 11.6916L8.37087 11.6858C8.36891 11.683 8.36695 11.6802 8.36525 11.6773L8.36127 11.6706L8.35855 11.6658C8.35129 11.6535 8.34453 11.6407 8.33815 11.6276L8.33746 11.6261L8.33474 11.6205L8.33183 11.6143C8.35767 11.5865 8.38262 11.5578 8.40674 11.5283L8.41154 11.5226C8.41994 11.5124 8.42815 11.5022 8.43636 11.492L8.47634 11.4409C8.47925 11.4369 8.48209 11.4333 8.48499 11.4296L8.49093 11.422C8.51714 11.3877 8.54221 11.3545 8.56558 11.3212L8.56735 11.3186L8.57152 11.3124C8.57354 11.3095 8.5755 11.3065 8.57765 11.3036C8.58908 11.2867 8.60007 11.2696 8.61036 11.2523C8.61965 11.2367 8.62836 11.2208 8.63645 11.2047L8.6384 11.2011L8.64087 11.1962C8.64156 11.1948 8.64219 11.1933 8.64276 11.1919C8.64346 11.1904 8.64409 11.1888 8.64478 11.1873C8.65318 11.1693 8.66076 11.1508 8.66746 11.1316L8.6696 11.1255L8.67093 11.1215C8.67232 11.1177 8.67371 11.1138 8.67491 11.1098C8.67762 11.1012 8.68009 11.0924 8.68243 11.0835C8.68287 11.0815 8.68318 11.0795 8.68375 11.0776L8.68583 11.0693C8.68805 11.0606 8.69026 11.0518 8.69202 11.0427C8.69304 11.0371 8.69202 11.0314 8.68912 11.0266C8.71602 10.9804 8.74773 10.9372 8.78373 10.8977C8.78203 10.8988 8.78019 10.8998 8.77836 10.9007C8.77647 10.9017 8.77457 10.9028 8.7728 10.904C8.75379 10.9162 8.73832 10.9311 8.72285 10.9461C8.71059 10.958 8.69828 10.9699 8.68419 10.9804C8.65817 10.9998 8.6103 10.9677 8.64106 10.9446C8.66013 10.9294 8.67826 10.913 8.69531 10.8954C8.7356 10.8483 8.77622 10.8078 8.81967 10.7704L8.8299 10.7631C8.85314 10.7462 8.87373 10.7312 8.89299 10.7144C8.89539 10.7123 8.8976 10.7101 8.9 10.708L8.90341 10.7049C8.91971 10.6836 8.93752 10.6635 8.95678 10.6449L8.95779 10.6439C8.95823 10.6434 8.95868 10.6429 8.95924 10.6425C9.09889 10.5078 9.29689 10.459 9.49855 10.4094C9.62676 10.3779 9.75649 10.3459 9.87358 10.2913C9.94002 10.2647 10.0139 10.2751 10.087 10.2855C10.145 10.2937 10.2026 10.3019 10.2554 10.2913C10.3303 10.2839 10.4055 10.3007 10.4702 10.3391C10.3048 10.4291 10.149 10.5282 9.99655 10.6252C9.95152 10.6539 9.90687 10.6823 9.86228 10.7102L9.85628 10.7144ZM10.2555 9.00208H10.4465C10.433 9.02905 10.3967 9.03316 10.372 9.036C10.3529 9.03815 10.3407 9.03954 10.3511 9.04996C10.4227 9.12139 10.5659 9.09758 10.6614 9.04983C10.7339 9.00903 10.8174 8.99229 10.9 9.00208C10.9239 9.00208 10.9239 8.95434 10.9239 8.93053C10.9855 8.9501 11.0502 8.95825 11.1148 8.95434C11.6877 8.83497 12.2367 8.71566 12.7618 8.45305C12.2319 8.04549 11.5802 7.86411 10.9404 7.68606C10.8309 7.65562 10.7217 7.62524 10.6135 7.59379C10.6374 7.59379 10.6613 7.60175 10.6852 7.6097C10.7329 7.62562 10.7807 7.64154 10.8284 7.59379C10.7635 7.54187 10.6914 7.53234 10.62 7.52286C10.5602 7.51497 10.5009 7.50714 10.4465 7.47448C10.4519 7.47448 10.4584 7.47568 10.4657 7.47701C10.4906 7.48162 10.5235 7.48762 10.542 7.45061C10.4147 7.38701 10.2875 7.36579 10.1602 7.34457C10.0965 7.33396 10.0328 7.32328 9.96908 7.30737C10.0835 7.28678 10.1651 7.18484 10.1601 7.06869C10.1601 7.04488 10.1123 7.04488 10.0884 7.04488C9.80203 7.18806 9.61104 7.45061 9.49173 7.76091C9.59834 7.82185 9.71461 7.81472 9.82823 7.80783C9.89272 7.80392 9.95638 7.8 10.0169 7.80865C9.96371 7.86164 9.88451 7.87541 9.80821 7.88867C9.78144 7.89335 9.75504 7.89789 9.73022 7.90415C9.65695 7.9224 9.58697 7.97571 9.61085 8.02345C9.62386 8.04152 9.64324 8.05383 9.6651 8.058C9.6087 8.07284 9.55716 8.10208 9.51541 8.14282C9.58375 8.19398 9.65203 8.18425 9.72024 8.17446C9.74752 8.17061 9.77474 8.16669 9.80202 8.16669C9.80202 8.19853 9.82325 8.20914 9.84453 8.21975C9.85514 8.22505 9.86575 8.23036 9.87371 8.23831C9.76937 8.27634 9.68379 8.35332 9.63497 8.45305C9.6063 8.52474 9.55186 8.57053 9.49748 8.61638C9.46116 8.64695 9.42491 8.67745 9.3963 8.71566V8.78722C9.31514 8.86023 9.23127 8.9249 9.14847 8.98888C8.98742 9.11318 8.83015 9.23451 8.70409 9.40787C8.7279 9.40787 8.7279 9.43175 8.7279 9.45556C8.7063 9.48802 8.67491 9.51069 8.64478 9.53242C8.6084 9.55863 8.57392 9.58345 8.56078 9.62261C8.56078 9.64655 8.56078 9.67042 8.58472 9.67042C8.73485 9.6204 8.86527 9.5376 8.99316 9.45638C9.10937 9.38261 9.22356 9.31011 9.34855 9.2647C9.45061 9.23912 9.53897 9.1932 9.62468 9.14861C9.69933 9.10983 9.77196 9.07206 9.84977 9.04983C9.90939 9.03789 9.97508 9.02002 10.0407 9.00208C10.1064 8.98421 10.172 8.96627 10.2317 8.95434C10.2317 8.97821 10.2317 9.00208 10.2555 9.00208ZM11.3564 11.1061C11.3583 11.1047 11.3602 11.1032 11.3621 11.1016L11.3663 11.0982C11.4009 11.0739 11.433 11.0427 11.4617 11.0054C11.4597 11.0048 11.4578 11.0041 11.4558 11.0032C11.454 11.0025 11.4522 11.0017 11.4504 11.0008C11.4186 11.0334 11.3877 11.0684 11.3564 11.1061ZM16.0125 9.53975L15.963 9.57682C15.9904 9.57556 16.0125 9.56861 16.0125 9.53975Z" fill="#000091"/>
<path d="M34.8981 0H21.3105C21.3557 0.0148421 21.399 0.034989 21.4395 0.0599996C21.5498 0.119179 21.6928 0.195537 21.7823 0.242463C21.9654 0.326779 22.1226 0.458653 22.2374 0.624316C22.2852 0.695937 22.3568 0.839179 22.309 0.934674C22.2613 1.05398 22.2374 1.24497 22.1181 1.29272C21.9749 1.36427 21.7839 1.36427 21.6168 1.3404C21.5197 1.33623 21.4234 1.32019 21.3302 1.29272C21.6881 1.4359 22.0223 1.60301 22.261 1.93718C22.2849 1.98493 22.3803 2.00874 22.4759 2.00874C22.4998 2.00874 22.4998 2.05648 22.4998 2.08036C22.452 2.12817 22.4042 2.15198 22.4281 2.22354H22.4998C22.6191 2.17579 22.5952 1.93693 22.7623 2.00874C22.8842 2.08383 22.926 2.24103 22.8578 2.36678C22.7683 2.45331 22.6724 2.53307 22.5711 2.60545C22.5473 2.65857 22.5473 2.71939 22.5711 2.77257C22.6309 2.85853 22.6716 2.95623 22.6904 3.05918C22.7621 3.22623 22.7859 3.41722 22.8576 3.58427C22.9531 3.94232 23.0485 4.30036 23.0246 4.6584C23.0246 4.84939 22.9291 5.01644 23.0007 5.20743C23.0485 5.39836 23.1678 5.5416 23.2634 5.70865C23.3587 5.85183 23.4543 5.94733 23.5259 6.09057C23.669 6.32924 23.9316 6.56791 23.8126 6.85434C23.741 7.02139 23.4784 6.99758 23.3114 7.09307C23.1681 7.21238 23.2875 7.40331 23.359 7.52267C23.4784 7.73754 23.2158 7.88072 23.0487 7.95234C23.0965 8.0239 23.192 8.00002 23.2158 8.04777C23.2397 8.16714 23.359 8.23876 23.2875 8.35806C23.192 8.50131 22.9056 8.57292 23.0487 8.78773C23.1442 8.95484 23.0821 9.1404 23.0249 9.31288C22.9533 9.52768 22.7624 9.62312 22.5953 9.67093C22.4482 9.71444 22.2929 9.72259 22.142 9.69474C22.0984 9.66834 22.0495 9.65198 21.9988 9.64705C21.593 9.59924 21.1872 9.47994 20.7814 9.47994C20.6664 9.49743 20.5541 9.52952 20.4473 9.57537C20.3433 9.6516 20.2466 9.73712 20.1583 9.83097L20.1555 9.83394C20.1375 9.85301 20.1204 9.87234 20.1034 9.89179C20.093 9.90385 20.0828 9.91617 20.0727 9.92842C20.0658 9.93657 20.059 9.94478 20.0523 9.95305C19.9831 10.04 19.9203 10.132 19.8644 10.2282C19.8609 10.2342 19.8573 10.2403 19.8539 10.2464C19.8476 10.2575 19.8416 10.2687 19.8355 10.2798C19.7604 10.4192 19.6998 10.5659 19.6547 10.7177C19.4924 11.2643 19.5634 11.7333 19.6773 11.8471C19.709 11.8788 20.4651 12.1122 20.9918 12.3465C21.1861 12.4281 21.3744 12.5234 21.5552 12.6316H34.8981V0Z" fill="#E1000F"/>
<path d="M22.1191 4.608C22.2147 4.63188 22.3578 4.63188 22.3578 4.67963C22.3101 4.87049 22.0236 4.91824 21.8804 5.10929H21.8089C21.7374 5.15704 21.7613 5.27634 21.6896 5.27634C21.6174 5.26049 21.5419 5.26889 21.4748 5.30022C21.5703 5.39565 21.6896 5.46739 21.8328 5.44339C21.8739 5.45767 21.9023 5.4955 21.9044 5.53901C21.9228 5.53725 21.9398 5.52872 21.9522 5.51508C21.9761 5.51508 22 5.51508 22 5.53901V5.63445C21.9283 5.72994 21.8089 5.68213 21.7134 5.70607C21.8933 5.75381 22.0825 5.75381 22.2623 5.70607C22.4056 5.65832 22.2623 5.41939 22.3578 5.30022C22.3102 5.30022 22.3578 5.22859 22.3102 5.22859C22.3578 5.18091 22.4056 5.10929 22.4533 5.08542C22.5101 5.08693 22.5638 5.06009 22.5966 5.01379C22.5966 4.96611 22.5012 4.94224 22.525 4.89436C22.6681 4.79906 22.7874 4.65575 22.7398 4.51257C22.7159 4.44095 22.525 4.44095 22.4056 4.3932C22.2862 4.34552 22.143 4.3932 21.9999 4.41708C21.8804 4.41708 21.7611 4.4887 21.6418 4.51257C21.4792 4.56809 21.3262 4.64855 21.1885 4.75118C21.3594 4.68941 21.535 4.64154 21.7136 4.608C21.8566 4.608 21.9782 4.57276 22.1191 4.608Z" fill="#808080"/>
<path d="M-0.912109 28.421H0.995259L1.84158 26.122H5.37842L6.22473 28.421H8.1321L4.78473 19.5789H2.43526L-0.912109 28.421ZM2.39737 24.5936L3.61 21.2715L4.82263 24.5936H2.39737ZM13.4307 26.9936C11.7633 26.9936 10.5759 25.6926 10.5759 23.9999C10.5759 22.3073 11.7633 21.0062 13.4307 21.0062C14.4412 21.0062 15.237 21.4989 15.7422 22.2189L17.157 21.1199C16.3486 20.0462 15.0349 19.3262 13.4307 19.3262C10.6391 19.3262 8.73172 21.4736 8.73172 23.9999C8.73172 26.5263 10.6391 28.6736 13.4307 28.6736C15.0349 28.6736 16.3486 27.9663 17.157 26.8673L15.7422 25.781C15.237 26.501 14.4412 26.9936 13.4307 26.9936ZM17.7298 28.421H19.6372L20.4835 26.122H24.0204L24.8667 28.421H26.774L23.4267 19.5789H21.0772L17.7298 28.421ZM21.0393 24.5936L22.2519 21.2715L23.4646 24.5936H21.0393ZM28.3289 28.421H31.8026C34.6068 28.421 36.5016 26.3873 36.5016 23.9999C36.5016 21.6126 34.6068 19.5789 31.8026 19.5789H28.3289V28.421ZM31.8279 21.2084C33.47 21.2084 34.6573 22.421 34.6573 23.9999C34.6573 25.5663 33.47 26.7915 31.8279 26.7915H30.1226V21.2084H31.8279ZM41.7935 18.821L43.4356 17.1157H41.5914L40.164 18.821H41.7935ZM38.4209 28.421H43.5745V26.9305H40.2145V24.6568H43.0693V23.1663H40.2145V21.0694H43.5745V19.5789H38.4209V28.421ZM45.8483 28.421H47.642V22.0799L49.6125 25.3894H50.8755L52.846 22.0799V28.421H54.6397V19.5789H52.4039L50.2441 23.2926L48.0841 19.5789H45.8483V28.421ZM57.2974 28.421H59.0911V19.5789H57.2974V28.421ZM61.7519 28.421H66.9056V26.9305H63.5456V24.6568H66.4003V23.1663H63.5456V21.0694H66.9056V19.5789H61.7519V28.421ZM0.19947 41.6841H3.67315C6.47737 41.6841 8.3721 39.6505 8.3721 37.2631C8.3721 34.8757 6.47737 32.842 3.67315 32.842H0.19947V41.6841ZM3.69842 34.4715C5.34052 34.4715 6.52789 35.6841 6.52789 37.2631C6.52789 38.8294 5.34052 40.0547 3.69842 40.0547H1.99315V34.4715H3.69842ZM10.2914 41.6841H15.4451V40.1936H12.0851V37.9199H14.9398V36.4294H12.0851V34.3326H15.4451V32.842H10.2914V41.6841ZM21.1866 41.6841H22.9803V38.1094H23.9024L26.2645 41.6841H28.374L25.6077 37.7684C26.5172 37.3515 27.0351 36.5557 27.0351 35.482C27.0351 33.8399 25.8351 32.842 23.8898 32.842H21.1866V41.6841ZM23.9909 34.3326C24.7488 34.3326 25.1909 34.7873 25.1909 35.4568C25.1909 36.1768 24.7488 36.6189 23.9909 36.6189H22.9803V34.3326H23.9909ZM29.6996 41.6841H34.8533V40.1936H31.4933V37.9199H34.3481V36.4294H31.4933V34.3326H34.8533V32.842H29.6996V41.6841ZM37.1271 41.6841H38.9208V35.2926L42.8745 41.6841H45.1734V32.842H43.3798V39.2336L39.4261 32.842H37.1271V41.6841ZM47.8358 41.6841H49.6295V35.2926L53.583 41.6841H55.882V32.842H54.0883V39.2336L50.1348 32.842H47.8358V41.6841ZM58.5447 41.6841H63.6984V40.1936H60.3384V37.9199H63.1932V36.4294H60.3384V34.3326H63.6984V32.842H58.5447V41.6841ZM65.1763 40.4589C65.9595 41.3936 66.9574 41.9368 68.4479 41.9368C70.0774 41.9368 71.3658 40.9389 71.3911 39.2715C71.3911 36.2399 67.3742 36.6947 67.3742 35.0905C67.3742 34.5599 67.7911 34.1557 68.4226 34.1557C69.0921 34.1557 69.6732 34.5978 70.1911 35.2673L71.5047 34.0799C70.7468 33.1831 69.7363 32.5894 68.41 32.5894C66.7174 32.5894 65.5553 33.7515 65.5553 35.1536C65.5553 38.1473 69.5721 37.7052 69.5721 39.3347C69.5721 39.9662 69.1426 40.3452 68.4353 40.3452C67.7153 40.3452 67.0079 39.941 66.4774 39.2589L65.1763 40.4589Z" fill="#1E1E1E"/>
<path fill-rule="evenodd" clip-rule="evenodd" d="M32.979 64.2315L31.8042 65.3052H31.5011L32.1958 64.08H32.979V64.2315ZM32.1326 68.3873H31.88C31.5642 68.7663 31.2105 69.0694 30.8695 69.0694C30.5158 69.0694 30.3389 68.8547 30.3389 68.3873C30.3389 68.1979 30.3642 67.9957 30.4021 67.8189L32.4611 67.1368C32.8653 66.1768 32.3853 65.76 31.8168 65.76C30.8442 65.76 29.7326 67.4652 29.7326 68.8294C29.7326 69.4736 30.0358 69.8273 30.5158 69.8273C31.0716 69.8147 31.6526 69.2715 32.1326 68.3873ZM31.4253 66.3157C31.7032 66.3157 31.9432 66.5305 31.8168 67.0231L30.5411 67.3642C30.7432 66.7579 31.1221 66.3157 31.4253 66.3157ZM27.4084 66.341H28.0905L27.0042 69.3221C26.9032 69.5747 27.0421 69.8273 27.3074 69.8273C28.0779 69.8273 29 69.1705 29.3537 68.2357H29.1642C28.8863 68.6273 28.28 69.0568 27.8253 69.1326L28.8232 66.341H29.8463L29.9726 65.9115H28.9747L29.3537 64.8379H28.9621L28.2547 65.9115L27.4084 66.0252V66.341ZM26.4611 65.7726C26.6 65.7726 26.7895 65.9242 26.7011 66.2021L25.4758 69.1705C25.7916 69.12 26.12 68.8168 26.3095 68.5389H26.5116C26.2211 69.2842 25.5642 69.8273 24.9958 69.8273C24.8568 69.8273 24.6547 69.6757 24.7558 69.3979L25.8926 66.4294C25.5768 66.48 25.2484 66.7831 25.0589 67.061H24.8695C25.16 66.3031 25.8674 65.7726 26.4611 65.7726ZM26.8147 65.0147C27.0674 65.0147 27.2821 64.8126 27.2821 64.5473C27.2821 64.2947 27.0674 64.08 26.8147 64.08C26.5495 64.08 26.3474 64.2947 26.3474 64.5473C26.3474 64.8 26.5621 65.0147 26.8147 65.0147ZM21.2947 67.4778C21.5726 66.8715 21.4716 66.5936 21.2947 66.5936C21.1432 66.5936 20.9663 66.7579 20.7895 67.061H20.6C20.8905 66.4168 21.2695 65.7726 21.6863 65.7726C22.04 65.7726 22.1663 66.1263 22.1663 66.5179V67.0736C22.2238 67.0067 22.2797 66.941 22.3343 66.8772C22.8679 66.2507 23.2754 65.7726 23.7453 65.7726C24.1116 65.7726 24.3011 66 24.3011 66.341C24.3011 66.5431 24.2379 66.7957 24.099 67.061L23.0505 69.1705C23.3663 69.12 23.6947 68.8168 23.8842 68.5389H24.0737C23.7832 69.2968 23.0758 69.8273 22.4821 69.8273C22.2168 69.8273 22.0653 69.5494 22.179 69.3221L23.3916 66.9852C23.5305 66.72 23.5558 66.5431 23.3411 66.5431C23.0505 66.5431 22.3684 67.0231 22.0021 67.4652L21.2063 69.5621C21.1179 69.7768 21.0295 69.8273 20.8274 69.8273C20.499 69.8273 20.3347 69.6126 20.4863 69.2715L21.2947 67.4778ZM20.4737 66.6694C20.6126 66.1894 20.5368 65.76 20.1705 65.76C19.7137 65.76 19.5707 66.0618 19.1279 66.9953L19.0968 67.061V66.5052C19.0968 66.1136 18.9705 65.76 18.6168 65.76C18.2 65.76 17.8211 66.4042 17.5305 67.0484H17.72C17.9221 66.7579 18.1116 66.581 18.2632 66.581C18.44 66.581 18.5411 66.8589 18.2632 67.4652L17.4547 69.2589C17.3032 69.6 17.4674 69.8147 17.7958 69.8147C17.9979 69.8147 18.0863 69.7642 18.1747 69.5494L18.9705 67.4526C19.1979 67.1747 19.4 66.9347 19.6526 66.6694H20.4737ZM16.4821 67.0231C16.6084 66.5305 16.3684 66.3157 16.0905 66.3157C15.7874 66.3157 15.4084 66.7579 15.2063 67.3642L16.4821 67.0231ZM16.7979 68.3873H16.5453C16.2295 68.7663 15.8758 69.0694 15.5347 69.0694C15.1811 69.0694 15.0042 68.8547 15.0042 68.3873C15.0042 68.1979 15.0295 67.9957 15.0674 67.8189L17.1263 67.1368C17.5305 66.1768 17.0505 65.76 16.4821 65.76C15.5095 65.76 14.3979 67.4652 14.3979 68.8294C14.3979 69.4736 14.7011 69.8273 15.1811 69.8273C15.7368 69.8147 16.3179 69.2715 16.7979 68.3873ZM12.7558 66.341H12.0737V66.0252L12.92 65.9115L13.6274 64.8379H14.019L13.64 65.9115H14.6379L14.5116 66.341H13.4884L12.4905 69.1326C12.9453 69.0568 13.5516 68.6273 13.8295 68.2357H14.019C13.6653 69.1705 12.7432 69.8273 11.9726 69.8273C11.7074 69.8273 11.5684 69.5747 11.6695 69.3221L12.7558 66.341ZM8.46106 68.6526C8.46106 67.7305 9.48421 66.4926 10.0526 66.4926C10.179 66.4926 10.3053 66.5052 10.4063 66.5431L9.81263 68.1347C9.47158 68.5515 8.94106 69.0568 8.68843 69.0568C8.54948 69.0568 8.46106 68.9305 8.46106 68.6526ZM11.2779 65.5705L11.5937 65.5957L10.4947 68.1221C10.2295 68.7284 10.3432 69.0063 10.4947 69.0063C10.6463 69.0063 10.8358 68.8294 11.0379 68.5389H11.2274C10.9368 69.1831 10.5579 69.8273 10.1411 69.8273C9.78737 69.8273 9.57264 69.4484 9.63579 68.7663L9.66106 68.5263L9.59228 68.6223C9.13981 69.2551 8.73036 69.8273 8.30948 69.8273C7.94316 69.8273 7.75369 69.6 7.75369 69.2589C7.75369 67.7936 9.3579 65.9242 10.8611 65.9242H10.9242L11.2779 65.5705ZM8.38527 66.6694C8.52421 66.1894 8.44843 65.76 8.08211 65.76C7.62529 65.76 7.48224 66.0618 7.0395 66.9953L7.00842 67.061V66.5052C7.00842 66.1136 6.88211 65.76 6.52842 65.76C6.11158 65.76 5.73264 66.4042 5.44211 67.0484H5.63158C5.83369 66.7579 6.02316 66.581 6.16211 66.581C6.33895 66.581 6.44 66.8589 6.16211 67.4652L5.35369 69.2715C5.20211 69.6126 5.36632 69.8273 5.69474 69.8273C5.89685 69.8273 5.98527 69.7768 6.07369 69.5621L6.86948 67.4652C7.09685 67.1873 7.29895 66.9473 7.55158 66.6821H8.38527V66.6694ZM3.18106 69.4484L3.10527 69.6758H0.162109L0.237899 69.4357C1.14737 69.2715 1.29895 69.1957 1.6779 68.1726L2.49895 65.9747C2.86527 64.9515 2.78948 64.8757 1.99369 64.7115L2.06948 64.4842H5.89685L5.66948 65.7094H5.39158C5.39158 64.9768 5.31579 64.7873 4.62106 64.7873H4.44421C3.76211 64.7873 3.67369 64.8884 3.48421 65.4189L2.94106 66.8968H3.73685C4.26737 66.8968 4.46948 66.5684 4.70948 66.1389H4.98737L4.33053 67.9326H4.05264C4.11579 67.3894 4.11579 67.1747 3.62316 67.1747H2.82737L2.46106 68.1852C2.06506 69.2368 2.17824 69.2583 3.12112 69.437C3.14076 69.4408 3.16072 69.4446 3.18106 69.4484Z" fill="black"/>
<path fill-rule="evenodd" clip-rule="evenodd" d="M5.68211 54.5684L4.50737 55.4148V55.4274H4.20421L4.89895 54.4169H5.68211V54.5684ZM13.8926 60.4927L15.7747 55.4906L15.7116 55.4148L14.4105 55.5663V55.7179L14.6632 55.9074C14.8788 56.0754 14.8218 56.2314 14.6428 56.7215L14.6126 56.8042L13.1726 60.6442C13.059 60.8716 13.2105 61.1495 13.4758 61.1495C14.0695 61.1495 14.7011 60.6063 14.9916 59.8611H14.8021C14.6 60.139 14.1958 60.4421 13.8926 60.4927ZM22.52 56.64L23.6947 55.5663V55.4148H22.9116L22.2168 56.64H22.52ZM22.5958 59.7095H22.8484C22.3811 60.6063 21.8 61.1495 21.2442 61.1495C20.7642 61.1495 20.4611 60.7958 20.4611 60.1516C20.4611 58.7874 21.5726 57.0821 22.5453 57.0821C23.1011 57.0821 23.5937 57.499 23.1895 58.459L21.1179 59.1411C21.08 59.3179 21.0547 59.52 21.0547 59.7095C21.0547 60.1769 21.2316 60.3916 21.5853 60.3916C21.9263 60.3916 22.28 60.0884 22.5958 59.7095ZM22.5326 58.3453C22.659 57.8653 22.419 57.6506 22.1411 57.6506C21.8505 57.6506 21.4716 58.0927 21.2568 58.6863L22.5326 58.3453ZM18.819 57.6758H18.1368V57.36L18.9832 57.2463L19.6905 56.1727H20.0821L19.7032 57.2463H20.7011L20.5747 57.6758H19.5516L18.5537 60.4674C19.0084 60.3916 19.6147 59.9621 19.8926 59.5706H20.0821C19.7284 60.5053 18.8063 61.1621 18.0358 61.1621C17.7705 61.1621 17.6316 60.9095 17.7326 60.6569L18.819 57.6758ZM17.4295 57.5242C17.5053 57.2463 17.3284 57.0948 17.1768 57.0948C16.5832 57.0948 15.8758 57.6379 15.5853 58.3832H15.7747C15.9642 58.1053 16.2926 57.8021 16.6084 57.7516L15.4716 60.72C15.3705 60.9979 15.5726 61.1495 15.7116 61.1495C16.28 61.1495 16.9368 60.6063 17.2274 59.8611H17.0379C16.8484 60.139 16.52 60.4421 16.2042 60.4927L17.4295 57.5242ZM18.0105 55.8821C18.0105 56.1348 17.7958 56.3495 17.5432 56.3495C17.2905 56.3495 17.0758 56.1348 17.0758 55.8821C17.0758 55.6295 17.2779 55.4148 17.5432 55.4148C17.7958 55.4148 18.0105 55.6295 18.0105 55.8821ZM11.6316 57.8274C11.0632 57.8274 10.04 59.0653 10.04 59.9874C10.04 60.2653 10.1284 60.3916 10.28 60.3916C10.52 60.3916 11.0505 59.8863 11.3916 59.4695L11.9853 57.8779C11.8716 57.84 11.7579 57.8274 11.6316 57.8274ZM13.1726 56.9306L12.8568 56.9053L12.5032 57.259H12.44C10.9368 57.259 9.33264 59.1284 9.33264 60.5937C9.33264 60.9348 9.52211 61.1621 9.88843 61.1621C10.3093 61.1621 10.7188 60.5899 11.1712 59.9571L11.24 59.8611L11.2147 60.1011C11.1516 60.7832 11.3663 61.1621 11.72 61.1621C12.1368 61.1621 12.5158 60.5179 12.8063 59.8737H12.6168C12.4147 60.1642 12.2253 60.3411 12.0737 60.3411C11.9221 60.3411 11.8084 60.0632 12.0737 59.4569L13.1726 56.9306ZM6.80632 61.0232C6.26316 61.2379 5.88421 61.4906 5.88421 61.8821C5.88421 62.2484 6.22527 62.4 6.93264 62.4C7.88 62.4 8.3979 62.1221 8.3979 61.7558C8.3979 61.5916 8.18316 61.5158 7.61474 61.3263C7.24843 61.2127 6.98316 61.1116 6.80632 61.0232ZM7.4379 59.4695C7.18527 59.4695 7.09685 59.2548 7.09685 59.0274C7.09685 58.2948 7.45053 57.3853 8.01895 57.3853C8.27158 57.3853 8.36 57.6 8.36 57.8274C8.34737 58.5727 7.99369 59.4695 7.4379 59.4695ZM7.9179 60.6569C8.61264 60.8716 9.04211 61.0358 9.04211 61.5158C9.04211 62.1348 7.90527 62.8674 6.52843 62.8548C5.73264 62.8548 5.05053 62.64 5.05053 62.1221C5.05053 61.6295 5.50527 61.2253 6.61685 60.8969C6.46527 60.7958 6.40211 60.6695 6.40211 60.4927C6.40211 60.1895 6.68 59.9495 7.16 59.7221C6.69264 59.659 6.38948 59.3053 6.38948 58.7874C6.38948 57.9916 7.04632 57.0821 8.08211 57.0821C8.29685 57.0821 8.48632 57.1327 8.6379 57.2337H9.77474L9.64843 57.6632H8.97895C9.01685 57.7769 9.04211 57.9032 9.04211 58.0421C9.04211 58.8127 8.42316 59.6969 7.4379 59.7474C7.18527 59.8863 7.05895 60.0758 7.05895 60.2274C7.05895 60.4055 7.2656 60.4661 7.72224 60.5994C7.78293 60.6171 7.84824 60.636 7.9179 60.6569ZM3.91369 58.4969C4.40632 58.4969 4.41895 58.7116 4.34316 59.2548H4.62106L5.2779 57.4611H5C4.76 57.8906 4.5579 58.219 4.02737 58.219H2.94106L3.47158 56.7411C3.66106 56.2105 3.74948 56.1095 4.43158 56.1095H4.91158C5.60632 56.1095 5.68211 56.299 5.68211 57.0316H5.96L6.18737 55.8063H2.06948L1.99369 56.0337C2.78948 56.1979 2.86527 56.2737 2.49895 57.2969L1.6779 59.5074C1.29895 60.5306 1.14737 60.6063 0.225268 60.7706L0.162109 61.0106H4.73474L5.55579 59.7095H5.24001C4.70948 60.2274 4.17895 60.7074 3.14316 60.7074C2.00386 60.7074 2.02419 60.6518 2.366 59.7127C2.38798 59.652 2.41135 59.5882 2.43579 59.52L2.81474 58.5095H3.91369V58.4969Z" fill="black"/>
<path fill-rule="evenodd" clip-rule="evenodd" d="M7.69053 47.6716C7.94316 47.6716 8.1579 47.4568 8.1579 47.2042C8.1579 46.9516 7.94316 46.7368 7.69053 46.7368C7.42527 46.7368 7.22316 46.9516 7.22316 47.2042C7.22316 47.4694 7.42527 47.6716 7.69053 47.6716ZM8.78948 52.4716C9.77474 52.4842 11.4295 50.6652 11.4295 49.2631C11.4295 48.6568 11.2779 48.4294 10.8484 48.4294C10.3179 48.4294 9.82527 48.9979 9.33264 49.68L10.3937 46.8379L10.3305 46.7494L9.02948 46.901V47.0526L9.28211 47.2421C9.50209 47.4132 9.4383 47.5843 9.25091 48.087L9.23158 48.1389L8.08211 51.1452C7.98106 51.3979 7.86737 51.701 7.86737 51.7768C7.86737 52.1305 8.34737 52.4716 8.78948 52.4716ZM22.3811 47.9747L23.5558 46.901V46.7494H22.7726L22.0779 47.9747H22.3811ZM22.4568 51.0442H22.7095C22.2295 51.941 21.6484 52.4842 21.0926 52.4716C20.6126 52.4716 20.3095 52.1305 20.3095 51.4863C20.3095 50.1221 21.4211 48.4168 22.3937 48.4168C22.9495 48.4168 23.4421 48.8337 23.0379 49.7937L20.979 50.4758C20.9411 50.6526 20.9158 50.8547 20.9158 51.0442C20.9158 51.5116 21.0926 51.7263 21.4463 51.7263C21.7874 51.7263 22.1411 51.4231 22.4568 51.0442ZM22.3937 49.68C22.52 49.2 22.28 48.9852 22.0021 48.9852C21.699 48.9852 21.32 49.4273 21.1179 50.021L22.3937 49.68ZM18.6674 49.0105H17.9853V48.6947L18.8316 48.581L19.5389 47.5073H19.9305L19.5516 48.581H20.5495L20.4232 49.0105H19.4L18.4021 51.8021C18.8568 51.7263 19.4632 51.2968 19.7411 50.9052H19.9305C19.5768 51.84 18.6547 52.4968 17.8842 52.4968C17.619 52.4968 17.48 52.2442 17.5811 51.9916L18.6674 49.0105ZM17.6316 49.3389C17.7705 48.8589 17.6947 48.4294 17.3284 48.4294C16.8716 48.4294 16.7286 48.7312 16.2858 49.6649L16.2547 49.7305V49.1747C16.2547 48.7831 16.1284 48.4294 15.7747 48.4294C15.3579 48.4294 14.979 49.0737 14.6884 49.7179H14.8779C15.08 49.4273 15.2695 49.2505 15.4084 49.2505C15.5853 49.2505 15.6863 49.5284 15.4084 50.1347L14.6 51.9284C14.4484 52.2694 14.6126 52.4842 14.9411 52.4842C15.1432 52.4842 15.2316 52.4337 15.32 52.2189L16.1158 50.1221C16.3432 49.8442 16.5453 49.6042 16.7979 49.3389H17.6316ZM13.6274 49.68C13.7537 49.2 13.5137 48.9852 13.2358 48.9852C12.9326 48.9852 12.5663 49.4273 12.3516 50.021L13.6274 49.68ZM13.9432 51.0442H13.6905C13.3747 51.4231 13.0211 51.7263 12.68 51.7263C12.3263 51.7263 12.1495 51.5116 12.1495 51.0442C12.1495 50.8547 12.1747 50.6526 12.2126 50.4758L14.2716 49.7937C14.6758 48.8337 14.1958 48.4168 13.6274 48.4168C12.6547 48.4168 11.5432 50.1221 11.5432 51.4863C11.5432 52.1305 11.8463 52.4716 12.3263 52.4716C12.8821 52.4842 13.4632 51.941 13.9432 51.0442ZM8.6379 51.5242C8.6379 51.6884 8.92842 51.8779 9.13053 51.8779C9.95158 51.8779 10.7221 50.4 10.7095 49.5789C10.7095 49.301 10.5705 49.1873 10.3811 49.1873C10.0779 49.1873 9.52211 49.6421 9.16842 50.0716L8.84 50.9558C8.72632 51.2463 8.6379 51.4737 8.6379 51.5242ZM7.31158 48.4294C7.46316 48.4294 7.64 48.581 7.56421 48.8589L6.35158 51.8273C6.66737 51.7768 6.99579 51.4737 7.18527 51.1958H7.37474C7.08421 51.941 6.42737 52.4842 5.85895 52.4842C5.70737 52.4842 5.50527 52.3326 5.60632 52.0547L6.74316 49.0863C6.42737 49.1368 6.09895 49.44 5.90948 49.7179H5.72C6.01053 48.9726 6.7179 48.4294 7.31158 48.4294ZM2.06948 47.1158H4.78527L4.70948 47.3558C3.78737 47.52 3.63579 47.5958 3.25685 48.6189L2.44843 50.8421C2.05685 51.9031 2.1579 52.0294 2.85264 52.0294C3.71095 52.0294 4.27381 51.4054 4.76525 50.861C4.80175 50.8206 4.83788 50.7802 4.87369 50.741H5.18948L4.29264 52.3326H0.162109L0.237899 52.1052C1.14737 51.941 1.29895 51.8652 1.6779 50.8421L2.49895 48.6063C2.86527 47.5831 2.78948 47.5073 1.99369 47.3431L2.06948 47.1158Z" fill="black"/>
</g>
<defs>
<clipPath id="clip0_2676_107891">
<rect width="72" height="70.1053" fill="white" transform="translate(0.0507812)"/>
</clipPath>
</defs>
</svg>
