<svg xmlns="http://www.w3.org/2000/svg" width="32" height="33" fill="none"><rect width="32" height="32" y=".105" fill="#15CACD" rx="16"/><path fill="#fff" fill-rule="evenodd" d="M10 10.105a2 2 0 0 0-2 2v8a2 2 0 0 0 2 2h12a2 2 0 0 0 2-2v-8a2 2 0 0 0-2-2H10Zm5.5 8.25c0-.375-.75-1.5-1.5-1.5-.337 0-.447.076-.568.16-.148.102-.313.215-.932.215-.62 0-.784-.113-.932-.215-.121-.084-.23-.16-.568-.16-.75 0-1.5 1.125-1.5 1.5s0 .75.375.75h5.25c.309 0 .363-.254.373-.553l.002-.197ZM14 14.793c0-.932-.672-1.688-1.5-1.688s-1.5.756-1.5 1.688c0 .932.672 1.688 1.5 1.688s1.5-.756 1.5-1.688Zm8 1.813a.5.5 0 0 0-.5-.5h-4a.5.5 0 1 0 0 1h4a.5.5 0 0 0 .5-.5Zm0 2a.5.5 0 0 0-.5-.5h-4a.5.5 0 1 0 0 1h4a.5.5 0 0 0 .5-.5Zm0-4a.5.5 0 0 0-.5-.5h-4a.5.5 0 1 0 0 1h4a.5.5 0 0 0 .5-.5Z" clip-rule="evenodd"/></svg>