<svg xmlns="http://www.w3.org/2000/svg" width="32" height="33" fill="none"><rect width="32" height="32" y=".105" fill="#F1B61E" rx="16"/><path fill="#fff" fill-rule="evenodd" d="M15 9.105h9v2h-9v-2Zm0 6h9v2h-9v-2Zm0 6h9v2h-9v-2Zm-5.175-9.284-1.165-.995a.919.919 0 0 1-.017-1.408 1.23 1.23 0 0 1 1.587-.014l.372.307 1.483-1.314a1.223 1.223 0 0 1 1.586 0 .915.915 0 0 1 0 1.405l-2.268 2.011a1.19 1.19 0 0 1-.793.292 1.2 1.2 0 0 1-.785-.284ZM9 20.105h4v4H9v-4Zm1 1v2h2v-2h-2Zm-1-7h4v4H9v-4Zm1 1v2h2v-2h-2Z" clip-rule="evenodd"/></svg>