<svg xmlns="http://www.w3.org/2000/svg" width="32" height="33" fill="none"><rect width="32" height="32" y=".105" fill="#F05759" rx="16"/><path fill="#fff" fill-rule="evenodd" d="M22.25 15.184c.051.259.077.567.077.925 0 .358-.026.666-.078.926l1.62 1.333c.131.086.163.203.099.352-.325.95-.859 1.826-1.602 2.627-.104.124-.229.155-.37.094l-2.032-.668c-.52.396-1.08.705-1.68.927l-.409 1.999c-.026.147-.117.234-.273.259-.56.1-1.094.148-1.602.148a9.212 9.212 0 0 1-1.601-.148c-.156-.024-.248-.111-.274-.26l-.409-1.998a5.982 5.982 0 0 1-1.68-.927l-2.03.668c-.145.062-.268.03-.372-.094-.742-.801-1.275-1.677-1.602-2.627-.065-.148-.032-.266.098-.352l1.621-1.333a4.762 4.762 0 0 1-.078-.926c0-.358.026-.666.078-.925l-1.62-1.332c-.13-.086-.164-.204-.099-.352.326-.95.86-1.826 1.602-2.628.104-.123.228-.154.371-.093l2.031.667a5.99 5.99 0 0 1 1.68-.925l.41-2c.025-.147.117-.233.273-.258a8.221 8.221 0 0 1 3.202 0c.156.024.247.11.273.259l.41 1.998c.6.223 1.159.531 1.68.926l2.03-.667c.143-.062.267-.03.372.093.741.803 1.275 1.678 1.601 2.628.064.148.032.266-.098.352l-1.62 1.332ZM16 12.605a3.5 3.5 0 1 0 0 7 3.5 3.5 0 0 0 0-7Z" clip-rule="evenodd"/></svg>