<svg xmlns="http://www.w3.org/2000/svg" width="32" height="33" fill="none"><rect width="32" height="32" y=".105" fill="#21B930" rx="16"/><path fill="#fff" fill-rule="evenodd" d="M22.809 18.23a1 1 0 0 1 .455 1.34c-1.351 2.738-4.17 4.535-7.264 4.535-2.365 0-4.544-1.082-6.044-2.78a.986.986 0 0 1-.956.78 1 1 0 0 1-1-1v-4c0-.063.016-.119.026-.178.006-.027.005-.054.012-.08a.968.968 0 0 1 .148-.32l.025-.027a.983.983 0 0 1 .299-.258.993.993 0 0 1 .769-.09.953.953 0 0 1 .247.115c.027.017.054.03.08.048.011.01.024.013.035.022l3 2.5a1 1 0 0 1 .127 1.408.986.986 0 0 1-.719.352c1.079.936 2.472 1.508 3.951 1.508 2.323 0 4.453-1.357 5.47-3.42a1 1 0 0 1 1.339-.455Zm1.16-2.912c-.004.02-.003.04-.008.06a.963.963 0 0 1-.156.315c-.012.017-.026.028-.039.043a.956.956 0 0 1-.214.193c-.025.017-.048.034-.075.048a1.034 1.034 0 0 1-.332.116c-.003 0-.006.002-.008.003-.009.001-.017-.003-.026-.002a.985.985 0 0 1-.66-.165c-.023-.015-.047-.025-.068-.042-.007-.006-.016-.007-.023-.014l-3-2.5a1 1 0 0 1-.128-1.408.983.983 0 0 1 .802-.343A6.124 6.124 0 0 0 16 10.105c-2.366 0-4.508 1.365-5.5 3.444a1.001 1.001 0 0 1-1.805-.86C10.017 9.916 12.86 8.104 16 8.104a8.117 8.117 0 0 1 6.058 2.714.987.987 0 0 1 .942-.714 1 1 0 0 1 1 1v4c0 .076-.016.144-.03.213Z" clip-rule="evenodd"/></svg>