<svg xmlns="http://www.w3.org/2000/svg" width="32" height="33" fill="none"><rect width="32" height="32" y=".105" fill="#8978FF" rx="16"/><path fill="#fff" fill-rule="evenodd" d="M23 10.105a1 1 0 0 1 1 1v10a1 1 0 1 1-2 0v-10a1 1 0 0 1 1-1Zm-8.949 5.217a1 1 0 0 1-.642 1.26l-.79.257.488.672a1 1 0 0 1-1.619 1.176L11 18.015l-.489.672a.998.998 0 0 1-1.397.221 1.001 1.001 0 0 1-.22-1.397l.488-.672-.79-.257a1 1 0 0 1 .617-1.902l.791.257v-.832a1 1 0 1 1 2 0v.832l.791-.257a1 1 0 0 1 1.26.642Zm7.1 0a1 1 0 0 1-.642 1.26l-.79.257.488.672a1 1 0 0 1-1.619 1.176l-.488-.672-.489.672a.998.998 0 0 1-1.397.221 1.001 1.001 0 0 1-.22-1.397l.488-.672-.79-.257a1 1 0 0 1 .617-1.902l.791.257v-.832a1 1 0 1 1 2 0v.832l.791-.257a1 1 0 0 1 1.26.642Z" clip-rule="evenodd"/></svg>