<svg xmlns="http://www.w3.org/2000/svg" width="32" height="33" fill="none"><rect width="32" height="32" y=".105" fill="#21B930" rx="16"/><path fill="#fff" fill-rule="evenodd" d="M22.684 11.01C21.518 9.336 20 8.104 17.316 8.104c-3.124 0-5.368 2.134-6.248 5.104H9v1.87h1.716c-.044.33-.044.682-.044 1.012 0 .287 0 .572.022.836H9v1.893h2.002c.858 3.123 3.146 5.213 6.402 5.213 2.508 0 4.07-1.276 5.324-3.102l-1.936-1.43c-1.012 1.342-1.892 2.112-3.366 2.112-1.716 0-2.97-1.055-3.586-2.793h4.752v-1.893h-5.17c-.022-.285-.022-.572-.022-.88 0-.33 0-.66.044-.968h5.148v-1.87h-4.73c.616-1.65 1.826-2.684 3.388-2.684 1.54 0 2.442.704 3.388 2.002l2.046-1.518Z" clip-rule="evenodd"/></svg>