<svg width="131" height="35" viewBox="0 0 131 35" fill="none" xmlns="http://www.w3.org/2000/svg">
<g clip-path="url(#clip0_2849_3526)">
<path d="M4.29678 2.59084C4.15349 1.44454 3.62128 0.809987 2.76156 0.809987C1.61526 0.809987 0.919293 1.99722 0.919293 3.92137C0.919293 5.80457 1.57432 6.86899 2.74109 6.86899C3.60081 6.86899 4.15349 6.2549 4.35819 5.06766L5.11556 5.21095C4.82899 6.70523 4.0102 7.48308 2.72062 7.48308C1.04211 7.46261 0.0595703 6.15255 0.0595703 3.96231C0.0595703 1.69018 1.10352 0.195899 2.72062 0.195899C3.47799 0.195899 4.15349 0.564352 4.56288 1.1375C4.82899 1.50595 4.9518 1.91535 5.03368 2.52943L4.29678 2.59084ZM6.63031 4.6378C6.63031 6.07067 7.14205 6.88946 8.02224 6.88946C8.92291 6.88946 9.41418 6.07067 9.41418 4.6378C9.41418 3.20493 8.90244 2.40662 8.02224 2.40662C7.12158 2.40662 6.63031 3.20493 6.63031 4.6378ZM8.00177 1.813C9.31183 1.813 10.1511 2.91836 10.1511 4.6378C10.1511 6.37772 9.3323 7.48308 8.02224 7.48308C6.71219 7.48308 5.87294 6.39819 5.87294 4.6378C5.87294 2.89789 6.71219 1.813 8.00177 1.813ZM11.3178 1.95628H12.0343V2.69319C12.5051 2.0791 13.0168 1.79253 13.6104 1.79253C14.3064 1.79253 14.7977 2.16098 14.9614 2.77507C15.3708 2.12004 15.9235 1.79253 16.5581 1.79253C17.0493 1.79253 17.4997 1.99722 17.7453 2.32474C17.95 2.61131 18.0523 2.97976 18.0523 3.61432V7.31932H17.3154V3.6962C17.3154 3.45057 17.3154 3.28681 17.295 3.16399C17.2336 2.69319 16.8446 2.40662 16.3738 2.40662C15.8212 2.40662 15.3708 2.77507 15.0843 3.4301V7.33979H14.3473V3.73714C14.3473 3.4915 14.3473 3.30728 14.3269 3.18446C14.2655 2.71366 13.897 2.40662 13.4262 2.40662C12.894 2.40662 12.4232 2.77507 12.0548 3.40963V7.33979H11.3178V1.95628ZM19.4852 1.95628H20.2017V2.69319C20.6725 2.0791 21.1842 1.79253 21.7778 1.79253C22.4738 1.79253 22.965 2.16098 23.1288 2.77507C23.5382 2.12004 24.0909 1.79253 24.7254 1.79253C25.2167 1.79253 25.667 1.99722 25.9127 2.32474C26.1174 2.61131 26.2197 2.97976 26.2197 3.61432V7.31932H25.4828V3.6962C25.4828 3.45057 25.4828 3.28681 25.4623 3.16399C25.4009 2.69319 25.012 2.40662 24.5412 2.40662C23.9885 2.40662 23.5382 2.77507 23.2516 3.4301V7.33979H22.5147V3.73714C22.5147 3.4915 22.5147 3.30728 22.4942 3.18446C22.4328 2.71366 22.0644 2.40662 21.5936 2.40662C21.0614 2.40662 20.5906 2.77507 20.2221 3.40963V7.33979H19.4852V1.95628ZM30.5388 6.74617C30.1294 7.23744 29.6791 7.46261 29.1264 7.46261C28.6761 7.46261 28.2462 7.27838 28.0006 6.99181C27.7345 6.68476 27.6526 6.33678 27.6526 5.62034V1.95628H28.369V5.55893C28.369 5.7841 28.3895 5.9888 28.41 6.13208C28.4714 6.56194 28.8194 6.84852 29.2902 6.84852C29.8019 6.84852 30.2522 6.52101 30.7026 5.84551V1.95628H31.4395V7.33979H30.7026V6.54148C30.6411 6.64382 30.6002 6.68476 30.5388 6.74617ZM32.8928 1.95628H33.6092V2.71366C34.08 2.09957 34.5918 1.79253 35.1854 1.79253C35.6562 1.79253 36.0861 1.99722 36.3317 2.32474C36.5569 2.63178 36.6592 2.9593 36.6592 3.63479V7.31932H35.9223V3.73714C35.9223 3.4915 35.9018 3.32775 35.9018 3.18446C35.8404 2.69319 35.4924 2.40662 34.9807 2.40662C34.469 2.40662 33.9982 2.73413 33.6092 3.40963V7.31932H32.8723V1.95628H32.8928ZM40.8145 4.45358C40.5689 4.57639 40.4666 4.59686 40.139 4.69921C39.9343 4.76062 39.7706 4.80156 39.6682 4.8425C39.484 4.90391 39.2998 4.96532 39.136 5.02672C38.9723 5.08813 38.829 5.19048 38.7266 5.29283C38.5629 5.47706 38.4605 5.72269 38.4605 5.9888C38.4605 6.52101 38.8085 6.88946 39.3407 6.88946C39.6682 6.88946 39.9753 6.74617 40.2823 6.50054C40.5689 6.2549 40.7941 5.94786 40.7941 5.7841V4.45358H40.8145ZM40.8145 3.36869C40.8145 2.7546 40.4666 2.44756 39.8525 2.44756C39.2998 2.44756 38.8904 2.7546 38.6038 3.38916L37.9897 3.06164C38.3991 2.26333 39.0337 1.83347 39.8729 1.83347C40.3642 1.83347 40.7941 1.97675 41.1011 2.24286C41.4082 2.50896 41.531 2.83648 41.531 3.4301V6.15255C41.531 6.52101 41.531 6.7257 41.5514 6.88946C41.5514 7.03275 41.5719 7.11462 41.6129 7.33979H40.9169L40.835 6.56194C40.3437 7.1965 39.8525 7.48308 39.2179 7.48308C38.3377 7.48308 37.7441 6.90993 37.7441 6.02974C37.7441 5.17001 38.2763 4.65827 39.4226 4.35123L40.0162 4.18747C40.3028 4.10559 40.487 4.02371 40.8145 3.88043V3.36869ZM45.8501 6.74617C45.4407 7.23744 44.9903 7.46261 44.4377 7.46261C43.9873 7.46261 43.5575 7.27838 43.3118 6.99181C43.0457 6.68476 42.9638 6.33678 42.9638 5.62034V1.95628H43.6803V5.55893C43.6803 5.7841 43.7008 5.9888 43.7212 6.13208C43.7826 6.56194 44.1306 6.84852 44.6014 6.84852C45.1132 6.84852 45.5635 6.52101 46.0138 5.84551V1.95628H46.7507V7.33979H46.0138V6.54148C45.9524 6.64382 45.9115 6.68476 45.8501 6.74617ZM47.3648 1.95628H48.2655V0.605291H48.9819V1.93582H50.3534V2.50896H48.9819V6.27537C49.0024 6.62335 49.2275 6.80758 49.596 6.80758C49.8007 6.80758 50.0463 6.76664 50.3329 6.62335V7.23744C49.9235 7.38073 49.6779 7.42167 49.4118 7.42167C49.0024 7.42167 48.6749 7.29885 48.4702 7.07368C48.2655 6.82805 48.2245 6.62335 48.2245 5.86598V2.52943H47.3443V1.95628H47.3648ZM53.0349 0.0526123H53.7513L52.9939 1.50595H52.2775L53.0349 0.0526123ZM51.5201 4.18747H54.0788V4.08512C54.0788 3.06164 53.608 2.40662 52.8711 2.40662C52.0933 2.38615 51.602 3.06164 51.5201 4.18747ZM51.4997 4.71968V4.8425C51.4997 6.13208 52.0319 6.86899 52.9121 6.86899C53.5057 6.86899 53.9151 6.56194 54.2426 5.82504L54.8567 6.13208C54.4678 7.03275 53.8127 7.48308 52.9121 7.48308C51.5611 7.48308 50.7628 6.4596 50.7628 4.74015C50.7628 2.93883 51.5815 1.813 52.8916 1.813C54.1198 1.813 54.8567 2.83648 54.8567 4.55592V4.74015H51.4997V4.71968ZM3.51893 13.6854C3.21189 13.1941 2.72062 12.8871 2.22935 12.8871C1.34915 12.8871 0.837415 13.7058 0.837415 15.1592C0.837415 16.633 1.34915 17.4313 2.27029 17.4313C2.76156 17.4313 3.25283 17.1243 3.49846 16.6739V13.6854H3.51893ZM3.51893 10.3898H4.25584V17.2266C4.25584 17.2471 4.25584 17.2675 4.27631 17.3085C4.27631 17.4722 4.29678 17.6155 4.35819 17.9226H3.64175L3.55987 17.3085C3.19142 17.8202 2.74109 18.0454 2.14747 18.0454C0.837415 18.0659 0.0595703 16.981 0.0595703 15.2001C0.0595703 13.4397 0.878354 12.273 2.10653 12.273C2.63874 12.273 3.04813 12.4777 3.51893 12.9689V10.3898ZM5.66824 11.9045H5.42261V10.7582H6.28233V11.884L5.6273 13.4397H5.3612" fill="#335C9E"/>
<path d="M9.39297 15.0568H10.5802L10.2118 13.6035C10.0275 12.8461 10.0071 12.7028 9.98659 12.1092C9.96612 12.7028 9.94565 12.8051 9.76143 13.6035L9.39297 15.0568ZM8.92217 10.7582H11.1124L13.5483 17.9225H11.4604L11.0305 16.6125H8.98358L8.57419 17.9225H6.46582L8.92217 10.7582Z" fill="#335C9E"/>
<path d="M15.3498 14.3403C15.3702 14.7292 15.6363 14.9954 16.0048 14.9954C16.3937 14.9954 16.6598 14.7088 16.6598 14.2584C16.6598 13.8286 16.3937 13.542 16.0253 13.542C15.6363 13.542 15.3702 13.8286 15.3702 14.2994V14.3403H15.3498ZM14.7971 17.9634C14.6947 18.0863 14.6538 18.1886 14.6538 18.291C14.6538 18.4957 14.7766 18.5775 15.1451 18.6389C15.4931 18.7003 15.841 18.7208 16.1276 18.7208C16.2504 18.7208 16.3732 18.7208 16.4756 18.7003L16.8441 18.6594C17.0692 18.6389 17.192 18.5775 17.192 18.4547C17.192 18.2705 17.0283 18.1886 16.5779 18.1681C15.8615 18.1681 15.4726 18.1272 15.1655 18.0658C15.0427 18.0453 14.9608 18.0249 14.7971 17.9634ZM13.6713 16.8786C13.6713 16.4487 13.9988 16.1416 14.6538 15.9574C13.9988 15.6299 13.6303 15.0363 13.6303 14.3199C13.6303 13.1326 14.6333 12.2729 16.0253 12.2729C16.5575 12.2729 16.9873 12.3752 17.3763 12.6004C17.6628 12.2115 18.0108 12.0477 18.584 12.0477H18.7273V13.1531C18.6249 13.1326 18.543 13.1121 18.4407 13.1121C18.2565 13.1121 18.1541 13.1326 18.0313 13.194C18.2974 13.542 18.3793 13.8695 18.3793 14.2584C18.3793 15.4252 17.3967 16.244 16.0048 16.244C15.7796 16.244 15.6568 16.2235 15.3498 16.1826C15.2474 16.2645 15.2065 16.3054 15.2065 16.3668C15.2065 16.5715 15.4931 16.6534 16.189 16.6739L16.7212 16.6943C16.9464 16.6943 17.1716 16.7148 17.3558 16.7353C18.2565 16.8376 18.8091 17.3903 18.8091 18.1272C18.8091 19.1302 17.6833 19.8262 16.0253 19.8262C14.4082 19.8262 13.3438 19.3144 13.3438 18.5775C13.3438 18.1272 13.6713 17.7792 14.2239 17.6359C13.8555 17.4926 13.6713 17.2265 13.6713 16.8786Z" fill="#335C9E"/>
<path d="M20.713 14.3403C20.7335 14.7292 20.9996 14.9954 21.368 14.9954C21.757 14.9954 22.0231 14.7088 22.0231 14.2584C22.0231 13.8286 21.757 13.542 21.3885 13.542C20.9996 13.542 20.7335 13.8286 20.7335 14.2994V14.3403H20.713ZM20.1603 17.9634C20.058 18.0863 20.017 18.1886 20.017 18.291C20.017 18.4957 20.1399 18.5775 20.5083 18.6389C20.8563 18.7003 21.2043 18.7208 21.4909 18.7208C21.6137 18.7208 21.7365 18.7208 21.8184 18.7003L22.1868 18.6594C22.412 18.6389 22.5348 18.5775 22.5348 18.4547C22.5348 18.2705 22.3711 18.1886 21.9207 18.1681C21.2043 18.1681 20.8154 18.1272 20.5083 18.0658C20.406 18.0453 20.3241 18.0249 20.1603 17.9634ZM19.014 16.8786C19.014 16.4487 19.3416 16.1416 19.9966 15.9574C19.3416 15.6299 18.9731 15.0363 18.9731 14.3199C18.9731 13.1326 19.9761 12.2729 21.368 12.2729C21.9002 12.2729 22.3301 12.3752 22.719 12.6004C23.0056 12.2115 23.3536 12.0477 23.9267 12.0477H24.07V13.1531C23.9677 13.1326 23.8858 13.1121 23.7835 13.1121C23.5992 13.1121 23.4969 13.1326 23.3741 13.194C23.6402 13.542 23.722 13.8695 23.722 14.2584C23.722 15.4252 22.7395 16.244 21.3476 16.244C21.1224 16.244 20.9996 16.2235 20.6925 16.1826C20.5902 16.2645 20.5493 16.3054 20.5493 16.3668C20.5493 16.5715 20.8358 16.6534 21.5318 16.6739L22.064 16.6943C22.2892 16.6943 22.5143 16.7148 22.6986 16.7353C23.5992 16.8376 24.1519 17.3903 24.1519 18.1272C24.1519 19.1302 23.0261 19.8262 21.368 19.8262C19.7509 19.8262 18.6865 19.3144 18.6865 18.5775C18.6865 18.1272 19.014 17.7792 19.5667 17.6359C19.2187 17.4926 19.014 17.2265 19.014 16.8786Z" fill="#335C9E"/>
<path d="M24.4382 10.2056H26.3009V17.9226H24.4382V10.2056ZM28.7573 15.1592C28.7573 16.2236 28.9824 16.674 29.4532 16.674C29.9445 16.674 30.1697 16.2236 30.1697 15.1592C30.1697 14.0948 29.9445 13.6649 29.4532 13.6649C28.9824 13.6649 28.7573 14.0948 28.7573 15.1592ZM29.4737 12.2525C31.1113 12.2525 32.1757 13.3988 32.1757 15.1592C32.1757 16.9401 31.1113 18.0659 29.4737 18.0659C27.8771 18.0659 26.8741 16.9401 26.8741 15.1592C26.8741 13.3784 27.8771 12.2525 29.4737 12.2525ZM32.7488 12.4163H34.6116V12.928C35.2052 12.4572 35.676 12.2525 36.2491 12.2525C36.8837 12.2525 37.2931 12.4982 37.5183 12.9894C38.1733 12.4777 38.6646 12.2525 39.2172 12.2525C39.729 12.2525 40.1793 12.4777 40.4249 12.8462C40.6501 13.1532 40.6706 13.2965 40.6706 14.0743V17.9431H38.8078V14.1357C38.7874 13.8696 38.5622 13.6854 38.2961 13.6854C37.9891 13.6854 37.7434 13.8901 37.6411 14.2176V17.9431H35.7783V14.2995C35.7783 13.8696 35.6351 13.6649 35.3075 13.6649C35.021 13.6649 34.7549 13.8492 34.632 14.1971V17.9226H32.7488V12.4163ZM43.086 14.5656H44.6212C44.6007 13.931 44.3346 13.5626 43.8843 13.5626C43.4135 13.5831 43.1269 13.9515 43.086 14.5656ZM43.3112 10.2465H45.0715L44.6212 11.9864H42.8813L43.3112 10.2465ZM43.0655 15.4867C43.0655 16.2236 43.3726 16.6535 43.8434 16.6535C44.0685 16.6535 44.2732 16.5716 44.396 16.3874C44.4984 16.2646 44.6007 16.1008 44.7236 15.8552L46.3407 16.3874C45.9517 17.4928 45.0715 18.0659 43.8229 18.0659C42.2263 18.0659 41.2642 16.981 41.2642 15.1797C41.2642 13.4193 42.2877 12.2525 43.8843 12.2525C45.5219 12.2525 46.3611 13.3374 46.4021 15.4663H43.0655V15.4867ZM46.9138 12.4163H48.7765V13.1737C49.2064 12.5596 49.7591 12.273 50.4346 12.273H50.7007V13.9924C50.5574 13.972 50.496 13.972 50.3936 13.972C49.493 13.972 48.7561 14.4428 48.7561 15.0159V17.9226H46.8933V12.4163H46.9138ZM53.9144 15.4458C53.6688 15.5891 53.5869 15.63 53.1775 15.7733C52.6044 15.978 52.4406 16.1213 52.4406 16.4283C52.4406 16.6944 52.6248 16.8582 52.9319 16.8582C53.1775 16.8582 53.4436 16.7558 53.6278 16.5716C53.8121 16.3874 53.9144 16.1622 53.9144 15.9575V15.4458ZM53.9144 14.1153C53.9144 13.8082 53.6892 13.6035 53.3413 13.6035C52.9728 13.6035 52.7067 13.7878 52.5429 14.2176L50.9258 13.7263C51.4171 12.7233 52.195 12.2525 53.4231 12.2525C54.9379 12.2525 55.7362 12.9076 55.7362 14.1971V17.1243C55.7362 17.5746 55.7362 17.6565 55.7771 17.9226H54.0986L54.0168 17.3495C53.8735 17.4928 53.7916 17.5542 53.6892 17.6565C53.3003 17.9226 52.8295 18.0659 52.3587 18.0659C51.3557 18.0659 50.6597 17.4109 50.6597 16.4693C50.6597 15.5891 51.2329 15.0569 52.4815 14.7294L53.0342 14.5861C53.3822 14.5042 53.6074 14.4428 53.9553 14.2995L53.9144 14.1153ZM56.0023 12.4163H56.6573V10.9834H58.5201V12.4163H59.7482V13.6445H58.5201V15.7733C58.5201 15.9371 58.5201 16.0394 58.5405 16.1008C58.5815 16.4283 58.8271 16.5921 59.216 16.5921C59.4003 16.5921 59.5435 16.5716 59.7482 16.5307V17.9226L59.7073 17.9431L59.5845 17.9636C59.2365 18.025 59.0113 18.0454 58.7452 18.0454C58.0493 18.0454 57.5171 17.8612 57.1486 17.4928C56.8006 17.1448 56.6983 16.7558 56.6983 15.9371V13.6445H56.0432V12.4163H56.0023ZM60.1372 10.2056H61.9999V11.8841H60.1372V10.2056ZM60.1167 12.4163H61.9999V17.9226H60.1167V12.4163ZM64.4562 15.1592C64.4562 16.2236 64.6814 16.674 65.1522 16.674C65.6435 16.674 65.8686 16.2236 65.8686 15.1592C65.8686 14.0948 65.6435 13.6649 65.1522 13.6649C64.6814 13.6649 64.4562 14.0948 64.4562 15.1592ZM65.1727 12.2525C66.8102 12.2525 67.8747 13.3988 67.8747 15.1592C67.8747 16.9401 66.8102 18.0659 65.1727 18.0659C63.5761 18.0659 62.573 16.9401 62.573 15.1592C62.573 13.3784 63.5965 12.2525 65.1727 12.2525ZM68.4478 12.4163H70.3106V12.928L70.5152 12.7847C70.6995 12.6619 70.7813 12.6005 70.8632 12.5391C71.1498 12.3754 71.5387 12.273 71.8867 12.273C72.3575 12.273 72.7464 12.4368 73.033 12.7643C73.2786 13.0713 73.34 13.2965 73.34 13.9924V17.9431H71.4773V14.4633V14.1357C71.4568 13.8492 71.2522 13.6854 70.986 13.6854C70.6995 13.6854 70.4334 13.8696 70.2901 14.1767V17.9431H68.4273V12.4163H68.4478ZM80.5044 13.6854C80.1974 13.1941 79.7061 12.8871 79.2148 12.8871C78.3346 12.8871 77.8229 13.7059 77.8229 15.1592C77.8229 16.633 78.3346 17.4313 79.2558 17.4313C79.747 17.4313 80.2383 17.1243 80.4839 16.674V13.6854H80.5044ZM80.5044 10.3898H81.2413V17.2266C81.2413 17.2471 81.2413 17.2676 81.2618 17.3085C81.2618 17.4723 81.2822 17.6156 81.3437 17.9226H80.6272L80.5453 17.3085C80.1769 17.8203 79.7266 18.0454 79.1329 18.0454C77.8434 18.0454 77.0655 16.981 77.0655 15.1797C77.0655 13.4193 77.8638 12.2525 79.1125 12.2525C79.6447 12.2525 80.0541 12.4572 80.5249 12.9485V10.3898H80.5044ZM83.2064 14.6884H85.8265V14.5861C85.8265 13.5421 85.3352 12.8666 84.5983 12.8666C83.8 12.8666 83.2883 13.5421 83.2064 14.6884ZM83.1859 15.2411L83.1655 15.3639C83.1655 16.674 83.6977 17.4518 84.6188 17.4518C85.2329 17.4518 85.6423 17.1243 85.9698 16.3874L86.6043 16.6944C86.195 17.6156 85.5399 18.0659 84.6188 18.0659C83.2269 18.0659 82.4286 17.022 82.4286 15.2616C82.4286 13.4193 83.2678 12.273 84.5983 12.273C85.8674 12.273 86.6043 13.317 86.6043 15.0773V15.2616H83.1859V15.2411ZM0.222656 22.0779V33.807H8.39002V31.2279H3.47732V22.0779M13.8759 29.7336C13.4665 29.9587 13.3232 30.0406 12.6682 30.2658C11.747 30.5933 11.4605 30.8594 11.4605 31.3507C11.4605 31.7805 11.747 32.0466 12.2588 32.0466C12.6682 32.0466 13.098 31.8624 13.4051 31.5758C13.6916 31.2893 13.8759 30.9003 13.8759 30.5728V29.7336ZM13.8554 27.5843C13.8554 27.0725 13.5074 26.745 12.9343 26.745C12.3202 26.745 11.9108 27.0521 11.6242 27.748L8.98364 26.9292C9.78196 25.2712 11.0511 24.5138 13.0571 24.5138C15.5544 24.5138 16.8644 25.5987 16.8644 27.6866V32.4765C16.8644 33.2339 16.8644 33.3362 16.9258 33.7866H14.1624L14.0192 32.8654C13.7735 33.1111 13.6712 33.2134 13.4665 33.3567C12.8319 33.7866 12.0746 34.0322 11.2967 34.0322C9.65914 34.0322 8.49237 32.9678 8.49237 31.4325C8.49237 29.9792 9.43397 29.099 11.4605 28.5873L12.3611 28.3621C12.9343 28.2188 13.3027 28.1165 13.8554 27.9118V27.5843ZM26.219 26.8064H27.3653C28.4093 26.8064 28.8391 26.4789 28.8391 25.7215C28.8391 25.1484 28.5116 24.739 28.0204 24.6571C27.8975 24.6366 27.6929 24.6162 27.4267 24.6162H26.219V26.8064ZM22.9439 22.0779H27.7747C29.3714 22.0779 30.0878 22.2417 30.8042 22.7534C31.6844 23.3675 32.1552 24.3501 32.1552 25.5578C32.1552 27.0111 31.5207 28.0551 30.2925 28.6692L32.9331 33.8275H29.3304L27.3858 29.4265H26.219V33.8275H22.9234V22.0779H22.9439ZM36.1468 29.2832C36.1468 31.0232 36.4948 31.7601 37.2931 31.7601C38.1119 31.7601 38.4599 31.0232 38.4599 29.2832C38.4599 27.5433 38.1119 26.8269 37.2931 26.8269C36.4948 26.8269 36.1468 27.5433 36.1468 29.2832ZM37.3136 24.5138C39.9951 24.5138 41.735 26.3766 41.735 29.2832C41.735 32.1899 39.9951 34.0527 37.3136 34.0527C34.7139 34.0527 33.0559 32.2104 33.0559 29.2832C33.0559 26.3766 34.7139 24.5138 37.3136 24.5138ZM47.9987 28.3621C47.9577 27.3182 47.5484 26.7245 46.8729 26.7245C46.0336 26.7245 45.6447 27.6047 45.6447 29.3242C45.6447 30.9822 46.0131 31.7601 46.8524 31.7601C47.0161 31.7601 47.2004 31.6987 47.3641 31.6168C47.5279 31.5144 47.6507 31.4121 47.7326 31.2483C47.7735 31.1869 47.8349 31.0027 47.9373 30.7366C47.9782 30.6342 48.0192 30.5114 48.1215 30.2862L50.7621 31.1664C50.1685 33.0701 48.7765 34.0527 46.791 34.0527C44.1504 34.0527 42.5333 32.2718 42.5333 29.4265C42.5333 26.4584 44.2732 24.5548 46.9343 24.5548C49.0017 24.5548 50.3732 25.7215 50.7416 27.8708L47.9987 28.3621ZM51.5809 21.1568H54.6513V25.6601C55.552 24.8823 56.3298 24.5343 57.2714 24.5343C58.1721 24.5343 58.8885 24.8823 59.2979 25.4964C59.5845 25.9262 59.6664 26.3561 59.6664 27.4614V33.807H56.6164V27.5843C56.6164 27.1544 56.2275 26.8064 55.7771 26.8064C55.3268 26.8064 54.8765 27.1135 54.6308 27.6457V33.807H51.5809V21.1568ZM63.7193 28.3007H66.2371C66.2166 27.2568 65.7868 26.6836 65.0089 26.6836C64.2515 26.6836 63.7603 27.2772 63.7193 28.3007ZM63.6784 29.8154C63.6784 31.0232 64.1697 31.7396 64.9475 31.7396C65.2955 31.7396 65.6435 31.5963 65.8482 31.3097C66.0119 31.105 66.1757 30.8389 66.3599 30.4295L69.0005 31.2893C68.3455 33.0906 66.9126 34.0527 64.8861 34.0527C62.2865 34.0527 60.7103 32.2718 60.7103 29.3242C60.7103 26.438 62.3888 24.5343 64.9885 24.5343C67.6495 24.5343 69.0414 26.3151 69.1028 29.795H63.6784V29.8154ZM70.0444 21.1568H73.0944V33.807H70.0444V21.1568ZM74.3431 21.1568H77.393V33.807H74.3431V21.1568ZM81.4255 28.3007H83.9433C83.9228 27.2568 83.493 26.6836 82.7151 26.6836C81.9373 26.6836 81.4869 27.2772 81.4255 28.3007ZM81.3846 29.8154C81.3846 31.0232 81.8759 31.7396 82.6537 31.7396C83.0017 31.7396 83.3497 31.5963 83.5544 31.3097C83.7181 31.105 83.8819 30.8389 84.0661 30.4295L86.7067 31.2893C86.0517 33.0906 84.6188 34.0527 82.5923 34.0527C79.9927 34.0527 78.4165 32.2718 78.4165 29.3242C78.4165 26.438 80.095 24.5343 82.6947 24.5343C85.3557 24.5343 86.7476 26.3151 86.809 29.795H81.3846V29.8154ZM93.8506 0.134529V2.01773H126.09L127.953 0.134529M124.268 3.81906H93.8506V5.70226H122.467M120.584 7.52406H93.8506V9.40726H118.68M116.879 11.2086H93.8506V13.0918H114.996M113.215 14.9136H93.8506V16.7968H111.291M109.51 18.5981H93.8506V20.4813H107.627M105.825 22.3031H93.8506V24.1863H103.901M102.1 25.9876H93.8506V27.8708H100.217M98.4358 29.6926H93.8506V31.5758H96.5116M96.5116 33.848H130.307V0.0731201" fill="#335C9E"/>
</g>
<defs>
<clipPath id="clip0_2849_3526">
<rect width="130.265" height="34" fill="white" transform="translate(0.0507812 0.0526123)"/>
</clipPath>
</defs>
</svg>
