<svg width="178" height="35" viewBox="0 0 178 35" fill="none" xmlns="http://www.w3.org/2000/svg">
<path d="M9.53906 11.3505L9.56527 11.3561L9.59512 11.3207L9.53906 11.3505Z" fill="#A4965F"/>
<path d="M9.36719 11.5422L9.41021 11.552L9.43082 11.509L9.39718 11.4884L9.36719 11.5422Z" fill="#B6A560"/>
<path d="M9.45117 11.586L9.48481 11.5958L9.60997 11.5808L9.45117 11.586Z" fill="#B6A560"/>
<path d="M9.72559 12.1477L9.77043 12.2654L9.74058 12.1234L9.72559 12.1477Z" fill="#B6A560"/>
<path d="M10.4893 12.6052L10.4795 12.6742L10.573 12.5603L10.4893 12.6052Z" fill="#B6A560"/>
<path d="M12.1811 5.62561C12.1909 5.7247 12.0932 5.67046 12.082 5.62561H12.1811Z" fill="#B6A560"/>
<path d="M12.0273 5.74335L12.1114 5.7676L12.0479 5.70972L12.0273 5.74335Z" fill="#B6A560"/>
<path d="M16.678 32.5161C24.8891 32.5161 31.5435 25.8616 31.5435 17.6505C31.5435 9.44134 24.8891 2.78503 16.678 2.78503C8.4688 2.78503 1.8125 9.44134 1.8125 17.6505C1.8125 25.8616 8.4688 32.5161 16.678 32.5161Z" fill="#E12728"/>
<path d="M1.73633 17.6512C1.73633 25.8884 8.43935 32.5914 16.6766 32.5914C24.9157 32.5914 31.6187 25.8884 31.6187 17.6512C31.6187 9.41209 24.9157 2.71094 16.6766 2.71094C8.43935 2.71094 1.73633 9.41209 1.73633 17.6512ZM1.88769 17.6512C1.88769 9.49432 8.52157 2.86044 16.6766 2.86044C24.8335 2.86044 31.4673 9.49432 31.4673 17.6512C31.4673 25.8062 24.8335 32.4419 16.6766 32.4419C8.52157 32.4419 1.88769 25.8062 1.88769 17.6512Z" fill="#E12728"/>
<path d="M16.6829 2.27258C8.18779 2.27258 1.27547 9.18677 1.27734 17.6819C1.27734 26.177 8.18967 33.0893 16.6848 33.0893C25.1817 33.0879 32.0941 26.1751 32.0922 17.68C32.0922 9.18304 25.1799 2.27258 16.6829 2.27258ZM16.6843 32.1867C8.68627 32.1867 2.17945 25.6799 2.17759 17.6819C2.17759 9.68385 8.6844 3.17517 16.6824 3.17517C24.6805 3.17376 31.1892 9.68011 31.1892 17.68C31.1906 25.6762 24.6842 32.1849 16.6843 32.1867Z" fill="#B6A560"/>
<path d="M24.7394 9.65044C24.2367 5.64208 20.8151 2.54004 16.6704 2.54004C12.5237 2.54144 9.10401 5.64395 8.60134 9.65232L8.59573 9.66213C4.62848 10.2003 1.57129 13.6032 1.57129 17.72C1.57129 21.846 4.6453 25.2546 8.62749 25.7815L8.62889 25.7759C9.18577 29.7282 12.5793 32.7649 16.683 32.7649C20.7867 32.7649 24.1802 29.7264 24.7352 25.7759L24.7184 25.7815C28.7062 25.2583 31.7839 21.8479 31.7839 17.7162C31.7839 13.5976 28.7211 10.1947 24.7483 9.65838" fill="#B6A560"/>
<path d="M11.1155 23.274C10.5362 23.4646 9.91764 23.5692 9.27481 23.5692C6.04569 23.5692 3.42765 20.9512 3.42578 17.7202C3.42578 14.4911 6.04383 11.873 9.27481 11.8712C9.92886 11.8712 10.5586 11.9795 11.1472 12.1776L11.1528 12.1846C10.938 11.5773 10.8221 10.9233 10.8221 10.2431C10.8221 7.01209 13.4401 4.39404 16.6693 4.39404C19.9002 4.39404 22.5183 7.01209 22.5183 10.2412C22.5183 10.927 22.3931 11.5755 22.1763 12.1884C22.7724 11.981 23.4153 11.8707 24.0805 11.8707C27.3115 11.8707 29.9295 14.4888 29.9295 17.7179C29.9295 20.9489 27.3115 23.5669 24.0824 23.5669C23.4339 23.5669 22.836 23.4604 22.2529 23.2642C22.2529 23.2642 22.5332 24.4321 22.5332 25.0581C22.5332 28.2891 19.9152 30.9072 16.6842 30.9072C13.4551 30.9086 10.8352 28.2891 10.8352 25.06C10.8352 24.434 10.9343 23.8341 11.1155 23.2698L11.1057 23.2712" fill="#244CA1"/>
<path d="M10.8118 10.2428C10.8118 10.9099 10.9239 11.5639 11.1426 12.1862C10.9408 11.5602 10.8319 10.908 10.8319 10.2428C10.8319 7.02301 13.45 4.40308 16.6697 4.40308C19.8895 4.40308 22.5075 7.02301 22.5075 10.2409C22.5075 10.8912 22.3936 11.5453 22.1656 12.1843C22.7878 11.9881 23.4288 11.8816 24.081 11.8798C25.6395 11.8798 27.1064 12.4871 28.2089 13.5896C29.3115 14.6922 29.9188 16.1591 29.9188 17.7194C29.9188 19.2779 29.3133 20.7449 28.2089 21.8474C27.1064 22.9499 25.6413 23.5573 24.081 23.5573C23.4568 23.5573 22.8607 23.4582 22.2553 23.2545C22.2454 23.2788 22.5225 24.4412 22.5225 25.0597C22.5225 28.2776 19.9026 30.8975 16.6847 30.8975C15.1243 30.8975 13.6592 30.2902 12.5567 29.1876C11.4523 28.087 10.845 26.6201 10.845 25.0597C10.845 24.4505 10.9385 23.8488 11.1234 23.2732C10.9197 23.845 10.8244 24.4486 10.8263 25.0597C10.8263 26.6257 11.4355 28.0963 12.5418 29.2026C13.648 30.3089 15.1187 30.9181 16.6847 30.9162C19.9138 30.9162 22.543 28.2888 22.543 25.0597C22.543 24.4393 22.2646 23.2751 22.2609 23.262C22.8551 23.4788 23.455 23.5778 24.081 23.5778C25.6469 23.5778 27.1176 22.9668 28.2239 21.8624C29.3302 20.7542 29.9394 19.2835 29.9394 17.7194C29.9394 16.1535 29.3302 14.6828 28.2239 13.5765C27.1157 12.4703 25.6451 11.8611 24.081 11.8611C23.4251 11.8611 22.7841 11.9676 22.173 12.1787C22.4122 11.549 22.5281 10.8931 22.5281 10.2409C22.5281 7.0118 19.9007 4.3844 16.6697 4.3844C13.4387 4.3844 10.8118 7.0118 10.8118 10.2428ZM5.13051 13.5784C4.02424 14.6847 3.41504 16.1572 3.41504 17.7194C3.41644 20.9504 6.0443 23.5778 9.27528 23.5778C9.90504 23.5778 10.5254 23.4787 11.1178 23.2826L11.1122 23.2639C10.5198 23.4601 9.90316 23.5592 9.27528 23.5592C6.05551 23.5592 3.4356 20.9393 3.4356 17.7195C3.4356 16.161 4.04292 14.6959 5.14546 13.5934C6.24798 12.489 7.71492 11.8817 9.27341 11.8817C9.89383 11.8817 10.4993 11.9882 11.0786 12.1769C10.503 11.9695 9.89569 11.863 9.27341 11.863C7.70931 11.863 6.23677 12.4721 5.13051 13.5784Z" fill="#244CA1"/>
<path d="M16.4235 5.57084L16.4017 5.62284H16.4373V5.71043L16.4893 5.69642L16.6727 5.86613L16.4482 5.84146C16.3623 5.80782 16.3148 5.68764 16.2046 5.71014L16.2922 5.77307L16.1772 5.83053L16.3087 5.85519L16.2786 5.91812L16.3826 5.89346L16.3607 5.97839L16.4538 5.92905L16.465 6.02212L16.5279 5.94545L16.5908 6.04945L16.621 5.97825L16.6948 6.11518C16.5789 6.14881 16.463 6.02212 16.3472 6.02212L16.3718 6.14797L16.4896 6.12331L16.402 6.21637C16.2936 6.14727 16.3081 5.88718 16.1118 5.95633L16.2049 6.00833L16.0598 6.02234V6.0442H16.0899L16.1255 6.1154L16.183 6.04967L16.2049 6.07434L16.1118 6.20019L16.2459 6.17553L16.1775 6.25219L16.2925 6.24098L16.2049 6.34497L16.3418 6.31484L16.2789 6.39697C16.3143 6.49409 16.3625 6.34469 16.413 6.39697V6.41883L16.257 6.44896C16.1467 6.33306 16.0604 6.17645 15.9613 6.08489L15.9969 6.17515L15.9449 6.20528L16.0489 6.25181L15.9229 6.26302C15.9117 6.36015 16.0428 6.24018 16.0707 6.32049L15.9229 6.36702V6.40808L16.1118 6.42448L15.9969 6.47101L16.0707 6.52301L16.0351 6.58594L16.1529 6.55034L16.0242 6.68993L15.9038 6.51201L15.871 6.53933C16.0205 6.59722 15.8188 6.58236 15.83 6.65706L15.923 6.68986L15.83 6.77199H15.923L15.871 6.86225L15.9449 6.92798L15.871 6.99091L15.9121 7.0429L15.882 7.06477L15.8932 7.10583L15.9124 7.19343C15.9927 7.27373 16.0131 7.40396 16.1122 7.4918C15.9272 7.43952 15.8808 7.19184 15.7892 7.06477L15.7645 7.0949L15.7263 7.08088L15.6524 7.12741L15.7783 7.16848C15.7713 7.27121 15.6521 7.18726 15.6222 7.24514L15.6334 7.3354L15.7785 7.28607L15.6389 7.43937L15.8059 7.4175L15.7895 7.43937L15.639 7.53243C15.7549 7.5847 15.8076 7.43937 15.8935 7.48043L15.7266 7.63645L15.9346 7.55712C15.9346 7.64304 15.8229 7.66784 15.8005 7.73506L15.8197 7.80345C15.7113 7.79084 15.6402 7.64187 15.5487 7.60636L15.4556 7.63102L15.4939 7.63663L15.6007 7.68863L15.4829 7.77622L15.6007 7.81729L15.5487 7.85555L15.5599 7.90208L15.6119 7.88022L15.6007 7.99248L15.6745 7.97061V8.07461L15.7429 8.05821L15.7541 8.09927L15.6639 8.2142L15.4832 8.05817L15.5243 8.09923L15.4559 8.16216L15.5489 8.15095L15.59 8.20294L15.5489 8.22481L15.4941 8.2768L15.6529 8.31787L15.5352 8.35893L15.7377 8.4L15.6912 8.47386L15.7541 8.51212L15.8417 8.50091L15.8609 8.57477H15.8937L16.0087 8.62957L16.2359 8.64078C16.0266 8.72305 15.8186 8.59495 15.6336 8.52586L15.6911 8.57519L15.6855 8.64092L15.8059 8.69292L15.8003 8.78051C15.6732 8.70946 15.5522 8.60074 15.4718 8.48489C15.4195 8.39898 15.3349 8.35721 15.2993 8.27685L15.2364 8.18925L15.2775 8.31791L15.2008 8.38084L15.2473 8.41097H15.2666L15.305 8.35898L15.3406 8.44938L15.2119 8.52604H15.2366L15.4035 8.5479L15.2777 8.63003L15.4145 8.61602L15.3789 8.66255L15.4199 8.70361C15.1957 8.83634 15.2302 8.46247 15.034 8.47368C15.034 8.5652 15.1882 8.55819 15.1489 8.6516C15.0966 8.56373 14.9526 8.64459 14.8779 8.57494L15.0914 8.69267C15.0447 8.77494 14.9411 8.68145 14.9299 8.78573L14.9819 8.78012H15.1325L15.0285 8.87038L15.0066 8.92238L15.1599 8.84852L15.1817 8.87038L15.0559 9.03736L15.2229 8.95242C15.292 9.05151 15.1133 9.04408 15.1599 9.14131C15.2646 9.12449 15.2823 8.9768 15.3926 8.98801C15.3926 9.09831 15.255 9.12382 15.2475 9.24531L15.2777 9.25933L15.4939 9.1416L15.368 9.32775L15.5816 9.30042L15.494 9.42362L15.6008 9.4124L15.5895 9.49453L15.7647 9.4644L15.6389 9.60947L15.1078 9.27005L14.8779 9.21259C14.9171 9.33971 15.0555 9.23571 15.1078 9.33845H14.8888C14.9355 9.43753 15.0685 9.39044 15.1489 9.43151C15.1134 9.51742 15.0046 9.48112 14.9299 9.50537L14.9819 9.54097L14.9959 9.60936L15.1328 9.54097L15.2368 9.50537L15.1219 9.59843L15.33 9.5711C15.3001 9.7318 15.0923 9.61385 15.0699 9.73533L15.2369 9.71347L15.3792 9.6724C15.34 9.7771 15.2238 9.76714 15.1602 9.81199H15.278L15.4668 9.76L15.3299 9.88319V9.91599H15.3411L15.5245 9.89412C15.3675 10.0492 15.1728 9.81115 15.0345 9.92692L15.0457 9.93252L15.1827 9.96812L15.1608 10.0584H15.172V10.0365L15.224 10.0201L15.2541 10.1241L15.443 10.1353L15.3938 10.1545V10.1873C15.4853 10.1537 15.5211 10.2386 15.5827 10.2666C15.3173 10.261 15.0447 10.1184 14.912 9.86426L14.8601 9.76573L14.8793 9.86426C14.8326 9.95774 14.9701 9.93181 14.9531 10.0066C14.854 9.98979 14.811 9.89449 14.7232 9.85331C14.6895 9.93922 14.816 9.9325 14.8272 10.0203C14.7917 10.1118 14.724 10.0203 14.6848 10.0203C14.7241 10.1698 14.8972 9.99198 14.9832 10.0723L14.9776 10.1133C14.8861 10.0611 14.8607 10.2067 14.786 10.1544V10.1872L14.9256 10.1544L15.0926 10.1872C15.0347 10.2171 14.9121 10.2217 14.942 10.3076L15.0077 10.2803L15.1966 10.2663C15.1219 10.3017 15.0654 10.3983 14.9776 10.3702V10.4058L15.046 10.3702L15.254 10.3429L15.109 10.488C15.2305 10.5104 15.3053 10.3426 15.4155 10.3949L15.2376 10.5783L15.2488 10.5896C15.3816 10.6306 15.3408 10.447 15.4678 10.4582L15.3638 10.6772C15.1452 10.6249 14.9248 10.5261 14.7753 10.3542C14.6538 10.3542 14.6751 10.2042 14.6302 10.1407V10.2556H14.5262L14.6549 10.3185L14.5153 10.3541V10.3843C14.5958 10.3675 14.6901 10.4077 14.748 10.4581L14.6604 10.4363L14.6548 10.4773L14.7861 10.5512L14.7642 10.6141L14.8792 10.636V10.6552C14.683 10.8738 14.7064 10.4081 14.4877 10.4773L14.4412 10.521L14.5041 10.5098L14.5561 10.5782L14.411 10.6658L14.589 10.6411L14.452 10.7807C14.6053 10.6536 14.7228 10.7472 14.8517 10.8163L14.7586 10.86L14.5944 10.9778L14.3371 10.8847C14.24 10.8623 14.2041 10.7059 14.077 10.7807L14.192 10.8464L14.1509 10.8738V10.9066C14.1976 10.9476 14.2717 10.8561 14.296 10.9476L14.1701 11.0653L14.2167 11.071L14.2551 11.019H14.3728L14.3588 11.0302L14.3232 11.1342L14.4108 11.0712L14.4248 11.0824L14.3481 11.2303L14.4877 11.1783L14.5041 11.2385L14.4658 11.3069L14.4165 11.3209L14.4412 11.3373L14.4905 11.3729L14.4713 11.3921L14.4056 11.3729L14.3754 11.3893L14.3946 11.4195L14.4768 11.4387L14.537 11.4499L14.5398 11.4717L14.4769 11.4689L14.4441 11.4717L14.4168 11.5045L14.5072 11.5102L14.5592 11.5242L14.5017 11.5543L14.4961 11.598L14.4769 11.6308V11.6636L14.5372 11.6171L14.5728 11.5788L14.6029 11.6171L14.6001 11.639L14.518 11.7156L14.4605 11.7621L14.5016 11.7813L14.559 11.7954V11.831L14.5042 11.845L14.6192 11.8915L14.4933 12.0064L14.5261 12.012L14.6958 11.9436C14.7182 12.0315 14.5955 12.001 14.5562 12.0476L14.5674 12.1106C14.6421 12.0751 14.7176 12.0525 14.8111 12.075C14.8111 12.1853 14.6382 12.0764 14.6961 12.1927L14.8604 12.168L14.7591 12.2666L14.7235 12.3349C14.488 12.2957 14.3083 12.0898 14.1924 11.8805L14.2554 11.7766L14.1924 11.678L14.1295 11.8915L14.0474 11.8697L14.1186 11.949L14.1022 11.9737L13.9626 11.9217L13.9434 11.9435L13.9954 11.9955L13.9842 12.0366L13.9322 12.0254C13.9956 12.1973 14.1116 11.9483 14.2032 12.0473L14.0362 12.1622L13.8993 12.2334L14.0362 12.2032H14.2168C14.1346 12.2201 14.1336 12.3761 14.0252 12.3182L14.1292 12.3811L14.118 12.4523L14.2658 12.3346C14.3013 12.4112 14.1583 12.4349 14.192 12.5152L14.233 12.4988L14.337 12.4523L14.2713 12.6302L14.2853 12.619H14.4249L14.3729 12.775L14.5262 12.734V12.8106C14.6197 12.7696 14.6769 12.9118 14.7479 12.953C14.6769 13.0445 14.6203 12.8895 14.5399 12.953L14.5783 13.0159L14.5044 13.0707L14.5156 13.1336L14.595 13.0816L14.8605 13.005C14.8212 13.1189 14.6009 13.0284 14.6196 13.1966H14.7647L14.7345 13.3526H14.7893L14.8249 13.3498L14.8362 13.3881L14.869 13.4045L14.9264 13.3853L14.9236 13.451L14.9509 13.4538L14.9701 13.4482L14.9537 13.4783L14.9784 13.4839L15.0577 13.4538L15.1097 13.5578L15.1973 13.5195L15.2685 13.5879C15.0256 13.7019 14.8323 13.4964 14.6417 13.3936C14.5782 13.444 14.4833 13.4202 14.3898 13.4539L14.4011 13.484C14.4833 13.5251 14.5697 13.467 14.6556 13.4539C14.6276 13.5529 14.448 13.5154 14.3901 13.6126L14.3737 13.588C14.1999 13.4664 14.117 13.2605 14.0124 13.098L13.9851 13.1198L14.037 13.2649L13.996 13.2868L13.8071 13.1444L13.922 13.2347L13.8591 13.2867L13.881 13.2979L14.0014 13.3636C13.9155 13.358 13.8351 13.3749 13.766 13.3116V13.3418L13.8863 13.3938L13.8315 13.432L14.0478 13.4432L13.8069 13.5199L13.9218 13.5363L13.8862 13.5992L13.9437 13.6239L13.8178 13.6759H14.0013L13.9329 13.7552C14.0319 13.8019 14.0663 13.6014 14.171 13.6239L13.9739 13.8292H14.0888L14.0532 13.9469C14.1748 13.8778 14.1345 13.7339 14.2449 13.6759C14.2617 13.803 14.166 13.8996 14.1079 14.0099L14.0477 14.0211L14.1407 14.0622C14.2174 13.9575 14.2437 13.8083 14.3241 13.7392C14.354 13.8961 14.2101 14.0198 14.1708 14.1525L14.2338 14.1881C14.3197 14.0722 14.3263 13.9236 14.3898 13.8021H14.4254L14.3898 13.9883L14.401 14.2483L14.4366 14.0102C14.4534 13.9467 14.4354 13.8295 14.527 13.8295C14.5326 13.9342 14.4639 14.0205 14.5051 14.1251L14.5434 14.1139C14.493 14.0036 14.6481 13.962 14.579 13.8648L14.8117 13.8704L14.913 13.9772L14.927 13.8814L15.031 13.958C14.9151 13.9879 15.0838 14.0613 14.9681 14.0893L14.9098 14.021L14.8879 14.1879L14.8086 14.0621L14.7974 14.2291L14.8247 14.1935L14.8466 14.2181C14.8354 14.3228 14.7447 14.3954 14.7316 14.5001L14.7836 14.5302L14.7724 14.4481C14.8583 14.3678 14.9002 14.2403 14.975 14.1524C14.9936 14.2347 14.9304 14.3047 14.923 14.3851L14.871 14.4782H14.9094C15.0029 14.3698 15.0545 14.2225 15.1311 14.1141L15.0791 14.3221V14.4645L15.1065 14.4589L15.0952 14.4123C15.2111 14.332 15.1688 14.1832 15.2211 14.0729C15.2958 14.1608 15.1953 14.2806 15.2458 14.374L15.2978 14.2947C15.3444 14.2068 15.2339 14.074 15.3498 14.0292L15.3662 14.2701C15.5624 14.2757 15.3373 14.0856 15.44 13.9772L15.492 14.166H15.5167L15.5331 13.9471L15.5988 13.906L15.61 14.0292L15.673 13.9772L15.714 13.958L15.7413 13.9962L15.61 14.1769C15.6791 14.1359 15.6889 14.0339 15.7879 14.062L15.7359 14.2071L15.6894 14.1769L15.5224 14.374C15.5859 14.3684 15.6444 14.2182 15.7359 14.2482L15.673 14.448L15.621 14.6287L15.6374 14.5821L15.7633 14.4891L15.725 14.6287C15.8913 14.5932 15.7777 14.3741 15.9029 14.333L15.8811 14.4479L15.9221 14.4781L15.9549 14.2591L16.0589 14.3329L16.1985 14.2371L16.2341 14.2589L16.256 14.5135C16.3419 14.4612 16.3841 14.3276 16.4476 14.2809C16.4308 14.5462 16.4245 14.8571 16.245 15.0309L16.2258 14.905L16.0889 15.2116V15.0145L15.974 15.1596C15.974 15.0549 16.0118 14.9684 16.0342 14.8749C15.9203 14.974 15.8455 15.1178 15.7632 15.228C15.9669 15.2561 16.2324 15.2978 16.3819 15.124C16.5202 14.8307 16.5096 14.4704 16.5489 14.1359L16.6146 14.0509L16.631 14.0728L16.579 14.8639L16.6146 14.8995C16.7343 14.6229 16.6604 14.2587 16.7295 13.9578L16.7979 13.8702C16.8278 13.9749 16.7867 14.0718 16.8335 14.1522L16.8608 13.6759L16.9539 13.7032L16.9019 13.8702C17.0514 13.8758 16.8715 13.9868 16.9238 14.0728H16.9539C16.9539 14.4185 16.9767 14.7766 17.1318 15.0719L17.1459 15.0663C17.0936 14.7841 17.0773 14.4964 17.0419 14.2068L17.072 14.141L17.1459 14.3956V14.3844L17.1732 14.2941L17.2608 14.4994L17.272 14.4228L17.4171 14.5514L17.3541 14.3625L17.4171 14.4119L17.3541 14.2285L17.3815 14.2586C17.4637 14.2119 17.2904 14.1475 17.324 14.0615L17.3815 14.0779L17.3432 13.9246L17.3131 13.9054L17.2775 13.7029L17.2091 13.5578L17.3021 13.6235L17.3295 13.5825L17.3541 13.5989L17.3295 13.7795L17.4171 13.8944L17.48 13.7494C17.5323 13.8428 17.4688 13.9351 17.4553 14.0286L17.532 14.0888C17.5768 14.0085 17.5041 13.906 17.6032 13.8425C17.6256 13.9396 17.6004 14.0325 17.5948 14.1409L17.6605 14.2422C17.6307 14.1543 17.6593 14.0347 17.7098 13.9712L17.729 14.1354C17.7403 14.1989 17.6923 14.3327 17.7782 14.3626C17.8493 14.2747 17.7275 14.1717 17.8302 14.1026C17.8713 14.1997 17.8442 14.354 17.896 14.4475L17.937 14.3106L17.9698 14.3955L18.0328 14.4885L18 14.3846L18.0328 14.2476L18.0848 14.3735V14.2586L18 14.0888L17.948 13.9766L17.8658 13.7904C18.1592 13.8241 18.3449 14.1599 18.6569 14.1244L18.4626 13.9711C18.7111 13.9711 18.9753 13.9979 19.2126 14.0614V14.0203C19.0556 13.9811 18.9239 13.8761 18.7856 13.8013C18.6585 13.8368 18.5952 13.7032 18.5036 13.6864L18.5775 13.6344C18.7046 13.7147 18.905 13.6963 19.0264 13.8178L19.0456 13.7658L19.1086 13.7798V13.7497C18.987 13.7104 18.7968 13.71 18.7855 13.5717L18.8649 13.5881C18.9752 13.646 19.1072 13.6399 19.1988 13.7277L19.3166 13.7031V13.6867L19.1988 13.6456L18.9798 13.5307C19.107 13.454 19.217 13.5713 19.3384 13.5471L19.1879 13.454L19.2399 13.4157L19.4205 13.506L19.4588 13.4157L19.3904 13.3419L19.5738 13.3692V13.2652L19.4945 13.2351V13.2132L19.6806 13.2076L19.6204 13.1338L19.6806 13.0982V13.0818H19.6094V13.0462L19.5164 13.1447C19.3258 13.2418 19.1593 13.3695 18.9388 13.3938C18.8883 13.3247 18.8132 13.2709 18.7964 13.183C18.8768 13.2017 18.9759 13.2838 19.0674 13.3418C19.0394 13.2539 18.9637 13.1969 18.9114 13.1091L19.1304 13.2076L19.2617 13.235L19.0674 13.057L19.0866 13.0297C19.2081 13.0409 19.2876 13.1502 19.3904 13.1446V13.0406L19.1878 12.953L19.2234 12.9257C19.3506 12.9071 19.406 13.0465 19.5218 12.9941L19.4534 12.9367L19.5163 12.9011L19.4945 12.8792L19.4069 12.9011L19.3276 12.8381L19.5684 12.8737L19.5876 12.8491L19.4426 12.7177L19.5739 12.6575C19.6262 12.6406 19.6913 12.7455 19.7025 12.6519L19.5356 12.5999V12.578L19.7135 12.5151C19.6444 12.4123 19.823 12.4391 19.7874 12.3344L19.5738 12.4521L19.6806 12.3344C19.5181 12.2429 19.5695 12.5621 19.4425 12.5041L19.3577 12.682C19.3801 12.5942 19.2862 12.5956 19.2618 12.5507L19.188 12.6521L19.1992 12.6408L19.2977 12.7586C19.2398 12.8689 19.2409 12.6783 19.1718 12.7586L19.1362 12.6819C18.8952 12.8034 18.9426 12.7604 18.9501 12.6052L18.8898 12.5039C18.7908 12.5562 18.9288 12.6291 18.8652 12.7037C18.7737 12.6925 18.8384 12.5841 18.7748 12.5504L18.8076 12.5039H18.7446C18.7446 12.4404 18.593 12.461 18.6789 12.3807C18.7668 12.4106 18.8418 12.4662 18.939 12.4382L18.7857 12.3287L18.865 12.3069C18.9397 12.3704 19.0448 12.3589 19.1606 12.3589C19.1364 12.301 19.023 12.3476 19.0156 12.2549L19.0457 12.233L19.2866 12.2959V12.2795L19.2237 12.2549L19.1826 12.1673L19.3578 12.1813V12.1402C19.3111 12.1122 19.1934 12.1624 19.199 12.0745L19.3687 12.0633L19.407 12.0113L19.3167 12.0057L19.3386 11.9427L19.251 12.0249C19.1351 11.9838 19.1371 12.1318 19.0567 12.1618H18.8377L18.8897 12.1262L18.8377 12.0249L18.8759 12.0109L19.0812 12.0465L19.0566 11.9726L19.1879 11.9479V11.9315C19.0085 11.8923 18.8357 11.9788 18.6787 11.8686L18.6927 11.8275L18.6462 11.6715L18.6982 11.5675C18.7487 11.6348 18.8245 11.7279 18.8488 11.8139L18.9117 11.8027V11.7013C18.8182 11.707 18.9229 11.6248 18.8488 11.6192L18.8376 11.5207L19.0155 11.6494L19.1879 11.6876V11.6712L19.0265 11.5097L19.0046 11.4796C19.1093 11.4347 19.2059 11.5429 19.2975 11.5672V11.5425H19.2863C19.2807 11.4566 19.1604 11.4583 19.1604 11.3536C19.2463 11.3256 19.327 11.4523 19.4205 11.4056L19.3903 11.3645L19.2343 11.2387C19.2922 11.2144 19.3564 11.283 19.4424 11.2606L19.3384 11.1703L19.5053 11.1155L19.3795 11.0552L19.5164 10.9895L19.4535 10.8964L19.5986 10.8636L19.4836 10.8226L19.5575 10.7487L19.4426 10.7431L19.4727 10.6555L19.407 10.7075C19.4028 10.8701 19.2877 11.0131 19.1606 11.1345C18.9756 11.2784 18.7627 11.3782 18.531 11.3782L18.5254 11.2906L18.509 11.2794L18.5966 11.2136L18.6403 11.208L18.5527 11.1287L18.5774 11.0822L18.5145 11.0548L18.5257 10.9672C18.636 11.0195 18.6231 11.1499 18.7091 11.2191L18.8131 11.2303C18.716 11.2023 18.7088 11.0641 18.679 10.9894C18.7612 11.0697 18.7957 11.2028 18.9116 11.2084L18.8596 11.1455L18.991 11.1701C18.9854 11.0598 18.8489 11.081 18.8377 10.9895L18.9006 10.9783L19.0813 11.1288L19.1086 11.0932L19.0265 10.9591L19.1989 11.0139C19.0961 10.898 19.311 10.9329 19.2756 10.8469C19.1897 10.8399 19.1092 10.8168 19.0457 10.7812L19.2756 10.8113L19.3276 10.7429L19.1195 10.6772C19.2186 10.6081 19.3463 10.7359 19.4042 10.6033L19.2865 10.5623L19.4589 10.5103L19.3495 10.4583L19.4589 10.42L19.3687 10.3597V10.2557C19.322 10.3436 19.2571 10.4251 19.188 10.4775L19.1992 10.4887C18.9469 10.6569 18.6572 10.7813 18.3452 10.8336L18.334 10.8117C18.4199 10.7763 18.5362 10.775 18.5885 10.6666H18.7747V10.6554C18.7578 10.5563 18.8541 10.6085 18.8896 10.5897L18.8756 10.5404C18.8998 10.4469 18.9703 10.546 19.0152 10.5404V10.4254L19.1082 10.4884L19.0562 10.3706L19.0809 10.3542L19.2122 10.3953L19.1493 10.3022H19.2862L19.3164 10.2284L19.2397 10.2172L19.3492 10.1241C19.3492 10.0082 19.2864 10.1655 19.2397 10.1129L19.3492 9.99517C19.222 9.9429 19.2239 10.1126 19.1603 10.1649C18.8239 10.4527 18.4659 10.7124 18.038 10.7479L18.0106 10.5508L18.1365 10.7069C18.258 10.6957 18.0672 10.54 18.1775 10.4988L18.3336 10.6549L18.3062 10.4468C18.409 10.3964 18.3927 10.5836 18.4787 10.5892L18.4267 10.4058L18.4623 10.3839L18.5663 10.4715L18.6676 10.4879L18.5938 10.2908L18.7744 10.3319L18.9168 10.3017V10.2799L18.8073 10.2659L18.7334 10.1865L18.8484 10.2167L19.0318 10.1865L18.9907 10.1537L18.9168 10.0989L18.928 10.0877L19.0676 10.1343L19.0978 10.0987L19.1306 10.1127L19.1498 10.0716H19.1196L19.0814 9.98402H19.2347L19.1307 9.93202L19.1363 9.91562C19.1886 9.93244 19.2535 9.82943 19.2759 9.92683L19.3497 9.90497L19.2759 9.86391L19.1828 9.82831L19.2621 9.78724L19.2868 9.81738C19.3727 9.78752 19.3975 9.88325 19.4593 9.80098L19.2512 9.73525L19.4209 9.65031L19.2868 9.64471L19.2621 9.54071L19.2403 9.55711C19.2291 9.75893 19.0329 9.79953 18.9282 9.96772C18.8311 10.0014 18.7726 10.0605 18.6791 10.1128L18.6053 10.1757L18.5423 10.006L18.6984 10.058L18.6272 9.94308L18.8243 9.95709L18.8383 9.89417L18.7863 9.8531C18.8087 9.70922 18.8704 9.88884 18.9396 9.84189L18.8767 9.74602L19.0053 9.70776L18.9913 9.6503L19.0816 9.60923L19.0158 9.54084L19.1362 9.50524C19.0279 9.48842 19.1774 9.40153 19.1306 9.34921L19.0978 9.39027L19.0568 9.36294L19.0266 9.4532C18.7725 9.85124 18.3219 10.026 17.866 9.95688L17.8304 9.92675L17.9372 9.93236C18.0587 9.91554 18.1798 9.93293 18.2602 9.86943L18.293 9.90503L18.4271 9.85303L18.4627 9.76543L18.5667 9.80103V9.69704H18.698L18.657 9.59305C18.7204 9.54638 18.7853 9.68092 18.8376 9.59305L18.7445 9.50545L18.9006 9.48905L18.813 9.40146L18.969 9.3632L18.8897 9.32213L19.0457 9.27014V9.24547H18.928L18.9909 9.15241L18.9498 9.11961C18.8471 9.28593 18.6812 9.45854 18.5037 9.55759C18.4046 9.62668 18.2437 9.63299 18.2025 9.48919L18.2082 9.41253L18.3669 9.51652L18.4737 9.47546L18.3861 9.42346C18.3675 9.34316 18.2656 9.40819 18.2712 9.32213C18.4095 9.21183 18.489 9.5012 18.6161 9.37413L18.5257 9.32213L18.397 9.21267L18.4217 9.19347C18.5787 9.1468 18.565 9.3112 18.7201 9.3112L18.6408 9.2044H18.7201L18.8131 9.14148L18.5942 9.10041L18.8077 9.0892L18.9801 8.95227L18.7748 9.0372V9.00441C18.8719 8.9988 18.9334 8.9063 18.9801 8.84838L18.8241 8.92224C18.7494 8.81194 19.0387 8.78012 18.8761 8.6923C18.7846 8.72215 18.8325 8.82376 18.7448 8.85928L18.7749 8.73342L18.7092 8.75529L18.698 8.70329H18.6788C18.731 8.91258 18.5017 8.9575 18.3859 9.05094L18.3339 8.99347L18.2025 8.90041L18.427 8.82922L18.3339 8.79642L18.49 8.70336L18.386 8.6815L18.553 8.64043L18.449 8.58843L18.5667 8.49537L18.49 8.47351L18.553 8.41058L18.5036 8.36952L18.2436 8.70347L18.2025 8.69226L18.2928 8.58827L18.2545 8.53627L18.3448 8.48427L18.3065 8.43228L18.4269 8.39121L18.3749 8.28175L18.3968 8.26536L18.5884 8.30362L18.594 8.22976L18.4215 8.18869L18.5529 8.15043L18.4899 8.09843L18.6925 8.12857L18.6981 8.0875L18.668 8.04644V8.05765L18.4627 8.02205C18.5261 7.95295 18.6231 8.03957 18.668 7.95366L18.6269 7.91806C18.6101 8.01154 18.5069 7.91245 18.449 7.93992L18.4791 7.86606L18.542 7.90166V7.8278L18.6679 7.83901L18.646 7.78701C18.5469 7.78701 18.4551 7.81589 18.386 7.86634L18.3668 7.79248L18.5885 7.74048L18.5036 7.64742H18.6405C18.5078 7.4811 18.3352 7.69353 18.2025 7.71035L18.1913 7.59543L18.2597 7.54343L18.2023 7.5161C18.2303 7.4058 18.3221 7.54413 18.3857 7.5161L18.2296 7.4285C18.2875 7.3182 18.3521 7.46242 18.4213 7.41729L18.3555 7.3653L18.4267 7.27223L18.4075 7.28625L18.3555 7.22052L18.3062 7.31358C18.1212 7.38828 18.1158 7.62479 17.9476 7.69954L17.8847 7.51614C17.9706 7.45826 17.9351 7.63191 18.038 7.55721V7.53254L17.9696 7.45041L18.0626 7.46443V7.35497H18.1666L18.1778 7.2975L18.2928 7.19898H18.1367C18.1704 7.11306 18.2868 7.15217 18.3448 7.12778C18.3336 7.00627 18.2252 7.14039 18.1504 7.09498L18.2822 7.01257L18.2709 6.99071L18.156 6.9795C18.1616 6.89723 18.3122 6.97249 18.3066 6.8727L18.2026 6.84537L18.271 6.67839L18.1779 6.77146L18.2546 6.57436L18.219 6.58557L18.1779 6.52264C18.1537 6.76371 18.0287 6.97218 17.9316 7.17961C17.8513 7.11612 18.0067 7.02597 17.8796 7.00168C17.9076 6.92138 17.9537 7.02131 17.9836 6.96342L18.0329 6.84569L17.97 6.80463L18.0849 6.7417V6.67877L17.9836 6.73077L18.0329 6.53915L17.9836 6.58568C17.9425 6.76321 17.8141 6.93225 17.8029 7.09483L17.677 7.0647C17.6304 6.97318 17.7921 7.05489 17.7509 6.94977L17.6606 6.92791L17.8303 6.82111C17.7276 6.81551 17.8528 6.78313 17.8303 6.73085L17.729 6.75818L17.8303 6.63779L17.762 6.61593L17.8851 6.60472L17.9317 6.49792L17.803 6.52259V6.49792L17.8961 6.44859L17.8797 6.40752C17.661 6.52903 17.7169 6.82306 17.4964 6.96321L17.3651 7.01241L17.3241 6.90841L17.3433 6.78256L17.4391 6.93857C17.5662 6.8919 17.411 6.76483 17.4447 6.70316L17.5843 6.79356L17.5731 6.75249L17.6032 6.73063L17.4964 6.6157L17.5484 6.62692L17.6607 6.58585L17.584 6.52292L17.699 6.45999L17.6031 6.43533L17.74 6.408L17.6251 6.36693L17.751 6.31494L17.6771 6.26841L17.74 6.21641L17.7099 6.2052V6.14773L17.6771 6.15334C17.5724 6.37198 17.4217 6.6447 17.1844 6.74188L17.1215 6.58585L17.0201 6.60505C17.2107 6.50793 17.3281 6.21661 17.5429 6.20539L17.4691 6.17526L17.4964 6.115L17.3651 6.15326C17.423 6.10659 17.4443 5.99749 17.5321 5.98628L17.4281 5.94521L17.5185 5.89322C17.3634 5.8764 17.3054 6.08394 17.2475 6.1998C17.2419 6.29132 17.1568 6.20541 17.1326 6.18859L17.1627 6.15299L17.2092 6.18859L17.1736 6.11473C17.3063 6.12454 17.1792 6.01971 17.2776 5.98607L17.2475 5.96687L17.3132 5.88194C17.1917 5.88194 17.1911 6.02069 17.1462 6.09544C17.0827 6.20574 16.9559 6.33686 16.8232 6.31443C16.9091 6.29579 16.798 6.24422 16.8615 6.20497L16.9026 6.2515L16.9491 6.16391L17.0011 6.19951C17.1637 6.10042 17.1006 5.84718 17.2912 5.81354L17.1954 5.77794L17.2255 5.76154L17.2115 5.72328C17.0989 5.8455 17.0243 6.02624 16.8611 6.12294L16.7352 6.15307L16.7493 6.02175L16.8231 6.10108C16.8455 6.01516 16.9263 5.99765 17.0011 5.9341L17.0312 5.77807L17.0723 5.71514C16.9732 5.78424 16.9088 5.86499 16.7985 5.93413L16.7192 5.84107C16.7883 5.65607 16.4684 5.73897 16.4235 5.57084ZM17.2115 5.72328C17.2171 5.71768 17.2231 5.71011 17.2283 5.70492L17.2091 5.71614L17.2115 5.72328ZM17.2283 5.70492L17.3131 5.65559L17.2912 5.63373C17.264 5.64788 17.2503 5.68362 17.2283 5.70492ZM9.27628 13.6214C9.27628 13.6214 7.39835 14.7109 8.78629 18.1051L8.6412 17.8095C8.08994 15.9445 5.95133 16.2375 5.79436 17.4372C5.63739 18.6351 6.6183 18.9099 6.6183 18.9099C6.22587 18.1045 7.87461 16.8492 8.58098 18.9702C9.3378 21.2369 7.5408 20.9712 7.5408 20.9712C7.5408 20.9712 7.54108 21.5228 8.30725 21.5022C8.54601 21.4966 8.69529 21.3785 8.81093 21.2312C8.83363 21.5582 8.95066 21.9084 9.27628 22.2112C9.27628 22.2112 9.71902 21.8779 9.77173 21.223C9.88792 21.374 10.038 21.4963 10.2809 21.5022C11.047 21.5228 11.0473 20.9712 11.0473 20.9712C11.0473 20.9712 9.25032 21.2369 10.0071 18.9702C10.7135 16.8492 12.3623 18.1046 11.9698 18.9099C11.9698 18.9099 12.9526 18.6351 12.7938 17.4372C12.6368 16.2375 10.4982 15.9445 9.94692 17.8095L9.8676 17.9737C10.3222 16.8291 10.866 14.7297 9.27628 13.6214ZM23.2532 13.9279V13.9307V16.9774V16.9802H20.6719H20.6607V19.0497V19.0525H23.2529V22.1019H25.3251V19.0525H25.3279H27.9175V16.9803H25.3252V13.9281H25.3224L23.2532 13.9279ZM17.1845 14.823L17.2365 15.0722C17.2197 15.16 17.2034 15.2691 17.1325 15.3158C17.0989 15.1943 17.0291 15.0731 16.9245 14.9928L16.9546 15.2391L16.7821 15.0667C16.8102 15.147 16.8912 15.2295 16.8724 15.3267L16.7355 15.2501L16.7984 15.3787C17.1684 15.431 17.6023 15.4006 17.9892 15.4417L18.0739 15.4061L17.9837 15.3787L18.0385 15.209C17.9301 15.2725 17.8208 15.4316 17.6881 15.3568L17.7674 15.1187C17.7095 15.2046 17.6479 15.3319 17.532 15.3431C17.5507 15.246 17.549 15.095 17.491 15.0147C17.4966 15.125 17.4398 15.252 17.3651 15.3267C17.3539 15.1417 17.3228 14.9501 17.1845 14.823ZM15.6215 15.0639L15.5229 15.2227L15.6625 15.2115L15.6215 15.0639ZM17.4281 19.5094C17.1422 19.5094 16.8678 19.7085 16.752 19.972C16.6885 19.8953 16.6893 19.7973 16.596 19.7393C16.4913 19.6815 16.2979 19.6815 16.2045 19.7393C16.4493 19.9505 16.5906 20.2522 16.5084 20.5605C16.4561 20.4839 16.4864 20.38 16.4509 20.2978C16.421 20.0716 16.2743 19.8306 16.0594 19.7503C15.9491 19.7727 15.8736 19.8785 15.8213 19.972C15.2738 19.8319 14.7769 20.0825 14.4499 20.5085C14.8348 20.7421 15.3955 20.5838 15.7693 20.8398C15.489 20.9145 15.2199 21.0093 14.9919 21.2093C14.6424 21.5681 14.422 22.0226 14.5211 22.5533C14.5677 22.6412 14.6081 22.7532 14.7127 22.7888C14.7781 22.4374 15.0105 22.1466 15.2273 21.8663L15.2329 21.8775C15.1506 22.0868 15.1691 22.3521 15.2028 22.5782C15.1393 22.7016 15.1148 22.8459 15.096 22.9861C15.0493 23.3524 15.0105 23.8579 15.1918 24.1905C15.4479 23.8411 15.6457 23.4642 15.8625 23.1148L15.8844 23.1312C15.7984 23.4993 15.9365 23.8244 16.0076 24.144H16.0705C16.2985 23.7067 16.4615 23.2375 16.6371 22.789L16.6124 22.9614C16.5788 23.5034 16.5721 24.1092 16.503 24.6586C16.5441 24.8268 16.5197 25.0144 16.5086 25.1732C16.4862 25.8665 16.4461 26.543 16.3882 27.2344C16.3812 27.6381 16.3522 27.9825 16.3334 28.3787C16.2531 28.5244 16.332 28.7469 16.2157 28.8796C16.1578 29.0721 16.0755 29.3057 16.2567 29.4626C16.3258 29.6439 16.5248 29.5502 16.6482 29.668C16.7883 29.6437 16.9111 29.5896 17.0232 29.5092C17.1279 29.3672 17.1849 29.1599 17.0971 28.9973C17.1493 28.816 16.9687 28.6969 17.0341 28.5101C16.9462 28.3829 17.0751 28.2367 17.004 28.1022C16.9629 27.4911 17.0392 26.8675 17.0152 26.249C17.0863 26.0565 17.0452 25.8073 17.0864 25.6167C17.0341 25.2186 17.174 24.8278 17.0976 24.4205C17.0696 24.2168 17.1088 24.0357 17.1223 23.8264C17.07 23.576 17.0871 23.2962 17.0703 23.0271L17.0867 22.8273C17.197 23.0142 17.3137 23.1956 17.4781 23.3638C17.6239 23.5096 17.7318 23.7165 17.9243 23.7744C18.0122 23.5053 17.9769 23.1188 17.9545 22.8273L18.0584 22.9614C18.221 23.1894 18.4903 23.2897 18.7537 23.3009C18.5314 22.8113 18.3445 22.3096 17.9353 21.8966L17.9409 21.891C18.2623 21.884 18.5557 22.143 18.6772 22.4084C18.7127 22.4868 18.6898 22.6027 18.7703 22.6438C18.9347 22.3691 18.9624 21.9717 18.8223 21.6802C19.0204 21.5587 19.1592 21.3591 19.148 21.1218C19.107 20.8116 18.8342 20.5725 18.5595 20.4566C18.2157 20.3165 17.8046 20.4146 17.5467 20.6537C17.4944 20.4332 17.5056 20.1942 17.5823 19.9831C17.6047 19.8952 17.6971 19.8214 17.7848 19.827H17.8724C17.7846 19.6589 17.615 19.5281 17.4281 19.5094Z" fill="#B6A560"/>
<path d="M8.28711 20.1672H10.2306V19.5393H8.28711V20.1672Z" fill="#B6A560"/>
<path d="M24.9844 18.6747H24.9882V18.6709H24.9844V18.6747Z" fill="#BDAD73"/>
<path d="M14.4209 12.9886L14.4489 12.9942L14.4844 12.9531L14.4209 12.9886Z" fill="#A4965F"/>
<path d="M14.2188 13.214L14.271 13.2252L14.2953 13.1729L14.2542 13.1505L14.2188 13.214Z" fill="#B6A560"/>
<path d="M14.5014 13.2596L14.3575 13.2764L14.3164 13.2652C14.335 13.1737 14.4603 13.2017 14.5014 13.2596Z" fill="#B6A560"/>
<path d="M14.6064 13.3633C14.5073 13.3745 14.4158 13.3465 14.3466 13.4156L14.3242 13.3932L14.4213 13.2997C14.468 13.352 14.5709 13.2774 14.6064 13.3633Z" fill="#B6A560"/>
<path d="M14.6396 13.9237L14.6919 14.0621L14.6583 13.8958L14.6396 13.9237Z" fill="#B6A560"/>
<path d="M14.7441 13.9758L14.7964 14.0207V13.9758L14.7441 13.9067V13.9758Z" fill="#B6A560"/>
<path d="M14.7098 14.114C14.6351 14.2709 14.8257 14.3513 14.6687 14.4653V14.5532L14.6295 14.5121C14.6183 14.4206 14.693 14.357 14.6799 14.2804L14.5548 14.5177L14.5361 14.3962C14.6576 14.3271 14.5416 14.1084 14.7098 14.114Z" fill="#B6A560"/>
<path d="M14.5653 14.1426C14.5597 14.2641 14.5075 14.3687 14.4494 14.4659L14.4326 14.4603C14.4326 14.3556 14.4606 14.264 14.4849 14.1669L14.5653 14.1426Z" fill="#B6A560"/>
<path d="M15.5342 14.4603L15.5244 14.5406L15.6328 14.4078L15.5342 14.4603Z" fill="#B6A560"/>
<path d="M16.7352 5.35141L16.5801 5.33459L16.7875 5.49156L16.9389 5.3103L16.823 5.36258L16.7463 5.15515L16.7352 5.35141Z" fill="#B6A560"/>
<path d="M17.1569 5.37502C17.1569 5.44412 16.9607 5.42169 17.071 5.51892L17.1625 5.55438V5.5712C17.041 5.53013 16.9027 5.58801 16.7869 5.6459L16.7813 5.7262L16.7178 5.62347L16.7364 5.55998C16.8915 5.59923 16.9719 5.41422 17.1101 5.36377L17.1569 5.37502Z" fill="#B6A560"/>
<path d="M16.6311 5.54205L16.4648 5.46735L16.4761 5.4375C16.5265 5.47296 16.648 5.44437 16.6311 5.54205Z" fill="#B6A560"/>
<path d="M17.0535 5.6344C16.99 5.73909 16.846 5.75031 16.8105 5.87733L16.8218 5.69793L17.0535 5.6344Z" fill="#B6A560"/>
<path d="M17.5212 6.26941C17.5324 6.38532 17.4165 6.32169 17.4053 6.26941H17.5212Z" fill="#B6A560"/>
<path d="M17.3418 6.40764L17.4389 6.43567L17.3642 6.36658L17.3418 6.40764Z" fill="#B6A560"/>
<path d="M17.25 6.48835H17.2742L17.2911 6.54063L17.3752 6.52381L17.2911 6.44714L17.25 6.48835Z" fill="#B6A560"/>
<path d="M17.2263 6.65651L17.301 6.60423L17.1982 6.52393L17.2263 6.65651Z" fill="#B6A560"/>
<path d="M14.0977 13.5312C14.0455 13.5593 14.0286 13.6396 13.9482 13.6228L14.0977 13.5312Z" fill="#B6A560"/>
<path d="M14.4844 13.6127V13.6463L14.5891 13.6014L14.4844 13.6127Z" fill="#B6A560"/>
<path d="M18.1063 9.65283C18.3324 9.81353 18.295 9.80045 18.3642 9.86212C18.4333 9.92379 18.5529 10.0583 18.5566 10.1723C18.558 10.2844 18.5398 10.3087 18.5809 10.3741L18.6688 10.49L18.7006 10.576L18.4801 10.6899L18.3119 10.789C18.267 10.8525 18.5212 11.0431 18.2913 11.0095C18.0614 10.9759 18.2983 11.4356 17.9138 10.8451C17.5289 10.2545 17.5401 10.0172 17.5401 10.0172L17.9381 9.66777" fill="#B6A560"/>
<path d="M56.4491 1.01587L55.3898 3.08804H56.2438L58.16 1.01587H56.4491ZM155.424 3.81619V12.9316C155.424 14.292 155.283 14.8942 154.632 15.053V15.1789H157.83V15.053C157.181 14.8942 157.039 14.292 157.039 12.9316V7.53624L164.555 15.6853H164.698V6.66303C164.698 5.30262 164.84 4.70316 165.489 4.54432V4.41846H162.294V4.54432C162.941 4.70316 163.083 5.30262 163.083 6.66303V12.0145L155.566 3.81619H155.424ZM128.442 3.87911L126.353 12.9808C126.037 14.3562 125.956 14.7689 125.291 15.053V15.1788H128.217V15.053C127.823 14.9745 127.697 14.7197 127.697 14.4973C127.697 14.0245 127.853 13.5485 127.949 13.0739L128.962 7.99335H128.994L132.364 15.4636H132.556L135.925 7.99335H135.958L136.971 13.0739C137.066 13.5485 137.223 14.0245 137.223 14.4973C137.223 14.7197 137.096 14.9745 136.7 15.053V15.1788H139.629V15.053C138.966 14.7689 138.887 14.3562 138.57 12.9808L136.481 3.87911H136.339L132.46 12.4388L128.584 3.87911H128.442ZM80.3955 4.13094L76.2183 13.375C75.6633 14.5934 75.4567 15.038 75.0139 15.053V15.1788H77.8771V15.053C77.6548 14.9745 77.4665 14.9411 77.4665 14.5767C77.4665 14.3076 77.5925 13.962 77.7047 13.6761L78.2905 12.2828H82.673L83.2752 13.7062C83.3537 13.9604 83.434 14.245 83.434 14.4973C83.434 14.8467 83.1026 15.038 82.9905 15.053V15.1788H86.1083V15.053C85.4749 14.7204 85.2851 14.3234 84.8273 13.2956L80.5981 4.13094H80.3955ZM38.7549 4.41837V4.54422C39.4052 4.70307 39.546 5.3034 39.546 6.66568V12.9315C39.546 14.2919 39.4052 14.896 38.7549 15.0529V15.1788H41.5716C43.9766 15.1788 48.2973 15.0192 48.2973 9.87653C48.2973 9.14774 48.2987 4.41825 42.6501 4.41825L38.7549 4.41837ZM52.9043 4.41837V4.54422C53.5527 4.70307 53.6954 5.3034 53.6954 6.66568V12.9315C53.6954 14.2919 53.5527 14.8941 52.9043 15.0529V15.1788H59.4712L59.7093 13.0738H59.5835C59.1873 13.6437 59.1071 13.9442 57.4757 13.9442H56.5121C55.4675 13.9442 55.3077 13.7553 55.3077 12.4715V10.0983H57.1609C58.5848 10.0983 58.6809 10.2255 59.077 10.9058H59.2029V8.00966H59.077C58.8397 8.4843 58.7287 8.86644 57.1609 8.86644H55.3077V5.6528H57.1609C58.8857 5.6528 59.0114 5.80932 59.359 6.41104H59.4877V4.41825L52.9043 4.41837ZM64.1876 4.41837V4.54422C64.8379 4.70307 64.9787 5.3034 64.9787 6.66568V12.9315C64.9787 14.2919 64.8379 14.896 64.1876 15.0529V15.1788H67.3849V15.0529C66.7364 14.896 66.5938 14.2919 66.5938 12.9315V5.81162C66.9731 5.73131 67.3683 5.68296 67.7626 5.68296C69.1716 5.68296 70.1715 6.25335 70.1715 7.53341C70.1715 8.7219 69.2197 9.43313 67.9378 9.43313C67.7154 9.43313 67.4954 9.41674 67.2562 9.41674L67.6531 10.6376C67.6531 10.7011 67.6541 10.7005 68.0035 10.7005C70.7243 10.7005 71.8303 9.1801 71.8303 7.44033C71.8303 4.6541 69.3464 4.4183 67.9542 4.4183L64.1876 4.41837ZM90.2363 4.41837V4.54422C90.8866 4.70307 91.0301 5.3034 91.0301 6.66568V12.9315C91.0301 14.2919 90.8866 14.896 90.2363 15.0529V15.1788H93.4335V15.0529C92.7851 14.896 92.6451 14.2919 92.6451 12.9315V5.76234C92.8825 5.73053 93.1332 5.68302 93.3705 5.68302C94.432 5.68302 96.3625 5.71595 96.3625 7.58274C96.3625 8.57876 95.6331 9.49889 93.8934 9.49889C93.7345 9.49889 93.5768 9.46638 93.4198 9.44956L93.2446 9.54542L96.4254 14.292C96.9954 15.146 97.0595 15.2583 98.3881 15.2583L99.2586 15.179V15.0366C98.6102 14.6722 98.6431 14.6566 98.1199 13.8979L95.6179 10.353C96.5037 10.1474 98.024 9.48147 98.024 7.42403C98.024 5.36659 97.0292 4.41842 93.8468 4.41842L90.2363 4.41837ZM102.946 4.41837L102.754 6.41117H102.883C103.215 5.85803 103.403 5.65291 104.876 5.65291H105.62V12.9315C105.62 14.292 105.477 14.896 104.826 15.053V15.1788H108.026V15.053C107.378 14.896 107.235 14.292 107.235 12.9315V5.65291H107.977C109.448 5.65291 109.64 5.85803 109.973 6.41117H110.098L109.91 4.41837H102.946ZM114.434 4.41837V4.54422C115.083 4.70307 115.228 5.3034 115.228 6.66568V12.9315C115.228 14.2919 115.083 14.8941 114.434 15.0529V15.1788H121.004L121.24 13.0738H121.114C120.717 13.6437 120.638 13.9442 119.009 13.9442H118.042C116.998 13.9442 116.841 13.7553 116.841 12.4715V10.0983H118.691C120.115 10.0983 120.211 10.2255 120.607 10.9058H120.733V8.00966H120.607C120.37 8.4843 120.259 8.86644 118.691 8.86644H116.841V5.6528H118.691C120.416 5.6528 120.544 5.80932 120.892 6.41104H121.018V4.41825L114.434 4.41837ZM143.68 4.41837V4.54422C144.329 4.70307 144.471 5.3034 144.471 6.66568V12.9315C144.471 14.2919 144.329 14.8941 143.68 15.0529V15.1788H150.247L150.485 13.0738H150.36C149.963 13.6437 149.886 13.9442 148.255 13.9442H147.288C146.244 13.9442 146.087 13.7553 146.087 12.4715V10.0983H147.937C149.361 10.0983 149.457 10.2255 149.853 10.9058H149.979V8.00966H149.853C149.614 8.4843 149.503 8.86644 147.937 8.86644H146.087V5.6528H147.937C149.662 5.6528 149.79 5.80932 150.138 6.41104H150.264V4.41825L143.68 4.41837ZM169.762 4.41837L169.57 6.41117H169.699C170.032 5.85803 170.219 5.65291 171.692 5.65291H172.436V12.9315C172.436 14.292 172.293 14.896 171.642 15.053V15.1788H174.842V15.053C174.192 14.896 174.051 14.292 174.051 12.9315V5.65291H174.793C176.266 5.65291 176.456 5.85803 176.789 6.41117H176.914L176.726 4.41837H169.762ZM42.5708 5.68303C44.5011 5.68303 46.6357 6.75965 46.6357 9.87665C46.6357 12.7264 44.8028 13.9142 42.8089 13.9142C41.1626 13.9142 41.161 13.6272 41.161 12.2499V5.81168C41.6357 5.74819 42.0961 5.68303 42.5708 5.68303ZM80.505 7.10918L82.1666 11.0482H78.827L80.505 7.10918ZM109.028 19.6381L107.254 27.3738C106.985 28.5436 106.917 28.8937 106.351 29.1367V29.2435H108.839V29.1367C108.503 29.0694 108.396 28.8546 108.396 28.6658C108.396 28.2622 108.53 27.8568 108.612 27.4532L109.472 23.1364H109.499L112.365 29.4843H112.524L115.393 23.1364H115.417L116.279 27.4532C116.36 27.8568 116.493 28.2622 116.493 28.6658C116.493 28.8546 116.386 29.0694 116.049 29.1367V29.2435H118.538V29.1367C117.973 28.8937 117.906 28.5436 117.637 27.3738L115.863 19.6381H115.74L112.444 26.9167L109.149 19.6381H109.028ZM154.602 19.6381L152.826 27.3738C152.557 28.5436 152.49 28.8937 151.925 29.1367V29.2435H154.414V29.1367C154.077 29.0694 153.97 28.8546 153.97 28.6658C153.97 28.2622 154.106 27.8568 154.186 27.4532L155.046 23.1364H155.073L157.939 29.4843H158.101L160.964 23.1364H160.991L161.854 27.4532C161.934 27.8568 162.067 28.2622 162.067 28.6658C162.067 28.8546 161.96 29.0694 161.624 29.1367V29.2435H164.112V29.1367C163.548 28.8937 163.48 28.5436 163.211 27.3738L161.437 19.6381H161.314L158.021 26.9167L154.723 19.6381H154.602ZM58.2613 19.8543C56.9831 19.8543 55.4774 20.6209 55.4774 22.3289C55.4774 25.0329 59.2987 24.7918 59.2987 26.7689C59.2987 27.6303 58.6253 28.4085 57.5359 28.4085C56.4202 28.4085 55.7608 27.7634 55.5047 27.4532H55.3979L55.5321 29.1066C56.1899 29.3233 56.822 29.4843 57.4948 29.4843C59.5914 29.4843 60.7112 28.3143 60.7112 26.7689C60.7112 23.5809 56.9029 24.1308 56.8898 22.1537C56.8898 21.5875 57.3874 20.9301 58.4638 20.9301C59.5252 20.9301 59.9843 21.509 60.2403 21.765H60.3471V20.0432H60.2403C60.2141 20.1105 60.0777 20.1362 59.9693 20.1362C59.8348 20.1362 58.9751 19.8543 58.2613 19.8543ZM70.1003 19.8543L66.5472 27.7105C66.0763 28.7458 65.9037 29.1209 65.5262 29.1339V29.2434H67.9597V29.1339C67.771 29.0667 67.6121 29.0417 67.6121 28.7315C67.6121 28.5036 67.7166 28.208 67.8119 27.9651L68.3101 26.7825H72.0356L72.5475 27.9925C72.6148 28.2092 72.6816 28.4482 72.6816 28.6631C72.6816 28.9584 72.3973 29.1209 72.3039 29.1339V29.2434H74.9536V29.1339C74.4155 28.8518 74.2547 28.5166 73.8642 27.6421L70.2728 19.8543H70.1003ZM99.0862 19.8543C97.808 19.8543 96.3023 20.6209 96.3023 22.3289C96.3023 25.0329 100.124 24.7918 100.124 26.7689C100.124 27.6303 99.4502 28.4085 98.3607 28.4085C97.2451 28.4085 96.5856 27.7634 96.3296 27.4532H96.2228L96.357 29.1066C97.0147 29.3233 97.6496 29.4843 98.3224 29.4843C100.419 29.4843 101.536 28.3143 101.536 26.7689C101.536 23.5809 97.7278 24.1308 97.7147 22.1537C97.7147 21.5875 98.2123 20.9301 99.2887 20.9301C100.352 20.9301 100.809 21.509 101.065 21.765H101.172V20.0432H101.065C101.039 20.1105 100.903 20.1362 100.794 20.1362C100.66 20.1362 99.8 19.8543 99.0862 19.8543ZM123.503 19.8543L119.95 27.7105C119.479 28.7458 119.307 29.1209 118.929 29.1339V29.2434H121.363V29.1339C121.174 29.0667 121.015 29.0417 121.015 28.7315C121.015 28.5036 121.12 28.208 121.215 27.9651L121.713 26.7825H125.439L125.951 27.9925C126.02 28.2092 126.085 28.4482 126.085 28.6631C126.085 28.9584 125.8 29.1209 125.707 29.1339V29.2434H128.357V29.1339C127.818 28.8518 127.658 28.5166 127.267 27.6421L123.676 19.8543H123.503ZM174.539 19.8543C173.26 19.8543 171.755 20.6209 171.755 22.3289C171.755 25.0329 175.573 24.7918 175.573 26.7689C175.573 27.6303 174.903 28.4085 173.813 28.4085C172.697 28.4085 172.038 27.7634 171.782 27.4532H171.675L171.809 29.1066C172.467 29.3233 173.101 29.4843 173.772 29.4843C175.872 29.4843 176.986 28.3143 176.986 26.7689C176.986 23.5809 173.18 24.1308 173.167 22.1537C173.167 21.5875 173.665 20.9301 174.741 20.9301C175.804 20.9301 176.259 21.509 176.515 21.765H176.624V20.0432H176.515C176.487 20.1105 176.355 20.1362 176.247 20.1362C176.112 20.1362 175.252 19.8543 174.539 19.8543ZM39.2531 20.0952V20.202C39.8043 20.3365 39.9265 20.8492 39.9265 22.0059V27.3328C39.9265 28.4895 39.8044 29.0022 39.2531 29.1367V29.2435H41.6483C43.6926 29.2435 47.3666 29.1106 47.3666 24.7378C47.3666 24.1193 47.3652 20.0953 42.5625 20.0953L39.2531 20.0952ZM48.5628 20.0952V20.2047C49.1141 20.3392 49.2362 20.8491 49.2362 22.0058V27.3327C49.2362 28.4894 49.1141 28.9993 48.5628 29.1339V29.2434H54.1443L54.3468 27.4531H54.24C53.9037 27.939 53.8364 28.1949 52.4498 28.1949H51.6286C50.741 28.1949 50.6076 28.0334 50.6076 26.944V24.9238H52.1816C53.3925 24.9238 53.4712 25.0344 53.8075 25.6136H53.917V23.15H53.8075C53.6057 23.5536 53.5139 23.8754 52.1816 23.8754H50.6076V21.1463H52.1816C53.6485 21.1463 53.754 21.2821 54.0512 21.7923H54.158V20.0951L48.5628 20.0952ZM75.7748 20.0952V20.202C76.3261 20.3365 76.4482 20.8492 76.4482 22.0059V27.3328C76.4482 28.5026 76.3283 29.0022 75.7639 29.1367V29.2435H80.8855L81.088 27.4807H80.9813C80.671 28.0581 80.4038 28.1924 79.5031 28.1924H78.534C77.9006 28.1924 77.8196 27.9644 77.8196 27.1029V22.0059C77.8196 20.8492 77.9417 20.3366 78.493 20.202V20.0952L75.7748 20.0952ZM81.8162 20.0952V20.202C82.3674 20.3365 82.4868 20.8492 82.4868 22.0059V27.3328C82.4868 28.4895 82.3674 29.0022 81.8162 29.1367V29.2435H84.5316V29.1367C83.9804 29.0022 83.8582 28.4895 83.8582 27.3328V21.2805C84.1815 21.2132 84.5183 21.1737 84.8546 21.1737C86.0525 21.1737 86.8994 21.6582 86.8994 22.7477C86.8994 23.7568 86.0919 24.36 85.0025 24.36C84.8137 24.36 84.6267 24.346 84.4249 24.346L84.7616 25.3834C84.7616 25.4377 84.7619 25.4382 85.0572 25.4382C87.3707 25.4382 88.3119 24.1453 88.3119 22.6653C88.3119 20.2976 86.2009 20.0949 85.0161 20.0949L81.8162 20.0952ZM89.3877 20.0952V20.2047C89.939 20.3392 90.0611 20.8491 90.0611 22.0058V27.3327C90.0611 28.4894 89.939 28.9993 89.3877 29.1339V29.2434H94.9719L95.1717 27.4531H95.0649C94.7286 27.939 94.6613 28.195 93.2747 28.195H92.4562C91.5686 28.195 91.4325 28.0334 91.4325 26.944V24.9238H93.0064C94.2174 24.9238 94.2988 25.0344 94.6352 25.6136H94.742V23.15H94.6352C94.4334 23.5537 94.3388 23.8754 93.0064 23.8754H91.4325V21.1463H93.0064C94.4734 21.1463 94.5789 21.2821 94.8761 21.7923H94.9829V20.0951L89.3877 20.0952ZM129.153 20.0952V20.202C129.704 20.3365 129.824 20.8492 129.824 22.0059V27.3328C129.824 28.4895 129.704 29.0022 129.153 29.1367V29.2435H131.869V29.1367C131.317 29.0022 131.195 28.4895 131.195 27.3328V21.2394C131.397 21.2114 131.612 21.1737 131.814 21.1737C132.717 21.1737 134.357 21.1995 134.357 22.786C134.357 23.6344 133.74 24.4147 132.26 24.4147C132.126 24.4147 131.99 24.3867 131.855 24.3737L131.707 24.453L134.412 28.4906C134.898 29.2157 134.948 29.3118 136.079 29.3118L136.821 29.2434V29.123C136.269 28.8128 136.294 28.7987 135.852 28.154L133.725 25.1402C134.478 24.9664 135.772 24.3991 135.772 22.6519C135.772 20.9028 134.923 20.0952 132.219 20.0952L129.153 20.0952ZM137.478 20.0952V20.2047C138.029 20.3392 138.151 20.8491 138.151 22.0058V27.3327C138.151 28.4894 138.029 28.9993 137.478 29.1339V29.2434H140.196V29.1339C139.644 28.9993 139.522 28.4894 139.522 27.3327V22.0058C139.522 20.8491 139.644 20.3392 140.196 20.2047V20.0952H137.478ZM141.351 20.0952L141.192 21.7924H141.299C141.581 21.3214 141.741 21.1463 142.993 21.1463H143.626V27.3328C143.626 28.4895 143.504 29.0013 142.952 29.1339V29.2434H145.67V29.1339C145.119 29.0012 144.997 28.4895 144.997 27.3328V21.1463H145.632C146.882 21.1463 147.042 21.3214 147.327 21.7924H147.433L147.272 20.0952H141.351ZM148.443 20.0952V20.2047C148.995 20.3392 149.114 20.8491 149.114 22.0058V27.3327C149.114 28.4894 148.995 28.9993 148.443 29.1339V29.2434H151.159V29.1339C150.608 28.9993 150.488 28.4894 150.488 27.3327V22.0058C150.488 20.8491 150.608 20.3392 151.159 20.2047V20.0952H148.443ZM164.84 20.0952V20.2047C165.391 20.3392 165.513 20.8491 165.513 22.0058V27.3327C165.513 28.4894 165.391 28.9993 164.84 29.1339V29.2434H170.422L170.624 27.4531H170.517C170.181 27.939 170.112 28.195 168.727 28.195H167.906C167.018 28.195 166.885 28.0334 166.885 26.944V24.9238H168.459C169.67 24.9238 169.748 25.0344 170.085 25.6136H170.194V23.15H170.085C169.883 23.5537 169.791 23.8754 168.459 23.8754H166.885V21.1463H168.459C169.926 21.1463 170.033 21.2821 170.328 21.7923H170.435V20.0951L164.84 20.0952ZM42.4968 21.1737C44.1376 21.1737 45.9541 22.0879 45.9541 24.7377C45.9541 27.1596 44.3943 28.1677 42.6994 28.1677C41.2998 28.1677 41.2979 27.925 41.2979 26.7552V21.2805C41.7015 21.2282 42.0932 21.1737 42.4968 21.1737ZM70.1934 22.3836L71.6059 25.7314H68.7672L70.1934 22.3836ZM123.596 22.3836L125.009 25.7314H122.17L123.596 22.3836ZM102.595 25.3838V26.3911H105.598V25.3838H102.595Z" fill="#241E20"/>
</svg>
