<svg xmlns="http://www.w3.org/2000/svg" width="564" height="512" fill="none"><g clip-path="url(#a)"><path fill="#91BFFF" d="M92.355 302.632c0-103.305 84.078-187.041 187.802-187.041 103.725 0 187.803 83.736 187.803 187.041 0 103.306-84.078 187.041-187.803 187.041-21.556 0-42.266-3.622-61.556-10.277-40.985-14.156-75.527-42.055-98.069-78.164-17.872-28.627-28.177-62.412-28.177-98.6Z"/><mask id="b" width="322" height="322" x="119" y="172" maskUnits="userSpaceOnUse" style="mask-type:luminance"><path fill="#fff" d="M119.625 333.209c0-88.599 71.882-160.403 160.532-160.403s160.532 71.804 160.532 160.403c0 88.598-71.882 160.402-160.532 160.402-18.424 0-36.138-3.091-52.611-8.821-35.034-12.128-64.571-36.069-83.822-67.019-15.271-24.552-24.099-53.533-24.099-84.562Z"/></mask><g mask="url(#b)"><path fill="#297EF2" d="m211.192 451.537 40.099 8.899 30.561 6.221 28-6.221 29.321-22.032v14.117l11.152 20.89 5.656 9.942L223.724 512l-5.202-19.098-5.339-25.457-1.991-15.908Z"/><path fill="#297EF2" d="M225.379 498.021c-3.133-14.51-6.482-28.902-6.739-43.807-.098-6.142-9.655-6.162-9.556 0 .256 15.771 3.744 31.01 7.074 46.347 1.3 6.025 10.522 3.465 9.221-2.54Zm129.399-25.103c-4.749-10.06-14.306-19.826-14.325-31.462 0-6.714-10.424-6.714-10.404 0 0 13.999 10.069 24.65 15.744 36.7 2.857 6.064 11.822.787 8.985-5.238Z"/><path fill="#579EFF" d="M297.261 491.268c-9.301-6.221-12.71-13.014-12.887-22.425-.158-8.84-12.946-11.301-20.079-7.442-2.207-.945-4.808-1.339-7.389-1.221-1.931-3.288-5.774-5.651-11.054-5.651-2.247 0-4.513.571-6.522 1.516-1.813-3.071-5.813-4.666-10.03-4.843-6.857-5.119-21.458-2.993-21.281 6.517.217 11.616 3.586 22.898 11.33 32.939 1.242 1.614 2.818 2.697 4.532 3.445.335.433.611.906.966 1.319 5.951 6.99 17.793 4.765 21.951-.63.019.04.039.059.059.099 2.305 3.583 6.128 4.942 9.97 4.823.355.512.69 1.024 1.025 1.536 4.492 6.556 13.99 5.651 19.231 1.536.887.669 1.695 1.358 2.66 1.988 12 8.033 29.596-5.414 17.498-13.506h.02Z"/></g><path fill="#fff" d="m200.236 389.478 18.286 2.776 30.286 11.144 27.724-3.583 27.606-14.334 9.162-13.9-3.448-33.293-8.414-35.144 3.902-25.457 7.96-30.242 5.163-24.394-15.113-6.615-12.434 6.615-10.305 12.424-5.439 17.562-7.625 20.515-18.739 2.54-22.66 8.761-1.852 6.143-8.138-3.367-15.922 5.179-14.344 12.325-3.587 13.88-7.172 5.828-5.576 13.447v15.318l9.162 6.713 10.562 4.883 3.783 13.94 7.172 10.336Z"/><path fill="#fff" d="M243.251 387.47c-3.567-5.533-8.828-10.967-9.044-17.858-.197-6.379-5.439-9.43-10.385-9.174-.926-1.576-2.305-2.698-3.881-3.426 4.61-.807 6.778-4.981 6.541-9.234 3.291-3.367 4.296-8.702-.256-12.758-4.157-3.721-7.684-6.498-7.941-12.345-.295-6.458-.689-13.546 2.286-19.452 5.517-10.967-10.956-20.634-16.492-9.648-.079.138-.119.276-.197.414-2.799-.709-5.932-.217-8.67 2.303-9.064 8.309-11.626 20.22-10.877 31.955-5.636-2.442-13.774.315-13.833 8.348-.039 7.796.197 15.829 6.069 21.696 4.453 4.45 11.015 6.222 17.281 6.754a9.24 9.24 0 0 0-.65 3.386c.059 6.714 1.615 12.699 5.281 18.35 2.837 4.351 8.413 6.143 13.064 3.426.118-.059.197-.158.315-.237.63.926 1.281 1.831 2.049 2.717 2.719 3.151 7.468 3.446 11.054 1.694a723.6 723.6 0 0 0 1.793 2.736c6.66 10.297 23.192.748 16.493-9.627v-.02Zm-35.882-27.328c-.394-.236-.808-.413-1.241-.59.512-1.379.729-2.895.65-4.391a57.395 57.395 0 0 0 5.734 1.339c-2.069.61-3.941 1.772-5.143 3.642Z"/><path fill="#297EF2" d="M560.434 230.257c-5.025-17.838-17.084-31.62-31.133-42.999-6.089-4.923-15.744-11.065-25.833-14.334-23.093-7.442-44.039-13.939-68.492-8.072-26.759 6.418-51.015 25.477-66.227 47.882-14.345 21.107-15.961 45.816-5.143 68.595 8.02 16.913 21.143 28.391 36.434 36.739-1.754 3.249-8.493 12.817-22.404 9.706-1.774-.393-4.158.178-4.71 2.757-1.103 1.575.178 3.78 2.365 4.922 22.483 11.636 51.054 17.031 70.561-.945 37.124 6.162 81.912-2.697 105.183-32.84 14.542-18.842 15.586-49.478 9.418-71.371l-.019-.04ZM18.305 281.546c19.803 25.438 57.734 32.762 89.143 27.406 16.591 15.141 40.749 10.455 59.724.532 1.853-.965 2.917-2.835 1.991-4.174-.473-2.185-2.503-2.658-4-2.303-11.744 2.677-17.498-5.375-18.996-8.132 12.907-7.127 23.961-16.873 30.7-31.226 9.064-19.314 7.606-40.223-4.631-58.022C159.271 186.726 138.66 170.7 116 165.364c-20.71-4.883-38.404.689-57.931 7.088-8.532 2.796-16.69 8.053-21.813 12.227-11.842 9.667-22.01 21.381-26.187 36.502-5.143 18.547-4.138 44.476 8.236 60.365Zm136.257-170.837c13.142 32.151 48.926 56.211 91.29 56.447 5.261 9.194 13.793 22.307 41.675 26.048 2.168.295 4.296-.118 4.512-1.831 1.183-2.028-.059-3.84-1.458-4.627-11.034-6.281-9.734-16.617-8.946-19.807 15.074 3.662 30.601 3.958 46.03-2.382 20.788-8.545 34.542-25.792 37.754-48.276 3.409-23.863-1.163-50.954-14.916-71.214-12.592-18.507-30.286-26.776-49.971-35.695-8.611-3.898-18.66-5.63-25.635-6.025-16.079-.925-49.813-11.36-82.247 10.238-37.438 24.946-55.251 55.148-38.088 97.124Zm107.113 160.914c-23.311-.394-37.459 6.694-47.311 28.548-6.896 15.318-4.217 37.251 11.862 45.185 5.498 2.717 10.345-5.513 4.828-8.249-15.113-7.482-11.33-27.604-4.65-39.614 8.138-14.667 19.921-16.597 35.29-16.341 6.168.098 6.148-9.431 0-9.549l-.019.02Z"/><path fill="#B3D3FF" d="M254.483 311.394c-12.02.925-15.843 11.675-15.921 22.267-.04 6.163 9.517 6.143 9.556 0 .04-4.587.394-12.266 6.365-12.738 6.108-.473 6.148-10.022 0-9.549v.02Z"/><path fill="#297EF2" d="m196.236 392.392 14.562-1.299 42.621 12.305 31.468-6.162 30.798-19.689 7.645 2.638 17.301 56.762-30.779 23.489-52.867 3.032-45.793-11.931-14.956-5.041L192 412.022l4.236-19.63Z"/><path fill="#297EF2" d="M343.093 431.159c-1.734-4.942-3.862-11.301-5.28-16.302-2.286-8.151-4.729-14.392-6.956-22.603-2.443-9.096-2.936-18.901-13.813-20.613-6.029-.965-8.611 8.249-2.542 9.194 7.449 1.181 9.971 23.843 12.493 30.045 3.409 8.348 4.355 17.385 7.527 25.733-11.271 12.423-26.227 23.094-43.192 24.413-17.517 1.379-34.503-4.646-51.547-7.757-5.557-1.024-39.212-7.029-39.803-13.821-.453-5.119-4.611-42.232 1.852-44.831 5.636-2.264 3.173-11.518-2.542-9.214-13.832 5.572-9.379 23.094-9.32 35.124.059 9.017-1.103 19.256 2.739 27.584 2.404 5.217 14.759 5.985 19.311 7.442 23.093 7.403 49.694 14.983 74.029 15.101 23.626.118 41.163-12.167 57.025-29.336 2.581-2.796 1.221-6.655-.04-10.179l.059.02Z"/><path fill="#fff" d="M311.704 318.678c-6.108-15.593-4.256-33.175 1.478-48.67.433-1.142 1.162-3.229 1.931-5.513 4.492-13.014 15.488-35.36 1.182-47.429-12.709-10.73-31.862 1.201-36.453 14.156-2.069 5.828 7.172 8.289 9.202 2.54 4.276-12.089 23.645-15.948 24.532.059.571 10.139-5.833 20.436-8.217 30.104a4.845 4.845 0 0 0-1.103 1.771c-5.084 13.369-5.872 26.875-5.478 41.051.177 6.537 2.975 12.66 5.32 18.645 3.153 8.053 3.902 17.385 4.236 25.91.079 5.434.611 10.947-.137 16.361-.69 4.863-2.247 9.451-2.503 14.412-.335 6.163 9.222 6.123 9.557 0 .276-5.237 2.266-10.159 2.64-15.376.375-5.139.079-10.238 0-15.377-.453-11.203-2.108-22.169-6.207-32.624l.02-.02Z"/><path fill="#297EF2" d="M221.025 282.747c-19.646.157-36.513 11.498-41.261 31.561-4.256 18.015 4.689 34.75 21.675 40.656 5.832 2.028 8.315-7.186 2.541-9.214-13.497-4.705-19.093-20.771-13.458-33.963 5.656-13.25 16.651-19.412 30.503-19.511 6.167-.039 6.167-9.588 0-9.549v.02Z"/><path fill="#B3D3FF" d="M261.675 271.623c-23.311-.394-37.459 6.694-47.311 28.548-6.896 15.318-4.217 37.251 11.862 45.185 5.498 2.717 10.345-5.513 4.828-8.249-15.113-7.482-11.33-27.604-4.65-39.614 8.138-14.667 19.921-16.597 35.29-16.341 6.168.098 6.148-9.431 0-9.549l-.019.02Z"/><path fill="#B3D3FF" d="M282.581 225.65c-16.847 24.571-22.857 53.297-24.118 82.416-.256 6.143 9.281 6.655 9.557.512 1.182-27.288 6.758-54.636 22.561-77.671 3.488-5.08-4.512-10.317-7.98-5.237l-.02-.02ZM222.7 351.342c-4.276-.906-8.69-1.713-12.808-3.269-.808-.315-5.36-2.106-5.912-2.284-13.497-4.705-19.093-20.771-13.458-33.962 5.656-13.251 16.651-19.413 30.503-19.512 6.167-.039 6.167-9.588 0-9.549-19.646.158-36.513 11.499-41.261 31.561-4.256 18.015 4.689 34.75 21.675 40.657.394.138.788.217 1.142.256.04.02.06.039.099.059 5.576 2.638 11.468 3.977 17.458 5.257 6.01 1.28 8.572-7.915 2.542-9.214h.02Z"/><path fill="#B3D3FF" d="M285.97 335.315c-5.517-1.634-10.207-4.528-15.901-5.749-5.183-1.122-10.917-.709-16.178-.669-10.522.059-21.931 2.343-29.655 9.903-5.162 5.06-6.108 15.849-2.542 21.913 4.197 7.167 13.36 8.23 20.808 8.644 6.168.334 6.128-9.215 0-9.549-4.965-.256-12.473-.197-13.281-6.891-1.339-11.164 12.808-13.487 20.769-14.294 5.143-.512 10.424-.177 15.586-.04 6.503.178 11.783 4.115 17.833 5.927 5.911 1.772 8.433-7.443 2.541-9.215l.02.02Z"/><path fill="#B3D3FF" d="M273.852 364.828c-9.34-4.528-19.271-5.02-29.477-5.02-6.148 0-6.148 9.549 0 9.549 8.374 0 16.965 0 24.669 3.721 5.518 2.677 10.365-5.552 4.828-8.25h-.02Z"/><path fill="#fff" d="m410.7 231.045-18.798-5.749c-6.818-2.087-10.049 8.485-3.232 10.572l18.798 5.75c6.818 2.086 10.05-8.486 3.232-10.573Z"/><path fill="#91BFFF" d="M437.616 189.069c-3.034-3.702-6.128-7.305-9.596-10.632-5.123-4.922-13.261 2.54-8.138 7.482 3.449 3.327 6.562 6.93 9.597 10.631 4.532 5.533 12.61-2.008 8.137-7.481Z"/><path fill="#fff" d="M524.217 190.467c-2.109-1.969-5.872-2.067-7.823.236-2.916 3.505-5.912 7.029-8.158 11.006-3.488 6.222 6.227 11.478 9.714 5.257 1.794-3.17 4.178-5.926 6.503-8.702 1.931-2.304 2.049-5.651-.236-7.797Z"/><path fill="#91BFFF" d="M536.433 243.448c-6.305.099-12.473.453-18.64 1.713-6.975 1.418-3.842 12.03 3.113 10.613 5.202-1.064 10.424-1.182 15.705-1.261 7.133-.098 6.975-11.163-.158-11.045l-.02-.02Z"/><path fill="#fff" d="M524.473 298.36c-4.985-1.989-9.32-5.218-14.305-7.187-6.621-2.638-11.212 7.423-4.591 10.061 4.985 1.989 9.34 5.198 14.305 7.186 6.621 2.639 11.212-7.402 4.591-10.041v-.019Z"/><path fill="#91BFFF" d="M411.035 274.379c-1.163-2.658-4.572-4.213-7.271-2.874-4.039 2.008-8.059 4.154-11.488 7.127-2.266 1.969-2.857 5.316-.926 7.757 1.813 2.284 5.478 2.894 7.764.925 2.758-2.382 5.793-4.036 9.044-5.65 2.7-1.339 4.118-4.391 2.877-7.265v-.02Z"/><mask id="c" width="157" height="100" x="188" y="371" maskUnits="userSpaceOnUse" style="mask-type:luminance"><path fill="#fff" d="M342.818 431.632c-1.754-4.962-2.562-10.297-3.98-15.318-2.286-8.151-5.754-15.849-7.961-24.04-2.443-9.096-2.936-18.901-13.813-20.614-5.024-.807-7.645 5.454-4.847 8.112l-27.31 17.483-31.488 6.163-42.621-12.305-6.049.551c1.182-3.426-1.241-7.875-5.419-6.202-13.832 5.572-10.837 22.406-10.778 34.435.059 9.018.374 19.945 4.197 28.273 2.404 5.217 14.759 5.985 19.31 7.442 23.094 7.403 49.695 14.983 74.03 15.101 23.626.118 42.305-11.557 57.025-29.336 2.423-2.933.847-6.891-.335-9.706l.039-.039Z"/></mask><g mask="url(#c)"><path fill="#579EFF" d="M275.507 465.043c-10.581-17.286-12.867-36.542-13.024-56.447-.059-6.773-5.852-9.805-11.054-9.116-2.266-1.752-5.34-2.677-8.296-2.205-2.128-2.008-5.103-2.717-7.763-1.988-3.114-2.639-7.882-2.54-10.818.374-.178-8.801-10.345-12.778-14.522-6.714.098-.748.177-1.477.236-2.264.926-10.73-11.586-11.971-15.428-3.977-2.68 1.437-4.966 4.371-6.247 8.426-1.143 3.643-.985 8.171-.985 11.991v23.331c0 3.189.059 5.552 1.675 7.088l1.064 10.415c0 3.859 1.616 6.477 3.823 7.915.61 1.712 1.773 3.228 3.684 4.311 8.926 5.06 18.247 8.033 27.823 10.947 7.704 2.323 15.094 5.493 22.759 7.876.335.689.689 1.358 1.005 2.047 3.231 6.655 10.443 5.789 14.522 1.674 7.29 2.402 16.65-5.316 11.527-13.684h.019Z"/></g><path fill="#91BFFF" d="M308.059 377.685c-12.532 9.017-28.512 18.586-43.704 22.051a4.103 4.103 0 0 0-.907.315c-11.369-.256-20.02-4.312-30.502-8.939-7.527-3.327-16.316-3.799-24.454-3.996-7.33-2.639-11.251-14.353-11.33-21.225-.059-6.162-9.615-6.162-9.556 0 .118 11.4 7.212 28.805 19.96 30.852.651.099 2.621.138 3.192.04 12.06.472 20.473 3.721 31.39 8.82 7.684 3.583 13.596 3.721 21.931 3.721 3.054 0 5.182-.846 8.197-1.87 14.207-4.765 28.926-13.113 40.63-21.539 4.946-3.564.197-11.853-4.827-8.25l-.02.02Z"/><path fill="#B3D3FF" d="M203.054 352.188c-4.354 4.489-8.788 9.746-15.783 8.329-3.921-.808-8.985-3.249-11.389-6.498-2.266-3.071-.808-12.738-.69-16.439.197-6.379 4.079-11.439 9.517-14.491 5.38-2.993.572-11.242-4.827-8.25-6.995 3.899-12.335 10.573-13.872 18.508-1.498 7.777-2.128 20.397 2.818 27.091 4.138 5.592 12.098 8.505 18.66 9.844 9.024 1.851 16.67-5.493 22.325-11.34 4.276-4.43-2.463-11.183-6.759-6.754Z"/><path fill="#91BFFF" d="M300.039 462.149c-1.359-2.304-4.236-2.934-6.542-1.713-.177.079-1.044.315-1.083.354-.217 0-.65.04-1.143.079-.985.059-4.237.315-5.064.315-15.705.039-31.035-5.06-46.384-7.875-4.493-.827-24.434-6.005-35.311-9.687-4.611-1.555-13.399-3.583-14.423-7.068-2.601-8.762-6.168-1.969-7.429-1.26-1.537-.158-2.897.63-3.803 1.811-5.222-1.28-9.34 6.222-3.98 8.505 5.931 2.521 11.231 5.08 16.492 8.762 3.429 2.402 16.71 9.824 16.71 4.981 0-2.717-.059-4.686 4-3.741 23.625 5.454 49.694 14.983 74.029 15.101a63.26 63.26 0 0 0 6.72-.354c.965-.099 2.738-.591 2.738-.591.927-.256 1.853-.571 2.779-1.063 2.305-1.221 2.995-4.351 1.714-6.536l-.02-.02Z"/><path fill="#fff" d="m487.783 212.262-34.384-6.438c-5.005-.926-9.813 2.362-10.739 7.343l-12.887 68.772c-.926 5.001 2.365 9.805 7.35 10.731l34.404 6.438c5.005.925 9.813-2.363 10.739-7.344l12.887-68.772c.945-5.001-2.365-9.805-7.35-10.73h-.02Zm-28.847 75.328c-1.577 1.083-3.724.67-4.808-.906a3.45 3.45 0 0 1-.532-2.598 3.463 3.463 0 0 1 1.438-2.206 3.565 3.565 0 0 1 4.789.906 3.449 3.449 0 0 1-.887 4.804Zm18.857-9.588-38.916-7.285 9.95-53.139 38.917 7.284-9.951 53.14Zm-335.547-15.554a3.718 3.718 0 0 0-3.901-2.402l-81.478 9.647a3.683 3.683 0 0 0-3.231 3.229l-.611 4.824a3.375 3.375 0 0 0 2.916 3.741c.256.02.512.039.768 0l84.533-10.002c1.832-.216 3.172-1.87 2.955-3.721a3.661 3.661 0 0 0-.197-.807l-1.754-4.529v.02Zm-74.482-37.644a1.806 1.806 0 0 0-1.045-2.324 1.858 1.858 0 0 0-.867-.098l-11.665 1.378a1.793 1.793 0 0 0-1.576 1.989c.04.275.138.551.296.787l2.226 4.903 3.153 26.579-1.005 5.336a1.812 1.812 0 0 0 1.084 2.303c.276.099.551.118.827.099l11.665-1.378a1.794 1.794 0 0 0 1.577-1.989 1.99 1.99 0 0 0-.276-.768l-2.227-4.902-3.153-26.619 1.005-5.277-.02-.019Zm20.749-2.461a1.806 1.806 0 0 0-1.045-2.324c-.276-.098-.571-.137-.867-.098l-11.665 1.378a1.793 1.793 0 0 0-1.576 1.989c.04.275.138.551.295.787l2.227 4.903 3.153 26.579-1.005 5.336a1.796 1.796 0 0 0 1.084 2.303c.256.099.551.118.827.099l11.665-1.378a1.794 1.794 0 0 0 1.576-1.989 2.215 2.215 0 0 0-.275-.788l-2.227-4.902-3.153-26.619 1.005-5.276h-.02Zm21.911-2.599a1.805 1.805 0 0 0-1.045-2.324 1.858 1.858 0 0 0-.867-.098L96.847 218.7a1.793 1.793 0 0 0-1.576 1.989c.04.275.138.551.296.787l2.226 4.903 3.153 26.579-1.025 5.336a1.812 1.812 0 0 0 1.084 2.303c.256.099.532.119.828.099l11.665-1.378a1.793 1.793 0 0 0 1.576-1.989c-.039-.276-.118-.551-.276-.768l-2.207-4.902-3.152-26.619 1.005-5.277-.02-.019Zm21.694-2.579a1.806 1.806 0 0 0-1.044-2.324 1.847 1.847 0 0 0-.867-.098l-11.645 1.378a1.794 1.794 0 0 0-1.577 1.989c.04.275.138.551.296.787l2.227 4.903 3.152 26.579-1.005 5.336a1.796 1.796 0 0 0 1.084 2.303c.256.099.552.118.828.099l11.665-1.379a1.793 1.793 0 0 0 1.576-1.988 1.65 1.65 0 0 0-.276-.788l-2.207-4.902-3.152-26.619 1.005-5.276h-.06Zm2.109-7.187-85.044 10.061a2.21 2.21 0 0 1-2.444-1.929 2.219 2.219 0 0 1 .808-1.969l37.498-30.301a5.965 5.965 0 0 1 6.305-.748l43.566 20.732a2.188 2.188 0 0 1 1.025 2.933 2.223 2.223 0 0 1-1.714 1.221Zm-38.877-8.899c-.355-2.875-2.956-4.942-5.852-4.587-2.877.354-4.946 2.953-4.591 5.847a5.261 5.261 0 0 0 5.832 4.587c2.877-.334 4.946-2.953 4.591-5.827l.02-.02Zm-69.537 13.545-18.798-5.749c-6.818-2.087-10.05 8.486-3.231 10.573l18.798 5.749c6.817 2.087 10.049-8.486 3.231-10.573Z"/><path fill="#91BFFF" d="M52.729 172.649c-3.035-3.702-6.128-7.305-9.596-10.632-5.123-4.922-13.261 2.54-8.138 7.482 3.448 3.327 6.561 6.93 9.596 10.631 4.532 5.533 12.61-2.008 8.138-7.481Zm-26.581 85.329c-1.143-2.657-4.571-4.213-7.27-2.874-4.04 2.008-8.06 4.154-11.488 7.127-2.266 1.969-2.858 5.316-.927 7.757 1.813 2.284 5.478 2.895 7.764.926 2.759-2.382 5.793-4.036 9.044-5.651 2.7-1.339 4.119-4.39 2.877-7.265v-.02Z"/><path fill="#fff" fill-rule="evenodd" d="M280.199 63.723a6 6 0 0 1 6 6v71.764h-48.641V69.723a6 6 0 0 1 6-6h36.641Zm-23.185 58.323v-9.72h-9.728v9.72h9.728Zm0-19.441v-9.72h-9.728v9.72h9.728Zm0-19.44v-9.721h-9.728v9.72h9.728Zm19.457 0v-9.721h-9.728v9.72h9.728Zm0 19.44v-9.72h-9.728v9.72h9.728Zm0 19.441v-9.72h-9.728v9.72h9.728Zm14.593-38.882h18.32a6 6 0 0 1 6 6v52.323h-24.32V83.164Zm17.024 38.882v-9.72h-9.728v9.72h9.728Zm0-19.441v-9.72h-9.728v9.72h9.728Z" clip-rule="evenodd"/><path fill="#fff" d="m218.009 58.672-16.177-11.163c-5.872-4.056-12.158 5.04-6.286 9.096l16.178 11.163c5.872 4.056 12.157-5.04 6.285-9.096Z"/><path fill="#91BFFF" d="M256.393 26.816c-1.753-4.45-3.625-8.82-5.911-13.034-3.389-6.241-13.419-1.595-10.01 4.686 2.286 4.213 4.158 8.584 5.911 13.034 2.641 6.635 12.631 1.91 10.01-4.686Z"/><path fill="#fff" d="M306.522 9.55c-2.817-.611-6.108 1.24-6.581 4.212-.709 4.49-1.478 9.057-1.34 13.625.197 7.127 11.232 6.655 11.054-.473-.098-3.642.552-7.225 1.104-10.809.473-2.973-1.143-5.906-4.217-6.576l-.02.02Z"/><path fill="#91BFFF" d="M344.236 48.749c-5.359 3.327-10.463 6.773-15.133 11.025-5.261 4.804 2.877 12.286 8.119 7.502 3.901-3.584 8.335-6.36 12.827-9.155 6.069-3.76.237-13.152-5.813-9.392v.02Z"/></g><defs><clipPath id="a"><path fill="#fff" d="M0 0h564v512H0z"/></clipPath></defs></svg>