<svg width="129" height="52" viewBox="0 0 129 52" fill="none" xmlns="http://www.w3.org/2000/svg">
<path d="M47.0371 36.7092C47.0833 36.7092 47.122 36.7464 47.122 36.7941V37.3691C47.122 40.0716 45.8884 41.2307 43.9562 41.2307C42.0239 41.2307 40.7412 40.0716 40.7412 37.3691V36.3352C40.7412 33.5702 42.0373 32.4126 43.9562 32.4126C45.668 32.4126 46.7689 33.3482 47.0684 35.0912C47.0773 35.1434 47.0371 35.1911 46.9849 35.1911H45.7559C45.7171 35.1911 45.6829 35.1628 45.6739 35.1255C45.4519 34.172 44.9067 33.6715 43.9562 33.6715C42.809 33.6715 42.1863 34.4193 42.1863 36.2741V37.3706C42.1863 39.2269 42.809 39.9733 43.9562 39.9733C45.1033 39.9733 45.595 39.3327 45.6992 37.9919C45.6992 37.98 45.6903 37.968 45.6784 37.968H44.0783C44.0322 37.968 43.9934 37.9308 43.9934 37.8831V36.7941C43.9934 36.7479 44.0307 36.7092 44.0783 36.7092H47.0371Z" fill="#E4002B"/>
<path d="M53.0852 41.0579L51.4613 37.6403C51.4613 37.6403 51.4509 37.6284 51.442 37.6284H49.8106C49.7987 37.6284 49.7898 37.6373 49.7898 37.6492V41.0206C49.7898 41.0668 49.7525 41.1056 49.7049 41.1056H48.4326C48.3864 41.1056 48.3477 41.0683 48.3477 41.0206V32.6197C48.3477 32.5735 48.3849 32.5348 48.4326 32.5348H51.2691C53.2446 32.5348 54.426 33.3914 54.426 35.0928C54.426 36.2637 53.8748 37.0191 52.8945 37.3826C52.8826 37.387 52.8766 37.4005 52.8826 37.4109L54.6391 40.9819C54.6674 41.0385 54.6256 41.1041 54.5631 41.1041H53.1612C53.1284 41.1041 53.0986 41.0847 53.0852 41.0564V41.0579ZM51.1693 36.3859C52.388 36.3859 52.9839 36.0626 52.9839 35.0943C52.9839 34.1259 52.388 33.7907 51.1693 33.7907H49.8106C49.7987 33.7907 49.7898 33.7996 49.7898 33.8115V36.365C49.7898 36.377 49.7987 36.3859 49.8106 36.3859H51.1693Z" fill="#E4002B"/>
<path d="M55.7089 40.9938L58.6333 32.5929C58.6452 32.5586 58.6765 32.5363 58.7138 32.5363H59.9607C59.9965 32.5363 60.0292 32.5586 60.0412 32.5929L62.9656 40.9938C62.985 41.0489 62.9433 41.1055 62.8852 41.1055H61.5369C61.5012 41.1055 61.4684 41.0817 61.4565 41.0474L60.8963 39.3446C60.8933 39.3357 60.8859 39.3297 60.8769 39.3297H57.8124C57.8035 39.3297 57.7946 39.3357 57.7931 39.3446L57.2329 41.0474C57.221 41.0817 57.1897 41.1055 57.1525 41.1055H55.7908C55.7327 41.1055 55.6925 41.0489 55.7103 40.9938H55.7089ZM58.2221 38.0887H60.4509C60.4658 38.0887 60.4747 38.0753 60.4702 38.0604L59.3559 34.683C59.3499 34.6637 59.3216 34.6637 59.3156 34.683L58.2013 38.0604C58.1968 38.0738 58.2072 38.0887 58.2206 38.0887H58.2221Z" fill="#E4002B"/>
<path d="M70.2077 32.6212V41.0221C70.2077 41.0683 70.1705 41.107 70.1228 41.107H68.9757C68.9459 41.107 68.9191 41.0921 68.9027 41.0653L65.4747 35.3475C65.4642 35.3296 65.4359 35.3371 65.4359 35.3579V41.0221C65.4359 41.0683 65.3987 41.107 65.351 41.107H64.1279C64.0817 41.107 64.043 41.0698 64.043 41.0221V32.6212C64.043 32.575 64.0802 32.5363 64.1279 32.5363H65.2378C65.2676 32.5363 65.2944 32.5512 65.3108 32.578L68.776 38.3703C68.7865 38.3882 68.8148 38.3807 68.8148 38.3599V32.6212C68.8148 32.575 68.852 32.5363 68.8997 32.5363H70.1228C70.169 32.5363 70.2077 32.5735 70.2077 32.6212Z" fill="#E4002B"/>
<path d="M71.4668 41.0221V32.6212C71.4668 32.575 71.504 32.5363 71.5517 32.5363H74.363C76.2893 32.5363 77.5809 33.5672 77.5809 36.3114V37.3304C77.5809 40.0746 76.2878 41.1055 74.363 41.1055H71.5517C71.5055 41.1055 71.4668 41.0683 71.4668 41.0206V41.0221ZM76.1388 37.3304V36.3114C76.1388 34.5475 75.592 33.7907 74.3615 33.7907H72.9283C72.9164 33.7907 72.9074 33.7996 72.9074 33.8115V39.8422C72.9074 39.8541 72.9164 39.8631 72.9283 39.8631H74.3615C75.592 39.8631 76.1388 39.0928 76.1388 37.3289V37.3304Z" fill="#E4002B"/>
<path d="M85.1836 5.78247H4.27441V27.3204H85.1836V5.78247Z" fill="#E4002B"/>
<path d="M15.0112 16.5776L17.2787 12.3108C17.2936 12.2825 17.3219 12.2661 17.3532 12.2661H19.1424C19.1886 12.2661 19.2273 12.3034 19.2273 12.351V20.752C19.2273 20.7982 19.1901 20.8369 19.1424 20.8369H17.374C17.3278 20.8369 17.2891 20.7996 17.2891 20.752V16.08C17.2891 16.0576 17.2593 16.0502 17.2489 16.071L15.549 19.3754C15.5341 19.4037 15.5058 19.4216 15.4745 19.4216H14.4719C14.4406 19.4216 14.4108 19.4037 14.3959 19.3754L12.7333 16.1098C12.7229 16.0904 12.6931 16.0979 12.6931 16.1187V20.7535C12.6931 20.7996 12.6559 20.8384 12.6082 20.8384H10.8398C10.7936 20.8384 10.7549 20.8011 10.7549 20.7535V12.3525C10.7549 12.3063 10.7921 12.2676 10.8398 12.2676H12.6171C12.6484 12.2676 12.6767 12.2855 12.6916 12.3123L14.971 16.5791C14.9784 16.594 15.0008 16.594 15.0082 16.5791L15.0112 16.5776Z" fill="white"/>
<path d="M22.5961 14.0017V15.5242C22.5961 15.5362 22.605 15.5451 22.6169 15.5451H25.4922C25.5384 15.5451 25.5756 15.5823 25.5756 15.6285V17.1749C25.5756 17.2211 25.5369 17.2598 25.4907 17.2598H22.6169C22.605 17.2598 22.5961 17.2688 22.5961 17.2807V19.1012C22.5961 19.1131 22.605 19.1221 22.6169 19.1221H25.8647C25.9108 19.1221 25.9481 19.1593 25.9481 19.2055V20.7519C25.9481 20.7981 25.9093 20.8368 25.8632 20.8368H20.6176C20.5714 20.8368 20.5342 20.7996 20.5342 20.7534V12.351C20.5342 12.3048 20.5729 12.2661 20.6191 12.2661H21.7305C21.7379 12.2661 21.7454 12.2616 21.7484 12.2556L22.5528 10.9014C22.5692 10.8776 22.5961 10.8627 22.6258 10.8627H24.7145C24.786 10.8627 24.8248 10.9446 24.7816 10.9997L23.8832 12.2318C23.8728 12.2452 23.8832 12.2661 23.8996 12.2661H25.8632C25.9093 12.2661 25.9466 12.3033 25.9466 12.3495V13.8959C25.9466 13.9421 25.9079 13.9808 25.8617 13.9808H22.6154C22.6035 13.9808 22.5946 13.9897 22.5946 14.0017H22.5961Z" fill="white"/>
<path d="M33.7823 12.351V13.8959C33.7823 13.9421 33.745 13.9809 33.6974 13.9809H31.567C31.555 13.9809 31.5461 13.9898 31.5461 14.0017V20.752C31.5461 20.7982 31.5089 20.8369 31.4612 20.8369H29.5691C29.523 20.8369 29.4842 20.7996 29.4842 20.752V14.0017C29.4842 13.9898 29.4753 13.9809 29.4634 13.9809H27.333C27.2868 13.9809 27.248 13.9436 27.248 13.8959V12.351C27.248 12.3048 27.2853 12.2661 27.333 12.2661H33.6974C33.7435 12.2661 33.7823 12.3034 33.7823 12.351Z" fill="white"/>
<path d="M39.6282 20.7847L38.2278 17.6054C38.2248 17.598 38.2174 17.5935 38.2084 17.5935H37.1745C37.1626 17.5935 37.1537 17.6025 37.1537 17.6144V20.7504C37.1537 20.7966 37.1164 20.8353 37.0688 20.8353H35.1767C35.1305 20.8353 35.0918 20.7981 35.0918 20.7504V12.3494C35.0918 12.3033 35.129 12.2645 35.1767 12.2645H38.3217C40.2971 12.2645 41.5635 13.1718 41.5635 14.9596C41.5635 16.0695 41.0733 16.8233 40.2167 17.224C40.2063 17.2285 40.2018 17.2419 40.2063 17.2524L41.854 20.7146C41.8808 20.7712 41.8391 20.8353 41.778 20.8353H39.7057C39.6729 20.8353 39.6416 20.8159 39.6282 20.7847ZM38.0729 15.8803C38.9057 15.8803 39.5016 15.7685 39.5016 14.9611C39.5016 14.1536 38.9057 13.9793 38.0729 13.9793H37.1745C37.1626 13.9793 37.1537 13.9882 37.1537 14.0001V15.8579C37.1537 15.8698 37.1626 15.8788 37.1745 15.8788H38.0729V15.8803Z" fill="white"/>
<path d="M46.1796 20.9605C44.2295 20.9605 42.8008 19.7806 42.8008 17.2226V15.8818C42.8008 13.2985 44.2295 12.1439 46.1796 12.1439C48.1298 12.1439 49.5585 13.2985 49.5585 15.8818V17.2226C49.5585 19.7806 48.1298 20.9605 46.1796 20.9605ZM44.8627 17.2226C44.8627 18.626 45.3215 19.2473 46.1796 19.2473C47.0378 19.2473 47.4966 18.626 47.4966 17.2226V15.8818C47.4966 14.4784 47.0378 13.8572 46.1796 13.8572C45.3215 13.8572 44.8627 14.4784 44.8627 15.8818V17.2226Z" fill="white"/>
<path d="M52.892 17.9631V20.752C52.892 20.7982 52.8547 20.8369 52.807 20.8369H50.915C50.8688 20.8369 50.8301 20.7996 50.8301 20.752V12.351C50.8301 12.3048 50.8673 12.2661 50.915 12.2661H54.0599C56.0354 12.2661 57.3017 13.1362 57.3017 15.0476C57.3017 16.959 56.0473 17.9407 54.0599 17.9407H52.9143C52.9024 17.9407 52.8934 17.9497 52.8934 17.9616L52.892 17.9631ZM53.6875 16.2275C54.7676 16.2275 55.2399 15.9042 55.2399 15.0476C55.2399 14.3518 54.7676 13.9794 53.6875 13.9794H52.9143C52.9024 13.9794 52.8934 13.9883 52.8934 14.0002V16.2066C52.8934 16.2185 52.9024 16.2275 52.9143 16.2275H53.6875Z" fill="white"/>
<path d="M61.8789 20.9605C59.9287 20.9605 58.5 19.7806 58.5 17.2226V15.8818C58.5 13.2985 59.9287 12.1439 61.8789 12.1439C63.829 12.1439 65.2577 13.2985 65.2577 15.8818V17.2226C65.2577 19.7806 63.829 20.9605 61.8789 20.9605ZM60.5619 17.2226C60.5619 18.626 61.0207 19.2473 61.8789 19.2473C62.737 19.2473 63.1958 18.626 63.1958 17.2226V15.8818C63.1958 14.4784 62.737 13.8572 61.8789 13.8572C61.0207 13.8572 60.5619 14.4784 60.5619 15.8818V17.2226Z" fill="white"/>
<path d="M68.6374 19.1221H71.8852C71.9313 19.1221 71.9701 19.1594 71.9701 19.2071V20.752C71.9701 20.7982 71.9328 20.8369 71.8852 20.8369H66.6396C66.5934 20.8369 66.5547 20.7996 66.5547 20.752V12.351C66.5547 12.3048 66.5919 12.2661 66.6396 12.2661H68.5316C68.5778 12.2661 68.6166 12.3034 68.6166 12.351V19.1013C68.6166 19.1132 68.6255 19.1221 68.6374 19.1221Z" fill="white"/>
<path d="M78.6986 12.351V13.8959C78.6986 13.9421 78.6614 13.9809 78.6137 13.9809H75.3659C75.354 13.9809 75.3451 13.9898 75.3451 14.0017V15.5243C75.3451 15.5362 75.354 15.5451 75.3659 15.5451H78.2412C78.2874 15.5451 78.3261 15.5824 78.3261 15.6301V17.175C78.3261 17.2212 78.2889 17.2599 78.2412 17.2599H75.3659C75.354 17.2599 75.3451 17.2688 75.3451 17.2808V19.1013C75.3451 19.1132 75.354 19.1221 75.3659 19.1221H78.6137C78.6599 19.1221 78.6986 19.1594 78.6986 19.2071V20.752C78.6986 20.7982 78.6614 20.8369 78.6137 20.8369H73.3681C73.3219 20.8369 73.2832 20.7996 73.2832 20.752V12.351C73.2832 12.3048 73.3204 12.2661 73.3681 12.2661H78.6137C78.6599 12.2661 78.6986 12.3034 78.6986 12.351Z" fill="white"/>
<path d="M123.828 26.0526H83.916V47.5905H123.828V26.0526Z" fill="#E4002B"/>
<path d="M92.4841 39.3923H95.7318C95.778 39.3923 95.8168 39.4295 95.8168 39.4772V41.0221C95.8168 41.0683 95.7795 41.107 95.7318 41.107H90.4863C90.4401 41.107 90.4014 41.0698 90.4014 41.0221V32.6212C90.4014 32.575 90.4386 32.5363 90.4863 32.5363H92.3783C92.4245 32.5363 92.4632 32.5735 92.4632 32.6212V39.3714C92.4632 39.3833 92.4722 39.3923 92.4841 39.3923Z" fill="white"/>
<path d="M97.2174 32.5869L98.5046 35.4383C98.512 35.4547 98.5358 35.4547 98.5433 35.4383L99.8305 32.5869C99.8439 32.5571 99.8737 32.5377 99.908 32.5377H102.086C102.15 32.5377 102.19 32.6048 102.161 32.6614L99.5564 37.6745C99.5564 37.6745 99.5534 37.6805 99.5534 37.685V41.0236C99.5534 41.0698 99.5161 41.1085 99.4685 41.1085H97.5749C97.5287 41.1085 97.49 41.0713 97.49 41.0236V37.685C97.49 37.685 97.49 37.6775 97.487 37.6745L94.8829 32.6614C94.8531 32.6048 94.8948 32.5377 94.9574 32.5377H97.1354C97.1682 32.5377 97.1995 32.5571 97.2129 32.5869H97.2174Z" fill="white"/>
<path d="M105.936 41.2307C103.986 41.2307 102.558 40.0507 102.558 37.4928V36.152C102.558 33.5687 103.986 32.4141 105.936 32.4141C107.887 32.4141 109.315 33.5687 109.315 36.152V37.4928C109.315 40.0507 107.887 41.2307 105.936 41.2307ZM104.619 37.4928C104.619 38.8961 105.078 39.5174 105.936 39.5174C106.795 39.5174 107.253 38.8961 107.253 37.4928V36.152C107.253 34.7486 106.795 34.1273 105.936 34.1273C105.078 34.1273 104.619 34.7486 104.619 36.152V37.4928Z" fill="white"/>
<path d="M117.345 32.6212V41.0221C117.345 41.0683 117.307 41.107 117.26 41.107H115.725C115.697 41.107 115.67 41.0936 115.655 41.0698L112.564 36.4216C112.552 36.4038 112.525 36.4127 112.525 36.4336V41.0236C112.525 41.0698 112.488 41.1085 112.44 41.1085H110.672C110.626 41.1085 110.587 41.0713 110.587 41.0236V32.6227C110.587 32.5765 110.624 32.5377 110.672 32.5377H112.181C112.209 32.5377 112.236 32.5526 112.251 32.575L115.366 37.2857C115.378 37.3036 115.405 37.2947 115.405 37.2738V32.6212C115.405 32.575 115.442 32.5363 115.49 32.5363H117.258C117.304 32.5363 117.343 32.5735 117.343 32.6212H117.345Z" fill="white"/>
</svg>
