<svg width="49" height="49" viewBox="0 0 49 49" fill="none" xmlns="http://www.w3.org/2000/svg">
<g clip-path="url(#clip0_2849_3739)">
<path d="M5.17871 42.8527H6.20671L8.54271 45.6667V43.5087C8.54271 43.2767 8.51471 43.1327 8.46271 43.0747C8.39071 42.9987 8.27871 42.9587 8.12671 42.9587H7.98871V42.8527H9.34071V42.9587H9.20871C9.04271 42.9587 8.92671 43.0067 8.85871 43.1027C8.81671 43.1627 8.79471 43.2987 8.79471 43.5087V46.7007H8.69271L6.17671 43.6587V45.9827C6.17671 46.2147 6.20271 46.3587 6.25471 46.4167C6.32671 46.4947 6.43871 46.5327 6.58871 46.5327H6.72871V46.6387H5.37471V46.5327H5.50871C5.67471 46.5327 5.79271 46.4847 5.86271 46.3887C5.90271 46.3287 5.92471 46.1947 5.92471 45.9827V43.3547C5.85058 43.2608 5.76679 43.175 5.67471 43.0987C5.59775 43.0475 5.51345 43.0084 5.42471 42.9827C5.34419 42.9635 5.26142 42.9554 5.17871 42.9587V42.8527ZM11.2447 44.4527C11.4387 44.7127 11.5367 45.0707 11.5367 45.5247C11.5367 45.8847 11.4767 46.1427 11.3607 46.2907C11.31 46.3607 11.2432 46.4176 11.1659 46.4566C11.0887 46.4956 11.0032 46.5155 10.9167 46.5147C10.6767 46.5147 10.4807 46.3787 10.3347 46.1087C10.1819 45.8122 10.1062 45.4821 10.1147 45.1487C10.1147 44.9167 10.1447 44.7287 10.2047 44.5827C10.2488 44.4559 10.3331 44.3471 10.4447 44.2727C10.5335 44.2169 10.6359 44.1865 10.7407 44.1847C10.8404 44.184 10.9386 44.2081 11.0266 44.2549C11.1146 44.3017 11.1896 44.3696 11.2447 44.4527ZM10.2247 44.1687C10.0235 44.2908 9.86277 44.4696 9.76271 44.6827C9.65047 44.8991 9.59086 45.1389 9.58871 45.3827C9.58871 45.7067 9.68471 45.9967 9.87671 46.2567C10.1047 46.5627 10.4107 46.7167 10.7967 46.7167C11.0347 46.7167 11.2487 46.6567 11.4407 46.5367C11.6418 46.409 11.8005 46.2245 11.8967 46.0067C12.0022 45.7896 12.0582 45.5519 12.0607 45.3107C12.0647 44.9952 11.9586 44.6883 11.7607 44.4427C11.651 44.301 11.5095 44.1873 11.3475 44.1109C11.1855 44.0344 11.0077 43.9973 10.8287 44.0027C10.6155 44.0025 10.4081 44.0598 10.2247 44.1687ZM13.0627 42.6687C13.1427 42.6687 13.2087 42.6967 13.2627 42.7527C13.3187 42.8067 13.3467 42.8727 13.3467 42.9527C13.3467 43.0327 13.3187 43.0987 13.2627 43.1547C13.237 43.1817 13.2059 43.2032 13.1715 43.2176C13.1371 43.2321 13.1 43.2392 13.0627 43.2387C13.0251 43.2392 12.9878 43.232 12.953 43.2175C12.9183 43.2031 12.8869 43.1817 12.8607 43.1547C12.834 43.1287 12.8128 43.0975 12.7984 43.0632C12.784 43.0288 12.7766 42.9919 12.7767 42.9547C12.7767 42.8747 12.8047 42.8067 12.8587 42.7527C12.8851 42.7254 12.9169 42.7038 12.952 42.6894C12.9871 42.6749 13.0248 42.6679 13.0627 42.6687ZM13.2987 44.0027V46.0627C13.2987 46.2187 13.3107 46.3247 13.3327 46.3787L13.4367 46.4947C13.4807 46.5207 13.5647 46.5347 13.6847 46.5347V46.6407H12.4467V46.5347C12.5317 46.5415 12.6171 46.5292 12.6967 46.4987C12.7425 46.4709 12.7777 46.4287 12.7967 46.3787C12.8285 46.2758 12.8414 46.1681 12.8347 46.0607V45.0847C12.8347 44.8067 12.8247 44.6267 12.8087 44.5447C12.7947 44.4847 12.7747 44.4447 12.7467 44.4207L12.6307 44.3867C12.5649 44.389 12.5 44.4025 12.4387 44.4267L12.3987 44.3207L13.1747 44.0027H13.2987ZM15.6707 44.0027V44.8827H15.5647C15.4947 44.6027 15.4047 44.4167 15.2967 44.3167C15.1827 44.2146 15.0336 44.1608 14.8807 44.1667C14.768 44.1614 14.6574 44.1985 14.5707 44.2707C14.4907 44.3387 14.4527 44.4147 14.4527 44.4987C14.4527 44.6047 14.4807 44.6927 14.5387 44.7667C14.6348 44.8732 14.7538 44.9566 14.8867 45.0107L15.2967 45.2107C15.6747 45.3947 15.8647 45.6367 15.8647 45.9387C15.8647 46.1727 15.7767 46.3587 15.6007 46.5027C15.4368 46.641 15.2292 46.7168 15.0147 46.7167C14.834 46.7131 14.6545 46.6862 14.4807 46.6367C14.4321 46.6212 14.3817 46.6125 14.3307 46.6107L14.2307 46.6787H14.1247V45.7587H14.2307C14.2827 46.0227 14.3807 46.2187 14.5267 46.3527C14.6727 46.4867 14.8367 46.5527 15.0167 46.5527C15.1317 46.5573 15.2438 46.5163 15.3287 46.4387C15.3669 46.4045 15.3974 46.3625 15.4181 46.3156C15.4388 46.2687 15.4492 46.2179 15.4487 46.1667C15.4498 46.1062 15.4382 46.0461 15.4148 45.9903C15.3914 45.9346 15.3566 45.8843 15.3127 45.8427C15.149 45.708 14.9672 45.597 14.7727 45.5127C14.4987 45.3807 14.3227 45.2587 14.2387 45.1527C14.1524 45.0354 14.1086 44.8922 14.1147 44.7467C14.1123 44.6479 14.1302 44.5497 14.1674 44.4582C14.2045 44.3667 14.2601 44.2838 14.3307 44.2147C14.404 44.1438 14.4908 44.0885 14.586 44.0521C14.6813 44.0156 14.7828 43.9988 14.8847 44.0027C14.9847 44.0027 15.1047 44.0227 15.2487 44.0667C15.3097 44.0871 15.3727 44.1005 15.4367 44.1067L15.5067 44.0887L15.5647 44.0027H15.6707ZM16.0887 44.0807H17.2947V44.1867H17.2347C17.1527 44.1867 17.0887 44.2047 17.0467 44.2407L16.9847 44.3747C16.9847 44.4467 17.0147 44.5467 17.0767 44.6747L17.6967 45.9687L18.2647 44.5507C18.2956 44.48 18.3119 44.4038 18.3127 44.3267L18.2927 44.2527L18.2227 44.2047C18.1688 44.1894 18.1127 44.1827 18.0567 44.1847V44.0807H18.8847V44.1867C18.8289 44.1899 18.7744 44.2049 18.7247 44.2307C18.6765 44.2638 18.635 44.3059 18.6027 44.3547C18.5661 44.4225 18.534 44.4926 18.5067 44.5647L17.4747 47.1187C17.3947 47.3388 17.2581 47.534 17.0787 47.6847C16.9468 47.8001 16.7798 47.8677 16.6047 47.8767C16.5051 47.8806 16.4078 47.8462 16.3327 47.7807C16.3001 47.7539 16.2737 47.7204 16.2554 47.6824C16.2371 47.6444 16.2273 47.6028 16.2267 47.5607C16.2267 47.4807 16.2527 47.4167 16.3047 47.3687C16.3633 47.318 16.4394 47.2922 16.5167 47.2967C16.5767 47.2967 16.6627 47.3167 16.7707 47.3547C16.8447 47.3807 16.8907 47.3947 16.9107 47.3947C16.9667 47.3947 17.0267 47.3667 17.0927 47.3087C17.1824 47.2144 17.2506 47.1018 17.2927 46.9787L17.4647 46.5507L16.5447 44.6107C16.478 44.4847 16.3946 44.3683 16.2967 44.2647C16.2327 44.2259 16.1622 44.1988 16.0887 44.1847V44.0807ZM19.1527 45.5687H20.6027V45.1427H19.1527V45.5687ZM21.8787 42.6687V46.0607C21.8787 46.2207 21.8907 46.3247 21.9127 46.3767L22.0227 46.4947C22.0707 46.5207 22.1627 46.5347 22.2947 46.5347V46.6407H21.0287V46.5347C21.1487 46.5347 21.2307 46.5227 21.2747 46.4987C21.3213 46.4714 21.3573 46.4291 21.3767 46.3787C21.4086 46.2758 21.4215 46.1681 21.4147 46.0607V43.7527C21.4147 43.4647 21.4087 43.2887 21.3947 43.2227C21.3827 43.1567 21.3627 43.1127 21.3347 43.0887L21.2267 43.0527C21.1645 43.0562 21.1035 43.0711 21.0467 43.0967L20.9987 42.9907L21.7547 42.6707L21.8787 42.6687ZM23.2427 44.3827C23.2945 44.3266 23.3573 44.2816 23.4271 44.2507C23.4969 44.2197 23.5723 44.2034 23.6487 44.2027C23.7467 44.2027 23.8407 44.2347 23.9307 44.2947C24.0207 44.3527 24.0907 44.4347 24.1347 44.5367C24.1722 44.6475 24.1918 44.7636 24.1927 44.8807H23.0327C23.0413 44.695 23.1157 44.5184 23.2427 44.3827ZM24.7827 45.0447C24.7893 44.9058 24.7681 44.7671 24.7203 44.6366C24.6726 44.5061 24.5993 44.3865 24.5047 44.2847C24.4131 44.1912 24.303 44.1178 24.1814 44.0693C24.0599 44.0207 23.9295 43.998 23.7987 44.0027C23.4587 44.0027 23.1787 44.1227 22.9547 44.3687C22.7287 44.6147 22.6187 44.9547 22.6187 45.3927C22.6187 45.7967 22.7267 46.1187 22.9447 46.3587C23.1647 46.5987 23.4267 46.7167 23.7347 46.7167C24.0167 46.7167 24.2527 46.6127 24.4407 46.4027C24.6217 46.2079 24.7401 45.9634 24.7807 45.7007L24.6947 45.6447C24.6394 45.8283 24.5325 45.9921 24.3867 46.1167C24.2615 46.2081 24.1097 46.2558 23.9547 46.2527C23.8296 46.2513 23.7064 46.2219 23.5942 46.1665C23.4821 46.1111 23.3838 46.0312 23.3067 45.9327C23.1227 45.7167 23.0307 45.4207 23.0327 45.0447H24.7827ZM25.1847 45.5687H26.6347V45.1427H25.1847V45.5687ZM30.3827 42.7667L30.4707 43.9667H30.3647C30.2937 43.7155 30.1634 43.485 29.9847 43.2947C29.8702 43.1861 29.7351 43.1015 29.5874 43.0458C29.4397 42.9902 29.2824 42.9646 29.1247 42.9707C28.9084 42.9603 28.6933 43.0074 28.5011 43.1072C28.309 43.2069 28.1467 43.3558 28.0307 43.5387C27.8227 43.8587 27.7167 44.2407 27.7167 44.6847C27.7167 45.0447 27.7867 45.3707 27.9267 45.6667C28.0667 45.9627 28.2467 46.1807 28.4727 46.3187C28.6808 46.4512 28.922 46.5226 29.1687 46.5247C29.4423 46.5256 29.7113 46.4545 29.9487 46.3187V45.2387C29.9578 45.1118 29.9435 44.9844 29.9067 44.8627C29.8775 44.8036 29.8297 44.7558 29.7707 44.7267C29.6671 44.6889 29.5567 44.6733 29.4467 44.6807V44.5747H30.9347V44.6807H30.8607C30.7087 44.6807 30.6047 44.7287 30.5487 44.8267C30.4985 44.9586 30.478 45.0999 30.4887 45.2407V46.3947C30.2767 46.5087 30.0647 46.5947 29.8567 46.6487C29.6487 46.7007 29.4167 46.7287 29.1627 46.7287C28.4307 46.7287 27.8767 46.4947 27.4967 46.0247C27.2158 45.6815 27.0649 45.2501 27.0707 44.8067C27.0707 44.4727 27.1507 44.1547 27.3107 43.8467C27.5007 43.4867 27.7607 43.2067 28.0927 43.0107C28.3928 42.8424 28.7327 42.7581 29.0767 42.7667C29.2127 42.7667 29.3387 42.7787 29.4527 42.8007C29.5647 42.8227 29.7247 42.8727 29.9327 42.9507C30.0347 42.9907 30.1047 43.0087 30.1407 43.0087L30.2307 42.9587C30.2567 42.9267 30.2707 42.8627 30.2767 42.7667H30.3827ZM31.9147 44.0027V44.5787C32.1307 44.1947 32.3487 44.0027 32.5747 44.0027C32.6767 44.0027 32.7627 44.0347 32.8287 44.0967C32.8967 44.1587 32.9287 44.2307 32.9287 44.3127C32.9295 44.3466 32.9235 44.3803 32.9112 44.4119C32.8988 44.4435 32.8803 44.4723 32.8567 44.4967C32.8346 44.5207 32.8076 44.5398 32.7777 44.5529C32.7477 44.566 32.7154 44.5727 32.6827 44.5727C32.6167 44.5727 32.5427 44.5407 32.4627 44.4767C32.3827 44.4127 32.3227 44.3787 32.2827 44.3787L32.1747 44.4367C32.0671 44.5469 31.9792 44.6748 31.9147 44.8147V46.0407C31.9147 46.1827 31.9347 46.2907 31.9707 46.3647C32.001 46.4183 32.0481 46.4605 32.1047 46.4847C32.1912 46.5215 32.2848 46.5386 32.3787 46.5347V46.6407H31.0367V46.5347C31.1707 46.5347 31.2707 46.5147 31.3367 46.4747C31.387 46.441 31.4227 46.3895 31.4367 46.3307C31.4503 46.2413 31.4549 46.1509 31.4507 46.0607V45.0847C31.4507 44.7847 31.4467 44.6067 31.4327 44.5507C31.4253 44.502 31.4013 44.4575 31.3647 44.4247L31.2447 44.3847C31.1761 44.3865 31.1083 44.4008 31.0447 44.4267L31.0167 44.3207L31.7967 44.0027H31.9167H31.9147ZM33.9607 46.3607C33.9076 46.3604 33.8552 46.3489 33.8069 46.3268C33.7586 46.3047 33.7156 46.2726 33.6807 46.2327C33.5996 46.1447 33.5564 46.0282 33.5607 45.9087C33.5607 45.8047 33.5907 45.7087 33.6547 45.6227C33.7422 45.5179 33.8514 45.4333 33.9747 45.3747C34.0587 45.3287 34.2407 45.2527 34.5247 45.1427V46.0907C34.2927 46.2707 34.1047 46.3607 33.9607 46.3607ZM34.6087 46.5867C34.6358 46.6181 34.6697 46.6428 34.7078 46.6591C34.7459 46.6754 34.7873 46.6828 34.8287 46.6807C35.0167 46.6807 35.2167 46.5387 35.4247 46.2567V46.1007C35.3562 46.1745 35.2812 46.2421 35.2007 46.3027L35.1207 46.3227L35.0487 46.2947C35.0287 46.2747 35.0127 46.2407 35.0027 46.1847C34.9905 46.0363 34.9864 45.8874 34.9907 45.7387V44.8747C35.0002 44.7102 34.9826 44.5454 34.9387 44.3867C34.8922 44.2704 34.8057 44.1746 34.6947 44.1167C34.5197 44.0347 34.3278 43.9956 34.1347 44.0027C33.886 43.9869 33.6396 44.0591 33.4387 44.2067C33.2747 44.3447 33.1927 44.4927 33.1927 44.6547C33.1927 44.7407 33.2147 44.8087 33.2587 44.8567C33.2806 44.8809 33.3075 44.9001 33.3375 44.9129C33.3676 44.9257 33.4001 44.9318 33.4327 44.9307C33.4653 44.9319 33.4978 44.9263 33.5281 44.9143C33.5584 44.9022 33.5859 44.8839 33.6087 44.8607C33.6326 44.8334 33.6509 44.8017 33.6626 44.7674C33.6743 44.7331 33.6791 44.6968 33.6767 44.6607L33.6687 44.5007C33.6687 44.4187 33.7047 44.3447 33.7747 44.2807C33.8523 44.2142 33.9527 44.1805 34.0547 44.1867C34.2067 44.1867 34.3247 44.2347 34.4047 44.3307C34.4847 44.4267 34.5247 44.6027 34.5247 44.8587V44.9587C34.0847 45.1187 33.7687 45.2527 33.5807 45.3627C33.4204 45.4461 33.2831 45.5677 33.1807 45.7167C33.1229 45.8132 33.0937 45.9242 33.0967 46.0367C33.0967 46.2327 33.1527 46.3907 33.2687 46.5107C33.3827 46.6307 33.5287 46.6907 33.7087 46.6907C33.8207 46.6907 33.9287 46.6667 34.0287 46.6207C34.0967 46.5887 34.2627 46.4707 34.5247 46.2667C34.5267 46.4167 34.5547 46.5227 34.6087 46.5867ZM36.3587 44.5407C36.6587 44.1807 36.9447 44.0027 37.2147 44.0027C37.3547 44.0027 37.4747 44.0387 37.5747 44.1087C37.688 44.1961 37.7718 44.3162 37.8147 44.4527C37.8547 44.5647 37.8747 44.7367 37.8747 44.9687V46.0607C37.8747 46.2207 37.8887 46.3307 37.9147 46.3867L38.0127 46.4947C38.0919 46.5269 38.1774 46.5406 38.2627 46.5347V46.6407H36.9967V46.5347H37.0507C37.1707 46.5347 37.2547 46.5147 37.3007 46.4807C37.3512 46.4402 37.3864 46.3838 37.4007 46.3207C37.4117 46.2345 37.4157 46.1475 37.4127 46.0607V45.0087C37.4242 44.8345 37.3933 44.6602 37.3227 44.5007C37.2627 44.3947 37.1607 44.3407 37.0187 44.3407C36.7987 44.3407 36.5787 44.4627 36.3587 44.7067V46.0607C36.3587 46.2327 36.3707 46.3407 36.3907 46.3807L36.4967 46.4967C36.5856 46.529 36.6804 46.542 36.7747 46.5347V46.6407H35.5087V46.5347H35.5647C35.6947 46.5347 35.7827 46.5007 35.8267 46.4347C35.8727 46.3707 35.8947 46.2447 35.8947 46.0607V45.1147C35.8947 44.8107 35.8887 44.6247 35.8747 44.5587C35.8587 44.4927 35.8387 44.4467 35.8087 44.4227L35.6927 44.3867C35.6275 44.3887 35.5632 44.4023 35.5027 44.4267L35.4607 44.3227L36.2387 44.0027H36.3587V44.5407ZM39.7947 46.4087C39.5947 46.4087 39.4147 46.3087 39.2507 46.1107C39.0887 45.9107 39.0067 45.6247 39.0067 45.2507C39.0067 44.8807 39.0907 44.5987 39.2587 44.4067C39.3103 44.3398 39.3763 44.2853 39.4518 44.2472C39.5272 44.2091 39.6102 44.1884 39.6947 44.1867C39.7964 44.1919 39.8949 44.2237 39.9805 44.2788C40.0661 44.3338 40.1358 44.4103 40.1827 44.5007C40.2387 44.6047 40.2707 44.7207 40.2827 44.8507V46.1507C40.1247 46.3247 39.9627 46.4107 39.7947 46.4107V46.4087ZM40.2827 46.7187H40.4127L41.1807 46.3987L41.1507 46.2927C41.0853 46.3202 41.0156 46.3365 40.9447 46.3407L40.8347 46.3007C40.8047 46.2767 40.7827 46.2307 40.7687 46.1687C40.7481 45.9921 40.7407 45.8143 40.7467 45.6367V42.6707H40.6187L39.8467 42.9907L39.8867 43.0947C39.9485 43.0693 40.014 43.0544 40.0807 43.0507L40.1947 43.0867C40.2247 43.1107 40.2467 43.1567 40.2607 43.2227C40.2747 43.2887 40.2807 43.4647 40.2807 43.7527V44.2327C40.2091 44.1573 40.1224 44.0978 40.0262 44.0582C39.9301 44.0186 39.8267 43.9996 39.7227 44.0027C39.5483 44.0007 39.376 44.0413 39.2209 44.1212C39.0657 44.201 38.9325 44.3175 38.8327 44.4607C38.6073 44.7475 38.4847 45.1018 38.4847 45.4667C38.4847 45.8347 38.5907 46.1347 38.7987 46.3667C38.8873 46.4756 38.9988 46.5636 39.1254 46.6244C39.2519 46.6853 39.3903 46.7175 39.5307 46.7187C39.6642 46.7194 39.7961 46.69 39.9167 46.6327C40.0553 46.5607 40.1794 46.4638 40.2827 46.3467V46.7187ZM45.0547 0.222656V5.63466H44.7067C44.2607 4.14466 43.5927 3.01266 42.7047 2.23666C41.8147 1.46266 40.8407 1.07266 39.7807 1.07266C38.7667 1.07266 37.9227 1.39866 37.2507 2.04466C36.5767 2.69266 36.1007 3.59666 35.8187 4.75666C35.5387 5.91666 35.3987 7.10466 35.3987 8.32466C35.3987 9.80466 35.5527 11.0987 35.8587 12.2127C36.1627 13.3247 36.6547 14.1447 37.3387 14.6667C38.0187 15.1907 38.8287 15.4507 39.7627 15.4507C40.0867 15.4507 40.4187 15.4107 40.7567 15.3307C41.0967 15.2527 41.4467 15.1367 41.8087 14.9847V12.8607C41.8087 12.9467 41.6127 11.7947 41.6987 12.0067C41.5997 11.8028 41.4386 11.6355 41.2387 11.5287C40.9813 11.3801 40.6877 11.3061 40.3907 11.3147H40.0307V10.8927H46.6407V11.3187C46.1407 11.3547 45.7947 11.4327 45.5987 11.5487C45.4027 11.6647 45.2507 11.7027 45.1467 11.9727C45.0867 12.1147 45.0547 13.1327 45.0547 12.8627V14.9867C44.1947 15.4227 43.2947 15.7507 42.3587 15.9707C41.4227 16.1927 40.4527 16.3027 39.4507 16.3027C38.1727 16.3027 37.1107 16.1027 36.2607 15.7087C35.4284 15.3231 34.6702 14.7944 34.0207 14.1467C33.3858 13.5175 32.8696 12.779 32.4967 11.9667C32.0367 10.9267 31.8067 9.75866 31.8067 8.46665C31.8067 6.15866 32.5207 4.20666 33.9507 2.61466C35.3787 1.02266 37.1807 0.224656 39.3507 0.224656C40.0247 0.224656 40.6307 0.284656 41.1667 0.404656C41.4627 0.466656 41.9367 0.638656 42.5907 0.922656C43.2447 1.20466 43.6327 1.34666 43.7547 1.34666C43.9427 1.34666 44.1167 1.26666 44.2747 1.11266C44.4347 0.956656 44.5787 0.660656 44.7067 0.224656H45.0547V0.222656ZM6.64671 36.3687H43.4387V35.9047H6.64871L6.64671 36.3687ZM6.64671 29.4127H43.4387V28.9487H6.64871L6.64671 29.4127ZM6.56871 22.4547H43.3627V21.9907H6.56871V22.4547Z" fill="#2A3066"/>
<path d="M6.49023 15.3446H36.6362V14.8806H6.49023V15.3446ZM6.56823 8.38856H34.3942V7.92456H6.56823V8.38856Z" fill="#2A3066"/>
<path d="M39.8042 31.4126L39.7022 39.7606L10.7422 7.86058L10.6502 30.0726C10.6502 33.3946 10.3482 35.5126 10.9782 36.4246C11.6282 37.3666 12.4082 38.2706 15.5982 38.3786V39.2286H4.69824V38.3786C7.04424 38.2986 8.06824 37.6486 8.69824 36.7346C9.33024 35.8206 9.18224 33.3906 9.18224 30.0686L9.19624 5.33658C8.61624 4.45458 8.57224 4.46458 7.96424 4.11058C7.15624 3.66058 6.45824 3.53858 4.94424 3.44058V2.59058H14.8722L39.8042 31.4106V31.4126Z" fill="#2A3066"/>
</g>
<defs>
<clipPath id="clip0_2849_3739">
<rect width="48" height="48" fill="white" transform="translate(0.948242 0.0526123)"/>
</clipPath>
</defs>
</svg>
