<svg xmlns="http://www.w3.org/2000/svg" width="80" height="81" fill="none"><rect width="80" height="80" y=".105" fill="#fff" rx="40"/><rect width="79" height="79" x=".5" y=".605" stroke="#1D212A" stroke-opacity=".16" rx="39.5"/><path fill="#F5A448" fill-rule="evenodd" d="M56.5 42.605a2 2 0 0 1-2 2h-5a2 2 0 0 1-2-2v-5a2 2 0 0 1 2-2h5a2 2 0 0 1 2 2v5Z" clip-rule="evenodd"/><path fill="#F8B664" fill-rule="evenodd" d="M56.5 30.605a2 2 0 0 1-2 2h-5a2 2 0 0 1-2-2v-5a2 2 0 0 1 2-2h5a2 2 0 0 1 2 2v5Z" clip-rule="evenodd"/><path fill="#F5A448" fill-rule="evenodd" d="M44.5 54.605a2 2 0 0 1-2 2h-5a2 2 0 0 1-2-2v-5a2 2 0 0 1 2-2h5a2 2 0 0 1 2 2v5Z" clip-rule="evenodd"/><path fill="#F8B664" fill-rule="evenodd" d="M44.5 42.605a2 2 0 0 1-2 2h-5a2 2 0 0 1-2-2v-5a2 2 0 0 1 2-2h5a2 2 0 0 1 2 2v5Z" clip-rule="evenodd"/><path fill="#FBC780" fill-rule="evenodd" d="M44.5 30.605a2 2 0 0 1-2 2h-5a2 2 0 0 1-2-2v-5a2 2 0 0 1 2-2h5a2 2 0 0 1 2 2v5Z" clip-rule="evenodd"/><path fill="#F8B664" fill-rule="evenodd" d="M32.5 54.605a2 2 0 0 1-2 2h-5a2 2 0 0 1-2-2v-5a2 2 0 0 1 2-2h5a2 2 0 0 1 2 2v5Z" clip-rule="evenodd"/><path fill="#FBC780" fill-rule="evenodd" d="M32.5 42.605a2 2 0 0 1-2 2h-5a2 2 0 0 1-2-2v-5a2 2 0 0 1 2-2h5a2 2 0 0 1 2 2v5Z" clip-rule="evenodd"/><path fill="#FFD799" fill-rule="evenodd" d="M32.5 30.605a2 2 0 0 1-2 2h-5a2 2 0 0 1-2-2v-5a2 2 0 0 1 2-2h5a2 2 0 0 1 2 2v5Z" clip-rule="evenodd"/><path fill="#FF9300" fill-rule="evenodd" d="M56.5 54.605a2 2 0 0 1-2 2h-5a2 2 0 0 1-2-2v-5a2 2 0 0 1 2-2h5a2 2 0 0 1 2 2v5Z" clip-rule="evenodd"/></svg>