<svg xmlns="http://www.w3.org/2000/svg" width="80" height="81" fill="none"><rect width="80" height="80" y=".105" fill="#fff" rx="40"/><rect width="79" height="79" x=".5" y=".605" stroke="#1D212A" stroke-opacity=".16" rx="39.5"/><path fill="#855CEA" fill-rule="evenodd" d="M40.75 50.048c5.649 0 10.62 1.849 13.5 4.649-3.455 3.466-8.23 5.617-13.5 5.617s-10.046-2.15-13.5-5.617c2.88-2.8 7.851-4.649 13.5-4.649Zm0-20.907c4.858 0 8.799 4.018 8.799 8.974 0 4.955-3.94 8.972-8.799 8.972-4.858 0-8.797-4.017-8.797-8.972 0-4.956 3.939-8.974 8.797-8.974Z" clip-rule="evenodd"/><path fill="#C2ADF4" fill-rule="evenodd" d="M58 46.855a4.5 4.5 0 0 0-4.5 4.5c0 .726.187 1.403.493 2.01a18.746 18.746 0 0 1-8.946 4.974c-.55-1.864-2.254-3.234-4.297-3.234-2.042 0-3.747 1.37-4.298 3.234a18.746 18.746 0 0 1-8.945-4.974 4.448 4.448 0 0 0 .493-2.01 4.5 4.5 0 0 0-4.5-4.5c-.073 0-.142.018-.215.023A18.623 18.623 0 0 1 22 40.105c0-2.118.37-4.149 1.02-6.048.16.017.317.048.48.048a4.5 4.5 0 0 0 4.5-4.5c0-.916-.277-1.77-.75-2.48a18.745 18.745 0 0 1 9.202-5.254c.55 1.865 2.256 3.234 4.298 3.234 2.043 0 3.747-1.37 4.297-3.234a18.745 18.745 0 0 1 9.203 5.255 4.462 4.462 0 0 0-.75 2.48 4.5 4.5 0 0 0 4.5 4.5c.163 0 .32-.032.48-.049a18.65 18.65 0 0 1 1.02 6.048c0 2.39-.467 4.668-1.286 6.773-.072-.005-.14-.023-.214-.023Zm3.202-14.092A4.5 4.5 0 0 0 58 25.105c-.464 0-.902.092-1.324.22-3.088-3.325-7.194-5.689-11.833-6.572a4.495 4.495 0 0 0-4.092-2.648 4.495 4.495 0 0 0-4.092 2.648c-4.64.883-8.745 3.247-11.834 6.573a4.496 4.496 0 0 0-1.324-.22 4.5 4.5 0 0 0-3.203 7.657A21.663 21.663 0 0 0 19 40.105c0 2.795.546 5.459 1.506 7.913A4.476 4.476 0 0 0 19 51.355a4.5 4.5 0 0 0 4.5 4.5 4.48 4.48 0 0 0 1.842-.403 21.686 21.686 0 0 0 11.316 6.006 4.495 4.495 0 0 0 4.092 2.647 4.495 4.495 0 0 0 4.092-2.647 21.686 21.686 0 0 0 11.316-6.006 4.48 4.48 0 0 0 1.842.403 4.5 4.5 0 0 0 4.5-4.5c0-1.33-.59-2.514-1.506-3.337a21.665 21.665 0 0 0 1.506-7.913c0-2.581-.473-5.044-1.298-7.342Z" clip-rule="evenodd"/></svg>