<svg xmlns="http://www.w3.org/2000/svg" width="80" height="81" fill="none"><rect width="80" height="80" y=".105" fill="#fff" rx="40"/><rect width="79" height="79" x=".5" y=".605" stroke="#1D212A" stroke-opacity=".16" rx="39.5"/><circle cx="40" cy="40.105" r="24" fill="#297EF1"/><path fill="#fff" fill-rule="evenodd" d="M44.678 42.927a.783.783 0 0 1-1.07.227 1.135 1.135 0 0 1-.086-.059 5.708 5.708 0 0 1-3.53 1.218 5.702 5.702 0 0 1-3.52-1.213c-.026.018-.052.037-.08.054a.787.787 0 0 1-1.07-.224.772.772 0 0 1 .22-1.056c.3-.199.322-.595.322-.599a.783.783 0 0 1 .248-.544c.15-.14.338-.22.546-.204a.77.77 0 0 1 .746.78c0 .005-.001.216-.077.508a4.17 4.17 0 0 0 5.342-.011 2.5 2.5 0 0 1-.075-.485.77.77 0 0 1 .757-.793h.013c.416 0 .76.335.77.752 0 0 .022.398.32.595.35.23.45.702.224 1.054Zm3.278-8.991a8.387 8.387 0 0 0-2.386-4.95 7.979 7.979 0 0 0-5.688-2.38 7.974 7.974 0 0 0-5.688 2.381 8.38 8.38 0 0 0-2.389 4.975 8.015 8.015 0 0 0-4.846 2.451 8.423 8.423 0 0 0-2.32 5.841c0 4.605 3.649 8.351 8.135 8.351h14.45c4.485 0 8.136-3.746 8.136-8.35 0-4.352-3.26-7.938-7.404-8.32Z" clip-rule="evenodd"/></svg>