<svg xmlns="http://www.w3.org/2000/svg" width="32" height="33" fill="none"><rect width="32" height="32" y=".105" fill="#FF7B5E" rx="16"/><path fill="#fff" fill-rule="evenodd" d="M12.977 20.619s.103-1.084-.956-2.022a6 6 0 1 1 7.99-.028c-.674.605-.907 2.049-.907 2.049a.635.635 0 0 1-.595.488h-5.018a.524.524 0 0 1-.514-.487ZM19 22.105l-1.652 1.652a1.355 1.355 0 0 1-.853.348h-.99c-.279 0-.662-.157-.853-.348L13 22.105h6Zm1-8a4 4 0 0 0-4-4 1 1 0 1 0 0 2 2 2 0 0 1 2 2 1 1 0 1 0 2 0Z" clip-rule="evenodd"/></svg>