<svg xmlns="http://www.w3.org/2000/svg" width="32" height="33" fill="none"><rect width="32" height="32" y=".105" fill="#F85AA8" rx="16"/><path fill="#fff" d="M20.5 11.105a2 2 0 1 1-4 0 2 2 0 0 1 4 0ZM16.457 15.649c.182.155.379.308.588.453.771.532 1.793 1.003 2.955 1.003a1 1 0 1 0 0-2c-.62 0-1.25-.256-1.819-.65-.569-.392-.999-.867-1.204-1.163a1.561 1.561 0 0 0-1.276-.687c-.394 0-.772.157-1.05.435l-2.204 2.204a1.527 1.527 0 0 0 .233 2.35L15 19.14v2.965a1 1 0 1 0 2 0v-3.5a1 1 0 0 0-.445-.833l-1.334-.889 1.236-1.236Z"/><path fill="#fff" fill-rule="evenodd" d="M24 21.105a3 3 0 1 1-6 0 3 3 0 0 1 6 0Zm-1.5 0a1.5 1.5 0 1 1-3 0 1.5 1.5 0 0 1 3 0ZM11 24.105a3 3 0 1 0 0-6 3 3 0 0 0 0 6Zm0-1.5a1.5 1.5 0 1 0 0-3 1.5 1.5 0 0 0 0 3Z" clip-rule="evenodd"/></svg>