<svg width="32" height="32" viewBox="0 0 32 32" fill="none" xmlns="http://www.w3.org/2000/svg">
<path d="M13.8787 26.5149C14.1466 26.448 14.4181 26.6108 14.4851 26.8787L14.9851 28.8787C14.9952 28.9193 15.0001 28.96 15.0001 29H16.9999C16.9999 28.96 17.0048 28.9193 17.0149 28.8787L17.5149 26.8787C17.5819 26.6108 17.8534 26.448 18.1213 26.5149C18.3892 26.5819 18.552 26.8534 18.4851 27.1213L18 29.0615V31C18 31.5523 17.5523 32 17 32H15C14.4477 32 14 31.5523 14 31V29.0616L13.5149 27.1213C13.448 26.8534 13.6108 26.5819 13.8787 26.5149Z" fill="#F33136"/>
<path d="M14 27C13.4477 27 12.9798 26.5318 12.6829 26.0661C12.1387 25.2125 10.95 24.2886 9.55535 23.2046C6.32881 20.6968 1.99998 17.3322 2 12C2 5.37258 8.26801 0 16 0V27H14Z" fill="#F33136"/>
<path d="M16 27H14.2857C14.2857 25.882 13.4127 24.6945 12.3173 23.2046C10.4736 20.6968 7.99999 17.3322 8 12C8 5.37258 11.5817 0 16 0V27Z" fill="#FC7B0E"/>
<path d="M18 27C18.5523 27 19.0202 26.5318 19.3171 26.0661C19.8613 25.2125 21.05 24.2886 22.4447 23.2046C25.6712 20.6968 30 17.3322 30 12C30 5.37258 23.732 0 16 0V27H18Z" fill="#FFD799"/>
<path d="M16 27H17.7143C17.7143 25.882 18.5873 24.6945 19.6827 23.2046C21.5264 20.6968 24 17.3322 24 12C24 5.37258 20.4183 0 16 0V27Z" fill="#FFB64F"/>
</svg>
