<?xml version="1.0" encoding="UTF-8"?>
<svg width="48px" height="48px" viewBox="0 0 48 48" version="1.1" xmlns="http://www.w3.org/2000/svg" xmlns:xlink="http://www.w3.org/1999/xlink">
    <!-- Generator: Sketch 46.2 (44496) - http://www.bohemiancoding.com/sketch -->
    <title>icon</title>
    <desc>Created with Sketch.</desc>
    <defs></defs>
    <g id="Page-Home" stroke="none" stroke-width="1" fill="none" fill-rule="evenodd">
        <g id="icon">
            <g id="cozy-health" transform="translate(0.000000, 2.000000)">
                <path d="M4.61167917,23.5544482 C1.78506481,21.0911158 0,17.472586 0,13.4390153 C0,6.01685209 6.04415587,0 13.5,0 C17.7408991,0 21.5250667,1.94666665 24,4.99134832 C26.4749332,1.94666665 30.2591008,0 34.5,0 C41.955844,0 48,6.01685209 48,13.4390153 C48,17.4139444 46.2664617,20.985813 43.510941,23.4462796 L25.014079,43.545469 C24.4540186,44.1540457 23.5418553,44.1489696 22.9871263,43.545469 L4.61167917,23.5544482 Z" id="Shape" fill="#FF8E8E" fill-rule="nonzero"></path>
                <polyline id="Shape" stroke="#F62C2C" stroke-width="2" stroke-linecap="round" stroke-linejoin="round" points="10 20.7333333 16 20.7333333 20.5 10 25 33 31 20.7333333 37 20.7333333"></polyline>
            </g>
        </g>
    </g>
</svg>