<svg xmlns="http://www.w3.org/2000/svg" width="40" height="40" viewBox="0 0 40 40">
  <g fill="none" fill-rule="evenodd">
    <circle cx="20" cy="20" r="20" fill="#E6D4FF"/>
    <path fill="#845CEA" fill-rule="nonzero" d="M8.01925513,21.7379548 C8.95055647,27.5284826 14.098884,31.9995947 20.000021,31.9995947 C24.639572,31.9995947 28.8697408,29.3043019 30.8948086,25.1955988 C31.2610434,24.4525372 30.955565,23.5532749 30.2125035,23.1870401 C29.4694419,22.8208054 28.5701796,23.1262838 28.2039449,23.8693453 C26.6784737,26.964406 23.484236,28.9996453 20.000021,28.9996453 C15.5839777,28.9996453 11.6804371,25.6095798 10.9811416,21.2615891 C10.8495969,20.4436868 10.0799179,19.887284 9.26201553,20.0188287 C8.44411316,20.1503735 7.88771037,20.9200525 8.01925513,21.7379548 Z M31.9857839,18.2951138 C31.1761716,12.4183015 26.0372155,8 20.000021,8 C15.2890916,8 11.0255611,10.7168809 9.04249502,14.8739826 C8.68582024,15.62168 9.0028067,16.5169505 9.75050411,16.8736253 C10.4982015,17.2303001 11.3934721,16.9133136 11.7501469,16.1656162 C13.2375856,13.0474982 16.4507507,10.9999493 20.000021,10.9999493 C24.5472451,10.9999493 28.4100153,14.3210292 29.0139035,18.7045315 C29.1269611,19.5251936 29.8838904,20.0988204 30.7045526,19.9857629 C31.5252147,19.8727053 32.0988415,19.1157759 31.9857839,18.2951138 Z M26.9601801,13.5975735 C26.3237755,13.0672364 25.3779444,13.153221 24.8476073,13.7896256 C24.3172701,14.4260302 24.4032547,15.3718613 25.0396593,15.9021985 L29.5395833,19.6521351 C30.5165572,20.46628 31.9998184,19.7715577 31.9998184,18.4998227 L31.9998184,12.499924 C31.9998184,11.6715109 31.3282568,10.9999493 30.4998437,10.9999493 C29.6714306,10.9999493 28.999869,11.6715109 28.999869,12.499924 L28.999869,15.2973143 L26.9601801,13.5975735 Z M13.039862,26.4020211 C13.6762666,26.9323583 14.6220977,26.8463736 15.1524348,26.209969 C15.682772,25.5735644 15.5967874,24.6277334 14.9603828,24.0973962 L10.4604588,20.3474595 C9.48348488,19.5333146 8.00022372,20.228037 8.00022372,21.499772 L8.00022372,27.4996707 C8.00022372,28.3280838 8.67178525,28.9996453 9.50019839,28.9996453 C10.3286115,28.9996453 11.0001731,28.3280838 11.0001731,27.4996707 L11.0001731,24.7022803 L13.039862,26.4020211 Z"/>
  </g>
</svg>
