<svg xmlns="http://www.w3.org/2000/svg" width="32" height="32" viewBox="0 0 32 32">
  <g fill="none" fill-rule="evenodd" transform="translate(0 1)">
    <path fill="#FF8E8E" d="M3.07445278,15.7742237 C1.19004321,14.1245499 0,11.7012497 0,9 C0,4.02943725 4.02943725,0 9,0 C11.8272661,0 14.3500445,1.30366693 16,3.34266566 C17.6499555,1.30366693 20.1727339,0 23,0 C27.9705627,0 32,4.02943725 32,9 C32,11.6619779 30.8443078,14.0540295 29.007294,15.7017841 L16.6760527,29.1620489 C16.3026791,29.5696078 15.6945702,29.5662084 15.3247509,29.1620489 L3.07445278,15.7742237 Z"/>
    <polyline stroke="#F62C2C" stroke-width="2" points="7 14 11 14 14 7 17 22 21 14 25 14" stroke-linecap="round" stroke-linejoin="round"/>
  </g>
</svg>
