<svg xmlns="http://www.w3.org/2000/svg" width="32" height="32" viewBox="0 0 32 32">
    <g fill="none" fill-rule="evenodd">
        <path fill="#ACF5F7" d="M2 2.002A2 2 0 0 1 3.997 0h22.006C27.106 0 28 .89 28 2.002v27.996A2 2 0 0 1 26.003 32H3.997A1.995 1.995 0 0 1 2 29.998V2.002z"/>
        <rect width="15" height="6" x="9" y="6" fill="#0DCBCF" rx="1"/>
        <path fill="#0DCBCF" d="M30.838 15.949l-9.899 9.9-2.466.926a1 1 0 0 1-1.288-1.288l.926-2.466 9.9-9.9 2.827 2.828zm.708-3.535a2 2 0 0 1 0 2.829l-2.829-2.829a2 2 0 0 1 2.829 0z"/>
        <g fill="#0DCBCF" transform="translate(0 4)">
            <rect width="5" height="3" rx="1.5"/>
            <rect width="5" height="3" y="7" rx="1.5"/>
            <rect width="5" height="3" y="14" rx="1.5"/>
            <rect width="5" height="3" y="21" rx="1.5"/>
        </g>
    </g>
</svg>
