<svg xmlns="http://www.w3.org/2000/svg" width="32" height="32" viewBox="0 0 32 32">
  <g fill="none" fill-rule="evenodd" transform="translate(6)">
    <path fill="#95999D" d="M17.3333333,32 L2.66666667,32 C1.19333333,32 0,30.7533913 0,29.2173913 L0,2.7826087 C0,1.2466087 1.19333333,0 2.66666667,0 L17.3333333,0 C18.8053333,0 20,1.2466087 20,2.7826087 L20,29.2173913 C20,30.7533913 18.8053333,32 17.3333333,32 Z"/>
    <path stroke="#F5F6F7" d="M8,1.50097656 L12,1.5" stroke-linecap="round" stroke-linejoin="round"/>
    <path fill="#F5F6F7" d="M11.5,29.5 C11.5,30.328 10.828,31 10,31 C9.172,31 8.5,30.328 8.5,29.5 C8.5,28.672 9.172,28 10,28 C10.828,28 11.5,28.672 11.5,29.5 L11.5,29.5 Z"/>
    <rect width="18" height="25" x="1" y="3" fill="#32363F"/>
  </g>
</svg>
