<svg width="32" height="32" viewBox="0 0 32 32" fill="none" xmlns="http://www.w3.org/2000/svg">
<path d="M16.0259 30.1179C29.7079 24.7779 28.6459 17.1859 27.9359 5.86192C23.5419 5.66792 19.6419 4.31792 16.0259 2.06592C12.4099 4.31792 8.51194 5.66792 4.11594 5.85992C3.40794 17.1839 2.34394 24.7759 16.0259 30.1159V30.1179Z" fill="#1B1C22"/>
<path d="M16.0259 0L15.0999 0.578C11.7099 2.688 8.09991 3.932 4.03991 4.11L2.46591 4.18L2.36591 5.752C2.33791 6.22 2.30591 6.684 2.27591 7.146C1.95191 12.118 1.64591 16.78 3.01591 20.798C4.59191 25.432 8.25391 28.966 15.3899 31.752L16.0259 32V30.118C2.87991 24.986 3.34591 17.778 4.03191 7.178L4.11591 5.862C8.51191 5.668 12.4099 4.318 16.0259 2.066V0Z" fill="#FFC600"/>
<path d="M16.0259 0L16.9539 0.578C20.3419 2.688 23.9539 3.932 28.0139 4.11L29.5879 4.18L29.6879 5.752L29.7759 7.146C30.1019 12.118 30.4059 16.78 29.0359 20.798C27.4599 25.432 23.7999 28.966 16.6639 31.752L16.0259 32V30.118C29.1719 24.986 28.7059 17.778 28.0199 7.178L27.9359 5.862C23.5419 5.668 19.6419 4.318 16.0259 2.066V0Z" fill="#DB8300"/>
<path d="M11 11.5C11 11.2239 11.2239 11 11.5 11H12.5C12.7761 11 13 11.2239 13 11.5V21H11V11.5Z" fill="#FFC600"/>
<path d="M15 15.5C15 15.2239 15.2239 15 15.5 15H16.5C16.7761 15 17 15.2239 17 15.5V21H15V15.5Z" fill="#FFC600"/>
<path d="M19.5 14C19.2239 14 19 14.2239 19 14.5V21H21V14.5C21 14.2239 20.7761 14 20.5 14H19.5Z" fill="#FFC600"/>
</svg>
