<svg width="24" height="24" viewBox="0 0 24 24" fill="none" xmlns="http://www.w3.org/2000/svg">
<path d="M22.5015 21C23.3348 21 24 20.3265 24 19.4963V4.50375C24 3.67275 23.328 3 22.4985 3H1.50075C0.66675 3 0 3.67275 0 4.50375V19.4963C0 20.3265 0.67125 21 1.4985 21H22.5015Z" fill="#FECAF3"/>
<path fill-rule="evenodd" clip-rule="evenodd" d="M11.25 15.375C11.25 14.8125 10.125 13.125 9 13.125C8.49432 13.125 8.32959 13.2386 8.14822 13.3638C7.92608 13.517 7.67899 13.6875 6.75 13.6875C5.82101 13.6875 5.57392 13.517 5.35178 13.3638C5.17041 13.2386 5.00568 13.125 4.5 13.125C3.375 13.125 2.25 14.8125 2.25 15.375C2.25 15.9375 2.25 16.5 2.8125 16.5H10.6875C11.1507 16.5 11.2325 16.1185 11.2469 15.6697L11.25 15.375ZM9 10.0312C9 8.63328 7.99264 7.5 6.75 7.5C5.50736 7.5 4.5 8.63328 4.5 10.0312C4.5 11.4292 5.50736 12.5625 6.75 12.5625C7.99264 12.5625 9 11.4292 9 10.0312ZM13.5 8.24991C13.0858 8.24991 12.75 8.58569 12.75 8.99991C12.75 9.41412 13.0858 9.74991 13.5 9.74991H20.25C20.6642 9.74991 21 9.41412 21 8.99991C21 8.58569 20.6642 8.24991 20.25 8.24991H13.5ZM13.5 11.2499C13.0858 11.2499 12.75 11.5857 12.75 11.9999C12.75 12.4141 13.0858 12.7499 13.5 12.7499H20.25C20.6642 12.7499 21 12.4141 21 11.9999C21 11.5857 20.6642 11.2499 20.25 11.2499H13.5ZM12.75 14.9999C12.75 14.5857 13.0858 14.2499 13.5 14.2499H20.25C20.6642 14.2499 21 14.5857 21 14.9999C21 15.4141 20.6642 15.7499 20.25 15.7499H13.5C13.0858 15.7499 12.75 15.4141 12.75 14.9999Z" fill="#DA44B6"/>
</svg>
