<svg xmlns="http://www.w3.org/2000/svg" xmlns:xlink="http://www.w3.org/1999/xlink" viewBox="0 0 13 16"><defs><path id="a" d="M10.88 8.5a3.53 3.53 0 0 0 2.15 3.24c-.02.05-.34 1.15-1.1 2.27-.68.98-1.37 1.95-2.46 1.97-1.07.02-1.41-.64-2.64-.64-1.22 0-1.6.62-2.62.66-1.05.04-1.85-1.06-2.53-2.03C.31 12-.74 8.37.67 5.91a3.92 3.92 0 0 1 3.31-2c1.03-.02 2 .7 2.64.7.63 0 1.82-.87 3.06-.74.53.02 1.99.21 2.93 1.59a3.59 3.59 0 0 0-1.73 3.04M8.87 2.55A3.5 3.5 0 0 0 9.7 0c-.8.03-1.78.54-2.36 1.21-.52.6-.97 1.56-.85 2.48.9.07 1.82-.46 2.38-1.14"/></defs><use fill="#000000" xlink:href="#a"/></svg>