<svg xmlns="http://www.w3.org/2000/svg" viewBox="0 0 15 16"><defs><linearGradient id="a" x1="91.54%" x2="-37.56%" y1="4.84%" y2="71.97%"><stop offset="0%" stop-color="#00A0FF"/><stop offset=".66%" stop-color="#00A1FF"/><stop offset="26.01%" stop-color="#00BEFF"/><stop offset="51.22%" stop-color="#00D2FF"/><stop offset="76.04%" stop-color="#00DFFF"/><stop offset="100%" stop-color="#00E3FF"/></linearGradient><linearGradient id="b" x1="107.73%" x2="-130.67%" y1="49.43%" y2="49.43%"><stop offset="0%" stop-color="#FFE000"/><stop offset="40.87%" stop-color="#FFBD00"/><stop offset="77.54%" stop-color="#FFA500"/><stop offset="100%" stop-color="#FF9C00"/></linearGradient><linearGradient id="c" x1="86.39%" x2="-49.89%" y1="17.82%" y2="194.39%"><stop offset="0%" stop-color="#FF3A44"/><stop offset="100%" stop-color="#C31162"/></linearGradient><linearGradient id="d" x1="-18.58%" x2="42.27%" y1="-54.53%" y2="24.69%"><stop offset="0%" stop-color="#32A071"/><stop offset="6.85%" stop-color="#2DA771"/><stop offset="47.62%" stop-color="#15CF74"/><stop offset="80.09%" stop-color="#06E775"/><stop offset="100%" stop-color="#00F076"/></linearGradient></defs><g fill="none"><path fill="url(#a)" d="M.86.3c-.18.2-.3.5-.3.87v13.6c0 .37.12.68.3.86l.06.06 7.63-7.63v-.12L.86.3z"/><path fill="url(#b)" d="M11.08 10.65L8.55 8.12v-.18l2.53-2.52.06.06 3.01 1.72c.87.5.87 1.3 0 1.78l-3.07 1.67z"/><path fill="url(#c)" d="M11.14 10.58L8.55 8 .86 15.7c.3.3.74.3 1.3.05l8.98-5.17"/><path fill="url(#d)" d="M11.14 5.42L2.15.3C1.6 0 1.17.06.86.37L8.56 8l2.58-2.58z"/><g fill="#000000" transform="translate(.615 10.462)"><path d="M10.46.06L1.54 5.11c-.5.3-.92.24-1.23 0l-.06.06.06.06c.3.25.74.3 1.23 0L10.46.06z" opacity=".2"/><path d="M.25 5.1C.06 4.93 0 4.63 0 4.26v.06c0 .37.12.67.3.86V5.1H.26z" opacity=".12"/></g><path fill="#000000" d="M14.15 8.8l-3.07 1.72.06.06 3.01-1.72c.43-.24.62-.55.62-.86 0 .3-.25.55-.62.8z" opacity=".12"/><path fill="#FFFFFF" d="M2.15.37l12 6.83c.37.25.62.5.62.8 0-.3-.19-.62-.62-.86L2.15.3C1.3-.2.62.25.62 1.23v.06c0-.98.67-1.41 1.53-.92z" opacity=".25"/></g></svg>