<svg xmlns="http://www.w3.org/2000/svg" viewBox="0 0 16 16"><g fill="none" fill-rule="evenodd"><path fill="#2B90D9" d="M14.28 9.57c-.21 1.12-1.91 2.36-3.85 2.6-1.02.12-2.01.23-3.08.19-1.74-.08-3.11-.43-3.11-.43 0 .17 0 .34.03.5.23 1.77 1.7 1.87 3.1 1.91 1.41.05 2.67-.36 2.67-.36l.06 1.32s-1 .54-2.75.64a11 11 0 0 1-3.58-.4C.73 14.71.21 11.36.12 7.98.1 6.98.11 6.04.11 5.24c0-3.46 2.2-4.48 2.2-4.48C3.44.24 5.35.01 7.34 0h.04c1.99.01 3.9.24 5.01.76 0 0 2.2 1.01 2.2 4.48 0 0 .04 2.56-.3 4.33"/><path fill="#FFFFFF" fill-rule="nonzero" d="M3.17 4.4c0-.5.4-.9.88-.9.49 0 .88.4.88.9s-.4.91-.88.91a.9.9 0 0 1-.88-.9zM15.9 5.51v4.2h-1.6V5.63c0-.86-.35-1.3-1.05-1.3-.77 0-1.17.53-1.17 1.55V8.1h-1.6V5.88c0-1.02-.4-1.55-1.18-1.55-.7 0-1.05.44-1.05 1.3V9.7H6.62V5.5c0-.86.21-1.54.64-2.04A2.2 2.2 0 0 1 9 2.7c.83 0 1.46.33 1.87.98l.4.69.4-.7a2.06 2.06 0 0 1 1.86-.97c.71 0 1.29.26 1.73.76.44.51.65 1.2.65 2.05z"/></g></svg>