<svg xmlns="http://www.w3.org/2000/svg" width="191" height="184" viewBox="0 0 191 184">
    <g fill="none" fill-rule="evenodd">
        <path fill="#FEDBA7" fill-rule="nonzero" d="M183.3 92c0-50.6-41-91.7-91.7-91.7C41 .3 0 41.4 0 92c0 11.5 2.1 22.5 6 32.6 8.3-3.3 18-3.4 27-4.4 13.6-1.5 27.5-1.6 41.1 0 9.1 1.1 20.2 2.5 27.2 9 4 3.6 5.5 8.3 7.1 13.3.5 1.6 3.6 13.6 3.7 14.5.4 2.1.7 4.1.4 6.2.7 4.1.9 8.2.7 12.4-.2 2.3-.3 4.2-.8 5.7 40.6-9.4 70.9-45.8 70.9-89.3z"/>
        <path fill="#288AFC" fill-rule="nonzero" d="M112.5 163.2c.3-2.1.1-4.1-.4-6.2-.1-.9-3.2-13-3.7-14.5-1.7-5-3.2-9.6-7.1-13.3-7.1-6.5-18.1-7.9-27.2-9-13.5-1.6-27.5-1.5-41.1 0-9 1-18.7 1.1-27 4.4 2.1 5.5 4.7 10.7 7.8 15.7 11 17.7 27.9 31.4 47.9 38.3 9.4 3.3 19.5 5 30 5 7.1 0 14.1-.8 20.8-2.4.5-1.5.6-3.3.8-5.7.2-4-.1-8.2-.8-12.3z"/>
        <path fill="#FD9E2A" fill-rule="nonzero" d="M178.3 122.3c-5.9-2.2-12.5-3-18.4-3.7-13.5-1.6-27.5-1.5-41.1.1-10.8 1.2-22.6 1.1-31.8 6.9-1 .6-6.8 4.8-7.7 5.9-2.7 3.4-4.4 8.1-6 12.1-.2.6-1.1 3.4-1.5 5.2 0 .2-.1.4-.1.6-1 2.6-2 5.5-2.8 8.5-2.1 6.7-4 13.5-5.8 20-.1.4-.2.8-.3 1.3 9.1 3 18.8 4.7 28.9 4.7 40-.1 74-25.8 86.6-61.6z"/>
        <path fill="#2BD1D4" fill-rule="nonzero" d="M122.9 111.7c-.1-.1-.3-.1-.4-.1h-.2c-1.2 0-2.4.1-3.4.8-1.1.8-1.6 2.1-1.7 3.4-.1 2.6 3.3 4 5.5 3.4 3.5-1 3.8-6.7.2-7.5zM155.2 111.7c-.1-.1-.3-.1-.4-.1h-.2c-1.2 0-2.4.1-3.4.8-1.1.8-1.6 2.1-1.7 3.4-.1 2.6 3.3 4 5.5 3.4 3.4-1 3.8-6.7.2-7.5z"/>
        <path fill="#2BD1D4" fill-rule="nonzero" d="M129.9 111.5c-.1-.1-.3-.1-.4-.1h-.2c-1.2 0-2.4.1-3.4.8-1.1.8-1.6 2.1-1.7 3.4-.1 2.6 3.3 4 5.5 3.4 3.5-1 3.8-6.7.2-7.5z"/>
        <path fill="#FEDBA7" fill-rule="nonzero" d="M170.6 120.1c.5.1.9.2 1.4.4.4.1-.2.9-.3 1.2-2 6.7-5.5 13.1-12.1 16.4-3.8 1.8-7.6 3.2-11.6 4.5-.1 0-.3.1-.5.1-.1 0-.2.1-.3.1-4.2 2.2-9.8 4.3-11.3 9.1-.1.4-.6.6-1.1.6-.4 0-.8-.2-.9-.6-1.3-8-9.9-9.4-16.2-13-2.5-.7-4.9-1.6-6.9-3.1-2.3-1.8-4.7-4.4-5.6-7.4-.9-3-.3-5 .1-8 0-.3.2-.5.4-.6-1.1.1-2.3.3-3.4.5-.1.5-.1.9-.2 1.3-.4 2.4-.7 4.6.2 7.7 1.1 3.9 4.2 7 6.6 8.9 2.3 1.8 5.1 2.8 7.6 3.5 1.6.9 3.3 1.7 5 2.4 5.4 2.4 8.8 4.1 9.5 8.3.3 1.9 1.9 3.2 3.8 3.2 1.8 0 3.4-1.1 3.9-2.7 1-2.9 4.5-4.7 7.9-6.4.7-.3 1.3-.6 1.9-1 .1 0 .2-.1.3-.1 4.9-1.6 8.6-3 12-4.7 6.5-3.2 10.9-9.1 13.6-18.1v-.1c.2-.3.4-.8.5-1.5-1.3-.2-2.8-.6-4.3-.9z"/>
        <path fill="#288AFC" fill-rule="nonzero" d="M171.9 120.3c-16.2-4.2-20.5-4.3-31-4.2-2.9 0-5.8.1-8.7.2-6.1 0-12.4.4-17.8 2.2-.2 0-.4.1-.6.1-.8.1-2.7.3-3.5.4-1.5.3-4.2.6-4.2.6-.4.1-.5.2-.6.8-.4 3-1 5-.1 8 .9 2.9 3.2 5.5 5.6 7.4 1.9 1.5 4.4 2.4 6.9 3.1 6.3 3.6 14.9 5 16.2 13 .1.9 1.7.8 1.9 0 1.6-4.8 7.2-6.9 11.3-9.1.1 0 .2-.1.3-.1.2 0 .3-.1.5-.1 4-1.3 7.8-2.6 11.6-4.5 6.7-3.3 10.1-9.6 12.1-16.4 0-.3.5-1.3.1-1.4z"/>
        <path fill="#2BD1D4" fill-rule="nonzero" d="M40 30.5c-1.6-.8-3.8-.1-5.5.6h-.2c-.5.1-1 .3-1.5.5h-.1c-9.4 3.2-14 13.4-15.5 22.6-.7 4.1-.5 18.6 5.7 19.3.5.1 1-.4 1-.9.4-6.2 1.4-13.5 4.6-19 2-3.3 4.8-5.4 7.1-8.2.8-.4 1.4-.8 2.1-1.5.3-.3.6-.7.9-1.1.7-.6 1-1.3 1.2-2.1.5-1.3.8-2.8 1-4.3 0-1.2.8-5.1-.8-5.9zM88.7 44.3c-1.6-2.9-10.8-13.2-12.1-5.9-.2 0-.4 0-.6.1-.4.2-.7.4-.8.9-.1.4.1.7.4.9.4 4.4 3.2 8 5.4 11.8 1.9 3.3 3.4 6.7 4.2 10.5.6 2.8 0 5.6.7 8.3.2.7 1.2.8 1.7.4 2.9-2.2 4-8.1 4.6-11.4.8-4.6-1.2-11.6-3.5-15.6z"/>
        <path fill="#FD9E2A" fill-rule="nonzero" d="M24.2 66.3V66c0-.3-.2-.5-.4-.6-.9-2-3.1-2.1-5-1.3-2.9 1.2-3.1 6.5-3.2 8.9-.3 4.3.5 8.5 3.4 11.8 1.4 1.6 4.3 1.8 4.9-.4v-.1c.6-1.4.7-3.8.7-4.8-.1-4.4.2-8.8-.4-13.2zM91.1 64.8c-2.7-1.5-4.2.5-5.5 2.7-.2.3-.2.6 0 .8 0 0 0 .1-.1.1-1.2 3.8-5.9 10.2-3.9 14.5-.3.5-.2 1.1.5 1.3 1.4.3 2.2 1.6 3.7 2 1.2.3 2.3-.7 3-1.5 2.7-3 3.3-7.8 3.7-11.6.3-2.2 1.2-6.8-1.4-8.3z"/>
        <path fill="#FD9E2A" fill-rule="nonzero" d="M83.8 46.5C80.4 37 74 28.3 63.9 25.2c-5.1-1.5-12.3-2.5-17.4.1-.8.3-5.3 2.7-8.8 6.1-2.3 2.3-4.5 4.6-6.2 7.8-3.2 5.6-5.5 11.3-6.8 17.7-2.3 12-2.9 22.6.4 34.5 2.7 9.7 8.4 19.3 17.6 23.9 8.4 4.2 18.5 2.5 25.5-3.5 17.6-15.1 23.1-44 15.6-65.3z"/>
        <path fill="#FD9E2A" fill-rule="nonzero" d="M37.9 111.2c.5 2.7.4 1 .5 3.7 0 3.4-1.5 6.3-1.4 7.5.2 1.2.9 2.6 4.7 4.6 6.2 3.2 15.8 3.4 23.9-.7 1.8-.9 3.8-2 3.2-5-.5-2.5-1.6-1.9-.9-10 1.1-.4-41.7-4-30-.1z"/>
        <g fill="#FEDBA7" fill-rule="nonzero">
            <path d="M49.9 93h-.1c-.5 0-.8.3-.9.7-.1.1-.1.2-.2.3-.7 2.9 1 6 3.6 7.2.5.3 1 .5 1.7.5V93h-4.1z"/>
            <path d="M58 93h.1c.5 0 .8.3.9.7.1.1.1.2.2.3.7 2.9-1 6-3.6 7.2-.5.3-1 .5-1.7.5V93H58z"/>
        </g>
        <g fill="#FEDBA7" fill-rule="nonzero">
            <path d="M46.4 70.8c-1.2-1.7-2.9-2.3-4.9-2.5-1.2-.1-2.4.1-3.5.3-1.4.3-2.6 1.2-4 1.4-1.3.2-.7 1.9.5 1.7 1.2-.2 2.3-.8 3.5-1.2 0 .1-.1.1-.1.2-1.3 1.7-1.3 4.4.3 6 .7.8 2 1 3.2.8 1.3-.3 1.9-1.4 2.2-2.2.6-1.5.6-3.6-.7-5 .7.3 1.4.7 1.9 1.3.6 1 2.3.2 1.6-.8zM59.7 70.9c1.2-1.7 2.9-2.3 5-2.5 1.2-.1 2.4.1 3.5.3 1.4.3 2.6 1.2 4 1.4 1.3.2.7 1.9-.5 1.7-1.2-.2-2.3-.8-3.5-1.2 0 .1.1.1.1.2 1.3 1.7 1.3 4.4-.3 6-.7.8-2 1-3.2.8-1.3-.3-1.9-1.4-2.2-2.2-.6-1.5-.6-3.6.7-5-.7.3-1.4.7-1.9 1.3-.6 1-2.4.2-1.7-.8z"/>
        </g>
        <g fill="#FEDBA7" fill-rule="nonzero" opacity=".5">
            <path d="M80 72.9c-.4-.2-.8-.3-1.3-.2-.2 0-.4 0-.6.1h-.2c-.3-.1-.6-.2-1 0s-.7.8-.4 1.2c.3.5.9.6 1.4.6.2 0 .4 0 .7-.1h.3c1.1.5 2.2-1 1.1-1.6zM78.1 76.1c-.4 0-.9-.1-1.2-.2-.5-.2-1.1-.1-1.4.3-.3.4-.1 1 .4 1.2.7.3 1.4.4 2.2.5.5 0 1-.4 1-.9s-.5-.9-1-.9zM30.1 72.4c-.8 0-1.6-.2-2.3-.2-1.3 0-1.3 1.8 0 1.8.8 0 1.6.2 2.3.2 1.3 0 1.3-1.8 0-1.8zM30.3 75.5h-.6c-.6-.3-1.6-.1-1.6.7v.2c0 .5.5.9 1 .9h1.2c.5 0 1-.4 1-.9s-.5-.9-1-.9zM43.8 93.8c.5-1.1-1.5-1.5-1.9-.5-.3.7-.9 1.6-1 2.4-.1.6-.1 1.2-.1 1.8 0 1.3.2 2.6 1.1 3.5.8.8 2.3-.3 1.4-1.3-.6-.6-.5-1.8-.5-2.6-.1-1.2.5-2.1 1-3.3zM64.1 93.8c-.5-1.1 1.5-1.5 1.9-.5.3.7.9 1.6 1 2.4.1.6.1 1.2.1 1.8 0 1.3-.2 2.6-1.1 3.5-.8.8-2.3-.4-1.4-1.3.6-.6.5-1.8.5-2.6 0-1.2-.5-2.1-1-3.3z"/>
        </g>
        <path fill="#BBD9FD" fill-rule="nonzero" d="M68.8 121.2c.6 3-1.4 4.1-3.2 5-4.2 2.1-8.8 3.1-13.1 3.1-4 0-7.8-.9-10.8-2.4-3.9-2-4.5-3.4-4.7-4.6-.1-.5.2-1.5.6-2.7-1.1.1-2.1.2-3.2.3-.3 1-.5 1.9-.3 2.9.4 2.7 2.3 4.7 6.3 6.8 3.4 1.8 7.6 2.7 12.1 2.7 5.1 0 10.1-1.2 14.5-3.4 1.8-.9 5.9-3 4.8-8.3-.1-.3-.1-.6-.2-.8l-3.3-.3c.1.5.3 1 .5 1.7z"/>
        <path d="M68.8 157.7c.8-3 1.8-5.9 2.8-8.5 0-.2.1-.4.1-.6.4-1.8 1.3-4.5 1.5-5.2 1.6-4 3.3-8.7 6-12.1.9-1.1 6.7-5.3 7.7-5.9 9.3-5.7 21.1-5.7 31.8-6.9 13.5-1.5 27.5-1.6 41.1-.1 5.8.7 12.5 1.5 18.4 3.7 3.3-9.5 5.1-19.7 5.1-30.3C183.3 41.1 142.2 0 91.6 0 40.9.2-.1 41.3-.1 92c0 17.8 5 34.3 13.8 48.4 11 17.7 27.9 31.4 47.9 38.3.4.1.8.2 1.1.4.1-.5.2-.9.3-1.3 1.8-6.6 3.7-13.4 5.8-20.1z"/>
        <path fill="#BBD9FD" fill-rule="nonzero" d="M189.1 67.3c.7-5.7-2.4-11-7-13.6 4.1-2.3 9.8-5.7 7.5-11.3-1-2.3-3.5-3.9-6.2-4.6 1.1-1.1 1.6-2.6.2-4.4-3.1-4.1-7.9-5.6-12.7-4.8 1.3-2 2.9-4.2.8-6.1-2.6-2.3-5.9-1.3-8.9-.7.6-2.2 1-5.4-1.4-6.3-2.9-1.1-5.7-.7-8.4.6-1-3.5-3.1-5.6-6.9-6.1-4.1-.5-6.4 1.8-7.3 5.1-2.4-2.4-5.5-3.6-9-2.7-4.7 1.2-5.2 5.4-6.3 9.3-2.3-2.6-5.4-5.3-8.7-2.3-1.8 1.7-3 4.1-3.5 6.7-1.2-1.2-2.7-1.6-4.7-.5-2.4 1.4-3.1 5.3-3.6 7.7-.1.3-.1.7-.2 1h-.3c-3.6-.4-7 .2-9.4 3.2-2 2.5-.1 6.6 1.3 9.1-1.6.8-3 1.8-3.9 2.7-4 3.6-1.7 8 1.4 11-4.2.5-8.4 3.6-8.2 8.4.1 4 3.5 7.1 7.2 9-.9 1.6-1.5 3.5-1.8 5.2-.1 1.1 0 2.1.2 3.1-.1 1.7.2 3.6 1.1 5.3 1.7 3.3 7.3 6.2 12 6.4-1.1 4 .6 8.4 5 9.4 6.6 1.6 11.3-.2 16.9-2.7 0 4.8 4.8 6.2 9.5 6.5 3 .2 17.5-2.7 17-7.8.2 2 3.8 3.8 5.2 4.5 3 1.6 5.9 2.1 9.2 1.1 4.1-1.3 7.4-5.5 7.7-9.8 4.6 2.5 9.6-5.7 9.9-11.3 6.1 2.9 8.5-10.6 4.7-16.4.9-.8 1.4-2.6 1.6-3.9z"/>
        <path fill="#288AFC" fill-rule="nonzero" d="M166.5 52.1c-3.2-8.5-9.2-16.2-18.6-18.9-5.8-1.7-14.5-2.7-19 1.9-.4-.4-1.1-.5-1.5-.1-3.5 3.4-6.8 5.9-9.3 10.2-2.9 4.9-5 9.9-6.1 15.5-2 10.5-2.4 19.9.7 30.3 2.6 8.6 7.9 17.1 16.5 21.2 7.8 3.7 17.1 2.4 23.5-2.9 16.2-13 21-38.4 13.8-57.2z"/>
        <path fill="#288AFC" fill-rule="nonzero" d="M126.5 109.6c.4 2.7.4 1 .4 3.7 0 3.4-1.2 6.3-1.1 7.5.1 1.2.7 2.6 3.8 4.6 5 3.2 12.7 3.4 19.2-.7 1.5-.9 3.1-2.1 2.6-5-.4-2.5-1.3-1.9-.7-10 .8-.4-33.6-4-24.2-.1z"/>
        <path fill="#BBD9FD" fill-rule="nonzero" d="M157.1 36.4c-4.9-4.8-10.4-8.9-17.2-10.3-6.6-1.3-12.6 2.1-17.8 5.8-6.1 4.4-9.7 10.7-13.2 17.1-2.1 3.9-3.7 7.9-4.2 12.3-.2 2.2-.5 4.3-.6 6.5-.1 1.4.6 2.5.2 4-.2.7.5 1 1.1.9.3 2.1 1.2 3.7 3.3 4 4.8.8 7.7-5.7 9.4-10.6.8 2.5 2.3 4.6 5.2 2.6 3.4-2.5 5-6.4 5.3-10.4 1.5 1.5 3.6 2.1 6.3.9 3-1.3 3.9-5 3.6-8.4 1.7.9 3.8 1.2 5.9 1 4.7-.4 5.4-3.7 4.7-6.9 2.8 1.2 6.4.7 8.1-2.3.8-1.4.5-3.1-.5-4.9.6-.2.9-.8.4-1.3z"/>
        <path fill="#288AFC" fill-rule="nonzero" d="M112.2 76.1c0-.1-.1-.2-.1-.3-.1-.3-.3-.4-.5-.5-1.3-1.8-3.5-1.5-5.2-.3-2.6 1.8-1.8 6.9-1.5 9.3.6 4.3 2.1 8.3 5.6 11 1.7 1.3 4.5 1 4.8-1.3v-.1c.4-1.5 0-3.8-.2-4.8-.9-4.4-1.4-8.8-2.9-13zM171.8 74.3c-2.7-1.5-4.2.5-5.5 2.7-.2.3-.2.6 0 .8 0 0 0 .1-.1.1-1.2 3.8-5.8 10.2-3.8 14.5-.3.5-.2 1.1.5 1.3 1.4.3 2.2 1.6 3.7 2 1.2.3 2.3-.7 3-1.5 2.7-3 3.3-7.8 3.7-11.6.2-2.3 1.1-6.9-1.5-8.3z"/>
        <path fill="#BBD9FD" fill-rule="nonzero" d="M174 44.9c-2.4-6.8-9.8-13-16.8-11-3.4-1.3-7-2.1-10.7-1.5-4.1.6-13.3 6-11.6 11 .9 2.7-.6 4.8.2 7.3s3.3 4.3 5.4 5.5c2.7 1.4 4.8.3 6.3-1.7.2.4.3.9.6 1.4 1.5 2.9 4.4 2.9 7.1 2.1-.3 2.4-.7 5.6 1.6 7 2 1.2 3.6 1.2 5 .4-.2 2.1-.1 4.6.6 6.6.6 2 1.8 3.6 3.5 4.2 1.9 1.5 4.6.9 6.4-.6 7.9-7 5.4-22.1 2.4-30.7z"/>
        <g fill="#BBD9FD" fill-rule="nonzero">
            <path d="M145.1 94.6c0-.1-.1-.3-.2-.3-.1-.4-.4-.7-.9-.7h-8.2c-.5 0-.8.3-.9.7-.1.1-.1.2-.2.3-.7 2.9 1 6 3.6 7.2.5.3 1 .5 1.6.5.6-.1 1.2-.2 1.6-.5 2.6-1.2 4.3-4.3 3.6-7.2zM132.2 80.7c-1.2-1.7-2.9-2.3-4.9-2.5-1.2-.1-2.4.1-3.5.3-1.4.3-2.6 1.2-4 1.4-1.3.2-.7 1.9.5 1.7 1.2-.2 2.4-.9 3.6-1.3 1.3-.3 2.2-.4 4-.2.2 0 1 .2 1.2.3.5.3 1.1.7 1.4 1.2.6 1 2.4.1 1.7-.9zM145.3 80.7c1.2-1.7 2.9-2.3 4.9-2.5 1.2-.1 2.4.1 3.5.3 1.4.3 2.6 1.2 4 1.4 1.3.2.7 1.9-.5 1.7-1.2-.2-2.4-.9-3.6-1.3-1.3-.3-2.2-.4-4-.2-.2 0-1 .2-1.2.3-.5.3-1.1.7-1.4 1.2-.6 1-2.4.1-1.7-.9z"/>
            <g opacity=".5">
                <path d="M129.7 93.6c.5-1.1-1.5-1.5-1.9-.5-.3.7-.9 1.6-1 2.4-.1.6-.1 1.2-.1 1.8 0 1.3.2 2.6 1.1 3.5.8.8 2.3-.3 1.4-1.3-.6-.6-.5-1.8-.5-2.6-.1-1.2.5-2.2 1-3.3zM150 93.6c-.5-1.1 1.5-1.5 1.9-.5.3.7.9 1.6 1 2.4.1.6.1 1.2.1 1.8 0 1.3-.2 2.6-1.1 3.5-.8.8-2.3-.3-1.4-1.3.6-.6.5-1.8.5-2.6.1-1.2-.5-2.2-1-3.3zM165.3 78.9c-.4-.2-.8-.3-1.3-.2-.2 0-.4 0-.6.1h-.2c-.3-.1-.6-.2-1 0s-.7.8-.4 1.2c.3.5.9.6 1.4.6.2 0 .4 0 .7-.1h.3c1.1.5 2.2-1 1.1-1.6zM163.4 82.1c-.4 0-.9-.1-1.2-.2-.5-.2-1.1-.1-1.4.3-.3.4-.1 1 .4 1.2.7.3 1.4.4 2.2.5.5 0 1-.4 1-.9s-.5-.9-1-.9z"/>
                <g>
                    <path d="M115.4 78.5c-.8 0-1.6-.2-2.3-.2-1.3 0-1.3 1.8 0 1.8.8 0 1.6.2 2.3.2 1.3 0 1.3-1.8 0-1.8zM115.6 81.6h-.6c-.6-.3-1.6-.1-1.6.7v.2c0 .5.5.9 1 .9h1.2c.5 0 1-.4 1-.9s-.5-.9-1-.9z"/>
                </g>
            </g>
        </g>
        <g fill="#2BD1D4" fill-rule="nonzero">
            <path d="M117.9 115c-.1-.1-.3-.1-.4-.1h-.2c-1.2 0-2.4.1-3.4.8-1.1.8-1.6 2.1-1.7 3.4-.1 2.6 3.3 4 5.5 3.4 3.5-1 3.8-6.7.2-7.5z"/>
            <path d="M120.2 119.2c-.1-.1-.3-.1-.4-.1h-.2c-1.2 0-2.4.1-3.4.8-1.1.8-1.6 2.1-1.7 3.4-.1 2.6 3.3 4 5.5 3.4 3.4-1 3.8-6.7.2-7.5z"/>
            <path d="M124.9 123.2c-.1-.1-.3-.1-.4-.1h-.2c-1.2 0-2.4.1-3.4.8-1.1.8-1.6 2.1-1.7 3.4-.1 2.6 3.3 4 5.5 3.4 3.5-1 3.8-6.7.2-7.5z"/>
            <path d="M130.4 125.7c-.1-.1-.3-.1-.4-.1h-.2c-1.2 0-2.4.1-3.4.8-1.1.8-1.6 2.1-1.7 3.4-.1 2.6 3.3 4 5.5 3.4 3.5-1 3.8-6.7.2-7.5z"/>
            <path d="M137.2 126.7c-.1-.1-.3-.1-.4-.1h-.2c-1.2 0-2.4.1-3.4.8-1.1.8-1.6 2.1-1.7 3.4-.1 2.6 3.3 4 5.5 3.4 3.4-1 3.8-6.7.2-7.5z"/>
            <path d="M142.4 126.2c-.1-.1-.3-.1-.4-.1h-.2c-1.2 0-2.4.1-3.4.8-1.1.8-1.6 2.1-1.7 3.4-.1 2.6 3.3 4 5.5 3.4 3.5-1 3.8-6.7.2-7.5z"/>
            <path d="M147.9 125.2c-.1-.1-.3-.1-.4-.1h-.2c-1.2 0-2.4.1-3.4.8-1.1.8-1.6 2.1-1.7 3.4-.1 2.6 3.3 4 5.5 3.4 3.5-1 3.8-6.7.2-7.5z"/>
            <path d="M152.7 123.2c-.1-.1-.3-.1-.4-.1h-.2c-1.2 0-2.4.1-3.4.8-1.1.8-1.6 2.1-1.7 3.4-.1 2.6 3.3 4 5.5 3.4 3.4-1 3.8-6.7.2-7.5z"/>
            <path d="M156.2 120.5c-.1-.1-.3-.1-.4-.1h-.2c-1.2 0-2.4.1-3.4.8-1.1.8-1.6 2.1-1.7 3.4-.1 2.6 3.3 4 5.5 3.4 3.4-1 3.8-6.7.2-7.5z"/>
            <path d="M159.9 117.3c-.1-.1-.3-.1-.4-.1h-.2c-1.2 0-2.4.1-3.4.8-1.1.8-1.6 2.1-1.7 3.4-.1 2.6 3.3 4 5.5 3.4 3.4-1 3.8-6.7.2-7.5z"/>
            <path d="M160.3 113.4c-.1-.1-.3-.1-.4-.1h-.2c-1.2.1-2.4.2-3.3.9-1.1.8-1.5 2.2-1.5 3.5 0 2.6 3.5 3.9 5.6 3.2 3.3-1.1 3.4-6.8-.2-7.5z"/>
        </g>
    </g>
</svg>
