<svg xmlns="http://www.w3.org/2000/svg" width="184" height="184" viewBox="0 0 184 184">
    <g fill="none" fill-rule="evenodd">
        <path fill="#2BD1D4" fill-rule="nonzero" d="M.1 92C.1 41.4 41.1.3 91.8.3c50.6 0 91.7 41 91.7 91.7 0 50.6-41 91.7-91.7 91.7-10.5 0-20.6-1.8-30-5-20-6.9-36.9-20.6-47.9-38.3C5.2 126.3.1 109.7.1 92z"/>
        <path fill="#B7F6F7" fill-rule="nonzero" d="M65.3 169.2c4.7-.5 7.1-2 9.3-6.2.8-1.5 1.1-6.7 0-7.8-2.6-2.6 1.5-4.3 3-5.7 1.6-1.4 2.6-3.7 3.4-5.6 2.5-5.5 3.3-11.3 2.8-17.3-.5-6.5-5.6-14.4-1.1-20.1 7.2-9.1 9.2-19.6 4.3-30.4-1.2-2.7-3-5-4.2-7.7-1.6-3.5.5-7.7 1.7-11 .6-1.8 1.6-4.4 1.2-6.3-.5-2.5-1.4-4.9-2-7.4 0-.1.1-.2 0-.4-.1-.8-.3-1.5-.5-2.2v-.3c0-.2-.1-.4-.2-.5-2.4-6.1-9.6-7.6-16-7.1-4.2.3-8.5 1.5-12 3.7-5.5 3.5-2.9 9.8-7.2 13.7-2.3 2.1-5.7 3.2-8.4 4.8-2.2 1.3-4.1 3.2-5.8 5.1-3.9 4.2-6.7 9.4-8.6 14.7-1.5 4.2-2.3 9.7-.2 13.8 2.6 5.2 10.1 9.4 9 15.9-.7 4.1-4.8 3.6-7.2 5.8-1.9 1.8-4.3 3.3-5.8 5.5-1.7 2.4-4.5 6.9-1.8 9.6.6.6.8.7 1.5 1.2 2.2 1.4 1.4 4.4.1 6.3-1.5 2.2-2.6 3.8-3.5 6.3-.4 1.3-.7 2.8-.9 4.3 6.2 9 14 16.9 23 23.2 2.8.7 5.5 1.2 8 1.6 6 1 12.1 1.1 18.1.5z"/>
        <path fill="#B7F6F7" fill-rule="nonzero" d="M94.4 114.7c-.5 6 .4 11.8 2.8 17.3.8 1.9 1.9 4.2 3.4 5.6 1.5 1.3 5.7 3 3 5.7-1.2 1.2-.8 6.3 0 7.8 2.1 4.2 4.5 5.7 9.3 6.2 6 .6 12.1.5 18-.5 10-1.7 24.3-5.2 29.4-15 2-4 2.2-9.9.7-14.1-.9-2.5-2-4.1-3.5-6.3-1.2-1.9-2.1-4.9.1-6.3.7-.4.9-.6 1.5-1.2 2.7-2.7-.1-7.3-1.8-9.6-1.5-2.1-3.9-3.7-5.8-5.5-2.3-2.2-6.5-1.7-7.2-5.8-1.1-6.5 6.4-10.7 9-15.9 2.1-4.1 1.2-9.7-.2-13.8-1.9-5.4-4.6-10.6-8.6-14.7-1.7-1.8-3.6-3.8-5.8-5.1-2.7-1.5-6.1-2.7-8.4-4.8-4.3-3.9-1.7-10.2-7.2-13.7-3.6-2.2-7.8-3.4-12-3.7-6.5-.5-13.7 1.1-16 7.1-.1.1-.2.3-.2.5v.3c-.2.7-.4 1.4-.5 2.2v.4c-.6 2.5-1.5 4.9-2 7.4-.4 1.9.6 4.5 1.2 6.3 1.2 3.3 3.3 7.5 1.7 11-1.2 2.7-3 5-4.2 7.7-4.9 10.8-2.9 21.3 4.3 30.4 4.6 5.7-.5 13.7-1 20.1z"/>
        <path d="M.1 92C.1 41.4 41.1.3 91.8.3c50.6 0 91.7 41 91.7 91.7 0 50.6-41 91.7-91.7 91.7-10.5 0-20.6-1.8-30-5-20-6.9-36.9-20.6-47.9-38.3C5.2 126.3.1 109.7.1 92z"/>
        <path fill="#FD9E2A" fill-rule="nonzero" d="M141.8 137.2c-7.1-6.5-18.2-7.9-27.3-8.9-13.5-1.6-27.5-1.5-41.1.1-10.8 1.2-22.6 1.1-31.8 6.9-1 .6-6.8 4.8-7.7 5.9-2.7 3.4-4.4 8.1-6 12.1-.2.4-.7 2-1.1 3.5 9.7 9.8 21.6 17.3 34.9 22 9.4 3.3 19.5 5 30 5 23 0 44-8.4 60-22.4-1-4-2.5-9.8-2.9-10.8-1.5-5.2-3-9.8-7-13.4z"/>
        <path fill="#906CEA" fill-rule="nonzero" d="M133.8 61.5c-9.3-16.7-33.1-26.3-51.8-21.6h.1c1.6-1 0-3.1-1.4-2.2-9.8 5.9-20 11.6-26.5 21.3-6.9 10.3-5.8 23.9-1.9 35 4.5 12.8 14.4 21.4 26 25.3.5 2.7.4 1 .5 3.7 0 3.4-1.5 6.3-1.3 7.5.2 1.2.9 2.6 4.7 4.6 6.2 3.2 15.8 3.4 23.9-.7 1.8-.9 3.8-2.1 3.2-5-.5-2.5-1.6-1.9-.9-10 1.1-.4 2.2-.7 3.3-1.2 21.2-8.7 33.6-35.8 22.1-56.7z"/>
        <path fill="#C9B8F4" fill-rule="nonzero" d="M102.5 105.3c.1-.8-.6-1.1-1.2-1-3.3.5-6.7.4-10 .3-2.1-.1-4.3-.3-6.3-.3h-.4c-.4 0-.7.2-.9.5-.1.1-.2.4-.1 1 .1.9.8 2.1.9 2.2.4.8 1 1.4 1.6 2 1.6 1.5 3.9 2 6.1 2.3 3 .3 6.6-1.3 8.8-3.7.7-.8 1.4-2.1 1.5-3.3z"/>
        <path fill="#B7F6F7" fill-rule="nonzero" d="M144.4 62.9c-.8-1.8-2-3.6-3.4-5.1-3-3.2-4.9-6.1-6.3-10.3-3.4-10.3-13-18.3-23-22-2.8-1-5.6-1.8-8.5-2.4-.5-.1-1-.2-1.5-.2-11.1-10.3-32.3-5.4-44.5-.6-9 3.5-15.8 8.7-21.7 16.4-5.9 7.6-7.2 17.9-8.8 27-.8 4.5-1.9 8.9-4.4 12.7-2.6 3.9-7.5 5.2-11.5 7.3-5.8 3.1-7.8 10.2-4.6 16 1.9 3.5 4.6 6.3 7.1 9.3 1.8 2.2 4.1 5.3 0 6.7-1.5.5-3 .7-4.5 1-3.1.6-4.4 1.6-6.4 4.1-2.6 3.5-.7 5.9-.1 9.2-.3.2-.5.5-.3.9 5.2 14.5 22.3 13.7 34.5 9.2 13.5-5 25.1-17.6 26.7-32.1 1-8.6-1.5-16.7-6.4-23.8-7.2-10.4-4.8-21.8 6-28.4 4.4-2.7 9.5-3.5 14.3-5 4-1.3 7.6-3.4 10.8-6.2 1.6-1.3 3-2.9 4.4-4.5 2.8 6.9 8.2 13.3 14.4 16.6 9 4.7 22.2 7.5 27.4 16.6.1.7.2 1.3.3 2-.1.1-.1.3-.2.4-1.4 2.9-4 5.2-4 8.7 0 1.5.3 2.7.6 4.2.8 3.7-.9 5.9-3.3 8.3-2 1.9-4.4 3.6-5.6 6.2-2.5 5.3-.7 10.9 4.8 13.3 3.9 1.7 9.2.1 10.8-3.9.5-1.1-1.5-1.5-1.9-.5-2.2 5.3-9.2 3.1-11.7-.1-3.2-4.1 0-9 3-11.9.4-.4.8-.7 1.2-1.1-2.6 3.8-5.2 8.3-1.5 11.6.5.4 1.2.2 1.5-.1.8.1 1.6-.5 1.1-1.3-.6-.7 8.9-11.2 9.4-11.8 4.1-5.4 6.9-12 8.2-18.7.8-5.8.1-12.1-2.4-17.7zm-38.7-11.2c1.6 1.1 3.4 2.1 5.2 3l-4.5-1.8c-2.9-1.3-5.3-3.3-7.3-5.7-.8-1-1.9-2.2-2.8-3.4.2.1.3.2.5.4 3.1 3.4 7.4 6.5 8.9 7.5zm16.2 12.1c-5.9-2.5-12.4-4.8-17.8-8.5-2-1.4-4.1-3.6-5.9-6.1 2.9 3.4 7.1 5.3 11.1 6.9 7.7 3 16.3 6.7 22.3 12.7.3.6.5 1.2.8 1.7-2.8-2.8-6.5-5-10.5-6.7z"/>
        <g fill-rule="nonzero">
            <path fill="#FEE2CA" d="M125.8 68.5c-4.5-.8-9.6-1.1-14.2-.8-.9.1-1.7.3-2.6.5-2.7.3-5.3 1.1-7.6 3.2-2.6 2.3-3.9 6.3-3.7 11.6.3 7.6 5.7 12.9 13.2 12.9.8 0 1.5-.1 2.3-.2 3.8-.5 7.6-2.9 10.1-6.4.9-1.3 1.6-2.6 2.1-4 1.3-2.9 2-5.8 2.6-9.5.4-2.8 1.4-6.7-2.2-7.3z"/>
            <path fill="#906CEA" d="M124.4 79.1c-.9-5.2-6.6-9.5-11.8-9-.1-.1-.3-.2-.6-.2-3.4 0-6.5.5-9.1 2.9-2.7 2.4-3.2 6.7-3.1 10.1.2 7.5 6.1 12.1 13.4 11 6.6-1 12.3-8.1 11.2-14.8z"/>
            <path fill="#FEE2CA" d="M58.5 75.8c.5 3.7 1.2 6.6 2.6 9.5.5 1.4 1.2 2.7 2.1 4 2.5 3.5 6.3 5.8 10.1 6.4.8.1 1.6.2 2.3.2 7.5 0 12.9-5.3 13.2-12.9.2-5.3-1.1-9.3-3.7-11.6-2.3-2.1-5-2.9-7.6-3.2-.8-.3-1.7-.4-2.6-.5-4.6-.3-9.7 0-14.2.8-3.6.6-2.6 4.5-2.2 7.3z"/>
            <path fill="#906CEA" d="M73.4 93.8c7.3 1 13.2-3.5 13.4-11 .1-3.4-.4-7.6-3.1-10.1-2.6-2.3-5.7-2.8-9.1-2.9-.3 0-.4.1-.6.2-5.2-.5-10.9 3.7-11.8 9-1.2 6.8 4.6 13.9 11.2 14.8z"/>
            <path fill="#FEE2CA" d="M99.6 80.1c-1.6-2-3.2-3.9-5.9-4.1-2.2-.2-5.7 1.7-6.8 3.6-.6 1.1 1.2 1.9 1.7.9.7-1.3 2.3-1.9 3.6-2.4 2.6-1.1 4.2 1.1 5.6 2.9.8.9 2.6.1 1.8-.9z"/>
        </g>
        <path fill="#FEE2CA" fill-rule="nonzero" d="M109.3 129.3c.6 3-1.4 4.1-3.2 5-4.2 2.1-8.8 3.1-13.1 3.1-4 0-7.8-.8-10.8-2.4-3.9-2-4.5-3.4-4.7-4.6-.1-.5.2-1.5.6-2.7-1.1.1-2.1.2-3.2.3-.3 1-.5 1.9-.3 2.9.4 2.7 2.3 4.7 6.3 6.8 3.4 1.8 7.6 2.7 12.1 2.7 5.1 0 10.1-1.2 14.5-3.5 1.8-.9 5.9-3 4.8-8.3-.1-.3-.1-.6-.2-.8l-3.3-.3c.1.6.3 1 .5 1.8zM76.3 89.5c-5 .4-9.5-5.1-9.7-9.8 0-1.2-2-1.2-2 0 .2 5.7 5.7 12 11.7 11.6 1.2-.2 1.2-1.9 0-1.8zM115.6 89.3c-5.4-.1-10.8-2.4-11-8.4 0-1.2-2-1.2-2 0 .2 7.1 6.6 10.1 13 10.2 1.3 0 1.3-1.8 0-1.8z"/>
        <path fill="#B7F6F7" fill-rule="nonzero" d="M144.4 62.9c-.8-1.8-2-3.6-3.4-5.1-3-3.2-4.9-6.1-6.3-10.3-3.4-10.3-13-18.3-23-22-2.8-1-5.6-1.8-8.5-2.4-.5-.1-1-.2-1.5-.2-11.1-10.3-32.3-5.4-44.5-.6-9 3.5-15.8 8.7-21.7 16.4-5.9 7.6-7.2 17.9-8.8 27-.8 4.5-1.9 8.9-4.4 12.7-2.6 3.9-7.5 5.2-11.5 7.3-5.8 3.1-7.8 10.2-4.6 16 1.9 3.5 4.6 6.3 7.1 9.3 1.8 2.2 4.1 5.3 0 6.7-1.5.5-3 .7-4.5 1-3.1.6-4.4 1.6-6.4 4.1-2.6 3.5-.7 5.9-.1 9.2-.3.2-.5.5-.3.9 5.2 14.5 22.3 13.7 34.5 9.2 13.5-5 25.1-17.6 26.7-32.1 1-8.6-1.5-16.7-6.4-23.8-7.2-10.4-4.8-21.8 6-28.4 4.4-2.7 9.5-3.5 14.3-5 4-1.3 7.6-3.4 10.8-6.2 1.6-1.3 3-2.9 4.4-4.5 2.8 6.9 8.2 13.3 14.4 16.6 9 4.7 22.2 7.5 27.4 16.6.1.7.2 1.3.3 2-.1.1-.1.3-.2.4-1.4 2.9-4 5.2-4 8.7 0 1.5.3 2.7.6 4.2.8 3.7-.9 5.9-3.3 8.3-2 1.9-4.4 3.6-5.6 6.2-2.5 5.3-.7 10.9 4.8 13.3 3.9 1.7 9.2.1 10.8-3.9.5-1.1-1.5-1.5-1.9-.5-2.2 5.3-9.2 3.1-11.7-.1-3.2-4.1 0-9 3-11.9.4-.4.8-.7 1.2-1.1-2.6 3.8-5.2 8.3-1.5 11.6.5.4 1.2.2 1.5-.1.8.1 1.6-.5 1.1-1.3-.6-.7 8.9-11.2 9.4-11.8 4.1-5.4 6.9-12 8.2-18.7.8-5.8.1-12.1-2.4-17.7zm-38.7-11.2c1.6 1.1 3.4 2.1 5.2 3l-4.5-1.8c-2.9-1.3-5.3-3.3-7.3-5.7-.8-1-1.9-2.2-2.8-3.4.2.1.3.2.5.4 3.1 3.4 7.4 6.5 8.9 7.5zm16.2 12.1c-5.9-2.5-12.4-4.8-17.8-8.5-2-1.4-4.1-3.6-5.9-6.1 2.9 3.4 7.1 5.3 11.1 6.9 7.7 3 16.3 6.7 22.3 12.7.3.6.5 1.2.8 1.7-2.8-2.8-6.5-5-10.5-6.7z"/>
        <path fill="#FEDBA7" fill-rule="nonzero" d="M52.7 144.2c-.1-.1-.3-.2-.4-.1-2.5.5-5.2 3.3-4.7 6.1.5 2.6 3.4 3.4 5.7 3 2.7-.4 4.5-3.1 4.1-5.7-.3-1.9-2.7-3.4-4.7-3.3zM65.7 158c-.1-.1-.3-.2-.4-.1-2.5.5-5.2 3.3-4.7 6.1.5 2.6 3.4 3.4 5.7 3 2.7-.4 4.5-3.1 4.1-5.7-.3-1.9-2.7-3.5-4.7-3.3zM74.5 142.7c-.1-.1-.3-.2-.4-.1-2.5.5-5.2 3.3-4.7 6.1.5 2.6 3.4 3.4 5.7 3 2.7-.4 4.5-3.1 4.1-5.7-.4-1.9-2.7-3.4-4.7-3.3zM49.1 165.5c-.3-1.9-2.7-3.5-4.7-3.3-.1-.1-.3-.2-.4-.1-2.2.4-4.5 2.6-4.7 5 2 1.4 4.1 2.7 6.2 4 2.4-.6 4-3.2 3.6-5.6zM63.1 175.5c-.3-1.9-2.7-3.5-4.7-3.3-.1-.1-.3-.2-.4-.1-1.7.3-3.4 1.7-4.2 3.3 2.6 1.2 5.2 2.3 7.9 3.2.2.1.5.1.7.2.6-.9.9-2.1.7-3.3zM87.7 157.2c-.1-.1-.3-.2-.4-.1-2.5.5-5.2 3.3-4.7 6.1.5 2.6 3.4 3.4 5.7 3 2.7-.4 4.5-3.1 4.1-5.7-.3-1.9-2.7-3.4-4.7-3.3zM85.9 180.8c-.3-1.9-2.7-3.5-4.7-3.3-.1-.1-.3-.2-.4-.1-2.2.4-4.5 2.6-4.7 5 3.1.5 6.3.9 9.5 1.1.3-.9.4-1.8.3-2.7zM105 155c2.7-.4 4.5-3.1 4.1-5.7-.3-1.9-2.7-3.5-4.7-3.3-.1-.1-.3-.2-.4-.1-2.5.5-5.2 3.3-4.7 6.1.6 2.5 3.5 3.3 5.7 3zM105.2 167.7c-.1-.1-.3-.2-.4-.1-2.5.5-5.2 3.3-4.7 6.1.5 2.6 3.4 3.4 5.7 3 2.7-.4 4.5-3.1 4.1-5.7-.3-1.9-2.7-3.4-4.7-3.3zM120.5 178.1c-1.2.2-2.4 1-3.3 2 1.8-.5 3.5-1.1 5.2-1.7-.5-.1-1-.2-1.5-.2 0-.1-.2-.1-.4-.1zM123.2 160.5c-.1-.1-.3-.2-.4-.1-2.5.5-5.2 3.3-4.7 6.1.5 2.6 3.4 3.4 5.7 3 2.7-.4 4.5-3.1 4.1-5.7-.3-1.9-2.7-3.5-4.7-3.3zM124.5 142c-.1-.1-.3-.2-.4-.1-2.5.5-5.2 3.3-4.7 6.1.5 2.6 3.4 3.4 5.7 3 2.7-.4 4.5-3.1 4.1-5.7-.4-1.9-2.7-3.5-4.7-3.3zM140.7 155c-.1-.1-.3-.2-.4-.1-2.5.5-5.2 3.3-4.7 6.1.5 2.6 3.4 3.4 5.7 3 2.7-.4 4.5-3.1 4.1-5.7-.3-1.9-2.7-3.5-4.7-3.3zM138.9 144.7c.5 2.6 3.4 3.4 5.7 3 1.2-.2 2.2-.8 2.9-1.7-1-2.7-2.3-5.2-4.2-7.4-2.5.7-5 3.4-4.4 6.1zM130.3 131c-2.5-.8-5.2-1.3-7.8-1.7-1.3 1.2-2.2 2.9-1.9 4.7.5 2.6 3.4 3.4 5.7 3 2.7-.4 4.5-3.1 4.1-5.7 0-.1-.1-.2-.1-.3zM63.8 136.2c2.7-.4 4.5-3.1 4.1-5.7-.1-.6-.4-1.1-.8-1.6-2.7.2-5.4.5-8.1.8-.7 1-1.1 2.3-.8 3.5.4 2.6 3.3 3.4 5.6 3zM32.5 145.5c-.1-.1-.3-.2-.4-.1-.3.1-.6.1-.9.3-1.2 2.4-2.2 5-3.1 7.4 1.1 1.4 3.2 1.8 5 1.5 2.7-.4 4.5-3.1 4.1-5.7-.4-2-2.7-3.6-4.7-3.4z"/>
    </g>
</svg>
