<svg xmlns="http://www.w3.org/2000/svg" width="184" height="184" viewBox="0 0 184 184">
    <g fill="none" fill-rule="evenodd">
        <path fill="#C9B8F4" fill-rule="nonzero" d="M.3 92C.3 41.4 41.3.3 92 .3c50.6 0 91.7 41 91.7 91.7 0 50.6-41 91.7-91.7 91.7-10.5 0-20.6-1.8-30-5-20-6.9-36.9-20.6-47.9-38.3C5.4 126.3.3 109.7.3 92z"/>
        <path d="M183.7 92c0-50.6-41-91.7-91.7-91.7C41.4.3.3 41.4.3 92c0 17.7 5 34.3 13.8 48.3 3.3 5.3 7.2 10.3 11.5 14.8.4-1.5.9-3 1.1-3.4 1.6-4 3.3-8.7 6-12.1.9-1.1 6.7-5.3 7.7-5.9 9.3-5.7 21.1-5.7 31.8-6.9 13.5-1.5 27.5-1.6 41.1-.1 9.1 1.1 20.2 2.4 27.3 8.9 4 3.6 5.5 8.3 7.1 13.3.4 1.3 2.6 9.7 3.4 13.1 19.9-16.8 32.6-41.9 32.6-70z"/>
        <path fill="#FEE2CA" fill-rule="nonzero" d="M140.5 135.7c-7.1-6.5-18.2-7.9-27.3-8.9-13.5-1.6-27.5-1.5-41.1.1-10.8 1.2-22.6 1.1-31.8 6.9-1 .6-6.8 4.8-7.7 5.9-2.7 3.4-4.4 8.1-6 12.1-.2.4-.7 1.9-1.1 3.4 8.5 8.9 18.8 16.2 30.3 21.1.2-2 .6-3.9 1.8-5.8 2.6-4.4 5.2-7.4 9.2-10.5 6.8-5.3 15.5-8.5 24.1-8.9 16.3-.8 31.2 10.4 35.9 25.7 8.8-3.6 17-8.6 24.2-14.7-.8-3.4-3-11.8-3.4-13.1-1.6-5.1-3.1-9.7-7.1-13.3z"/>
        <path fill="#F4393D" fill-rule="nonzero" d="M67.1 180.2l.1-.1c-.2-2.7-.2-5 1.2-7.5 1.8-3 3.6-5.1 6.4-7.2 4.7-3.6 10.6-5.8 16.6-6.1 12.4-.6 23.5 8.8 25.5 21 3.5-1 6.9-2.1 10.2-3.5-4.8-15.4-19.6-26.5-35.9-25.7-8.6.4-17.3 3.6-24.1 8.9-4.1 3.1-6.7 6.1-9.2 10.5-1.1 1.9-1.6 3.9-1.8 5.8 2 .9 4 1.7 6.1 2.4 1.4.5 3.2 1 4.9 1.5z"/>
        <path fill="#FEE2CA" fill-rule="nonzero" d="M102.6 183c-4.6-.1-9.2-.2-13.8-.2-3.2 0-6.4 0-9.6-.1 4.2.6 8.5.9 12.8.9 3.6.1 7.1-.2 10.6-.6z"/>
        <path fill="#FEE2CA" fill-rule="nonzero" d="M91.3 159.3c-5.9.3-11.9 2.5-16.6 6.1-2.8 2.2-4.6 4.2-6.4 7.2-1.4 2.4-1.4 4.8-1.2 7.5l-.1.1c3.9 1.1 8 2 12.1 2.5 3.2 0 6.4 0 9.6.1 4.6.1 9.2.2 13.8.2 4.9-.6 9.6-1.5 14.2-2.8-1.9-12.2-13-21.5-25.4-20.9z"/>
        <g fill="#906CEA" fill-rule="nonzero">
            <path d="M133.9 27.6c-13.4-20.5-30.3-11.9-30.1-13.9-.2 0 15.4 8.2 15.2 8.4-.4.3-.7.5-.8 1.1-.1.5.1.8.5 1 .9 5-7 7.9-4.2 12.1 2.4 3.6 3.8 9.8 5 14 .9 3.2 8.2 11.6 9.2 14.7.3.8 5.6-5.8 6.1-6.2 3.1-2.8 4.8-5.6 5.2-9.4.5-5.6-3.3-17.4-6.1-21.8zM41.2 54.4c.4 3.8 2.1 6.7 5.2 9.4.5.5 5.8 7.1 6.1 6.2 1-3.1 8.2-11.5 9.2-14.7 1.2-4.2 2.6-10.4 5-14 2.8-4.2-5.1-7-4.2-12.1.3-.2.6-.5.5-1-.1-.5-.4-.8-.8-1.1-.2-.1 15.5-8.4 15.2-8.4.2 2.1-16.7-6.5-30.1 13.9-2.9 4.6-6.7 16.4-6.1 21.8z"/>
        </g>
        <path fill="#FD8B34" fill-rule="nonzero" d="M77.1 117.8c.5 2.7.4 1 .5 3.7 0 3.4-1.5 6.3-1.3 7.5.2 1.2.9 2.6 4.7 4.6 6.2 3.2 15.8 3.4 23.9-.7 1.8-.9 3.8-2.1 3.2-5-.5-2.5-1.6-1.9-.9-10 .1-8.7-34.6-10-30.1-.1z"/>
        <g fill-rule="nonzero">
            <path fill="#FD8B34" d="M59 63.1v-.3c-.1-.3-.3-.5-.5-.6-1-2.3-3.6-2.4-5.7-1.5-3.3 1.4-3.5 7.4-3.6 10.2-.3 5 .6 9.8 3.9 13.5 1.6 1.8 4.8 2.1 5.6-.5v-.1c.7-1.6.8-4.3.8-5.5-.2-5 .2-10.1-.5-15.2zM134.9 61.4c-3.1-1.7-4.8.6-6.2 3.1-.2.3-.2.6 0 .9l-.1.1c-1.3 4.4-6.6 11.7-4.4 16.6-.3.5-.2 1.3.6 1.5 1.6.4 2.5 1.9 4.2 2.3 1.4.3 2.6-.8 3.5-1.7 3-3.4 3.8-8.9 4.2-13.3.1-2.6 1.1-7.9-1.8-9.5z"/>
            <path fill="#FD8B34" d="M126.5 40.4c-3.9-11-11.1-21-22.5-24.5-7.1-2.2-17.8-3.4-23.4 2.8-.5-.5-1.3-.7-1.9-.1-4.3 4.5-8.4 7.7-11.5 13.4-3.6 6.5-6.3 13-7.7 20.3-2.6 13.7-3.2 26 .5 39.6 3.1 11.1 9.5 22.1 20 27.4 9.6 4.8 20.9 2.9 28.9-4 20-17.3 26.2-50.6 17.6-74.9z"/>
            <g fill="#FEDBA7">
                <path d="M87.2 96.5H87c-.6 0-.9.4-1 .8-.1.1-.2.2-.2.4-.8 3.3 1.1 6.9 4.1 8.2.5.4 1.2.6 1.9.6v-10h-4.6z"/>
                <path d="M96.3 96.5h.2c.6 0 .9.4 1 .8.1.1.2.2.2.4.8 3.3-1.1 6.9-4.1 8.2-.5.4-1.2.6-1.9.6v-10h4.6z"/>
            </g>
            <g fill="#FEDBA7">
                <path d="M83.1 68.7c-1.4-1.9-3.3-2.6-5.6-2.9-1.3-.1-2.7.1-4 .4-1.6.3-2.9 1.4-4.5 1.6-1.5.2-.8 2.2.6 2 1.4-.2 2.6-.9 4-1.4-.1.1-.1.2-.2.3-1.5 1.9-1.5 5.1.3 6.9.8.9 2.2 1.2 3.6.9 1.5-.3 2.2-1.6 2.5-2.5.7-1.7.7-4.2-.8-5.8.8.3 1.6.8 2.1 1.5.8 1.1 2.8.2 2-1zM101.4 69.5c1.4-1.9 3.3-2.6 5.6-2.8 1.3-.1 2.7.1 4 .4 1.6.3 2.9 1.4 4.5 1.6 1.5.2.8 2.2-.6 2-1.4-.2-2.6-.9-4-1.4 0 .1.1.2.2.2 1.5 1.9 1.5 5.1-.3 6.9-.8.9-2.2 1.2-3.6.9-1.5-.3-2.2-1.6-2.5-2.5-.7-1.7-.7-4.2.8-5.8-.8.3-1.6.8-2.1 1.5-.8 1.1-2.9.2-2-1z"/>
            </g>
        </g>
        <path fill="#906CEA" fill-rule="nonzero" d="M127.3 85c-.9-.8-1.9-.3-2.7.3-.7.5-1.2 1.1-1.7 1.7l-1.2.6c-.3.1-.7.2-1 .4-1.7.8-2.9 1.8-4.3 3.1-4.2 3.9-11 3-13.9-2.1-1.9-3.4-4.9-2.3-8.5-2.3-2.7 0-5.2.4-7.9 0-1.1-.2-2.6 0-3.6.5-1.1.6-1.7 1.7-2.3 2.7-2.5 4.2-6.9 3.3-10.5 1.4-1.7-.9-10.6-9.1-11.5-6.6-.4.4-.7 1.3-.7 1.9-.1.2-.1.4-.1.6-.1.7 0 1.4.1 2 0 .5.1.9.2 1.4.4 3.8 2.5 8.3 3.6 10.8 2.5 5.7 8 11.7 13.3 14.9 6.8 4.1 14.9 5.8 22.3 4.5 4.9.2 11.4-3.7 14.5-6.1 2.1-1.6 4.1-3.6 5.9-5.8.2-.3.5-.5.7-.8 2.3-2.7 3.9-5.7 5.6-8.8l.3-.6c1.7-2.8 3.7-11.3 3.7-12.3 0-.8 0-1.1-.3-1.4zm-35.6 24.2c-4.1.2-7-2.8-8.5-6.3-.4-.8-.7-2-.9-3.2 0-1.7.5-3.3 1.3-4.9.4-.2.7-.5 1.1-.6h14.4c1 .6 1.7 1.6 2.1 2.6.2 5.7-3.6 12.1-9.5 12.4z"/>
        <g fill-rule="nonzero">
            <path fill="#FD9A9B" d="M53.6 65.1v-.3c-.3-1.8-.8-4.7-1.6-6.6.3-.1.5-.4.4-.8-.4-4.2-1.9-5.9-5-6.1-.7 0-1.3.1-1.8.5l-.6.3c-3.4 2.1-3.9 6-4.1 10.7 0 .6-.1 1.1-.1 1.7-.1.8-.1 1.5-.1 2.3v3.3c.2 3.2.7 6.2 1.8 9.3.8 2.1 1.9 3.5 3.1 3.9 1.1 1.2 2.1 1.3 3 .6 1.5 1 3.1.6 4.3-1.4 2.4-3.8 2.2-11.1.7-17.4z"/>
            <path fill="#F4393D" d="M54.5 61.9c-.4-5-2.3-12.1-3.3-7v.4c-1.4 3.4-2.2 12.5-1.8 19.6.5 8.7 2.6 11.9 4.1 7.8 1.4-4.2 1.6-13.3 1-20.8z"/>
        </g>
        <path fill="#906CEA" fill-rule="nonzero" d="M60.2 66c-.9-2.9-1.6-5.3-1.6-8.4 0-2.9.4-5.7.7-8.6.2-1.4-2.2-1.6-2.3-.2 0 .4-.1.8-.1 1.1-.3.1-.5.3-.6.6-.8 2.2-1.5 4.5-2 6.8-.3-1.6-.5-3.2-.7-4.7-.1-1.2-2.3-1.2-2.3 0-.2 3.7.7 7.3 1.3 10.9-.2 3.9.3 7.9 2.5 11.3.6.9 2.5.8 2.2-.6-.2-1-.3-1.9-.4-2.9.7.2 1.5-.3 1.4-1.2-.1-1.3-.5-2.6-1-3.9v-.1-.5c.3.3.6.7.9 1 .6.8 2.4.6 2-.6z"/>
        <g fill-rule="nonzero">
            <path fill="#FD9A9B" d="M131.7 83.7c1.1 1.9 1.8 2 3.3.8 1 .8 2.1.5 3.6-1.4 3-4.2 3.8-13 3.9-18.8.1-5.1-1.1-10-3.2-10.9-.7-.3-1.4-.5-2.2.9-.1.1-.2.5-.2.9-.1.1-.1.2-.2.3-.2.4-.4.9-.6 1.7-.1.1-.2.1-.3.1-.3-1.2-.9-1.1-1.4-.4-1.4.9-1.7 6.2-2.2 8.9v.3c-2 6.4-2.6 13.9-.5 17.6z"/>
            <path fill="#F4393D" d="M130.6 84.1c1.4 3.7 4 .5 5.1-7.6.9-6.6.6-14.9-.7-17.9v-.3c-.7-4.6-3.4 2.2-4.2 6.8-1.2 7-1.6 15.3-.2 19z"/>
        </g>
        <path fill="#906CEA" fill-rule="nonzero" d="M132.9 50.5c-.3-.2-.6-.4-1-.3l-.3.1c-.7.2-.9.7-.9 1.1-1.1 2-2.2 4.1-2.7 6.3-.4 1.7-1.4 3.8-.7 5.5.3.8 1.2 1 1.9.5.2-.2.4-.4.6-.5.1.1.3.2.4.3 0 .4 0 .8.1 1.2.1 1.2-.4 2.5-.5 3.6-.2 1.3-.1 2.7.1 4 .3 1.4 2.5.8 2.3-.5.5 1.2 1.2 2.3 2 3.2.1.1.1.2.2.2.8.9 2.5-.2 1.9-1.3-1.3-2.9-2.5-6.7-3-10.7 0-5.4-.1-8.5 1.5-11.7.5-1.1-1-1.6-1.9-1z"/>
        <path fill="#FD9A9B" fill-rule="nonzero" d="M129.6 22.8c-3.8-5.1-7.6-8.7-13.1-11-6.5-2.7-14.2-3.5-21.1-3.5-12 .2-24.4 2.1-34.7 9.8-2.3 1.7-4.5 3.6-6.6 5.6-2.3 2.1-3.7 6.1-5.2 8.9-3.8 6.7-4.3 12.8-4.9 20.4 0 .6.3.9.7.9v.2c0 .5.3.8.7 1 3 .9 4.4-.6 6-3.5 2.8-5.2 3.7-11.3 7-16.2 6.5-9.9 17-15.5 27.6-17.7h2.9c6.8-.2 14 1.2 20.6 3.3 6.5 2.1 11.9 6.2 15.8 12.7 1.2 3.3 2.2 6.7 3.2 10.1.6 2 3.3 8 5 10.9 0 0-.1 2.2.8 3.1 3.2 5.2 3.1-.1 3.2-1.1.5-11-1.6-25.4-7.9-33.9z"/>
        <path fill="#906CEA" fill-rule="nonzero" d="M132.2 39.8c-.4-4.2-2.6-9.8-3.7-12-4.1-8.2-8.6-13.6-17.9-14.6-4.8-.5-9.3-2.3-14.2-2-3.8.2-5.4-3.9-9.1-1.8-3.1 1.8-5.8 2.9-9.5 2.5-1.7-.2-3.1-.9-4.8-.8-.6 0-1.3.4-1.8.8-1.9 1.9-3.2.4-4.8-.7-.5-.3-1.2-.1-1.5.4-3.1 4.3-2 10.5.3 15.3h-.1c-.5-.1-1 .1-1.3.5-3 4.2-4.8 10.9-4.8 16.1 0 3.1 1 5.9 2.7 8.4.5 1 1 1.9 1.4 3 .3 1 .9 1.6 1.6 2.1 1.8 2.1 4.7 1.3 6.9-.6 1.4-1.2 2.5-2.7 3.6-4.2l1.5-2.1c-.4 1.6-1 3.1-1.6 4.7-.3.7.5 1.3 1.1 1.3 1.8 0 3.2-2.1 4.1-3.4.6-.8 1.2-1.7 1.6-2.6v.5c-.8.7-.1 1.7.8 1.7h.3c.5 0 1-.3 1.1-.9 1.5-1.6 2.6-3.6 3.7-5.4.5 2.7 1.7 5.2 4.4 6.7.6.4 1.8 0 1.7-.9-.1-2.1-.1-3.9.6-5.5.2.4.4.8.7 1.2.6.8 2.6.5 2.1-.8-.5-1.4 0-3.1.7-4.7 1.5-1.3 2.9-2.7 4.1-4.3-.3.7-.7 1.4-1 2.2-.4 1 1.3 1.7 1.9 1 1.8-2.1 3.8-3.6 6.2-4.8-.1.3-.3.7-.4 1-.4 1 1 1.5 1.7 1.2 1.7-.9 3.4-1.8 5.2-2.6.2-.1.5-.2.8-.2.6 0 1.2.1 1.8.2.5.2.9.4 1.4.6-.1.2-.3.3-.5.3h-.3c-1.3.2-.9 2.1.3 2 .1 0 .2 0 .3-.1.5-.1.9.1 1.4.2.5 0 1-.1 1.5-.2.4-.1.7-.2 1.1-.4h.1c-1 .7-1.9 1.5-2.1 2.7-.1.7.9 1.1 1.4 1 .9-.2 2.1-1 3.1-.9-.4.7-.8 1.5-1.1 2.3-.3.8.8 1.4 1.5 1 .3-.1.6-.3 1-.4v.2c.1.4.1.8.2 1.2-.6 1.1-1.6 2.1-2.6 2.5-1 .4-.4 1.7.5 1.7.4 0 .9 0 1.3-.1-.3.4-.4.9-.4 1.4 0 .4.3.8.7.9.8.2 1.6.1 2.4-.3-.9 1.7-2.6 3.2-2.8 5.3-.1.7.6.9 1.2.8-.1 1 0 2 .5 3 .2.4.6.5 1 .4.3.1.7 0 .9-.2.8-.9.9-1.1 1.2-2.3l1.2-.1c.6-.7.7-1.5.8-2.2.4-6.2-.4-13.5-1.3-16.2z"/>
        <path fill="#906CEA" fill-rule="nonzero" d="M70.9 20.1c-2.2-1.3-4.8-1.8-7.4-1.7-1.2.1-1.9.9-2.7 1.7-3.7 1-6.2 4.1-8.3 7.2-.4.4-.7.8-.8 1.3-.2.8.4 1.2 1.1 1.3-1.9 1.3-4.1 2.3-4.7 4.5-.2.8.4 1.2 1.1 1.3h.7c-.7.5-1.2 1-1.4 1.8-.1.5.1.9.5 1.2 1.4.9 2.4.7 3.6.4-1.3 2.5-4.4 3.6-6.3 5.5-.9.9.1 1.9 1.1 1.7.9-.1 1.6-.4 2.3-.7-.5 3-2.3 5.8-4.2 8.1-.5.7.3 1.6 1 1.5 2.2-.2 1.5-.3 1.2 1.9-.1.8.6 1.6 1.4 1.3 2.3-.9 4-2.6 6.2-3.8 3.2-1.8 6-4.1 8.7-6.6 6.4-6 9.5-12.7 13.5-20.3 1.9-3.9-4.4-6.4-6.6-7.6z"/>
        <path fill="#F4393D" fill-rule="nonzero" d="M108 127.8c.6 3-1.4 4.1-3.2 5-4.2 2.1-8.8 3.1-13.1 3.1-4 0-7.8-.8-10.8-2.4-3.9-2-4.5-3.4-4.7-4.6-.1-.5.2-1.5.6-2.7-1.1.1-2.1.2-3.2.3-.3 1-.5 1.9-.3 2.9.4 2.7 2.3 4.7 6.3 6.8 3.4 1.8 7.6 2.7 12.1 2.7 5.1 0 10.1-1.2 14.5-3.5 1.8-.9 5.9-3 4.8-8.3-.1-.3-.1-.6-.2-.8l-3.3-.3c.1.6.3 1 .5 1.8z"/>
    </g>
</svg>
