<?xml version="1.0" encoding="UTF-8" standalone="no"?>
<svg width="762px" height="298px" viewBox="0 0 762 298" version="1.1" xmlns="http://www.w3.org/2000/svg" xmlns:xlink="http://www.w3.org/1999/xlink" xmlns:sketch="http://www.bohemiancoding.com/sketch/ns">
    <!-- Generator: Sketch 3.4.4 (17248) - http://www.bohemiancoding.com/sketch -->
    <title>ILLU</title>
    <desc>Created with Sketch.</desc>
    <defs>
        <filter x="-50%" y="-50%" width="200%" height="200%" filterUnits="objectBoundingBox" id="filter-1">
            <feOffset dx="0" dy="0" in="SourceAlpha" result="shadowOffsetOuter1"></feOffset>
            <feGaussianBlur stdDeviation="5" in="shadowOffsetOuter1" result="shadowBlurOuter1"></feGaussianBlur>
            <feColorMatrix values="0 0 0 0 0   0 0 0 0 0   0 0 0 0 0  0 0 0 0.21 0" in="shadowBlurOuter1" type="matrix" result="shadowMatrixOuter1"></feColorMatrix>
            <feMerge>
                <feMergeNode in="shadowMatrixOuter1"></feMergeNode>
                <feMergeNode in="SourceGraphic"></feMergeNode>
            </feMerge>
        </filter>
        <filter x="-50%" y="-50%" width="200%" height="200%" filterUnits="objectBoundingBox" id="filter-2">
            <feOffset dx="0" dy="0" in="SourceAlpha" result="shadowOffsetOuter1"></feOffset>
            <feGaussianBlur stdDeviation="5" in="shadowOffsetOuter1" result="shadowBlurOuter1"></feGaussianBlur>
            <feColorMatrix values="0 0 0 0 0   0 0 0 0 0   0 0 0 0 0  0 0 0 0.21 0" in="shadowBlurOuter1" type="matrix" result="shadowMatrixOuter1"></feColorMatrix>
            <feMerge>
                <feMergeNode in="shadowMatrixOuter1"></feMergeNode>
                <feMergeNode in="SourceGraphic"></feMergeNode>
            </feMerge>
        </filter>
        <filter x="-50%" y="-50%" width="200%" height="200%" filterUnits="objectBoundingBox" id="filter-3">
            <feOffset dx="0" dy="0" in="SourceAlpha" result="shadowOffsetOuter1"></feOffset>
            <feGaussianBlur stdDeviation="5" in="shadowOffsetOuter1" result="shadowBlurOuter1"></feGaussianBlur>
            <feColorMatrix values="0 0 0 0 0   0 0 0 0 0   0 0 0 0 0  0 0 0 0.21 0" in="shadowBlurOuter1" type="matrix" result="shadowMatrixOuter1"></feColorMatrix>
            <feMerge>
                <feMergeNode in="shadowMatrixOuter1"></feMergeNode>
                <feMergeNode in="SourceGraphic"></feMergeNode>
            </feMerge>
        </filter>
        <filter x="-50%" y="-50%" width="200%" height="200%" filterUnits="objectBoundingBox" id="filter-4">
            <feOffset dx="0" dy="0" in="SourceAlpha" result="shadowOffsetOuter1"></feOffset>
            <feGaussianBlur stdDeviation="5" in="shadowOffsetOuter1" result="shadowBlurOuter1"></feGaussianBlur>
            <feColorMatrix values="0 0 0 0 0   0 0 0 0 0   0 0 0 0 0  0 0 0 0.21 0" in="shadowBlurOuter1" type="matrix" result="shadowMatrixOuter1"></feColorMatrix>
            <feMerge>
                <feMergeNode in="shadowMatrixOuter1"></feMergeNode>
                <feMergeNode in="SourceGraphic"></feMergeNode>
            </feMerge>
        </filter>
        <filter x="-50%" y="-50%" width="200%" height="200%" filterUnits="objectBoundingBox" id="filter-5">
            <feOffset dx="0" dy="0" in="SourceAlpha" result="shadowOffsetOuter1"></feOffset>
            <feGaussianBlur stdDeviation="5" in="shadowOffsetOuter1" result="shadowBlurOuter1"></feGaussianBlur>
            <feColorMatrix values="0 0 0 0 0   0 0 0 0 0   0 0 0 0 0  0 0 0 0.21 0" in="shadowBlurOuter1" type="matrix" result="shadowMatrixOuter1"></feColorMatrix>
            <feMerge>
                <feMergeNode in="shadowMatrixOuter1"></feMergeNode>
                <feMergeNode in="SourceGraphic"></feMergeNode>
            </feMerge>
        </filter>
    </defs>
    <g id="Design" stroke="none" stroke-width="1" fill="none" fill-rule="evenodd" sketch:type="MSPage">
        <g id="5a-architecture" sketch:type="MSArtboardGroup" transform="translate(-326.000000, -977.000000)">
            <g id="1" sketch:type="MSLayerGroup" transform="translate(326.000000, 842.000000)">
                <g id="ILLU" transform="translate(0.000000, 144.000000)" sketch:type="MSShapeGroup">
                    <path d="M29.5,48.1365269 L28.3,43.3365269 C27.5533296,40.7231805 26.8333368,37.9498749 26.14,35.0165269 C25.4466632,32.0831789 24.7533368,29.2565405 24.06,26.5365269 L23.74,26.5365269 C23.0999968,29.3098741 22.44667,32.1498457 21.78,35.0565269 C21.11333,37.9632081 20.4066704,40.7231805 19.66,43.3365269 L18.38,48.1365269 L29.5,48.1365269 Z M31.9,57.3365269 L15.98,57.3365269 L12.78,69.7365269 L0.78,69.7365269 L17.1,17.5765269 L31.26,17.5765269 L47.58,69.7365269 L35.1,69.7365269 L31.9,57.3365269 Z M53.26,17.5765269 L72.3,17.5765269 C75.1266808,17.5765269 77.7799876,17.8565241 80.26,18.4165269 C82.7400124,18.9765297 84.8999908,19.9098537 86.74,21.2165269 C88.5800092,22.5232001 90.033328,24.2565161 91.1,26.4165269 C92.166672,28.5765377 92.7,31.2298445 92.7,34.3765269 C92.7,37.4165421 92.1533388,40.0565157 91.06,42.2965269 C89.9666612,44.5365381 88.486676,46.3765197 86.62,47.8165269 C84.753324,49.2565341 82.5933456,50.3231901 80.14,51.0165269 C77.6866544,51.7098637 75.0733472,52.0565269 72.3,52.0565269 L65.02,52.0565269 L65.02,69.7365269 L53.26,69.7365269 L53.26,17.5765269 Z M71.58,42.6965269 C77.980032,42.6965269 81.18,39.9232213 81.18,34.3765269 C81.18,31.6565133 80.3666748,29.7365325 78.74,28.6165269 C77.1133252,27.4965213 74.7266824,26.9365269 71.58,26.9365269 L65.02,26.9365269 L65.02,42.6965269 L71.58,42.6965269 Z M101.74,17.5765269 L120.78,17.5765269 C123.606681,17.5765269 126.259988,17.8565241 128.74,18.4165269 C131.220012,18.9765297 133.379991,19.9098537 135.22,21.2165269 C137.060009,22.5232001 138.513328,24.2565161 139.58,26.4165269 C140.646672,28.5765377 141.18,31.2298445 141.18,34.3765269 C141.18,37.4165421 140.633339,40.0565157 139.54,42.2965269 C138.446661,44.5365381 136.966676,46.3765197 135.1,47.8165269 C133.233324,49.2565341 131.073346,50.3231901 128.62,51.0165269 C126.166654,51.7098637 123.553347,52.0565269 120.78,52.0565269 L113.5,52.0565269 L113.5,69.7365269 L101.74,69.7365269 L101.74,17.5765269 Z M120.06,42.6965269 C126.460032,42.6965269 129.66,39.9232213 129.66,34.3765269 C129.66,31.6565133 128.846675,29.7365325 127.22,28.6165269 C125.593325,27.4965213 123.206682,26.9365269 120.06,26.9365269 L113.5,26.9365269 L113.5,42.6965269 L120.06,42.6965269 Z M152.78,55.0965269 C154.646676,56.6965349 156.713322,58.0031885 158.98,59.0165269 C161.246678,60.0298653 163.473322,60.5365269 165.66,60.5365269 C168.113346,60.5365269 169.939994,60.0831981 171.14,59.1765269 C172.340006,58.2698557 172.94,57.0432013 172.94,55.4965269 C172.94,54.6965229 172.766668,54.0031965 172.42,53.4165269 C172.073332,52.8298573 171.56667,52.3098625 170.9,51.8565269 C170.23333,51.4031913 169.433338,50.9765289 168.5,50.5765269 C167.566662,50.1765249 166.540006,49.7365293 165.42,49.2565269 L158.62,46.3765269 C157.28666,45.8431909 155.99334,45.1498645 154.74,44.2965269 C153.48666,43.4431893 152.366672,42.4431993 151.38,41.2965269 C150.393328,40.1498545 149.60667,38.8165345 149.02,37.2965269 C148.43333,35.7765193 148.14,34.0565365 148.14,32.1365269 C148.14,30.0031829 148.593329,27.9898697 149.5,26.0965269 C150.406671,24.2031841 151.686658,22.5498673 153.34,21.1365269 C154.993342,19.7231865 156.953322,18.6165309 159.22,17.8165269 C161.486678,17.0165229 163.979986,16.6165269 166.7,16.6165269 C169.740015,16.6165269 172.739985,17.2031877 175.7,18.3765269 C178.660015,19.5498661 181.259989,21.2565157 183.5,23.4965269 L177.5,30.9365269 C175.793325,29.6031869 174.086675,28.5765305 172.38,27.8565269 C170.673325,27.1365233 168.78001,26.7765269 166.7,26.7765269 C164.673323,26.7765269 163.060006,27.1898561 161.86,28.0165269 C160.659994,28.8431977 160.06,30.0031861 160.06,31.4965269 C160.06,32.2965309 160.259998,32.9765241 160.66,33.5365269 C161.060002,34.0965297 161.619996,34.6031913 162.34,35.0565269 C163.060004,35.5098625 163.899995,35.9365249 164.86,36.3365269 C165.820005,36.7365289 166.859994,37.1765245 167.98,37.6565269 L174.7,40.3765269 C177.900016,41.6565333 180.419991,43.4165157 182.26,45.6565269 C184.100009,47.8965381 185.02,50.8565085 185.02,54.5365269 C185.02,56.7232045 184.580004,58.7898505 183.7,60.7365269 C182.819996,62.6832033 181.540008,64.3898529 179.86,65.8565269 C178.179992,67.3232009 176.113346,68.4965225 173.66,69.3765269 C171.206654,70.2565313 168.433349,70.6965269 165.34,70.6965269 C161.92665,70.6965269 158.526684,70.0698665 155.14,68.8165269 C151.753316,67.5631873 148.72668,65.6832061 146.06,63.1765269 L152.78,55.0965269 Z" id="APPS" fill="#B3D9F7"></path>
                    <path d="M587.78,179.84 L602.5,179.84 C606.50002,179.84 610.099984,180.346662 613.3,181.36 C616.500016,182.373338 619.246655,183.933323 621.54,186.04 C623.833345,188.146677 625.593327,190.82665 626.82,194.08 C628.046673,197.33335 628.66,201.199978 628.66,205.68 C628.66,210.160022 628.046673,214.053317 626.82,217.36 C625.593327,220.666683 623.860011,223.399989 621.62,225.56 C619.379989,227.720011 616.700016,229.333328 613.58,230.4 C610.459984,231.466672 606.980019,232 603.14,232 L587.78,232 L587.78,179.84 Z M601.78,222.48 C604.020011,222.48 606.046658,222.18667 607.86,221.6 C609.673342,221.01333 611.219994,220.066673 612.5,218.76 C613.780006,217.453327 614.779996,215.733344 615.5,213.6 C616.220004,211.466656 616.58,208.826682 616.58,205.68 C616.58,202.586651 616.220004,199.986677 615.5,197.88 C614.779996,195.773323 613.780006,194.09334 612.5,192.84 C611.219994,191.58666 609.673342,190.693336 607.86,190.16 C606.046658,189.626664 604.020011,189.36 601.78,189.36 L599.54,189.36 L599.54,222.48 L601.78,222.48 Z M659.86,210.4 L658.66,205.6 C657.91333,202.986654 657.193337,200.213348 656.5,197.28 C655.806663,194.346652 655.113337,191.520014 654.42,188.8 L654.1,188.8 C653.459997,191.573347 652.80667,194.413319 652.14,197.32 C651.47333,200.226681 650.76667,202.986654 650.02,205.6 L648.74,210.4 L659.86,210.4 Z M662.26,219.6 L646.34,219.6 L643.14,232 L631.14,232 L647.46,179.84 L661.62,179.84 L677.94,232 L665.46,232 L662.26,219.6 Z M690.58,189.76 L676.26,189.76 L676.26,179.84 L716.74,179.84 L716.74,189.76 L702.42,189.76 L702.42,232 L690.58,232 L690.58,189.76 Z M743.78,210.4 L742.58,205.6 C741.83333,202.986654 741.113337,200.213348 740.42,197.28 C739.726663,194.346652 739.033337,191.520014 738.34,188.8 L738.02,188.8 C737.379997,191.573347 736.72667,194.413319 736.06,197.32 C735.39333,200.226681 734.68667,202.986654 733.94,205.6 L732.66,210.4 L743.78,210.4 Z M746.18,219.6 L730.26,219.6 L727.06,232 L715.06,232 L731.38,179.84 L745.54,179.84 L761.86,232 L749.38,232 L746.18,219.6 Z" id="DATA" fill="#37B2EF"></path>
                    <g id="Cube" transform="translate(173.166384, 0.000000)">
                        <path d="M0.280327389,64.349854 C0.315690369,50.5241141 0.280327389,0 0.280327389,0 L75.2747546,0 C75.2747546,0 80.4108895,10.6141299 81.5752701,15.5365467 L81.5752701,81.2159121 L4.8693472,81.2159121 C4.8693472,81.2159121 4.40288417,76.3894054 0.280327389,64.349854 Z" id="Rectangle-64-Copy-3" fill="#FFFFFF" filter="url(#filter-1)" transform="translate(40.927799, 40.607956) scale(-1, 1) translate(-40.927799, -40.607956) "></path>
                        <g id="Illu">
                            <path d="M0.504202807,15.6184446 L76.3951125,15.6184446 L76.3951125,81.2159121 L0.504202807,81.2159121 L0.504202807,15.6184446 Z" id="Rectangle-64" fill="#FFFFFF"></path>
                            <path d="M76.7640068,15.6184446 L81.9655251,0 L81.9655251,65.5974675 L76.7640068,81.2159121 L76.7640068,15.6184446 Z" id="Rectangle-64-Copy-2" fill="#E0E0E0"></path>
                            <path d="M0.504202807,15.6184446 L76.3951125,15.6184446 L82.7205032,0 L7.34974533,0 L0.504202807,15.6184446 Z" id="Rectangle-64-Copy" fill="#FAFAFA"></path>
                        </g>
                    </g>
                    <g id="Cube-Copy" transform="translate(284.229202, 0.000000)">
                        <path d="M1.09696576,67.6193151 C1.13232874,53.7935752 1.09696576,0 1.09696576,0 L76.091393,0 C76.091393,0 77.144336,10.6141299 78.3087166,15.5365467 L78.3087166,81.2159121 L1.60279372,81.2159121 C1.60279372,81.2159121 1.60279373,79.9101266 1.09696576,67.6193151 Z" id="Rectangle-64-Copy-3" fill="#FFFFFF" filter="url(#filter-2)" transform="translate(39.702841, 40.607956) scale(-1, 1) translate(-39.702841, -40.607956) "></path>
                        <g id="Illu">
                            <path d="M0.504202807,15.6184446 L76.3951125,15.6184446 L76.3951125,81.2159121 L0.504202807,81.2159121 L0.504202807,15.6184446 Z" id="Rectangle-64" fill="#FFFFFF"></path>
                            <path d="M76.7640068,15.6184446 L78.6989716,0 L78.6989716,65.5974675 L76.7640068,81.2159121 L76.7640068,15.6184446 Z" id="Rectangle-64-Copy-2" fill="#E0E0E0"></path>
                            <path d="M0.504202807,15.6184446 L76.3951125,15.6184446 L78.6373113,0 L3.26655348,0 L0.504202807,15.6184446 Z" id="Rectangle-64-Copy" fill="#FAFAFA"></path>
                        </g>
                    </g>
                    <g id="Cube-Copy-2" transform="translate(430.815789, 40.868263) scale(-1, 1) translate(-430.815789, -40.868263) translate(391.208829, 0.000000)">
                        <path d="M1.09696576,67.6193151 C1.13232874,53.7935752 1.09696576,0 1.09696576,0 L76.091393,0 C76.091393,0 77.144336,10.6141299 78.3087166,15.5365467 L78.3087166,81.2159121 L1.60279372,81.2159121 C1.60279372,81.2159121 1.60279373,79.9101266 1.09696576,67.6193151 Z" id="Rectangle-64-Copy-3" fill="#FFFFFF" filter="url(#filter-3)" transform="translate(39.702841, 40.607956) scale(-1, 1) translate(-39.702841, -40.607956) "></path>
                        <g id="Illu">
                            <path d="M0.504202807,15.6184446 L76.3951125,15.6184446 L76.3951125,81.2159121 L0.504202807,81.2159121 L0.504202807,15.6184446 Z" id="Rectangle-64" fill="#FFFFFF"></path>
                            <path d="M76.7640068,15.6184446 L78.6989716,0 L78.6989716,65.5974675 L76.7640068,81.2159121 L76.7640068,15.6184446 Z" id="Rectangle-64-Copy-2" fill="#E0E0E0"></path>
                            <path d="M0.504202807,15.6184446 L76.3951125,15.6184446 L78.6373113,0 L3.26655348,0 L0.504202807,15.6184446 Z" id="Rectangle-64-Copy" fill="#FAFAFA"></path>
                        </g>
                    </g>
                    <g id="Cube-Copy-3" transform="translate(499.005093, 0.000000)">
                        <path d="M0.280327389,64.349854 C0.315690369,50.5241141 0.280327389,0 0.280327389,0 L75.2747546,0 C75.2747546,0 80.4108895,10.6141299 81.5752701,15.5365467 L81.5752701,81.2159121 L4.8693472,81.2159121 C4.8693472,81.2159121 4.40288417,76.3894054 0.280327389,64.349854 Z" id="Rectangle-64-Copy-3" fill="#FFFFFF" filter="url(#filter-4)"></path>
                        <g id="Illu">
                            <path d="M5.40403303,15.6184446 L81.2949427,15.6184446 L81.2949427,81.2159121 L5.40403303,81.2159121 L5.40403303,15.6184446 Z" id="Rectangle-64" fill="#FFFFFF"></path>
                            <path d="M0,15.6184446 L5.20151828,0 L5.20151828,65.5974675 L0,81.2159121 L0,15.6184446 Z" id="Rectangle-64-Copy-2" fill="#E0E0E0" transform="translate(2.600759, 40.607956) scale(-1, 1) translate(-2.600759, -40.607956) "></path>
                            <path d="M5.40403303,15.6184446 L81.2949427,15.6184446 L75.3707579,0 L0,0 L5.40403303,15.6184446 Z" id="Rectangle-64-Copy" fill="#FAFAFA"></path>
                        </g>
                    </g>
                    <g id="Bar" transform="translate(165.000000, 161.838323)">
                        <path d="M0.555446293,18.5359971 C0.555446293,18.5359971 7.59679351,3.91287518 9.93032124,0.0415169147 C15.7320614,0.106592002 419.413403,0.0415169147 419.413403,0.0415169147 C419.413403,0.0415169147 424.618377,13.7508359 427.75702,18.5359976 L427.75702,81.4759306 L0.555446228,82.3839803 L0.555446293,18.5359971 Z" id="Rectangle-64-Copy-3" fill="#FFFFFF" filter="url(#filter-5)"></path>
                        <g id="Illu" transform="translate(0.585245, 0.000000)">
                            <rect id="Rectangle-64" fill="#FFFFFF" x="0.00937852899" y="18.6156109" width="427.066395" height="62.9322072"></rect>
                            <path d="M0.00937852899,0.264051219 L427.075773,0.264051219 L418.534446,18.6156109 L8.55070643,18.6156109 L0.00937852899,0.264051219 Z" id="Rectangle-64-Copy-8" fill="#F9F9F9" transform="translate(213.542576, 9.439831) scale(1, -1) translate(-213.542576, -9.439831) "></path>
                        </g>
                    </g>
                    <g id="Dot" transform="translate(377.702858, 123.570352) rotate(-270.000000) translate(-377.702858, -123.570352) translate(348.702858, -44.429648)" fill="#37B2EF">
                        <ellipse id="Oval-56" cx="4.08319185" cy="331.850299" rx="4.08319185" ry="4.08682635"></ellipse>
                        <ellipse id="Oval-56-Copy" opacity="0.799999952" cx="20.4159593" cy="331.850299" rx="4.08319185" ry="4.08682635"></ellipse>
                        <ellipse id="Oval-56-Copy-2" opacity="0.599999964" cx="20.4159593" cy="314.685629" rx="4.08319185" ry="4.08682635"></ellipse>
                        <ellipse id="Oval-56-Copy-3" opacity="0.300000012" cx="20.4159593" cy="298.338323" rx="4.08319185" ry="4.08682635"></ellipse>
                        <ellipse id="Oval-56-Copy-4" opacity="0.100000001" cx="20.4159593" cy="281.991018" rx="4.08319185" ry="4.08682635"></ellipse>
                        <ellipse id="Oval-56-Copy-5" opacity="0.200000018" cx="20.4159593" cy="265.643713" rx="4.08319185" ry="4.08682635"></ellipse>
                        <ellipse id="Oval-56-Copy-11" opacity="0.300000012" cx="20.4159593" cy="249.296407" rx="4.08319185" ry="4.08682635"></ellipse>
                        <ellipse id="Oval-56-Copy-12" opacity="0.599999964" cx="20.4159593" cy="232.949102" rx="4.08319185" ry="4.08682635"></ellipse>
                        <ellipse id="Oval-56-Copy-13" opacity="0.799999952" cx="20.4159593" cy="216.601796" rx="4.08319185" ry="4.08682635"></ellipse>
                        <ellipse id="Oval-56-Copy-28" cx="4.08319185" cy="216.601796" rx="4.08319185" ry="4.08682635"></ellipse>
                        <ellipse id="Oval-56-Copy-14" opacity="0.599999964" cx="20.4159593" cy="200.254491" rx="4.08319185" ry="4.08682635"></ellipse>
                        <ellipse id="Oval-56-Copy-15" opacity="0.300000012" cx="20.4159593" cy="183.907186" rx="4.08319185" ry="4.08682635"></ellipse>
                        <ellipse id="Oval-56-Copy-16" opacity="0.100000001" cx="20.4159593" cy="167.55988" rx="4.08319185" ry="4.08682635"></ellipse>
                        <ellipse id="Oval-56-Copy-17" opacity="0.200000018" cx="20.4159593" cy="151.212575" rx="4.08319185" ry="4.08682635"></ellipse>
                        <ellipse id="Oval-56-Copy-18" opacity="0.300000012" cx="20.4159593" cy="134.865269" rx="4.08319185" ry="4.08682635"></ellipse>
                        <ellipse id="Oval-56-Copy-19" opacity="0.599999964" cx="20.4159593" cy="118.517964" rx="4.08319185" ry="4.08682635"></ellipse>
                        <ellipse id="Oval-56-Copy-20" opacity="0.799999952" cx="20.4159593" cy="102.170659" rx="4.08319185" ry="4.08682635"></ellipse>
                        <ellipse id="Oval-56-Copy-29" cx="4.08319185" cy="102.170659" rx="4.08319185" ry="4.08682635"></ellipse>
                        <ellipse id="Oval-56-Copy-21" opacity="0.599999964" cx="20.4159593" cy="85.8233533" rx="4.08319185" ry="4.08682635"></ellipse>
                        <ellipse id="Oval-56-Copy-22" opacity="0.300000012" cx="20.4159593" cy="69.4760479" rx="4.08319185" ry="4.08682635"></ellipse>
                        <ellipse id="Oval-56-Copy-23" opacity="0.100000001" cx="20.4159593" cy="53.1287425" rx="4.08319185" ry="4.08682635"></ellipse>
                        <ellipse id="Oval-56-Copy-24" opacity="0.300000012" cx="20.4159593" cy="36.7814371" rx="4.08319185" ry="4.08682635"></ellipse>
                        <ellipse id="Oval-56-Copy-25" opacity="0.599999964" cx="20.4159593" cy="20.4341317" rx="4.08319185" ry="4.08682635"></ellipse>
                        <ellipse id="Oval-56-Copy-26" opacity="0.799999952" cx="20.4159593" cy="4.08682635" rx="4.08319185" ry="4.08682635"></ellipse>
                        <ellipse id="Oval-56-Copy-27" cx="4.08319185" cy="4.08682635" rx="4.08319185" ry="4.08682635"></ellipse>
                        <ellipse id="Oval-56-Copy-28" opacity="0.5" cx="36.7487267" cy="167.55988" rx="4.08319185" ry="4.08682635"></ellipse>
                        <ellipse id="Oval-56-Copy-30" cx="53.0814941" cy="167.55988" rx="4.08319185" ry="4.08682635"></ellipse>
                    </g>
                </g>
            </g>
        </g>
    </g>
</svg>