<?xml version="1.0" encoding="UTF-8" standalone="no"?>
<svg width="890px" height="313px" viewBox="0 0 890 313" version="1.1" xmlns="http://www.w3.org/2000/svg" xmlns:xlink="http://www.w3.org/1999/xlink" xmlns:sketch="http://www.bohemiancoding.com/sketch/ns">
    <!-- Generator: Sketch 3.4.4 (17248) - http://www.bohemiancoding.com/sketch -->
    <title>ILLU</title>
    <desc>Created with Sketch.</desc>
    <defs>
        <filter x="-50%" y="-50%" width="200%" height="200%" filterUnits="objectBoundingBox" id="filter-1">
            <feOffset dx="0" dy="0" in="SourceAlpha" result="shadowOffsetOuter1"></feOffset>
            <feGaussianBlur stdDeviation="5" in="shadowOffsetOuter1" result="shadowBlurOuter1"></feGaussianBlur>
            <feColorMatrix values="0 0 0 0 0   0 0 0 0 0   0 0 0 0 0  0 0 0 0.21 0" in="shadowBlurOuter1" type="matrix" result="shadowMatrixOuter1"></feColorMatrix>
            <feMerge>
                <feMergeNode in="shadowMatrixOuter1"></feMergeNode>
                <feMergeNode in="SourceGraphic"></feMergeNode>
            </feMerge>
        </filter>
        <filter x="-50%" y="-50%" width="200%" height="200%" filterUnits="objectBoundingBox" id="filter-2">
            <feOffset dx="0" dy="0" in="SourceAlpha" result="shadowOffsetOuter1"></feOffset>
            <feGaussianBlur stdDeviation="5" in="shadowOffsetOuter1" result="shadowBlurOuter1"></feGaussianBlur>
            <feColorMatrix values="0 0 0 0 0   0 0 0 0 0   0 0 0 0 0  0 0 0 0.21 0" in="shadowBlurOuter1" type="matrix" result="shadowMatrixOuter1"></feColorMatrix>
            <feMerge>
                <feMergeNode in="shadowMatrixOuter1"></feMergeNode>
                <feMergeNode in="SourceGraphic"></feMergeNode>
            </feMerge>
        </filter>
        <filter x="-50%" y="-50%" width="200%" height="200%" filterUnits="objectBoundingBox" id="filter-3">
            <feOffset dx="0" dy="0" in="SourceAlpha" result="shadowOffsetOuter1"></feOffset>
            <feGaussianBlur stdDeviation="5" in="shadowOffsetOuter1" result="shadowBlurOuter1"></feGaussianBlur>
            <feColorMatrix values="0 0 0 0 0   0 0 0 0 0   0 0 0 0 0  0 0 0 0.21 0" in="shadowBlurOuter1" type="matrix" result="shadowMatrixOuter1"></feColorMatrix>
            <feMerge>
                <feMergeNode in="shadowMatrixOuter1"></feMergeNode>
                <feMergeNode in="SourceGraphic"></feMergeNode>
            </feMerge>
        </filter>
        <filter x="-50%" y="-50%" width="200%" height="200%" filterUnits="objectBoundingBox" id="filter-4">
            <feOffset dx="0" dy="0" in="SourceAlpha" result="shadowOffsetOuter1"></feOffset>
            <feGaussianBlur stdDeviation="5" in="shadowOffsetOuter1" result="shadowBlurOuter1"></feGaussianBlur>
            <feColorMatrix values="0 0 0 0 0   0 0 0 0 0   0 0 0 0 0  0 0 0 0.21 0" in="shadowBlurOuter1" type="matrix" result="shadowMatrixOuter1"></feColorMatrix>
            <feMerge>
                <feMergeNode in="shadowMatrixOuter1"></feMergeNode>
                <feMergeNode in="SourceGraphic"></feMergeNode>
            </feMerge>
        </filter>
        <filter x="-50%" y="-50%" width="200%" height="200%" filterUnits="objectBoundingBox" id="filter-5">
            <feOffset dx="0" dy="0" in="SourceAlpha" result="shadowOffsetOuter1"></feOffset>
            <feGaussianBlur stdDeviation="5" in="shadowOffsetOuter1" result="shadowBlurOuter1"></feGaussianBlur>
            <feColorMatrix values="0 0 0 0 0   0 0 0 0 0   0 0 0 0 0  0 0 0 0.21 0" in="shadowBlurOuter1" type="matrix" result="shadowMatrixOuter1"></feColorMatrix>
            <feMerge>
                <feMergeNode in="shadowMatrixOuter1"></feMergeNode>
                <feMergeNode in="SourceGraphic"></feMergeNode>
            </feMerge>
        </filter>
    </defs>
    <g id="Design" stroke="none" stroke-width="1" fill="none" fill-rule="evenodd" sketch:type="MSPage">
        <g id="5a-architecture" sketch:type="MSArtboardGroup" transform="translate(-247.000000, -1602.000000)">
            <g id="2" sketch:type="MSLayerGroup" transform="translate(286.000000, 1412.000000)">
                <g id="ILLU" transform="translate(0.000000, 190.000000)">
                    <path d="M33.5373431,104.07834 C176.26122,-43.4315069 809.39673,-36.1014332 809.39673,147.712151 C809.39673,331.525735 126.151693,361.586816 25.1596497,180.787383 C25.1596486,133.820403 33.5373421,132.978573 33.5373431,104.07834 Z" id="Path-351" stroke="#FA915D" fill-opacity="0.1" fill="#FA915D" sketch:type="MSShapeGroup"></path>
                    <text id="CONTROLER" sketch:type="MSTextLayer" font-family="Source Sans Pro" font-size="25" font-weight="bold" sketch:alignment="middle" fill="#FCB28E">
                        <tspan x="251.1" y="269">CONTROLER</tspan>
                    </text>
                    <g id="Cercle-1" transform="translate(0.000000, 51.000000)" sketch:type="MSShapeGroup">
                        <ellipse id="Oval-213-Copy" fill="#FFFFFF" filter="url(#filter-1)" cx="113.826531" cy="108.659189" rx="113.826531" ry="108.340811"></ellipse>
                        <g id="Illu" transform="translate(2.346939, 0.000000)">
                            <ellipse id="Oval-213" fill="#F0F0F0" cx="119.412566" cy="108.340811" rx="108.240495" ry="108.340811"></ellipse>
                            <ellipse id="Oval-213-Copy-2" fill="#FFFFFF" cx="108.240495" cy="108.659189" rx="108.240495" ry="108.340811"></ellipse>
                        </g>
                    </g>
                    <text id="APPS" sketch:type="MSTextLayer" font-family="Source Sans Pro" font-size="80" font-weight="bold" sketch:alignment="middle" fill="#FDC8AE">
                        <tspan x="666.26" y="190">APPS</tspan>
                    </text>
                    <g id="Group" transform="translate(173.000000, 81.000000)" sketch:type="MSShapeGroup">
                        <path d="M177.496914,93.0670103 L489.632716,93.0670103" id="Line" stroke="#FA915D" stroke-width="2" stroke-linecap="square"></path>
                        <path d="M237.740741,55.435567 L237.740741,92.6623711" id="Line" stroke="#FA915D" stroke-width="2" stroke-linecap="square"></path>
                        <path d="M490,46.5 L490,92.5" id="Line-Copy-2" stroke="#FA915D" stroke-width="2" stroke-linecap="square"></path>
                        <path d="M326.691358,55.435567 L326.691358,92.6623711" id="Line-Copy" stroke="#FA915D" stroke-width="2" stroke-linecap="square"></path>
                        <g id="Cube-Copy" transform="translate(207.197688, 0.000000)">
                            <path d="M0.887052558,54.7228478 C0.915648548,43.5339758 0.887052558,0 0.887052558,0 L61.5306943,0 C61.5306943,0 62.3821482,8.58978554 63.3237153,12.5733909 L63.3237153,65.7262794 L1.29608628,65.7262794 C1.29608628,65.7262794 1.29608629,64.6695355 0.887052558,54.7228478 Z" id="Rectangle-64-Copy-3" fill="#FFFFFF" filter="url(#filter-2)" transform="translate(32.105384, 32.863140) scale(-1, 1) translate(-32.105384, -32.863140) "></path>
                            <g id="Illu">
                                <path d="M0.407719554,12.6396691 L61.7762947,12.6396691 L61.7762947,65.7262794 L0.407719554,65.7262794 L0.407719554,12.6396691 Z" id="Rectangle-64" fill="#FFFFFF"></path>
                                <path d="M62.0745981,12.6396691 L63.6392918,0 L63.6392918,53.0866103 L62.0745981,65.7262794 L62.0745981,12.6396691 Z" id="Rectangle-64-Copy-2" fill="#E0E0E0"></path>
                                <path d="M0.407719554,12.6396691 L61.7762947,12.6396691 L63.5894308,0 L2.64147226,0 L0.407719554,12.6396691 Z" id="Rectangle-64-Copy" fill="#FAFAFA"></path>
                            </g>
                        </g>
                        <g id="Cube-Copy-2" transform="translate(325.820249, 33.180412) scale(-1, 1) translate(-325.820249, -33.180412) translate(293.878891, 0.000000)">
                            <path d="M0.887052558,54.7228478 C0.915648548,43.5339758 0.887052558,0 0.887052558,0 L61.5306943,0 C61.5306943,0 62.3821482,8.58978554 63.3237153,12.5733909 L63.3237153,65.7262794 L1.29608628,65.7262794 C1.29608628,65.7262794 1.29608629,64.6695355 0.887052558,54.7228478 Z" id="Rectangle-64-Copy-3" fill="#FFFFFF" filter="url(#filter-3)" transform="translate(32.105384, 32.863140) scale(-1, 1) translate(-32.105384, -32.863140) "></path>
                            <g id="Illu">
                                <path d="M0.407719554,12.6396691 L61.7762947,12.6396691 L61.7762947,65.7262794 L0.407719554,65.7262794 L0.407719554,12.6396691 Z" id="Rectangle-64" fill="#FFFFFF"></path>
                                <path d="M62.0745981,12.6396691 L63.6392918,0 L63.6392918,53.0866103 L62.0745981,65.7262794 L62.0745981,12.6396691 Z" id="Rectangle-64-Copy-2" fill="#E0E0E0"></path>
                                <path d="M0.407719554,12.6396691 L61.7762947,12.6396691 L63.5894308,0 L2.64147226,0 L0.407719554,12.6396691 Z" id="Rectangle-64-Copy" fill="#FAFAFA"></path>
                            </g>
                        </g>
                        <g id="Cube-Copy-3" transform="translate(456.886835, 0.000000)">
                            <path d="M0.226684493,52.0769437 C0.255280484,40.8880717 0.226684493,0 0.226684493,0 L60.8703263,0 C60.8703263,0 65.0236205,8.58978554 65.9651876,12.5733909 L65.9651876,65.7262794 L3.93755854,65.7262794 C3.93755854,65.7262794 3.56035695,61.820292 0.226684493,52.0769437 Z" id="Rectangle-64-Copy-3" fill="#FFFFFF" filter="url(#filter-4)"></path>
                            <g id="Illu">
                                <path d="M4.36992794,12.6396691 L65.7385031,12.6396691 L65.7385031,65.7262794 L4.36992794,65.7262794 L4.36992794,12.6396691 Z" id="Rectangle-64" fill="#FFFFFF"></path>
                                <path d="M0,12.6396691 L4.20616602,0 L4.20616602,53.0866103 L0,65.7262794 L0,12.6396691 Z" id="Rectangle-64-Copy-2" fill="#E0E0E0" transform="translate(2.103083, 32.863140) scale(-1, 1) translate(-2.103083, -32.863140) "></path>
                                <path d="M4.36992794,12.6396691 L65.7385031,12.6396691 L60.9479585,0 L0,0 L4.36992794,12.6396691 Z" id="Rectangle-64-Copy" fill="#FAFAFA"></path>
                            </g>
                        </g>
                        <g id="Controller" transform="translate(110.160651, 0.000000)">
                            <path d="M0.887050151,143.862465 C0.915646142,117.273435 1.29444608,0 1.29444608,0 L61.8581534,0 C61.8581534,0 63.4521353,4.70566655 67.1051029,12.8151172 C67.1051029,54.9189661 67.1051005,156.190722 67.1051005,156.190722 L5.07747146,156.190722 C5.07747146,156.190722 3.24618158,149.983694 0.887050151,143.862465 Z" id="Rectangle-64-Copy-3" fill="#FFFFFF" filter="url(#filter-5)" transform="translate(33.996077, 78.095361) scale(-1, 1) translate(-33.996077, -78.095361) "></path>
                            <g id="Illu">
                                <path d="M0.407719554,12.6396691 L61.7762947,12.6396691 L61.7762947,156.190722 L0.407719554,156.190722 L0.407719554,12.6396691 Z" id="Rectangle-64" fill="#FFFFFF"></path>
                                <ellipse id="Oval-187" opacity="0.599999964" fill="#E3E3E4" cx="31.537037" cy="82.5463918" rx="18.5987654" ry="18.6134021"></ellipse>
                                <path d="M31.537037,96.3041237 C39.1292478,96.3041237 45.2839506,90.1445773 45.2839506,82.5463918 C45.2839506,74.9482062 39.1292478,68.7886598 31.537037,68.7886598 C23.9448263,68.7886598 17.7901235,74.9482062 17.7901235,82.5463918 C17.7901235,90.1445773 23.9448263,96.3041237 31.537037,96.3041237 Z" id="Oval-187-Copy" fill="#FFFFFF"></path>
                                <path d="M62.8832401,12.6396691 L66.8738597,0 L66.8738597,143.725786 L62.8832401,156.365455 L62.8832401,12.6396691 Z" id="Rectangle-64-Copy-2" fill="#E0E0E0"></path>
                                <path d="M0.407719554,12.6396691 L61.7762947,12.6396691 L67.6326407,0 L6.68468214,0 L0.407719554,12.6396691 Z" id="Rectangle-64-Copy" fill="#FAFAFA"></path>
                            </g>
                            <g id="Group" transform="translate(31.537037, 28.324742) rotate(-270.000000) translate(-31.537037, -28.324742) translate(22.641975, 2.427835)" fill="#CFD0D1" opacity="0.599999964">
                                <ellipse id="Oval-56-Copy-2" cx="1.61523185" cy="25.5290534" rx="1.23432655" ry="1.25070291"></ellipse>
                                <ellipse id="Oval-56-Copy-31" cx="6.55693282" cy="25.5290534" rx="1.23432655" ry="1.25070291"></ellipse>
                                <ellipse id="Oval-56-Copy-32" cx="11.4986338" cy="25.5290534" rx="1.23432655" ry="1.25070291"></ellipse>
                                <ellipse id="Oval-56-Copy-33" cx="16.4403347" cy="25.5290534" rx="1.23432655" ry="1.25070291"></ellipse>
                                <ellipse id="Oval-56-Copy-57" cx="1.61523185" cy="20.6733833" rx="1.23432655" ry="1.25070291"></ellipse>
                                <ellipse id="Oval-56-Copy-56" cx="6.55693282" cy="20.6733833" rx="1.23432655" ry="1.25070291"></ellipse>
                                <ellipse id="Oval-56-Copy-55" cx="11.4986338" cy="20.6733833" rx="1.23432655" ry="1.25070291"></ellipse>
                                <ellipse id="Oval-56-Copy-54" cx="16.4403347" cy="20.6733833" rx="1.23432655" ry="1.25070291"></ellipse>
                                <ellipse id="Oval-56-Copy-61" cx="1.61523185" cy="15.8177132" rx="1.23432655" ry="1.25070291"></ellipse>
                                <ellipse id="Oval-56-Copy-60" cx="6.55693282" cy="15.8177132" rx="1.23432655" ry="1.25070291"></ellipse>
                                <ellipse id="Oval-56-Copy-59" cx="11.4986338" cy="15.8177132" rx="1.23432655" ry="1.25070291"></ellipse>
                                <ellipse id="Oval-56-Copy-58" cx="16.4403347" cy="15.8177132" rx="1.23432655" ry="1.25070291"></ellipse>
                                <ellipse id="Oval-56-Copy-65" cx="1.61523185" cy="10.9620431" rx="1.23432655" ry="1.25070291"></ellipse>
                                <ellipse id="Oval-56-Copy-64" cx="6.55693282" cy="10.9620431" rx="1.23432655" ry="1.25070291"></ellipse>
                                <ellipse id="Oval-56-Copy-63" cx="11.4986338" cy="10.9620431" rx="1.23432655" ry="1.25070291"></ellipse>
                                <ellipse id="Oval-56-Copy-62" cx="16.4403347" cy="10.9620431" rx="1.23432655" ry="1.25070291"></ellipse>
                                <ellipse id="Oval-56-Copy-69" cx="1.61523185" cy="6.10637301" rx="1.23432655" ry="1.25070291"></ellipse>
                                <ellipse id="Oval-56-Copy-68" cx="6.55693282" cy="6.10637301" rx="1.23432655" ry="1.25070291"></ellipse>
                                <ellipse id="Oval-56-Copy-67" cx="11.4986338" cy="6.10637301" rx="1.23432655" ry="1.25070291"></ellipse>
                                <ellipse id="Oval-56-Copy-66" cx="16.4403347" cy="6.10637301" rx="1.23432655" ry="1.25070291"></ellipse>
                                <ellipse id="Oval-56-Copy-73" cx="1.61523185" cy="1.25070291" rx="1.23432655" ry="1.25070291"></ellipse>
                                <ellipse id="Oval-56-Copy-72" cx="6.55693282" cy="1.25070291" rx="1.23432655" ry="1.25070291"></ellipse>
                                <ellipse id="Oval-56-Copy-71" cx="11.4986338" cy="1.25070291" rx="1.23432655" ry="1.25070291"></ellipse>
                                <ellipse id="Oval-56-Copy-70" cx="16.4403347" cy="1.25070291" rx="1.23432655" ry="1.25070291"></ellipse>
                                <ellipse id="Oval-56-Copy-37" cx="1.61523185" cy="30.531865" rx="1.23432655" ry="1.25070291"></ellipse>
                                <ellipse id="Oval-56-Copy-36" cx="6.55693282" cy="30.531865" rx="1.23432655" ry="1.25070291"></ellipse>
                                <ellipse id="Oval-56-Copy-35" cx="11.4986338" cy="30.531865" rx="1.23432655" ry="1.25070291"></ellipse>
                                <ellipse id="Oval-56-Copy-34" cx="16.4403347" cy="30.531865" rx="1.23432655" ry="1.25070291"></ellipse>
                                <ellipse id="Oval-56-Copy-41" cx="1.61523185" cy="35.5346767" rx="1.23432655" ry="1.25070291"></ellipse>
                                <ellipse id="Oval-56-Copy-40" cx="6.55693282" cy="35.5346767" rx="1.23432655" ry="1.25070291"></ellipse>
                                <ellipse id="Oval-56-Copy-39" cx="11.4986338" cy="35.5346767" rx="1.23432655" ry="1.25070291"></ellipse>
                                <ellipse id="Oval-56-Copy-38" cx="16.4403347" cy="35.5346767" rx="1.23432655" ry="1.25070291"></ellipse>
                                <ellipse id="Oval-56-Copy-45" cx="1.61523185" cy="40.5374883" rx="1.23432655" ry="1.25070291"></ellipse>
                                <ellipse id="Oval-56-Copy-44" cx="6.55693282" cy="40.5374883" rx="1.23432655" ry="1.25070291"></ellipse>
                                <ellipse id="Oval-56-Copy-43" cx="11.4986338" cy="40.5374883" rx="1.23432655" ry="1.25070291"></ellipse>
                                <ellipse id="Oval-56-Copy-42" cx="16.4403347" cy="40.5374883" rx="1.23432655" ry="1.25070291"></ellipse>
                                <ellipse id="Oval-56-Copy-49" cx="1.61523185" cy="45.5402999" rx="1.23432655" ry="1.25070291"></ellipse>
                                <ellipse id="Oval-56-Copy-48" cx="6.55693282" cy="45.5402999" rx="1.23432655" ry="1.25070291"></ellipse>
                                <ellipse id="Oval-56-Copy-47" cx="11.4986338" cy="45.5402999" rx="1.23432655" ry="1.25070291"></ellipse>
                                <ellipse id="Oval-56-Copy-46" cx="16.4403347" cy="45.5402999" rx="1.23432655" ry="1.25070291"></ellipse>
                                <ellipse id="Oval-56-Copy-53" cx="1.61523185" cy="50.5431115" rx="1.23432655" ry="1.25070291"></ellipse>
                                <ellipse id="Oval-56-Copy-52" cx="6.55693282" cy="50.5431115" rx="1.23432655" ry="1.25070291"></ellipse>
                                <ellipse id="Oval-56-Copy-51" cx="11.4986338" cy="50.5431115" rx="1.23432655" ry="1.25070291"></ellipse>
                                <ellipse id="Oval-56-Copy-50" cx="16.4403347" cy="50.5431115" rx="1.23432655" ry="1.25070291"></ellipse>
                            </g>
                            <g id="Group-Copy" transform="translate(31.537037, 140.814433) rotate(-270.000000) translate(-31.537037, -140.814433) translate(22.641975, 114.917526)" fill="#CFD0D1" opacity="0.599999964">
                                <ellipse id="Oval-56-Copy-2" cx="1.61523185" cy="25.5290534" rx="1.23432655" ry="1.25070291"></ellipse>
                                <ellipse id="Oval-56-Copy-31" cx="6.55693282" cy="25.5290534" rx="1.23432655" ry="1.25070291"></ellipse>
                                <ellipse id="Oval-56-Copy-32" cx="11.4986338" cy="25.5290534" rx="1.23432655" ry="1.25070291"></ellipse>
                                <ellipse id="Oval-56-Copy-33" cx="16.4403347" cy="25.5290534" rx="1.23432655" ry="1.25070291"></ellipse>
                                <ellipse id="Oval-56-Copy-57" cx="1.61523185" cy="20.6733833" rx="1.23432655" ry="1.25070291"></ellipse>
                                <ellipse id="Oval-56-Copy-56" cx="6.55693282" cy="20.6733833" rx="1.23432655" ry="1.25070291"></ellipse>
                                <ellipse id="Oval-56-Copy-55" cx="11.4986338" cy="20.6733833" rx="1.23432655" ry="1.25070291"></ellipse>
                                <ellipse id="Oval-56-Copy-54" cx="16.4403347" cy="20.6733833" rx="1.23432655" ry="1.25070291"></ellipse>
                                <ellipse id="Oval-56-Copy-61" cx="1.61523185" cy="15.8177132" rx="1.23432655" ry="1.25070291"></ellipse>
                                <ellipse id="Oval-56-Copy-60" cx="6.55693282" cy="15.8177132" rx="1.23432655" ry="1.25070291"></ellipse>
                                <ellipse id="Oval-56-Copy-59" cx="11.4986338" cy="15.8177132" rx="1.23432655" ry="1.25070291"></ellipse>
                                <ellipse id="Oval-56-Copy-58" cx="16.4403347" cy="15.8177132" rx="1.23432655" ry="1.25070291"></ellipse>
                                <ellipse id="Oval-56-Copy-65" cx="1.61523185" cy="10.9620431" rx="1.23432655" ry="1.25070291"></ellipse>
                                <ellipse id="Oval-56-Copy-64" cx="6.55693282" cy="10.9620431" rx="1.23432655" ry="1.25070291"></ellipse>
                                <ellipse id="Oval-56-Copy-63" cx="11.4986338" cy="10.9620431" rx="1.23432655" ry="1.25070291"></ellipse>
                                <ellipse id="Oval-56-Copy-62" cx="16.4403347" cy="10.9620431" rx="1.23432655" ry="1.25070291"></ellipse>
                                <ellipse id="Oval-56-Copy-69" cx="1.61523185" cy="6.10637301" rx="1.23432655" ry="1.25070291"></ellipse>
                                <ellipse id="Oval-56-Copy-68" cx="6.55693282" cy="6.10637301" rx="1.23432655" ry="1.25070291"></ellipse>
                                <ellipse id="Oval-56-Copy-67" cx="11.4986338" cy="6.10637301" rx="1.23432655" ry="1.25070291"></ellipse>
                                <ellipse id="Oval-56-Copy-66" cx="16.4403347" cy="6.10637301" rx="1.23432655" ry="1.25070291"></ellipse>
                                <ellipse id="Oval-56-Copy-73" cx="1.61523185" cy="1.25070291" rx="1.23432655" ry="1.25070291"></ellipse>
                                <ellipse id="Oval-56-Copy-72" cx="6.55693282" cy="1.25070291" rx="1.23432655" ry="1.25070291"></ellipse>
                                <ellipse id="Oval-56-Copy-71" cx="11.4986338" cy="1.25070291" rx="1.23432655" ry="1.25070291"></ellipse>
                                <ellipse id="Oval-56-Copy-70" cx="16.4403347" cy="1.25070291" rx="1.23432655" ry="1.25070291"></ellipse>
                                <ellipse id="Oval-56-Copy-37" cx="1.61523185" cy="30.531865" rx="1.23432655" ry="1.25070291"></ellipse>
                                <ellipse id="Oval-56-Copy-36" cx="6.55693282" cy="30.531865" rx="1.23432655" ry="1.25070291"></ellipse>
                                <ellipse id="Oval-56-Copy-35" cx="11.4986338" cy="30.531865" rx="1.23432655" ry="1.25070291"></ellipse>
                                <ellipse id="Oval-56-Copy-34" cx="16.4403347" cy="30.531865" rx="1.23432655" ry="1.25070291"></ellipse>
                                <ellipse id="Oval-56-Copy-41" cx="1.61523185" cy="35.5346767" rx="1.23432655" ry="1.25070291"></ellipse>
                                <ellipse id="Oval-56-Copy-40" cx="6.55693282" cy="35.5346767" rx="1.23432655" ry="1.25070291"></ellipse>
                                <ellipse id="Oval-56-Copy-39" cx="11.4986338" cy="35.5346767" rx="1.23432655" ry="1.25070291"></ellipse>
                                <ellipse id="Oval-56-Copy-38" cx="16.4403347" cy="35.5346767" rx="1.23432655" ry="1.25070291"></ellipse>
                                <ellipse id="Oval-56-Copy-45" cx="1.61523185" cy="40.5374883" rx="1.23432655" ry="1.25070291"></ellipse>
                                <ellipse id="Oval-56-Copy-44" cx="6.55693282" cy="40.5374883" rx="1.23432655" ry="1.25070291"></ellipse>
                                <ellipse id="Oval-56-Copy-43" cx="11.4986338" cy="40.5374883" rx="1.23432655" ry="1.25070291"></ellipse>
                                <ellipse id="Oval-56-Copy-42" cx="16.4403347" cy="40.5374883" rx="1.23432655" ry="1.25070291"></ellipse>
                                <ellipse id="Oval-56-Copy-49" cx="1.61523185" cy="45.5402999" rx="1.23432655" ry="1.25070291"></ellipse>
                                <ellipse id="Oval-56-Copy-48" cx="6.55693282" cy="45.5402999" rx="1.23432655" ry="1.25070291"></ellipse>
                                <ellipse id="Oval-56-Copy-47" cx="11.4986338" cy="45.5402999" rx="1.23432655" ry="1.25070291"></ellipse>
                                <ellipse id="Oval-56-Copy-46" cx="16.4403347" cy="45.5402999" rx="1.23432655" ry="1.25070291"></ellipse>
                                <ellipse id="Oval-56-Copy-53" cx="1.61523185" cy="50.5431115" rx="1.23432655" ry="1.25070291"></ellipse>
                                <ellipse id="Oval-56-Copy-52" cx="6.55693282" cy="50.5431115" rx="1.23432655" ry="1.25070291"></ellipse>
                                <ellipse id="Oval-56-Copy-51" cx="11.4986338" cy="50.5431115" rx="1.23432655" ry="1.25070291"></ellipse>
                                <ellipse id="Oval-56-Copy-50" cx="16.4403347" cy="50.5431115" rx="1.23432655" ry="1.25070291"></ellipse>
                            </g>
                        </g>
                        <g id="Dot" transform="translate(370.358025, 33.180412)" fill="#FA915D">
                            <ellipse id="Oval-56-Copy-6" opacity="0.200000018" cx="4.04320988" cy="4.04639175" rx="4.04320988" ry="4.04639175"></ellipse>
                            <ellipse id="Oval-56-Copy-7" opacity="0.5" cx="20.2160494" cy="4.04639175" rx="4.04320988" ry="4.04639175"></ellipse>
                            <ellipse id="Oval-56-Copy-8" opacity="0.700000048" cx="36.3888889" cy="4.04639175" rx="4.04320988" ry="4.04639175"></ellipse>
                            <ellipse id="Oval-56-Copy-9" opacity="0.849999964" cx="52.5617284" cy="4.04639175" rx="4.04320988" ry="4.04639175"></ellipse>
                            <ellipse id="Oval-56-Copy-10" cx="68.7345679" cy="4.04639175" rx="4.04320988" ry="4.04639175"></ellipse>
                        </g>
                    </g>
                    <text id="HOME" sketch:type="MSTextLayer" font-family="Source Sans Pro" font-size="24" font-weight="bold" sketch:alignment="middle" fill="#FA915D">
                        <tspan x="76.984" y="173">HOME</tspan>
                    </text>
                </g>
            </g>
        </g>
    </g>
</svg>