<?xml version="1.0" encoding="UTF-8" standalone="no"?>
<svg width="890px" height="313px" viewBox="0 0 890 313" version="1.1" xmlns="http://www.w3.org/2000/svg" xmlns:xlink="http://www.w3.org/1999/xlink" xmlns:sketch="http://www.bohemiancoding.com/sketch/ns">
    <!-- Generator: Sketch 3.4.4 (17248) - http://www.bohemiancoding.com/sketch -->
    <title>ILLU</title>
    <desc>Created with Sketch.</desc>
    <defs>
        <filter x="-50%" y="-50%" width="200%" height="200%" filterUnits="objectBoundingBox" id="filter-1">
            <feOffset dx="0" dy="0" in="SourceAlpha" result="shadowOffsetOuter1"></feOffset>
            <feGaussianBlur stdDeviation="5" in="shadowOffsetOuter1" result="shadowBlurOuter1"></feGaussianBlur>
            <feColorMatrix values="0 0 0 0 0   0 0 0 0 0   0 0 0 0 0  0 0 0 0.21 0" in="shadowBlurOuter1" type="matrix" result="shadowMatrixOuter1"></feColorMatrix>
            <feMerge>
                <feMergeNode in="shadowMatrixOuter1"></feMergeNode>
                <feMergeNode in="SourceGraphic"></feMergeNode>
            </feMerge>
        </filter>
        <filter x="-50%" y="-50%" width="200%" height="200%" filterUnits="objectBoundingBox" id="filter-2">
            <feOffset dx="0" dy="0" in="SourceAlpha" result="shadowOffsetOuter1"></feOffset>
            <feGaussianBlur stdDeviation="5" in="shadowOffsetOuter1" result="shadowBlurOuter1"></feGaussianBlur>
            <feColorMatrix values="0 0 0 0 0   0 0 0 0 0   0 0 0 0 0  0 0 0 0.21 0" in="shadowBlurOuter1" type="matrix" result="shadowMatrixOuter1"></feColorMatrix>
            <feMerge>
                <feMergeNode in="shadowMatrixOuter1"></feMergeNode>
                <feMergeNode in="SourceGraphic"></feMergeNode>
            </feMerge>
        </filter>
        <filter x="-50%" y="-50%" width="200%" height="200%" filterUnits="objectBoundingBox" id="filter-3">
            <feOffset dx="0" dy="0" in="SourceAlpha" result="shadowOffsetOuter1"></feOffset>
            <feGaussianBlur stdDeviation="5" in="shadowOffsetOuter1" result="shadowBlurOuter1"></feGaussianBlur>
            <feColorMatrix values="0 0 0 0 0   0 0 0 0 0   0 0 0 0 0  0 0 0 0.21 0" in="shadowBlurOuter1" type="matrix" result="shadowMatrixOuter1"></feColorMatrix>
            <feMerge>
                <feMergeNode in="shadowMatrixOuter1"></feMergeNode>
                <feMergeNode in="SourceGraphic"></feMergeNode>
            </feMerge>
        </filter>
        <filter x="-50%" y="-50%" width="200%" height="200%" filterUnits="objectBoundingBox" id="filter-4">
            <feOffset dx="0" dy="0" in="SourceAlpha" result="shadowOffsetOuter1"></feOffset>
            <feGaussianBlur stdDeviation="5" in="shadowOffsetOuter1" result="shadowBlurOuter1"></feGaussianBlur>
            <feColorMatrix values="0 0 0 0 0   0 0 0 0 0   0 0 0 0 0  0 0 0 0.21 0" in="shadowBlurOuter1" type="matrix" result="shadowMatrixOuter1"></feColorMatrix>
            <feMerge>
                <feMergeNode in="shadowMatrixOuter1"></feMergeNode>
                <feMergeNode in="SourceGraphic"></feMergeNode>
            </feMerge>
        </filter>
        <filter x="-50%" y="-50%" width="200%" height="200%" filterUnits="objectBoundingBox" id="filter-5">
            <feOffset dx="0" dy="0" in="SourceAlpha" result="shadowOffsetOuter1"></feOffset>
            <feGaussianBlur stdDeviation="5" in="shadowOffsetOuter1" result="shadowBlurOuter1"></feGaussianBlur>
            <feColorMatrix values="0 0 0 0 0   0 0 0 0 0   0 0 0 0 0  0 0 0 0.21 0" in="shadowBlurOuter1" type="matrix" result="shadowMatrixOuter1"></feColorMatrix>
            <feMerge>
                <feMergeNode in="shadowMatrixOuter1"></feMergeNode>
                <feMergeNode in="SourceGraphic"></feMergeNode>
            </feMerge>
        </filter>
    </defs>
    <g id="Design" stroke="none" stroke-width="1" fill="none" fill-rule="evenodd" sketch:type="MSPage">
        <g id="5a-architecture" sketch:type="MSArtboardGroup" transform="translate(-247.000000, -1602.000000)">
            <g id="2" sketch:type="MSLayerGroup" transform="translate(286.000000, 1412.000000)">
                <g id="ILLU" transform="translate(0.000000, 190.000000)" sketch:type="MSShapeGroup">
                    <path d="M33.5373431,104.07834 C176.26122,-43.4315069 809.39673,-36.1014332 809.39673,147.712151 C809.39673,331.525735 126.151693,361.586816 25.1596497,180.787383 C25.1596486,133.820403 33.5373421,132.978573 33.5373431,104.07834 Z" id="Path-351" stroke="#FA915D" fill-opacity="0.1" fill="#FA915D"></path>
                    <path d="M252.25,260.95 C252.25,259.599993 252.458331,258.395839 252.875,257.3375 C253.291669,256.279161 253.854163,255.383337 254.5625,254.65 C255.270837,253.916663 256.095829,253.358335 257.0375,252.975 C257.979171,252.591665 258.974995,252.4 260.025,252.4 C261.041672,252.4 261.962496,252.612498 262.7875,253.0375 C263.612504,253.462502 264.299997,253.958331 264.85,254.525 L262.825,256.8 C262.408331,256.416665 261.987502,256.116668 261.5625,255.9 C261.137498,255.683332 260.641669,255.575 260.075,255.575 C259.50833,255.575 258.979169,255.695832 258.4875,255.9375 C257.995831,256.179168 257.566668,256.524998 257.2,256.975 C256.833331,257.425002 256.545834,257.974997 256.3375,258.625 C256.129166,259.275003 256.025,260.008329 256.025,260.825 C256.025,262.508342 256.38333,263.812495 257.1,264.7375 C257.81667,265.662505 258.774994,266.125 259.975,266.125 C260.64167,266.125 261.224997,265.991668 261.725,265.725 C262.225003,265.458332 262.674998,265.108336 263.075,264.675 L265.1,266.9 C264.416663,267.700004 263.637504,268.299998 262.7625,268.7 C261.887496,269.100002 260.941672,269.3 259.925,269.3 C258.874995,269.3 257.883338,269.120835 256.95,268.7625 C256.016662,268.404165 255.200003,267.875004 254.5,267.175 C253.799996,266.474997 253.250002,265.604172 252.85,264.5625 C252.449998,263.520828 252.25,262.316674 252.25,260.95 L252.25,260.95 Z M273.275,269.3 C272.174994,269.3 271.170838,269.104169 270.2625,268.7125 C269.354162,268.320831 268.575003,267.758337 267.925,267.025 C267.274997,266.291663 266.770835,265.400005 266.4125,264.35 C266.054165,263.299995 265.875,262.10834 265.875,260.775 C265.875,259.44166 266.054165,258.254172 266.4125,257.2125 C266.770835,256.170828 267.274997,255.295837 267.925,254.5875 C268.575003,253.879163 269.354162,253.337502 270.2625,252.9625 C271.170838,252.587498 272.174994,252.4 273.275,252.4 C274.375005,252.4 275.379162,252.587498 276.2875,252.9625 C277.195838,253.337502 277.974997,253.88333 278.625,254.6 C279.275003,255.31667 279.779165,256.195828 280.1375,257.2375 C280.495835,258.279172 280.675,259.458327 280.675,260.775 C280.675,262.10834 280.495835,263.299995 280.1375,264.35 C279.779165,265.400005 279.275003,266.291663 278.625,267.025 C277.974997,267.758337 277.195838,268.320831 276.2875,268.7125 C275.379162,269.104169 274.375005,269.3 273.275,269.3 L273.275,269.3 Z M273.275,266.125 C274.391672,266.125 275.274997,265.645838 275.925,264.6875 C276.575003,263.729162 276.9,262.425008 276.9,260.775 C276.9,259.141659 276.575003,257.866671 275.925,256.95 C275.274997,256.033329 274.391672,255.575 273.275,255.575 C272.158328,255.575 271.275003,256.033329 270.625,256.95 C269.974997,257.866671 269.65,259.141659 269.65,260.775 C269.65,262.425008 269.974997,263.729162 270.625,264.6875 C271.275003,265.645838 272.158328,266.125 273.275,266.125 L273.275,266.125 Z M283.75,252.7 L287.525,252.7 L291.775,260.8 L293.375,264.4 L293.475,264.4 C293.391666,263.533329 293.295834,262.566672 293.1875,261.5 C293.079166,260.433328 293.025,259.416672 293.025,258.45 L293.025,252.7 L296.525,252.7 L296.525,269 L292.75,269 L288.5,260.875 L286.9,257.325 L286.8,257.325 C286.883334,258.225005 286.979166,259.191662 287.0875,260.225 C287.195834,261.258339 287.25,262.258329 287.25,263.225 L287.25,269 L283.75,269 L283.75,252.7 Z M303.55,255.8 L299.075,255.8 L299.075,252.7 L311.725,252.7 L311.725,255.8 L307.25,255.8 L307.25,269 L303.55,269 L303.55,255.8 Z M317.95,260.2 L319.85,260.2 C320.816671,260.2 321.554164,259.995835 322.0625,259.5875 C322.570836,259.179165 322.825,258.575004 322.825,257.775 C322.825,256.974996 322.570836,256.416668 322.0625,256.1 C321.554164,255.783332 320.816671,255.625 319.85,255.625 L317.95,255.625 L317.95,260.2 Z M323.1,269 L319.975,263.125 L317.95,263.125 L317.95,269 L314.275,269 L314.275,252.7 L320.15,252.7 C321.016671,252.7 321.829163,252.783333 322.5875,252.95 C323.345837,253.116668 324.00833,253.395831 324.575,253.7875 C325.141669,254.179169 325.591665,254.699997 325.925,255.35 C326.258335,256.000003 326.425,256.808329 326.425,257.775 C326.425,258.975006 326.162503,259.962496 325.6375,260.7375 C325.112497,261.512504 324.408338,262.091665 323.525,262.475 L327.225,269 L323.1,269 Z M336.3,269.3 C335.199995,269.3 334.195838,269.104169 333.2875,268.7125 C332.379162,268.320831 331.600003,267.758337 330.95,267.025 C330.299997,266.291663 329.795835,265.400005 329.4375,264.35 C329.079165,263.299995 328.9,262.10834 328.9,260.775 C328.9,259.44166 329.079165,258.254172 329.4375,257.2125 C329.795835,256.170828 330.299997,255.295837 330.95,254.5875 C331.600003,253.879163 332.379162,253.337502 333.2875,252.9625 C334.195838,252.587498 335.199995,252.4 336.3,252.4 C337.400006,252.4 338.404162,252.587498 339.3125,252.9625 C340.220838,253.337502 340.999997,253.88333 341.65,254.6 C342.300003,255.31667 342.804165,256.195828 343.1625,257.2375 C343.520835,258.279172 343.7,259.458327 343.7,260.775 C343.7,262.10834 343.520835,263.299995 343.1625,264.35 C342.804165,265.400005 342.300003,266.291663 341.65,267.025 C340.999997,267.758337 340.220838,268.320831 339.3125,268.7125 C338.404162,269.104169 337.400006,269.3 336.3,269.3 L336.3,269.3 Z M336.3,266.125 C337.416672,266.125 338.299997,265.645838 338.95,264.6875 C339.600003,263.729162 339.925,262.425008 339.925,260.775 C339.925,259.141659 339.600003,257.866671 338.95,256.95 C338.299997,256.033329 337.416672,255.575 336.3,255.575 C335.183328,255.575 334.300003,256.033329 333.65,256.95 C332.999997,257.866671 332.675,259.141659 332.675,260.775 C332.675,262.425008 332.999997,263.729162 333.65,264.6875 C334.300003,265.645838 335.183328,266.125 336.3,266.125 L336.3,266.125 Z M346.775,252.7 L350.45,252.7 L350.45,265.9 L356.9,265.9 L356.9,269 L346.775,269 L346.775,252.7 Z M359.725,252.7 L369.925,252.7 L369.925,255.8 L363.4,255.8 L363.4,259.075 L368.95,259.075 L368.95,262.15 L363.4,262.15 L363.4,265.9 L370.175,265.9 L370.175,269 L359.725,269 L359.725,252.7 Z M377.1,260.2 L379,260.2 C379.966671,260.2 380.704164,259.995835 381.2125,259.5875 C381.720836,259.179165 381.975,258.575004 381.975,257.775 C381.975,256.974996 381.720836,256.416668 381.2125,256.1 C380.704164,255.783332 379.966671,255.625 379,255.625 L377.1,255.625 L377.1,260.2 Z M382.25,269 L379.125,263.125 L377.1,263.125 L377.1,269 L373.425,269 L373.425,252.7 L379.3,252.7 C380.166671,252.7 380.979163,252.783333 381.7375,252.95 C382.495837,253.116668 383.158331,253.395831 383.725,253.7875 C384.29167,254.179169 384.741665,254.699997 385.075,255.35 C385.408335,256.000003 385.575,256.808329 385.575,257.775 C385.575,258.975006 385.312503,259.962496 384.7875,260.7375 C384.262497,261.512504 383.558338,262.091665 382.675,262.475 L386.375,269 L382.25,269 Z" id="CONTROLER" fill="#FCB28E"></path>
                    <g id="Cercle-1" transform="translate(0.000000, 51.000000)">
                        <ellipse id="Oval-213-Copy" fill="#FFFFFF" filter="url(#filter-1)" cx="113.826531" cy="108.659189" rx="113.826531" ry="108.340811"></ellipse>
                        <g id="Illu" transform="translate(2.346939, 0.000000)">
                            <ellipse id="Oval-213" fill="#F0F0F0" cx="119.412566" cy="108.340811" rx="108.240495" ry="108.340811"></ellipse>
                            <ellipse id="Oval-213-Copy-2" fill="#FFFFFF" cx="108.240495" cy="108.659189" rx="108.240495" ry="108.340811"></ellipse>
                        </g>
                    </g>
                    <path d="M694.5,168.4 L693.3,163.6 C692.55333,160.986654 691.833337,158.213348 691.14,155.28 C690.446663,152.346652 689.753337,149.520014 689.06,146.8 L688.74,146.8 C688.099997,149.573347 687.44667,152.413319 686.78,155.32 C686.11333,158.226681 685.40667,160.986654 684.66,163.6 L683.38,168.4 L694.5,168.4 Z M696.9,177.6 L680.98,177.6 L677.78,190 L665.78,190 L682.1,137.84 L696.26,137.84 L712.58,190 L700.1,190 L696.9,177.6 Z M718.26,137.84 L737.3,137.84 C740.126681,137.84 742.779988,138.119997 745.26,138.68 C747.740012,139.240003 749.899991,140.173327 751.74,141.48 C753.580009,142.786673 755.033328,144.519989 756.1,146.68 C757.166672,148.840011 757.7,151.493318 757.7,154.64 C757.7,157.680015 757.153339,160.319989 756.06,162.56 C754.966661,164.800011 753.486676,166.639993 751.62,168.08 C749.753324,169.520007 747.593346,170.586663 745.14,171.28 C742.686654,171.973337 740.073347,172.32 737.3,172.32 L730.02,172.32 L730.02,190 L718.26,190 L718.26,137.84 Z M736.58,162.96 C742.980032,162.96 746.18,160.186694 746.18,154.64 C746.18,151.919986 745.366675,150.000006 743.74,148.88 C742.113325,147.759994 739.726682,147.2 736.58,147.2 L730.02,147.2 L730.02,162.96 L736.58,162.96 Z M766.74,137.84 L785.78,137.84 C788.606681,137.84 791.259988,138.119997 793.74,138.68 C796.220012,139.240003 798.379991,140.173327 800.22,141.48 C802.060009,142.786673 803.513328,144.519989 804.58,146.68 C805.646672,148.840011 806.18,151.493318 806.18,154.64 C806.18,157.680015 805.633339,160.319989 804.54,162.56 C803.446661,164.800011 801.966676,166.639993 800.1,168.08 C798.233324,169.520007 796.073346,170.586663 793.62,171.28 C791.166654,171.973337 788.553347,172.32 785.78,172.32 L778.5,172.32 L778.5,190 L766.74,190 L766.74,137.84 Z M785.06,162.96 C791.460032,162.96 794.66,160.186694 794.66,154.64 C794.66,151.919986 793.846675,150.000006 792.22,148.88 C790.593325,147.759994 788.206682,147.2 785.06,147.2 L778.5,147.2 L778.5,162.96 L785.06,162.96 Z M817.78,175.36 C819.646676,176.960008 821.713322,178.266662 823.98,179.28 C826.246678,180.293338 828.473322,180.8 830.66,180.8 C833.113346,180.8 834.939994,180.346671 836.14,179.44 C837.340006,178.533329 837.94,177.306674 837.94,175.76 C837.94,174.959996 837.766668,174.26667 837.42,173.68 C837.073332,173.09333 836.56667,172.573336 835.9,172.12 C835.23333,171.666664 834.433338,171.240002 833.5,170.84 C832.566662,170.439998 831.540006,170.000002 830.42,169.52 L823.62,166.64 C822.28666,166.106664 820.99334,165.413338 819.74,164.56 C818.48666,163.706662 817.366672,162.706672 816.38,161.56 C815.393328,160.413328 814.60667,159.080008 814.02,157.56 C813.43333,156.039992 813.14,154.32001 813.14,152.4 C813.14,150.266656 813.593329,148.253343 814.5,146.36 C815.406671,144.466657 816.686658,142.81334 818.34,141.4 C819.993342,139.98666 821.953322,138.880004 824.22,138.08 C826.486678,137.279996 828.979986,136.88 831.7,136.88 C834.740015,136.88 837.739985,137.466661 840.7,138.64 C843.660015,139.813339 846.259989,141.519989 848.5,143.76 L842.5,151.2 C840.793325,149.86666 839.086675,148.840004 837.38,148.12 C835.673325,147.399996 833.78001,147.04 831.7,147.04 C829.673323,147.04 828.060006,147.453329 826.86,148.28 C825.659994,149.106671 825.06,150.266659 825.06,151.76 C825.06,152.560004 825.259998,153.239997 825.66,153.8 C826.060002,154.360003 826.619996,154.866664 827.34,155.32 C828.060004,155.773336 828.899995,156.199998 829.86,156.6 C830.820005,157.000002 831.859994,157.439998 832.98,157.92 L839.7,160.64 C842.900016,161.920006 845.419991,163.679989 847.26,165.92 C849.100009,168.160011 850.02,171.119982 850.02,174.8 C850.02,176.986678 849.580004,179.053324 848.7,181 C847.819996,182.946676 846.540008,184.653326 844.86,186.12 C843.179992,187.586674 841.113346,188.759996 838.66,189.64 C836.206654,190.520004 833.433349,190.96 830.34,190.96 C826.92665,190.96 823.526684,190.33334 820.14,189.08 C816.753316,187.82666 813.72668,185.946679 811.06,183.44 L817.78,175.36 Z" id="APPS" fill="#FDC8AE"></path>
                    <g id="Group" transform="translate(173.000000, 81.000000)">
                        <path d="M177.496914,93.0670103 L489.632716,93.0670103" id="Line" stroke="#FA915D" stroke-width="2" stroke-linecap="square"></path>
                        <path d="M237.740741,55.435567 L237.740741,92.6623711" id="Line" stroke="#FA915D" stroke-width="2" stroke-linecap="square"></path>
                        <path d="M490,46.5 L490,92.5" id="Line-Copy-2" stroke="#FA915D" stroke-width="2" stroke-linecap="square"></path>
                        <path d="M326.691358,55.435567 L326.691358,92.6623711" id="Line-Copy" stroke="#FA915D" stroke-width="2" stroke-linecap="square"></path>
                        <g id="Cube-Copy" transform="translate(207.197688, 0.000000)">
                            <path d="M0.887052558,54.7228478 C0.915648548,43.5339758 0.887052558,0 0.887052558,0 L61.5306943,0 C61.5306943,0 62.3821482,8.58978554 63.3237153,12.5733909 L63.3237153,65.7262794 L1.29608628,65.7262794 C1.29608628,65.7262794 1.29608629,64.6695355 0.887052558,54.7228478 Z" id="Rectangle-64-Copy-3" fill="#FFFFFF" filter="url(#filter-2)" transform="translate(32.105384, 32.863140) scale(-1, 1) translate(-32.105384, -32.863140) "></path>
                            <g id="Illu">
                                <path d="M0.407719554,12.6396691 L61.7762947,12.6396691 L61.7762947,65.7262794 L0.407719554,65.7262794 L0.407719554,12.6396691 Z" id="Rectangle-64" fill="#FFFFFF"></path>
                                <path d="M62.0745981,12.6396691 L63.6392918,0 L63.6392918,53.0866103 L62.0745981,65.7262794 L62.0745981,12.6396691 Z" id="Rectangle-64-Copy-2" fill="#E0E0E0"></path>
                                <path d="M0.407719554,12.6396691 L61.7762947,12.6396691 L63.5894308,0 L2.64147226,0 L0.407719554,12.6396691 Z" id="Rectangle-64-Copy" fill="#FAFAFA"></path>
                            </g>
                        </g>
                        <g id="Cube-Copy-2" transform="translate(325.820249, 33.180412) scale(-1, 1) translate(-325.820249, -33.180412) translate(293.878891, 0.000000)">
                            <path d="M0.887052558,54.7228478 C0.915648548,43.5339758 0.887052558,0 0.887052558,0 L61.5306943,0 C61.5306943,0 62.3821482,8.58978554 63.3237153,12.5733909 L63.3237153,65.7262794 L1.29608628,65.7262794 C1.29608628,65.7262794 1.29608629,64.6695355 0.887052558,54.7228478 Z" id="Rectangle-64-Copy-3" fill="#FFFFFF" filter="url(#filter-3)" transform="translate(32.105384, 32.863140) scale(-1, 1) translate(-32.105384, -32.863140) "></path>
                            <g id="Illu">
                                <path d="M0.407719554,12.6396691 L61.7762947,12.6396691 L61.7762947,65.7262794 L0.407719554,65.7262794 L0.407719554,12.6396691 Z" id="Rectangle-64" fill="#FFFFFF"></path>
                                <path d="M62.0745981,12.6396691 L63.6392918,0 L63.6392918,53.0866103 L62.0745981,65.7262794 L62.0745981,12.6396691 Z" id="Rectangle-64-Copy-2" fill="#E0E0E0"></path>
                                <path d="M0.407719554,12.6396691 L61.7762947,12.6396691 L63.5894308,0 L2.64147226,0 L0.407719554,12.6396691 Z" id="Rectangle-64-Copy" fill="#FAFAFA"></path>
                            </g>
                        </g>
                        <g id="Cube-Copy-3" transform="translate(456.886835, 0.000000)">
                            <path d="M0.226684493,52.0769437 C0.255280484,40.8880717 0.226684493,0 0.226684493,0 L60.8703263,0 C60.8703263,0 65.0236205,8.58978554 65.9651876,12.5733909 L65.9651876,65.7262794 L3.93755854,65.7262794 C3.93755854,65.7262794 3.56035695,61.820292 0.226684493,52.0769437 Z" id="Rectangle-64-Copy-3" fill="#FFFFFF" filter="url(#filter-4)"></path>
                            <g id="Illu">
                                <path d="M4.36992794,12.6396691 L65.7385031,12.6396691 L65.7385031,65.7262794 L4.36992794,65.7262794 L4.36992794,12.6396691 Z" id="Rectangle-64" fill="#FFFFFF"></path>
                                <path d="M0,12.6396691 L4.20616602,0 L4.20616602,53.0866103 L0,65.7262794 L0,12.6396691 Z" id="Rectangle-64-Copy-2" fill="#E0E0E0" transform="translate(2.103083, 32.863140) scale(-1, 1) translate(-2.103083, -32.863140) "></path>
                                <path d="M4.36992794,12.6396691 L65.7385031,12.6396691 L60.9479585,0 L0,0 L4.36992794,12.6396691 Z" id="Rectangle-64-Copy" fill="#FAFAFA"></path>
                            </g>
                        </g>
                        <g id="Controller" transform="translate(110.160651, 0.000000)">
                            <path d="M0.887050151,143.862465 C0.915646142,117.273435 1.29444608,0 1.29444608,0 L61.8581534,0 C61.8581534,0 63.4521353,4.70566655 67.1051029,12.8151172 C67.1051029,54.9189661 67.1051005,156.190722 67.1051005,156.190722 L5.07747146,156.190722 C5.07747146,156.190722 3.24618158,149.983694 0.887050151,143.862465 Z" id="Rectangle-64-Copy-3" fill="#FFFFFF" filter="url(#filter-5)" transform="translate(33.996077, 78.095361) scale(-1, 1) translate(-33.996077, -78.095361) "></path>
                            <g id="Illu">
                                <path d="M0.407719554,12.6396691 L61.7762947,12.6396691 L61.7762947,156.190722 L0.407719554,156.190722 L0.407719554,12.6396691 Z" id="Rectangle-64" fill="#FFFFFF"></path>
                                <ellipse id="Oval-187" opacity="0.599999964" fill="#E3E3E4" cx="31.537037" cy="82.5463918" rx="18.5987654" ry="18.6134021"></ellipse>
                                <path d="M31.537037,96.3041237 C39.1292478,96.3041237 45.2839506,90.1445773 45.2839506,82.5463918 C45.2839506,74.9482062 39.1292478,68.7886598 31.537037,68.7886598 C23.9448263,68.7886598 17.7901235,74.9482062 17.7901235,82.5463918 C17.7901235,90.1445773 23.9448263,96.3041237 31.537037,96.3041237 Z" id="Oval-187-Copy" fill="#FFFFFF"></path>
                                <path d="M62.8832401,12.6396691 L66.8738597,0 L66.8738597,143.725786 L62.8832401,156.365455 L62.8832401,12.6396691 Z" id="Rectangle-64-Copy-2" fill="#E0E0E0"></path>
                                <path d="M0.407719554,12.6396691 L61.7762947,12.6396691 L67.6326407,0 L6.68468214,0 L0.407719554,12.6396691 Z" id="Rectangle-64-Copy" fill="#FAFAFA"></path>
                            </g>
                            <g id="Group" transform="translate(31.537037, 28.324742) rotate(-270.000000) translate(-31.537037, -28.324742) translate(22.641975, 2.427835)" fill="#CFD0D1" opacity="0.599999964">
                                <ellipse id="Oval-56-Copy-2" cx="1.61523185" cy="25.5290534" rx="1.23432655" ry="1.25070291"></ellipse>
                                <ellipse id="Oval-56-Copy-31" cx="6.55693282" cy="25.5290534" rx="1.23432655" ry="1.25070291"></ellipse>
                                <ellipse id="Oval-56-Copy-32" cx="11.4986338" cy="25.5290534" rx="1.23432655" ry="1.25070291"></ellipse>
                                <ellipse id="Oval-56-Copy-33" cx="16.4403347" cy="25.5290534" rx="1.23432655" ry="1.25070291"></ellipse>
                                <ellipse id="Oval-56-Copy-57" cx="1.61523185" cy="20.6733833" rx="1.23432655" ry="1.25070291"></ellipse>
                                <ellipse id="Oval-56-Copy-56" cx="6.55693282" cy="20.6733833" rx="1.23432655" ry="1.25070291"></ellipse>
                                <ellipse id="Oval-56-Copy-55" cx="11.4986338" cy="20.6733833" rx="1.23432655" ry="1.25070291"></ellipse>
                                <ellipse id="Oval-56-Copy-54" cx="16.4403347" cy="20.6733833" rx="1.23432655" ry="1.25070291"></ellipse>
                                <ellipse id="Oval-56-Copy-61" cx="1.61523185" cy="15.8177132" rx="1.23432655" ry="1.25070291"></ellipse>
                                <ellipse id="Oval-56-Copy-60" cx="6.55693282" cy="15.8177132" rx="1.23432655" ry="1.25070291"></ellipse>
                                <ellipse id="Oval-56-Copy-59" cx="11.4986338" cy="15.8177132" rx="1.23432655" ry="1.25070291"></ellipse>
                                <ellipse id="Oval-56-Copy-58" cx="16.4403347" cy="15.8177132" rx="1.23432655" ry="1.25070291"></ellipse>
                                <ellipse id="Oval-56-Copy-65" cx="1.61523185" cy="10.9620431" rx="1.23432655" ry="1.25070291"></ellipse>
                                <ellipse id="Oval-56-Copy-64" cx="6.55693282" cy="10.9620431" rx="1.23432655" ry="1.25070291"></ellipse>
                                <ellipse id="Oval-56-Copy-63" cx="11.4986338" cy="10.9620431" rx="1.23432655" ry="1.25070291"></ellipse>
                                <ellipse id="Oval-56-Copy-62" cx="16.4403347" cy="10.9620431" rx="1.23432655" ry="1.25070291"></ellipse>
                                <ellipse id="Oval-56-Copy-69" cx="1.61523185" cy="6.10637301" rx="1.23432655" ry="1.25070291"></ellipse>
                                <ellipse id="Oval-56-Copy-68" cx="6.55693282" cy="6.10637301" rx="1.23432655" ry="1.25070291"></ellipse>
                                <ellipse id="Oval-56-Copy-67" cx="11.4986338" cy="6.10637301" rx="1.23432655" ry="1.25070291"></ellipse>
                                <ellipse id="Oval-56-Copy-66" cx="16.4403347" cy="6.10637301" rx="1.23432655" ry="1.25070291"></ellipse>
                                <ellipse id="Oval-56-Copy-73" cx="1.61523185" cy="1.25070291" rx="1.23432655" ry="1.25070291"></ellipse>
                                <ellipse id="Oval-56-Copy-72" cx="6.55693282" cy="1.25070291" rx="1.23432655" ry="1.25070291"></ellipse>
                                <ellipse id="Oval-56-Copy-71" cx="11.4986338" cy="1.25070291" rx="1.23432655" ry="1.25070291"></ellipse>
                                <ellipse id="Oval-56-Copy-70" cx="16.4403347" cy="1.25070291" rx="1.23432655" ry="1.25070291"></ellipse>
                                <ellipse id="Oval-56-Copy-37" cx="1.61523185" cy="30.531865" rx="1.23432655" ry="1.25070291"></ellipse>
                                <ellipse id="Oval-56-Copy-36" cx="6.55693282" cy="30.531865" rx="1.23432655" ry="1.25070291"></ellipse>
                                <ellipse id="Oval-56-Copy-35" cx="11.4986338" cy="30.531865" rx="1.23432655" ry="1.25070291"></ellipse>
                                <ellipse id="Oval-56-Copy-34" cx="16.4403347" cy="30.531865" rx="1.23432655" ry="1.25070291"></ellipse>
                                <ellipse id="Oval-56-Copy-41" cx="1.61523185" cy="35.5346767" rx="1.23432655" ry="1.25070291"></ellipse>
                                <ellipse id="Oval-56-Copy-40" cx="6.55693282" cy="35.5346767" rx="1.23432655" ry="1.25070291"></ellipse>
                                <ellipse id="Oval-56-Copy-39" cx="11.4986338" cy="35.5346767" rx="1.23432655" ry="1.25070291"></ellipse>
                                <ellipse id="Oval-56-Copy-38" cx="16.4403347" cy="35.5346767" rx="1.23432655" ry="1.25070291"></ellipse>
                                <ellipse id="Oval-56-Copy-45" cx="1.61523185" cy="40.5374883" rx="1.23432655" ry="1.25070291"></ellipse>
                                <ellipse id="Oval-56-Copy-44" cx="6.55693282" cy="40.5374883" rx="1.23432655" ry="1.25070291"></ellipse>
                                <ellipse id="Oval-56-Copy-43" cx="11.4986338" cy="40.5374883" rx="1.23432655" ry="1.25070291"></ellipse>
                                <ellipse id="Oval-56-Copy-42" cx="16.4403347" cy="40.5374883" rx="1.23432655" ry="1.25070291"></ellipse>
                                <ellipse id="Oval-56-Copy-49" cx="1.61523185" cy="45.5402999" rx="1.23432655" ry="1.25070291"></ellipse>
                                <ellipse id="Oval-56-Copy-48" cx="6.55693282" cy="45.5402999" rx="1.23432655" ry="1.25070291"></ellipse>
                                <ellipse id="Oval-56-Copy-47" cx="11.4986338" cy="45.5402999" rx="1.23432655" ry="1.25070291"></ellipse>
                                <ellipse id="Oval-56-Copy-46" cx="16.4403347" cy="45.5402999" rx="1.23432655" ry="1.25070291"></ellipse>
                                <ellipse id="Oval-56-Copy-53" cx="1.61523185" cy="50.5431115" rx="1.23432655" ry="1.25070291"></ellipse>
                                <ellipse id="Oval-56-Copy-52" cx="6.55693282" cy="50.5431115" rx="1.23432655" ry="1.25070291"></ellipse>
                                <ellipse id="Oval-56-Copy-51" cx="11.4986338" cy="50.5431115" rx="1.23432655" ry="1.25070291"></ellipse>
                                <ellipse id="Oval-56-Copy-50" cx="16.4403347" cy="50.5431115" rx="1.23432655" ry="1.25070291"></ellipse>
                            </g>
                            <g id="Group-Copy" transform="translate(31.537037, 140.814433) rotate(-270.000000) translate(-31.537037, -140.814433) translate(22.641975, 114.917526)" fill="#CFD0D1" opacity="0.599999964">
                                <ellipse id="Oval-56-Copy-2" cx="1.61523185" cy="25.5290534" rx="1.23432655" ry="1.25070291"></ellipse>
                                <ellipse id="Oval-56-Copy-31" cx="6.55693282" cy="25.5290534" rx="1.23432655" ry="1.25070291"></ellipse>
                                <ellipse id="Oval-56-Copy-32" cx="11.4986338" cy="25.5290534" rx="1.23432655" ry="1.25070291"></ellipse>
                                <ellipse id="Oval-56-Copy-33" cx="16.4403347" cy="25.5290534" rx="1.23432655" ry="1.25070291"></ellipse>
                                <ellipse id="Oval-56-Copy-57" cx="1.61523185" cy="20.6733833" rx="1.23432655" ry="1.25070291"></ellipse>
                                <ellipse id="Oval-56-Copy-56" cx="6.55693282" cy="20.6733833" rx="1.23432655" ry="1.25070291"></ellipse>
                                <ellipse id="Oval-56-Copy-55" cx="11.4986338" cy="20.6733833" rx="1.23432655" ry="1.25070291"></ellipse>
                                <ellipse id="Oval-56-Copy-54" cx="16.4403347" cy="20.6733833" rx="1.23432655" ry="1.25070291"></ellipse>
                                <ellipse id="Oval-56-Copy-61" cx="1.61523185" cy="15.8177132" rx="1.23432655" ry="1.25070291"></ellipse>
                                <ellipse id="Oval-56-Copy-60" cx="6.55693282" cy="15.8177132" rx="1.23432655" ry="1.25070291"></ellipse>
                                <ellipse id="Oval-56-Copy-59" cx="11.4986338" cy="15.8177132" rx="1.23432655" ry="1.25070291"></ellipse>
                                <ellipse id="Oval-56-Copy-58" cx="16.4403347" cy="15.8177132" rx="1.23432655" ry="1.25070291"></ellipse>
                                <ellipse id="Oval-56-Copy-65" cx="1.61523185" cy="10.9620431" rx="1.23432655" ry="1.25070291"></ellipse>
                                <ellipse id="Oval-56-Copy-64" cx="6.55693282" cy="10.9620431" rx="1.23432655" ry="1.25070291"></ellipse>
                                <ellipse id="Oval-56-Copy-63" cx="11.4986338" cy="10.9620431" rx="1.23432655" ry="1.25070291"></ellipse>
                                <ellipse id="Oval-56-Copy-62" cx="16.4403347" cy="10.9620431" rx="1.23432655" ry="1.25070291"></ellipse>
                                <ellipse id="Oval-56-Copy-69" cx="1.61523185" cy="6.10637301" rx="1.23432655" ry="1.25070291"></ellipse>
                                <ellipse id="Oval-56-Copy-68" cx="6.55693282" cy="6.10637301" rx="1.23432655" ry="1.25070291"></ellipse>
                                <ellipse id="Oval-56-Copy-67" cx="11.4986338" cy="6.10637301" rx="1.23432655" ry="1.25070291"></ellipse>
                                <ellipse id="Oval-56-Copy-66" cx="16.4403347" cy="6.10637301" rx="1.23432655" ry="1.25070291"></ellipse>
                                <ellipse id="Oval-56-Copy-73" cx="1.61523185" cy="1.25070291" rx="1.23432655" ry="1.25070291"></ellipse>
                                <ellipse id="Oval-56-Copy-72" cx="6.55693282" cy="1.25070291" rx="1.23432655" ry="1.25070291"></ellipse>
                                <ellipse id="Oval-56-Copy-71" cx="11.4986338" cy="1.25070291" rx="1.23432655" ry="1.25070291"></ellipse>
                                <ellipse id="Oval-56-Copy-70" cx="16.4403347" cy="1.25070291" rx="1.23432655" ry="1.25070291"></ellipse>
                                <ellipse id="Oval-56-Copy-37" cx="1.61523185" cy="30.531865" rx="1.23432655" ry="1.25070291"></ellipse>
                                <ellipse id="Oval-56-Copy-36" cx="6.55693282" cy="30.531865" rx="1.23432655" ry="1.25070291"></ellipse>
                                <ellipse id="Oval-56-Copy-35" cx="11.4986338" cy="30.531865" rx="1.23432655" ry="1.25070291"></ellipse>
                                <ellipse id="Oval-56-Copy-34" cx="16.4403347" cy="30.531865" rx="1.23432655" ry="1.25070291"></ellipse>
                                <ellipse id="Oval-56-Copy-41" cx="1.61523185" cy="35.5346767" rx="1.23432655" ry="1.25070291"></ellipse>
                                <ellipse id="Oval-56-Copy-40" cx="6.55693282" cy="35.5346767" rx="1.23432655" ry="1.25070291"></ellipse>
                                <ellipse id="Oval-56-Copy-39" cx="11.4986338" cy="35.5346767" rx="1.23432655" ry="1.25070291"></ellipse>
                                <ellipse id="Oval-56-Copy-38" cx="16.4403347" cy="35.5346767" rx="1.23432655" ry="1.25070291"></ellipse>
                                <ellipse id="Oval-56-Copy-45" cx="1.61523185" cy="40.5374883" rx="1.23432655" ry="1.25070291"></ellipse>
                                <ellipse id="Oval-56-Copy-44" cx="6.55693282" cy="40.5374883" rx="1.23432655" ry="1.25070291"></ellipse>
                                <ellipse id="Oval-56-Copy-43" cx="11.4986338" cy="40.5374883" rx="1.23432655" ry="1.25070291"></ellipse>
                                <ellipse id="Oval-56-Copy-42" cx="16.4403347" cy="40.5374883" rx="1.23432655" ry="1.25070291"></ellipse>
                                <ellipse id="Oval-56-Copy-49" cx="1.61523185" cy="45.5402999" rx="1.23432655" ry="1.25070291"></ellipse>
                                <ellipse id="Oval-56-Copy-48" cx="6.55693282" cy="45.5402999" rx="1.23432655" ry="1.25070291"></ellipse>
                                <ellipse id="Oval-56-Copy-47" cx="11.4986338" cy="45.5402999" rx="1.23432655" ry="1.25070291"></ellipse>
                                <ellipse id="Oval-56-Copy-46" cx="16.4403347" cy="45.5402999" rx="1.23432655" ry="1.25070291"></ellipse>
                                <ellipse id="Oval-56-Copy-53" cx="1.61523185" cy="50.5431115" rx="1.23432655" ry="1.25070291"></ellipse>
                                <ellipse id="Oval-56-Copy-52" cx="6.55693282" cy="50.5431115" rx="1.23432655" ry="1.25070291"></ellipse>
                                <ellipse id="Oval-56-Copy-51" cx="11.4986338" cy="50.5431115" rx="1.23432655" ry="1.25070291"></ellipse>
                                <ellipse id="Oval-56-Copy-50" cx="16.4403347" cy="50.5431115" rx="1.23432655" ry="1.25070291"></ellipse>
                            </g>
                        </g>
                        <g id="Dot" transform="translate(370.358025, 33.180412)" fill="#FA915D">
                            <ellipse id="Oval-56-Copy-6" opacity="0.200000018" cx="4.04320988" cy="4.04639175" rx="4.04320988" ry="4.04639175"></ellipse>
                            <ellipse id="Oval-56-Copy-7" opacity="0.5" cx="20.2160494" cy="4.04639175" rx="4.04320988" ry="4.04639175"></ellipse>
                            <ellipse id="Oval-56-Copy-8" opacity="0.700000048" cx="36.3888889" cy="4.04639175" rx="4.04320988" ry="4.04639175"></ellipse>
                            <ellipse id="Oval-56-Copy-9" opacity="0.849999964" cx="52.5617284" cy="4.04639175" rx="4.04320988" ry="4.04639175"></ellipse>
                            <ellipse id="Oval-56-Copy-10" cx="68.7345679" cy="4.04639175" rx="4.04320988" ry="4.04639175"></ellipse>
                        </g>
                    </g>
                    <path d="M78.832,157.352 L82.36,157.352 L82.36,163.376 L87.76,163.376 L87.76,157.352 L91.312,157.352 L91.312,173 L87.76,173 L87.76,166.472 L82.36,166.472 L82.36,173 L78.832,173 L78.832,157.352 Z M101.368,173.288 C100.311995,173.288 99.3480044,173.100002 98.476,172.724 C97.6039956,172.347998 96.8560031,171.808004 96.232,171.104 C95.6079969,170.399996 95.1240017,169.544005 94.78,168.536 C94.4359983,167.527995 94.264,166.384006 94.264,165.104 C94.264,163.823994 94.4359983,162.684005 94.78,161.684 C95.1240017,160.683995 95.6079969,159.844003 96.232,159.164 C96.8560031,158.483997 97.6039956,157.964002 98.476,157.604 C99.3480044,157.243998 100.311995,157.064 101.368,157.064 C102.424005,157.064 103.387996,157.243998 104.26,157.604 C105.132004,157.964002 105.879997,158.487997 106.504,159.176 C107.128003,159.864003 107.611998,160.707995 107.956,161.708 C108.300002,162.708005 108.472,163.839994 108.472,165.104 C108.472,166.384006 108.300002,167.527995 107.956,168.536 C107.611998,169.544005 107.128003,170.399996 106.504,171.104 C105.879997,171.808004 105.132004,172.347998 104.26,172.724 C103.387996,173.100002 102.424005,173.288 101.368,173.288 L101.368,173.288 Z M101.368,170.24 C102.440005,170.24 103.287997,169.780005 103.912,168.86 C104.536003,167.939995 104.848,166.688008 104.848,165.104 C104.848,163.535992 104.536003,162.312004 103.912,161.432 C103.287997,160.551996 102.440005,160.112 101.368,160.112 C100.295995,160.112 99.4480031,160.551996 98.824,161.432 C98.1999969,162.312004 97.888,163.535992 97.888,165.104 C97.888,166.688008 98.1999969,167.939995 98.824,168.86 C99.4480031,169.780005 100.295995,170.24 101.368,170.24 L101.368,170.24 Z M111.424,157.352 L115.168,157.352 L117.784,164.384 L118.72,167.12 L118.816,167.12 L119.752,164.384 L122.296,157.352 L126.016,157.352 L126.016,173 L122.728,173 L122.728,167.264 C122.728,166.879998 122.744,166.456002 122.776,165.992 C122.808,165.527998 122.848,165.060002 122.896,164.588 C122.944,164.115998 122.992,163.652002 123.04,163.196 C123.088,162.739998 123.136,162.320002 123.184,161.936 L123.088,161.936 L121.792,165.56 L119.392,171.632 L117.976,171.632 L115.576,165.56 L114.328,161.936 L114.232,161.936 C114.28,162.320002 114.328,162.739998 114.376,163.196 C114.424,163.652002 114.468,164.115998 114.508,164.588 C114.548,165.060002 114.584,165.527998 114.616,165.992 C114.648,166.456002 114.664,166.879998 114.664,167.264 L114.664,173 L111.424,173 L111.424,157.352 Z M129.712,157.352 L139.504,157.352 L139.504,160.328 L133.24,160.328 L133.24,163.472 L138.568,163.472 L138.568,166.424 L133.24,166.424 L133.24,170.024 L139.744,170.024 L139.744,173 L129.712,173 L129.712,157.352 Z" id="HOME" fill="#FA915D"></path>
                </g>
            </g>
        </g>
    </g>
</svg>