<?xml version="1.0" encoding="UTF-8" standalone="no"?>
<svg width="866px" height="398px" viewBox="0 0 866 398" version="1.1" xmlns="http://www.w3.org/2000/svg" xmlns:xlink="http://www.w3.org/1999/xlink" xmlns:sketch="http://www.bohemiancoding.com/sketch/ns">
    <!-- Generator: Sketch 3.4.4 (17248) - http://www.bohemiancoding.com/sketch -->
    <title>ILLU</title>
    <desc>Created with Sketch.</desc>
    <defs>
        <filter x="-50%" y="-50%" width="200%" height="200%" filterUnits="objectBoundingBox" id="filter-1">
            <feOffset dx="0" dy="0" in="SourceAlpha" result="shadowOffsetOuter1"></feOffset>
            <feGaussianBlur stdDeviation="5" in="shadowOffsetOuter1" result="shadowBlurOuter1"></feGaussianBlur>
            <feColorMatrix values="0 0 0 0 0   0 0 0 0 0   0 0 0 0 0  0 0 0 0.21 0" in="shadowBlurOuter1" type="matrix" result="shadowMatrixOuter1"></feColorMatrix>
            <feMerge>
                <feMergeNode in="shadowMatrixOuter1"></feMergeNode>
                <feMergeNode in="SourceGraphic"></feMergeNode>
            </feMerge>
        </filter>
        <filter x="-50%" y="-50%" width="200%" height="200%" filterUnits="objectBoundingBox" id="filter-2">
            <feOffset dx="0" dy="0" in="SourceAlpha" result="shadowOffsetOuter1"></feOffset>
            <feGaussianBlur stdDeviation="5" in="shadowOffsetOuter1" result="shadowBlurOuter1"></feGaussianBlur>
            <feColorMatrix values="0 0 0 0 0   0 0 0 0 0   0 0 0 0 0  0 0 0 0.21 0" in="shadowBlurOuter1" type="matrix" result="shadowMatrixOuter1"></feColorMatrix>
            <feMerge>
                <feMergeNode in="shadowMatrixOuter1"></feMergeNode>
                <feMergeNode in="SourceGraphic"></feMergeNode>
            </feMerge>
        </filter>
        <filter x="-50%" y="-50%" width="200%" height="200%" filterUnits="objectBoundingBox" id="filter-3">
            <feOffset dx="0" dy="0" in="SourceAlpha" result="shadowOffsetOuter1"></feOffset>
            <feGaussianBlur stdDeviation="5" in="shadowOffsetOuter1" result="shadowBlurOuter1"></feGaussianBlur>
            <feColorMatrix values="0 0 0 0 0   0 0 0 0 0   0 0 0 0 0  0 0 0 0.21 0" in="shadowBlurOuter1" type="matrix" result="shadowMatrixOuter1"></feColorMatrix>
            <feMerge>
                <feMergeNode in="shadowMatrixOuter1"></feMergeNode>
                <feMergeNode in="SourceGraphic"></feMergeNode>
            </feMerge>
        </filter>
        <filter x="-50%" y="-50%" width="200%" height="200%" filterUnits="objectBoundingBox" id="filter-4">
            <feOffset dx="0" dy="0" in="SourceAlpha" result="shadowOffsetOuter1"></feOffset>
            <feGaussianBlur stdDeviation="5" in="shadowOffsetOuter1" result="shadowBlurOuter1"></feGaussianBlur>
            <feColorMatrix values="0 0 0 0 0   0 0 0 0 0   0 0 0 0 0  0 0 0 0.21 0" in="shadowBlurOuter1" type="matrix" result="shadowMatrixOuter1"></feColorMatrix>
            <feMerge>
                <feMergeNode in="shadowMatrixOuter1"></feMergeNode>
                <feMergeNode in="SourceGraphic"></feMergeNode>
            </feMerge>
        </filter>
        <filter x="-50%" y="-50%" width="200%" height="200%" filterUnits="objectBoundingBox" id="filter-5">
            <feOffset dx="0" dy="0" in="SourceAlpha" result="shadowOffsetOuter1"></feOffset>
            <feGaussianBlur stdDeviation="5" in="shadowOffsetOuter1" result="shadowBlurOuter1"></feGaussianBlur>
            <feColorMatrix values="0 0 0 0 0   0 0 0 0 0   0 0 0 0 0  0 0 0 0.21 0" in="shadowBlurOuter1" type="matrix" result="shadowMatrixOuter1"></feColorMatrix>
            <feMerge>
                <feMergeNode in="shadowMatrixOuter1"></feMergeNode>
                <feMergeNode in="SourceGraphic"></feMergeNode>
            </feMerge>
        </filter>
        <linearGradient x1="100%" y1="50%" x2="13.9721765%" y2="50%" id="linearGradient-6">
            <stop stop-color="#6A7FDC" offset="0%"></stop>
            <stop stop-color="#FFFFFF" offset="100%"></stop>
        </linearGradient>
        <filter x="-50%" y="-50%" width="200%" height="200%" filterUnits="objectBoundingBox" id="filter-7">
            <feOffset dx="0" dy="0" in="SourceAlpha" result="shadowOffsetOuter1"></feOffset>
            <feGaussianBlur stdDeviation="5" in="shadowOffsetOuter1" result="shadowBlurOuter1"></feGaussianBlur>
            <feColorMatrix values="0 0 0 0 0   0 0 0 0 0   0 0 0 0 0  0 0 0 0.21 0" in="shadowBlurOuter1" type="matrix" result="shadowMatrixOuter1"></feColorMatrix>
            <feMerge>
                <feMergeNode in="shadowMatrixOuter1"></feMergeNode>
                <feMergeNode in="SourceGraphic"></feMergeNode>
            </feMerge>
        </filter>
    </defs>
    <g id="Design" stroke="none" stroke-width="1" fill="none" fill-rule="evenodd" sketch:type="MSPage">
        <g id="5a-architecture" sketch:type="MSArtboardGroup" transform="translate(-363.000000, -2232.000000)">
            <g id="3" sketch:type="MSLayerGroup" transform="translate(363.000000, 2082.000000)">
                <g id="ILLU" transform="translate(0.000000, 149.000000)" sketch:type="MSShapeGroup">
                    <path d="M28.9634975,376.4 L27.7634975,371.6 C27.0168271,368.986654 26.2968343,366.213348 25.6034975,363.28 C24.9101607,360.346652 24.2168343,357.520014 23.5234975,354.8 L23.2034975,354.8 C22.5634943,357.573347 21.9101675,360.413319 21.2434975,363.32 C20.5768275,366.226681 19.8701679,368.986654 19.1234975,371.6 L17.8434975,376.4 L28.9634975,376.4 Z M31.3634975,385.6 L15.4434975,385.6 L12.2434975,398 L0.243497453,398 L16.5634975,345.84 L30.7234975,345.84 L47.0434975,398 L34.5634975,398 L31.3634975,385.6 Z M52.7234975,345.84 L71.7634975,345.84 C74.5901783,345.84 77.2434851,346.119997 79.7234975,346.68 C82.2035099,347.240003 84.3634883,348.173327 86.2034975,349.48 C88.0435067,350.786673 89.4968255,352.519989 90.5634975,354.68 C91.6301695,356.840011 92.1634975,359.493318 92.1634975,362.64 C92.1634975,365.680015 91.6168363,368.319989 90.5234975,370.56 C89.4301587,372.800011 87.9501735,374.639993 86.0834975,376.08 C84.2168215,377.520007 82.0568431,378.586663 79.6034975,379.28 C77.1501519,379.973337 74.5368447,380.32 71.7634975,380.32 L64.4834975,380.32 L64.4834975,398 L52.7234975,398 L52.7234975,345.84 Z M71.0434975,370.96 C77.4435295,370.96 80.6434975,368.186694 80.6434975,362.64 C80.6434975,359.919986 79.8301723,358.000006 78.2034975,356.88 C76.5768227,355.759994 74.1901799,355.2 71.0434975,355.2 L64.4834975,355.2 L64.4834975,370.96 L71.0434975,370.96 Z M101.203497,345.84 L120.243497,345.84 C123.070178,345.84 125.723485,346.119997 128.203497,346.68 C130.68351,347.240003 132.843488,348.173327 134.683497,349.48 C136.523507,350.786673 137.976825,352.519989 139.043497,354.68 C140.110169,356.840011 140.643497,359.493318 140.643497,362.64 C140.643497,365.680015 140.096836,368.319989 139.003497,370.56 C137.910159,372.800011 136.430173,374.639993 134.563497,376.08 C132.696821,377.520007 130.536843,378.586663 128.083497,379.28 C125.630152,379.973337 123.016845,380.32 120.243497,380.32 L112.963497,380.32 L112.963497,398 L101.203497,398 L101.203497,345.84 Z M119.523497,370.96 C125.923529,370.96 129.123497,368.186694 129.123497,362.64 C129.123497,359.919986 128.310172,358.000006 126.683497,356.88 C125.056823,355.759994 122.67018,355.2 119.523497,355.2 L112.963497,355.2 L112.963497,370.96 L119.523497,370.96 Z M152.243497,383.36 C154.110173,384.960008 156.176819,386.266662 158.443497,387.28 C160.710175,388.293338 162.93682,388.8 165.123497,388.8 C167.576843,388.8 169.403491,388.346671 170.603497,387.44 C171.803503,386.533329 172.403497,385.306674 172.403497,383.76 C172.403497,382.959996 172.230166,382.26667 171.883497,381.68 C171.536829,381.09333 171.030167,380.573336 170.363497,380.12 C169.696827,379.666664 168.896835,379.240002 167.963497,378.84 C167.030159,378.439998 166.003503,378.000002 164.883497,377.52 L158.083497,374.64 C156.750157,374.106664 155.456837,373.413338 154.203497,372.56 C152.950158,371.706662 151.830169,370.706672 150.843497,369.56 C149.856826,368.413328 149.070167,367.080008 148.483497,365.56 C147.896828,364.039992 147.603497,362.32001 147.603497,360.4 C147.603497,358.266656 148.056826,356.253343 148.963497,354.36 C149.870169,352.466657 151.150156,350.81334 152.803497,349.4 C154.456839,347.98666 156.416819,346.880004 158.683497,346.08 C160.950175,345.279996 163.443484,344.88 166.163497,344.88 C169.203513,344.88 172.203483,345.466661 175.163497,346.64 C178.123512,347.813339 180.723486,349.519989 182.963497,351.76 L176.963497,359.2 C175.256822,357.86666 173.550173,356.840004 171.843497,356.12 C170.136822,355.399996 168.243508,355.04 166.163497,355.04 C164.136821,355.04 162.523503,355.453329 161.323497,356.28 C160.123491,357.106671 159.523497,358.266659 159.523497,359.76 C159.523497,360.560004 159.723495,361.239997 160.123497,361.8 C160.523499,362.360003 161.083494,362.866664 161.803497,363.32 C162.523501,363.773336 163.363493,364.199998 164.323497,364.6 C165.283502,365.000002 166.323492,365.439998 167.443497,365.92 L174.163497,368.64 C177.363513,369.920006 179.883488,371.679989 181.723497,373.92 C183.563507,376.160011 184.483497,379.119982 184.483497,382.8 C184.483497,384.986678 184.043502,387.053324 183.163497,389 C182.283493,390.946676 181.003506,392.653326 179.323497,394.12 C177.643489,395.586674 175.576843,396.759996 173.123497,397.64 C170.670152,398.520004 167.896846,398.96 164.803497,398.96 C161.390147,398.96 157.990181,398.33334 154.603497,397.08 C151.216814,395.82666 148.190177,393.946679 145.523497,391.44 L152.243497,383.36 Z" id="APPS" fill="#A5B2E9"></path>
                    <path d="M633.28,105.84 L652.32,105.84 C655.146681,105.84 657.799988,106.119997 660.28,106.68 C662.760012,107.240003 664.919991,108.173327 666.76,109.48 C668.600009,110.786673 670.053328,112.519989 671.12,114.68 C672.186672,116.840011 672.72,119.493318 672.72,122.64 C672.72,125.680015 672.173339,128.319989 671.08,130.56 C669.986661,132.800011 668.506676,134.639993 666.64,136.08 C664.773324,137.520007 662.613346,138.586663 660.16,139.28 C657.706654,139.973337 655.093347,140.32 652.32,140.32 L645.04,140.32 L645.04,158 L633.28,158 L633.28,105.84 Z M651.6,130.96 C658.000032,130.96 661.2,128.186694 661.2,122.64 C661.2,119.919986 660.386675,118.000006 658.76,116.88 C657.133325,115.759994 654.746682,115.2 651.6,115.2 L645.04,115.2 L645.04,130.96 L651.6,130.96 Z M693.52,129.84 L699.6,129.84 C702.693349,129.84 705.053325,129.186673 706.68,127.88 C708.306675,126.573327 709.12,124.640013 709.12,122.08 C709.12,119.519987 708.306675,117.733338 706.68,116.72 C705.053325,115.706662 702.693349,115.2 699.6,115.2 L693.52,115.2 L693.52,129.84 Z M710,158 L700,139.2 L693.52,139.2 L693.52,158 L681.76,158 L681.76,105.84 L700.56,105.84 C703.333347,105.84 705.933321,106.106664 708.36,106.64 C710.786679,107.173336 712.906658,108.06666 714.72,109.32 C716.533342,110.57334 717.973328,112.23999 719.04,114.32 C720.106672,116.40001 720.64,118.986651 720.64,122.08 C720.64,125.920019 719.800008,129.079988 718.12,131.56 C716.439992,134.040012 714.186681,135.893327 711.36,137.12 L723.2,158 L710,158 Z M752.24,158.96 C748.719982,158.96 745.506681,158.33334 742.6,157.08 C739.693319,155.82666 737.20001,154.026678 735.12,151.68 C733.03999,149.333322 731.426672,146.480017 730.28,143.12 C729.133328,139.759983 728.56,135.946688 728.56,131.68 C728.56,127.413312 729.133328,123.61335 730.28,120.28 C731.426672,116.94665 733.03999,114.146678 735.12,111.88 C737.20001,109.613322 739.693319,107.880006 742.6,106.68 C745.506681,105.479994 748.719982,104.88 752.24,104.88 C755.760018,104.88 758.973319,105.479994 761.88,106.68 C764.786681,107.880006 767.27999,109.626655 769.36,111.92 C771.44001,114.213345 773.053328,117.02665 774.2,120.36 C775.346672,123.69335 775.92,127.466646 775.92,131.68 C775.92,135.946688 775.346672,139.759983 774.2,143.12 C773.053328,146.480017 771.44001,149.333322 769.36,151.68 C767.27999,154.026678 764.786681,155.82666 761.88,157.08 C758.973319,158.33334 755.760018,158.96 752.24,158.96 L752.24,158.96 Z M752.24,148.8 C755.813351,148.8 758.63999,147.266682 760.72,144.2 C762.80001,141.133318 763.84,136.960026 763.84,131.68 C763.84,126.453307 762.80001,122.373348 760.72,119.44 C758.63999,116.506652 755.813351,115.04 752.24,115.04 C748.666649,115.04 745.84001,116.506652 743.76,119.44 C741.67999,122.373348 740.64,126.453307 740.64,131.68 C740.64,136.960026 741.67999,141.133318 743.76,144.2 C745.84001,147.266682 748.666649,148.8 752.24,148.8 L752.24,148.8 Z M792.88,131.2 L779.28,105.84 L792.4,105.84 L796.96,115.68 C797.54667,116.906673 798.13333,118.199993 798.72,119.56 C799.30667,120.920007 799.97333,122.426658 800.72,124.08 L801.04,124.08 C801.62667,122.426658 802.199997,120.920007 802.76,119.56 C803.320003,118.199993 803.866664,116.906673 804.4,115.68 L808.56,105.84 L821.12,105.84 L807.6,131.76 L822,158 L808.88,158 L803.68,147.36 C803.039997,145.973326 802.413336,144.600007 801.8,143.24 C801.186664,141.879993 800.50667,140.400008 799.76,138.8 L799.44,138.8 C798.85333,140.400008 798.26667,141.879993 797.68,143.24 C797.09333,144.600007 796.50667,145.973326 795.92,147.36 L791.04,158 L778.4,158 L792.88,131.2 Z M838,139.44 L822.24,105.84 L834.88,105.84 L839.52,117.84 C840.26667,119.813343 840.97333,121.719991 841.64,123.56 C842.30667,125.400009 843.01333,127.333323 843.76,129.36 L844.08,129.36 C844.82667,127.333323 845.559996,125.400009 846.28,123.56 C847.000004,121.719991 847.73333,119.813343 848.48,117.84 L853.2,105.84 L865.52,105.84 L849.76,139.44 L849.76,158 L838,158 L838,139.44 Z" id="PROXY" fill="#D2D8F4"></path>
                    <g id="Cube" transform="translate(104.166384, 272.000000)">
                        <path d="M0.280327389,64.349854 C0.315690369,50.5241141 0.280327389,0 0.280327389,0 L75.2747546,0 C75.2747546,0 80.4108895,10.6141299 81.5752701,15.5365467 L81.5752701,81.2159121 L4.8693472,81.2159121 C4.8693472,81.2159121 4.40288417,76.3894054 0.280327389,64.349854 Z" id="Rectangle-64-Copy-3" fill="#FFFFFF" filter="url(#filter-1)" transform="translate(40.927799, 40.607956) scale(-1, 1) translate(-40.927799, -40.607956) "></path>
                        <g id="Illu">
                            <path d="M0.504202807,15.6184446 L76.3951125,15.6184446 L76.3951125,81.2159121 L0.504202807,81.2159121 L0.504202807,15.6184446 Z" id="Rectangle-64" fill="#FFFFFF"></path>
                            <path d="M76.7640068,15.6184446 L81.9655251,0 L81.9655251,65.5974675 L76.7640068,81.2159121 L76.7640068,15.6184446 Z" id="Rectangle-64-Copy-2" fill="#E0E0E0"></path>
                            <path d="M0.504202807,15.6184446 L76.3951125,15.6184446 L82.7205032,0 L7.34974533,0 L0.504202807,15.6184446 Z" id="Rectangle-64-Copy" fill="#FAFAFA"></path>
                        </g>
                    </g>
                    <g id="Cube-Copy" transform="translate(215.229202, 272.000000)">
                        <path d="M1.09696576,67.6193151 C1.13232874,53.7935752 1.09696576,0 1.09696576,0 L76.091393,0 C76.091393,0 77.144336,10.6141299 78.3087166,15.5365467 L78.3087166,81.2159121 L1.60279372,81.2159121 C1.60279372,81.2159121 1.60279373,79.9101266 1.09696576,67.6193151 Z" id="Rectangle-64-Copy-3" fill="#FFFFFF" filter="url(#filter-2)" transform="translate(39.702841, 40.607956) scale(-1, 1) translate(-39.702841, -40.607956) "></path>
                        <g id="Illu">
                            <path d="M0.504202807,15.6184446 L76.3951125,15.6184446 L76.3951125,81.2159121 L0.504202807,81.2159121 L0.504202807,15.6184446 Z" id="Rectangle-64" fill="#FFFFFF"></path>
                            <path d="M76.7640068,15.6184446 L78.6989716,0 L78.6989716,65.5974675 L76.7640068,81.2159121 L76.7640068,15.6184446 Z" id="Rectangle-64-Copy-2" fill="#E0E0E0"></path>
                            <path d="M0.504202807,15.6184446 L76.3951125,15.6184446 L78.6373113,0 L3.26655348,0 L0.504202807,15.6184446 Z" id="Rectangle-64-Copy" fill="#FAFAFA"></path>
                        </g>
                    </g>
                    <g id="Cube-Copy-2" transform="translate(361.922750, 313.000000) scale(-1, 1) translate(-361.922750, -313.000000) translate(322.422750, 272.000000)">
                        <path d="M1.09696576,67.6193151 C1.13232874,53.7935752 1.09696576,0 1.09696576,0 L76.091393,0 C76.091393,0 77.144336,10.6141299 78.3087166,15.5365467 L78.3087166,81.2159121 L1.60279372,81.2159121 C1.60279372,81.2159121 1.60279373,79.9101266 1.09696576,67.6193151 Z" id="Rectangle-64-Copy-3" fill="#FFFFFF" filter="url(#filter-3)" transform="translate(39.702841, 40.607956) scale(-1, 1) translate(-39.702841, -40.607956) "></path>
                        <g id="Illu">
                            <path d="M0.504202807,15.6184446 L76.3951125,15.6184446 L76.3951125,81.2159121 L0.504202807,81.2159121 L0.504202807,15.6184446 Z" id="Rectangle-64" fill="#FFFFFF"></path>
                            <path d="M76.7640068,15.6184446 L78.6989716,0 L78.6989716,65.5974675 L76.7640068,81.2159121 L76.7640068,15.6184446 Z" id="Rectangle-64-Copy-2" fill="#E0E0E0"></path>
                            <path d="M0.504202807,15.6184446 L76.3951125,15.6184446 L78.6373113,0 L3.26655348,0 L0.504202807,15.6184446 Z" id="Rectangle-64-Copy" fill="#FAFAFA"></path>
                        </g>
                    </g>
                    <g id="Cube-Copy-3" transform="translate(430.005093, 272.000000)">
                        <path d="M0.280327389,64.349854 C0.315690369,50.5241141 0.280327389,0 0.280327389,0 L75.2747546,0 C75.2747546,0 80.4108895,10.6141299 81.5752701,15.5365467 L81.5752701,81.2159121 L4.8693472,81.2159121 C4.8693472,81.2159121 4.40288417,76.3894054 0.280327389,64.349854 Z" id="Rectangle-64-Copy-3" fill="#FFFFFF" filter="url(#filter-4)"></path>
                        <g id="Illu">
                            <path d="M5.40403303,15.6184446 L81.2949427,15.6184446 L81.2949427,81.2159121 L5.40403303,81.2159121 L5.40403303,15.6184446 Z" id="Rectangle-64" fill="#FFFFFF"></path>
                            <path d="M0,15.6184446 L5.20151828,0 L5.20151828,65.5974675 L0,81.2159121 L0,15.6184446 Z" id="Rectangle-64-Copy-2" fill="#E0E0E0" transform="translate(2.600759, 40.607956) scale(-1, 1) translate(-2.600759, -40.607956) "></path>
                            <path d="M5.40403303,15.6184446 L81.2949427,15.6184446 L75.3707579,0 L0,0 L5.40403303,15.6184446 Z" id="Rectangle-64-Copy" fill="#FAFAFA"></path>
                        </g>
                    </g>
                    <g id="Cube-Copy-4" transform="translate(540.005093, 272.000000)">
                        <path d="M0.280327389,64.349854 C0.315690369,50.5241141 0.280327389,0 0.280327389,0 L75.2747546,0 C75.2747546,0 80.4108895,10.6141299 81.5752701,15.5365467 L81.5752701,81.2159121 L4.8693472,81.2159121 C4.8693472,81.2159121 4.40288417,76.3894054 0.280327389,64.349854 Z" id="Rectangle-64-Copy-3" fill="#FFFFFF" filter="url(#filter-5)"></path>
                        <g id="Illu">
                            <path d="M5.40403303,15.6184446 L81.2949427,15.6184446 L81.2949427,81.2159121 L5.40403303,81.2159121 L5.40403303,15.6184446 Z" id="Rectangle-64" fill="#FFFFFF"></path>
                            <path d="M0,15.6184446 L5.20151828,0 L5.20151828,65.5974675 L0,81.2159121 L0,15.6184446 Z" id="Rectangle-64-Copy-2" fill="#E0E0E0" transform="translate(2.600759, 40.607956) scale(-1, 1) translate(-2.600759, -40.607956) "></path>
                            <path d="M5.40403303,15.6184446 L81.2949427,15.6184446 L75.3707579,0 L0,0 L5.40403303,15.6184446 Z" id="Rectangle-64-Copy" fill="#FAFAFA"></path>
                        </g>
                    </g>
                    <g id="Bar" transform="translate(332.000000, 0.838323)" fill="url(#linearGradient-6)">
                        <rect id="Rectangle-105" transform="translate(21.500000, 37.000000) rotate(-270.000000) translate(-21.500000, -37.000000) " x="-15" y="16" width="73" height="42"></rect>
                    </g>
                    <g id="Dot" transform="translate(361.202858, 225.570352) rotate(-90.000000) translate(-361.202858, -225.570352) translate(332.202858, 4.070352)" fill="#6A7FDC">
                        <ellipse id="Oval-56" cx="4.08319185" cy="331.850299" rx="4.08319185" ry="4.08682635"></ellipse>
                        <ellipse id="Oval-56-Copy" opacity="0.799999952" cx="20.4159593" cy="331.850299" rx="4.08319185" ry="4.08682635"></ellipse>
                        <ellipse id="Oval-56-Copy-2" opacity="0.599999964" cx="20.4159593" cy="314.685629" rx="4.08319185" ry="4.08682635"></ellipse>
                        <ellipse id="Oval-56-Copy-74" opacity="0.599999964" cx="20.4159593" cy="347.685629" rx="4.08319185" ry="4.08682635"></ellipse>
                        <ellipse id="Oval-56-Copy-3" opacity="0.300000012" cx="20.4159593" cy="298.338323" rx="4.08319185" ry="4.08682635"></ellipse>
                        <ellipse id="Oval-56-Copy-75" opacity="0.300000012" cx="20.4159593" cy="363.338323" rx="4.08319185" ry="4.08682635"></ellipse>
                        <ellipse id="Oval-56-Copy-76" opacity="0.300000012" cx="20.4159593" cy="378.338323" rx="4.08319185" ry="4.08682635"></ellipse>
                        <ellipse id="Oval-56-Copy-77" opacity="0.300000012" cx="20.4159593" cy="393.338323" rx="4.08319185" ry="4.08682635"></ellipse>
                        <ellipse id="Oval-56-Copy-78" opacity="0.400000006" cx="20.4159593" cy="408.338323" rx="4.08319185" ry="4.08682635"></ellipse>
                        <ellipse id="Oval-56-Copy-79" opacity="0.6" cx="20.4159593" cy="423.338323" rx="4.08319185" ry="4.08682635"></ellipse>
                        <ellipse id="Oval-56-Copy-80" opacity="0.8" cx="20.4159593" cy="438.338323" rx="4.08319185" ry="4.08682635"></ellipse>
                        <ellipse id="Oval-56-Copy-81" cx="5.41595925" cy="438.338323" rx="4.08319185" ry="4.08682635"></ellipse>
                        <ellipse id="Oval-56-Copy-4" opacity="0.100000001" cx="20.4159593" cy="281.991018" rx="4.08319185" ry="4.08682635"></ellipse>
                        <ellipse id="Oval-56-Copy-5" opacity="0.200000018" cx="20.4159593" cy="265.643713" rx="4.08319185" ry="4.08682635"></ellipse>
                        <ellipse id="Oval-56-Copy-11" opacity="0.300000012" cx="20.4159593" cy="249.296407" rx="4.08319185" ry="4.08682635"></ellipse>
                        <ellipse id="Oval-56-Copy-12" opacity="0.599999964" cx="20.4159593" cy="232.949102" rx="4.08319185" ry="4.08682635"></ellipse>
                        <ellipse id="Oval-56-Copy-13" opacity="0.799999952" cx="20.4159593" cy="216.601796" rx="4.08319185" ry="4.08682635"></ellipse>
                        <ellipse id="Oval-56-Copy-28" cx="4.08319185" cy="216.601796" rx="4.08319185" ry="4.08682635"></ellipse>
                        <ellipse id="Oval-56-Copy-14" opacity="0.599999964" cx="20.4159593" cy="200.254491" rx="4.08319185" ry="4.08682635"></ellipse>
                        <ellipse id="Oval-56-Copy-15" opacity="0.300000012" cx="20.4159593" cy="183.907186" rx="4.08319185" ry="4.08682635"></ellipse>
                        <ellipse id="Oval-56-Copy-16" opacity="0.100000001" cx="20.4159593" cy="167.55988" rx="4.08319185" ry="4.08682635"></ellipse>
                        <ellipse id="Oval-56-Copy-17" opacity="0.200000018" cx="20.4159593" cy="151.212575" rx="4.08319185" ry="4.08682635"></ellipse>
                        <ellipse id="Oval-56-Copy-18" opacity="0.300000012" cx="20.4159593" cy="134.865269" rx="4.08319185" ry="4.08682635"></ellipse>
                        <ellipse id="Oval-56-Copy-19" opacity="0.599999964" cx="20.4159593" cy="118.517964" rx="4.08319185" ry="4.08682635"></ellipse>
                        <ellipse id="Oval-56-Copy-20" opacity="0.799999952" cx="20.4159593" cy="102.170659" rx="4.08319185" ry="4.08682635"></ellipse>
                        <ellipse id="Oval-56-Copy-29" cx="4.08319185" cy="102.170659" rx="4.08319185" ry="4.08682635"></ellipse>
                        <ellipse id="Oval-56-Copy-21" opacity="0.599999964" cx="20.4159593" cy="85.8233533" rx="4.08319185" ry="4.08682635"></ellipse>
                        <ellipse id="Oval-56-Copy-22" opacity="0.300000012" cx="20.4159593" cy="69.4760479" rx="4.08319185" ry="4.08682635"></ellipse>
                        <ellipse id="Oval-56-Copy-23" opacity="0.100000001" cx="20.4159593" cy="53.1287425" rx="4.08319185" ry="4.08682635"></ellipse>
                        <ellipse id="Oval-56-Copy-24" opacity="0.300000012" cx="20.4159593" cy="36.7814371" rx="4.08319185" ry="4.08682635"></ellipse>
                        <ellipse id="Oval-56-Copy-25" opacity="0.599999964" cx="20.4159593" cy="20.4341317" rx="4.08319185" ry="4.08682635"></ellipse>
                        <ellipse id="Oval-56-Copy-26" opacity="0.799999952" cx="20.4159593" cy="4.08682635" rx="4.08319185" ry="4.08682635"></ellipse>
                        <ellipse id="Oval-56-Copy-27" cx="4.08319185" cy="4.08682635" rx="4.08319185" ry="4.08682635"></ellipse>
                        <ellipse id="Oval-56-Copy-28" opacity="0.5" cx="36.7487267" cy="216.55988" rx="4.08319185" ry="4.08682635"></ellipse>
                        <ellipse id="Oval-56-Copy-30" cx="53.0814941" cy="216.55988" rx="4.08319185" ry="4.08682635"></ellipse>
                    </g>
                    <g id="Bar" transform="translate(104.166384, 74.838323)">
                        <path d="M0.670034665,18.5359971 C0.670034665,18.5359971 9.16400929,3.91287518 11.978943,0.0415169147 C18.97758,0.106592002 505.938238,0.0415169147 505.938238,0.0415169147 C505.938238,0.0415169147 512.216997,13.7508359 516.00314,18.5359976 L516.00314,81.4759306 L0.670034586,82.3839803 L0.670034665,18.5359971 Z" id="Rectangle-64-Copy-3" fill="#FFFFFF" filter="url(#filter-7)"></path>
                        <g id="Illu" transform="translate(0.705981, 0.000000)">
                            <rect id="Rectangle-64" fill="#FFFFFF" x="0.0113133162" y="18.6156109" width="515.17004" height="62.9322072"></rect>
                            <path d="M0.0113133162,0.264051219 L515.181353,0.264051219 L504.877952,18.6156109 L10.3147141,18.6156109 L0.0113133162,0.264051219 Z" id="Rectangle-64-Copy-8" fill="#F9F9F9" transform="translate(257.596333, 9.439831) scale(1, -1) translate(-257.596333, -9.439831) "></path>
                        </g>
                    </g>
                </g>
            </g>
        </g>
    </g>
</svg>