<?xml version="1.0" encoding="UTF-8" standalone="no"?>
<svg width="565px" height="431px" viewBox="0 0 565 431" version="1.1" xmlns="http://www.w3.org/2000/svg" xmlns:xlink="http://www.w3.org/1999/xlink" xmlns:sketch="http://www.bohemiancoding.com/sketch/ns">
    <!-- Generator: Sketch 3.4.4 (17248) - http://www.bohemiancoding.com/sketch -->
    <title>Group</title>
    <desc>Created with Sketch.</desc>
    <defs>
        <filter x="-50%" y="-50%" width="200%" height="200%" filterUnits="objectBoundingBox" id="filter-1">
            <feOffset dx="0" dy="0" in="SourceAlpha" result="shadowOffsetOuter1"></feOffset>
            <feGaussianBlur stdDeviation="5" in="shadowOffsetOuter1" result="shadowBlurOuter1"></feGaussianBlur>
            <feColorMatrix values="0 0 0 0 0   0 0 0 0 0   0 0 0 0 0  0 0 0 0.21 0" in="shadowBlurOuter1" type="matrix" result="shadowMatrixOuter1"></feColorMatrix>
            <feMerge>
                <feMergeNode in="shadowMatrixOuter1"></feMergeNode>
                <feMergeNode in="SourceGraphic"></feMergeNode>
            </feMerge>
        </filter>
        <filter x="-50%" y="-50%" width="200%" height="200%" filterUnits="objectBoundingBox" id="filter-2">
            <feOffset dx="0" dy="0" in="SourceAlpha" result="shadowOffsetOuter1"></feOffset>
            <feGaussianBlur stdDeviation="5" in="shadowOffsetOuter1" result="shadowBlurOuter1"></feGaussianBlur>
            <feColorMatrix values="0 0 0 0 0   0 0 0 0 0   0 0 0 0 0  0 0 0 0.21 0" in="shadowBlurOuter1" type="matrix" result="shadowMatrixOuter1"></feColorMatrix>
            <feMerge>
                <feMergeNode in="shadowMatrixOuter1"></feMergeNode>
                <feMergeNode in="SourceGraphic"></feMergeNode>
            </feMerge>
        </filter>
        <filter x="-50%" y="-50%" width="200%" height="200%" filterUnits="objectBoundingBox" id="filter-3">
            <feOffset dx="0" dy="0" in="SourceAlpha" result="shadowOffsetOuter1"></feOffset>
            <feGaussianBlur stdDeviation="5" in="shadowOffsetOuter1" result="shadowBlurOuter1"></feGaussianBlur>
            <feColorMatrix values="0 0 0 0 0   0 0 0 0 0   0 0 0 0 0  0 0 0 0.21 0" in="shadowBlurOuter1" type="matrix" result="shadowMatrixOuter1"></feColorMatrix>
            <feMerge>
                <feMergeNode in="shadowMatrixOuter1"></feMergeNode>
                <feMergeNode in="SourceGraphic"></feMergeNode>
            </feMerge>
        </filter>
        <filter x="-50%" y="-50%" width="200%" height="200%" filterUnits="objectBoundingBox" id="filter-4">
            <feOffset dx="0" dy="0" in="SourceAlpha" result="shadowOffsetOuter1"></feOffset>
            <feGaussianBlur stdDeviation="5" in="shadowOffsetOuter1" result="shadowBlurOuter1"></feGaussianBlur>
            <feColorMatrix values="0 0 0 0 0   0 0 0 0 0   0 0 0 0 0  0 0 0 0.21 0" in="shadowBlurOuter1" type="matrix" result="shadowMatrixOuter1"></feColorMatrix>
            <feMerge>
                <feMergeNode in="shadowMatrixOuter1"></feMergeNode>
                <feMergeNode in="SourceGraphic"></feMergeNode>
            </feMerge>
        </filter>
        <filter x="-50%" y="-50%" width="200%" height="200%" filterUnits="objectBoundingBox" id="filter-5">
            <feOffset dx="0" dy="0" in="SourceAlpha" result="shadowOffsetOuter1"></feOffset>
            <feGaussianBlur stdDeviation="5" in="shadowOffsetOuter1" result="shadowBlurOuter1"></feGaussianBlur>
            <feColorMatrix values="0 0 0 0 0   0 0 0 0 0   0 0 0 0 0  0 0 0 0.21 0" in="shadowBlurOuter1" type="matrix" result="shadowMatrixOuter1"></feColorMatrix>
            <feMerge>
                <feMergeNode in="shadowMatrixOuter1"></feMergeNode>
                <feMergeNode in="SourceGraphic"></feMergeNode>
            </feMerge>
        </filter>
        <filter x="-50%" y="-50%" width="200%" height="200%" filterUnits="objectBoundingBox" id="filter-6">
            <feOffset dx="0" dy="0" in="SourceAlpha" result="shadowOffsetOuter1"></feOffset>
            <feGaussianBlur stdDeviation="5" in="shadowOffsetOuter1" result="shadowBlurOuter1"></feGaussianBlur>
            <feColorMatrix values="0 0 0 0 0   0 0 0 0 0   0 0 0 0 0  0 0 0 0.21 0" in="shadowBlurOuter1" type="matrix" result="shadowMatrixOuter1"></feColorMatrix>
            <feMerge>
                <feMergeNode in="shadowMatrixOuter1"></feMergeNode>
                <feMergeNode in="SourceGraphic"></feMergeNode>
            </feMerge>
        </filter>
        <filter x="-50%" y="-50%" width="200%" height="200%" filterUnits="objectBoundingBox" id="filter-7">
            <feOffset dx="0" dy="0" in="SourceAlpha" result="shadowOffsetOuter1"></feOffset>
            <feGaussianBlur stdDeviation="5" in="shadowOffsetOuter1" result="shadowBlurOuter1"></feGaussianBlur>
            <feColorMatrix values="0 0 0 0 0   0 0 0 0 0   0 0 0 0 0  0 0 0 0.21 0" in="shadowBlurOuter1" type="matrix" result="shadowMatrixOuter1"></feColorMatrix>
            <feMerge>
                <feMergeNode in="shadowMatrixOuter1"></feMergeNode>
                <feMergeNode in="SourceGraphic"></feMergeNode>
            </feMerge>
        </filter>
    </defs>
    <g id="Design" stroke="none" stroke-width="1" fill="none" fill-rule="evenodd" sketch:type="MSPage">
        <g id="5a-architecture" sketch:type="MSArtboardGroup" transform="translate(-414.000000, -3045.000000)">
            <g id="4" sketch:type="MSLayerGroup" transform="translate(386.000000, 2803.000000)">
                <g id="Group" transform="translate(70.000000, 251.000000)" sketch:type="MSShapeGroup">
                    <g id="Appro-App" transform="translate(144.000000, 22.000000)" fill="#EFAA47">
                        <g id="Page-1-+-Page-1-Copy">
                            <g id="Page-1" transform="translate(0.000000, 20.000000)">
                                <path d="M10.62,46.81875 L28.32,46.81875 L28.32,64.5583333 L10.62,64.5583333 L10.62,46.81875 Z" id="Fill-11"></path>
                                <path d="M0,158.16875 L17.7,158.16875 L17.7,140.429167 L0,140.429167 L0,158.16875 Z" id="Fill-12" opacity="0.2"></path>
                                <path d="M42.2076923,116.685417 L47.6538462,116.685417 L47.6538462,122.14375 L42.2076923,122.14375 L42.2076923,116.685417 Z" id="Fill-15"></path>
                                <path d="M29.4092308,128.420833 L34.8553846,128.420833 L34.8553846,133.879167 L29.4092308,133.879167 L29.4092308,128.420833 Z" id="Fill-16"></path>
                                <path d="M1.90615385,80.3875 L7.35230769,80.3875 L7.35230769,74.9291667 L1.90615385,74.9291667 L1.90615385,80.3875 Z" id="Fill-17"></path>
                                <path d="M29.1369231,85.0270833 L40.5738462,85.0270833 L40.5738462,96.4895833 L29.1369231,96.4895833 L29.1369231,85.0270833 Z" id="Fill-21" opacity="0.5"></path>
                                <path d="M25.8692308,164.172917 L37.3061538,164.172917 L37.3061538,175.635417 L25.8692308,175.635417 L25.8692308,164.172917 Z" id="Fill-22"></path>
                                <g id="Group" transform="translate(54.000000, 0.000000)">
                                    <path d="M25.8630769,0.639583333 L43.5630769,0.639583333 L43.5630769,18.3791667 L25.8630769,18.3791667 L25.8630769,0.639583333 Z" id="Fill-13"></path>
                                    <path d="M16.6046154,106.53125 L34.3046154,106.53125 L34.3046154,124.270833 L16.6046154,124.270833 L16.6046154,106.53125 Z" id="Fill-14"></path>
                                    <path d="M5.98461538,47.58125 L11.4307692,47.58125 L11.4307692,53.0395833 L5.98461538,53.0395833 L5.98461538,47.58125 Z" id="Fill-18"></path>
                                    <path d="M42.2015385,27.1125 L47.6476923,27.1125 L47.6476923,32.5708333 L42.2015385,32.5708333 L42.2015385,27.1125 Z" id="Fill-19"></path>
                                    <path d="M0.538461538,102.710417 L5.98461538,102.710417 L5.98461538,108.16875 L0.538461538,108.16875 L0.538461538,102.710417 Z" id="Fill-20"></path>
                                    <path d="M4.62307692,14.0125 L16.06,14.0125 L16.06,25.475 L4.62307692,25.475 L4.62307692,14.0125 Z" id="Fill-23" opacity="0.799999952"></path>
                                    <path d="M29.6753846,48.9458333 L41.1123077,48.9458333 L41.1123077,60.4083333 L29.6753846,60.4083333 L29.6753846,48.9458333 Z" id="Fill-24" opacity="0.5"></path>
                                    <path d="M13.8815385,73.2354167 L25.3184615,73.2354167 L25.3184615,84.6979167 L13.8815385,84.6979167 L13.8815385,73.2354167 Z" id="Fill-25" opacity="0.2"></path>
                                    <path d="M43.0184615,99.98125 L54.4553846,99.98125 L54.4553846,88.51875 L43.0184615,88.51875 L43.0184615,99.98125 Z" id="Fill-26" opacity="0.799999952"></path>
                                </g>
                                <path d="M9.80307692,109.04375 L21.24,109.04375 L21.24,120.50625 L9.80307692,120.50625 L9.80307692,109.04375 Z" id="Fill-27"></path>
                                <path d="M42.2076923,133.60625 L53.6446154,133.60625 L53.6446154,145.06875 L42.2076923,145.06875 L42.2076923,133.60625 Z" id="Fill-28" opacity="0.5"></path>
                            </g>
                            <g id="Page-1-Copy" transform="translate(157.000000, 98.500000) rotate(-180.000000) translate(-157.000000, -98.500000) translate(85.000000, 0.000000)">
                                <path d="M10.62,67.81875 L28.32,67.81875 L28.32,85.5583333 L10.62,85.5583333 L10.62,67.81875 Z" id="Fill-11"></path>
                                <path d="M2.84217094e-14,179.16875 L17.7,179.16875 L17.7,161.429167 L2.84217094e-14,161.429167 L2.84217094e-14,179.16875 Z" id="Fill-12"></path>
                                <path d="M42.2076923,137.685417 L47.6538462,137.685417 L47.6538462,143.14375 L42.2076923,143.14375 L42.2076923,137.685417 Z" id="Fill-15"></path>
                                <path d="M29.4092308,149.420833 L34.8553846,149.420833 L34.8553846,154.879167 L29.4092308,154.879167 L29.4092308,149.420833 Z" id="Fill-16"></path>
                                <path d="M1.90615385,101.3875 L7.35230769,101.3875 L7.35230769,95.9291667 L1.90615385,95.9291667 L1.90615385,101.3875 Z" id="Fill-17"></path>
                                <path d="M29.1369231,106.027083 L40.5738462,106.027083 L40.5738462,117.489583 L29.1369231,117.489583 L29.1369231,106.027083 Z" id="Fill-21" opacity="0.5"></path>
                                <path d="M25.8692308,185.172917 L37.3061538,185.172917 L37.3061538,196.635417 L25.8692308,196.635417 L25.8692308,185.172917 Z" id="Fill-22"></path>
                                <g id="Group" transform="translate(54.000000, 21.000000)">
                                    <path d="M25.8630769,0.639583333 L43.5630769,0.639583333 L43.5630769,18.3791667 L25.8630769,18.3791667 L25.8630769,0.639583333 Z" id="Fill-13" opacity="0.799999952"></path>
                                    <path d="M16.6046154,106.53125 L34.3046154,106.53125 L34.3046154,124.270833 L16.6046154,124.270833 L16.6046154,106.53125 Z" id="Fill-14" opacity="0.5"></path>
                                    <path d="M5.98461538,47.58125 L11.4307692,47.58125 L11.4307692,53.0395833 L5.98461538,53.0395833 L5.98461538,47.58125 Z" id="Fill-18"></path>
                                    <path d="M42.2015385,27.1125 L47.6476923,27.1125 L47.6476923,32.5708333 L42.2015385,32.5708333 L42.2015385,27.1125 Z" id="Fill-19"></path>
                                    <path d="M0.538461538,102.710417 L5.98461538,102.710417 L5.98461538,108.16875 L0.538461538,108.16875 L0.538461538,102.710417 Z" id="Fill-20" opacity="0.2"></path>
                                    <path d="M4.62307692,14.0125 L16.06,14.0125 L16.06,25.475 L4.62307692,25.475 L4.62307692,14.0125 Z" id="Fill-23"></path>
                                    <path d="M29.6753846,48.9458333 L41.1123077,48.9458333 L41.1123077,60.4083333 L29.6753846,60.4083333 L29.6753846,48.9458333 Z" id="Fill-24"></path>
                                    <path d="M13.8815385,73.2354167 L25.3184615,73.2354167 L25.3184615,84.6979167 L13.8815385,84.6979167 L13.8815385,73.2354167 Z" id="Fill-25" opacity="0.2"></path>
                                    <path d="M43.0184615,99.98125 L54.4553846,99.98125 L54.4553846,88.51875 L43.0184615,88.51875 L43.0184615,99.98125 Z" id="Fill-26"></path>
                                </g>
                                <path d="M99.8030769,0.04375 L111.24,0.04375 L111.24,11.50625 L99.8030769,11.50625 L99.8030769,0.04375 Z" id="Fill-27"></path>
                                <path d="M132.207692,24.60625 L143.644615,24.60625 L143.644615,36.06875 L132.207692,36.06875 L132.207692,24.60625 Z" id="Fill-28" opacity="0.799999952"></path>
                            </g>
                        </g>
                    </g>
                    <g id="Cube-Copy">
                        <path d="M214.096966,67.6193151 C214.132329,53.7935752 214.096966,0 214.096966,0 L289.091393,0 C289.091393,0 290.144336,10.6141299 291.308717,15.5365467 L291.308717,81.2159121 L214.602794,81.2159121 C214.602794,81.2159121 214.602794,79.9101266 214.096966,67.6193151 Z" id="Rectangle-64-Copy-3" fill="#FFFFFF" filter="url(#filter-1)" transform="translate(252.702841, 40.607956) scale(-1, 1) translate(-252.702841, -40.607956) "></path>
                        <g id="Illu" transform="translate(213.000000, 0.000000)">
                            <path d="M0.504202807,15.6184446 L76.3951125,15.6184446 L76.3951125,81.2159121 L0.504202807,81.2159121 L0.504202807,15.6184446 Z" id="Rectangle-64" fill="#FFFFFF"></path>
                            <path d="M76.7640068,15.6184446 L78.6989716,0 L78.6989716,65.5974675 L76.7640068,81.2159121 L76.7640068,15.6184446 Z" id="Rectangle-64-Copy-2" fill="#E0E0E0"></path>
                            <path d="M0.504202807,15.6184446 L76.3951125,15.6184446 L78.6373113,0 L3.26655348,0 L0.504202807,15.6184446 Z" id="Rectangle-64-Copy" fill="#FAFAFA"></path>
                        </g>
                        <g id="Bar" transform="translate(0.000000, 145.000000)">
                            <path d="M0.666794501,18.5359971 C0.666794501,18.5359971 9.11969384,3.91287518 11.921015,0.0415169147 C18.885808,0.106592002 503.491614,0.0415169147 503.491614,0.0415169147 C503.491614,0.0415169147 509.74001,13.7508359 513.507844,18.5359976 L513.507844,81.4759306 L0.666794423,82.3839803 L0.666794501,18.5359971 Z" id="Rectangle-64-Copy-3" fill="#FFFFFF" filter="url(#filter-2)"></path>
                            <g id="Illu" transform="translate(0.702567, 0.000000)">
                                <rect id="Rectangle-64" fill="#FFFFFF" x="0.0112586071" y="18.6156109" width="512.678772" height="62.9322072"></rect>
                                <path d="M0.0112586071,0.264051219 L512.690031,0.264051219 L502.436456,18.6156109 L10.2648341,18.6156109 L0.0112586071,0.264051219 Z" id="Rectangle-64-Copy-8" fill="#F9F9F9" transform="translate(256.350645, 9.439831) scale(1, -1) translate(-256.350645, -9.439831) "></path>
                            </g>
                        </g>
                    </g>
                    <g id="Cercle-1" transform="translate(0.000000, 310.000000)">
                        <circle id="Oval-213-Copy" fill="#FFFFFF" filter="url(#filter-3)" cx="33.5" cy="36.5" r="33.5"></circle>
                        <g id="Illu">
                            <circle id="Oval-213" fill="#E0E0E0" cx="39.5" cy="33.5" r="33.5"></circle>
                            <circle id="Oval-213-Copy-2" fill="#FFFFFF" cx="33.5" cy="36.5" r="33.5"></circle>
                        </g>
                    </g>
                    <g id="Cercle-1-Copy" transform="translate(111.000000, 310.000000)">
                        <circle id="Oval-213-Copy" fill="#FFFFFF" filter="url(#filter-4)" cx="33.5" cy="36.5" r="33.5"></circle>
                        <g id="Illu">
                            <circle id="Oval-213" fill="#E0E0E0" cx="33.5" cy="33.5" r="33.5"></circle>
                            <circle id="Oval-213-Copy-2" fill="#FFFFFF" cx="33.5" cy="36.5" r="33.5"></circle>
                        </g>
                    </g>
                    <g id="Cercle-1-Copy-2" transform="translate(216.000000, 310.000000)">
                        <circle id="Oval-213-Copy" fill="#FFFFFF" filter="url(#filter-5)" cx="34.5" cy="36.5" r="33.5"></circle>
                        <g id="Illu">
                            <circle id="Oval-213" fill="#E0E0E0" cx="33.5" cy="33.5" r="33.5"></circle>
                            <circle id="Oval-213-Copy-2" fill="#FFFFFF" cx="34.5" cy="36.5" r="33.5"></circle>
                        </g>
                    </g>
                    <g id="Cercle-1-Copy-3" transform="translate(322.000000, 310.000000)">
                        <circle id="Oval-213-Copy" fill="#FFFFFF" filter="url(#filter-6)" cx="37.5" cy="36.5" r="33.5"></circle>
                        <g id="Illu">
                            <circle id="Oval-213" fill="#E0E0E0" cx="33.5" cy="33.5" r="33.5"></circle>
                            <circle id="Oval-213-Copy-2" fill="#FFFFFF" cx="37.5" cy="36.5" r="33.5"></circle>
                        </g>
                    </g>
                    <g id="Cercle-1-Copy-4" transform="translate(432.000000, 310.000000)">
                        <circle id="Oval-213-Copy" fill="#FFFFFF" filter="url(#filter-7)" cx="39.5" cy="36.5" r="33.5"></circle>
                        <g id="Illu">
                            <circle id="Oval-213" fill="#E0E0E0" cx="33.5" cy="33.5" r="33.5"></circle>
                            <circle id="Oval-213-Copy-2" fill="#FFFFFF" cx="39.5" cy="36.5" r="33.5"></circle>
                        </g>
                    </g>
                    <g id="Dot" transform="translate(254.000000, 271.000000) rotate(-90.000000) translate(-254.000000, -271.000000) translate(229.000000, 50.000000)" fill="#EFAA47">
                        <circle id="Oval-56-Copy-8" opacity="0.300000012" cx="5" cy="5" r="5"></circle>
                        <circle id="Oval-56-Copy-9" opacity="0.600000024" cx="25" cy="5" r="5"></circle>
                        <circle id="Oval-56-Copy-10" cx="45" cy="5" r="5"></circle>
                        <circle id="Oval-56-Copy-84" opacity="0.300000012" cx="5" cy="108" r="5"></circle>
                        <circle id="Oval-56-Copy-83" opacity="0.600000024" cx="25" cy="108" r="5"></circle>
                        <circle id="Oval-56-Copy-82" cx="45" cy="108" r="5"></circle>
                        <circle id="Oval-56-Copy-87" opacity="0.300000012" cx="5" cy="216" r="5"></circle>
                        <circle id="Oval-56-Copy-86" opacity="0.600000024" cx="25" cy="216" r="5"></circle>
                        <circle id="Oval-56-Copy-85" cx="45" cy="216" r="5"></circle>
                        <circle id="Oval-56-Copy-90" opacity="0.300000012" cx="5" cy="327" r="5"></circle>
                        <circle id="Oval-56-Copy-89" opacity="0.600000024" cx="25" cy="327" r="5"></circle>
                        <circle id="Oval-56-Copy-88" cx="45" cy="327" r="5"></circle>
                        <circle id="Oval-56-Copy-93" opacity="0.300000012" cx="5" cy="437" r="5"></circle>
                        <circle id="Oval-56-Copy-92" opacity="0.600000024" cx="25" cy="437" r="5"></circle>
                        <circle id="Oval-56-Copy-91" cx="45" cy="437" r="5"></circle>
                    </g>
                    <path d="M5.8375,400.7 L10.4375,400.7 C11.6875062,400.7 12.812495,400.858332 13.8125,401.175 C14.812505,401.491668 15.6708297,401.979163 16.3875,402.6375 C17.1041702,403.295837 17.6541647,404.133328 18.0375,405.15 C18.4208352,406.166672 18.6125,407.374993 18.6125,408.775 C18.6125,410.175007 18.4208352,411.391661 18.0375,412.425 C17.6541647,413.458338 17.1125035,414.312497 16.4125,414.9875 C15.7124965,415.662503 14.8750049,416.166665 13.9,416.5 C12.9249951,416.833335 11.837506,417 10.6375,417 L5.8375,417 L5.8375,400.7 Z M10.2125,414.025 C10.9125035,414.025 11.5458305,413.933334 12.1125,413.75 C12.6791695,413.566666 13.162498,413.270835 13.5625,412.8625 C13.962502,412.454165 14.2749989,411.91667 14.5,411.25 C14.7250011,410.58333 14.8375,409.758338 14.8375,408.775 C14.8375,407.808328 14.7250011,406.995837 14.5,406.3375 C14.2749989,405.679163 13.962502,405.154169 13.5625,404.7625 C13.162498,404.370831 12.6791695,404.091667 12.1125,403.925 C11.5458305,403.758332 10.9125035,403.675 10.2125,403.675 L9.5125,403.675 L9.5125,414.025 L10.2125,414.025 Z M28.3625,410.25 L27.9875,408.75 C27.7541655,407.933329 27.5291677,407.066671 27.3125,406.15 C27.0958322,405.233329 26.8791677,404.350004 26.6625,403.5 L26.5625,403.5 C26.362499,404.366671 26.1583344,405.254162 25.95,406.1625 C25.7416656,407.070838 25.5208345,407.933329 25.2875,408.75 L24.8875,410.25 L28.3625,410.25 Z M29.1125,413.125 L24.1375,413.125 L23.1375,417 L19.3875,417 L24.4875,400.7 L28.9125,400.7 L34.0125,417 L30.1125,417 L29.1125,413.125 Z M37.9625,403.8 L33.4875,403.8 L33.4875,400.7 L46.1375,400.7 L46.1375,403.8 L41.6625,403.8 L41.6625,417 L37.9625,417 L37.9625,403.8 Z M54.5875,410.25 L54.2125,408.75 C53.9791655,407.933329 53.7541677,407.066671 53.5375,406.15 C53.3208322,405.233329 53.1041677,404.350004 52.8875,403.5 L52.7875,403.5 C52.587499,404.366671 52.3833344,405.254162 52.175,406.1625 C51.9666656,407.070838 51.7458345,407.933329 51.5125,408.75 L51.1125,410.25 L54.5875,410.25 Z M55.3375,413.125 L50.3625,413.125 L49.3625,417 L45.6125,417 L50.7125,400.7 L55.1375,400.7 L60.2375,417 L56.3375,417 L55.3375,413.125 Z" id="DATA" fill="#F5CB90"></path>
                    <path d="M118.3375,400.7 L128.6125,400.7 L128.6125,403.8 L122.0125,403.8 L122.0125,407.575 L127.6625,407.575 L127.6625,410.675 L122.0125,410.675 L122.0125,417 L118.3375,417 L118.3375,400.7 Z M131.4375,400.7 L135.1125,400.7 L135.1125,417 L131.4375,417 L131.4375,400.7 Z M138.9625,400.7 L142.6375,400.7 L142.6375,413.9 L149.0875,413.9 L149.0875,417 L138.9625,417 L138.9625,400.7 Z M151.9125,400.7 L162.1125,400.7 L162.1125,403.8 L155.5875,403.8 L155.5875,407.075 L161.1375,407.075 L161.1375,410.15 L155.5875,410.15 L155.5875,413.9 L162.3625,413.9 L162.3625,417 L151.9125,417 L151.9125,400.7 Z M166.6625,412.425 C167.245836,412.925003 167.891663,413.333332 168.6,413.65 C169.308337,413.966668 170.004163,414.125 170.6875,414.125 C171.45417,414.125 172.024998,413.983335 172.4,413.7 C172.775002,413.416665 172.9625,413.033336 172.9625,412.55 C172.9625,412.299999 172.908334,412.083334 172.8,411.9 C172.691666,411.716666 172.533334,411.554167 172.325,411.4125 C172.116666,411.270833 171.866668,411.137501 171.575,411.0125 C171.283332,410.887499 170.962502,410.750001 170.6125,410.6 L168.4875,409.7 C168.070831,409.533333 167.666669,409.316668 167.275,409.05 C166.883331,408.783332 166.533335,408.470835 166.225,408.1125 C165.916665,407.754165 165.670834,407.337502 165.4875,406.8625 C165.304166,406.387498 165.2125,405.850003 165.2125,405.25 C165.2125,404.58333 165.354165,403.95417 165.6375,403.3625 C165.920835,402.77083 166.320831,402.254169 166.8375,401.8125 C167.354169,401.370831 167.966663,401.025001 168.675,400.775 C169.383337,400.524999 170.162496,400.4 171.0125,400.4 C171.962505,400.4 172.899995,400.583332 173.825,400.95 C174.750005,401.316669 175.562496,401.849997 176.2625,402.55 L174.3875,404.875 C173.854164,404.458331 173.320836,404.137501 172.7875,403.9125 C172.254164,403.687499 171.662503,403.575 171.0125,403.575 C170.379163,403.575 169.875002,403.704165 169.5,403.9625 C169.124998,404.220835 168.9375,404.583331 168.9375,405.05 C168.9375,405.300001 168.999999,405.512499 169.125,405.6875 C169.250001,405.862501 169.424999,406.020833 169.65,406.1625 C169.875001,406.304167 170.137498,406.437499 170.4375,406.5625 C170.737501,406.687501 171.062498,406.824999 171.4125,406.975 L173.5125,407.825 C174.512505,408.225002 175.299997,408.774997 175.875,409.475 C176.450003,410.175004 176.7375,411.099994 176.7375,412.25 C176.7375,412.933337 176.600001,413.579164 176.325,414.1875 C176.049999,414.795836 175.650003,415.329164 175.125,415.7875 C174.599997,416.245836 173.95417,416.612499 173.1875,416.8875 C172.420829,417.162501 171.554171,417.3 170.5875,417.3 C169.520828,417.3 168.458339,417.104169 167.4,416.7125 C166.341661,416.320831 165.395837,415.733337 164.5625,414.95 L166.6625,412.425 Z" id="FILES" fill="#FBE6C8"></path>
                    <path d="M215.975,400.7 L219.65,400.7 L219.65,417 L215.975,417 L215.975,400.7 Z M223.5,400.7 L227.275,400.7 L231.525,408.8 L233.125,412.4 L233.225,412.4 C233.141666,411.533329 233.045834,410.566672 232.9375,409.5 C232.829166,408.433328 232.775,407.416671 232.775,406.45 L232.775,400.7 L236.275,400.7 L236.275,417 L232.5,417 L228.25,408.875 L226.65,405.325 L226.55,405.325 C226.633334,406.225004 226.729166,407.191661 226.8375,408.225 C226.945834,409.258338 227,410.258328 227,411.225 L227,417 L223.5,417 L223.5,400.7 Z M240.125,400.7 L244.725,400.7 C245.975006,400.7 247.099995,400.858332 248.1,401.175 C249.100005,401.491668 249.95833,401.979163 250.675,402.6375 C251.39167,403.295837 251.941665,404.133328 252.325,405.15 C252.708335,406.166672 252.9,407.374993 252.9,408.775 C252.9,410.175007 252.708335,411.391661 252.325,412.425 C251.941665,413.458338 251.400004,414.312497 250.7,414.9875 C249.999997,415.662503 249.162505,416.166665 248.1875,416.5 C247.212495,416.833335 246.125006,417 244.925,417 L240.125,417 L240.125,400.7 Z M244.5,414.025 C245.200004,414.025 245.833331,413.933334 246.4,413.75 C246.96667,413.566666 247.449998,413.270835 247.85,412.8625 C248.250002,412.454165 248.562499,411.91667 248.7875,411.25 C249.012501,410.58333 249.125,409.758338 249.125,408.775 C249.125,407.808328 249.012501,406.995837 248.7875,406.3375 C248.562499,405.679163 248.250002,405.154169 247.85,404.7625 C247.449998,404.370831 246.96667,404.091667 246.4,403.925 C245.833331,403.758332 245.200004,403.675 244.5,403.675 L243.8,403.675 L243.8,414.025 L244.5,414.025 Z M256,400.7 L266.2,400.7 L266.2,403.8 L259.675,403.8 L259.675,407.075 L265.225,407.075 L265.225,410.15 L259.675,410.15 L259.675,413.9 L266.45,413.9 L266.45,417 L256,417 L256,400.7 Z M272.575,408.625 L268.325,400.7 L272.425,400.7 L273.85,403.775 C274.033334,404.158335 274.216666,404.562498 274.4,404.9875 C274.583334,405.412502 274.791666,405.883331 275.025,406.4 L275.125,406.4 C275.308334,405.883331 275.487499,405.412502 275.6625,404.9875 C275.837501,404.562498 276.008333,404.158335 276.175,403.775 L277.475,400.7 L281.4,400.7 L277.175,408.8 L281.675,417 L277.575,417 L275.95,413.675 C275.749999,413.241664 275.554168,412.812502 275.3625,412.3875 C275.170832,411.962498 274.958335,411.500002 274.725,411 L274.625,411 C274.441666,411.500002 274.258334,411.962498 274.075,412.3875 C273.891666,412.812502 273.708334,413.241664 273.525,413.675 L272,417 L268.05,417 L272.575,408.625 Z" id="INDEX" fill="#F5CB90"></path>
                    <path d="M319.05,400.7 L329.25,400.7 L329.25,403.8 L322.725,403.8 L322.725,407.075 L328.275,407.075 L328.275,410.15 L322.725,410.15 L322.725,413.9 L329.5,413.9 L329.5,417 L319.05,417 L319.05,400.7 Z M332.75,400.7 L336.65,400.7 L339.375,408.025 L340.35,410.875 L340.45,410.875 L341.425,408.025 L344.075,400.7 L347.95,400.7 L347.95,417 L344.525,417 L344.525,411.025 C344.525,410.624998 344.541666,410.183336 344.575,409.7 C344.608333,409.216664 344.65,408.729169 344.7,408.2375 C344.75,407.745831 344.8,407.262502 344.85,406.7875 C344.9,406.312498 344.95,405.875002 345,405.475 L344.9,405.475 L343.55,409.25 L341.05,415.575 L339.575,415.575 L337.075,409.25 L335.775,405.475 L335.675,405.475 C335.725,405.875002 335.775,406.312498 335.825,406.7875 C335.875,407.262502 335.920833,407.745831 335.9625,408.2375 C336.004167,408.729169 336.041666,409.216664 336.075,409.7 C336.108333,410.183336 336.125,410.624998 336.125,411.025 L336.125,417 L332.75,417 L332.75,400.7 Z M358.7,410.25 L358.325,408.75 C358.091665,407.933329 357.866668,407.066671 357.65,406.15 C357.433332,405.233329 357.216668,404.350004 357,403.5 L356.9,403.5 C356.699999,404.366671 356.495834,405.254162 356.2875,406.1625 C356.079166,407.070838 355.858334,407.933329 355.625,408.75 L355.225,410.25 L358.7,410.25 Z M359.45,413.125 L354.475,413.125 L353.475,417 L349.725,417 L354.825,400.7 L359.25,400.7 L364.35,417 L360.45,417 L359.45,413.125 Z M366.125,400.7 L369.8,400.7 L369.8,417 L366.125,417 L366.125,400.7 Z M373.65,400.7 L377.325,400.7 L377.325,413.9 L383.775,413.9 L383.775,417 L373.65,417 L373.65,400.7 Z M386.95,412.425 C387.533336,412.925003 388.179163,413.333332 388.8875,413.65 C389.595837,413.966668 390.291663,414.125 390.975,414.125 C391.74167,414.125 392.312498,413.983335 392.6875,413.7 C393.062502,413.416665 393.25,413.033336 393.25,412.55 C393.25,412.299999 393.195834,412.083334 393.0875,411.9 C392.979166,411.716666 392.820834,411.554167 392.6125,411.4125 C392.404166,411.270833 392.154168,411.137501 391.8625,411.0125 C391.570832,410.887499 391.250002,410.750001 390.9,410.6 L388.775,409.7 C388.358331,409.533333 387.954169,409.316668 387.5625,409.05 C387.170831,408.783332 386.820835,408.470835 386.5125,408.1125 C386.204165,407.754165 385.958334,407.337502 385.775,406.8625 C385.591666,406.387498 385.5,405.850003 385.5,405.25 C385.5,404.58333 385.641665,403.95417 385.925,403.3625 C386.208335,402.77083 386.608331,402.254169 387.125,401.8125 C387.641669,401.370831 388.254163,401.025001 388.9625,400.775 C389.670837,400.524999 390.449996,400.4 391.3,400.4 C392.250005,400.4 393.187495,400.583332 394.1125,400.95 C395.037505,401.316669 395.849996,401.849997 396.55,402.55 L394.675,404.875 C394.141664,404.458331 393.608336,404.137501 393.075,403.9125 C392.541664,403.687499 391.950003,403.575 391.3,403.575 C390.666663,403.575 390.162502,403.704165 389.7875,403.9625 C389.412498,404.220835 389.225,404.583331 389.225,405.05 C389.225,405.300001 389.287499,405.512499 389.4125,405.6875 C389.537501,405.862501 389.712499,406.020833 389.9375,406.1625 C390.162501,406.304167 390.424998,406.437499 390.725,406.5625 C391.025001,406.687501 391.349998,406.824999 391.7,406.975 L393.8,407.825 C394.800005,408.225002 395.587497,408.774997 396.1625,409.475 C396.737503,410.175004 397.025,411.099994 397.025,412.25 C397.025,412.933337 396.887501,413.579164 396.6125,414.1875 C396.337499,414.795836 395.937503,415.329164 395.4125,415.7875 C394.887497,416.245836 394.24167,416.612499 393.475,416.8875 C392.708329,417.162501 391.841671,417.3 390.875,417.3 C389.808328,417.3 388.745839,417.104169 387.6875,416.7125 C386.629161,416.320831 385.683337,415.733337 384.85,414.95 L386.95,412.425 Z" id="EMAILS" fill="#EFAA47"></path>
                    <path d="M446.6875,403.8 L442.2125,403.8 L442.2125,400.7 L454.8625,400.7 L454.8625,403.8 L450.3875,403.8 L450.3875,417 L446.6875,417 L446.6875,403.8 Z M463.3125,410.25 L462.9375,408.75 C462.704165,407.933329 462.479168,407.066671 462.2625,406.15 C462.045832,405.233329 461.829168,404.350004 461.6125,403.5 L461.5125,403.5 C461.312499,404.366671 461.108334,405.254162 460.9,406.1625 C460.691666,407.070838 460.470834,407.933329 460.2375,408.75 L459.8375,410.25 L463.3125,410.25 Z M464.0625,413.125 L459.0875,413.125 L458.0875,417 L454.3375,417 L459.4375,400.7 L463.8625,400.7 L468.9625,417 L465.0625,417 L464.0625,413.125 Z M469.7125,408.95 C469.7125,407.599993 469.924998,406.395839 470.35,405.3375 C470.775002,404.279161 471.349996,403.383337 472.075,402.65 C472.800004,401.916663 473.649995,401.358335 474.625,400.975 C475.600005,400.591665 476.637494,400.4 477.7375,400.4 C478.887506,400.4 479.883329,400.616665 480.725,401.05 C481.566671,401.483336 482.254164,401.974997 482.7875,402.525 L480.7625,404.8 C480.362498,404.416665 479.941669,404.116668 479.5,403.9 C479.058331,403.683332 478.487503,403.575 477.7875,403.575 C477.154163,403.575 476.575003,403.695832 476.05,403.9375 C475.524997,404.179168 475.070835,404.524998 474.6875,404.975 C474.304165,405.425002 474.008334,405.974997 473.8,406.625 C473.591666,407.275003 473.4875,408.008329 473.4875,408.825 C473.4875,410.508342 473.866663,411.812495 474.625,412.7375 C475.383337,413.662505 476.529159,414.125 478.0625,414.125 C478.395835,414.125 478.720832,414.083334 479.0375,414 C479.354168,413.916666 479.612499,413.791668 479.8125,413.625 L479.8125,410.825 L477.1125,410.825 L477.1125,407.825 L483.0625,407.825 L483.0625,415.325 C482.479164,415.875003 481.712505,416.341665 480.7625,416.725 C479.812495,417.108335 478.762506,417.3 477.6125,417.3 C476.512494,417.3 475.483338,417.120835 474.525,416.7625 C473.566662,416.404165 472.72917,415.875004 472.0125,415.175 C471.29583,414.474997 470.733335,413.604172 470.325,412.5625 C469.916665,411.520828 469.7125,410.316674 469.7125,408.95 L469.7125,408.95 Z M487.4875,412.425 C488.070836,412.925003 488.716663,413.333332 489.425,413.65 C490.133337,413.966668 490.829163,414.125 491.5125,414.125 C492.27917,414.125 492.849998,413.983335 493.225,413.7 C493.600002,413.416665 493.7875,413.033336 493.7875,412.55 C493.7875,412.299999 493.733334,412.083334 493.625,411.9 C493.516666,411.716666 493.358334,411.554167 493.15,411.4125 C492.941666,411.270833 492.691668,411.137501 492.4,411.0125 C492.108332,410.887499 491.787502,410.750001 491.4375,410.6 L489.3125,409.7 C488.895831,409.533333 488.491669,409.316668 488.1,409.05 C487.708331,408.783332 487.358335,408.470835 487.05,408.1125 C486.741665,407.754165 486.495834,407.337502 486.3125,406.8625 C486.129166,406.387498 486.0375,405.850003 486.0375,405.25 C486.0375,404.58333 486.179165,403.95417 486.4625,403.3625 C486.745835,402.77083 487.145831,402.254169 487.6625,401.8125 C488.179169,401.370831 488.791663,401.025001 489.5,400.775 C490.208337,400.524999 490.987496,400.4 491.8375,400.4 C492.787505,400.4 493.724995,400.583332 494.65,400.95 C495.575005,401.316669 496.387496,401.849997 497.0875,402.55 L495.2125,404.875 C494.679164,404.458331 494.145836,404.137501 493.6125,403.9125 C493.079164,403.687499 492.487503,403.575 491.8375,403.575 C491.204163,403.575 490.700002,403.704165 490.325,403.9625 C489.949998,404.220835 489.7625,404.583331 489.7625,405.05 C489.7625,405.300001 489.824999,405.512499 489.95,405.6875 C490.075001,405.862501 490.249999,406.020833 490.475,406.1625 C490.700001,406.304167 490.962498,406.437499 491.2625,406.5625 C491.562501,406.687501 491.887498,406.824999 492.2375,406.975 L494.3375,407.825 C495.337505,408.225002 496.124997,408.774997 496.7,409.475 C497.275003,410.175004 497.5625,411.099994 497.5625,412.25 C497.5625,412.933337 497.425001,413.579164 497.15,414.1875 C496.874999,414.795836 496.475003,415.329164 495.95,415.7875 C495.424997,416.245836 494.77917,416.612499 494.0125,416.8875 C493.245829,417.162501 492.379171,417.3 491.4125,417.3 C490.345828,417.3 489.283339,417.104169 488.225,416.7125 C487.166661,416.320831 486.220837,415.733337 485.3875,414.95 L487.4875,412.425 Z" id="TAGS" fill="#FBE6C8"></path>
                </g>
            </g>
        </g>
    </g>
</svg>