<?xml version="1.0" encoding="UTF-8" standalone="no"?>
<svg width="860px" height="282px" viewBox="0 0 860 282" version="1.1" xmlns="http://www.w3.org/2000/svg" xmlns:xlink="http://www.w3.org/1999/xlink" xmlns:sketch="http://www.bohemiancoding.com/sketch/ns">
    <!-- Generator: Sketch 3.4.4 (17248) - http://www.bohemiancoding.com/sketch -->
    <title>Data</title>
    <desc>Created with Sketch.</desc>
    <defs>
        <filter x="-50%" y="-50%" width="200%" height="200%" filterUnits="objectBoundingBox" id="filter-1">
            <feOffset dx="0" dy="0" in="SourceAlpha" result="shadowOffsetOuter1"></feOffset>
            <feGaussianBlur stdDeviation="5" in="shadowOffsetOuter1" result="shadowBlurOuter1"></feGaussianBlur>
            <feColorMatrix values="0 0 0 0 0   0 0 0 0 0   0 0 0 0 0  0 0 0 0.21 0" in="shadowBlurOuter1" type="matrix" result="shadowMatrixOuter1"></feColorMatrix>
            <feMerge>
                <feMergeNode in="shadowMatrixOuter1"></feMergeNode>
                <feMergeNode in="SourceGraphic"></feMergeNode>
            </feMerge>
        </filter>
        <filter x="-50%" y="-50%" width="200%" height="200%" filterUnits="objectBoundingBox" id="filter-2">
            <feOffset dx="0" dy="0" in="SourceAlpha" result="shadowOffsetOuter1"></feOffset>
            <feGaussianBlur stdDeviation="5" in="shadowOffsetOuter1" result="shadowBlurOuter1"></feGaussianBlur>
            <feColorMatrix values="0 0 0 0 0   0 0 0 0 0   0 0 0 0 0  0 0 0 0.21 0" in="shadowBlurOuter1" type="matrix" result="shadowMatrixOuter1"></feColorMatrix>
            <feMerge>
                <feMergeNode in="shadowMatrixOuter1"></feMergeNode>
                <feMergeNode in="SourceGraphic"></feMergeNode>
            </feMerge>
        </filter>
        <filter x="-50%" y="-50%" width="200%" height="200%" filterUnits="objectBoundingBox" id="filter-3">
            <feOffset dx="0" dy="0" in="SourceAlpha" result="shadowOffsetOuter1"></feOffset>
            <feGaussianBlur stdDeviation="5" in="shadowOffsetOuter1" result="shadowBlurOuter1"></feGaussianBlur>
            <feColorMatrix values="0 0 0 0 0   0 0 0 0 0   0 0 0 0 0  0 0 0 0.21 0" in="shadowBlurOuter1" type="matrix" result="shadowMatrixOuter1"></feColorMatrix>
            <feMerge>
                <feMergeNode in="shadowMatrixOuter1"></feMergeNode>
                <feMergeNode in="SourceGraphic"></feMergeNode>
            </feMerge>
        </filter>
        <filter x="-50%" y="-50%" width="200%" height="200%" filterUnits="objectBoundingBox" id="filter-4">
            <feOffset dx="0" dy="0" in="SourceAlpha" result="shadowOffsetOuter1"></feOffset>
            <feGaussianBlur stdDeviation="5" in="shadowOffsetOuter1" result="shadowBlurOuter1"></feGaussianBlur>
            <feColorMatrix values="0 0 0 0 0   0 0 0 0 0   0 0 0 0 0  0 0 0 0.21 0" in="shadowBlurOuter1" type="matrix" result="shadowMatrixOuter1"></feColorMatrix>
            <feMerge>
                <feMergeNode in="shadowMatrixOuter1"></feMergeNode>
                <feMergeNode in="SourceGraphic"></feMergeNode>
            </feMerge>
        </filter>
        <filter x="-50%" y="-50%" width="200%" height="200%" filterUnits="objectBoundingBox" id="filter-5">
            <feOffset dx="0" dy="0" in="SourceAlpha" result="shadowOffsetOuter1"></feOffset>
            <feGaussianBlur stdDeviation="5" in="shadowOffsetOuter1" result="shadowBlurOuter1"></feGaussianBlur>
            <feColorMatrix values="0 0 0 0 0   0 0 0 0 0   0 0 0 0 0  0 0 0 0.21 0" in="shadowBlurOuter1" type="matrix" result="shadowMatrixOuter1"></feColorMatrix>
            <feMerge>
                <feMergeNode in="shadowMatrixOuter1"></feMergeNode>
                <feMergeNode in="SourceGraphic"></feMergeNode>
            </feMerge>
        </filter>
        <filter x="-50%" y="-50%" width="200%" height="200%" filterUnits="objectBoundingBox" id="filter-6">
            <feOffset dx="0" dy="0" in="SourceAlpha" result="shadowOffsetOuter1"></feOffset>
            <feGaussianBlur stdDeviation="5" in="shadowOffsetOuter1" result="shadowBlurOuter1"></feGaussianBlur>
            <feColorMatrix values="0 0 0 0 0   0 0 0 0 0   0 0 0 0 0  0 0 0 0.21 0" in="shadowBlurOuter1" type="matrix" result="shadowMatrixOuter1"></feColorMatrix>
            <feMerge>
                <feMergeNode in="shadowMatrixOuter1"></feMergeNode>
                <feMergeNode in="SourceGraphic"></feMergeNode>
            </feMerge>
        </filter>
        <path id="path-7" d="M2.84217094e-14,0.0568807298 L43.1059274,0.0568807298 L43.1059274,48.5431635 L2.84217094e-14,48.5431635"></path>
        <path id="path-9" d="M-5.68434189e-13,0.0568807298 L43.1059274,0.0568807298 L43.1059274,48.5431635 L-5.68434189e-13,48.5431635"></path>
        <path id="path-11" d="M-2.84217094e-13,0.0568807298 L43.1059274,0.0568807298 L43.1059274,48.5431635 L-2.84217094e-13,48.5431635"></path>
        <path id="path-13" d="M-4.54747351e-13,0.0568807298 L43.1059274,0.0568807298 L43.1059274,48.5431635 L-4.54747351e-13,48.5431635"></path>
    </defs>
    <g id="Design" stroke="none" stroke-width="1" fill="none" fill-rule="evenodd" sketch:type="MSPage">
        <g id="5a-architecture" sketch:type="MSArtboardGroup" transform="translate(-281.000000, -3864.000000)">
            <g id="5" sketch:type="MSLayerGroup" transform="translate(308.000000, 3633.000000)">
                <g id="Data" transform="translate(0.000000, 206.000000)">
                    <text id="DATA-SYSTEM" sketch:type="MSTextLayer" font-family="Source Sans Pro" font-size="80" font-weight="bold" sketch:alignment="middle" fill="#5AA885">
                        <tspan x="180.38" y="79">DATA SYSTEM</tspan>
                    </text>
                    <g id="Devices" transform="translate(0.000000, 127.000000)" sketch:type="MSShapeGroup">
                        <g id="Laptop" transform="translate(0.000000, 0.977215)">
                            <path d="M28.2286938,0 L191.327813,0 C194.790533,0 197.600857,2.80133478 197.600857,6.25996598 L197.600857,122.069337 L21.9556507,122.069337 L21.9556507,6.25996598 C21.9556507,2.80133478 24.765974,0 28.2286938,0 L28.2286938,0 Z" id="Shape-Copy-2" fill="#FFFFFF" filter="url(#filter-1)"></path>
                            <g id="Illu" transform="translate(0.000000, 0.000000)">
                                <path d="M226.362799,120.762311 C226.362799,125.945563 222.15045,130.15226 216.953234,130.15226 L16.2158562,130.15226 C11.01864,130.15226 6.80629161,125.945563 6.80629161,120.762311 L226.362799,120.762311 Z" id="Shape-Copy-4" fill="#EEEEEE"></path>
                                <path d="M35.0349854,0 L198.134105,0 C201.596825,0 204.407148,2.80133478 204.407148,6.25996598 L204.407148,122.069337 L28.7619423,122.069337 L28.7619423,6.25996598 C28.7619423,2.80133478 31.5722656,0 35.0349854,0 L35.0349854,0 Z" id="Shape-Copy-3" fill="#EEEEEE"></path>
                                <path d="M219.556507,120.762311 C219.556507,125.945563 215.344159,130.15226 210.146943,130.15226 L9.4095646,130.15226 C4.21234842,130.15226 1.23634436e-12,125.945563 1.23634436e-12,120.762311 L219.556507,120.762311 Z" id="Shape" fill="#FFFFFF"></path>
                                <path d="M95.6639067,117.460351 L123.892601,117.460351 C126.48964,117.460351 128.597383,119.563699 128.597383,122.155325 C128.597383,124.746951 126.48964,126.8503 123.892601,126.8503 L95.6639067,126.8503 C93.0668669,126.8503 90.9591244,124.746951 90.9591244,122.155325 C90.9591244,119.563699 93.0668669,117.460351 95.6639067,117.460351 L95.6639067,117.460351 Z" id="Shape" fill="#E5E7EB"></path>
                                <path d="M28.2286938,0 L191.327813,0 C194.790533,0 197.600857,2.80133478 197.600857,6.25996598 L197.600857,122.069337 L21.9556507,122.069337 L21.9556507,6.25996598 C21.9556507,2.80133478 24.765974,0 28.2286938,0 L28.2286938,0 Z" id="Shape" fill="#FFFFFF"></path>
                                <path d="M31.3652153,9.38994898 L188.191292,9.38994898 L188.191292,112.679388 L31.3652153,112.679388 L31.3652153,9.38994898 L31.3652153,9.38994898 Z" id="Shape"></path>
                            </g>
                        </g>
                        <g id="Data" transform="translate(161.989740, 15.927840)">
                            <path d="M90.8201906,104.4741 C90.6052627,108.12649 74.4240472,115.233965 45.5260136,115.233965 C16.62798,115.233965 0.446764472,108.12649 0.231836568,104.4741 L0.195764752,103.962012 L0.195764752,12.326936 C2.78842653,13.863199 6.15963834,15.2337866 10.3003822,16.4311681 C19.752701,19.1633064 32.2621062,20.6694466 45.5275166,20.6694466 C58.788418,20.6694466 71.2978232,19.1633064 80.751645,16.4311681 C84.8938918,15.2322805 88.2651036,13.8616929 90.8592684,12.3254299 L90.8592684,103.841521 L90.8201906,104.4741 Z" id="Path-Copy" fill="#FFFFFF" filter="url(#filter-2)"></path>
                            <g id="Illu">
                                <path d="M45.5260136,0.293834261 C74.856909,0.293834261 90.8562624,7.43293882 90.8562624,11.1018963 C90.8562624,14.77236 74.855406,21.915983 45.5260136,21.915983 C16.1966212,21.915983 0.195764752,14.77236 0.195764752,11.1018963 C0.195764752,7.43293882 16.1951182,0.293834261 45.5260136,0.293834261 L45.5260136,0.293834261 Z" id="Path" fill="#EEEEEE"></path>
                                <path d="M90.8201906,104.4741 C90.6052627,108.12649 74.4240472,115.233965 45.5260136,115.233965 C16.62798,115.233965 0.446764472,108.12649 0.231836568,104.4741 L0.195764752,103.962012 L0.195764752,12.326936 C2.78842653,13.863199 6.15963834,15.2337866 10.3003822,16.4311681 C19.752701,19.1633064 32.2621062,20.6694466 45.5275166,20.6694466 C58.788418,20.6694466 71.2978232,19.1633064 80.751645,16.4311681 C84.8938918,15.2322805 88.2651036,13.8616929 90.8592684,12.3254299 L90.8592684,103.841521 L90.8201906,104.4741 Z" id="Path" fill="#FFFFFF"></path>
                                <path d="M45.5260136,36.7492732 C74.856909,36.7492732 90.8562624,43.8883778 90.8562624,47.5573353 C90.8562624,51.227799 74.855406,58.371422 45.5260136,58.371422 C16.1966212,58.371422 0.195764752,51.227799 0.195764752,47.5573353 C0.195764752,43.8883778 16.1951182,36.7492732 45.5260136,36.7492732 L45.5260136,36.7492732 Z" id="Path-Copy-2" fill="#F9F9F9"></path>
                                <path d="M45.5260136,70.6374278 C74.856909,70.6374278 90.8562624,77.7765323 90.8562624,81.4454898 C90.8562624,85.1159535 74.855406,92.2595765 45.5260136,92.2595765 C16.1966212,92.2595765 0.195764752,85.1159535 0.195764752,81.4454898 C0.195764752,77.7765323 16.1951182,70.6374278 45.5260136,70.6374278 L45.5260136,70.6374278 Z" id="Path-Copy-3" fill="#F9F9F9"></path>
                            </g>
                        </g>
                        <g id="Phone" transform="translate(378.429814, 14.568629)">
                            <rect id="Rectangle-125" fill="#FFFFFF" filter="url(#filter-3)" x="2.72251665" y="0" width="63.9791412" height="116.88695" rx="4"></rect>
                            <g id="Illu">
                                <rect id="Rectangle-125-Copy-2" fill="#EEEEEE" x="2.72251665" y="0" width="63.9791412" height="116.88695" rx="4"></rect>
                                <rect id="Rectangle-125-Copy" fill="#FFFFFF" x="0" y="0" width="63.9791412" height="116.88695" rx="4"></rect>
                                <ellipse id="Oval-243" fill="#ECECEC" cx="32.6701997" cy="103.295444" rx="5.44503329" ry="5.43660233"></ellipse>
                            </g>
                        </g>
                        <g id="Tablet" transform="translate(714.434039, 79.601956) rotate(-270.000000) translate(-714.434039, -79.601956) translate(662.934039, -5.898044)">
                            <rect id="Rectangle-125" fill="#FFFFFF" filter="url(#filter-4)" x="0.354337793" y="-1.8189894e-12" width="102.485392" height="166.689116" rx="4"></rect>
                            <g id="Illu" transform="translate(-0.000000, -0.000000)">
                                <rect id="Rectangle-125-Copy-2" fill="#EEEEEE" x="0.354337793" y="-7.95807864e-13" width="102.485392" height="166.689116" rx="4"></rect>
                                <rect id="Rectangle-125-Copy" fill="#FFFFFF" x="1.13686838e-13" y="4.00053879" width="102.485392" height="166.689116" rx="4"></rect>
                                <ellipse id="Oval-243" fill="#ECECEC" cx="56.0943983" cy="153.353987" rx="5.34232365" ry="5.33405172"></ellipse>
                            </g>
                        </g>
                        <g id="Data-Copy" transform="translate(427.435113, 63.498135)">
                            <path d="M52.8654841,61.4553528 C52.7403768,63.6038174 43.3214603,67.7846855 26.5002169,67.7846855 C9.67897341,67.7846855 0.260056931,63.6038174 0.134949644,61.4553528 L0.113952617,61.1541247 L0.113952617,7.25113883 C1.62311395,8.15482295 3.58546112,8.96105094 5.99574488,9.66539298 C11.4978409,11.2725332 18.779435,12.158498 26.5010917,12.158498 C34.2201239,12.158498 41.501718,11.2725332 47.0046889,9.66539298 C49.4158475,8.96016498 51.3781947,8.15393699 52.8882309,7.25025287 L52.8882309,61.0832475 L52.8654841,61.4553528 Z" id="Path-Copy" fill="#FFFFFF" filter="url(#filter-5)"></path>
                            <g id="Illu">
                                <path d="M26.5002169,0.172843683 C43.5734247,0.172843683 52.8864811,4.37231695 52.8864811,6.53052726 C52.8864811,8.68962354 43.5725498,12.8917547 26.5002169,12.8917547 C9.42788396,12.8917547 0.113952617,8.68962354 0.113952617,6.53052726 C0.113952617,4.37231695 9.42700908,0.172843683 26.5002169,0.172843683 L26.5002169,0.172843683 Z" id="Path" fill="#EEEEEE"></path>
                                <path d="M52.8654841,61.4553528 C52.7403768,63.6038174 43.3214603,67.7846855 26.5002169,67.7846855 C9.67897341,67.7846855 0.260056931,63.6038174 0.134949644,61.4553528 L0.113952617,61.1541247 L0.113952617,7.25113883 C1.62311395,8.15482295 3.58546112,8.96105094 5.99574488,9.66539298 C11.4978409,11.2725332 18.779435,12.158498 26.5010917,12.158498 C34.2201239,12.158498 41.501718,11.2725332 47.0046889,9.66539298 C49.4158475,8.96016498 51.3781947,8.15393699 52.8882309,7.25025287 L52.8882309,61.0832475 L52.8654841,61.4553528 Z" id="Path" fill="#FFFFFF"></path>
                                <path d="M26.5002169,21.6172195 C43.5734247,21.6172195 52.8864811,25.8166928 52.8864811,27.9749031 C52.8864811,30.1339994 43.5725498,34.3361306 26.5002169,34.3361306 C9.42788396,34.3361306 0.113952617,30.1339994 0.113952617,27.9749031 C0.113952617,25.8166928 9.42700908,21.6172195 26.5002169,21.6172195 L26.5002169,21.6172195 Z" id="Path-Copy-2" fill="#F9F9F9"></path>
                                <path d="M26.5002169,41.5514281 C43.5734247,41.5514281 52.8864811,45.7509014 52.8864811,47.9091117 C52.8864811,50.0682079 43.5725498,54.2703391 26.5002169,54.2703391 C9.42788396,54.2703391 0.113952617,50.0682079 0.113952617,47.9091117 C0.113952617,45.7509014 9.42700908,41.5514281 26.5002169,41.5514281 L26.5002169,41.5514281 Z" id="Path-Copy-3" fill="#F9F9F9"></path>
                            </g>
                        </g>
                        <g id="Data-Copy-2" transform="translate(754.137111, 41.751734)">
                            <path d="M69.1317869,81.1210656 C68.968185,83.957039 56.6511404,89.4757848 34.6541297,89.4757848 C12.6571191,89.4757848 0.340074449,83.957039 0.176472611,81.1210656 L0.14901496,80.7234446 L0.14901496,9.57150326 C2.12253363,10.7643663 4.68867993,11.8285872 7.84058945,12.7583187 C15.0356381,14.8797438 24.5577227,16.0492174 34.6552738,16.0492174 C44.7493928,16.0492174 54.2714773,14.8797438 61.46767,12.7583187 C64.6207236,11.8274178 67.1868699,10.7631968 69.1615327,9.57033379 L69.1615327,80.6298867 L69.1317869,81.1210656 Z" id="Path-Copy" fill="#FFFFFF" filter="url(#filter-6)"></path>
                            <g id="Illu">
                                <path d="M34.6541297,0.228153662 C56.9806322,0.228153662 69.1592445,5.77145837 69.1592445,8.62029599 C69.1592445,11.4703031 56.9794882,17.0171162 34.6541297,17.0171162 C12.3287713,17.0171162 0.14901496,11.4703031 0.14901496,8.62029599 C0.14901496,5.77145837 12.3276273,0.228153662 34.6541297,0.228153662 L34.6541297,0.228153662 Z" id="Path" fill="#EEEEEE"></path>
                                <path d="M69.1317869,81.1210656 C68.968185,83.957039 56.6511404,89.4757848 34.6541297,89.4757848 C12.6571191,89.4757848 0.340074449,83.957039 0.176472611,81.1210656 L0.14901496,80.7234446 L0.14901496,9.57150326 C2.12253363,10.7643663 4.68867993,11.8285872 7.84058945,12.7583187 C15.0356381,14.8797438 24.5577227,16.0492174 34.6552738,16.0492174 C44.7493928,16.0492174 54.2714773,14.8797438 61.46767,12.7583187 C64.6207236,11.8274178 67.1868699,10.7631968 69.1615327,9.57033379 L69.1615327,80.6298867 L69.1317869,81.1210656 Z" id="Path" fill="#FFFFFF"></path>
                                <path d="M34.6541297,28.5347298 C56.9806322,28.5347298 69.1592445,34.0780345 69.1592445,36.9268721 C69.1592445,39.7768792 56.9794882,45.3236923 34.6541297,45.3236923 C12.3287713,45.3236923 0.14901496,39.7768792 0.14901496,36.9268721 C0.14901496,34.0780345 12.3276273,28.5347298 34.6541297,28.5347298 L34.6541297,28.5347298 Z" id="Path-Copy-2" fill="#F9F9F9"></path>
                                <path d="M34.6541297,54.8478851 C56.9806322,54.8478851 69.1592445,60.3911898 69.1592445,63.2400274 C69.1592445,66.0900345 56.9794882,71.6368476 34.6541297,71.6368476 C12.3287713,71.6368476 0.14901496,66.0900345 0.14901496,63.2400274 C0.14901496,60.3911898 12.3276273,54.8478851 34.6541297,54.8478851 L34.6541297,54.8478851 Z" id="Path-Copy-3" fill="#F9F9F9"></path>
                            </g>
                        </g>
                    </g>
                    <text id="MOBILE" sketch:type="MSTextLayer" font-family="Source Sans Pro" font-size="25" font-weight="bold" sketch:alignment="middle" fill="#5AA885">
                        <tspan x="371.775" y="298">MOBILE</tspan>
                    </text>
                    <text id="LAPTOP" opacity="0.5" sketch:type="MSTextLayer" font-family="Source Sans Pro" font-size="25" font-weight="bold" sketch:alignment="middle" fill="#5AA885">
                        <tspan x="72.3125" y="298">LAPTOP</tspan>
                    </text>
                    <text id="TABLET" opacity="0.700000048" sketch:type="MSTextLayer" font-family="Source Sans Pro" font-size="25" font-weight="bold" sketch:alignment="middle" fill="#5AA885">
                        <tspan x="672.55" y="298">TABLET</tspan>
                    </text>
                    <g id="Page-1" transform="translate(666.707831, 107.974669) rotate(99.000000) translate(-666.707831, -107.974669) translate(644.707831, 83.474669)">
                        <mask id="mask-8" sketch:name="Clip 2" fill="white">
                            <use xlink:href="#path-7"></use>
                        </mask>
                        <g id="Clip-2"></g>
                        <path d="M2.04213836,26.4507437 C2.98044722,26.4507437 3.75316125,25.8441394 3.97392345,24.961747 L3.97392345,24.9066264 L3.97392345,24.8515058 C4.02909081,24.6309309 4.13951827,24.1345678 4.19468564,24.0243266 C4.36028046,23.1970548 4.58104265,22.4250888 4.9122323,21.6530301 C5.46409142,20.1640334 6.29206554,18.7853705 7.17511431,17.572162 L7.34070914,17.3515871 L7.50630396,17.1310121 C7.6166387,16.9655577 7.72706616,16.8552239 7.83749361,16.6897696 C8.11342317,16.414074 8.33418536,16.1383785 8.61011493,15.9178036 C9.1068994,15.4214405 9.65885124,14.9250774 10.2107104,14.5391407 C11.314614,13.7118688 12.4185177,13.050144 13.4671613,12.6089941 C14.5158049,12.1677516 15.5645412,11.8369355 16.44759,11.6163605 C16.6683522,11.5611473 16.8891144,11.5060267 17.1098766,11.5060267 C17.3306388,11.4509061 17.5514937,11.4509061 17.7169958,11.3957856 C17.9378507,11.3957856 18.1033528,11.3405723 18.2689476,11.3405723 L18.5449699,11.3405723 L18.8208995,11.3405723 L19.2624238,11.3405723 L19.6487809,11.3405723 L19.9799705,11.3405723 L20.090398,11.3405723 L20.090398,14.1531114 C20.090398,15.0905317 21.1942089,15.6420154 21.9117556,15.0354111 L22.7948044,14.4288069 C25.1681138,12.7744485 27.3759212,10.8994224 29.4732084,8.8590347 C30.190755,8.25243044 30.190755,7.14946306 29.4732084,6.5428588 L29.418041,6.48773822 C27.3759212,4.50247106 25.1681138,2.62744505 22.7948044,0.973086622 L21.8565882,0.31126914 C21.1390416,-0.295335125 20.0351379,0.256148563 20.0351379,1.19366157 L20.0351379,4.00610795 L19.9248031,4.00610795 L19.7040409,4.00610795 C19.5384461,4.00610795 19.3176839,4.06122852 19.1520891,4.06122852 C18.9313269,4.06122852 18.7105647,4.11644174 18.4898025,4.17156232 C18.2689476,4.22668289 18.0481854,4.22668289 17.8274232,4.28180347 C17.7170885,4.28180347 17.606661,4.33701669 17.4410662,4.33701669 C17.3307315,4.33701669 17.1651367,4.39213726 17.0547092,4.44725784 C16.7787796,4.50247106 16.5028501,4.55759163 16.2268278,4.66783279 C15.9508982,4.723046 15.674876,4.83328716 15.343779,4.94362095 C15.0677568,5.0538621 14.7365671,5.1641959 14.4054702,5.27443705 C13.1359717,5.71567959 11.7561384,6.32228385 10.3763052,7.20458364 C8.99647194,8.03176285 7.56147133,9.13473023 6.29206554,10.403152 C5.62968625,11.0648768 5.02256704,11.7266017 4.41544783,12.4986603 C4.13951827,12.8846896 3.86349599,13.2707189 3.58756643,13.6567482 C3.47713897,13.8773232 3.31163687,14.0427776 3.20120941,14.2633525 L2.98044722,14.5942613 L2.8148524,14.9250774 C1.82137617,16.634649 1.04866214,18.5647956 0.551970384,20.5500627 C0.331208192,21.5426963 0.165613368,22.5353299 0.0551859122,23.5830841 C0.0551859122,23.8588722 1.85436531e-05,24.0794472 1.85436531e-05,24.3551427 L1.85436531e-05,24.5757177 C0.0551859122,25.5684439 0.938234682,26.4507437 2.04213836,26.4507437" id="Fill-1" fill="#5AA885" sketch:type="MSShapeGroup" mask="url(#mask-8)"></path>
                    </g>
                    <g id="Page-1" transform="translate(562.707831, 252.974669) rotate(219.000000) translate(-562.707831, -252.974669) translate(540.707831, 228.474669)">
                        <mask id="mask-10" sketch:name="Clip 2" fill="white">
                            <use xlink:href="#path-9"></use>
                        </mask>
                        <g id="Clip-2"></g>
                        <path d="M2.04213836,26.4507437 C2.98044722,26.4507437 3.75316125,25.8441394 3.97392345,24.961747 L3.97392345,24.9066264 L3.97392345,24.8515058 C4.02909081,24.6309309 4.13951827,24.1345678 4.19468564,24.0243266 C4.36028046,23.1970548 4.58104265,22.4250888 4.9122323,21.6530301 C5.46409142,20.1640334 6.29206554,18.7853705 7.17511431,17.572162 L7.34070914,17.3515871 L7.50630396,17.1310121 C7.6166387,16.9655577 7.72706616,16.8552239 7.83749361,16.6897696 C8.11342317,16.414074 8.33418536,16.1383785 8.61011493,15.9178036 C9.1068994,15.4214405 9.65885124,14.9250774 10.2107104,14.5391407 C11.314614,13.7118688 12.4185177,13.050144 13.4671613,12.6089941 C14.5158049,12.1677516 15.5645412,11.8369355 16.44759,11.6163605 C16.6683522,11.5611473 16.8891144,11.5060267 17.1098766,11.5060267 C17.3306388,11.4509061 17.5514937,11.4509061 17.7169958,11.3957856 C17.9378507,11.3957856 18.1033528,11.3405723 18.2689476,11.3405723 L18.5449699,11.3405723 L18.8208995,11.3405723 L19.2624238,11.3405723 L19.6487809,11.3405723 L19.9799705,11.3405723 L20.090398,11.3405723 L20.090398,14.1531114 C20.090398,15.0905317 21.1942089,15.6420154 21.9117556,15.0354111 L22.7948044,14.4288069 C25.1681138,12.7744485 27.3759212,10.8994224 29.4732084,8.8590347 C30.190755,8.25243044 30.190755,7.14946306 29.4732084,6.5428588 L29.418041,6.48773822 C27.3759212,4.50247106 25.1681138,2.62744505 22.7948044,0.973086622 L21.8565882,0.31126914 C21.1390416,-0.295335125 20.0351379,0.256148563 20.0351379,1.19366157 L20.0351379,4.00610795 L19.9248031,4.00610795 L19.7040409,4.00610795 C19.5384461,4.00610795 19.3176839,4.06122852 19.1520891,4.06122852 C18.9313269,4.06122852 18.7105647,4.11644174 18.4898025,4.17156232 C18.2689476,4.22668289 18.0481854,4.22668289 17.8274232,4.28180347 C17.7170885,4.28180347 17.606661,4.33701669 17.4410662,4.33701669 C17.3307315,4.33701669 17.1651367,4.39213726 17.0547092,4.44725784 C16.7787796,4.50247106 16.5028501,4.55759163 16.2268278,4.66783279 C15.9508982,4.723046 15.674876,4.83328716 15.343779,4.94362095 C15.0677568,5.0538621 14.7365671,5.1641959 14.4054702,5.27443705 C13.1359717,5.71567959 11.7561384,6.32228385 10.3763052,7.20458364 C8.99647194,8.03176285 7.56147133,9.13473023 6.29206554,10.403152 C5.62968625,11.0648768 5.02256704,11.7266017 4.41544783,12.4986603 C4.13951827,12.8846896 3.86349599,13.2707189 3.58756643,13.6567482 C3.47713897,13.8773232 3.31163687,14.0427776 3.20120941,14.2633525 L2.98044722,14.5942613 L2.8148524,14.9250774 C1.82137617,16.634649 1.04866214,18.5647956 0.551970384,20.5500627 C0.331208192,21.5426963 0.165613368,22.5353299 0.0551859122,23.5830841 C0.0551859122,23.8588722 1.85436526e-05,24.0794472 1.85436526e-05,24.3551427 L1.85436526e-05,24.5757177 C0.0551859122,25.5684439 0.938234682,26.4507437 2.04213836,26.4507437" id="Fill-1" fill="#5AA885" sketch:type="MSShapeGroup" mask="url(#mask-10)"></path>
                    </g>
                    <g id="Page-1" transform="translate(312.707831, 252.974669) rotate(219.000000) translate(-312.707831, -252.974669) translate(290.707831, 228.474669)">
                        <mask id="mask-12" sketch:name="Clip 2" fill="white">
                            <use xlink:href="#path-11"></use>
                        </mask>
                        <g id="Clip-2"></g>
                        <path d="M2.04213836,26.4507437 C2.98044722,26.4507437 3.75316125,25.8441394 3.97392345,24.961747 L3.97392345,24.9066264 L3.97392345,24.8515058 C4.02909081,24.6309309 4.13951827,24.1345678 4.19468564,24.0243266 C4.36028046,23.1970548 4.58104265,22.4250888 4.9122323,21.6530301 C5.46409142,20.1640334 6.29206554,18.7853705 7.17511431,17.572162 L7.34070914,17.3515871 L7.50630396,17.1310121 C7.6166387,16.9655577 7.72706616,16.8552239 7.83749361,16.6897696 C8.11342317,16.414074 8.33418536,16.1383785 8.61011493,15.9178036 C9.1068994,15.4214405 9.65885124,14.9250774 10.2107104,14.5391407 C11.314614,13.7118688 12.4185177,13.050144 13.4671613,12.6089941 C14.5158049,12.1677516 15.5645412,11.8369355 16.44759,11.6163605 C16.6683522,11.5611473 16.8891144,11.5060267 17.1098766,11.5060267 C17.3306388,11.4509061 17.5514937,11.4509061 17.7169958,11.3957856 C17.9378507,11.3957856 18.1033528,11.3405723 18.2689476,11.3405723 L18.5449699,11.3405723 L18.8208995,11.3405723 L19.2624238,11.3405723 L19.6487809,11.3405723 L19.9799705,11.3405723 L20.090398,11.3405723 L20.090398,14.1531114 C20.090398,15.0905317 21.1942089,15.6420154 21.9117556,15.0354111 L22.7948044,14.4288069 C25.1681138,12.7744485 27.3759212,10.8994224 29.4732084,8.8590347 C30.190755,8.25243044 30.190755,7.14946306 29.4732084,6.5428588 L29.418041,6.48773822 C27.3759212,4.50247106 25.1681138,2.62744505 22.7948044,0.973086622 L21.8565882,0.31126914 C21.1390416,-0.295335125 20.0351379,0.256148563 20.0351379,1.19366157 L20.0351379,4.00610795 L19.9248031,4.00610795 L19.7040409,4.00610795 C19.5384461,4.00610795 19.3176839,4.06122852 19.1520891,4.06122852 C18.9313269,4.06122852 18.7105647,4.11644174 18.4898025,4.17156232 C18.2689476,4.22668289 18.0481854,4.22668289 17.8274232,4.28180347 C17.7170885,4.28180347 17.606661,4.33701669 17.4410662,4.33701669 C17.3307315,4.33701669 17.1651367,4.39213726 17.0547092,4.44725784 C16.7787796,4.50247106 16.5028501,4.55759163 16.2268278,4.66783279 C15.9508982,4.723046 15.674876,4.83328716 15.343779,4.94362095 C15.0677568,5.0538621 14.7365671,5.1641959 14.4054702,5.27443705 C13.1359717,5.71567959 11.7561384,6.32228385 10.3763052,7.20458364 C8.99647194,8.03176285 7.56147133,9.13473023 6.29206554,10.403152 C5.62968625,11.0648768 5.02256704,11.7266017 4.41544783,12.4986603 C4.13951827,12.8846896 3.86349599,13.2707189 3.58756643,13.6567482 C3.47713897,13.8773232 3.31163687,14.0427776 3.20120941,14.2633525 L2.98044722,14.5942613 L2.8148524,14.9250774 C1.82137617,16.634649 1.04866214,18.5647956 0.551970384,20.5500627 C0.331208192,21.5426963 0.165613368,22.5353299 0.0551859122,23.5830841 C0.0551859122,23.8588722 1.8543653e-05,24.0794472 1.8543653e-05,24.3551427 L1.8543653e-05,24.5757177 C0.0551859122,25.5684439 0.938234682,26.4507437 2.04213836,26.4507437" id="Fill-1" fill="#5AA885" sketch:type="MSShapeGroup" mask="url(#mask-12)"></path>
                    </g>
                    <g id="Page-1" transform="translate(152.707831, 96.974669) rotate(340.000000) translate(-152.707831, -96.974669) translate(130.707831, 72.474669)">
                        <mask id="mask-14" sketch:name="Clip 2" fill="white">
                            <use xlink:href="#path-13"></use>
                        </mask>
                        <g id="Clip-2"></g>
                        <path d="M8.46253358,39.0514788 C9.40084244,39.0514788 10.1735565,38.4448745 10.3943187,37.5624821 L10.3943187,37.5073615 L10.3943187,37.4522409 C10.449486,37.231666 10.5599135,36.7353029 10.6150809,36.6250617 C10.7806757,35.7977899 11.0014379,35.0258239 11.3326275,34.2537652 C11.8844866,32.7647685 12.7124608,31.3861056 13.5955095,30.1728971 L13.7611044,29.9523222 L13.9266992,29.7317472 C14.0370339,29.5662928 14.1474614,29.455959 14.2578888,29.2905047 C14.5338184,29.0148092 14.7545806,28.7391136 15.0305101,28.5185387 C15.5272946,28.0221756 16.0792465,27.5258125 16.6311056,27.1398758 C17.7350093,26.3126039 18.8389129,25.6508791 19.8875565,25.2097292 C20.9362001,24.7684867 21.9849364,24.4376706 22.8679852,24.2170956 C23.0887474,24.1618824 23.3095096,24.1067618 23.5302718,24.1067618 C23.751034,24.0516412 23.9718889,24.0516412 24.137391,23.9965207 C24.3582459,23.9965207 24.523748,23.9413074 24.6893428,23.9413074 L24.9653651,23.9413074 L25.2412947,23.9413074 L25.6828191,23.9413074 L26.0691761,23.9413074 L26.4003657,23.9413074 L26.5107932,23.9413074 L26.5107932,26.7538465 C26.5107932,27.6912668 27.6146041,28.2427505 28.3321508,27.6361463 L29.2151996,27.029542 C31.588509,25.3751836 33.7963164,23.5001576 35.8936036,21.4597698 C36.6111503,20.8531655 36.6111503,19.7501982 35.8936036,19.1435939 L35.8384362,19.0884733 C33.7963164,17.1032062 31.588509,15.2281802 29.2151996,13.5738217 L28.2769834,12.9120042 C27.5594368,12.3054 26.4555331,12.8568837 26.4555331,13.7943967 L26.4555331,16.6068431 L26.3451984,16.6068431 L26.1244362,16.6068431 C25.9588413,16.6068431 25.7380792,16.6619636 25.5724843,16.6619636 C25.3517221,16.6619636 25.1309599,16.7171768 24.9101977,16.7722974 C24.6893428,16.827418 24.4685806,16.827418 24.2478185,16.8825386 C24.1374837,16.8825386 24.0270563,16.9377518 23.8614614,16.9377518 C23.7511267,16.9377518 23.5855319,16.9928724 23.4751044,17.0479929 C23.1991749,17.1032062 22.9232453,17.1583267 22.647223,17.2685679 C22.3712935,17.3237811 22.0952712,17.4340223 21.7641742,17.5443561 C21.488152,17.6545972 21.1569623,17.764931 20.8258654,17.8751722 C19.5563669,18.3164147 18.1765336,18.923019 16.7967004,19.8053187 C15.4168672,20.632498 13.9818666,21.7354653 12.7124608,23.0038871 C12.0500815,23.6656119 11.4429623,24.3273368 10.835843,25.0993954 C10.5599135,25.4854247 10.2838912,25.871454 10.0079616,26.2574834 C9.89753419,26.4780583 9.73203209,26.6435127 9.62160463,26.8640876 L9.40084244,27.1949964 L9.23524762,27.5258125 C8.24177139,29.2353841 7.46905736,31.1655307 6.9723656,33.1507979 C6.75160341,34.1434314 6.58600859,35.136065 6.47558113,36.1838192 C6.47558113,36.4596073 6.42041376,36.6801823 6.42041376,36.9558778 L6.42041376,37.1764528 C6.47558113,38.169179 7.3586299,39.0514788 8.46253358,39.0514788" id="Fill-1" fill="#5AA885" sketch:type="MSShapeGroup" mask="url(#mask-14)"></path>
                    </g>
                </g>
            </g>
        </g>
    </g>
</svg>