<?xml version="1.0" encoding="UTF-8" standalone="no"?>
<svg width="860px" height="282px" viewBox="0 0 860 282" version="1.1" xmlns="http://www.w3.org/2000/svg" xmlns:xlink="http://www.w3.org/1999/xlink" xmlns:sketch="http://www.bohemiancoding.com/sketch/ns">
    <!-- Generator: Sketch 3.4.4 (17248) - http://www.bohemiancoding.com/sketch -->
    <title>Data</title>
    <desc>Created with Sketch.</desc>
    <defs>
        <filter x="-50%" y="-50%" width="200%" height="200%" filterUnits="objectBoundingBox" id="filter-1">
            <feOffset dx="0" dy="0" in="SourceAlpha" result="shadowOffsetOuter1"></feOffset>
            <feGaussianBlur stdDeviation="5" in="shadowOffsetOuter1" result="shadowBlurOuter1"></feGaussianBlur>
            <feColorMatrix values="0 0 0 0 0   0 0 0 0 0   0 0 0 0 0  0 0 0 0.21 0" in="shadowBlurOuter1" type="matrix" result="shadowMatrixOuter1"></feColorMatrix>
            <feMerge>
                <feMergeNode in="shadowMatrixOuter1"></feMergeNode>
                <feMergeNode in="SourceGraphic"></feMergeNode>
            </feMerge>
        </filter>
        <filter x="-50%" y="-50%" width="200%" height="200%" filterUnits="objectBoundingBox" id="filter-2">
            <feOffset dx="0" dy="0" in="SourceAlpha" result="shadowOffsetOuter1"></feOffset>
            <feGaussianBlur stdDeviation="5" in="shadowOffsetOuter1" result="shadowBlurOuter1"></feGaussianBlur>
            <feColorMatrix values="0 0 0 0 0   0 0 0 0 0   0 0 0 0 0  0 0 0 0.21 0" in="shadowBlurOuter1" type="matrix" result="shadowMatrixOuter1"></feColorMatrix>
            <feMerge>
                <feMergeNode in="shadowMatrixOuter1"></feMergeNode>
                <feMergeNode in="SourceGraphic"></feMergeNode>
            </feMerge>
        </filter>
        <filter x="-50%" y="-50%" width="200%" height="200%" filterUnits="objectBoundingBox" id="filter-3">
            <feOffset dx="0" dy="0" in="SourceAlpha" result="shadowOffsetOuter1"></feOffset>
            <feGaussianBlur stdDeviation="5" in="shadowOffsetOuter1" result="shadowBlurOuter1"></feGaussianBlur>
            <feColorMatrix values="0 0 0 0 0   0 0 0 0 0   0 0 0 0 0  0 0 0 0.21 0" in="shadowBlurOuter1" type="matrix" result="shadowMatrixOuter1"></feColorMatrix>
            <feMerge>
                <feMergeNode in="shadowMatrixOuter1"></feMergeNode>
                <feMergeNode in="SourceGraphic"></feMergeNode>
            </feMerge>
        </filter>
        <filter x="-50%" y="-50%" width="200%" height="200%" filterUnits="objectBoundingBox" id="filter-4">
            <feOffset dx="0" dy="0" in="SourceAlpha" result="shadowOffsetOuter1"></feOffset>
            <feGaussianBlur stdDeviation="5" in="shadowOffsetOuter1" result="shadowBlurOuter1"></feGaussianBlur>
            <feColorMatrix values="0 0 0 0 0   0 0 0 0 0   0 0 0 0 0  0 0 0 0.21 0" in="shadowBlurOuter1" type="matrix" result="shadowMatrixOuter1"></feColorMatrix>
            <feMerge>
                <feMergeNode in="shadowMatrixOuter1"></feMergeNode>
                <feMergeNode in="SourceGraphic"></feMergeNode>
            </feMerge>
        </filter>
        <filter x="-50%" y="-50%" width="200%" height="200%" filterUnits="objectBoundingBox" id="filter-5">
            <feOffset dx="0" dy="0" in="SourceAlpha" result="shadowOffsetOuter1"></feOffset>
            <feGaussianBlur stdDeviation="5" in="shadowOffsetOuter1" result="shadowBlurOuter1"></feGaussianBlur>
            <feColorMatrix values="0 0 0 0 0   0 0 0 0 0   0 0 0 0 0  0 0 0 0.21 0" in="shadowBlurOuter1" type="matrix" result="shadowMatrixOuter1"></feColorMatrix>
            <feMerge>
                <feMergeNode in="shadowMatrixOuter1"></feMergeNode>
                <feMergeNode in="SourceGraphic"></feMergeNode>
            </feMerge>
        </filter>
        <filter x="-50%" y="-50%" width="200%" height="200%" filterUnits="objectBoundingBox" id="filter-6">
            <feOffset dx="0" dy="0" in="SourceAlpha" result="shadowOffsetOuter1"></feOffset>
            <feGaussianBlur stdDeviation="5" in="shadowOffsetOuter1" result="shadowBlurOuter1"></feGaussianBlur>
            <feColorMatrix values="0 0 0 0 0   0 0 0 0 0   0 0 0 0 0  0 0 0 0.21 0" in="shadowBlurOuter1" type="matrix" result="shadowMatrixOuter1"></feColorMatrix>
            <feMerge>
                <feMergeNode in="shadowMatrixOuter1"></feMergeNode>
                <feMergeNode in="SourceGraphic"></feMergeNode>
            </feMerge>
        </filter>
        <path id="path-7" d="M2.84217094e-14,0.0568807298 L43.1059274,0.0568807298 L43.1059274,48.5431635 L2.84217094e-14,48.5431635"></path>
        <path id="path-9" d="M-5.68434189e-13,0.0568807298 L43.1059274,0.0568807298 L43.1059274,48.5431635 L-5.68434189e-13,48.5431635"></path>
        <path id="path-11" d="M-2.84217094e-13,0.0568807298 L43.1059274,0.0568807298 L43.1059274,48.5431635 L-2.84217094e-13,48.5431635"></path>
        <path id="path-13" d="M-4.54747351e-13,0.0568807298 L43.1059274,0.0568807298 L43.1059274,48.5431635 L-4.54747351e-13,48.5431635"></path>
    </defs>
    <g id="Design" stroke="none" stroke-width="1" fill="none" fill-rule="evenodd" sketch:type="MSPage">
        <g id="5a-architecture" sketch:type="MSArtboardGroup" transform="translate(-281.000000, -3864.000000)">
            <g id="5" sketch:type="MSLayerGroup" transform="translate(308.000000, 3633.000000)">
                <g id="Data" transform="translate(0.000000, 231.000000)">
                    <path d="M186.54,1.84 L201.26,1.84 C205.26002,1.84 208.859984,2.3466616 212.06,3.36 C215.260016,4.3733384 218.006655,5.9333228 220.3,8.04 C222.593345,10.1466772 224.353327,12.8266504 225.58,16.08 C226.806673,19.3333496 227.42,23.1999776 227.42,27.68 C227.42,32.1600224 226.806673,36.0533168 225.58,39.36 C224.353327,42.6666832 222.620011,45.3999892 220.38,47.56 C218.139989,49.7200108 215.460016,51.333328 212.34,52.4 C209.219984,53.466672 205.740019,54 201.9,54 L186.54,54 L186.54,1.84 Z M200.54,44.48 C202.780011,44.48 204.806658,44.1866696 206.62,43.6 C208.433342,43.0133304 209.979994,42.0666732 211.26,40.76 C212.540006,39.4533268 213.539996,37.733344 214.26,35.6 C214.980004,33.466656 215.34,30.8266824 215.34,27.68 C215.34,24.5866512 214.980004,21.9866772 214.26,19.88 C213.539996,17.7733228 212.540006,16.0933396 211.26,14.84 C209.979994,13.5866604 208.433342,12.693336 206.62,12.16 C204.806658,11.626664 202.780011,11.36 200.54,11.36 L198.3,11.36 L198.3,44.48 L200.54,44.48 Z M258.62,32.4 L257.42,27.6 C256.67333,24.9866536 255.953337,22.213348 255.26,19.28 C254.566663,16.346652 253.873337,13.5200136 253.18,10.8 L252.86,10.8 C252.219997,13.5733472 251.56667,16.4133188 250.9,19.32 C250.23333,22.2266812 249.52667,24.9866536 248.78,27.6 L247.5,32.4 L258.62,32.4 Z M261.02,41.6 L245.1,41.6 L241.9,54 L229.9,54 L246.22,1.84 L260.38,1.84 L276.7,54 L264.22,54 L261.02,41.6 Z M289.34,11.76 L275.02,11.76 L275.02,1.84 L315.5,1.84 L315.5,11.76 L301.18,11.76 L301.18,54 L289.34,54 L289.34,11.76 Z M342.54,32.4 L341.34,27.6 C340.59333,24.9866536 339.873337,22.213348 339.18,19.28 C338.486663,16.346652 337.793337,13.5200136 337.1,10.8 L336.78,10.8 C336.139997,13.5733472 335.48667,16.4133188 334.82,19.32 C334.15333,22.2266812 333.44667,24.9866536 332.7,27.6 L331.42,32.4 L342.54,32.4 Z M344.94,41.6 L329.02,41.6 L325.82,54 L313.82,54 L330.14,1.84 L344.3,1.84 L360.62,54 L348.14,54 L344.94,41.6 Z M386.3,39.36 C388.166676,40.960008 390.233322,42.2666616 392.5,43.28 C394.766678,44.2933384 396.993322,44.8 399.18,44.8 C401.633346,44.8 403.459994,44.3466712 404.66,43.44 C405.860006,42.5333288 406.46,41.3066744 406.46,39.76 C406.46,38.959996 406.286668,38.2666696 405.94,37.68 C405.593332,37.0933304 405.08667,36.5733356 404.42,36.12 C403.75333,35.6666644 402.953338,35.240002 402.02,34.84 C401.086662,34.439998 400.060006,34.0000024 398.94,33.52 L392.14,30.64 C390.80666,30.106664 389.51334,29.4133376 388.26,28.56 C387.00666,27.7066624 385.886672,26.7066724 384.9,25.56 C383.913328,24.4133276 383.12667,23.0800076 382.54,21.56 C381.95333,20.0399924 381.66,18.3200096 381.66,16.4 C381.66,14.266656 382.113329,12.2533428 383.02,10.36 C383.926671,8.4666572 385.206658,6.8133404 386.86,5.4 C388.513342,3.9866596 390.473322,2.880004 392.74,2.08 C395.006678,1.279996 397.499986,0.88 400.22,0.88 C403.260015,0.88 406.259985,1.4666608 409.22,2.64 C412.180015,3.8133392 414.779989,5.5199888 417.02,7.76 L411.02,15.2 C409.313325,13.86666 407.606675,12.8400036 405.9,12.12 C404.193325,11.3999964 402.30001,11.04 400.22,11.04 C398.193323,11.04 396.580006,11.4533292 395.38,12.28 C394.179994,13.1066708 393.58,14.2666592 393.58,15.76 C393.58,16.560004 393.779998,17.2399972 394.18,17.8 C394.580002,18.3600028 395.139996,18.8666644 395.86,19.32 C396.580004,19.7733356 397.419995,20.199998 398.38,20.6 C399.340005,21.000002 400.379994,21.4399976 401.5,21.92 L408.22,24.64 C411.420016,25.9200064 413.939991,27.6799888 415.78,29.92 C417.620009,32.1600112 418.54,35.1199816 418.54,38.8 C418.54,40.9866776 418.100004,43.0533236 417.22,45 C416.339996,46.9466764 415.060008,48.653326 413.38,50.12 C411.699992,51.586674 409.633346,52.7599956 407.18,53.64 C404.726654,54.5200044 401.953349,54.96 398.86,54.96 C395.44665,54.96 392.046684,54.3333396 388.66,53.08 C385.273316,51.8266604 382.24668,49.9466792 379.58,47.44 L386.3,39.36 Z M435.1,35.44 L419.34,1.84 L431.98,1.84 L436.62,13.84 C437.36667,15.8133432 438.07333,17.7199908 438.74,19.56 C439.40667,21.4000092 440.11333,23.3333232 440.86,25.36 L441.18,25.36 C441.92667,23.3333232 442.659996,21.4000092 443.38,19.56 C444.100004,17.7199908 444.83333,15.8133432 445.58,13.84 L450.3,1.84 L462.62,1.84 L446.86,35.44 L446.86,54 L435.1,54 L435.1,35.44 Z M469.98,39.36 C471.846676,40.960008 473.913322,42.2666616 476.18,43.28 C478.446678,44.2933384 480.673322,44.8 482.86,44.8 C485.313346,44.8 487.139994,44.3466712 488.34,43.44 C489.540006,42.5333288 490.14,41.3066744 490.14,39.76 C490.14,38.959996 489.966668,38.2666696 489.62,37.68 C489.273332,37.0933304 488.76667,36.5733356 488.1,36.12 C487.43333,35.6666644 486.633338,35.240002 485.7,34.84 C484.766662,34.439998 483.740006,34.0000024 482.62,33.52 L475.82,30.64 C474.48666,30.106664 473.19334,29.4133376 471.94,28.56 C470.68666,27.7066624 469.566672,26.7066724 468.58,25.56 C467.593328,24.4133276 466.80667,23.0800076 466.22,21.56 C465.63333,20.0399924 465.34,18.3200096 465.34,16.4 C465.34,14.266656 465.793329,12.2533428 466.7,10.36 C467.606671,8.4666572 468.886658,6.8133404 470.54,5.4 C472.193342,3.9866596 474.153322,2.880004 476.42,2.08 C478.686678,1.279996 481.179986,0.88 483.9,0.88 C486.940015,0.88 489.939985,1.4666608 492.9,2.64 C495.860015,3.8133392 498.459989,5.5199888 500.7,7.76 L494.7,15.2 C492.993325,13.86666 491.286675,12.8400036 489.58,12.12 C487.873325,11.3999964 485.98001,11.04 483.9,11.04 C481.873323,11.04 480.260006,11.4533292 479.06,12.28 C477.859994,13.1066708 477.26,14.2666592 477.26,15.76 C477.26,16.560004 477.459998,17.2399972 477.86,17.8 C478.260002,18.3600028 478.819996,18.8666644 479.54,19.32 C480.260004,19.7733356 481.099995,20.199998 482.06,20.6 C483.020005,21.000002 484.059994,21.4399976 485.18,21.92 L491.9,24.64 C495.100016,25.9200064 497.619991,27.6799888 499.46,29.92 C501.300009,32.1600112 502.22,35.1199816 502.22,38.8 C502.22,40.9866776 501.780004,43.0533236 500.9,45 C500.019996,46.9466764 498.740008,48.653326 497.06,50.12 C495.379992,51.586674 493.313346,52.7599956 490.86,53.64 C488.406654,54.5200044 485.633349,54.96 482.54,54.96 C479.12665,54.96 475.726684,54.3333396 472.34,53.08 C468.953316,51.8266604 465.92668,49.9466792 463.26,47.44 L469.98,39.36 Z M519.66,11.76 L505.34,11.76 L505.34,1.84 L545.82,1.84 L545.82,11.76 L531.5,11.76 L531.5,54 L519.66,54 L519.66,11.76 Z M553.98,1.84 L586.62,1.84 L586.62,11.76 L565.74,11.76 L565.74,22.24 L583.5,22.24 L583.5,32.08 L565.74,32.08 L565.74,44.08 L587.42,44.08 L587.42,54 L553.98,54 L553.98,1.84 Z M597.82,1.84 L610.3,1.84 L619.02,25.28 L622.14,34.4 L622.46,34.4 L625.58,25.28 L634.06,1.84 L646.46,1.84 L646.46,54 L635.5,54 L635.5,34.88 C635.5,33.5999936 635.553333,32.1866744 635.66,30.64 C635.766667,29.0933256 635.899999,27.5333412 636.06,25.96 C636.220001,24.3866588 636.379999,22.8400076 636.54,21.32 C636.700001,19.7999924 636.859999,18.4000064 637.02,17.12 L636.7,17.12 L632.38,29.2 L624.38,49.44 L619.66,49.44 L611.66,29.2 L607.5,17.12 L607.18,17.12 C607.340001,18.4000064 607.499999,19.7999924 607.66,21.32 C607.820001,22.8400076 607.966666,24.3866588 608.1,25.96 C608.233334,27.5333412 608.353333,29.0933256 608.46,30.64 C608.566667,32.1866744 608.62,33.5999936 608.62,34.88 L608.62,54 L597.82,54 L597.82,1.84 Z" id="DATA-SYSTEM" fill="#5AA885" sketch:type="MSShapeGroup"></path>
                    <g id="Devices" transform="translate(0.000000, 102.000000)" sketch:type="MSShapeGroup">
                        <g id="Laptop" transform="translate(0.000000, 0.977215)">
                            <path d="M28.2286938,0 L191.327813,0 C194.790533,0 197.600857,2.80133478 197.600857,6.25996598 L197.600857,122.069337 L21.9556507,122.069337 L21.9556507,6.25996598 C21.9556507,2.80133478 24.765974,0 28.2286938,0 L28.2286938,0 Z" id="Shape-Copy-2" fill="#FFFFFF" filter="url(#filter-1)"></path>
                            <g id="Illu" transform="translate(0.000000, 0.000000)">
                                <path d="M226.362799,120.762311 C226.362799,125.945563 222.15045,130.15226 216.953234,130.15226 L16.2158562,130.15226 C11.01864,130.15226 6.80629161,125.945563 6.80629161,120.762311 L226.362799,120.762311 Z" id="Shape-Copy-4" fill="#EEEEEE"></path>
                                <path d="M35.0349854,0 L198.134105,0 C201.596825,0 204.407148,2.80133478 204.407148,6.25996598 L204.407148,122.069337 L28.7619423,122.069337 L28.7619423,6.25996598 C28.7619423,2.80133478 31.5722656,0 35.0349854,0 L35.0349854,0 Z" id="Shape-Copy-3" fill="#EEEEEE"></path>
                                <path d="M219.556507,120.762311 C219.556507,125.945563 215.344159,130.15226 210.146943,130.15226 L9.4095646,130.15226 C4.21234842,130.15226 1.23634436e-12,125.945563 1.23634436e-12,120.762311 L219.556507,120.762311 Z" id="Shape" fill="#FFFFFF"></path>
                                <path d="M95.6639067,117.460351 L123.892601,117.460351 C126.48964,117.460351 128.597383,119.563699 128.597383,122.155325 C128.597383,124.746951 126.48964,126.8503 123.892601,126.8503 L95.6639067,126.8503 C93.0668669,126.8503 90.9591244,124.746951 90.9591244,122.155325 C90.9591244,119.563699 93.0668669,117.460351 95.6639067,117.460351 L95.6639067,117.460351 Z" id="Shape" fill="#E5E7EB"></path>
                                <path d="M28.2286938,0 L191.327813,0 C194.790533,0 197.600857,2.80133478 197.600857,6.25996598 L197.600857,122.069337 L21.9556507,122.069337 L21.9556507,6.25996598 C21.9556507,2.80133478 24.765974,0 28.2286938,0 L28.2286938,0 Z" id="Shape" fill="#FFFFFF"></path>
                                <path d="M31.3652153,9.38994898 L188.191292,9.38994898 L188.191292,112.679388 L31.3652153,112.679388 L31.3652153,9.38994898 L31.3652153,9.38994898 Z" id="Shape"></path>
                            </g>
                        </g>
                        <g id="Data" transform="translate(161.989740, 15.927840)">
                            <path d="M90.8201906,104.4741 C90.6052627,108.12649 74.4240472,115.233965 45.5260136,115.233965 C16.62798,115.233965 0.446764472,108.12649 0.231836568,104.4741 L0.195764752,103.962012 L0.195764752,12.326936 C2.78842653,13.863199 6.15963834,15.2337866 10.3003822,16.4311681 C19.752701,19.1633064 32.2621062,20.6694466 45.5275166,20.6694466 C58.788418,20.6694466 71.2978232,19.1633064 80.751645,16.4311681 C84.8938918,15.2322805 88.2651036,13.8616929 90.8592684,12.3254299 L90.8592684,103.841521 L90.8201906,104.4741 Z" id="Path-Copy" fill="#FFFFFF" filter="url(#filter-2)"></path>
                            <g id="Illu">
                                <path d="M45.5260136,0.293834261 C74.856909,0.293834261 90.8562624,7.43293882 90.8562624,11.1018963 C90.8562624,14.77236 74.855406,21.915983 45.5260136,21.915983 C16.1966212,21.915983 0.195764752,14.77236 0.195764752,11.1018963 C0.195764752,7.43293882 16.1951182,0.293834261 45.5260136,0.293834261 L45.5260136,0.293834261 Z" id="Path" fill="#EEEEEE"></path>
                                <path d="M90.8201906,104.4741 C90.6052627,108.12649 74.4240472,115.233965 45.5260136,115.233965 C16.62798,115.233965 0.446764472,108.12649 0.231836568,104.4741 L0.195764752,103.962012 L0.195764752,12.326936 C2.78842653,13.863199 6.15963834,15.2337866 10.3003822,16.4311681 C19.752701,19.1633064 32.2621062,20.6694466 45.5275166,20.6694466 C58.788418,20.6694466 71.2978232,19.1633064 80.751645,16.4311681 C84.8938918,15.2322805 88.2651036,13.8616929 90.8592684,12.3254299 L90.8592684,103.841521 L90.8201906,104.4741 Z" id="Path" fill="#FFFFFF"></path>
                                <path d="M45.5260136,36.7492732 C74.856909,36.7492732 90.8562624,43.8883778 90.8562624,47.5573353 C90.8562624,51.227799 74.855406,58.371422 45.5260136,58.371422 C16.1966212,58.371422 0.195764752,51.227799 0.195764752,47.5573353 C0.195764752,43.8883778 16.1951182,36.7492732 45.5260136,36.7492732 L45.5260136,36.7492732 Z" id="Path-Copy-2" fill="#F9F9F9"></path>
                                <path d="M45.5260136,70.6374278 C74.856909,70.6374278 90.8562624,77.7765323 90.8562624,81.4454898 C90.8562624,85.1159535 74.855406,92.2595765 45.5260136,92.2595765 C16.1966212,92.2595765 0.195764752,85.1159535 0.195764752,81.4454898 C0.195764752,77.7765323 16.1951182,70.6374278 45.5260136,70.6374278 L45.5260136,70.6374278 Z" id="Path-Copy-3" fill="#F9F9F9"></path>
                            </g>
                        </g>
                        <g id="Phone" transform="translate(378.429814, 14.568629)">
                            <rect id="Rectangle-125" fill="#FFFFFF" filter="url(#filter-3)" x="2.72251665" y="0" width="63.9791412" height="116.88695" rx="4"></rect>
                            <g id="Illu">
                                <rect id="Rectangle-125-Copy-2" fill="#EEEEEE" x="2.72251665" y="0" width="63.9791412" height="116.88695" rx="4"></rect>
                                <rect id="Rectangle-125-Copy" fill="#FFFFFF" x="0" y="0" width="63.9791412" height="116.88695" rx="4"></rect>
                                <ellipse id="Oval-243" fill="#ECECEC" cx="32.6701997" cy="103.295444" rx="5.44503329" ry="5.43660233"></ellipse>
                            </g>
                        </g>
                        <g id="Tablet" transform="translate(714.434039, 79.601956) rotate(-270.000000) translate(-714.434039, -79.601956) translate(662.934039, -5.898044)">
                            <rect id="Rectangle-125" fill="#FFFFFF" filter="url(#filter-4)" x="0.354337793" y="-1.8189894e-12" width="102.485392" height="166.689116" rx="4"></rect>
                            <g id="Illu" transform="translate(-0.000000, -0.000000)">
                                <rect id="Rectangle-125-Copy-2" fill="#EEEEEE" x="0.354337793" y="-7.95807864e-13" width="102.485392" height="166.689116" rx="4"></rect>
                                <rect id="Rectangle-125-Copy" fill="#FFFFFF" x="1.13686838e-13" y="4.00053879" width="102.485392" height="166.689116" rx="4"></rect>
                                <ellipse id="Oval-243" fill="#ECECEC" cx="56.0943983" cy="153.353987" rx="5.34232365" ry="5.33405172"></ellipse>
                            </g>
                        </g>
                        <g id="Data-Copy" transform="translate(427.435113, 63.498135)">
                            <path d="M52.8654841,61.4553528 C52.7403768,63.6038174 43.3214603,67.7846855 26.5002169,67.7846855 C9.67897341,67.7846855 0.260056931,63.6038174 0.134949644,61.4553528 L0.113952617,61.1541247 L0.113952617,7.25113883 C1.62311395,8.15482295 3.58546112,8.96105094 5.99574488,9.66539298 C11.4978409,11.2725332 18.779435,12.158498 26.5010917,12.158498 C34.2201239,12.158498 41.501718,11.2725332 47.0046889,9.66539298 C49.4158475,8.96016498 51.3781947,8.15393699 52.8882309,7.25025287 L52.8882309,61.0832475 L52.8654841,61.4553528 Z" id="Path-Copy" fill="#FFFFFF" filter="url(#filter-5)"></path>
                            <g id="Illu">
                                <path d="M26.5002169,0.172843683 C43.5734247,0.172843683 52.8864811,4.37231695 52.8864811,6.53052726 C52.8864811,8.68962354 43.5725498,12.8917547 26.5002169,12.8917547 C9.42788396,12.8917547 0.113952617,8.68962354 0.113952617,6.53052726 C0.113952617,4.37231695 9.42700908,0.172843683 26.5002169,0.172843683 L26.5002169,0.172843683 Z" id="Path" fill="#EEEEEE"></path>
                                <path d="M52.8654841,61.4553528 C52.7403768,63.6038174 43.3214603,67.7846855 26.5002169,67.7846855 C9.67897341,67.7846855 0.260056931,63.6038174 0.134949644,61.4553528 L0.113952617,61.1541247 L0.113952617,7.25113883 C1.62311395,8.15482295 3.58546112,8.96105094 5.99574488,9.66539298 C11.4978409,11.2725332 18.779435,12.158498 26.5010917,12.158498 C34.2201239,12.158498 41.501718,11.2725332 47.0046889,9.66539298 C49.4158475,8.96016498 51.3781947,8.15393699 52.8882309,7.25025287 L52.8882309,61.0832475 L52.8654841,61.4553528 Z" id="Path" fill="#FFFFFF"></path>
                                <path d="M26.5002169,21.6172195 C43.5734247,21.6172195 52.8864811,25.8166928 52.8864811,27.9749031 C52.8864811,30.1339994 43.5725498,34.3361306 26.5002169,34.3361306 C9.42788396,34.3361306 0.113952617,30.1339994 0.113952617,27.9749031 C0.113952617,25.8166928 9.42700908,21.6172195 26.5002169,21.6172195 L26.5002169,21.6172195 Z" id="Path-Copy-2" fill="#F9F9F9"></path>
                                <path d="M26.5002169,41.5514281 C43.5734247,41.5514281 52.8864811,45.7509014 52.8864811,47.9091117 C52.8864811,50.0682079 43.5725498,54.2703391 26.5002169,54.2703391 C9.42788396,54.2703391 0.113952617,50.0682079 0.113952617,47.9091117 C0.113952617,45.7509014 9.42700908,41.5514281 26.5002169,41.5514281 L26.5002169,41.5514281 Z" id="Path-Copy-3" fill="#F9F9F9"></path>
                            </g>
                        </g>
                        <g id="Data-Copy-2" transform="translate(754.137111, 41.751734)">
                            <path d="M69.1317869,81.1210656 C68.968185,83.957039 56.6511404,89.4757848 34.6541297,89.4757848 C12.6571191,89.4757848 0.340074449,83.957039 0.176472611,81.1210656 L0.14901496,80.7234446 L0.14901496,9.57150326 C2.12253363,10.7643663 4.68867993,11.8285872 7.84058945,12.7583187 C15.0356381,14.8797438 24.5577227,16.0492174 34.6552738,16.0492174 C44.7493928,16.0492174 54.2714773,14.8797438 61.46767,12.7583187 C64.6207236,11.8274178 67.1868699,10.7631968 69.1615327,9.57033379 L69.1615327,80.6298867 L69.1317869,81.1210656 Z" id="Path-Copy" fill="#FFFFFF" filter="url(#filter-6)"></path>
                            <g id="Illu">
                                <path d="M34.6541297,0.228153662 C56.9806322,0.228153662 69.1592445,5.77145837 69.1592445,8.62029599 C69.1592445,11.4703031 56.9794882,17.0171162 34.6541297,17.0171162 C12.3287713,17.0171162 0.14901496,11.4703031 0.14901496,8.62029599 C0.14901496,5.77145837 12.3276273,0.228153662 34.6541297,0.228153662 L34.6541297,0.228153662 Z" id="Path" fill="#EEEEEE"></path>
                                <path d="M69.1317869,81.1210656 C68.968185,83.957039 56.6511404,89.4757848 34.6541297,89.4757848 C12.6571191,89.4757848 0.340074449,83.957039 0.176472611,81.1210656 L0.14901496,80.7234446 L0.14901496,9.57150326 C2.12253363,10.7643663 4.68867993,11.8285872 7.84058945,12.7583187 C15.0356381,14.8797438 24.5577227,16.0492174 34.6552738,16.0492174 C44.7493928,16.0492174 54.2714773,14.8797438 61.46767,12.7583187 C64.6207236,11.8274178 67.1868699,10.7631968 69.1615327,9.57033379 L69.1615327,80.6298867 L69.1317869,81.1210656 Z" id="Path" fill="#FFFFFF"></path>
                                <path d="M34.6541297,28.5347298 C56.9806322,28.5347298 69.1592445,34.0780345 69.1592445,36.9268721 C69.1592445,39.7768792 56.9794882,45.3236923 34.6541297,45.3236923 C12.3287713,45.3236923 0.14901496,39.7768792 0.14901496,36.9268721 C0.14901496,34.0780345 12.3276273,28.5347298 34.6541297,28.5347298 L34.6541297,28.5347298 Z" id="Path-Copy-2" fill="#F9F9F9"></path>
                                <path d="M34.6541297,54.8478851 C56.9806322,54.8478851 69.1592445,60.3911898 69.1592445,63.2400274 C69.1592445,66.0900345 56.9794882,71.6368476 34.6541297,71.6368476 C12.3287713,71.6368476 0.14901496,66.0900345 0.14901496,63.2400274 C0.14901496,60.3911898 12.3276273,54.8478851 34.6541297,54.8478851 L34.6541297,54.8478851 Z" id="Path-Copy-3" fill="#F9F9F9"></path>
                            </g>
                        </g>
                    </g>
                    <path d="M373.7,256.7 L377.6,256.7 L380.325,264.025 L381.3,266.875 L381.4,266.875 L382.375,264.025 L385.025,256.7 L388.9,256.7 L388.9,273 L385.475,273 L385.475,267.025 C385.475,266.624998 385.491667,266.183336 385.525,265.7 C385.558334,265.216664 385.6,264.729169 385.65,264.2375 C385.7,263.745831 385.75,263.262502 385.8,262.7875 C385.85,262.312498 385.9,261.875002 385.95,261.475 L385.85,261.475 L384.5,265.25 L382,271.575 L380.525,271.575 L378.025,265.25 L376.725,261.475 L376.625,261.475 C376.675,261.875002 376.725,262.312498 376.775,262.7875 C376.825,263.262502 376.870833,263.745831 376.9125,264.2375 C376.954167,264.729169 376.991667,265.216664 377.025,265.7 C377.058334,266.183336 377.075,266.624998 377.075,267.025 L377.075,273 L373.7,273 L373.7,256.7 Z M399.375,273.3 C398.274995,273.3 397.270838,273.104169 396.3625,272.7125 C395.454162,272.320831 394.675003,271.758337 394.025,271.025 C393.374997,270.291663 392.870835,269.400005 392.5125,268.35 C392.154165,267.299995 391.975,266.10834 391.975,264.775 C391.975,263.44166 392.154165,262.254172 392.5125,261.2125 C392.870835,260.170828 393.374997,259.295837 394.025,258.5875 C394.675003,257.879163 395.454162,257.337502 396.3625,256.9625 C397.270838,256.587498 398.274995,256.4 399.375,256.4 C400.475006,256.4 401.479162,256.587498 402.3875,256.9625 C403.295838,257.337502 404.074997,257.88333 404.725,258.6 C405.375003,259.31667 405.879165,260.195828 406.2375,261.2375 C406.595835,262.279172 406.775,263.458327 406.775,264.775 C406.775,266.10834 406.595835,267.299995 406.2375,268.35 C405.879165,269.400005 405.375003,270.291663 404.725,271.025 C404.074997,271.758337 403.295838,272.320831 402.3875,272.7125 C401.479162,273.104169 400.475006,273.3 399.375,273.3 L399.375,273.3 Z M399.375,270.125 C400.491672,270.125 401.374997,269.645838 402.025,268.6875 C402.675003,267.729162 403,266.425008 403,264.775 C403,263.141658 402.675003,261.866671 402.025,260.95 C401.374997,260.033329 400.491672,259.575 399.375,259.575 C398.258328,259.575 397.375003,260.033329 396.725,260.95 C396.074997,261.866671 395.75,263.141658 395.75,264.775 C395.75,266.425008 396.074997,267.729162 396.725,268.6875 C397.375003,269.645838 398.258328,270.125 399.375,270.125 L399.375,270.125 Z M409.85,256.7 L415.425,256.7 C416.275004,256.7 417.062496,256.762499 417.7875,256.8875 C418.512504,257.012501 419.145831,257.233332 419.6875,257.55 C420.229169,257.866668 420.654165,258.283331 420.9625,258.8 C421.270835,259.316669 421.425,259.966663 421.425,260.75 C421.425,261.116668 421.370834,261.483331 421.2625,261.85 C421.154166,262.216668 420.991668,262.558332 420.775,262.875 C420.558332,263.191668 420.275002,263.474999 419.925,263.725 C419.574998,263.975001 419.166669,264.158333 418.7,264.275 L418.7,264.375 C419.866673,264.591668 420.74583,265.00833 421.3375,265.625 C421.92917,266.24167 422.225,267.099994 422.225,268.2 C422.225,269.033337 422.062502,269.749997 421.7375,270.35 C421.412498,270.950003 420.962503,271.445831 420.3875,271.8375 C419.812497,272.229169 419.141671,272.520832 418.375,272.7125 C417.60833,272.904168 416.783338,273 415.9,273 L409.85,273 L409.85,256.7 Z M415.25,263.275 C416.150005,263.275 416.804165,263.095835 417.2125,262.7375 C417.620835,262.379165 417.825,261.89167 417.825,261.275 C417.825,260.65833 417.616669,260.216668 417.2,259.95 C416.783331,259.683332 416.141671,259.55 415.275,259.55 L413.525,259.55 L413.525,263.275 L415.25,263.275 Z M415.6,270.15 C417.616677,270.15 418.625,269.408341 418.625,267.925 C418.625,267.20833 418.375003,266.687502 417.875,266.3625 C417.374998,266.037498 416.616672,265.875 415.6,265.875 L413.525,265.875 L413.525,270.15 L415.6,270.15 Z M424.975,256.7 L428.65,256.7 L428.65,273 L424.975,273 L424.975,256.7 Z M432.5,256.7 L436.175,256.7 L436.175,269.9 L442.625,269.9 L442.625,273 L432.5,273 L432.5,256.7 Z M445.45,256.7 L455.65,256.7 L455.65,259.8 L449.125,259.8 L449.125,263.075 L454.675,263.075 L454.675,266.15 L449.125,266.15 L449.125,269.9 L455.9,269.9 L455.9,273 L445.45,273 L445.45,256.7 Z" id="MOBILE" fill="#5AA885" sketch:type="MSShapeGroup"></path>
                    <path d="M74.2375,256.7 L77.9125,256.7 L77.9125,269.9 L84.3625,269.9 L84.3625,273 L74.2375,273 L74.2375,256.7 Z M93.9375,266.25 L93.5625,264.75 C93.3291655,263.933329 93.1041677,263.066671 92.8875,262.15 C92.6708322,261.233329 92.4541677,260.350004 92.2375,259.5 L92.1375,259.5 C91.937499,260.366671 91.7333344,261.254162 91.525,262.1625 C91.3166656,263.070838 91.0958345,263.933329 90.8625,264.75 L90.4625,266.25 L93.9375,266.25 Z M94.6875,269.125 L89.7125,269.125 L88.7125,273 L84.9625,273 L90.0625,256.7 L94.4875,256.7 L99.5875,273 L95.6875,273 L94.6875,269.125 Z M101.3625,256.7 L107.3125,256.7 C108.195838,256.7 109.024996,256.787499 109.8,256.9625 C110.575004,257.137501 111.249997,257.429165 111.825,257.8375 C112.400003,258.245835 112.854165,258.787497 113.1875,259.4625 C113.520835,260.137503 113.6875,260.966662 113.6875,261.95 C113.6875,262.900005 113.516668,263.724996 113.175,264.425 C112.833332,265.125003 112.370836,265.699998 111.7875,266.15 C111.204164,266.600002 110.52917,266.933332 109.7625,267.15 C108.995829,267.366668 108.179171,267.475 107.3125,267.475 L105.0375,267.475 L105.0375,273 L101.3625,273 L101.3625,256.7 Z M107.0875,264.55 C109.08751,264.55 110.0875,263.683342 110.0875,261.95 C110.0875,261.099996 109.833336,260.500002 109.325,260.15 C108.816664,259.799998 108.070838,259.625 107.0875,259.625 L105.0375,259.625 L105.0375,264.55 L107.0875,264.55 Z M119.3375,259.8 L114.8625,259.8 L114.8625,256.7 L127.5125,256.7 L127.5125,259.8 L123.0375,259.8 L123.0375,273 L119.3375,273 L119.3375,259.8 Z M135.9875,273.3 C134.887494,273.3 133.883338,273.104169 132.975,272.7125 C132.066662,272.320831 131.287503,271.758337 130.6375,271.025 C129.987497,270.291663 129.483335,269.400005 129.125,268.35 C128.766665,267.299995 128.5875,266.10834 128.5875,264.775 C128.5875,263.44166 128.766665,262.254172 129.125,261.2125 C129.483335,260.170828 129.987497,259.295837 130.6375,258.5875 C131.287503,257.879163 132.066662,257.337502 132.975,256.9625 C133.883338,256.587498 134.887494,256.4 135.9875,256.4 C137.087505,256.4 138.091662,256.587498 139,256.9625 C139.908338,257.337502 140.687497,257.88333 141.3375,258.6 C141.987503,259.31667 142.491665,260.195828 142.85,261.2375 C143.208335,262.279172 143.3875,263.458327 143.3875,264.775 C143.3875,266.10834 143.208335,267.299995 142.85,268.35 C142.491665,269.400005 141.987503,270.291663 141.3375,271.025 C140.687497,271.758337 139.908338,272.320831 139,272.7125 C138.091662,273.104169 137.087505,273.3 135.9875,273.3 L135.9875,273.3 Z M135.9875,270.125 C137.104172,270.125 137.987497,269.645838 138.6375,268.6875 C139.287503,267.729162 139.6125,266.425008 139.6125,264.775 C139.6125,263.141658 139.287503,261.866671 138.6375,260.95 C137.987497,260.033329 137.104172,259.575 135.9875,259.575 C134.870828,259.575 133.987503,260.033329 133.3375,260.95 C132.687497,261.866671 132.3625,263.141658 132.3625,264.775 C132.3625,266.425008 132.687497,267.729162 133.3375,268.6875 C133.987503,269.645838 134.870828,270.125 135.9875,270.125 L135.9875,270.125 Z M146.4625,256.7 L152.4125,256.7 C153.295838,256.7 154.124996,256.787499 154.9,256.9625 C155.675004,257.137501 156.349997,257.429165 156.925,257.8375 C157.500003,258.245835 157.954165,258.787497 158.2875,259.4625 C158.620835,260.137503 158.7875,260.966662 158.7875,261.95 C158.7875,262.900005 158.616668,263.724996 158.275,264.425 C157.933332,265.125003 157.470836,265.699998 156.8875,266.15 C156.304164,266.600002 155.62917,266.933332 154.8625,267.15 C154.095829,267.366668 153.279171,267.475 152.4125,267.475 L150.1375,267.475 L150.1375,273 L146.4625,273 L146.4625,256.7 Z M152.1875,264.55 C154.18751,264.55 155.1875,263.683342 155.1875,261.95 C155.1875,261.099996 154.933336,260.500002 154.425,260.15 C153.916664,259.799998 153.170838,259.625 152.1875,259.625 L150.1375,259.625 L150.1375,264.55 L152.1875,264.55 Z" id="LAPTOP" opacity="0.5" fill="#5AA885" sketch:type="MSShapeGroup"></path>
                    <path d="M677.65,259.8 L673.175,259.8 L673.175,256.7 L685.825,256.7 L685.825,259.8 L681.35,259.8 L681.35,273 L677.65,273 L677.65,259.8 Z M694.275,266.25 L693.9,264.75 C693.666665,263.933329 693.441668,263.066671 693.225,262.15 C693.008332,261.233329 692.791668,260.350004 692.575,259.5 L692.475,259.5 C692.274999,260.366671 692.070834,261.254162 691.8625,262.1625 C691.654166,263.070838 691.433334,263.933329 691.2,264.75 L690.8,266.25 L694.275,266.25 Z M695.025,269.125 L690.05,269.125 L689.05,273 L685.3,273 L690.4,256.7 L694.825,256.7 L699.925,273 L696.025,273 L695.025,269.125 Z M701.7,256.7 L707.275,256.7 C708.125004,256.7 708.912496,256.762499 709.6375,256.8875 C710.362504,257.012501 710.995831,257.233332 711.5375,257.55 C712.079169,257.866668 712.504165,258.283331 712.8125,258.8 C713.120835,259.316669 713.275,259.966663 713.275,260.75 C713.275,261.116668 713.220834,261.483331 713.1125,261.85 C713.004166,262.216668 712.841668,262.558332 712.625,262.875 C712.408332,263.191668 712.125002,263.474999 711.775,263.725 C711.424998,263.975001 711.016669,264.158333 710.55,264.275 L710.55,264.375 C711.716672,264.591668 712.59583,265.00833 713.1875,265.625 C713.77917,266.24167 714.075,267.099994 714.075,268.2 C714.075,269.033337 713.912502,269.749997 713.5875,270.35 C713.262498,270.950003 712.812503,271.445831 712.2375,271.8375 C711.662497,272.229169 710.99167,272.520832 710.225,272.7125 C709.458329,272.904168 708.633338,273 707.75,273 L701.7,273 L701.7,256.7 Z M707.1,263.275 C708.000004,263.275 708.654165,263.095835 709.0625,262.7375 C709.470835,262.379165 709.675,261.89167 709.675,261.275 C709.675,260.65833 709.466669,260.216668 709.05,259.95 C708.633331,259.683332 707.991671,259.55 707.125,259.55 L705.375,259.55 L705.375,263.275 L707.1,263.275 Z M707.45,270.15 C709.466677,270.15 710.475,269.408341 710.475,267.925 C710.475,267.20833 710.225002,266.687502 709.725,266.3625 C709.224997,266.037498 708.466672,265.875 707.45,265.875 L705.375,265.875 L705.375,270.15 L707.45,270.15 Z M716.825,256.7 L720.5,256.7 L720.5,269.9 L726.95,269.9 L726.95,273 L716.825,273 L716.825,256.7 Z M729.775,256.7 L739.975,256.7 L739.975,259.8 L733.45,259.8 L733.45,263.075 L739,263.075 L739,266.15 L733.45,266.15 L733.45,269.9 L740.225,269.9 L740.225,273 L729.775,273 L729.775,256.7 Z M746.65,259.8 L742.175,259.8 L742.175,256.7 L754.825,256.7 L754.825,259.8 L750.35,259.8 L750.35,273 L746.65,273 L746.65,259.8 Z" id="TABLET" opacity="0.700000048" fill="#5AA885" sketch:type="MSShapeGroup"></path>
                    <g id="Page-1" transform="translate(666.707831, 82.974669) rotate(99.000000) translate(-666.707831, -82.974669) translate(644.707831, 58.474669)">
                        <mask id="mask-8" sketch:name="Clip 2" fill="white">
                            <use xlink:href="#path-7"></use>
                        </mask>
                        <g id="Clip-2"></g>
                        <path d="M2.04213836,26.4507437 C2.98044722,26.4507437 3.75316125,25.8441394 3.97392345,24.961747 L3.97392345,24.9066264 L3.97392345,24.8515058 C4.02909081,24.6309309 4.13951827,24.1345678 4.19468564,24.0243266 C4.36028046,23.1970548 4.58104265,22.4250888 4.9122323,21.6530301 C5.46409142,20.1640334 6.29206554,18.7853705 7.17511431,17.572162 L7.34070914,17.3515871 L7.50630396,17.1310121 C7.6166387,16.9655577 7.72706616,16.8552239 7.83749361,16.6897696 C8.11342317,16.414074 8.33418536,16.1383785 8.61011493,15.9178036 C9.1068994,15.4214405 9.65885124,14.9250774 10.2107104,14.5391407 C11.314614,13.7118688 12.4185177,13.050144 13.4671613,12.6089941 C14.5158049,12.1677516 15.5645412,11.8369355 16.44759,11.6163605 C16.6683522,11.5611473 16.8891144,11.5060267 17.1098766,11.5060267 C17.3306388,11.4509061 17.5514937,11.4509061 17.7169958,11.3957856 C17.9378507,11.3957856 18.1033528,11.3405723 18.2689476,11.3405723 L18.5449699,11.3405723 L18.8208995,11.3405723 L19.2624238,11.3405723 L19.6487809,11.3405723 L19.9799705,11.3405723 L20.090398,11.3405723 L20.090398,14.1531114 C20.090398,15.0905317 21.1942089,15.6420154 21.9117556,15.0354111 L22.7948044,14.4288069 C25.1681138,12.7744485 27.3759212,10.8994224 29.4732084,8.8590347 C30.190755,8.25243044 30.190755,7.14946306 29.4732084,6.5428588 L29.418041,6.48773822 C27.3759212,4.50247106 25.1681138,2.62744505 22.7948044,0.973086622 L21.8565882,0.31126914 C21.1390416,-0.295335125 20.0351379,0.256148563 20.0351379,1.19366157 L20.0351379,4.00610795 L19.9248031,4.00610795 L19.7040409,4.00610795 C19.5384461,4.00610795 19.3176839,4.06122852 19.1520891,4.06122852 C18.9313269,4.06122852 18.7105647,4.11644174 18.4898025,4.17156232 C18.2689476,4.22668289 18.0481854,4.22668289 17.8274232,4.28180347 C17.7170885,4.28180347 17.606661,4.33701669 17.4410662,4.33701669 C17.3307315,4.33701669 17.1651367,4.39213726 17.0547092,4.44725784 C16.7787796,4.50247106 16.5028501,4.55759163 16.2268278,4.66783279 C15.9508982,4.723046 15.674876,4.83328716 15.343779,4.94362095 C15.0677568,5.0538621 14.7365671,5.1641959 14.4054702,5.27443705 C13.1359717,5.71567959 11.7561384,6.32228385 10.3763052,7.20458364 C8.99647194,8.03176285 7.56147133,9.13473023 6.29206554,10.403152 C5.62968625,11.0648768 5.02256704,11.7266017 4.41544783,12.4986603 C4.13951827,12.8846896 3.86349599,13.2707189 3.58756643,13.6567482 C3.47713897,13.8773232 3.31163687,14.0427776 3.20120941,14.2633525 L2.98044722,14.5942613 L2.8148524,14.9250774 C1.82137617,16.634649 1.04866214,18.5647956 0.551970384,20.5500627 C0.331208192,21.5426963 0.165613368,22.5353299 0.0551859122,23.5830841 C0.0551859122,23.8588722 1.85436531e-05,24.0794472 1.85436531e-05,24.3551427 L1.85436531e-05,24.5757177 C0.0551859122,25.5684439 0.938234682,26.4507437 2.04213836,26.4507437" id="Fill-1" fill="#5AA885" sketch:type="MSShapeGroup" mask="url(#mask-8)"></path>
                    </g>
                    <g id="Page-1" transform="translate(562.707831, 227.974669) rotate(219.000000) translate(-562.707831, -227.974669) translate(540.707831, 203.474669)">
                        <mask id="mask-10" sketch:name="Clip 2" fill="white">
                            <use xlink:href="#path-9"></use>
                        </mask>
                        <g id="Clip-2"></g>
                        <path d="M2.04213836,26.4507437 C2.98044722,26.4507437 3.75316125,25.8441394 3.97392345,24.961747 L3.97392345,24.9066264 L3.97392345,24.8515058 C4.02909081,24.6309309 4.13951827,24.1345678 4.19468564,24.0243266 C4.36028046,23.1970548 4.58104265,22.4250888 4.9122323,21.6530301 C5.46409142,20.1640334 6.29206554,18.7853705 7.17511431,17.572162 L7.34070914,17.3515871 L7.50630396,17.1310121 C7.6166387,16.9655577 7.72706616,16.8552239 7.83749361,16.6897696 C8.11342317,16.414074 8.33418536,16.1383785 8.61011493,15.9178036 C9.1068994,15.4214405 9.65885124,14.9250774 10.2107104,14.5391407 C11.314614,13.7118688 12.4185177,13.050144 13.4671613,12.6089941 C14.5158049,12.1677516 15.5645412,11.8369355 16.44759,11.6163605 C16.6683522,11.5611473 16.8891144,11.5060267 17.1098766,11.5060267 C17.3306388,11.4509061 17.5514937,11.4509061 17.7169958,11.3957856 C17.9378507,11.3957856 18.1033528,11.3405723 18.2689476,11.3405723 L18.5449699,11.3405723 L18.8208995,11.3405723 L19.2624238,11.3405723 L19.6487809,11.3405723 L19.9799705,11.3405723 L20.090398,11.3405723 L20.090398,14.1531114 C20.090398,15.0905317 21.1942089,15.6420154 21.9117556,15.0354111 L22.7948044,14.4288069 C25.1681138,12.7744485 27.3759212,10.8994224 29.4732084,8.8590347 C30.190755,8.25243044 30.190755,7.14946306 29.4732084,6.5428588 L29.418041,6.48773822 C27.3759212,4.50247106 25.1681138,2.62744505 22.7948044,0.973086622 L21.8565882,0.31126914 C21.1390416,-0.295335125 20.0351379,0.256148563 20.0351379,1.19366157 L20.0351379,4.00610795 L19.9248031,4.00610795 L19.7040409,4.00610795 C19.5384461,4.00610795 19.3176839,4.06122852 19.1520891,4.06122852 C18.9313269,4.06122852 18.7105647,4.11644174 18.4898025,4.17156232 C18.2689476,4.22668289 18.0481854,4.22668289 17.8274232,4.28180347 C17.7170885,4.28180347 17.606661,4.33701669 17.4410662,4.33701669 C17.3307315,4.33701669 17.1651367,4.39213726 17.0547092,4.44725784 C16.7787796,4.50247106 16.5028501,4.55759163 16.2268278,4.66783279 C15.9508982,4.723046 15.674876,4.83328716 15.343779,4.94362095 C15.0677568,5.0538621 14.7365671,5.1641959 14.4054702,5.27443705 C13.1359717,5.71567959 11.7561384,6.32228385 10.3763052,7.20458364 C8.99647194,8.03176285 7.56147133,9.13473023 6.29206554,10.403152 C5.62968625,11.0648768 5.02256704,11.7266017 4.41544783,12.4986603 C4.13951827,12.8846896 3.86349599,13.2707189 3.58756643,13.6567482 C3.47713897,13.8773232 3.31163687,14.0427776 3.20120941,14.2633525 L2.98044722,14.5942613 L2.8148524,14.9250774 C1.82137617,16.634649 1.04866214,18.5647956 0.551970384,20.5500627 C0.331208192,21.5426963 0.165613368,22.5353299 0.0551859122,23.5830841 C0.0551859122,23.8588722 1.85436526e-05,24.0794472 1.85436526e-05,24.3551427 L1.85436526e-05,24.5757177 C0.0551859122,25.5684439 0.938234682,26.4507437 2.04213836,26.4507437" id="Fill-1" fill="#5AA885" sketch:type="MSShapeGroup" mask="url(#mask-10)"></path>
                    </g>
                    <g id="Page-1" transform="translate(312.707831, 227.974669) rotate(219.000000) translate(-312.707831, -227.974669) translate(290.707831, 203.474669)">
                        <mask id="mask-12" sketch:name="Clip 2" fill="white">
                            <use xlink:href="#path-11"></use>
                        </mask>
                        <g id="Clip-2"></g>
                        <path d="M2.04213836,26.4507437 C2.98044722,26.4507437 3.75316125,25.8441394 3.97392345,24.961747 L3.97392345,24.9066264 L3.97392345,24.8515058 C4.02909081,24.6309309 4.13951827,24.1345678 4.19468564,24.0243266 C4.36028046,23.1970548 4.58104265,22.4250888 4.9122323,21.6530301 C5.46409142,20.1640334 6.29206554,18.7853705 7.17511431,17.572162 L7.34070914,17.3515871 L7.50630396,17.1310121 C7.6166387,16.9655577 7.72706616,16.8552239 7.83749361,16.6897696 C8.11342317,16.414074 8.33418536,16.1383785 8.61011493,15.9178036 C9.1068994,15.4214405 9.65885124,14.9250774 10.2107104,14.5391407 C11.314614,13.7118688 12.4185177,13.050144 13.4671613,12.6089941 C14.5158049,12.1677516 15.5645412,11.8369355 16.44759,11.6163605 C16.6683522,11.5611473 16.8891144,11.5060267 17.1098766,11.5060267 C17.3306388,11.4509061 17.5514937,11.4509061 17.7169958,11.3957856 C17.9378507,11.3957856 18.1033528,11.3405723 18.2689476,11.3405723 L18.5449699,11.3405723 L18.8208995,11.3405723 L19.2624238,11.3405723 L19.6487809,11.3405723 L19.9799705,11.3405723 L20.090398,11.3405723 L20.090398,14.1531114 C20.090398,15.0905317 21.1942089,15.6420154 21.9117556,15.0354111 L22.7948044,14.4288069 C25.1681138,12.7744485 27.3759212,10.8994224 29.4732084,8.8590347 C30.190755,8.25243044 30.190755,7.14946306 29.4732084,6.5428588 L29.418041,6.48773822 C27.3759212,4.50247106 25.1681138,2.62744505 22.7948044,0.973086622 L21.8565882,0.31126914 C21.1390416,-0.295335125 20.0351379,0.256148563 20.0351379,1.19366157 L20.0351379,4.00610795 L19.9248031,4.00610795 L19.7040409,4.00610795 C19.5384461,4.00610795 19.3176839,4.06122852 19.1520891,4.06122852 C18.9313269,4.06122852 18.7105647,4.11644174 18.4898025,4.17156232 C18.2689476,4.22668289 18.0481854,4.22668289 17.8274232,4.28180347 C17.7170885,4.28180347 17.606661,4.33701669 17.4410662,4.33701669 C17.3307315,4.33701669 17.1651367,4.39213726 17.0547092,4.44725784 C16.7787796,4.50247106 16.5028501,4.55759163 16.2268278,4.66783279 C15.9508982,4.723046 15.674876,4.83328716 15.343779,4.94362095 C15.0677568,5.0538621 14.7365671,5.1641959 14.4054702,5.27443705 C13.1359717,5.71567959 11.7561384,6.32228385 10.3763052,7.20458364 C8.99647194,8.03176285 7.56147133,9.13473023 6.29206554,10.403152 C5.62968625,11.0648768 5.02256704,11.7266017 4.41544783,12.4986603 C4.13951827,12.8846896 3.86349599,13.2707189 3.58756643,13.6567482 C3.47713897,13.8773232 3.31163687,14.0427776 3.20120941,14.2633525 L2.98044722,14.5942613 L2.8148524,14.9250774 C1.82137617,16.634649 1.04866214,18.5647956 0.551970384,20.5500627 C0.331208192,21.5426963 0.165613368,22.5353299 0.0551859122,23.5830841 C0.0551859122,23.8588722 1.8543653e-05,24.0794472 1.8543653e-05,24.3551427 L1.8543653e-05,24.5757177 C0.0551859122,25.5684439 0.938234682,26.4507437 2.04213836,26.4507437" id="Fill-1" fill="#5AA885" sketch:type="MSShapeGroup" mask="url(#mask-12)"></path>
                    </g>
                    <g id="Page-1" transform="translate(152.707831, 71.974669) rotate(340.000000) translate(-152.707831, -71.974669) translate(130.707831, 47.474669)">
                        <mask id="mask-14" sketch:name="Clip 2" fill="white">
                            <use xlink:href="#path-13"></use>
                        </mask>
                        <g id="Clip-2"></g>
                        <path d="M8.46253358,39.0514788 C9.40084244,39.0514788 10.1735565,38.4448745 10.3943187,37.5624821 L10.3943187,37.5073615 L10.3943187,37.4522409 C10.449486,37.231666 10.5599135,36.7353029 10.6150809,36.6250617 C10.7806757,35.7977899 11.0014379,35.0258239 11.3326275,34.2537652 C11.8844866,32.7647685 12.7124608,31.3861056 13.5955095,30.1728971 L13.7611044,29.9523222 L13.9266992,29.7317472 C14.0370339,29.5662928 14.1474614,29.455959 14.2578888,29.2905047 C14.5338184,29.0148092 14.7545806,28.7391136 15.0305101,28.5185387 C15.5272946,28.0221756 16.0792465,27.5258125 16.6311056,27.1398758 C17.7350093,26.3126039 18.8389129,25.6508791 19.8875565,25.2097292 C20.9362001,24.7684867 21.9849364,24.4376706 22.8679852,24.2170956 C23.0887474,24.1618824 23.3095096,24.1067618 23.5302718,24.1067618 C23.751034,24.0516412 23.9718889,24.0516412 24.137391,23.9965207 C24.3582459,23.9965207 24.523748,23.9413074 24.6893428,23.9413074 L24.9653651,23.9413074 L25.2412947,23.9413074 L25.6828191,23.9413074 L26.0691761,23.9413074 L26.4003657,23.9413074 L26.5107932,23.9413074 L26.5107932,26.7538465 C26.5107932,27.6912668 27.6146041,28.2427505 28.3321508,27.6361463 L29.2151996,27.029542 C31.588509,25.3751836 33.7963164,23.5001576 35.8936036,21.4597698 C36.6111503,20.8531655 36.6111503,19.7501982 35.8936036,19.1435939 L35.8384362,19.0884733 C33.7963164,17.1032062 31.588509,15.2281802 29.2151996,13.5738217 L28.2769834,12.9120042 C27.5594368,12.3054 26.4555331,12.8568837 26.4555331,13.7943967 L26.4555331,16.6068431 L26.3451984,16.6068431 L26.1244362,16.6068431 C25.9588413,16.6068431 25.7380792,16.6619636 25.5724843,16.6619636 C25.3517221,16.6619636 25.1309599,16.7171768 24.9101977,16.7722974 C24.6893428,16.827418 24.4685806,16.827418 24.2478185,16.8825386 C24.1374837,16.8825386 24.0270563,16.9377518 23.8614614,16.9377518 C23.7511267,16.9377518 23.5855319,16.9928724 23.4751044,17.0479929 C23.1991749,17.1032062 22.9232453,17.1583267 22.647223,17.2685679 C22.3712935,17.3237811 22.0952712,17.4340223 21.7641742,17.5443561 C21.488152,17.6545972 21.1569623,17.764931 20.8258654,17.8751722 C19.5563669,18.3164147 18.1765336,18.923019 16.7967004,19.8053187 C15.4168672,20.632498 13.9818666,21.7354653 12.7124608,23.0038871 C12.0500815,23.6656119 11.4429623,24.3273368 10.835843,25.0993954 C10.5599135,25.4854247 10.2838912,25.871454 10.0079616,26.2574834 C9.89753419,26.4780583 9.73203209,26.6435127 9.62160463,26.8640876 L9.40084244,27.1949964 L9.23524762,27.5258125 C8.24177139,29.2353841 7.46905736,31.1655307 6.9723656,33.1507979 C6.75160341,34.1434314 6.58600859,35.136065 6.47558113,36.1838192 C6.47558113,36.4596073 6.42041376,36.6801823 6.42041376,36.9558778 L6.42041376,37.1764528 C6.47558113,38.169179 7.3586299,39.0514788 8.46253358,39.0514788" id="Fill-1" fill="#5AA885" sketch:type="MSShapeGroup" mask="url(#mask-14)"></path>
                    </g>
                </g>
            </g>
        </g>
    </g>
</svg>