<svg xmlns="http://www.w3.org/2000/svg" width="32" height="32" viewBox="0 0 32 32">
    <g fill="none" fill-rule="evenodd">
        <path d="M0 0h32v32H0z"/>
        <path fill="#32363F" d="M31.715 13.04c.179.954.285 1.942.285 2.96-.001 8.826-7.173 15.998-16 16C7.174 31.998.002 24.826 0 16 .002 7.174 7.174.002 16 0c1.018 0 2.006.106 2.96.285a.999.999 0 0 1 .226 1.895A2 2 0 0 0 18 4a1.995 1.995 0 0 0 1.431 1.902 1 1 0 0 1 .687 1.187A3.915 3.915 0 0 0 20 8a4.013 4.013 0 0 0 4 4c.297 0 .596-.043.913-.117a1 1 0 0 1 1.185.686c.252.829 1.008 1.433 1.903 1.431a2 2 0 0 0 1.82-1.186.998.998 0 0 1 1.03-.582.998.998 0 0 1 .864.808zm-5.82 12.855A13.952 13.952 0 0 0 30 16c0-.18-.019-.357-.027-.535A3.96 3.96 0 0 1 28 16c-1.494-.002-2.773-.831-3.456-2.037A5.033 5.033 0 0 1 24 14a6.006 6.006 0 0 1-6-6c0-.188.018-.366.038-.544C16.831 6.773 16.002 5.493 16 4a3.96 3.96 0 0 1 .536-1.973C16.356 2.019 16.18 2 16 2a13.95 13.95 0 0 0-9.894 4.105A13.953 13.953 0 0 0 2 16c0 3.862 1.569 7.356 4.106 9.895A13.95 13.95 0 0 0 16 30a13.95 13.95 0 0 0 9.895-4.105zM14.001 8a2 2 0 1 1-4.002-.001A2 2 0 0 1 14.001 8zm-4 8a2 2 0 1 1-4.002-.001 2 2 0 0 1 4.002.001zm10 8a2 2 0 1 1-4.002-.001A2 2 0 0 1 20 24zm-2-7A1 1 0 1 1 16 17a1 1 0 0 1 2 0zm8 4A1 1 0 1 1 24 21a1 1 0 0 1 2 0zm-14 2a1 1 0 1 1-1.999.001A1 1 0 0 1 12 23z"/>
    </g>
</svg>
