<svg xmlns="http://www.w3.org/2000/svg" width="32" height="32" viewBox="0 0 32 32">
    <g fill="none" fill-rule="evenodd">
        <path d="M0 0h32v32H0z"/>
        <path fill="#32363F" d="M25 24.822V16h2.004l.001 5.009c-.014.13-.246 1.814-2.005 3.813zM5 20.893V16h10v13.601c-7.863-2.847-9.745-7.889-10-8.708zM7 5.224V14H5V4.277c.68.407 1.343.706 2 .947zm4 .507V14H9V5.722c.337.042.675.076 1.014.076.332 0 .66-.027.986-.067zm4-1.647V14h-2V5.217a8.518 8.518 0 0 0 2-1.133zM17 16h2v12.882c-.615.261-1.286.509-2 .747V16zm6.034 10.627c-.585.438-1.263.873-2.034 1.297V16h2v10.627h.034zM21.983 5.798c1.654 0 2.624-.512 3.969-1.22.321-.17.663-.35 1.048-.543L27.003 14H17V4.082c1.444 1.103 3.17 1.716 4.983 1.716zm5.615-4.252c-1.099.483-1.919.915-2.578 1.262-1.25.66-1.878.99-3.037.99-2.005 0-3.89-.992-5.171-2.721L16.015 0l-.806 1.072c-1.301 1.732-3.195 2.726-5.195 2.726-1.734 0-3.402-.681-5.409-2.208L3 .368v20.666l.031.247c.076.301 2 7.423 12.678 10.675l.282.086.284-.081C28.197 28.551 28.969 21.497 29 21.109V.93l-1.402.616z"/>
    </g>
</svg>
