<svg xmlns="http://www.w3.org/2000/svg" width="32" height="31" viewBox="0 0 32 31">
    <g fill="none" fill-rule="evenodd">
        <path d="M0-1h32v32H0z"/>
        <path fill="#020303" d="M31.707 22.011a1 1 0 0 1-.26 1.601c-2.65 1.325-4.729 2.431-6.399 3.32-4.071 2.164-5.988 3.144-8.167 3.144-1.781 0-3.736-.654-7.183-1.85-.805-.28-1.699-.59-2.698-.929v.692a1 1 0 0 1-1 1H1a1 1 0 0 1-1-1V17a1 1 0 0 1 1-1h5a1 1 0 0 1 1 1h2.968c3.055 0 5.324 1.896 6.392 3.011h3.53c1.401 0 2.254.903 2.499 1.907l4.383-1.454c1.857-.532 3.321-.066 4.935 1.547zM12.906 16a4.87 4.87 0 0 1 0-9.739c.807 0 1.567.2 2.237.548L22 0h2v2l-1 1v2h-2v2h-2l-1.771 1.895A4.868 4.868 0 0 1 12.906 16zM11.5 11a1.5 1.5 0 1 0 0 3 1.5 1.5 0 0 0 0-3zm12.61 14.164c1.376-.73 3.028-1.61 5.051-2.639-.645-.352-1.18-.328-1.8-.15l-5.545 1.841c-.435.478-1.083.805-1.926.805h-7.276a1 1 0 1 1 0-2h7.276c.506 0 .581-.316.581-.505s-.075-.505-.581-.505h-3.968a.996.996 0 0 1-.751-.34c-.706-.804-2.624-2.67-5.203-2.67H7v6.186c1.265.424 2.378.81 3.354 1.15 6.99 2.426 6.99 2.426 13.756-1.173zM2 26.99h3V18H2v8.99z"/>
    </g>
</svg>
