<svg xmlns="http://www.w3.org/2000/svg" width="32" height="32" viewBox="0 0 32 32">
    <g fill="none" fill-rule="evenodd">
        <path d="M0 0h32v32H0z"/>
        <path fill="#32363F" d="M17.96 21.06L20 24v2H0V4h11.129l3.261 3H30v10.942l-2-2V9H13.61l-3.261-3H2v18h5.409a5.33 5.33 0 0 1 .287-.646c.518-.972 2.783-1.631 5.565-2.609v-1.957s-1.044-.652-1.044-1.956c-.347 0-.696-1.304 0-1.631 0-.264-1.391-3.26.696-3.26.348-1.305 5.217-1.305 5.566.326.235 1.108-.696 2.741-.696 2.934.696.327.347 1.631 0 1.631 0 1.304-1.044 1.956-1.044 1.956v1.957c1.227.432.3-.046 1.22.315zm9.747-1.767a.999.999 0 1 1-1.414 1.414L25 19.414V24a1 1 0 0 1-2 0v-4.586l-1.293 1.293a.999.999 0 1 1-1.414-1.414l3-3a.999.999 0 0 1 1.414 0l3 3zm2.586 8a.999.999 0 1 1 1.414 1.414l-3 3a.999.999 0 0 1-1.414 0l-3-3a.999.999 0 1 1 1.414-1.414L27 28.586V24a1 1 0 0 1 2 0v4.586l1.293-1.293zM16.61 5l-3.26-3H3V0h11.13l3.26 3H27v2H16.61z"/>
    </g>
</svg>
