<?xml version="1.0" encoding="utf-8"?>
<!-- Generator: Adobe Illustrator 22.1.0, SVG Export Plug-In . SVG Version: 6.00 Build 0)  -->
<svg version="1.1" id="Layer_1" xmlns="http://www.w3.org/2000/svg" xmlns:xlink="http://www.w3.org/1999/xlink" x="0px" y="0px"
	 viewBox="0 0 32 32" style="enable-background:new 0 0 32 32;" xml:space="preserve">
<g>
	<path d="M31.3,1.4c-6.5,0-13.2,1.4-15.3,3.9C13.9,2.8,7.2,1.4,0.7,1.4C0.3,1.4,0,1.7,0,2.1v23c0,0.4,0.3,0.7,0.7,0.7
		c8.2,0,14.6,2.2,14.6,4.2c0,0.4,0.3,0.7,0.7,0.7c0.4,0,0.7-0.3,0.7-0.7c0-1.9,6.4-4.2,14.6-4.2c0.4,0,0.7-0.3,0.7-0.7v-23
		C32,1.7,31.7,1.4,31.3,1.4z M23.7,3.5c1.3-0.2,2.7-0.4,4.2-0.6v9.3l-1.6-1.6c-0.3-0.3-0.7-0.3-1,0l-1.6,1.6V3.5z M1.4,24.4V2.8
		C9.3,2.9,15.3,5.1,15.3,7v20.6C12.8,25.6,7.1,24.4,1.4,24.4z M30.6,24.4c-5.7,0.1-11.4,1.3-13.9,3.2V7c0-1.1,2.2-2.3,5.6-3.2v10.1
		c0,0.3,0.2,0.5,0.4,0.6c0.3,0.1,0.6,0,0.8-0.2l2.3-2.3l2.3,2.3c0.1,0.1,0.3,0.2,0.5,0.2c0.1,0,0.2,0,0.3-0.1
		c0.3-0.1,0.4-0.4,0.4-0.6V2.8c0.5,0,0.9,0,1.4,0V24.4z"/>
	<path d="M3.4,9c3.5,0.2,6.6,0.8,8.8,1.7c0.1,0,0.2,0,0.2,0c0.3,0,0.5-0.2,0.6-0.4c0.1-0.4,0-0.8-0.4-0.9c-2.3-0.9-5.6-1.5-9.2-1.8
		c-0.4,0-0.7,0.3-0.7,0.6C2.8,8.7,3,9,3.4,9z"/>
	<path d="M3.4,13.2c3.5,0.2,6.6,0.8,8.8,1.7c0.1,0,0.2,0,0.2,0c0.3,0,0.5-0.2,0.6-0.4c0.1-0.4,0-0.8-0.4-0.9
		c-2.3-0.9-5.6-1.5-9.2-1.8c-0.4,0-0.7,0.3-0.7,0.6C2.8,12.9,3,13.2,3.4,13.2z"/>
	<path d="M12.8,17.8c-2.3-0.9-5.6-1.5-9.2-1.8c-0.4,0-0.7,0.3-0.7,0.6c0,0.4,0.3,0.7,0.6,0.7c3.5,0.2,6.6,0.8,8.8,1.7
		c0.1,0,0.2,0,0.2,0c0.3,0,0.5-0.2,0.6-0.4C13.3,18.3,13.1,17.9,12.8,17.8z"/>
	<path d="M12.8,21.9c-2.3-0.9-5.6-1.5-9.2-1.8c-0.4,0-0.7,0.3-0.7,0.6c0,0.4,0.3,0.7,0.6,0.7c3.5,0.2,6.6,0.8,8.8,1.7
		c0.1,0,0.2,0,0.2,0c0.3,0,0.5-0.2,0.6-0.4C13.3,22.5,13.1,22.1,12.8,21.9z"/>
	<path d="M28.5,16c-3.6,0.2-6.9,0.9-9.2,1.8c-0.4,0.1-0.5,0.5-0.4,0.9c0.1,0.3,0.4,0.4,0.6,0.4c0.1,0,0.2,0,0.2,0
		c2.2-0.8,5.4-1.4,8.8-1.7c0.4,0,0.7-0.4,0.6-0.7C29.2,16.3,28.9,16,28.5,16z"/>
	<path d="M28.5,20.2c-3.6,0.2-6.9,0.9-9.2,1.8c-0.4,0.1-0.5,0.5-0.4,0.9c0.1,0.3,0.4,0.4,0.6,0.4c0.1,0,0.2,0,0.2,0
		c2.2-0.8,5.4-1.4,8.8-1.7c0.4,0,0.7-0.4,0.6-0.7C29.2,20.4,28.9,20.1,28.5,20.2z"/>
</g>
</svg>
