<svg xmlns="http://www.w3.org/2000/svg" width="32" height="32" viewBox="0 0 32 32">
    <g fill="none" fill-rule="evenodd">
        <path d="M0 0h32v32H0z"/>
        <path fill="#32363F" d="M17.783 15.202c.696.326.348 1.63 0 1.63 0 1.305-1.043 1.957-1.043 1.957v1.956c.096.035.187.065.282.099A8.959 8.959 0 0 0 16 25c0 .339.023.672.059 1H0V4h11.13l3.26 3H30v10.518a8.998 8.998 0 0 0-2-.995V9H13.61l-3.261-3H2v18h5.409c.081-.213.171-.428.287-.646.518-.972 2.783-1.63 5.565-2.61V18.79s-1.043-.652-1.043-1.957c-.348 0-.696-1.304 0-1.63 0-.265-1.392-3.261.695-3.261.348-1.304 5.218-1.304 5.566.326.235 1.108-.696 2.742-.696 2.935zm12.831 10.842l1.386.803-1.902 3.306-1.382-.802a6.01 6.01 0 0 1-1.796 1.043V32h-3.809v-1.606c-.634-.237-1.287-.59-1.813-1.043l-1.394.802L18 26.847l1.386-.803a5.803 5.803 0 0 1-.099-1.045c0-.355.038-.704.1-1.043l-1.385-.804 1.907-3.305 1.39.803c.525-.454 1.178-.808 1.812-1.044V18h3.81v1.606c.634.236 1.268.59 1.795 1.044l1.378-.803 1.904 3.305-1.384.804c.062.339.098.688.098 1.043 0 .357-.036.706-.098 1.045zM25 28a3 3 0 1 0 .002-5.998A3 3 0 0 0 25 28zM16.61 5l-3.26-3H3V0h11.13l3.26 3H27v2H16.61z"/>
    </g>
</svg>
