<svg xmlns="http://www.w3.org/2000/svg" width="32" height="32" viewBox="0 0 32 32">
    <g fill="none" fill-rule="evenodd">
        <path d="M0 0h32v32H0z"/>
        <path fill="#32363F" d="M27.954 23.025c-.863.917-2.214 1.819-3.393 1.59-.776-.149-1.442-.78-1.987-1.868 1.074-1.231 2.356-2.368 3.854-3.123a1 1 0 0 0-.9-1.786c-1.648.831-3.044 2.034-4.222 3.333-.576-.505-1.08-1.166-1.08-1.93.002-.847.631-1.775 1.682-2.482 1.126-.756 2.323-1.068 3.592-1.4 1.3-.338 2.736-.713 4.25-1.605.725 3.092-.263 7.641-1.796 9.271M8.998 21.116c-1.299.177-2.984-.818-4.613-2.751-2.13-2.532-3.182-9.483-1.682-13.793C4.658 5.911 6.738 6.543 8.607 7.11c2.247.682 4.19 1.271 5.536 2.874l.001.001c.982 1.165 2.077 2.876 1.718 4.418-.225.972-1.028 1.843-2.37 2.602-1.698-2.675-3.907-5.492-6.768-8.089a1 1 0 0 0-1.344 1.481c2.74 2.487 4.86 5.217 6.484 7.808-.82 1.774-1.783 2.757-2.866 2.911m22.19-9.335a1.002 1.002 0 0 0-1.515-.381c-1.61 1.224-3.1 1.613-4.678 2.024-1.374.359-2.795.729-4.202 1.676-1.627 1.094-2.563 2.601-2.567 4.135-.002.912.34 2.202 1.807 3.47a26.335 26.335 0 0 0-2.168 3.437 42.367 42.367 0 0 0-3.342-7.419c1.827-1.047 2.934-2.344 3.287-3.867.438-1.886-.28-3.958-2.136-6.16-1.73-2.056-4.148-2.79-6.486-3.5-2.123-.644-4.318-1.311-6.247-2.957a1.001 1.001 0 0 0-1.535.296C-1.154 7.42.051 16.319 2.854 19.652c1.91 2.269 3.957 3.486 5.833 3.486.2 0 .397-.014.591-.042 1.48-.21 2.742-1.179 3.773-2.869 2.712 4.931 3.604 8.918 3.62 8.983.093.434.462.755.904.787l.072.002c.415 0 .791-.257.938-.651.015-.041.92-2.415 2.668-4.913.958 1.444 2.073 1.98 2.932 2.144.243.046.49.069.741.069 1.496 0 3.124-.807 4.485-2.253 2.236-2.376 3.522-8.792 1.777-12.614"/>
    </g>
</svg>
