<svg xmlns="http://www.w3.org/2000/svg" width="32" height="32" viewBox="0 0 32 32">
    <path fill="#32363F" fill-rule="evenodd" d="M22.809 7c3.574 0 5.276 2.807 9.19 2.807C32 22.358 24.172 25 21.448 25c-2.723 0-3.744-2.642-5.447-2.642-1.702 0-2.723 2.642-5.446 2.642C7.83 25 0 22.358 0 9.807 3.915 9.807 5.618 7 9.192 7 14.639 7 16 11.624 16 11.624S17.362 7 22.809 7zm0 2c-3.906 0-4.881 3.157-4.89 3.189l-1.92 3.514-1.917-3.514c-.1-.308-1.13-3.189-4.89-3.189-1.261 0-2.231.5-3.46 1.133-1.061.548-2.222 1.147-3.673 1.459C2.804 22.676 10.472 23 10.554 23c.76 0 1.27-.394 2.106-1.089.83-.692 1.865-1.553 3.34-1.553 1.476 0 2.51.861 3.34 1.553.837.695 1.347 1.089 2.107 1.089.082 0 7.75-.324 8.495-11.408-1.451-.312-2.612-.911-3.675-1.459C25.04 9.5 24.07 9 22.809 9zm-.415 4c3.246 0 5.606.824 5.606.824C26.976 16.448 24.12 17 21.898 17 20.282 17 19 16.708 19 16.708S19.148 13 22.394 13zM9.606 13C12.852 13 13 16.708 13 16.708S11.718 17 10.102 17C7.88 17 5.024 16.447 4 13.824c0 0 2.36-.824 5.606-.824z"/>
</svg>
