<?xml version="1.0" encoding="UTF-8"?>
<svg width="84px" height="20px" viewBox="0 0 84 20" version="1.1" xmlns="http://www.w3.org/2000/svg" xmlns:xlink="http://www.w3.org/1999/xlink">
    <!-- Generator: Sketch 52.2 (67145) - http://www.bohemiancoding.com/sketch -->
    <title>app-storev3</title>
    <desc>Created with Sketch.</desc>
    <g id="app-store" stroke="none" stroke-width="1" fill="none" fill-rule="evenodd">
        <path d="M22.4954341,11.6332237 L25.7193748,11.6332237 L24.1297452,6.95283852 L24.085923,6.95283852 L22.4954341,11.6332237 Z M26.1412711,12.9642163 L22.074397,12.9642163 L21.0974193,15.8478904 L19.3746044,15.8478904 L23.227523,5.17760889 L25.01736,5.17760889 L28.8694193,15.8478904 L27.1173896,15.8478904 L26.1412711,12.9642163 Z M35.5479259,11.958797 C35.5479259,10.3837748 34.7342074,9.34836741 33.4917185,9.34836741 C32.2715704,9.34836741 31.4509778,10.4052563 31.4509778,11.958797 C31.4509778,13.5260859 32.2715704,14.5761007 33.4917185,14.5761007 C34.7342074,14.5761007 35.5479259,13.5484267 35.5479259,11.958797 Z M37.1891111,11.958797 C37.1891111,14.3758933 35.8950667,15.9294341 33.9428296,15.9294341 C32.8343852,15.9294341 31.9536444,15.4336415 31.4948,14.5683674 L31.4578519,14.5683674 L31.4578519,18.4212859 L29.8613481,18.4212859 L29.8613481,8.06893037 L31.4071556,8.06893037 L31.4071556,9.36297481 L31.4363704,9.36297481 C31.8797481,8.52777481 32.8266519,7.98730074 33.9136148,7.98730074 C35.8881926,7.98730074 37.1891111,9.54771556 37.1891111,11.958797 Z M44.1099289,11.958797 C44.1099289,10.3837748 43.2962104,9.34836741 42.0537215,9.34836741 C40.8335733,9.34836741 40.0129807,10.4052563 40.0129807,11.958797 C40.0129807,13.5260859 40.8335733,14.5761007 42.0537215,14.5761007 C43.2962104,14.5761007 44.1099289,13.5484267 44.1099289,11.958797 Z M45.7511141,11.958797 C45.7511141,14.3758933 44.4570696,15.9294341 42.5048326,15.9294341 C41.3963881,15.9294341 40.5156474,15.4336415 40.056803,14.5683674 L40.0198548,14.5683674 L40.0198548,18.4212859 L38.4233511,18.4212859 L38.4233511,8.06893037 L39.9691585,8.06893037 L39.9691585,9.36297481 L39.9983733,9.36297481 C40.4417511,8.52777481 41.3886548,7.98730074 42.4756178,7.98730074 C44.4501956,7.98730074 45.7511141,9.54771556 45.7511141,11.958797 Z M51.4102815,12.8751111 C51.5288593,13.9328593 52.5565333,14.628 53.9614222,14.628 C55.3070222,14.628 56.2754074,13.9328593 56.2754074,12.9790815 C56.2754074,12.1507556 55.6911111,11.654963 54.308563,11.3155556 L52.9260148,10.982163 C50.9660444,10.5087111 50.0569481,9.59274074 50.0569481,8.10536296 C50.0569481,6.26482963 51.6611852,5 53.9390815,5 C56.1937778,5 57.7395852,6.26482963 57.792,8.10536296 L56.1800296,8.10536296 C56.0829333,7.04074074 55.2030519,6.39801481 53.9167407,6.39801481 C52.6304296,6.39801481 51.7505481,7.04847407 51.7505481,7.99451852 C51.7505481,8.74894815 52.3125037,9.19318519 53.6873185,9.53259259 L54.8636444,9.8213037 C57.0521778,10.339437 57.9621333,11.2184593 57.9621333,12.7797333 C57.9621333,14.7757926 56.3716444,16.0260148 53.8428444,16.0260148 C51.4764444,16.0260148 49.8790815,14.8050074 49.7759704,12.8751111 L51.4102815,12.8751111 Z M61.4083644,6.22753778 L61.4083644,8.06893037 L62.8880089,8.06893037 L62.8880089,9.33290074 L61.4083644,9.33290074 L61.4083644,13.6214637 C61.4083644,14.2882489 61.7048089,14.5984415 62.3552681,14.5984415 C62.5176681,14.5984415 62.7771644,14.5761007 62.8802756,14.5614933 L62.8802756,15.8185896 C62.7032681,15.8632711 62.3483941,15.8924859 61.99352,15.8924859 C60.4184978,15.8924859 59.8041274,15.3013156 59.8041274,13.7924563 L59.8041274,9.33290074 L58.672483,9.33290074 L58.672483,8.06893037 L59.8041274,8.06893037 L59.8041274,6.22753778 L61.4083644,6.22753778 Z M69.4966578,11.958797 C69.4966578,10.2798044 68.7267615,9.28907852 67.4335763,9.28907852 C66.1395319,9.28907852 65.3696356,10.2875378 65.3696356,11.958797 C65.3696356,13.6446637 66.1395319,14.6276563 67.4335763,14.6276563 C68.7267615,14.6276563 69.4966578,13.6446637 69.4966578,11.958797 Z M63.743917,11.958797 C63.743917,9.51076741 65.1848948,7.97269333 67.4335763,7.97269333 C69.6891319,7.97269333 71.1240948,9.51076741 71.1240948,11.958797 C71.1240948,14.4128415 69.6960059,15.9449007 67.4335763,15.9449007 C65.1711467,15.9449007 63.743917,14.4128415 63.743917,11.958797 Z M72.4403081,8.06858667 L73.9629156,8.06858667 L73.9629156,9.39270519 L73.9998637,9.39270519 C74.2447526,8.5128237 74.9545007,7.98695704 75.8713304,7.98695704 C76.1007526,7.98695704 76.2923674,8.01703111 76.4186785,8.04710519 L76.4186785,9.54049778 C76.2923674,9.48808296 76.0113896,9.44426074 75.701197,9.44426074 C74.673523,9.44426074 74.0368119,10.1394015 74.0368119,11.2340978 L74.0368119,15.84832 L72.4403081,15.84832 L72.4403081,8.06858667 Z M78.3829452,11.2413156 L82.2719526,11.2413156 C82.2350044,10.0503822 81.4737007,9.26673778 80.364397,9.26673778 C79.2619674,9.26673778 78.4645748,10.0658489 78.3829452,11.2413156 Z M83.7808119,13.5630341 C83.565997,14.9756563 82.1911822,15.9449007 80.4314193,15.9449007 C78.1681304,15.9449007 76.7632415,14.4283081 76.7632415,11.9957452 C76.7632415,9.55544889 78.1758637,7.97269333 80.364397,7.97269333 C82.5168415,7.97269333 83.8701748,9.45147852 83.8701748,11.8101452 L83.8701748,12.3574933 L78.3752119,12.3574933 L78.3752119,12.4537304 C78.3752119,13.784723 79.2112711,14.6577304 80.4683674,14.6577304 C81.355123,14.6577304 82.051123,14.2358341 82.2650785,13.5630341 L83.7808119,13.5630341 Z M7.12013832,5.79526765 C7.70064463,5.79526765 8.77795399,5 10.1802589,5 C12.5940841,5 13.5436521,6.71186114 13.5436521,6.71186114 C13.5436521,6.71186114 11.68641,7.65823078 11.68641,9.95462096 C11.68641,12.5451736 14,13.4378955 14,13.4378955 C14,13.4378955 12.3826959,17.9748632 10.1982013,17.9748632 C9.19483409,17.9748632 8.41484485,17.3009495 7.35765023,17.3009495 C6.28034087,17.3009495 5.21121283,18 4.51492686,18 C2.52012582,18 1.43529633e-12,13.6962929 1.43529633e-12,10.2368617 C1.43529633e-12,6.83318698 2.13314982,5.04768682 4.13390347,5.04768682 C5.43459082,5.04768682 6.44393888,5.79526765 7.12013832,5.79526765 Z M7.8894883,2.50865242 C9.18116323,1.00734775 10.9769324,1 10.9769324,1 C10.9769324,1 11.2439806,2.41150834 9.96083161,3.77124067 C8.59067957,5.22313315 7.03328053,4.98555592 7.03328053,4.98555592 C7.03328053,4.98555592 6.74088067,3.8436929 7.8894883,2.50865242 Z" id="Fill-6" fill="#95999D"></path>
    </g>
</svg>