<?xml version="1.0" encoding="utf-8"?>
<!-- Generator: Adobe Illustrator 19.2.1, SVG Export Plug-In . SVG Version: 6.00 Build 0)  -->
<svg version="1.1" id="Calque_1" xmlns="http://www.w3.org/2000/svg" xmlns:xlink="http://www.w3.org/1999/xlink" x="0px" y="0px"
	 viewBox="0 0 147.9 148" style="enable-background:new 0 0 147.9 148;" xml:space="preserve">
<style type="text/css">
	.st0{fill:#1F284E;}
	.st1{fill:#FFFFFF;}
	.st2{clip-path:url(#SVGID_2_);fill:url(#SVGID_3_);}
	.st3{fill:none;}
</style>
<g>
	<g>
		<rect y="0.1" class="st0" width="147.9" height="147.9"/>
		<g>
			<path class="st1" d="M27.2,56H18v-9.5h9.9c3.7,0,5.5,1.6,5.5,4.6C33.3,55.1,30.5,56,27.2,56 M17.9,29.3h8.3
				c3.2,0,5.4,0.9,5.4,3.5c0,3.3-2.1,4.2-5.4,4.2h-8.3V29.3z M123,17.1l-7.3,30h-0.1l-7.3-30H48.1v30c-1.5-3.9-4.6-6.1-7.9-7.2
				c3.8-2.1,6.3-4.9,6.3-10c0-5.2-2.9-12.8-16.3-12.8h-28v51h29c7.3,0,14.4-3.5,16.9-10.2v10.2h15.7V48.7h14.4V37H63.8v-7.7h22.1
				v38.9h14.9V35.4h0.1l8.9,32.7h11.7l8.9-32.7h0.2v32.7h14.9v-51H123z"/>
			<path class="st1" d="M2.1,74.1h7.9c2,0,3.8,0.3,5.4,0.8c1.6,0.6,2.9,1.5,3.9,2.8c1,1.3,1.5,3.1,1.5,5.3c0,1.7-0.3,3.1-1,4.3
				c-0.7,1.3-1.5,2.2-2.7,2.8v0.1c0.6,0.3,1.2,0.8,1.8,1.3c0.5,0.5,1,1.2,1.4,1.9c0.4,0.7,0.7,1.5,0.9,2.4c0.2,0.9,0.3,1.8,0.3,2.8
				c0,2.8-0.8,5.1-2.5,6.9c-1.7,1.7-4.2,2.6-7.6,2.6H2.1V74.1z M9,80.8v6.9h1.7c1.1,0,1.9-0.3,2.4-0.9c0.5-0.6,0.8-1.5,0.8-2.6
				c0-1.2-0.3-2.1-1-2.6c-0.7-0.5-1.5-0.8-2.4-0.8H9z M9,94.3v7.1h1.8c2.6,0,3.9-1.2,3.9-3.5c0-1.5-0.4-2.4-1.1-2.9
				c-0.7-0.5-1.7-0.7-3-0.7H9z"/>
			<path class="st1" d="M44.5,74.1v22.2c0,2.6-0.5,4.8-1.5,6.7c-1,1.9-2.3,3.4-4.1,4.4c-1.7,1-3.7,1.5-6,1.5c-2.1,0-3.9-0.4-5.5-1.3
				c-1.6-0.9-2.8-2.2-3.7-4c-0.9-1.8-1.3-4-1.3-6.7V74.1l6.6,0v20.4c0,1.3,0.1,2.5,0.4,3.4c0.3,1,0.7,1.8,1.3,2.4
				c0.6,0.6,1.4,0.9,2.5,0.9c1.9,0,3.2-0.7,3.8-2.2c0.6-1.5,0.9-3.6,0.9-6.3V74.1L44.5,74.1z"/>
			<path class="st1" d="M59.1,83.1c-0.8-0.9-1.5-1.6-2.1-2c-0.6-0.4-1.4-0.6-2.2-0.6c-0.6,0-1.2,0.2-1.7,0.7c-0.6,0.5-0.8,1.2-0.8,2
				c0,1.2,0.6,2.1,1.8,2.7c1.3,0.7,2.5,1.4,3.9,2c1.3,0.7,2.5,1.7,3.5,3.2c1,1.5,1.5,3.6,1.5,6.5c0,3.6-0.9,6.4-2.6,8.4
				c-1.7,2-3.9,3-6.5,3c-1.5,0-3-0.3-4.4-1c-1.4-0.7-2.7-1.7-3.8-3l3.5-6.4c1.1,1.8,2.6,2.7,4.5,2.7c0.7,0,1.4-0.3,2.1-0.8
				c0.7-0.5,1-1.3,1-2.3c0-1.2-0.6-2.1-1.9-2.8c-0.6-0.3-1.2-0.7-1.9-1l-1-0.5l-1-0.5c-1.3-0.7-2.5-1.8-3.4-3.2
				c-1-1.4-1.4-3.5-1.4-6.3c0-2.1,0.4-4,1.2-5.6c0.8-1.6,1.9-2.8,3.2-3.7c1.3-0.8,2.7-1.2,4.2-1.2c1.4,0,2.7,0.3,4.1,1
				c1.4,0.7,2.5,1.7,3.6,2.9L59.1,83.1z"/>
			<polygon class="st1" points="63.8,77 70.4,73.4 70.4,108.2 63.8,108.1 			"/>
			<polygon class="st1" points="94,108.2 79,91.9 79,108.1 72.4,108.1 72.4,73.6 87.5,89.8 87.5,74.1 94,74.1 			"/>
			<polygon class="st1" points="109.2,108.2 95.9,108.2 95.9,74.1 110.5,74.1 110.5,81.3 102.4,81.3 102.4,87.2 109.2,87.2 
				109.2,94.4 102.4,94.4 102.4,101 109.2,101 			"/>
			<path class="st1" d="M124.5,83.1c-0.8-0.9-1.5-1.6-2.1-2c-0.6-0.4-1.4-0.6-2.2-0.6c-0.6,0-1.2,0.2-1.7,0.7
				c-0.6,0.5-0.8,1.2-0.8,2c0,1.2,0.6,2.1,1.8,2.7c1.3,0.7,2.5,1.4,3.9,2c1.3,0.7,2.5,1.7,3.5,3.2c1,1.5,1.5,3.6,1.5,6.5
				c0,3.6-0.9,6.4-2.6,8.4c-1.7,2-3.9,3-6.5,3c-1.5,0-3-0.3-4.4-1c-1.4-0.7-2.7-1.7-3.8-3l3.6-6.4c1.1,1.8,2.6,2.7,4.5,2.7
				c0.7,0,1.4-0.3,2.1-0.8c0.7-0.5,1-1.3,1-2.3c0-1.2-0.6-2.1-1.9-2.8c-0.6-0.3-1.2-0.7-1.9-1l-1-0.5l-1-0.5
				c-1.3-0.7-2.5-1.8-3.4-3.2c-1-1.4-1.4-3.5-1.4-6.3c0-2.1,0.4-4,1.2-5.6c0.8-1.6,1.9-2.8,3.2-3.7c1.3-0.8,2.7-1.2,4.2-1.2
				c1.4,0,2.7,0.3,4.1,1c1.4,0.7,2.6,1.7,3.6,2.9L124.5,83.1z"/>
			<path class="st1" d="M141.7,83.1c-0.8-0.9-1.5-1.6-2.1-2c-0.6-0.4-1.4-0.6-2.2-0.6c-0.6,0-1.2,0.2-1.7,0.7
				c-0.6,0.5-0.9,1.2-0.9,2c0,1.2,0.6,2.1,1.8,2.7c1.3,0.7,2.5,1.4,3.9,2c1.3,0.7,2.5,1.7,3.5,3.2c1,1.5,1.5,3.6,1.5,6.5
				c0,3.6-0.9,6.4-2.6,8.4c-1.7,2-3.9,3-6.5,3c-1.5,0-3-0.3-4.5-1c-1.4-0.7-2.7-1.7-3.8-3l3.5-6.4c1.1,1.8,2.6,2.7,4.5,2.7
				c0.7,0,1.5-0.3,2.1-0.8c0.7-0.5,1-1.3,1-2.3c0-1.2-0.6-2.1-1.9-2.8c-0.6-0.3-1.2-0.7-1.9-1l-1-0.5l-1-0.5
				c-1.3-0.7-2.5-1.8-3.4-3.2c-1-1.4-1.4-3.5-1.4-6.3c0-2.1,0.4-4,1.2-5.6c0.8-1.6,1.9-2.8,3.2-3.7c1.3-0.8,2.7-1.2,4.2-1.2
				c1.4,0,2.7,0.3,4.1,1c1.4,0.7,2.5,1.7,3.6,2.9L141.7,83.1z"/>
		</g>
		<g>
			<defs>
				<path id="SVGID_1_" d="M107.1,124l-19.1-12.4l-22,15l-18.4-7.3L0,147.5v0.4h12.8l35.7-20.8l18.2,7.6l21.2-14.5l19.4,12.5
					l25.8-21.5c-4-1.2-4.7-1.8-6.4-3.5C126.7,107.8,107.1,124,107.1,124"/>
			</defs>
			<clipPath id="SVGID_2_">
				<use xlink:href="#SVGID_1_"  style="overflow:visible;"/>
			</clipPath>
			
				<linearGradient id="SVGID_3_" gradientUnits="userSpaceOnUse" x1="-311.0824" y1="461.6708" x2="-310.0791" y2="461.6708" gradientTransform="matrix(132.7127 0 0 -132.7127 41284.5898 61397.4727)">
				<stop  offset="0" style="stop-color:#AF6226"/>
				<stop  offset="0.583" style="stop-color:#F1C096"/>
				<stop  offset="1" style="stop-color:#AF6226"/>
			</linearGradient>
			<rect x="0" y="107.8" class="st2" width="133.1" height="40.1"/>
		</g>
		<g>
			<path class="st3" d="M147.9,148h-148V0h148V148z"/>
		</g>
	</g>
</g>
</svg>
