<?xml version="1.0" encoding="utf-8"?>
<!-- Generator: Adobe Illustrator 17.1.0, SVG Export Plug-In . SVG Version: 6.00 Build 0)  -->
<!DOCTYPE svg PUBLIC "-//W3C//DTD SVG 1.1//EN" "http://www.w3.org/Graphics/SVG/1.1/DTD/svg11.dtd">
<svg version="1.1" id="Calque_1" xmlns="http://www.w3.org/2000/svg" xmlns:xlink="http://www.w3.org/1999/xlink" x="0px" y="0px"
	 viewBox="0 0 260.8 62.4" enable-background="new 0 0 260.8 62.4" xml:space="preserve">
<g>
	<g>
		<rect x="99.2" y="0" display="none" fill="#1F284E" width="62.3" height="62.3"/>
		<g>
			<path fill="#FFFFFF" d="M110.7,23.6h-3.9v-4h4.2c1.6,0,2.3,0.7,2.3,1.9C113.3,23.2,112.1,23.6,110.7,23.6 M106.8,12.3h3.5
				c1.3,0,2.3,0.4,2.3,1.5c0,1.4-0.9,1.8-2.3,1.8h-3.5C106.8,15.6,106.8,12.3,106.8,12.3z M151.1,7.2L148,19.8h0l-3.1-12.6h-25.4
				v12.6c-0.6-1.6-1.9-2.6-3.3-3c1.6-0.9,2.7-2.1,2.7-4.2c0-2.2-1.2-5.4-6.9-5.4h-11.8v21.5h12.2c3.1,0,6.1-1.5,7.1-4.3v4.3h6.6
				v-8.2h6.1v-4.9h-6.1v-3.2h9.3v16.4h6.3V14.9h0l3.8,13.8h4.9l3.8-13.8h0.1v13.8h6.3V7.2C160.5,7.2,151.1,7.2,151.1,7.2z"/>
			<path fill="#FFFFFF" d="M100.1,31.2h3.3c0.8,0,1.6,0.1,2.3,0.3c0.7,0.3,1.2,0.6,1.6,1.2c0.4,0.5,0.6,1.3,0.6,2.2
				c0,0.7-0.1,1.3-0.4,1.8c-0.3,0.5-0.6,0.9-1.1,1.2v0c0.3,0.1,0.5,0.3,0.8,0.5c0.2,0.2,0.4,0.5,0.6,0.8s0.3,0.6,0.4,1
				c0.1,0.4,0.1,0.8,0.1,1.2c0,1.2-0.3,2.1-1.1,2.9c-0.7,0.7-1.8,1.1-3.2,1.1h-3.9V31.2z M103,34V37h0.7c0.5,0,0.8-0.1,1-0.4
				c0.2-0.3,0.3-0.6,0.3-1.1c0-0.5-0.1-0.9-0.4-1.1c-0.3-0.2-0.6-0.3-1-0.3H103z M103,39.7v3h0.8c1.1,0,1.6-0.5,1.6-1.5
				c0-0.6-0.2-1-0.5-1.2s-0.7-0.3-1.3-0.3H103z"/>
			<path fill="#FFFFFF" d="M118,31.2v9.4c0,1.1-0.2,2-0.6,2.8c-0.4,0.8-1,1.4-1.7,1.9c-0.7,0.4-1.6,0.6-2.5,0.6
				c-0.9,0-1.6-0.2-2.3-0.5c-0.7-0.4-1.2-0.9-1.6-1.7c-0.4-0.8-0.5-1.7-0.5-2.8v-9.6h2.8v8.6c0,0.5,0,1.1,0.2,1.4
				c0.1,0.4,0.3,0.8,0.5,1c0.3,0.3,0.6,0.4,1.1,0.4c0.8,0,1.3-0.3,1.6-0.9c0.3-0.6,0.4-1.5,0.4-2.7v-7.8H118z"/>
			<path fill="#FFFFFF" d="M124.1,35c-0.3-0.4-0.6-0.7-0.9-0.8c-0.3-0.2-0.6-0.3-0.9-0.3c-0.3,0-0.5,0.1-0.7,0.3
				c-0.3,0.2-0.3,0.5-0.3,0.8c0,0.5,0.3,0.9,0.8,1.1c0.5,0.3,1.1,0.6,1.6,0.8c0.5,0.3,1.1,0.7,1.5,1.3c0.4,0.6,0.6,1.5,0.6,2.7
				c0,1.5-0.4,2.7-1.1,3.5c-0.7,0.8-1.6,1.3-2.7,1.3c-0.6,0-1.3-0.1-1.9-0.4c-0.6-0.3-1.1-0.7-1.6-1.3l1.5-2.7
				c0.5,0.8,1.1,1.1,1.9,1.1c0.3,0,0.6-0.1,0.9-0.3c0.3-0.2,0.4-0.5,0.4-1c0-0.5-0.3-0.9-0.8-1.2c-0.3-0.1-0.5-0.3-0.8-0.4l-0.4-0.2
				l-0.4-0.2c-0.5-0.3-1.1-0.8-1.4-1.3c-0.4-0.6-0.6-1.5-0.6-2.7c0-0.9,0.2-1.7,0.5-2.4s0.8-1.2,1.3-1.6c0.5-0.3,1.1-0.5,1.8-0.5
				c0.6,0,1.1,0.1,1.7,0.4c0.6,0.3,1.1,0.7,1.5,1.2L124.1,35z"/>
			<polygon fill="#FFFFFF" points="126.1,32.4 128.9,30.9 128.9,45.6 126.1,45.5 			"/>
			<polygon fill="#FFFFFF" points="138.8,45.6 132.5,38.7 132.5,45.5 129.7,45.5 129.7,31 136.1,37.8 136.1,31.2 138.8,31.2 			"/>
			<polygon fill="#FFFFFF" points="145.2,45.6 139.6,45.6 139.6,31.2 145.8,31.2 145.8,34.3 142.4,34.3 142.4,36.7 145.2,36.7 
				145.2,39.8 142.4,39.8 142.4,42.6 145.2,42.6 			"/>
			<path fill="#FFFFFF" d="M151.7,35c-0.3-0.4-0.6-0.7-0.9-0.8s-0.6-0.3-0.9-0.3c-0.3,0-0.5,0.1-0.7,0.3c-0.3,0.2-0.3,0.5-0.3,0.8
				c0,0.5,0.3,0.9,0.8,1.1c0.5,0.3,1.1,0.6,1.6,0.8c0.5,0.3,1.1,0.7,1.5,1.3c0.4,0.6,0.6,1.5,0.6,2.7c0,1.5-0.4,2.7-1.1,3.5
				c-0.7,0.8-1.6,1.3-2.7,1.3c-0.6,0-1.3-0.1-1.9-0.4s-1.1-0.7-1.6-1.3l1.5-2.7c0.5,0.8,1.1,1.1,1.9,1.1c0.3,0,0.6-0.1,0.9-0.3
				c0.3-0.2,0.4-0.5,0.4-1c0-0.5-0.3-0.9-0.8-1.2c-0.3-0.1-0.5-0.3-0.8-0.4l-0.4-0.2l-0.4-0.2c-0.5-0.3-1.1-0.8-1.4-1.3
				c-0.4-0.6-0.6-1.5-0.6-2.7c0-0.9,0.2-1.7,0.5-2.4s0.8-1.2,1.3-1.6c0.5-0.3,1.1-0.5,1.8-0.5c0.6,0,1.1,0.1,1.7,0.4
				s1.1,0.7,1.5,1.2L151.7,35z"/>
			<path fill="#FFFFFF" d="M158.9,35c-0.3-0.4-0.6-0.7-0.9-0.8c-0.3-0.2-0.6-0.3-0.9-0.3c-0.3,0-0.5,0.1-0.7,0.3
				c-0.3,0.2-0.4,0.5-0.4,0.8c0,0.5,0.3,0.9,0.8,1.1c0.5,0.3,1.1,0.6,1.6,0.8c0.5,0.3,1.1,0.7,1.5,1.3c0.4,0.6,0.6,1.5,0.6,2.7
				c0,1.5-0.4,2.7-1.1,3.5c-0.7,0.8-1.6,1.3-2.7,1.3c-0.6,0-1.3-0.1-1.9-0.4c-0.6-0.3-1.1-0.7-1.6-1.3l1.5-2.7
				c0.5,0.8,1.1,1.1,1.9,1.1c0.3,0,0.6-0.1,0.9-0.3c0.3-0.2,0.4-0.5,0.4-1c0-0.5-0.3-0.9-0.8-1.2c-0.3-0.1-0.5-0.3-0.8-0.4l-0.4-0.2
				l-0.4-0.2c-0.5-0.3-1.1-0.8-1.4-1.3c-0.4-0.6-0.6-1.5-0.6-2.7c0-0.9,0.2-1.7,0.5-2.4s0.8-1.2,1.3-1.6c0.5-0.3,1.1-0.5,1.8-0.5
				c0.6,0,1.1,0.1,1.7,0.4s1.1,0.7,1.5,1.2L158.9,35z"/>
		</g>
		<g>
			<g>
				<defs>
					<path id="SVGID_1_" d="M144.4,52.2l-8-5.2l-9.3,6.3l-7.8-3.1L99.2,62.1v0.2h5.4l15-8.8l7.7,3.2l8.9-6.1l8.2,5.3l10.9-9.1
						c-1.7-0.5-2-0.8-2.7-1.5C152.6,45.4,144.4,52.2,144.4,52.2"/>
				</defs>
				<clipPath id="SVGID_2_">
					<use xlink:href="#SVGID_1_"  overflow="visible"/>
				</clipPath>
				<rect x="99.2" y="45.4" clip-path="url(#SVGID_2_)" fill="#FFFFFF" width="56.1" height="16.9"/>
			</g>
		</g>
		<g>
			<path fill="none" d="M161.6,62.4H99.2V0h62.4V62.4z"/>
		</g>
	</g>
</g>
</svg>
