<?xml version="1.0" encoding="UTF-8" standalone="no"?>
<svg width="162px" height="150px" viewBox="0 0 162 150" version="1.1" xmlns="http://www.w3.org/2000/svg" xmlns:xlink="http://www.w3.org/1999/xlink" xmlns:sketch="http://www.bohemiancoding.com/sketch/ns">
    <!-- Generator: Sketch 3.4.2 (15855) - http://www.bohemiancoding.com/sketch -->
    <title>business-devices</title>
    <desc>Created with Sketch.</desc>
    <defs></defs>
    <g id="Page-1" stroke="none" stroke-width="1" fill="none" fill-rule="evenodd" sketch:type="MSPage">
        <g id="1a-about" sketch:type="MSArtboardGroup" transform="translate(-894.000000, -6098.000000)">
            <g id="5" sketch:type="MSLayerGroup" transform="translate(281.000000, 5265.000000)">
                <g id="Chief-Digital-Office-+-briefcase@2x" transform="translate(84.000000, 756.000000)" sketch:type="MSShapeGroup">
                    <g id="icon-+-circle" transform="translate(529.000000, 93.000000)">
                        <g id="Rectangle-1-+-screen-+-phone">
                            <path d="M32,26 L32,10.9911036 C32,4.92339376 36.9257397,0 42.9906302,0 L151.00937,0 C157.078027,0 162,4.92355884 162,10.9911036 L162,74.0088964 C162,80.0766062 157.07426,85 151.00937,85 L56,85 L56,107.002901 C56,113.076519 51.0756917,118 45.0011202,118 L10.9988798,118 C4.92527854,118 0,113.074699 0,107.002901 L0,36.9970993 C0,30.923481 4.92430829,26 10.9988798,26 L32,26 Z" id="Shape" fill="#222222"></path>
                            <g id="screen" transform="translate(33.000000, 1.000000)">
                                <path d="M56.5,80 L56.5,80 L71.5,80 L76,80 L76,83 L76,97 L76,100 L71.5,100 L56.5,100 L52,100 L52,97 L52,83 L52,80 L56.5,80 Z" id="Shape" fill="#222222"></path>
                                <rect id="Rectangle-120" fill="#D3D3D8" x="55" y="83" width="18" height="14"></rect>
                                <rect id="Rectangle-141" fill="#B2B2BD" x="55" y="83" width="18" height="6"></rect>
                                <rect id="Rectangle-119" fill="#222222" x="34" y="97" width="60" height="3" rx="2"></rect>
                                <rect id="Rectangle-1" fill="#D3D3D8" x="0" y="0" width="128" height="83" rx="10"></rect>
                                <path d="M2,9.99110357 L2,9.99110357 L2,73.0088964 C2,77.4198032 5.57904361,81 9.99063018,81 L118.00937,81 C122.417726,81 126,77.419432 126,73.0088964 L126,9.99110357 C126,5.58019678 122.420956,2 118.00937,2 L9.99063018,2 C5.58227408,2 2,5.58056801 2,9.99110357 L2,9.99110357 Z M0,9.99110357 C0,4.47316943 4.48053479,0 9.99063018,0 L118.00937,0 C123.527043,0 128,4.4771443 128,9.99110357 L128,73.0088964 C128,78.5268306 123.519465,83 118.00937,83 L9.99063018,83 C4.47295749,83 0,78.5228557 0,73.0088964 L0,9.99110357 L0,9.99110357 Z" id="Shape" fill="#222222"></path>
                                <rect id="Rectangle-140" fill="#FFFFFF" x="6" y="7" width="116" height="70" rx="4"></rect>
                                <path d="M8,11.0021821 L8,11.0021821 L8,72.9978179 C8,74.0995073 8.89705211,75 9.99298257,75 L118.007017,75 C119.100283,75 120,74.0999357 120,72.9978179 L120,11.0021821 C120,9.90049268 119.102948,9 118.007017,9 L9.99298257,9 C8.89971714,9 8,9.90006428 8,11.0021821 L8,11.0021821 Z M6,11.0021821 C6,8.79183797 7.7988029,7 9.99298257,7 L118.007017,7 C120.212281,7 122,8.80069104 122,11.0021821 L122,72.9978179 C122,75.208162 120.201197,77 118.007017,77 L9.99298257,77 C7.78771919,77 6,75.199309 6,72.9978179 L6,11.0021821 L6,11.0021821 Z" id="Shape" fill="#222222"></path>
                                <g id="feed" transform="translate(32.000000, 15.000000)">
                                    <path d="M1,1 L13,1 L13,13 L1,13 L1,1 Z M17,29 L51,29 L51,51 L17,51 L17,29 Z M1,23 L13,23 L13,35 L1,35 L1,23 Z" id="Rectangle-85" fill="#B46BD7"></path>
                                    <path d="M0,2.00585866 C0,0.898053512 0.897060126,0 2.00585866,0 L11.9941413,0 C13.1019465,0 14,0.897060126 14,2.00585866 L14,11.9941413 C14,13.1019465 13.1029399,14 11.9941413,14 L2.00585866,14 C0.898053512,14 0,13.1029399 0,11.9941413 L0,2.00585866 Z M2,2 L12,2 L12,12 L2,12 L2,2 Z M16,3 C16,2.44771525 16.4446309,2 17.0008717,2 L30.9991283,2 C31.5518945,2 32,2.44386482 32,3 C32,3.55228475 31.5553691,4 30.9991283,4 L17.0008717,4 C16.4481055,4 16,3.55613518 16,3 Z M16,7 C16,6.44771525 16.4445307,6 17.0025482,6 L62.9974518,6 C63.5511439,6 64,6.44386482 64,7 C64,7.55228475 63.5554693,8 62.9974518,8 L17.0025482,8 C16.4488561,8 16,7.55613518 16,7 Z M16,11 C16,10.4477153 16.4473652,10 16.9981537,10 L45.0018463,10 C45.5531114,10 46,10.4438648 46,11 C46,11.5522847 45.5526348,12 45.0018463,12 L16.9981537,12 C16.4468886,12 16,11.5561352 16,11 Z" id="Rectangle-69" fill="#222222"></path>
                                    <path d="M0,24.0058587 C0,22.8980535 0.897060126,22 2.00585866,22 L11.9941413,22 C13.1019465,22 14,22.8970601 14,24.0058587 L14,33.9941413 C14,35.1019465 13.1029399,36 11.9941413,36 L2.00585866,36 C0.898053512,36 0,35.1029399 0,33.9941413 L0,24.0058587 Z M2,24 L12,24 L12,34 L2,34 L2,24 Z M16,25 C16,24.4477153 16.4446309,24 17.0008717,24 L30.9991283,24 C31.5518945,24 32,24.4438648 32,25 C32,25.5522847 31.5553691,26 30.9991283,26 L17.0008717,26 C16.4481055,26 16,25.5561352 16,25 Z M16,55 C16,54.4477153 16.4473652,54 16.9981537,54 L45.0018463,54 C45.5531114,54 46,54.4438648 46,55 C46,55.5522847 45.5526348,56 45.0018463,56 L16.9981537,56 C16.4468886,56 16,55.5561352 16,55 Z M16,30.0049466 C16,28.8976452 16.8898926,28 17.9997073,28 L50.0002927,28 C51.1047006,28 52,28.8970262 52,30.0049466 L52,49.9950534 C52,51.1023548 51.1101074,52 50.0002927,52 L17.9997073,52 C16.8952994,52 16,51.1029738 16,49.9950534 L16,30.0049466 Z M18,30 L50,30 L50,50 L18,50 L18,30 Z" id="Rectangle-69-Copy" fill="#222222"></path>
                                    <g id="Path-1-+-Path-2-+-Oval-1" transform="translate(22.000000, 32.000000)" fill="#222222">
                                        <path d="M2.70710678,15.7071068 L8.20710678,10.2071068 L6.79289322,10.2071068 L10.7928932,14.2071068 L12.2071068,12.7928932 L8.20710678,8.79289322 L7.5,8.08578644 L6.79289322,8.79289322 L1.29289322,14.2928932 L2.70710678,15.7071068 L2.70710678,15.7071068 Z" id="Shape"></path>
                                        <path d="M10.7071068,12.2071068 L15.7071068,7.20710678 L14.2928932,7.20710678 L22.2928932,15.2071068 L23.7071068,13.7928932 L15.7071068,5.79289322 L15,5.08578644 L14.2928932,5.79289322 L9.29289322,10.7928932 L10.7071068,12.2071068 L10.7071068,12.2071068 Z" id="Shape"></path>
                                        <path d="M3.5,7 C5.43299662,7 7,5.43299662 7,3.5 C7,1.56700338 5.43299662,0 3.5,0 C1.56700338,0 0,1.56700338 0,3.5 C0,5.43299662 1.56700338,7 3.5,7 L3.5,7 Z M3.5,5 C2.67157288,5 2,4.32842712 2,3.5 C2,2.67157288 2.67157288,2 3.5,2 C4.32842712,2 5,2.67157288 5,3.5 C5,4.32842712 4.32842712,5 3.5,5 L3.5,5 Z" id="Shape"></path>
                                    </g>
                                </g>
                            </g>
                            <g id="phone" transform="translate(1.000000, 27.000000)">
                                <rect id="Rectangle-117" fill="#D3D3D8" x="1" y="1" width="52" height="88" rx="9"></rect>
                                <path d="M0,79.2199707 L0,11 L6,2 L12,2 C12,2 6,4 6,10 L6,79 C6,87 12,88 12,88 L6,88 L0,79.2199707 Z" id="Rectangle-74" fill="#B2B2BD"></path>
                                <rect id="Rectangle-118" fill="#FFFFFF" x="1" y="11" width="52" height="62"></rect>
                                <path d="M2,9.9970993 L2,9.9970993 L2,80.0029007 C2,84.4178476 5.58213589,88 9.99887985,88 L44.0011202,88 C48.4189503,88 52,84.4195519 52,80.0029007 L52,9.9970993 C52,5.58215242 48.4178641,2 44.0011202,2 L9.99887985,2 C5.58104972,2 2,5.58044814 2,9.9970993 L2,9.9970993 Z M0,9.9970993 C0,4.47585382 4.47650502,0 9.99887985,0 L44.0011202,0 C49.523349,0 54,4.47849832 54,9.9970993 L54,80.0029007 C54,85.5241462 49.523495,90 44.0011202,90 L9.99887985,90 C4.47665099,90 0,85.5215017 0,80.0029007 L0,9.9970993 L0,9.9970993 Z" id="Shape" fill="#222222"></path>
                                <rect id="Rectangle-96" fill="#FFFFFF" x="2" y="11" width="50" height="62"></rect>
                                <rect id="Rectangle-76" fill="#E9E9EB" x="2" y="12" width="4" height="60"></rect>
                                <path d="M1,10 L53,10 L53,12 L1,12 L1,10 Z M1,72 L53,72 L53,74 L1,74 L1,72 Z M19,6 C19,5.44771525 19.4446309,5 20.0008717,5 L33.9991283,5 C34.5518945,5 35,5.44386482 35,6 C35,6.55228475 34.5553691,7 33.9991283,7 L20.0008717,7 C19.4481055,7 19,6.55613518 19,6 Z M27,84 C28.6568542,84 30,82.6568542 30,81 C30,79.3431458 28.6568542,78 27,78 C25.3431458,78 24,79.3431458 24,81 C24,82.6568542 25.3431458,84 27,84 Z M27,86 L27,86 C24.2385763,86 22,83.7614237 22,81 C22,78.2385763 24.2385763,76 27,76 C29.7614237,76 32,78.2385763 32,81 C32,83.7614237 29.7614237,86 27,86 L27,86 Z" id="Rectangle-15" fill="#222222"></path>
                                <g id="feed" transform="translate(6.000000, 17.000000)">
                                    <path d="M1,1 L13,1 L13,13 L1,13 L1,1 Z M17,29 L41,29 L41,45 L17,45 L17,29 Z M1,23 L13,23 L13,35 L1,35 L1,23 Z" id="Rectangle-85" fill="#B46BD7"></path>
                                    <path d="M0,2.00585866 C0,0.898053512 0.897060126,0 2.00585866,0 L11.9941413,0 C13.1019465,0 14,0.897060126 14,2.00585866 L14,11.9941413 C14,13.1019465 13.1029399,14 11.9941413,14 L2.00585866,14 C0.898053512,14 0,13.1029399 0,11.9941413 L0,2.00585866 Z M2,2 L12,2 L12,12 L2,12 L2,2 Z M16,3 C16,2.44771525 16.4446309,2 17.0008717,2 L30.9991283,2 C31.5518945,2 32,2.44386482 32,3 C32,3.55228475 31.5553691,4 30.9991283,4 L17.0008717,4 C16.4481055,4 16,3.55613518 16,3 Z M16,7 C16,6.44771525 16.4512787,6 17.0032996,6 L40.9967004,6 C41.5508075,6 42,6.44386482 42,7 C42,7.55228475 41.5487213,8 40.9967004,8 L17.0032996,8 C16.4491925,8 16,7.55613518 16,7 Z M16,11 C16,10.4477153 16.4394583,10 17.0024617,10 L36.9975383,10 C37.5511826,10 38,10.4438648 38,11 C38,11.5522847 37.5605417,12 36.9975383,12 L17.0024617,12 C16.4488174,12 16,11.5561352 16,11 Z" id="Rectangle-69" fill="#222222"></path>
                                    <path d="M0,24.0058587 C0,22.8980535 0.897060126,22 2.00585866,22 L11.9941413,22 C13.1019465,22 14,22.8970601 14,24.0058587 L14,33.9941413 C14,35.1019465 13.1029399,36 11.9941413,36 L2.00585866,36 C0.898053512,36 0,35.1029399 0,33.9941413 L0,24.0058587 Z M2,24 L12,24 L12,34 L2,34 L2,24 Z M16,25 C16,24.4477153 16.4446309,24 17.0008717,24 L30.9991283,24 C31.5518945,24 32,24.4438648 32,25 C32,25.5522847 31.5553691,26 30.9991283,26 L17.0008717,26 C16.4481055,26 16,25.5561352 16,25 Z M16,49 C16,48.4477153 16.4389178,48 17.0030706,48 L37.9969294,48 C38.55091,48 39,48.4438648 39,49 C39,49.5522847 38.5610822,50 37.9969294,50 L17.0030706,50 C16.44909,50 16,49.5561352 16,49 Z M16,29.9950893 C16,28.8932319 16.8949789,28 17.9970047,28 L40.0029953,28 C41.1059106,28 42,28.8926228 42,29.9950893 L42,44.0049107 C42,45.1067681 41.1050211,46 40.0029953,46 L17.9970047,46 C16.8940894,46 16,45.1073772 16,44.0049107 L16,29.9950893 Z M18,30 L40,30 L40,44 L18,44 L18,30 Z" id="Rectangle-69-Copy" fill="#222222"></path>
                                    <g id="Path-1-+-Path-2-+-Oval-1" transform="translate(18.000000, 31.000000)" fill="#222222">
                                        <path d="M1.70710678,14.7071068 L7.20710678,9.20710678 L5.79289322,9.20710678 L8.79289322,12.2071068 L10.2071068,10.7928932 L7.20710678,7.79289322 L6.5,7.08578644 L5.79289322,7.79289322 L0.292893219,13.2928932 L1.70710678,14.7071068 L1.70710678,14.7071068 Z" id="Shape"></path>
                                        <path d="M9.70710678,11.2071068 L14.7071068,6.20710678 L13.2928932,6.20710678 L21.2928932,14.2071068 L22.7071068,12.7928932 L14.7071068,4.79289322 L14,4.08578644 L13.2928932,4.79289322 L8.29289322,9.79289322 L9.70710678,11.2071068 L9.70710678,11.2071068 Z" id="Shape"></path>
                                        <path d="M4,6 C5.65685425,6 7,4.65685425 7,3 C7,1.34314575 5.65685425,0 4,0 C2.34314575,0 1,1.34314575 1,3 C1,4.65685425 2.34314575,6 4,6 L4,6 Z M4,4 C3.44771525,4 3,3.55228475 3,3 C3,2.44771525 3.44771525,2 4,2 C4.55228475,2 5,2.44771525 5,3 C5,3.55228475 4.55228475,4 4,4 L4,4 Z" id="Shape"></path>
                                    </g>
                                </g>
                            </g>
                        </g>
                    </g>
                </g>
            </g>
        </g>
    </g>
</svg>