<?xml version="1.0" encoding="UTF-8" standalone="no"?>
<svg width="162px" height="150px" viewBox="0 0 162 150" version="1.1" xmlns="http://www.w3.org/2000/svg" xmlns:xlink="http://www.w3.org/1999/xlink" xmlns:sketch="http://www.bohemiancoding.com/sketch/ns">
    <!-- Generator: Sketch 3.4.2 (15855) - http://www.bohemiancoding.com/sketch -->
    <title>business-server</title>
    <desc>Created with Sketch.</desc>
    <defs></defs>
    <g id="Page-1" stroke="none" stroke-width="1" fill="none" fill-rule="evenodd" sketch:type="MSPage">
        <g id="1a-about" sketch:type="MSArtboardGroup" transform="translate(-384.000000, -5739.000000)">
            <g id="5" sketch:type="MSLayerGroup" transform="translate(281.000000, 5265.000000)">
                <g id="Hosting-providers-ca-+-chair@2x" transform="translate(103.000000, 450.000000)" sketch:type="MSShapeGroup">
                    <g id="icon-+-circle" transform="translate(16.000000, 43.000000)">
                        <g id="server">
                            <path d="M129.962094,34 L130,34 L130,35 L130,92.9061572 C130,103.604068 114.270326,112 95.1044672,112 L34.8929722,112 C15.7221802,112 0,103.605442 0,92.904792 L0,35 L0,34 L0.0374555759,34 C0.438376597,29.1701518 4.0440424,24.7238382 10.187998,21.3724919 C15.7750015,18.3278161 22.9867724,16.4329372 30.7945157,15.9412705 L29.8809635,16.7233209 C30.85944,12.2996899 34.5405866,8.30588363 40.3448703,5.27348868 C46.8643405,1.86571916 55.437997,0 64.5096325,0 C73.5787817,0 82.1549111,1.86574398 88.6741786,5.27201042 C94.4499885,8.28927156 98.1228989,12.2596478 99.1266279,16.6609705 L98.1994456,15.8844561 C115.50068,16.7121614 129.153392,24.3589246 129.962093,33.9999898 Z" id="Shape" fill="#222222"></path>
                            <path d="M105,37 L127,37 L127,96 L122,103 L105,110 L105,37 Z" id="Rectangle-143" fill="#FFFFFF"></path>
                            <g id="block" transform="translate(1.000000, 37.000000)">
                                <rect id="Rectangle-89" fill="#E9E9EB" x="24" y="43" width="82" height="29"></rect>
                                <path d="M1,31 L11.2519531,39.4907227 L24.4423828,43.5024414 L24.4423828,72.4321289 C24.4423828,72.4321289 14.7565918,69.9226074 9.56884766,67.1887207 C4.38110352,64.454834 1,57.4128418 1,57.4128418 L1,31 Z" id="Rectangle-90" fill="#D4D4D8"></path>
                                <path d="M33.8929722,72 L33.8929722,72 L94.1044672,72 C111.83287,72 126,64.4380975 126,55.9061572 L126,0 L128,2 L0,2 L2,0 L2,55.904792 C2,64.4397417 16.1596194,72 33.8929722,72 L33.8929722,72 Z M33.8929722,74 C15.200112,74 0,65.8828936 0,55.904792 L0,0 L128,0 L128,55.9061572 C128,65.8828936 112.789645,74 94.1044672,74 L33.8929722,74 L33.8929722,74 Z" id="Shape" fill="#222222"></path>
                            </g>
                            <g id="block" transform="translate(1.000000, 34.000000)">
                                <rect id="Rectangle-89" fill="#E9E9EB" x="24" y="17" width="82" height="29"></rect>
                                <path d="M1,5 L11.2519531,13.4907227 L24.4423828,17.5024414 L24.4423828,46.4321289 C24.4423828,46.4321289 14.7565918,43.9226074 9.56884766,41.1887207 C4.38110352,38.454834 1,31.4128418 1,31.4128418 L1,5 Z" id="Rectangle-90" fill="#D4D4D8"></path>
                                <path d="M33.8929722,46 L33.8929722,46 L94.1044672,46 C111.83287,46 126,38.4380975 126,29.9061572 L126,0 L128,2 L0,2 L2,0 L2,29.904792 C2,38.4397417 16.1596194,46 33.8929722,46 L33.8929722,46 Z M33.8929722,48 C15.200112,48 0,39.8828936 0,29.904792 L0,0 L128,0 L128,29.9061572 C128,39.8828936 112.789645,48 94.1044672,48 L33.8929722,48 L33.8929722,48 Z" id="Shape" fill="#222222"></path>
                            </g>
                            <g id="top" transform="translate(1.000000, 1.000000)">
                                <path d="M33.8929722,52 C15.200112,52 0,43.8828936 0,33.904792 C0,29.1464881 3.43129214,24.6517002 9.66651329,21.2505712 C15.1284134,18.2740712 22.2035329,16.4212682 29.8573629,15.9392936 C30.7612779,11.8527504 34.2284194,8.0747801 39.8081101,5.15972168 C46.1790466,1.8295917 54.5959549,0 63.5096325,0 C72.4207494,0 80.8402185,1.8295917 87.2111549,5.1583563 C92.7677996,8.06112643 96.2246984,11.8186163 97.1516594,15.8833137 C114.418229,16.7093606 128,24.4769332 128,33.9061572 C128,43.8828936 112.789645,52 94.1044672,52 L33.8929722,52 Z" id="cozy-black-white" fill="#FFFFFF"></path>
                                <path d="M33.8929722,50 L33.8929722,50 L94.1044672,50 C111.83287,50 126,42.4380975 126,33.9061572 C126,25.9218021 113.503401,18.6678819 97.0560871,17.8810289 L95.5393454,17.8084667 L95.2017225,16.3280001 C94.418936,12.8955038 91.3480511,9.57591064 86.2849738,6.93097823 C80.2210188,3.76260908 72.1189621,2 63.5096325,2 C54.8979648,2 46.79854,3.76252129 40.7342197,6.93238096 C35.6476742,9.58980018 32.5720896,12.9266108 31.8101617,16.3712392 L31.4851155,17.8407528 L29.9830573,17.93534 C22.5907202,18.4008479 15.8024374,20.184456 10.6242391,23.0063505 C4.97376745,26.088516 2,29.9820816 2,33.904792 C2,42.4397417 16.1596194,50 33.8929722,50 L33.8929722,50 Z M33.8929722,52 C15.200112,52 0,43.8828936 0,33.904792 C0,29.1464881 3.43129214,24.6517002 9.66651329,21.2505712 C15.1284134,18.2740712 22.2035329,16.4212682 29.8573629,15.9392936 C30.7612779,11.8527504 34.2284194,8.0747801 39.8081101,5.15972168 C46.1790466,1.8295917 54.5959549,0 63.5096325,0 C72.4207494,0 80.8402185,1.8295917 87.2111549,5.1583563 C92.7677996,8.06112643 96.2246984,11.8186163 97.1516594,15.8833137 C114.418229,16.7093606 128,24.4769332 128,33.9061572 C128,43.8828936 112.789645,52 94.1044672,52 L33.8929722,52 L33.8929722,52 Z" id="Shape" fill="#222222"></path>
                            </g>
                            <g id="details" transform="translate(31.000000, 18.000000)">
                                <path d="M1,71 L29,71 L29,75 L1,75 L1,71 Z M1,42 L29,42 L29,46 L1,46 L1,42 Z M1,79 L29,79 L29,83 L1,83 L1,79 Z M1,50 L29,50 L29,54 L1,54 L1,50 Z" id="Rectangle-159" fill="#F03E3E"></path>
                                <path d="M0,70.990778 C0,70.4435864 0.447365195,70 0.998153687,70 L29.0018463,70 C29.5531114,70 30,70.4509752 30,70.990778 L30,75.009222 C30,75.5564136 29.5526348,76 29.0018463,76 L0.998153687,76 C0.446888627,76 0,75.5490248 0,75.009222 L0,70.990778 Z M0,41.990778 C0,41.4435864 0.447365195,41 0.998153687,41 L29.0018463,41 C29.5531114,41 30,41.4509752 30,41.990778 L30,46.009222 C30,46.5564136 29.5526348,47 29.0018463,47 L0.998153687,47 C0.446888627,47 0,46.5490248 0,46.009222 L0,41.990778 Z M0,78.990778 C0,78.4435864 0.447365195,78 0.998153687,78 L29.0018463,78 C29.5531114,78 30,78.4509752 30,78.990778 L30,83.009222 C30,83.5564136 29.5526348,84 29.0018463,84 L0.998153687,84 C0.446888627,84 0,83.5490248 0,83.009222 L0,78.990778 Z M0,49.990778 C0,49.4435864 0.447365195,49 0.998153687,49 L29.0018463,49 C29.5531114,49 30,49.4509752 30,49.990778 L30,54.009222 C30,54.5564136 29.5526348,55 29.0018463,55 L0.998153687,55 C0.446888627,55 0,54.5490248 0,54.009222 L0,49.990778 Z M2,80 L28,80 L28,82 L2,82 L2,80 Z M2,51 L28,51 L28,53 L2,53 L2,51 Z M2,43 L28,43 L28,45 L2,45 L2,43 Z M2,72 L28,72 L28,74 L2,74 L2,72 Z" id="Path" fill="#222222"></path>
                                <path d="M43,79 C44.6568542,79 46,77.6568542 46,76 C46,74.3431458 44.6568542,73 43,73 C41.3431458,73 40,74.3431458 40,76 C40,77.6568542 41.3431458,79 43,79 Z M55,79 C56.6568542,79 58,77.6568542 58,76 C58,74.3431458 56.6568542,73 55,73 C53.3431458,73 52,74.3431458 52,76 C52,77.6568542 53.3431458,79 55,79 Z M67,79 C68.6568542,79 70,77.6568542 70,76 C70,74.3431458 68.6568542,73 67,73 C65.3431458,73 64,74.3431458 64,76 C64,77.6568542 65.3431458,79 67,79 Z M43,50 C44.6568542,50 46,48.6568542 46,47 C46,45.3431458 44.6568542,44 43,44 C41.3431458,44 40,45.3431458 40,47 C40,48.6568542 41.3431458,50 43,50 Z M55,50 C56.6568542,50 58,48.6568542 58,47 C58,45.3431458 56.6568542,44 55,44 C53.3431458,44 52,45.3431458 52,47 C52,48.6568542 53.3431458,50 55,50 Z M67,50 C68.6568542,50 70,48.6568542 70,47 C70,45.3431458 68.6568542,44 67,44 C65.3431458,44 64,45.3431458 64,47 C64,48.6568542 65.3431458,50 67,50 Z" id="Rectangle-57" fill="#F03E3E"></path>
                                <path d="M43,80 C45.209139,80 47,78.209139 47,76 C47,73.790861 45.209139,72 43,72 C40.790861,72 39,73.790861 39,76 C39,78.209139 40.790861,80 43,80 Z M43,78 C44.1045695,78 45,77.1045695 45,76 C45,74.8954305 44.1045695,74 43,74 C41.8954305,74 41,74.8954305 41,76 C41,77.1045695 41.8954305,78 43,78 Z M43,51 C45.209139,51 47,49.209139 47,47 C47,44.790861 45.209139,43 43,43 C40.790861,43 39,44.790861 39,47 C39,49.209139 40.790861,51 43,51 Z M43,49 C44.1045695,49 45,48.1045695 45,47 C45,45.8954305 44.1045695,45 43,45 C41.8954305,45 41,45.8954305 41,47 C41,48.1045695 41.8954305,49 43,49 Z M55,80 C57.209139,80 59,78.209139 59,76 C59,73.790861 57.209139,72 55,72 C52.790861,72 51,73.790861 51,76 C51,78.209139 52.790861,80 55,80 Z M55,78 C56.1045695,78 57,77.1045695 57,76 C57,74.8954305 56.1045695,74 55,74 C53.8954305,74 53,74.8954305 53,76 C53,77.1045695 53.8954305,78 55,78 Z M55,51 C57.209139,51 59,49.209139 59,47 C59,44.790861 57.209139,43 55,43 C52.790861,43 51,44.790861 51,47 C51,49.209139 52.790861,51 55,51 Z M55,49 C56.1045695,49 57,48.1045695 57,47 C57,45.8954305 56.1045695,45 55,45 C53.8954305,45 53,45.8954305 53,47 C53,48.1045695 53.8954305,49 55,49 Z M67,80 C69.209139,80 71,78.209139 71,76 C71,73.790861 69.209139,72 67,72 C64.790861,72 63,73.790861 63,76 C63,78.209139 64.790861,80 67,80 Z M67,78 C68.1045695,78 69,77.1045695 69,76 C69,74.8954305 68.1045695,74 67,74 C65.8954305,74 65,74.8954305 65,76 C65,77.1045695 65.8954305,78 67,78 Z M67,51 C69.209139,51 71,49.209139 71,47 C71,44.790861 69.209139,43 67,43 C64.790861,43 63,44.790861 63,47 C63,49.209139 64.790861,51 67,51 Z M67,49 C68.1045695,49 69,48.1045695 69,47 C69,45.8954305 68.1045695,45 67,45 C65.8954305,45 65,45.8954305 65,47 C65,48.1045695 65.8954305,49 67,49 Z" id="Oval-45" fill="#222222"></path>
                                <g id="Oval-31-+-Path-11" transform="translate(14.000000, 0.000000)">
                                    <ellipse id="Oval-31" fill="#F03E3E" cx="20" cy="11" rx="19" ry="10"></ellipse>
                                    <path d="M20,22 C31.045695,22 40,17.0751322 40,11 C40,4.92486775 31.045695,0 20,0 C8.954305,0 0,4.92486775 0,11 C0,17.0751322 8.954305,22 20,22 Z M20,20 C29.9411255,20 38,15.9705627 38,11 C38,6.02943725 29.9411255,2 20,2 C10.0588745,2 2,6.02943725 2,11 C2,15.9705627 10.0588745,20 20,20 Z" id="Oval-31" fill="#222222"></path>
                                    <path d="M16.0211479,14.8778956 C16.3231002,15.0425969 16.6885048,15.0405612 16.9886034,14.872506 L29.4886034,7.87250602 C29.9704751,7.60265783 30.1423542,6.9932684 29.872506,6.51139663 C29.6026578,6.02952486 28.9932684,5.85764579 28.5113966,6.12749398 L16.4954323,12.8584209 L11.4788521,10.1221044 C10.9940038,9.8576417 10.3865672,10.0362995 10.1221044,10.5211479 C9.8576417,11.0059962 10.0362995,11.6134328 10.5211479,11.8778956 L16.0211479,14.8778956 Z" id="Shape" fill="#222222"></path>
                                </g>
                            </g>
                        </g>
                    </g>
                </g>
            </g>
        </g>
    </g>
</svg>