<?xml version="1.0" encoding="UTF-8" standalone="no"?>
<svg
   xmlns:dc="http://purl.org/dc/elements/1.1/"
   xmlns:cc="http://creativecommons.org/ns#"
   xmlns:rdf="http://www.w3.org/1999/02/22-rdf-syntax-ns#"
   xmlns:svg="http://www.w3.org/2000/svg"
   xmlns="http://www.w3.org/2000/svg"
   version="1.1"
   width="100%"
   height="100%"
   viewBox="0 0 512 460"
   id="svg2">
  <metadata
     id="metadata19">
    <rdf:RDF>
      <cc:Work
         rdf:about="">
        <dc:format>image/svg+xml</dc:format>
        <dc:type
           rdf:resource="http://purl.org/dc/dcmitype/StillImage" />
        <dc:title></dc:title>
      </cc:Work>
    </rdf:RDF>
  </metadata>
  <defs
     id="defs4">
    <linearGradient
       x1="222.88834"
       y1="0"
       x2="222.88834"
       y2="445.56274"
       id="cozy-gradient"
       gradientUnits="userSpaceOnUse"
       gradientTransform="scale(1.1488099,0.87046605)">
      <stop
         id="stop7"
         style="stop-color:#20a8f1;stop-opacity:1"
         offset="0" />
      <stop
         id="stop9"
         style="stop-color:#62c6ed;stop-opacity:1"
         offset="1" />
    </linearGradient>
  </defs>
  <g
     transform="translate(0,2)"
     id="g11">
    <path
       d="m 376.45312,387.84724 -240.7936,0 c -74.752,0 -135.53664,-60.54225 -135.53664,-134.96493 0,-35.49029 13.7216,-69.01512 38.656,-94.38278 C 60.6208,136.299 88.91392,122.47969 119.52128,118.88483 123.136,88.404934 137.00096,60.226562 159.31392,38.484304 184.79104,13.646194 218.44992,0 254.09536,0 c 35.6352,0 69.30432,13.646194 94.78144,38.474121 22.2208,21.650603 36.0448,49.67622 39.75168,79.993179 69.04832,6.16115 123.36128,64.09637 123.36128,134.42519 0,74.4125 -60.8256,134.95475 -135.54688,134.95475 l 0.0102,0 z"
       id="path13"
       style="fill:#ffffff" />
    <path
       d="m 376.45312,387.84724 -240.7936,0 c -74.752,0 -135.53664,-60.54225 -135.53664,-134.96493 0,-35.49029 13.7216,-69.01512 38.656,-94.38278 C 60.6208,136.299 88.91392,122.47969 119.52128,118.88483 123.136,88.404934 137.00096,60.226562 159.31392,38.484304 184.79104,13.646194 218.44992,0 254.09536,0 c 35.6352,0 69.30432,13.646194 94.78144,38.474121 22.2208,21.650603 36.0448,49.67622 39.75168,79.993179 69.04832,6.16115 123.36128,64.09637 123.36128,134.42519 0,74.4125 -60.8256,134.95475 -135.54688,134.95475 l 0.0102,0 z m -1.024,-28.31076 1.024,0 c 59.06432,0 107.1104,-47.84315 107.1104,-106.65417 0,-58.80084 -48.04608,-106.64399 -107.1104,-106.64399 l -1.0752,0 c -7.71072,0 -14.0288,-6.11024 -14.20288,-13.80913 -1.3312,-57.436224 -49.3568,-104.138796 -107.06944,-104.138796 -57.71264,0 -105.75872,46.722939 -107.07968,104.159156 -0.17408,7.55633 -6.28736,13.6462 -13.88544,13.81932 -57.67168,1.32389 -104.59136,49.14667 -104.59136,106.62362 0,58.81103 48.04608,106.65418 107.1104,106.65418 l 0.8704,0 0.33792,-0.0204 c 0.3072,0 0.6144,0 0.9216,0.0204 l 237.60896,0 0.0307,-0.0102 z M 323.60448,244.79643 c -8.5504,-5.55013 -8.97024,-15.74404 -8.99072,-16.19213 -0.0614,-2.76997 -2.33472,-4.94929 -5.12,-4.90855 -2.78528,0.0509 -4.99712,2.34225 -4.94592,5.09186 0.0205,0.36662 0.16384,5.15297 2.4576,10.79475 -30.43328,28.67738 -78.25408,28.71811 -108.7488,0.17313 2.3552,-5.72326 2.5088,-10.59108 2.5088,-10.9577 0.0512,-2.7496 -2.1504,-5.02057 -4.9152,-5.09186 -2.73408,-0.0815 -5.05856,2.13858 -5.15072,4.88819 0,0.40735 -0.4096,10.64199 -8.98048,16.19213 -2.33472,1.52756 -2.99008,4.63359 -1.46432,6.9453 0.96256,1.46645 2.56,2.27097 4.21888,2.27097 0.94208,0 1.8944,-0.26478 2.74432,-0.8147 2.2016,-1.42572 4.0448,-3.05512 5.59104,-4.78635 16.93696,15.17375 38.33856,22.76063 59.74016,22.76063 21.4528,0 42.9056,-7.61743 59.87328,-22.86247 1.55648,1.7516 3.42016,3.42173 5.6832,4.88819 0.83968,0.54992 1.80224,0.8147 2.74432,0.8147 1.6384,0 3.24608,-0.8147 4.21888,-2.28116 1.51552,-2.32189 0.86016,-5.43811 -1.46432,-6.9453 l 0,0.0204 z"
       id="path15"
       style="fill:url(#cozy-gradient)" />
  </g>
</svg>
