<svg width="80" height="32" viewBox="0 0 80 32" fill="none" xmlns="http://www.w3.org/2000/svg">
<path fill-rule="evenodd" clip-rule="evenodd" d="M71.66 12.477L74.257 19.411L76.721 12.477H79.567L75.518 22.848C74.773 24.778 73.512 25.791 71.965 25.791C71.144 25.791 70.15 25.543 69.482 25.18L70.073 23.27C70.551 23.536 71.048 23.708 71.373 23.708C71.906 23.708 72.328 23.536 72.539 23.173L72.883 22.447L68.775 12.477H71.66V12.477ZM53.68 12.281C56.602 12.281 59.047 14.63 59.047 17.438C59.047 20.246 56.602 22.614 53.68 22.614C50.738 22.614 48.274 20.246 48.274 17.438C48.274 14.63 50.738 12.281 53.68 12.281V12.281ZM42.97 9C44.956 9 46.79 9.842 48.07 11.198L46.027 13.031C45.262 12.153 44.174 11.561 42.97 11.561C40.774 11.561 38.901 13.509 38.901 15.781C38.901 18.073 40.774 20.022 42.971 20.022C44.174 20.022 45.262 19.43 46.027 18.551L48.07 20.386C46.79 21.722 44.956 22.582 42.97 22.582C39.209 22.582 36 19.468 36 15.782C36 12.096 39.21 9 42.97 9ZM68.058 12.478V14.446L63.092 19.984H68.097V22.352H59.464V20.385L64.43 14.845H59.598V12.478H68.058ZM53.678 14.63C52.188 14.63 50.948 15.91 50.948 17.438C50.948 18.967 52.188 20.265 53.678 20.265C55.15 20.265 56.391 18.967 56.391 17.438C56.391 15.91 55.151 14.63 53.679 14.63H53.678Z" fill="#297EF2"/>
<path d="M16 32C24.8366 32 32 24.8366 32 16C32 7.16344 24.8366 0 16 0C7.16344 0 0 7.16344 0 16C0 24.8366 7.16344 32 16 32Z" fill="#297EF2"/>
<path fill-rule="evenodd" clip-rule="evenodd" d="M19.314 17.561C19.154 17.811 18.8 17.885 18.555 17.721C18.535 17.709 18.514 17.695 18.495 17.681C17.783 18.239 16.906 18.543 15.995 18.543C15.086 18.543 14.212 18.24 13.501 17.683C13.483 17.697 13.464 17.71 13.445 17.722C13.194 17.886 12.845 17.808 12.686 17.563C12.526 17.316 12.596 16.981 12.842 16.815C13.056 16.675 13.071 16.394 13.071 16.391C13.076 16.244 13.14 16.104 13.247 16.006C13.353 15.906 13.486 15.85 13.633 15.861C13.927 15.868 14.167 16.116 14.161 16.414C14.161 16.418 14.161 16.567 14.107 16.774C15.205 17.685 16.797 17.682 17.891 16.766C17.851 16.607 17.841 16.481 17.838 16.422C17.835 16.269 17.89 16.131 17.992 16.025C18.093 15.922 18.229 15.863 18.374 15.861H18.384C18.678 15.861 18.922 16.098 18.929 16.393C18.929 16.393 18.944 16.675 19.156 16.815C19.403 16.978 19.474 17.312 19.314 17.561V17.561ZM21.636 11.192C21.479 9.864 20.891 8.636 19.946 7.686C18.863 6.598 17.431 6 15.916 6C14.401 6 12.971 6.598 11.887 7.687C10.939 8.64 10.349 9.875 10.196 11.211C8.89499 11.369 7.69199 11.974 6.76299 12.948C5.70299 14.059 5.12 15.528 5.12 17.085C5.12 20.347 7.70399 23 10.882 23H21.118C24.294 23 26.88 20.347 26.88 17.085C26.88 14.002 24.57 11.462 21.636 11.192" fill="white"/>
</svg>
