<?xml version="1.0" encoding="UTF-8" standalone="no"?>
<svg width="55px" height="41px" viewBox="0 0 55 41" version="1.1" xmlns="http://www.w3.org/2000/svg" xmlns:xlink="http://www.w3.org/1999/xlink" xmlns:sketch="http://www.bohemiancoding.com/sketch/ns">
    <!-- Generator: Sketch 3.4.2 (15857) - http://www.bohemiancoding.com/sketch -->
    <title>Cozy</title>
    <desc>Created with Sketch.</desc>
    <defs></defs>
    <g id="Design" stroke="none" stroke-width="1" fill="none" fill-rule="evenodd" sketch:type="MSPage">
        <g id="1a-about" sketch:type="MSArtboardGroup" transform="translate(-612.000000, -2771.000000)" fill="#FFFFFF">
            <g id="4" sketch:type="MSLayerGroup" transform="translate(171.000000, 2547.000000)">
                <g id="timeline" transform="translate(0.000000, 218.000000)" sketch:type="MSShapeGroup">
                    <g id="born" transform="translate(441.000000, 0.000000)">
                        <path d="M39.8024088,46.984252 L14.3349754,46.984252 C6.42886176,46.984252 0,40.586684 0,32.7223565 C0,28.9720579 1.45125922,25.4294518 4.0884355,22.7488224 C6.39853694,20.4028681 9.39094681,18.9425653 12.6281213,18.5626928 C13.0104306,15.3418483 14.4768523,12.3642081 16.8367731,10.0666795 C19.5313499,7.4420086 23.0912671,6 26.861292,6 C30.6302339,6 34.1912341,7.4420086 36.8858109,10.0656034 C39.2359845,12.3534469 40.698074,15.3149451 41.0901306,18.5185717 C48.3929969,19.1696278 54.1373842,25.2917077 54.1373842,32.7234325 C54.1373842,40.586684 47.7041903,46.984252 39.8013257,46.984252 L39.8024088,46.984252 L39.8024088,46.984252 Z M39.6941058,43.9926222 L39.8024088,43.9926222 C46.0493216,43.9926222 51.1308949,38.936983 51.1308949,32.7223565 C51.1308949,26.508806 46.0493216,21.4531668 39.8024088,21.4531668 L39.6886907,21.4531668 C38.8731696,21.4531668 38.2049406,20.8074913 38.1865291,19.9939402 C38.0457353,13.9245906 32.966328,8.98947754 26.862375,8.98947754 C20.7584221,8.98947754 15.6768487,13.9267428 15.5371379,19.9960925 C15.5187264,20.7945778 14.872158,21.4381011 14.0685502,21.4563952 C7.96892938,21.5962916 3.00648926,26.6497784 3.00648926,32.7234325 C3.00648926,38.9380592 8.0880626,43.9936983 14.3349754,43.9936983 L14.4270329,43.9936983 L14.4627729,43.991546 C14.4952638,43.991546 14.5277547,43.991546 14.5602455,43.9936983 L39.6908567,43.9936983 L39.6941058,43.9926222 L39.6941058,43.9926222 Z M34.2128947,31.8679125 C33.3085653,31.2814239 33.2641611,30.204222 33.261995,30.1568724 C33.2554968,29.8641663 33.0150643,29.6338753 32.7204804,29.6381798 C32.4258964,29.6435605 32.1919621,29.8856887 32.1973772,30.1762428 C32.1995433,30.2149833 32.2147057,30.7207624 32.4573042,31.3169361 C29.2385412,34.3473065 24.1807945,34.3516109 20.9555334,31.3352303 C21.2046301,30.7304475 21.2208755,30.2160593 21.2208755,30.1773188 C21.2262907,29.8867649 20.9934394,29.6467889 20.7010215,29.639256 C20.4118527,29.630647 20.166005,29.8652423 20.1562578,30.1557964 C20.1562578,30.1988414 20.1129366,31.2803478 19.2064411,31.8668364 C18.9595104,32.0282553 18.8901966,32.3564737 19.0515679,32.6007543 C19.1533727,32.7557163 19.3223252,32.8407303 19.497776,32.8407303 C19.5974147,32.8407303 19.6981364,32.812751 19.7880278,32.7546403 C20.0208791,32.6039826 20.2158244,32.4318024 20.3793618,32.2488611 C22.1706922,33.8522885 24.4342234,34.6540023 26.6977546,34.6540023 C28.9667009,34.6540023 31.2356472,33.8490602 33.0302267,32.2380999 C33.1948472,32.4231935 33.3919585,32.5996781 33.631308,32.7546403 C33.7201164,32.812751 33.8219211,32.8407303 33.9215598,32.8407303 C34.0948445,32.8407303 34.2648801,32.7546403 34.3677679,32.5996781 C34.5280562,32.3543214 34.4587423,32.0250269 34.2128947,31.8657603 L34.2128947,31.8679125 L34.2128947,31.8679125 Z" id="Cozy"></path>
                    </g>
                </g>
            </g>
        </g>
    </g>
</svg>