<?xml version="1.0" encoding="UTF-8"?>
<svg width="1087px" height="291px" viewBox="0 0 1087 291" version="1.1" xmlns="http://www.w3.org/2000/svg" xmlns:xlink="http://www.w3.org/1999/xlink">
    <!-- Generator: Sketch 46.2 (44496) - http://www.bohemiancoding.com/sketch -->
    <title>cozy-logo-name-horizontal-blue</title>
    <desc>Created with Sketch.</desc>
    <defs></defs>
    <g id="Page-1" stroke="none" stroke-width="1" fill="none" fill-rule="evenodd">
        <g id="cozy-logo-name-horizontal-blue" fill="#297EF1">
            <path d="M279.380239,291 L100.619761,291 C45.125333,291 0,245.575424 0,189.736432 C0,163.108232 10.186649,137.954707 28.697461,118.921466 C44.912477,102.264514 65.916738,91.895943 88.639046,89.198739 C91.322544,66.329815 101.61562,45.187712 118.180327,28.874596 C137.094044,10.238677 162.081741,0 188.544221,0 C214.9991,0 239.994399,10.238677 258.908116,28.866955 C275.404405,45.111304 285.667073,66.138795 288.418989,88.885467 C339.679117,93.508153 380,136.976684 380,189.744072 C380,245.575424 334.84426,291 279.372637,291 L279.380239,291 Z M279.723529,272.01396 L280.493192,272.01396 C324.887386,272.01396 361,235.467038 361,190.541864 C361,145.624468 324.887386,109.077546 280.493192,109.077546 L279.685046,109.077546 C273.889479,109.077546 269.140655,104.409996 269.009812,98.528882 C268.009249,54.653906 231.912029,18.978261 188.533791,18.978261 C145.155553,18.978261 109.042939,54.669465 108.050073,98.544441 C107.91923,104.316645 103.324339,108.968637 97.613435,109.100884 C54.265984,110.112187 19,146.64355 19,190.549642 C19,235.474817 55.112614,272.021739 99.506808,272.021739 L100.161022,272.021739 L100.415011,272.00618 C100.64591,272.00618 100.876809,272.00618 101.107708,272.021739 L279.700439,272.021739 L279.723529,272.01396 Z M240.146438,183.669633 L240.146438,183.654352 C241.872087,184.785191 242.358613,187.123277 241.233521,188.86538 C240.511333,189.965656 239.317823,190.57692 238.101506,190.57692 C237.402125,190.57692 236.687539,190.378259 236.064177,189.965656 C234.38414,188.86538 233.00058,187.612289 231.84508,186.29807 C219.248605,197.736353 203.322464,203.451674 187.396323,203.451674 C171.508192,203.451674 155.620061,197.759275 143.046392,186.374478 C141.898494,187.673414 140.530138,188.895944 138.895713,189.965656 C138.264749,190.378259 137.557765,190.57692 136.858383,190.57692 C135.626863,190.57692 134.440955,189.973296 133.726369,188.873021 C132.593674,187.138559 133.080201,184.808114 134.813451,183.661993 C141.176306,179.497755 141.480385,171.818748 141.480385,171.513116 C141.548803,169.450098 143.274451,167.784403 145.304179,167.84553 C147.356713,167.899016 148.991138,169.602915 148.953128,171.665931 C148.953128,171.941 148.839098,175.593305 147.090644,179.887436 C169.72933,201.304608 205.23056,201.274045 227.823634,179.757542 C226.120791,175.524537 226.014364,171.93336 225.99916,171.658291 C225.96115,169.595274 227.603177,167.876093 229.670914,167.837889 C231.738652,167.807326 233.426291,169.442458 233.471903,171.520756 C233.487107,171.856951 233.798788,179.505396 240.146438,183.669633 Z M442,145.39169 C442,135.639316 443.520429,126.966228 446.561331,119.372166 C449.602233,111.778104 453.683382,105.343232 458.804903,100.067356 C463.926422,94.7914822 469.888102,90.7946666 476.69012,88.0767919 C483.492138,85.3589171 490.654157,84 498.176389,84 C505.858669,84 512.460529,85.398885 517.982167,88.1966981 C523.503805,90.9945098 528.265147,94.2319305 532.266334,97.9090548 L522.423462,110.619054 C518.902418,107.581429 515.261392,105.103403 511.500276,103.184904 C507.73916,101.266403 503.537976,100.307167 498.896598,100.307167 C493.615032,100.307167 488.733656,101.386308 484.252327,103.54462 C479.770997,105.702933 475.929914,108.78048 472.728965,112.777355 C469.528015,116.77423 467.007305,121.53044 465.166759,127.046128 C463.326213,132.561814 462.405953,138.676941 462.405953,145.39169 C462.405953,152.10644 463.286201,158.181599 465.046724,163.617349 C466.807247,169.053099 469.247934,173.729372 472.36886,177.64631 C475.489786,181.563247 479.290856,184.600827 483.772187,186.759139 C488.253516,188.917452 493.134892,189.996591 498.416458,189.996591 C504.018121,189.996591 509.099553,188.837515 513.660906,186.519328 C518.22226,184.201141 522.263399,181.443338 525.784443,178.245838 L534.667035,191.195648 C529.385467,195.832023 523.50381,199.509092 517.021886,202.226968 C510.539964,204.944843 503.778058,206.30376 496.735968,206.30376 C489.053689,206.30376 481.851659,204.944843 475.129666,202.226968 C468.407671,199.509092 462.606036,195.552245 457.724587,190.356308 C452.843139,185.160371 449.002057,178.765467 446.201225,171.171405 C443.400395,163.577342 442,154.98419 442,145.39169 L442,145.39169 Z M543,145.39169 C543,135.639316 544.480417,126.966228 547.441296,119.372166 C550.402174,111.778104 554.363291,105.343232 559.324763,100.067356 C564.286235,94.7914822 570.007847,90.7946666 576.48977,88.0767919 C582.971693,85.3589171 589.813621,84 597.015758,84 C604.217896,84 611.059823,85.3589171 617.541747,88.0767919 C624.023669,90.7946666 629.745282,94.7914822 634.706754,100.067356 C639.668226,105.343232 643.629342,111.778104 646.590221,119.372166 C649.5511,126.966228 651.031517,135.639316 651.031517,145.39169 C651.031517,154.98419 649.5511,163.577342 646.590221,171.171405 C643.629342,178.765467 639.668226,185.160371 634.706754,190.356308 C629.745282,195.552245 624.023669,199.509092 617.541747,202.226968 C611.059823,204.944843 604.217896,206.30376 597.015758,206.30376 C589.813621,206.30376 582.971693,204.944843 576.48977,202.226968 C570.007847,199.509092 564.286235,195.552245 559.324763,190.356308 C554.363291,185.160371 550.402174,178.765467 547.441296,171.171405 C544.480417,163.577342 543,154.98419 543,145.39169 L543,145.39169 Z M563,145.084523 C563,151.799273 563.800226,157.874431 565.4007,163.310182 C567.001175,168.745931 569.281818,173.422205 572.242696,177.339143 C575.203575,181.25608 578.764578,184.29366 582.925813,186.451971 C587.087047,188.610284 591.648333,189.689424 596.609805,189.689424 C601.571278,189.689424 606.132562,188.610284 610.293797,186.451971 C614.455032,184.29366 618.016035,181.25608 620.976914,177.339143 C623.937793,173.422205 626.218436,168.745931 627.81891,163.310182 C629.419385,157.874431 630.219611,151.799273 630.219611,145.084523 C630.219611,138.369773 629.419385,132.254647 627.81891,126.73896 C626.218436,121.223272 623.937793,116.467063 620.976914,112.470188 C618.016035,108.473313 614.455032,105.395765 610.293797,103.237452 C606.132562,101.079141 601.571278,100 596.609805,100 C591.648333,100 587.087047,101.079141 582.925813,103.237452 C578.764578,105.395765 575.203575,108.473313 572.242696,112.470188 C569.281818,116.467063 567.001175,121.223272 565.4007,126.73896 C563.800226,132.254647 563,138.369773 563,145.084523 L563,145.084523 Z M664,192.996592 L725.457929,103.067358 L670.721961,103.067358 L670.721961,87 L750.425213,87 L750.425213,97.5516976 L688.967284,187.480932 L752.345773,187.480932 L752.345773,203.548289 L664,203.548289 L664,192.996592 Z M766.882591,235.683003 C768.162971,236.002752 769.603377,236.362466 771.203852,236.762153 C772.804327,237.161841 774.324755,237.361682 775.765182,237.361682 C782.487177,237.361682 787.968722,235.003561 792.20998,230.287248 C796.451239,225.570935 799.772175,219.615682 802.172887,212.421307 L804.813658,203.7881 L758,87 L778.405953,87 L802.172887,151.509239 C803.93341,156.625238 805.813939,162.020938 807.814533,167.6965 C809.815127,173.372063 811.695657,178.927636 813.456179,184.363385 L814.416459,184.363385 C816.176981,179.087511 817.857455,173.571907 819.457929,167.816406 C821.058405,162.060906 822.658855,156.625238 824.25933,151.509239 L845.145423,87 L864.351027,87 L820.41821,213.14074 C818.337592,218.896241 816.016939,224.251972 813.456179,229.208097 C810.895418,234.164223 807.854562,238.440814 804.333517,242.038002 C800.812473,245.635189 796.811346,248.472927 792.330015,250.551302 C787.848686,252.629678 782.647221,253.668849 776.725463,253.668849 C774.004656,253.668849 771.523956,253.469009 769.283292,253.069321 C767.042627,252.669633 764.962041,252.070111 763.041471,251.270737 L766.882591,235.683003 Z M871,191.347923 C871,186.711548 872.400394,182.99451 875.201225,180.196698 C878.002057,177.398885 881.403015,176 885.404203,176 C889.245342,176 892.566278,177.398885 895.367108,180.196698 C898.16794,182.99451 899.568334,186.711548 899.568334,191.347923 C899.568334,195.664547 898.16794,199.221714 895.367108,202.019525 C892.566278,204.817339 889.245342,206.216224 885.404203,206.216224 C881.403015,206.216224 878.002057,204.817339 875.201225,202.019525 C872.400394,199.221714 871,195.664547 871,191.347923 L871,191.347923 Z M941.683992,63.419997 C937.842852,63.419997 934.60194,62.2209527 931.961155,59.8228274 C929.320372,57.4247021 928,54.3871235 928,50.7099991 C928,46.8729982 929.320372,43.7954516 931.961155,41.4772634 C934.60194,39.1590764 937.842852,38 941.683992,38 C945.525132,38 948.766044,39.1590764 951.406829,41.4772634 C954.047612,43.7954516 955.367984,46.8729982 955.367984,50.7099991 C955.367984,54.3871235 954.047612,57.4247021 951.406829,59.8228274 C948.766044,62.2209527 945.525132,63.419997 941.683992,63.419997 L941.683992,63.419997 Z M931,87 L950.685744,87 L950.685744,203.548289 L931,203.548289 L931,87 Z M978,145.39169 C978,135.639316 979.480417,126.966228 982.441296,119.372166 C985.402174,111.778104 989.363291,105.343232 994.324759,100.067356 C999.286231,94.7914822 1005.00785,90.7946666 1011.48977,88.0767919 C1017.9717,85.3589171 1024.81362,84 1032.01575,84 C1039.2179,84 1046.05982,85.3589171 1052.54174,88.0767919 C1059.02367,90.7946666 1064.74529,94.7914822 1069.70676,100.067356 C1074.66823,105.343232 1078.62934,111.778104 1081.59022,119.372166 C1084.55109,126.966228 1086.03152,135.639316 1086.03152,145.39169 C1086.03152,154.98419 1084.55109,163.577342 1081.59022,171.171405 C1078.62934,178.765467 1074.66823,185.160371 1069.70676,190.356308 C1064.74529,195.552245 1059.02367,199.509092 1052.54174,202.226968 C1046.05982,204.944843 1039.2179,206.30376 1032.01575,206.30376 C1024.81362,206.30376 1017.9717,204.944843 1011.48977,202.226968 C1005.00785,199.509092 999.286231,195.552245 994.324759,190.356308 C989.363291,185.160371 985.402174,178.765467 982.441296,171.171405 C979.480417,163.577342 978,154.98419 978,145.39169 L978,145.39169 Z M999,145.084523 C999,151.799273 999.80023,157.874431 1001.4007,163.310182 C1003.00117,168.745931 1005.28181,173.422205 1008.24269,177.339143 C1011.20357,181.25608 1014.76458,184.29366 1018.92581,186.451971 C1023.08705,188.610284 1027.64833,189.689424 1032.6098,189.689424 C1037.57127,189.689424 1042.13256,188.610284 1046.2938,186.451971 C1050.45503,184.29366 1054.01603,181.25608 1056.97691,177.339143 C1059.93779,173.422205 1062.21844,168.745931 1063.81891,163.310182 C1065.41938,157.874431 1066.21961,151.799273 1066.21961,145.084523 C1066.21961,138.369773 1065.41938,132.254647 1063.81891,126.73896 C1062.21844,121.223272 1059.93779,116.467063 1056.97691,112.470188 C1054.01603,108.473313 1050.45503,105.395765 1046.2938,103.237452 C1042.13256,101.079141 1037.57127,100 1032.6098,100 C1027.64833,100 1023.08705,101.079141 1018.92581,103.237452 C1014.76458,105.395765 1011.20357,108.473313 1008.24269,112.470188 C1005.28181,116.467063 1003.00117,121.223272 1001.4007,126.73896 C999.80023,132.254647 999,138.369773 999,145.084523 L999,145.084523 Z" id="Shape"></path>
        </g>
    </g>
</svg>