<svg xmlns="http://www.w3.org/2000/svg" width="1206" height="520" viewBox="0 0 1206 520">
  <g fill="#297EF1" fill-rule="evenodd">
    <path d="M399.380239 398L220.619761 398C165.125333 398 120 352.575424 120 296.736432 120 270.108232 130.186649 244.954707 148.697461 225.921466 164.912477 209.264514 185.916738 198.895943 208.639046 196.198739 211.322544 173.329815 221.61562 152.187712 238.180327 135.874596 257.094044 117.238677 282.081741 107 308.544221 107 334.9991 107 359.994399 117.238677 378.908116 135.866955 395.404405 152.111304 405.667073 173.138795 408.418989 195.885467 459.679117 200.508153 500 243.976684 500 296.744072 500 352.575424 454.84426 398 399.372637 398L399.380239 398zM399.723529 379.01396L400.493192 379.01396C444.887386 379.01396 481 342.467038 481 297.541864 481 252.624468 444.887386 216.077546 400.493192 216.077546L399.685046 216.077546C393.889479 216.077546 389.140655 211.409996 389.009812 205.528882 388.009249 161.653906 351.912029 125.978261 308.533791 125.978261 265.155553 125.978261 229.042939 161.669465 228.050073 205.544441 227.91923 211.316645 223.324339 215.968637 217.613435 216.100884 174.265984 217.112187 139 253.64355 139 297.549642 139 342.474817 175.112614 379.021739 219.506808 379.021739L220.161022 379.021739 220.415011 379.00618C220.64591 379.00618 220.876809 379.00618 221.107708 379.021739L399.700439 379.021739 399.723529 379.01396zM360.146438 290.669633L360.146438 290.654352C361.872087 291.785191 362.358613 294.123277 361.233521 295.86538 360.511333 296.965656 359.317823 297.57692 358.101506 297.57692 357.402125 297.57692 356.687539 297.378259 356.064177 296.965656 354.38414 295.86538 353.00058 294.612289 351.84508 293.29807 339.248605 304.736353 323.322464 310.451674 307.396323 310.451674 291.508192 310.451674 275.620061 304.759275 263.046392 293.374478 261.898494 294.673414 260.530138 295.895944 258.895713 296.965656 258.264749 297.378259 257.557765 297.57692 256.858383 297.57692 255.626863 297.57692 254.440955 296.973296 253.726369 295.873021 252.593674 294.138559 253.080201 291.808114 254.813451 290.661993 261.176306 286.497755 261.480385 278.818748 261.480385 278.513116 261.548803 276.450098 263.274451 274.784403 265.304179 274.84553 267.356713 274.899016 268.991138 276.602915 268.953128 278.665931 268.953128 278.941 268.839098 282.593305 267.090644 286.887436 289.72933 308.304608 325.23056 308.274045 347.823634 286.757542 346.120791 282.524537 346.014364 278.93336 345.99916 278.658291 345.96115 276.595274 347.603177 274.876093 349.670914 274.837889 351.738652 274.807326 353.426291 276.442458 353.471903 278.520756 353.487107 278.856951 353.798788 286.505396 360.146438 290.669633zM566 263.405105C566 255.686976 567.203283 248.823005 569.609884 242.812986 572.016485 236.802967 575.246349 231.710343 579.299573 227.534961 583.352796 223.35958 588.070931 220.196459 593.454118 218.045505 598.837305 215.894551 604.5054 214.81909 610.458572 214.81909 616.538407 214.81909 621.763187 215.926182 626.133068 218.1404 630.502949 220.354617 634.271124 222.916745 637.437705 225.826859L629.647955 235.885683C626.861364 233.481675 623.979819 231.52054 621.003233 230.00222 618.026647 228.483899 614.701787 227.72475 611.028553 227.72475 606.848667 227.72475 602.985496 228.578793 599.438926 230.286903 595.892355 231.995014 592.852483 234.430617 590.319219 237.593785 587.785954 240.756953 585.791038 244.521066 584.334411 248.886238 582.877784 253.251409 582.149481 258.090983 582.149481 263.405105 582.149481 268.719227 582.846118 273.52717 584.239414 277.829079 585.63271 282.130987 587.564295 285.831838 590.034228 288.931743 592.504161 292.031647 595.512367 294.435619 599.058938 296.143729 602.605508 297.85184 606.468679 298.705882 610.648565 298.705882 615.081779 298.705882 619.103276 297.788577 622.713178 295.95394 626.32308 294.119303 629.521279 291.93675 632.30787 289.406215L639.337644 299.654828C635.157757 303.324103 630.502953 306.234173 625.373092 308.385128 620.243232 310.536082 614.89179 311.611543 609.318608 311.611543 603.238773 311.611543 597.539013 310.536082 592.219158 308.385128 586.899302 306.234173 582.307829 303.102684 578.4446 298.990566 574.581372 294.878448 571.5415 289.817455 569.324893 283.807436 567.108287 277.797417 566 270.996708 566 263.405105L566 263.405105zM646.008542 263.405105C646.008542 255.686976 647.180159 248.823005 649.523429 242.812986 651.866699 236.802967 655.001567 231.710343 658.928127 227.534961 662.854687 223.35958 667.38283 220.196459 672.51269 218.045505 677.642551 215.894551 683.057323 214.81909 688.757168 214.81909 694.457014 214.81909 699.871786 215.894551 705.001647 218.045505 710.131507 220.196459 714.65965 223.35958 718.58621 227.534961 722.51277 231.710343 725.647638 236.802967 727.990908 242.812986 730.334178 248.823005 731.505795 255.686976 731.505795 263.405105 731.505795 270.996708 730.334178 277.797417 727.990908 283.807436 725.647638 289.817455 722.51277 294.878448 718.58621 298.990566 714.65965 303.102684 710.131507 306.234173 705.001647 308.385128 699.871786 310.536082 694.457014 311.611543 688.757168 311.611543 683.057323 311.611543 677.642551 310.536082 672.51269 308.385128 667.38283 306.234173 662.854687 303.102684 658.928127 298.990566 655.001567 294.878448 651.866699 289.817455 649.523429 283.807436 647.180159 277.797417 646.008542 270.996708 646.008542 263.405105L646.008542 263.405105zM662.158023 263.405105C662.158023 268.719227 662.79133 273.52717 664.057962 277.829079 665.324594 282.130987 667.129518 285.831838 669.472788 288.931743 671.816058 292.031647 674.634272 294.435619 677.927516 296.143729 681.22076 297.85184 684.830608 298.705882 688.757168 298.705882 692.683729 298.705882 696.293576 297.85184 699.58682 296.143729 702.880064 294.435619 705.698279 292.031647 708.041549 288.931743 710.384819 285.831838 712.189743 282.130987 713.456375 277.829079 714.723007 273.52717 715.356314 268.719227 715.356314 263.405105 715.356314 258.090983 714.723007 253.251409 713.456375 248.886238 712.189743 244.521066 710.384819 240.756953 708.041549 237.593785 705.698279 234.430617 702.880064 231.995014 699.58682 230.286903 696.293576 228.578793 692.683729 227.72475 688.757168 227.72475 684.830608 227.72475 681.22076 228.578793 677.927516 230.286903 674.634272 231.995014 671.816058 234.430617 669.472788 237.593785 667.129518 240.756953 665.324594 244.521066 664.057962 248.886238 662.79133 253.251409 662.158023 258.090983 662.158023 263.405105L662.158023 263.405105zM742.356559 300.983352L790.994996 229.812431 747.676388 229.812431 747.676388 217.096559 810.754361 217.096559 810.754361 225.447281 762.115924 296.618202 812.274312 296.618202 812.274312 309.334073 742.356559 309.334073 742.356559 300.983352zM823.125076 334.765816C824.138382 335.018869 825.278334 335.30355 826.544966 335.619867 827.811599 335.936184 829.014881 336.09434 830.15485 336.09434 835.474706 336.09434 839.812857 334.228099 843.169432 330.49556 846.526008 326.763022 849.154231 322.049973 851.054179 316.356271L853.144112 309.523862 816.095302 217.096559 832.244783 217.096559 851.054179 268.149834C852.447475 272.198688 853.935745 276.468901 855.519036 280.960599 857.102326 285.452298 858.590597 289.849035 859.983892 294.150943L860.743868 294.150943C862.137163 289.975562 863.467107 285.610456 864.733739 281.055494 866.000372 276.500532 867.266985 272.198688 868.533617 268.149834L885.063086 217.096559 900.262598 217.096559 865.493715 316.925638C863.847093 321.4806 862.010504 325.719181 859.983892 329.641509 857.95728 333.563838 855.550715 336.948376 852.764124 339.795228 849.977533 342.642079 846.811 344.887894 843.264429 346.532741 839.717859 348.177589 835.601366 349 830.914826 349 828.761551 349 826.7983 348.841844 825.025015 348.525527 823.25173 348.20921 821.605133 347.734742 820.085174 347.102109L823.125076 334.765816zM905.603539 299.844617C905.603539 296.175342 906.711825 293.23364 908.928432 291.019423 911.145039 288.805205 913.836592 287.698113 917.003173 287.698113 920.04309 287.698113 922.671313 288.805205 924.887919 291.019423 927.104526 293.23364 928.212812 296.175342 928.212812 299.844617 928.212812 303.260838 927.104526 306.076016 924.887919 308.290233 922.671313 310.504451 920.04309 311.611543 917.003173 311.611543 913.836592 311.611543 911.145039 310.504451 908.928432 308.290233 906.711825 306.076016 905.603539 303.260838 905.603539 299.844617L905.603539 299.844617zM961.482856 198.117647C958.442938 198.117647 955.878047 197.168711 953.788103 195.27081 951.69816 193.372909 950.653204 190.968938 950.653204 188.058824 950.653204 185.022182 951.69816 182.58658 953.788103 180.751942 955.878047 178.917305 958.442938 178 961.482856 178 964.522774 178 967.087665 178.917305 969.177609 180.751942 971.267552 182.58658 972.312508 185.022182 972.312508 188.058824 972.312508 190.968938 971.267552 193.372909 969.177609 195.27081 967.087665 197.168711 964.522774 198.117647 961.482856 198.117647L961.482856 198.117647zM953.503112 217.096559L969.082612 217.096559 969.082612 309.334073 953.503112 309.334073 953.503112 217.096559zM990.763028 263.405105C990.763028 255.686976 991.934645 248.823005 994.277915 242.812986 996.621185 236.802967 999.756053 231.710343 1003.68261 227.534961 1007.60917 223.35958 1012.13732 220.196459 1017.26718 218.045505 1022.39704 215.894551 1027.81181 214.81909 1033.51165 214.81909 1039.2115 214.81909 1044.62627 215.894551 1049.75613 218.045505 1054.88599 220.196459 1059.41414 223.35958 1063.3407 227.534961 1067.26726 231.710343 1070.40212 236.802967 1072.74539 242.812986 1075.08866 248.823005 1076.26028 255.686976 1076.26028 263.405105 1076.26028 270.996708 1075.08866 277.797417 1072.74539 283.807436 1070.40212 289.817455 1067.26726 294.878448 1063.3407 298.990566 1059.41414 303.102684 1054.88599 306.234173 1049.75613 308.385128 1044.62627 310.536082 1039.2115 311.611543 1033.51165 311.611543 1027.81181 311.611543 1022.39704 310.536082 1017.26718 308.385128 1012.13732 306.234173 1007.60917 303.102684 1003.68261 298.990566 999.756053 294.878448 996.621185 289.817455 994.277915 283.807436 991.934645 277.797417 990.763028 270.996708 990.763028 263.405105L990.763028 263.405105zM1006.91251 263.405105C1006.91251 268.719227 1007.54582 273.52717 1008.81245 277.829079 1010.07908 282.130987 1011.884 285.831838 1014.22727 288.931743 1016.57054 292.031647 1019.38876 294.435619 1022.682 296.143729 1025.97525 297.85184 1029.58509 298.705882 1033.51165 298.705882 1037.43821 298.705882 1041.04806 297.85184 1044.34131 296.143729 1047.63455 294.435619 1050.45276 292.031647 1052.79603 288.931743 1055.1393 285.831838 1056.94423 282.130987 1058.21086 277.829079 1059.47749 273.52717 1060.1108 268.719227 1060.1108 263.405105 1060.1108 258.090983 1059.47749 253.251409 1058.21086 248.886238 1056.94423 244.521066 1055.1393 240.756953 1052.79603 237.593785 1050.45276 234.430617 1047.63455 231.995014 1044.34131 230.286903 1041.04806 228.578793 1037.43821 227.72475 1033.51165 227.72475 1029.58509 227.72475 1025.97525 228.578793 1022.682 230.286903 1019.38876 231.995014 1016.57054 234.430617 1014.22727 237.593785 1011.884 240.756953 1010.07908 244.521066 1008.81245 248.886238 1007.54582 253.251409 1006.91251 258.090983 1006.91251 263.405105L1006.91251 263.405105z"/>
  </g>
</svg>
