<svg xmlns="http://www.w3.org/2000/svg" width="33" height="32" fill="none"><path fill="#297EF2" d="M.75 12.8c0-4.48 0-6.72.872-8.432A8 8 0 0 1 5.118.872C6.83 0 9.07 0 13.55 0h6.4c4.48 0 6.72 0 8.432.872a8 8 0 0 1 3.496 3.496c.872 1.711.872 3.952.872 8.432v6.4c0 4.48 0 6.72-.872 8.432a8 8 0 0 1-3.496 3.496C26.67 32 24.43 32 19.95 32h-6.4c-4.48 0-6.72 0-8.432-.872a8 8 0 0 1-3.496-3.496C.75 25.92.75 23.68.75 19.2v-6.4Z"/><path fill="#fff" fill-rule="evenodd" d="M20.258 19.241a.588.588 0 0 1-.866.126 4.282 4.282 0 0 1-2.647.914 4.277 4.277 0 0 1-2.641-.91c-.02.014-.039.028-.06.04a.59.59 0 0 1-.803-.168.579.579 0 0 1 .165-.791c.226-.15.242-.447.242-.45a.587.587 0 0 1 .187-.408.534.534 0 0 1 .408-.153c.312.008.566.27.56.585 0 .004 0 .162-.058.38a3.128 3.128 0 0 0 4.007-.007 1.87 1.87 0 0 1-.056-.364.577.577 0 0 1 .567-.594h.01a.58.58 0 0 1 .578.563s.017.3.24.447a.576.576 0 0 1 .167.79Zm2.46-6.743a6.29 6.29 0 0 0-1.79-3.712A5.984 5.984 0 0 0 16.661 7a5.98 5.98 0 0 0-4.266 1.786 6.285 6.285 0 0 0-1.79 3.731 6.011 6.011 0 0 0-3.636 1.84 6.317 6.317 0 0 0-1.739 4.38C5.23 22.19 7.966 25 11.33 25H22.17c3.363 0 6.101-2.81 6.101-6.263 0-3.264-2.445-5.953-5.553-6.24Z" clip-rule="evenodd"/></svg>