<?xml version="1.0" encoding="utf-8"?>
<!-- Generator: Adobe Illustrator 17.1.0, SVG Export Plug-In . SVG Version: 6.00 Build 0)  -->
<!DOCTYPE svg PUBLIC "-//W3C//DTD SVG 1.1//EN" "http://www.w3.org/Graphics/SVG/1.1/DTD/svg11.dtd">
<svg version="1.1" id="Calque_1" xmlns="http://www.w3.org/2000/svg" xmlns:xlink="http://www.w3.org/1999/xlink" x="0px" y="0px"
	 viewBox="0 0 452 57" enable-background="new 0 0 452 57" xml:space="preserve">
<g>
	<g>
		<g>
			<path fill="#32363F" d="M-0.5,8.4h24.9v8.4c0,0-1.8,0-3.1,0c-1.5,0-1.9,0.6-1.9,2c0,1.4,0,18.1,0,19c0,0.9,0.8,1.8,2,1.8
				c1.2,0,6.2,0,7.2,0c0.9,0,2.1-0.7,2.1-2c0-1.3,0-6.8,0-6.8h9.9v17.3H-0.5v-8.4c0,0,1.8,0,2.9,0c1.4,0,2.1-0.5,2.1-1.8
				c0-1,0-18,0-19c0-1.2-0.2-2-1.9-2c-1.5,0-3.1,0-3.1,0L-0.5,8.4L-0.5,8.4z"/>
			<path fill="#32363F" d="M45,8.4h40.9v12.8H75.6c0,0,0-0.8,0-2.1c0-1.3-0.6-2.2-2.6-2.2c-2,0-8.9,0-8.9,0V24h9.6v7.7h-9.6v7.9
				c0,0,7.7,0,9.3,0c1.2,0,2.2-0.8,2.2-2.2c0-1,0-2.2,0-2.2h10.2V48H45v-8.4c0,0,1.2,0,2.2,0c1.2,0,2-0.5,2-1.7c0-1,0-17.9,0-19.1
				c0-1.3-0.2-2.1-1.8-2.1c-1.6,0-2.3,0-2.3,0L45,8.4L45,8.4z"/>
			<path fill="#32363F" d="M106.2,8.4h41.8v12.8h-10.2c0,0,0-0.9,0-2.2c0-1.2-0.7-2.1-2.3-2.1c-2,0-9.3,0-9.3,0V24h8.6v7.7h-8.6
				c0,0,0,3.7,0,5.7c0,1.6,0.7,2.2,2.7,2.2c1.6,0,3.2,0,3.2,0v8.4h-26v-8.4c0,0,2.4,0,3.4,0c1,0,1.7-0.7,1.7-1.7c0-1,0-17.9,0-19.1
				s-0.2-2.1-1.8-2.1c-1.6,0-3.3,0-3.3,0L106.2,8.4L106.2,8.4z"/>
			<path fill="#32363F" d="M171.8,18.8c0-1.5,0.5-2,1.9-2c1.3,0,3.1,0,3.1,0V8.4H152v8.4c0,0,1.7,0,3.1,0c1.6,0,1.9,0.8,1.9,2
				c0,0.4,0,18.2,0,19c0,1.5-0.9,1.8-1.9,1.8c-1.3,0-3.1,0-3.1,0v8.4h24.7v-8.4c0,0-1.5,0-3,0c-1.2,0-1.9-0.5-1.9-1.8
				C171.8,37.4,171.8,19.6,171.8,18.8z"/>
			<path fill="#32363F" d="M214,8.4h8.8v14H214c0,0-2.5-6.1-9.6-6.1c-5.3,0-9.5,3.9-9.5,11c0,12.1,6.7,13.1,9.6,13.1
				c5.9,0,7.3-4.2,7.3-5.9h-5.5v-7.3h18.9c0,0-0.1,3-0.1,5.1c0,1-1,16.5-22.2,16.5c-15.3,0-23.3-8.8-23.3-21.3
				c0-8.3,6.5-19.7,22-19.7c8.7,0,12.5,3.6,12.5,3.6L214,8.4L214,8.4z"/>
			<path fill="#32363F" d="M271.5,39.6c-1.7,0-2.2-1.5-3.2-4c-0.8-2-10.4-27.3-10.4-27.3h-15.2c0,0-10.3,28.1-10.8,29.3
				c-0.6,1.4-1.4,2-3,2c-1.4,0-2.2,0-2.2,0v8.4h18.6v-8c0,0-1.4,0-2.6,0c-1.1,0-1.4-0.9-1-2.1c0.4-1.4,1.2-3.6,1.2-3.6h11.3
				c0,0,0.6,2,1.2,3.8c0.4,1.4-1,1.9-1.8,1.9c-0.8,0-2.2,0-2.2,0v8h22.4v-8.4C273.7,39.6,273.3,39.6,271.5,39.6z M244.7,29l3.9-11.7
				h0.1l3.7,11.7H244.7z"/>
			<path fill="#32363F" d="M324,39.6c-1.5,0-1.8-0.7-2.5-1.8c-0.8-1-5.5-8.4-5.5-8.4s6.9-2,6.9-9.4s-6.2-10-8.8-10.7
				c-2.6-0.7-8.3-1-9.8-1c-0.5,0-7.6,0-7.6,0h-19.4v8.4c0,0,1.2,0,2.7,0c1.7,0,1.9,0.8,1.9,2c0,0.4,0,18,0,18.9c0,0.8-0.1,2-2,2
				c-1.3,0-2.6,0-2.6,0v8.4h23.8v-8.4c0,0-0.9,0-2.4,0c-1.7,0-1.9-0.9-1.9-1.9c0-0.1,0-2.9,0-6.4l0,0h5.3l9.7,16.7h14.9v-8.4
				C326.8,39.6,325.6,39.6,324,39.6z M302.2,24.4c-1.8,0-5.4,0-5.4,0l0,0c0-3.9,0-7.4,0-8.2c1.6,0,4.5,0,5.9,0
				c1.7,0,4.8,0.6,4.8,4.2C307.5,23.1,305.5,24.4,302.2,24.4z"/>
			<path fill="#32363F" d="M348.7,7.8c-16.6,0-22.6,11.1-22.6,20.1c0,11.9,8.3,20.9,22.4,20.9c12.6,0,22.5-6.9,22.5-20.4
				C371,15.5,361.6,7.8,348.7,7.8z M349,40.4c-3.6,0-7.5-2.2-7.5-13.2c0-6.8,2.6-11,7-11c4.2,0,7.3,2.8,7.3,11.8
				C355.9,37.7,352.7,40.4,349,40.4z"/>
		</g>
		<g>
			<path fill="#32363F" d="M437.8,8.2c-3.5-1.3-4.8-1.8-7.1-1.8c-3.6,0-5.5,2-6.4,6.9l-0.5,2.8h6.1l-0.9,5h-6.2l-4.1,22.1
				c-0.5,2.8-1.9,6-3.4,7.8c-2.1,2.6-6.2,4.3-10.5,4.3c-0.9,0-2-0.1-3.4-0.3c-2.1-0.4-3-0.7-5.3-1.8l3-5.2c2.8,1.2,4.1,1.6,5.9,1.6
				c3,0,5.5-2.6,6.2-6.8l3.9-21.7H409l0.9-5l6.3,0.1l0.9-4.9c1.2-6.3,6.3-10,13.6-10c0.8,0,1.6,0,2.6,0.1c1.3,0.1,3.1,0.4,5.3,1.1
				L437.8,8.2z"/>
			<path fill="#32363F" d="M449.3,23.9c-0.5-0.3-0.7-0.3-1.1-0.3c-1,0-2,0.4-3.3,1.5c-1.5,1.2-2.6,2.7-3.4,4.4
				c-0.8,1.6-1.2,3-1.8,6.2l-0.8,4.2h-7.1l4.4-23.6l6.1,0.1l-1.1,6.9c0.5-0.8,0.9-1.4,1.2-1.8c1-1.3,2-2.5,3.2-3.6
				c1.3-1.2,2.4-1.7,4.1-1.7c0.9,0,1.4,0.2,2.5,0.8L449.3,23.9z"/>
		</g>
		<path fill="#32363F" d="M396,28.3c0,3.8-3,6.8-6.8,6.8c-3.7,0-6.8-3-6.8-6.8s3-6.8,6.8-6.8C393,21.4,396,24.5,396,28.3z"/>
	</g>
</g>
</svg>
