<?xml version="1.0" encoding="UTF-8"?>
<svg width="99px" height="20px" viewBox="0 0 99 20" version="1.1" xmlns="http://www.w3.org/2000/svg" xmlns:xlink="http://www.w3.org/1999/xlink">
    <!-- Generator: Sketch 52.2 (67145) - http://www.bohemiancoding.com/sketch -->
    <title>google-play</title>
    <desc>Created with Sketch.</desc>
    <g id="google-play" stroke="none" stroke-width="1" fill="none" fill-rule="evenodd">
        <path d="M80.9606535,15.5989519 L82.6497946,15.5989519 L82.6497946,4.18600185 L80.9606535,4.18600185 L80.9606535,15.5989519 Z M96.1828492,8.29707407 L94.2455447,13.2453333 L94.1875796,13.2453333 L92.1769129,8.29707407 L90.3564444,8.29707407 L93.3724444,15.2127685 L91.6525093,19.0599944 L93.4150126,19.0599944 L98.0621886,8.29707407 L96.1828492,8.29707407 Z M86.5977658,14.3025444 C86.0452853,14.3025444 85.2727183,14.0240907 85.2727183,13.3338907 C85.2727183,12.4528815 86.2345778,12.1150852 87.0651099,12.1150852 C87.8068829,12.1150852 88.157391,12.2766796 88.6084324,12.4967037 C88.4771051,13.5539148 87.5741165,14.3025444 86.5977658,14.3025444 Z M86.8024553,8.04783519 C85.5788468,8.04783519 84.3117646,8.59104815 83.787361,9.7952463 L85.2872096,10.4261037 C85.6078294,9.7952463 86.2046895,9.58982963 86.8314378,9.58982963 C87.7054438,9.58982963 88.5939411,10.1175222 88.6084324,11.0578741 L88.6084324,11.1756463 C88.3023039,10.9994444 87.646573,10.7346852 86.8459291,10.7346852 C85.2283387,10.7346852 83.5826715,11.6303019 83.5826715,13.3046759 C83.5826715,14.83115 84.9086246,15.8153241 86.393982,15.8153241 C87.5297369,15.8153241 88.157391,15.3013259 88.5495616,14.6987704 L88.6084324,14.6987704 L88.6084324,15.5806926 L90.2405141,15.5806926 L90.2405141,11.2048611 C90.2405141,9.17808333 88.7388541,8.04783519 86.8024553,8.04783519 Z M76.3578571,9.6866037 L73.9541141,9.6866037 L73.9541141,5.77455741 L76.3578571,5.77455741 C77.6213165,5.77455741 78.3386354,6.82902963 78.3386354,7.73103704 C78.3386354,8.61478519 77.6213165,9.6866037 76.3578571,9.6866037 Z M76.3143832,4.18600185 L72.264973,4.18600185 L72.264973,15.5989519 L73.9541141,15.5989519 L73.9541141,11.2751593 L76.3143832,11.2751593 C78.1873826,11.2751593 80.0286823,9.9084537 80.0286823,7.73103704 C80.0286823,5.55270741 78.1873826,4.18600185 76.3143832,4.18600185 Z M54.2323724,14.3052833 C53.0649177,14.3052833 52.0876613,13.3192833 52.0876613,11.9662722 C52.0876613,10.5986537 53.0649177,9.59895926 54.2323724,9.59895926 C55.38443,9.59895926 56.28923,10.5986537 56.28923,11.9662722 C56.28923,13.3192833 55.38443,14.3052833 54.2323724,14.3052833 Z M56.172394,8.93614815 L56.1144288,8.93614815 C55.7349381,8.48057963 55.0049393,8.06883333 54.0865538,8.06883333 C52.1601177,8.06883333 50.3939916,9.77516111 50.3939916,11.9662722 C50.3939916,14.1436889 52.1601177,15.8344963 54.0865538,15.8344963 C55.0049393,15.8344963 55.7349381,15.42275 56.1144288,14.9525741 L56.172394,14.9525741 L56.172394,15.5113074 C56.172394,16.9966981 55.38443,17.7909759 54.1155363,17.7909759 C53.079409,17.7909759 52.4372637,17.0405204 52.174609,16.40875 L50.7010258,17.025913 C51.1239904,18.0557352 52.2470655,19.3201889 54.1155363,19.3201889 C56.0999375,19.3201889 57.7782102,18.1433796 57.7782102,15.275763 L57.7782102,8.30437778 L56.172394,8.30437778 L56.172394,8.93614815 Z M58.9456649,15.5989519 L60.6375231,15.5989519 L60.6375231,4.18600185 L58.9456649,4.18600185 L58.9456649,15.5989519 Z M63.1327423,11.8338926 C63.0892685,10.3338944 64.2857057,9.56883148 65.1461261,9.56883148 C65.8181598,9.56883148 66.3869429,9.90754074 66.5771411,10.3923241 L63.1327423,11.8338926 Z M68.3858354,10.5393111 C68.0643099,9.6719963 67.0870535,8.06883333 65.088161,8.06883333 C63.1037598,8.06883333 61.4544697,9.64278148 61.4544697,11.9516648 C61.4544697,14.1281685 63.0892685,15.8344963 65.2774535,15.8344963 C67.0426739,15.8344963 68.0643099,14.7462444 68.4881802,14.1135611 L67.1749069,13.2316389 C66.7365453,13.8789296 66.1387796,14.3052833 65.2774535,14.3052833 C64.417033,14.3052833 63.8038703,13.9081444 63.410794,13.1284741 L68.5606366,10.9811852 L68.3858354,10.5393111 Z M27.3501213,9.26025 L27.3501213,10.9072352 L31.2600529,10.9072352 C31.1441225,11.8338926 30.8370883,12.5103981 30.3706498,12.981487 C29.800961,13.5548278 28.9106523,14.1875111 27.3501213,14.1875111 C24.9418498,14.1875111 23.0597934,12.2310315 23.0597934,9.80437593 C23.0597934,7.37772037 24.9418498,5.42124074 27.3501213,5.42124074 C28.6489033,5.42124074 29.5971772,5.93615185 30.2972877,6.59805 L31.4502511,5.43584815 C30.4720889,4.49458333 29.1742126,3.77425556 27.3501213,3.77425556 C24.0515411,3.77425556 21.279176,6.48027778 21.279176,9.80437593 C21.279176,13.1284741 24.0515411,15.8344963 27.3501213,15.8344963 C29.129833,15.8344963 30.4720889,15.2465481 31.5227075,14.1436889 C32.6023087,13.0545241 32.9383255,11.5253111 32.9383255,10.2891593 C32.9383255,9.90754074 32.9093429,9.55422407 32.8504721,9.26025 L27.3501213,9.26025 Z M37.3835291,14.3052833 C36.2169802,14.3052833 35.2098354,13.3338907 35.2098354,11.9516648 C35.2098354,10.5539185 36.2169802,9.59895926 37.3835291,9.59895926 C38.5509838,9.59895926 39.5581285,10.5539185 39.5581285,11.9516648 C39.5581285,13.3338907 38.5509838,14.3052833 37.3835291,14.3052833 Z M37.3835291,8.06883333 C35.2533093,8.06883333 33.5170715,9.70121111 33.5170715,11.9516648 C33.5170715,14.1875111 35.2533093,15.8344963 37.3835291,15.8344963 C39.5146547,15.8344963 41.2508925,14.1875111 41.2508925,11.9516648 C41.2508925,9.70121111 39.5146547,8.06883333 37.3835291,8.06883333 Z M45.8192721,14.3052833 C44.6518174,14.3052833 43.6446727,13.3338907 43.6446727,11.9516648 C43.6446727,10.5539185 44.6518174,9.59895926 45.8192721,9.59895926 C46.9867267,9.59895926 47.9929658,10.5539185 47.9929658,11.9516648 C47.9929658,13.3338907 46.9867267,14.3052833 45.8192721,14.3052833 Z M45.8192721,8.06883333 C47.9494919,8.06883333 49.6857297,9.70121111 49.6857297,11.9516648 C49.6857297,14.1875111 47.9494919,15.8344963 45.8192721,15.8344963 C43.6890523,15.8344963 41.9528144,14.1875111 41.9528144,11.9516648 C41.9528144,9.70121111 43.6890523,8.06883333 45.8192721,8.06883333 Z M0.1465,2.8154 L7.9295,10.0004 L0.1475,17.1834 C0.0615,17.0024 0.000500000002,16.8064 0.000500000002,16.5924 L0.000500000002,3.4084 C0.000500000002,3.1934 0.0605,2.9974 0.1465,2.8154 Z M8.667,10.6802 L11.09,12.9162 L2.091,17.8252 C1.883,17.9392 1.649,17.9992 1.412,18.0002 C1.257,17.9992 1.106,17.9732 0.967,17.9272 L4.259,14.7482 L8.667,10.6802 Z M14.1738,8.7651 C14.8588,9.1371 15.1108,9.9911 14.7378,10.6731 C14.6088,10.9101 14.4118,11.1051 14.1738,11.2341 L12.0158,12.4111 L9.4028,10.0001 L12.0168,7.5881 L14.1738,8.7651 Z M8.667,9.3198 L3.887,4.9078 L0.961,2.0728 C1.103,2.0268 1.253,1.9998 1.409,1.9998 C1.647,1.9998 1.882,2.0588 2.09,2.1738 L11.09,7.0828 L8.667,9.3198 Z" id="Fill-4" fill="#95999D"/>
    </g>
</svg>