<svg version="1.1" xmlns="http://www.w3.org/2000/svg" xmlns:xlink="http://www.w3.org/1999/xlink" x="0px" y="0px"
	 width="32px" height="32px" viewBox="0 0 32 32"><path fill="#FFFFFF" d="M24,14h3.003C28.105,14,29,14.893,29,15.995v14.01C29,31.107,28.105,32,27.003,32H4.997
	C3.895,32,3,31.107,3,30.005v-14.01C3,14.893,3.894,14,4.997,14H22V8c0,0,0.083-6-6-6s-6,6-6,6v1c0,0.556-0.448,1-1,1
	c-0.556,0-1-0.448-1-1V8c0,0-0.042-8,8-8s8,8,8,8V14z M5,16v14h22V16H5z M19,22c0-1.657-1.343-3-3-3s-3,1.343-3,3
	c0,1.312,0.842,2.427,2.015,2.834L15,25.009v1.981c0,0.566,0.448,1.009,1,1.009c0.557,0,1-0.452,1-1.009v-1.981l-0.016-0.175
	C18.158,24.426,19,23.311,19,22z M16,23c-0.552,0-1-0.448-1-1s0.448-1,1-1s1,0.448,1,1S16.552,23,16,23z"/></svg>
