<svg xmlns="http://www.w3.org/2000/svg" width="32" height="32" viewBox="0 0 32 32"><g fill="#fff"><path d="M31.707 10.293l-4.5-4.5-3.094-3.094-1.021-1.02-.286-.286-.101-.101c-.392-.391-1.024-.391-1.414 0-.261.261-.524.46-.792.604-1.002.541-2.123.324-3.279-.429-.259-.168-.496-.349-.703-.529l-.232-.215c-.388-.405-1.033-.412-1.429-.015l-1.075 1.075c-.391.391-.391 1.024 0 1.414l4.804 4.804-16.879 16.88c-1.171 1.171-1.171 3.068 0 4.239l.175.175c1.168 1.168 3.069 1.169 4.239 0l16.879-16.879 3.292 3.292h.002c.391.391 1.023.391 1.414 0l4-4c.391-.392.391-1.025 0-1.415zm-27.002 17.587c-.388.388-1.023.388-1.411 0l-.175-.175c-.389-.389-.389-1.021 0-1.411l16.879-16.879 1.586 1.585-16.879 16.88zm12.371-24.217c1.433.669 2.93.775 4.376-.007.164-.089.322-.2.48-.311l.768.768 3.094 3.094 3.793 3.793-2.587 2.586-9.924-9.923zM8.501 5.087l-4.294-4.294-.707-.707-.707.707-2 2-.707.707.707.707 4.294 4.294c.638.638 1.588.743 2.344.344l5.362 5.362 1.414-1.414-5.362-5.362c.402-.757.293-1.707-.344-2.344zm-2 2l-3.587-3.587.586-.586 3.587 3.587-.001.001-.005.002-.578.578-.002.005zM31.088 26.089l-7.177-7.177c-.778-.778-2.048-.776-2.831.008l-.373.373-3.5-3.5-1.414 1.414 3.5 3.5-.374.374c-.786.786-.787 2.051-.008 2.831l7.177 7.177c.778.778 2.047.776 2.831-.008l2.161-2.161c.786-.786.787-2.051.008-2.831zm-1.422 1.417l-2.161 2.161-.003.008-7.177-7.177.008-.003 2.161-2.161.003-.008 7.177 7.177-.008.003z"/></g></svg>
