<svg width="32" height="32" viewBox="0 0 32 32" xmlns="http://www.w3.org/2000/svg"><g fill="#fff"><path d="M3.193 10.825l12.76 7.156 12.839-7.274-12.76-7.42-12.84 7.538zm12.762 9.425c-.182 0-.364-.046-.527-.137l-14.888-8.349c-.332-.186-.537-.531-.541-.906-.004-.375.195-.724.522-.916l14.962-8.784c.334-.197.752-.197 1.088-.002l14.887 8.657c.327.191.528.539.526.915-.003.375-.206.721-.537.908l-14.961 8.476c-.165.094-.348.14-.532.14zM15.956 26.128c-.182 0-.364-.046-.527-.137l-14.888-8.349c-.513-.287-.693-.931-.402-1.438.291-.507.945-.684 1.456-.396l14.358 8.052 14.432-8.176c.511-.29 1.165-.116 1.458.389.294.505.117 1.149-.395 1.439l-14.961 8.476c-.164.094-.348.14-.532.14M15.956 32c-.182 0-.364-.046-.527-.137l-14.888-8.349c-.513-.287-.693-.931-.402-1.438.291-.506.945-.683 1.456-.396l14.358 8.052 14.432-8.176c.511-.291 1.165-.115 1.458.389.294.505.117 1.149-.395 1.439l-14.961 8.476c-.164.094-.348.14-.532.14"/></g></svg>
