<svg xmlns="http://www.w3.org/2000/svg" width="128" height="128" viewBox="0 0 128 128" xmlns:xlink="http://www.w3.org/1999/xlink">
  <defs>
    <circle id="a" cx="104" cy="104" r="24"/>
  </defs>
  <g fill="none" fill-rule="evenodd">
    <path fill="#F52D2D" d="M21.0661702,61.4408511 L2.34276596,61.4408511 C1.05085106,61.4408511 0.00234042553,62.4893617 0.00234042553,63.7812766 L0.00234042553,98.8876596 C0.00234042553,100.174894 1.05085106,101.228085 2.34276596,101.228085 L21.0661702,101.228085 C22.3534043,101.228085 23.4065957,100.174894 23.4065957,98.8876596 L23.4065957,63.7812766 C23.4065957,62.4893617 22.3534043,61.4408511 21.0661702,61.4408511"/>
    <path fill="#F4C3C4" d="M111.657021,80.8453191 C106.161702,75.3546809 101.42,73.8240426 95.2178723,75.602766 L81.1378723,80.2742553 C81.2642553,81.0091489 81.3297872,81.7534043 81.3297872,82.5023404 C81.3297872,85.4980851 80.3561702,88.3206383 78.5961702,90.436383 C76.5412766,92.8985106 73.6438298,94.2044681 70.212766,94.2044681 L46.8085106,94.2044681 C45.5165957,94.2044681 44.4680851,93.1559574 44.4680851,91.8640426 C44.4680851,90.5721277 45.5165957,89.523617 46.8085106,89.523617 L70.212766,89.523617 C72.2348936,89.523617 73.8451064,88.8214894 74.9965957,87.4406383 C76.0497872,86.1814894 76.6489362,84.3840426 76.6489362,82.5023404 C76.6489362,79.8951064 75.2914894,75.4810638 70.212766,75.4810638 L57.1204255,75.4810638 L56.1702128,75.4810638 C55.5523404,75.4810638 54.9578723,75.2376596 54.5178723,74.7976596 C52.3693617,72.6491489 45.8395745,66.1193617 35.106383,66.1193617 L28.0851064,66.1193617 C26.7931915,66.1193617 25.7446809,67.1678723 25.7446809,68.4597872 L25.7446809,94.2044681 C25.7446809,95.2108511 26.3906383,96.1095745 27.3455319,96.4231915 C34.6523404,98.8619149 40.3676596,100.935532 44.9502128,102.606596 C53.9748936,105.887872 59.0255319,107.661915 63.5285106,107.661915 C68.8974468,107.661915 73.4893617,105.138936 83.0804255,99.6623404 C89.4276596,96.03 98.1153191,91.063617 111.048511,84.5993617 C111.722553,84.2576596 112.190638,83.6210638 112.31234,82.8768085 C112.429362,82.137234 112.185957,81.3789362 111.657021,80.8453191"/>
    <path fill="#F52D2D" d="M79.5768085,33.3557447 C70.542766,33.3557447 63.1938298,26.0068085 63.1938298,16.972766 C63.1938298,7.93404255 70.542766,0.589787234 79.5768085,0.589787234 C88.6108511,0.589787234 95.9597872,7.93404255 95.9597872,16.972766 C95.9597872,26.0068085 88.6108511,33.3557447 79.5768085,33.3557447 Z M58.5129787,66.1217021 C49.4789362,66.1217021 42.13,58.772766 42.13,49.7387234 C42.13,40.7 49.4789362,33.3557447 58.5129787,33.3557447 C67.5470213,33.3557447 74.8959574,40.7 74.8959574,49.7387234 C74.8959574,58.772766 67.5470213,66.1217021 58.5129787,66.1217021 Z"/>
    <path fill="#F4C3C4" d="M77.236383,12.2919149 C77.236383,11 78.2848936,9.95148936 79.5768085,9.95148936 C80.8640426,9.95148936 81.917234,11 81.917234,12.2919149 L81.917234,21.653617 C81.917234,22.9408511 80.8640426,23.9940426 79.5768085,23.9940426 C78.2848936,23.9940426 77.236383,22.9408511 77.236383,21.653617 L77.236383,12.2919149 Z M56.1725532,45.0578723 C56.1725532,43.7659574 57.2210638,42.7174468 58.5129787,42.7174468 C59.8002128,42.7174468 60.8534043,43.7659574 60.8534043,45.0578723 L60.8534043,54.4195745 C60.8534043,55.7068085 59.8002128,56.76 58.5129787,56.76 C57.2210638,56.76 56.1725532,55.7068085 56.1725532,54.4195745 L56.1725532,45.0578723 Z"/>
    <g>
      <use fill="#35CE68" xlink:href="#a"/>
      <circle cx="104" cy="104" r="25" stroke="#FFFFFF" stroke-width="2"/>
    </g>
    <polyline stroke="#FFFFFF" stroke-width="2" points="91.909 108.818 97.091 114 116.091 95" stroke-linecap="round" stroke-linejoin="round"/>
  </g>
</svg>
