<?xml version="1.0" encoding="UTF-8" standalone="no"?>
<svg width="31px" height="32px" viewBox="0 0 31 32" version="1.1" xmlns="http://www.w3.org/2000/svg" xmlns:xlink="http://www.w3.org/1999/xlink" xmlns:sketch="http://www.bohemiancoding.com/sketch/ns">
    <!-- Generator: Sketch 3.4.4 (17248) - http://www.bohemiancoding.com/sketch -->
    <title>schedule</title>
    <desc>Created with Sketch.</desc>
    <defs>
        <path id="path-1" d="M0,0.220108108 L30.9951972,0.220108108 L30.9951972,32 L0,32 L0,0.220108108 Z"></path>
        <path id="path-3" d="M0,0.220108108 L30.9951972,0.220108108 L30.9951972,32 L0,32 L0,0.220108108 Z"></path>
    </defs>
    <g id="Design" stroke="none" stroke-width="1" fill="none" fill-rule="evenodd" sketch:type="MSPage">
        <g id="6a-student" sketch:type="MSArtboardGroup" transform="translate(-289.000000, -880.000000)">
            <g id="Section-1" sketch:type="MSLayerGroup" transform="translate(0.000000, 711.000000)">
                <g id="1" transform="translate(289.000000, 165.000000)">
                    <g id="schedule" transform="translate(0.000000, 4.000000)">
                        <g id="Group-3">
                            <mask id="mask-2" sketch:name="Clip 2" fill="white">
                                <use xlink:href="#path-1"></use>
                            </mask>
                            <g id="Clip-2"></g>
                            <path d="M26.526438,30.6726054 L4.46884648,30.6726054 C2.74376197,30.6726054 1.3404662,29.2827676 1.3404662,27.574227 L1.3404662,14.6388757 L29.6552549,14.6388757 L29.6552549,27.574227 C29.6552549,29.2827676 28.2515225,30.6726054 26.526438,30.6726054 L26.526438,30.6726054 Z M4.46884648,6.33963243 L4.74653662,6.33963243 L4.74653662,8.14979459 C4.74653662,9.45314595 5.81756479,10.5130378 7.13353662,10.5130378 C8.44994507,10.5130378 9.5201,9.45314595 9.5201,8.14979459 L9.5201,6.33963243 L13.1226493,6.33963243 L13.1226493,8.14979459 C13.1226493,9.45314595 14.1936775,10.5130378 15.5105225,10.5130378 C16.8260577,10.5130378 17.8970859,9.45314595 17.8970859,8.14979459 L17.8970859,6.33963243 L21.4996352,6.33963243 L21.4996352,8.14979459 C21.4996352,9.45314595 22.5706634,10.5130378 23.8870718,10.5130378 C25.2030437,10.5130378 26.2736352,9.45314595 26.2736352,8.14979459 L26.2736352,6.33963243 L26.526438,6.33963243 C28.2515225,6.33963243 29.6556915,7.72947027 29.6556915,9.43801081 L29.6556915,13.3113081 L1.3404662,13.3113081 L1.3404662,9.43801081 C1.3404662,7.72947027 2.74376197,6.33963243 4.46884648,6.33963243 L4.46884648,6.33963243 Z M6.08695915,2.58482162 C6.08695915,2.01271351 6.55676197,1.54741622 7.13353662,1.54741622 C7.71074789,1.54741622 8.18011408,2.01271351 8.18011408,2.58482162 L8.18011408,5.01206486 L8.18011408,5.67584865 L8.18011408,8.14979459 C8.18011408,8.7219027 7.71118451,9.18633514 7.13353662,9.18633514 C6.55632535,9.18633514 6.08695915,8.7219027 6.08695915,8.14979459 L6.08695915,5.67584865 L6.08695915,5.01206486 L6.08695915,2.58482162 Z M14.4630718,2.58482162 C14.4630718,2.01271351 14.9328746,1.54741622 15.5105225,1.54741622 C16.0877338,1.54741622 16.5566634,2.01271351 16.5566634,2.58482162 L16.5566634,5.01206486 L16.5566634,5.67584865 L16.5566634,8.14979459 C16.5566634,8.7219027 16.0877338,9.18633514 15.5105225,9.18633514 C14.9328746,9.18633514 14.4630718,8.7219027 14.4630718,8.14979459 L14.4630718,5.67584865 L14.4630718,5.01206486 L14.4630718,2.58482162 Z M22.8400577,2.58482162 C22.8400577,2.01271351 23.3098606,1.54741622 23.8866352,1.54741622 C24.4638465,1.54741622 24.9332127,2.01271351 24.9332127,2.58482162 L24.9332127,5.01206486 L24.9332127,5.67584865 L24.9332127,8.14979459 C24.9332127,8.7219027 24.4638465,9.18633514 23.8866352,9.18633514 C23.3098606,9.18633514 22.8400577,8.7219027 22.8400577,8.14979459 L22.8400577,5.67584865 L22.8400577,5.01206486 L22.8400577,2.58482162 Z M26.526438,5.01206486 L26.2736352,5.01206486 L26.2736352,2.58482162 C26.2736352,1.28060541 25.2030437,0.220281081 23.8870718,0.220281081 C22.5706634,0.220281081 21.4996352,1.28060541 21.4996352,2.58482162 L21.4996352,5.01206486 L17.8970859,5.01206486 L17.8970859,2.58482162 C17.8970859,1.28060541 16.8260577,0.220281081 15.5105225,0.220281081 C14.1936775,0.220281081 13.1226493,1.28060541 13.1226493,2.58482162 L13.1226493,5.01206486 L9.5201,5.01206486 L9.5201,2.58482162 C9.5201,1.28060541 8.44950845,0.220281081 7.13353662,0.220281081 C5.81712817,0.220281081 4.74653662,1.28060541 4.74653662,2.58482162 L4.74653662,5.01206486 L4.46884648,5.01206486 C2.00456479,5.01206486 4.36619721e-05,6.99736216 4.36619721e-05,9.43801081 L4.36619721e-05,27.574227 C4.36619721e-05,30.0148757 2.00456479,32.000173 4.46884648,32.000173 L26.526438,32.000173 C28.9907197,32.000173 30.9952408,30.0148757 30.9952408,27.574227 L30.9952408,9.43801081 C30.9952408,6.99736216 28.9907197,5.01206486 26.526438,5.01206486 L26.526438,5.01206486 Z" id="Fill-1" fill="#3D3D3D" sketch:type="MSShapeGroup" mask="url(#mask-2)"></path>
                        </g>
                        <mask id="mask-4" sketch:name="Clip 5" fill="white">
                            <use xlink:href="#path-3"></use>
                        </mask>
                        <g id="Clip-5"></g>
                        <path d="M8.95026761,21.7556757 L6.10656338,21.7556757 L6.10656338,18.2758919 L8.95026761,18.2758919 L8.95026761,21.7556757 Z M25.1117465,21.7556757 L22.3531831,21.7556757 L22.3531831,18.2758919 L25.1117465,18.2758919 L25.1117465,21.7556757 Z M22.3531831,26.3580541 L22.3531831,23.0832432 L25.1113099,23.0832432 L25.1113099,26.3584865 L22.3531831,26.3584865 L22.3531831,26.3580541 Z M12.9710986,26.3584865 L10.2906901,26.3584865 L10.2906901,23.0832432 L12.9710986,23.0832432 L12.9710986,26.3584865 Z M12.9710986,21.7556757 L10.2906901,21.7556757 L10.2906901,18.2758919 L12.9710986,18.2758919 L12.9710986,21.7556757 Z M16.9919296,21.7556757 L14.3115211,21.7556757 L14.3115211,18.2758919 L16.9919296,18.2758919 L16.9919296,21.7556757 Z M18.3323521,18.2754595 L21.0127606,18.2754595 L21.0127606,21.7552432 L18.3323521,21.7552432 L18.3323521,18.2754595 Z M16.9919296,26.3580541 L14.3115211,26.3580541 L14.3115211,23.0832432 L16.9919296,23.0832432 L16.9919296,26.3580541 Z M18.3323521,23.0832432 L21.0127606,23.0832432 L21.0127606,26.3584865 L18.3323521,26.3584865 L18.3323521,23.0832432 Z M6.10656338,23.0832432 L8.95026761,23.0832432 L8.95026761,26.3584865 L6.10656338,26.3584865 L6.10656338,23.0832432 Z M4.76614085,27.6856216 L26.4517324,27.6856216 L26.4517324,16.9483243 L4.76614085,16.9483243 L4.76614085,27.6856216 Z" id="Fill-4" fill="#3D3D3D" sketch:type="MSShapeGroup" mask="url(#mask-4)"></path>
                    </g>
                </g>
            </g>
        </g>
    </g>
</svg>