<?xml version="1.0" encoding="UTF-8" standalone="no"?>
<svg width="16px" height="16px" viewBox="0 0 16 16" version="1.1" xmlns="http://www.w3.org/2000/svg" xmlns:xlink="http://www.w3.org/1999/xlink" xmlns:sketch="http://www.bohemiancoding.com/sketch/ns">
    <!-- Generator: Sketch 3.4.2 (15857) - http://www.bohemiancoding.com/sketch -->
    <title>coupe</title>
    <desc>Created with Sketch.</desc>
    <defs>
        <path id="path-1" d="M0,0 L16,0 L16,16 L0,16"></path>
    </defs>
    <g id="Design" stroke="none" stroke-width="1" fill="none" fill-rule="evenodd" sketch:type="MSPage">
        <g id="1a-about" sketch:type="MSArtboardGroup" transform="translate(-712.000000, -4883.000000)">
            <g id="4" sketch:type="MSLayerGroup" transform="translate(171.000000, 2547.000000)">
                <g id="timeline" transform="translate(0.000000, 218.000000)">
                    <g id="13" transform="translate(0.000000, 2061.000000)">
                        <g id="coupe" transform="translate(541.000000, 57.000000)">
                            <mask id="mask-2" sketch:name="Clip 2" fill="white">
                                <use xlink:href="#path-1"></use>
                            </mask>
                            <g id="Clip-2"></g>
                            <path d="M5,6.1111 L5,2.0001 L11,2.0001 L11,6.0001 C11,7.6541 9.654,9.0001 8,9.0001 C6.542,9.0001 5,7.5151 5,6.1111 M2,4.0001 C2,3.2631 2.405,2.6251 3,2.2781 L3,5.7221 C2.405,5.3751 2,4.7371 2,4.0001 M14,4.0001 C14,4.7371 13.595,5.3751 13,5.7221 L13,2.2781 C13.595,2.6251 14,3.2631 14,4.0001 M12.606,7.9391 C14.523,7.6441 16,5.9981 16,4.0001 C16,1.7941 14.206,0.0001 12,0.0001 L4,0.0001 C1.794,0.0001 0,1.7941 0,4.0001 C0,6.0081 1.492,7.6591 3.423,7.9421 C4.084,9.3621 5.447,10.5191 7,10.8801 L7,14.0001 L5,14.0001 C4.448,14.0001 4,14.4481 4,15.0001 C4,15.5521 4.448,16.0001 5,16.0001 L11,16.0001 C11.552,16.0001 12,15.5521 12,15.0001 C12,14.4481 11.552,14.0001 11,14.0001 L9,14.0001 L9,10.8981 C10.626,10.5651 11.971,9.4351 12.606,7.9391" id="Fill-1" fill="#2E2B2C" sketch:type="MSShapeGroup" mask="url(#mask-2)"></path>
                        </g>
                    </g>
                </g>
            </g>
        </g>
    </g>
</svg>