<?xml version="1.0" encoding="UTF-8" standalone="no"?>
<svg width="31px" height="28px" viewBox="0 0 31 28" version="1.1" xmlns="http://www.w3.org/2000/svg" xmlns:xlink="http://www.w3.org/1999/xlink" xmlns:sketch="http://www.bohemiancoding.com/sketch/ns">
    <!-- Generator: Sketch 3.4.2 (15857) - http://www.bohemiancoding.com/sketch -->
    <title>Page 1</title>
    <desc>Created with Sketch.</desc>
    <defs></defs>
    <g id="Design" stroke="none" stroke-width="1" fill="none" fill-rule="evenodd" sketch:type="MSPage">
        <g id="3a-community" sketch:type="MSArtboardGroup" transform="translate(-397.000000, -1660.000000)" fill="#231F1F">
            <g id="content" sketch:type="MSLayerGroup" transform="translate(140.000000, 826.000000)">
                <g id="3" transform="translate(143.000000, 796.000000)" sketch:type="MSShapeGroup">
                    <path d="M143.45,63.6666667 L143.45,44.2222222 L115.55,44.2222222 L115.55,63.6666667 C115.55,64.0952222 115.897975,64.4444444 116.325,64.4444444 L142.675,64.4444444 C143.102025,64.4444444 143.45,64.0952222 143.45,63.6666667 M115.55,40.3333333 L115.55,42.6666667 L143.45,42.6666667 L143.45,40.3333333 C143.45,39.9047778 143.102025,39.5555556 142.675,39.5555556 L116.325,39.5555556 C115.897975,39.5555556 115.55,39.9047778 115.55,40.3333333 M145,40.3333333 L145,63.6666667 C145,64.9531111 143.95685,66 142.675,66 L116.325,66 C115.04315,66 114,64.9531111 114,63.6666667 L114,40.3333333 C114,39.0468889 115.04315,38 116.325,38 L142.675,38 C143.95685,38 145,39.0468889 145,40.3333333 M140.7344,53.6582222 L135.3094,50.5471111 C134.93895,50.3347778 134.46465,50.4631111 134.2523,50.8364444 C134.03995,51.209 134.1686,51.6842222 134.5406,51.8973333 L138.7876,54.3333333 L134.5406,56.7693333 C134.1686,56.9824444 134.03995,57.4576667 134.2523,57.8302222 C134.3949,58.0814444 134.65685,58.2222222 134.925775,58.2222222 C135.055975,58.2222222 135.1885,58.1895556 135.3094,58.1195556 L140.7344,55.0084444 C140.9762,54.87 141.125,54.6125556 141.125,54.3333333 C141.125,54.0541111 140.9762,53.7966667 140.7344,53.6582222 M124.7477,50.8364444 C124.536125,50.4631111 124.061825,50.3347778 123.6906,50.5471111 L118.2656,53.6582222 C118.0238,53.7966667 117.875,54.0541111 117.875,54.3333333 C117.875,54.6125556 118.0238,54.87 118.2656,55.0084444 L123.6906,58.1195556 C123.8115,58.1895556 123.944025,58.2222222 124.074225,58.2222222 C124.34315,58.2222222 124.6051,58.0814444 124.7477,57.8302222 C124.96005,57.4576667 124.8314,56.9824444 124.4594,56.7693333 L120.2124,54.3333333 L124.4594,51.8973333 C124.8314,51.6842222 124.96005,51.209 124.7477,50.8364444 M132.518625,50.0143333 L127.868625,59.3476667 C127.732225,59.6206667 127.45865,59.7777778 127.174225,59.7777778 C127.057975,59.7777778 126.9394,59.7513333 126.828575,59.6961111 C126.445725,59.5032222 126.28995,59.0365556 126.481375,58.6523333 L131.131375,49.319 C131.323575,48.9347778 131.788575,48.7784444 132.171425,48.9705556 C132.554275,49.1634444 132.71005,49.6301111 132.518625,50.0143333" id="Page-1"></path>
                </g>
            </g>
        </g>
    </g>
</svg>