<svg xmlns="http://www.w3.org/2000/svg" xmlns:xlink="http://www.w3.org/1999/xlink" width="48" height="47" viewBox="0 0 48 47">
    <defs>
        <path id="a" d="M48 0C34.767 0 24 10.766 24 23.999c0 9.872 6.189 18.863 15.396 22.37.384.152.816.128 1.188-.052.372-.183.654-.507.777-.903l4.5-14.369a1.497 1.497 0 0 0-.705-1.76C43.209 28.21 42 26.184 42 23.998c0-3.31 2.691-6 6-6s6 2.69 6 6c0 2.187-1.209 4.211-3.156 5.288a1.494 1.494 0 0 0-.705 1.761l4.5 14.37a1.505 1.505 0 0 0 1.431 1.052c.18 0 .363-.033.534-.099C65.814 42.861 72 33.871 72 24 72 10.766 61.233 0 48 0z"/>
    </defs>
    <g fill="none" fill-rule="nonzero" transform="translate(-24)">
        <use fill="#B2E7BA" fill-rule="evenodd" xlink:href="#a"/>
        <path stroke="#1EC737" stroke-width="2" d="M48 1C35.32 1 25 11.319 25 23.999c0 9.457 5.932 18.076 14.766 21.44.115.046.255.04.377-.019a.506.506 0 0 0 .264-.304l4.5-14.37a.498.498 0 0 0-.234-.586C42.409 28.911 41 26.552 41 23.999c0-3.861 3.139-7 7-7s7 3.139 7 7c0 2.552-1.408 4.911-3.675 6.165a.495.495 0 0 0-.232.585l4.501 14.372a.5.5 0 0 0 .654.316C65.07 42.075 71 33.457 71 23.999 71 11.319 60.68 1 48 1z"/>
    </g>
</svg>
