<svg width="34" height="34" viewBox="0 0 34 34" xmlns="http://www.w3.org/2000/svg"><title>icon-report</title><g fill="none" fill-rule="evenodd"><path d="M14.333 24.294c-1.388-.078-2.862-.28-4-.628L3 27l2.667-6c-2.574-2.058-4-4.83-4-8 0-6.26 6.218-11.334 13.89-11.334 7.672 0 14.11 5.075 14.11 11.334 0 .697-.08 1.378-.228 2.04" stroke="#FFF" stroke-width="2" stroke-linejoin="round"/><path stroke="#FFF" stroke-width="2" stroke-linecap="round" stroke-linejoin="round" d="M32.333 32.333h-16l8-16zM24 22.88v4.362"/><path d="M24 29c-.554 0-1 .448-1 1s.446 1 1 1c.552 0 1-.448 1-1s-.448-1-1-1" fill="#FFF"/></g></svg>