<?xml version="1.0" encoding="UTF-8"?>
<svg width="24px" height="21px" viewBox="0 0 24 21" version="1.1" xmlns="http://www.w3.org/2000/svg" xmlns:xlink="http://www.w3.org/1999/xlink">
    <!-- Generator: Sketch 44.1 (41455) - http://www.bohemiancoding.com/sketch -->
    <title>Group</title>
    <desc>Created with Sketch.</desc>
    <defs></defs>
    <g id="Page-1" stroke="none" stroke-width="1" fill="none" fill-rule="evenodd" stroke-linejoin="round">
        <g id="Group" stroke="#000000">
            <path d="M0.5,7.5 L0.5,10.5 C0.5,11.325 0.675,12 1.5,12 L1.5,16.5 L4.5,16.5 L4.5,12 C5.324,12 5.499,11.324 5.5,10.5 L5.5,7.5 L0.5,7.5 L0.5,7.5 Z" id="Stroke-2751"></path>
            <path d="M18.5,7.5 L18.5,10.5 C18.5,11.325 18.675,12 19.5,12 L19.5,16.5 L22.5,16.5 L22.5,12 C23.324,12 23.499,11.324 23.5,10.5 L23.5,7.5 L18.5,7.5 L18.5,7.5 Z" id="Stroke-2752"></path>
            <path d="M8.5,7.5 L15.5,7.5 L15.5,12.5 C15.5,13.6 14.6,14.5 13.5,14.5 L13.5,20.5 L10.5,20.5 L10.5,14.5 C9.399,14.5 8.5,13.6 8.5,12.5 L8.5,7.5 L8.5,7.5 Z" id="Stroke-2753"></path>
            <path d="M4.5,4 C4.5,4.828 3.828,5.5 3,5.5 C2.172,5.5 1.5,4.828 1.5,4 C1.5,3.172 2.172,2.5 3,2.5 C3.828,2.5 4.5,3.172 4.5,4 L4.5,4 Z" id="Stroke-2754"></path>
            <path d="M22.5,4 C22.5,4.828 21.828,5.5 21,5.5 C20.172,5.5 19.5,4.828 19.5,4 C19.5,3.172 20.172,2.5 21,2.5 C21.828,2.5 22.5,3.172 22.5,4 L22.5,4 Z" id="Stroke-2755"></path>
            <path d="M14.5,3 C14.5,4.381 13.381,5.5 12,5.5 C10.619,5.5 9.5,4.381 9.5,3 C9.5,1.619 10.619,0.5 12,0.5 C13.381,0.5 14.5,1.619 14.5,3 L14.5,3 Z" id="Stroke-2756"></path>
        </g>
    </g>
</svg>