<?xml version="1.0" encoding="utf-8"?>
<!-- Generator: Adobe Illustrator 17.1.0, SVG Export Plug-In . SVG Version: 6.00 Build 0)  -->
<!DOCTYPE svg PUBLIC "-//W3C//DTD SVG 1.1//EN" "http://www.w3.org/Graphics/SVG/1.1/DTD/svg11.dtd">
<svg version="1.1" id="Logo_FIXED" xmlns="http://www.w3.org/2000/svg" xmlns:xlink="http://www.w3.org/1999/xlink" x="0px" y="0px"
	 viewBox="0 0 400 400" enable-background="new 0 0 400 400" xml:space="preserve">
<title>Twitter_Logo_Blue</title>
<rect display="none" width="400" height="400"/>
<path fill="#1DA1F2" d="M126.5,360.9c149.4,0,231.2-123.8,231.2-231.2c0-3.5,0-7-0.2-10.5c15.9-11.5,29.6-25.7,40.5-42.1
	c-14.8,6.6-30.6,10.9-46.7,12.8c17-10.2,29.7-26.1,35.7-44.9c-15.9,9.5-33.4,16.1-51.6,19.7c-30.8-32.7-82.2-34.3-115-3.5
	c-21.1,19.8-30.1,49.4-23.5,77.6C131.7,135.6,70.8,104.7,29.6,54C8,91.1,19,138.6,54.7,162.4c-12.9-0.4-25.6-3.9-36.9-10.2
	c0,0.3,0,0.7,0,1c0,38.7,27.3,72,65.2,79.6c-12,3.3-24.5,3.7-36.7,1.4c10.6,33.1,41.1,55.8,75.9,56.4
	c-28.8,22.6-64.3,34.9-100.9,34.8c-6.5,0-12.9-0.4-19.3-1.2C39.2,348.3,82.4,360.9,126.5,360.9"/>
</svg>
