<svg xmlns="http://www.w3.org/2000/svg" width="32" height="32" viewBox="0 0 32 32"><path fill="#fff" d="M11.019 13.433l4.274 4.274 1.414-1.414-5-5c-.391-.391-1.024-.391-1.414 0l-5 5 1.414 1.414 4.312-4.274z"/><g fill="#fff"><path d="M27 25.003v-22.006c0-1.102-.895-1.997-1.997-1.997h-22.006c-1.102 0-1.997.894-1.997 1.997v22.006c0 1.102.894 1.997 1.997 1.997h22.006c1.102 0 1.997-.895 1.997-1.997zm-2-.003h-22v-4h22v4zm0-6h-22v-16h22v16zM30 5c-.557 0-1 .448-1 1.001v22.999h-22.999c-.554 0-1.001.448-1.001 1 0 .557.449 1 1.003 1h23c1.102 0 1.997-.895 1.997-1.997v-23c0-.552-.448-1.003-1-1.003z"/></g><g fill="#fff"><path d="M8 5c-1.657 0-3 1.343-3 3s1.343 3 3 3 3-1.343 3-3-1.343-3-3-3zm0 4c-.552 0-1-.448-1-1s.448-1 1-1 1 .448 1 1-.448 1-1 1zM17.23 8.77c-.392-.391-1.024-.391-1.415 0l-4.523 4.523 1.414 1.414 3.811-3.821 5.321 5.321 1.414-1.414-6.022-6.023z"/></g></svg>
