<?xml version="1.0" encoding="UTF-8" standalone="no"?>
<svg width="29px" height="36px" viewBox="0 0 29 36" version="1.1" xmlns="http://www.w3.org/2000/svg" xmlns:xlink="http://www.w3.org/1999/xlink" xmlns:sketch="http://www.bohemiancoding.com/sketch/ns">
    <!-- Generator: Sketch 3.4.4 (17248) - http://www.bohemiancoding.com/sketch -->
    <title>learn</title>
    <desc>Created with Sketch.</desc>
    <defs>
        <path id="path-1" d="M0,0 L29,0 L29,36 L0,36"></path>
    </defs>
    <g id="Design" stroke="none" stroke-width="1" fill="none" fill-rule="evenodd" sketch:type="MSPage">
        <g id="6a-student" sketch:type="MSArtboardGroup" transform="translate(-290.000000, -954.000000)">
            <g id="Section-1" sketch:type="MSLayerGroup" transform="translate(0.000000, 711.000000)">
                <g id="3" transform="translate(245.000000, 241.000000)">
                    <g id="learn" transform="translate(45.000000, 2.000000)">
                        <mask id="mask-2" sketch:name="Clip 2" fill="white">
                            <use xlink:href="#path-1"></use>
                        </mask>
                        <g id="Clip-2"></g>
                        <path d="M1.8125,6.69933 L1.8125,32.39973 C1.8125,33.39243 2.62540625,34.19973 3.625,34.19973 L27.1875,34.19973 L27.1875,7.19973 L22.65625,7.19973 L3.625,7.19973 C2.961625,7.19973 2.34809375,7.00893 1.8125,6.69933 M27.1875,3.59973 L27.1875,1.79973 L3.625,1.79973 C2.62540625,1.79973 1.8125,2.60703 1.8125,3.59973 C1.8125,4.59243 2.62540625,5.39973 3.625,5.39973 L22.65625,5.39973 L27.1875,5.39973 C28.1870938,5.39973 29,6.20703 29,7.19973 L29,34.19973 C29,35.19243 28.1870938,35.99973 27.1875,35.99973 L3.625,35.99973 C1.6258125,35.99973 0,34.38513 0,32.39973 L0,3.59973 C0,1.61523 1.6258125,-0.00027 3.625,-0.00027 L27.1875,-0.00027 C28.1870938,-0.00027 29,0.80703 29,1.79973 L29,3.59973 C29,4.09743 28.5949063,4.49973 28.09375,4.49973 C27.5925937,4.49973 27.1875,4.09743 27.1875,3.59973 M13.59375,16.19973 C13.59375,18.18513 14.8135625,19.79973 16.3125,19.79973 C17.8114375,19.79973 19.03125,18.18513 19.03125,16.19973 C19.03125,14.21523 17.8114375,12.59973 16.3125,12.59973 C14.8135625,12.59973 13.59375,14.21523 13.59375,16.19973 M11.78125,16.19973 C11.78125,13.22253 13.8139688,10.79973 16.3125,10.79973 C18.8110313,10.79973 20.84375,13.22253 20.84375,16.19973 C20.84375,19.17783 18.8110313,21.59973 16.3125,21.59973 C13.8139688,21.59973 11.78125,19.17783 11.78125,16.19973 M4.53125,32.39973 C5.03240625,32.39973 5.4375,31.99743 5.4375,31.49973 L5.4375,9.89973 C5.4375,9.40293 5.03240625,8.99973 4.53125,8.99973 C4.03009375,8.99973 3.625,9.40293 3.625,9.89973 L3.625,31.49973 C3.625,31.99743 4.03009375,32.39973 4.53125,32.39973 M19.9375,26.99973 L12.6875,26.99973 C12.1863438,26.99973 11.78125,27.40293 11.78125,27.89973 C11.78125,28.39743 12.1863438,28.79973 12.6875,28.79973 L19.9375,28.79973 C20.4386563,28.79973 20.84375,28.39743 20.84375,27.89973 C20.84375,27.40293 20.4386563,26.99973 19.9375,26.99973 M9.96875,24.29973 C9.96875,23.80293 10.3738438,23.39973 10.875,23.39973 L21.75,23.39973 C22.2511563,23.39973 22.65625,23.80293 22.65625,24.29973 C22.65625,24.79743 22.2511563,25.19973 21.75,25.19973 L10.875,25.19973 C10.3738438,25.19973 9.96875,24.79743 9.96875,24.29973" id="Fill-1" fill="#3D3D3D" sketch:type="MSShapeGroup" mask="url(#mask-2)"></path>
                    </g>
                </g>
            </g>
        </g>
    </g>
</svg>