<svg width="32" height="32" viewBox="0 0 32 32" xmlns="http://www.w3.org/2000/svg" xmlns:sketch="http://www.bohemiancoding.com/sketch/ns"><title>icon-vps</title><desc>Created with Sketch.</desc><g sketch:type="MSLayerGroup" fill="#3D3D3D"><path d="M8.473 16c-4.673 0-8.473-2.498-8.473-5.568 0-1.464.858-2.847 2.417-3.894 1.365-.916 3.134-1.486 5.048-1.634.226-1.257 1.093-2.42 2.488-3.317 1.593-1.025 3.697-1.588 5.925-1.588 2.228 0 4.333.563 5.925 1.587 1.389.893 2.253 2.049 2.485 3.3 4.317.254 7.712 2.644 7.712 5.545 0 3.07-3.803 5.567-8.474 5.567h-15.053zm0-2h15.053c3.7 0 6.474-1.822 6.474-3.567 0-1.62-2.419-3.348-5.83-3.549-.918-.054-1.681-.728-1.849-1.632-.124-.67-.652-1.372-1.6-1.982-1.254-.806-2.983-1.269-4.844-1.269-1.861 0-3.589.463-4.844 1.27-.952.612-1.48 1.317-1.601 1.988-.161.896-.906 1.57-1.814 1.64-1.587.123-3.024.588-4.087 1.301-1.04.698-1.531 1.49-1.531 2.233 0 1.746 2.772 3.568 6.473 3.568zM1 10.272h1v8.16c0 1.746 2.772 3.568 6.473 3.568h15.053c3.7 0 6.474-1.822 6.474-3.567v-8.16h2v8.16c0 3.07-3.803 5.567-8.474 5.567h-15.053c-4.673 0-8.473-2.498-8.473-5.568v-8.16h1z" id="Shape" sketch:type="MSShapeGroup"/><path d="M24 20c.552 0 1-.448 1-1s-.448-1-1-1-1 .448-1 1 .448 1 1 1zm-17-1c0-.552.456-1 .995-1h8.009c.55 0 .995.444.995 1 0 .552-.456 1-.995 1h-8.009c-.55 0-.995-.444-.995-1zm13 1c.552 0 1-.448 1-1s-.448-1-1-1-1 .448-1 1 .448 1 1 1z" id="Oval-12" sketch:type="MSShapeGroup"/><path d="M1 18.272h1v8.16c0 1.746 2.772 3.568 6.473 3.568h15.053c3.7 0 6.474-1.822 6.474-3.567v-8.16h2v8.16c0 3.07-3.803 5.567-8.474 5.567h-15.053c-4.673 0-8.473-2.498-8.473-5.568v-8.16h1z" sketch:type="MSShapeGroup"/><path d="M24 28c.552 0 1-.448 1-1s-.448-1-1-1-1 .448-1 1 .448 1 1 1zm-17-1c0-.552.456-1 .995-1h8.009c.55 0 .995.444.995 1 0 .552-.456 1-.995 1h-8.009c-.55 0-.995-.444-.995-1zm13 1c.552 0 1-.448 1-1s-.448-1-1-1-1 .448-1 1 .448 1 1 1z" sketch:type="MSShapeGroup"/></g></svg>