<?xml version="1.0" encoding="UTF-8" standalone="no"?>
<svg width="16px" height="16px" viewBox="0 0 16 16" version="1.1" xmlns="http://www.w3.org/2000/svg" xmlns:xlink="http://www.w3.org/1999/xlink" xmlns:sketch="http://www.bohemiancoding.com/sketch/ns">
    <!-- Generator: Sketch 3.4.2 (15857) - http://www.bohemiancoding.com/sketch -->
    <title>medaille</title>
    <desc>Created with Sketch.</desc>
    <defs>
        <path id="path-1" d="M0,0 L15.913,0 L15.913,16 L0,16 L0,0 Z"></path>
    </defs>
    <g id="Design" stroke="none" stroke-width="1" fill="none" fill-rule="evenodd" sketch:type="MSPage">
        <g id="1a-about" sketch:type="MSArtboardGroup" transform="translate(-712.000000, -3439.000000)">
            <g id="4" sketch:type="MSLayerGroup" transform="translate(171.000000, 2547.000000)">
                <g id="timeline" transform="translate(0.000000, 218.000000)">
                    <g id="5" transform="translate(96.000000, 606.000000)">
                        <g id="medaille" transform="translate(445.000000, 68.000000)">
                            <g id="Group-3">
                                <mask id="mask-2" sketch:name="Clip 2" fill="white">
                                    <use xlink:href="#path-1"></use>
                                </mask>
                                <g id="Clip-2"></g>
                                <path d="M11.9345,12.0001 C11.6705,12.0001 11.4175,12.1051 11.2315,12.2931 L10.2175,13.3121 L9.4655,11.7991 C10.6135,11.4971 11.6245,10.8631 12.3935,10.0021 L13.3085,12.0001 L11.9345,12.0001 Z M7.9565,10.0001 C5.7625,10.0001 3.9785,8.2051 3.9785,6.0001 C3.9785,3.7941 5.7625,2.0001 7.9565,2.0001 C10.1495,2.0001 11.9345,3.7941 11.9345,6.0001 C11.9345,8.2051 10.1495,10.0001 7.9565,10.0001 L7.9565,10.0001 Z M5.6955,13.3121 L4.6815,12.2921 C4.4945,12.1051 4.2415,12.0001 3.9785,12.0001 L2.6035,12.0001 L3.5195,10.0021 C4.2885,10.8631 5.2995,11.4981 6.4475,11.7991 L5.6955,13.3121 Z M15.8075,12.5531 L13.5235,8.1461 C13.7785,7.4791 13.9235,6.7571 13.9235,6.0001 C13.9235,2.6861 11.2515,0.0001 7.9565,0.0001 C4.6605,0.0001 1.9885,2.6861 1.9885,6.0001 C1.9885,6.7571 2.1345,7.4791 2.3895,8.1461 L0.1045,12.5531 C-0.0495,12.8631 -0.0325,13.2311 0.1485,13.5261 C0.3295,13.8201 0.6495,14.0001 0.9945,14.0001 L3.5665,14.0001 L5.2645,15.7071 C5.4525,15.8961 5.7065,16.0001 5.9685,16.0001 C6.0215,16.0001 6.0745,15.9951 6.1275,15.9871 C6.4435,15.9351 6.7145,15.7351 6.8575,15.4471 L7.9565,13.2371 L9.0555,15.4471 C9.1995,15.7351 9.4705,15.9351 9.7865,15.9871 C9.8385,15.9951 9.8925,16.0001 9.9455,16.0001 C10.2075,16.0001 10.4605,15.8961 10.6485,15.7071 L12.3465,14.0001 L14.9185,14.0001 C15.2625,14.0001 15.5825,13.8201 15.7635,13.5261 C15.9455,13.2311 15.9615,12.8631 15.8075,12.5531 L15.8075,12.5531 Z" id="Fill-1" fill="#2E2B2C" sketch:type="MSShapeGroup" mask="url(#mask-2)"></path>
                            </g>
                            <path d="M7.9563,4 C7.4093,4 6.9613,4.45 6.9613,5 L6.9613,7 C6.9613,7.55 7.4093,8 7.9563,8 C8.5033,8 8.9513,7.55 8.9513,7 L8.9513,5 C8.9513,4.45 8.5033,4 7.9563,4" id="Fill-4" fill="#2E2B2C" sketch:type="MSShapeGroup"></path>
                        </g>
                    </g>
                </g>
            </g>
        </g>
    </g>
</svg>