<?xml version="1.0" encoding="UTF-8" standalone="no"?>
<svg width="38px" height="38px" viewBox="0 0 38 38" version="1.1" xmlns="http://www.w3.org/2000/svg" xmlns:xlink="http://www.w3.org/1999/xlink" xmlns:sketch="http://www.bohemiancoding.com/sketch/ns">
    <!-- Generator: Sketch 3.4.4 (17248) - http://www.bohemiancoding.com/sketch -->
    <title>world</title>
    <desc>Created with Sketch.</desc>
    <defs>
        <path id="path-1" d="M0,0.0564411765 L37.9435588,0.0564411765 L37.9435588,38 L0,38"></path>
    </defs>
    <g id="Design" stroke="none" stroke-width="1" fill="none" fill-rule="evenodd" sketch:type="MSPage">
        <g id="3a-Sync-files-and-photos" sketch:type="MSArtboardGroup" transform="translate(-262.000000, -935.000000)">
            <g id="Section-1" sketch:type="MSLayerGroup" transform="translate(0.000000, 711.000000)">
                <g id="3" transform="translate(262.000000, 221.000000)">
                    <g id="world" transform="translate(0.000000, 3.000000)">
                        <mask id="mask-2" sketch:name="Clip 2" fill="white">
                            <use xlink:href="#path-1"></use>
                        </mask>
                        <g id="Clip-2"></g>
                        <path d="M18.9718213,36.5446279 C9.95366691,36.5446279 2.51223309,29.6921941 1.55929926,20.9253706 C2.23505662,20.9253706 3.15334338,20.5875618 4.12360074,20.1976426 C4.85118897,19.9031426 5.6308875,19.6173044 6.01214485,19.6173044 C6.10742426,19.9551132 5.91672574,20.9253706 5.76947574,21.4624 C5.52694632,22.3806868 5.3363875,23.3076353 5.57891691,24.0353632 C5.57891691,24.0873338 7.66668162,29.5622676 10.2396449,29.5622676 C10.3868949,29.5622676 10.4821743,29.5102971 10.6294243,29.5102971 C12.7604978,29.0772088 12.6652184,26.8941647 12.6219096,25.4387088 C12.569939,24.7630912 12.569939,23.9314221 12.7691596,23.6455838 C13.0636596,23.2123559 13.7913875,22.8658853 14.4671449,22.5800471 C15.3854316,22.1468191 16.3555493,21.7570397 16.8407478,20.8820618 C17.5684757,19.669275 17.1352478,16.7065324 16.5982184,15.1557971 C16.2082993,14.0902603 15.775211,13.5099221 15.1947331,13.2673926 C14.7096743,13.1200029 14.2244757,13.0247235 13.6441375,13.0247235 C12.864439,13.0247235 12.0414316,13.1719735 11.365814,13.3193632 C10.8286449,13.4146426 10.3955566,13.5099221 10.0576081,13.5099221 L9.86704926,13.5099221 C9.47726985,13.3626721 9.23474044,13.0766941 8.89679191,12.5396647 C8.55898309,12.0024956 8.11723309,11.3268779 7.25091691,10.9369588 C6.28065956,10.5471794 5.11984338,10.0619809 4.09761544,10.0619809 L3.95902721,10.0619809 C7.02557132,4.95098088 12.6132478,1.52036324 18.9891449,1.52036324 C25.6682037,1.52036324 31.4897478,5.28878971 34.4438287,10.8070324 L34.322564,11.2749074 C34.322564,11.3268779 33.7853949,13.5099221 32.1914904,13.5099221 L32.1395199,13.5099221 C31.4117919,13.4579515 29.661836,11.5694074 28.8389684,10.6511206 C28.4057404,10.2180324 28.0592699,9.82811324 27.7732919,9.53361324 C26.9937331,8.80588529 25.4949684,7.40253971 23.9443728,7.40253971 C23.3638949,7.40253971 22.8268654,7.59309853 22.3936375,7.93956912 C21.1288801,8.85785588 21.7180199,10.9975912 22.2983581,13.0333853 C22.5408875,13.8563926 22.7835566,14.7833412 22.7835566,15.2684 C22.7835566,16.0914074 22.1511081,17.0616647 21.5186596,17.9886132 C20.6005125,19.34865 19.4828654,21.0466353 20.7391007,22.5452603 C21.0336007,22.9351794 21.466689,23.1257382 21.8999169,23.1257382 C22.4802551,23.1257382 23.0174243,22.7359588 23.5457919,22.3460397 C24.1782404,21.8609809 24.9059684,21.3757824 25.7809463,21.3757824 C26.3612846,21.3757824 26.9417625,21.6184515 27.6260419,22.0082309 C28.3537699,22.4413191 28.3017993,23.4115765 28.163211,24.9190029 C28.015961,26.2270691 27.9206816,27.6390765 28.890939,28.4101132 C29.185439,28.6526426 29.5232478,28.7998926 29.9131669,28.7998926 C30.5887846,28.7998926 31.1259537,28.3668044 31.6110125,27.977025 C31.9488213,27.6823853 32.2867699,27.3965471 32.6332404,27.3012676 L32.7804904,27.3012676 C33.2137184,27.3012676 33.9066596,27.4831647 34.4351669,27.6390765 C31.740939,32.7069074 26.5431816,36.5446279 18.9718213,36.5446279 M11.1144831,25.5253265 C11.1664537,27.3185912 11.0625125,27.9510397 10.2916154,28.0982897 L10.2396449,28.0982897 C9.1221375,28.0982897 7.38084338,24.7024588 6.93895368,23.5415029 C6.84367426,23.2036941 7.03437279,22.3806868 7.18162279,21.7483779 C7.47612279,20.5355912 7.76196103,19.2706941 6.99092426,18.4997971 C6.74839485,18.2571279 6.41058603,18.1098779 6.02080662,18.1098779 C5.34504926,18.1098779 4.51338015,18.4478265 3.59509338,18.8895765 C2.86736544,19.1840765 1.99252721,19.522025 1.55929926,19.522025 C1.46401985,17.5295397 2.47758603,13.1633118 3.64706397,11.7599662 C3.74234338,11.6127162 3.9850125,11.6127162 4.1322625,11.6127162 C4.95513015,11.6127162 6.16805662,12.1931941 6.65311544,12.3924147 C7.08634338,12.5829735 7.38084338,12.9727529 7.67534338,13.4579515 C8.06512279,14.0382897 8.49835074,14.7227088 9.42529926,15.0085471 C9.96232868,15.1991059 10.785336,15.0605176 11.660314,14.8612971 C12.2927625,14.7140471 13.0203507,14.5667971 13.6527993,14.5667971 C14.0425787,14.5667971 14.3805272,14.6187676 14.6750272,14.7140471 C14.7703066,14.7660176 15.1081154,15.1471353 15.4027551,16.2646426 C15.8358434,17.9106574 15.887814,19.7125838 15.593314,20.1976426 C15.2986743,20.6308706 14.571086,20.9773412 13.8433581,21.31515 C12.9250713,21.7050691 12.0500934,22.0948485 11.513064,22.8658853 C11.0625125,23.5415029 11.0625125,24.5117603 11.1144831,25.5253265 M28.3797551,20.72615 C27.4614684,20.1889809 26.5864904,19.9031426 25.7636228,19.9031426 C24.4034463,19.9031426 23.3898801,20.6308706 22.7056007,21.2112088 C22.410961,21.4017676 22.0298434,21.6964074 21.8825934,21.6964074 C21.8825934,21.6964074 21.8306228,21.6964074 21.787314,21.6011279 C21.3021154,21.02065 21.6920346,20.2929221 22.6622919,18.8376059 C23.3898801,17.7720691 24.2128875,16.5592824 24.2128875,15.294525 C24.2128875,14.5667971 23.9703581,13.6485103 23.6758581,12.6262824 C23.3379096,11.508775 22.7575713,9.42101029 23.2426301,9.08320147 C23.4851596,8.89250294 23.6758581,8.84053235 23.9183875,8.84053235 C24.9406154,8.84053235 26.196711,10.0013485 26.7770493,10.5904882 C27.0197184,10.7810471 27.3575272,11.1709662 27.7473066,11.6127162 C29.4452919,13.5012603 30.8053287,14.9132676 32.061564,14.9565765 L32.1568434,14.9565765 C33.8027184,14.9565765 34.7729757,13.7957603 35.2581743,12.8255029 C35.6912625,13.6485103 36.2284316,15.441775 36.2284316,19.2793559 C36.2284316,23.0651059 35.3101449,25.3434294 34.8682551,26.2617162 C34.2879169,26.0711574 33.3609684,25.8286279 32.7371816,25.8286279 C32.4946522,25.8286279 32.3040934,25.8805985 32.1568434,25.9239074 C31.5243949,26.1144662 31.0913066,26.5042456 30.6494169,26.8421941 C30.4068875,27.0327529 30.0171081,27.3272529 29.8697184,27.3272529 L29.774439,27.2752824 C29.3846596,26.9807824 29.479939,25.9672162 29.5838801,25.0402676 C29.7397919,23.5415029 29.9391522,21.6964074 28.3797551,20.72615 M18.9718213,0.0563852941 C8.48968897,0.0563852941 4.1911765e-05,8.54603235 4.1911765e-05,19.0281647 C4.1911765e-05,29.5102971 8.48968897,37.9999441 18.9718213,37.9999441 C29.7917625,37.9999441 37.9436007,29.8482456 37.9436007,19.0281647 C37.9436007,8.54603235 29.4539537,0.0563852941 18.9718213,0.0563852941" id="Fill-1" fill="#FFFFFF" sketch:type="MSShapeGroup" mask="url(#mask-2)"></path>
                    </g>
                </g>
            </g>
        </g>
    </g>
</svg>