<svg width="16" height="15" viewBox="0 0 16 15" xmlns="http://www.w3.org/2000/svg"><title>Image</title><path d="M11.77 6.66c.34.32.37.65.37.98 0 2.33-1.85 4.2-4.13 4.2s-4.14-1.87-4.14-4.2c0-.33.04-.66.13-.98H.5v7c0 .73.57 1.34 1.25 1.34h12.5c.68 0 1.25-.61 1.25-1.34v-7h-3.73zm-1.34 1.05c0 1.46-1.15 2.65-2.55 2.65S5.34 9.17 5.34 7.71s1.14-2.64 2.54-2.64c1.4 0 2.55 1.18 2.55 2.64zm4.05-4.63c0 .24-.23.44-.52.44h-1.99c-.29 0-.54-.2-.54-.44V1.45c0-.24.25-.42.54-.42h1.99c.29 0 .52.18.52.42v1.63zM14.16 0H1.75C1.07 0 .5.61.5 1.29v3.24h4.84c.76-.55 1.57-1.02 2.54-1.02.95 0 1.8.47 2.55 1.02h5.07V1.29C15.5.61 14.89 0 14.16 0z" fill="#3D3D3D" fill-rule="evenodd"/></svg>