<?xml version="1.0" encoding="UTF-8" standalone="no"?>
<svg width="16px" height="15px" viewBox="0 0 16 15" version="1.1" xmlns="http://www.w3.org/2000/svg" xmlns:xlink="http://www.w3.org/1999/xlink" xmlns:sketch="http://www.bohemiancoding.com/sketch/ns">
    <!-- Generator: Sketch 3.4.2 (15857) - http://www.bohemiancoding.com/sketch -->
    <title>stars</title>
    <desc>Created with Sketch.</desc>
    <defs></defs>
    <g id="Design" stroke="none" stroke-width="1" fill="none" fill-rule="evenodd" sketch:type="MSPage">
        <g id="1a-about" sketch:type="MSArtboardGroup" transform="translate(-712.000000, -3974.000000)" fill="#2E2B2C">
            <g id="4" sketch:type="MSLayerGroup" transform="translate(171.000000, 2547.000000)">
                <g id="timeline" transform="translate(0.000000, 218.000000)" sketch:type="MSShapeGroup">
                    <g id="8" transform="translate(527.000000, 1165.000000)">
                        <path d="M21.9257,53.6986 C22.1337,53.6986 22.3427,53.7656 22.5187,53.8996 L24.2587,55.2296 L23.6357,53.3386 C23.4907,52.8996 23.6567,52.4146 24.0377,52.1636 L25.4927,51.2056 L23.5627,51.2056 C23.1337,51.2056 22.7527,50.9236 22.6207,50.5056 L21.9257,48.3186 L21.2307,50.5056 C21.0987,50.9236 20.7177,51.2056 20.2887,51.2056 L18.3367,51.2056 L19.8157,52.1876 C20.1987,52.4416 20.3617,52.9296 20.2127,53.3706 L19.6007,55.1686 L21.3487,53.8886 C21.5217,53.7616 21.7237,53.6986 21.9257,53.6986 M26.2117,58.9996 C26.0027,58.9996 25.7937,58.9326 25.6187,58.7986 L21.9127,55.9666 L18.2167,58.6746 C17.8657,58.9326 17.3927,58.9286 17.0467,58.6626 C16.7007,58.3986 16.5617,57.9356 16.7037,57.5186 L18.0857,53.4556 L14.4517,51.0426 C14.0837,50.7986 13.9167,50.3346 14.0407,49.9056 C14.1657,49.4746 14.5517,49.1796 14.9907,49.1796 L19.5687,49.1796 L20.9837,44.7266 C21.1157,44.3086 21.4967,44.0266 21.9257,44.0266 C22.3547,44.0266 22.7357,44.3086 22.8677,44.7266 L24.2827,49.1796 L28.8607,49.1796 C29.2997,49.1796 29.6867,49.4756 29.8107,49.9066 C29.9347,50.3376 29.7667,50.8006 29.3967,51.0446 L25.7597,53.4396 L27.1507,57.6636 C27.2887,58.0836 27.1437,58.5476 26.7927,58.8066 C26.6197,58.9356 26.4157,58.9996 26.2117,58.9996" id="stars"></path>
                    </g>
                </g>
            </g>
        </g>
    </g>
</svg>