<svg xmlns="http://www.w3.org/2000/svg" width="32" height="32" viewBox="0 0 32 32"><g fill="#fff"><path d="M27.003 0h-22.006c-1.102 0-1.997.896-1.997 2.002v27.995c0 1.112.897 2.002 2.004 2.002h22.001c.54 0 .995-.448.995-1 0-.556-.449-1-1.003-1h-21.495c-.274 0-.502-.224-.502-.5 0-.269.224-.5.501-.5h21.494c1.108 0 2.005-.892 2.005-1.993v-25.013c0-1.093-.895-1.993-1.997-1.993zm-.003 26.307c0 .382-.329.693-.734.693h-20.533c-.404 0-.734-.311-.734-.693v-23.612c0-.383.329-.694.734-.694h20.533c.404 0 .734.311.734.694v23.612zM21.957 16.793c-.817-.817-2.047-1.375-3.721-1.631 1.113-.938 1.764-2.54 1.764-4.162 0-2.209-1.791-4-4-4s-4 1.791-4 4c0 1.622.651 3.224 1.764 4.162-1.674.256-2.904.814-3.721 1.631-.771.771-1.043 1.587-1.043 2.207v2c0 .552.448 1 1 1s1-.448 1-1v-2l.042-.152c.069-.209.2-.426.415-.641.729-.728 2.163-1.207 4.543-1.207s3.814.479 4.543 1.207c.215.215.346.432.415.641l.042.152v2c0 .552.448 1 1 1s1-.448 1-1v-2c0-.62-.271-1.436-1.043-2.207zm-5.957-7.793c1.105 0 2 .895 2 2 0 1.553-.913 3-2 3s-2-1.447-2-3c0-1.105.895-2 2-2z"/></g></svg>