<svg xmlns="http://www.w3.org/2000/svg" width="32" height="32" viewBox="0 0 32 32"><g fill="#3D3D3D"><path d="M4 22h-3c-.556 0-1 .448-1 1 0 .557.448 1 1 1h3c.556 0 1-.448 1-1 0-.557-.448-1-1-1zM8 26c-.556 0-1 .448-1 1v3c0 .557.448 1 1 1 .556 0 1-.448 1-1v-3c0-.557-.448-1-1-1zM8 6c.556 0 1-.448 1-1v-3c0-.556-.448-1-1-1-.556 0-1 .448-1 1v3c0 .556.448 1 1 1zM28 10h3c.557 0 1-.448 1-1 0-.556-.448-1-1-1h-3c-.557 0-1 .448-1 1 0 .556.448 1 1 1zM4 8h-3c-.556 0-1 .448-1 1 0 .556.448 1 1 1h3c.556 0 1-.448 1-1 0-.556-.448-1-1-1zM24 26c-.557 0-1 .448-1 1v3c0 .557.448 1 1 1 .557 0 1-.448 1-1v-3c0-.557-.448-1-1-1zM31 22h-3c-.557 0-1 .448-1 1 0 .557.448 1 1 1h3c.557 0 1-.448 1-1 0-.557-.448-1-1-1zM24 1c-.557 0-1 .448-1 1v3c0 .556.448 1 1 1 .557 0 1-.448 1-1v-3c0-.556-.448-1-1-1zM23.005 8h-14.01c-1.102 0-1.995.893-1.995 1.994v12.012c0 1.099.893 1.994 1.995 1.994h14.01c1.102 0 1.995-.893 1.995-1.994v-12.012c0-1.099-.893-1.994-1.995-1.994zm-.005 14h-14v-12h14v12z"/></g></svg>
