<svg xmlns="http://www.w3.org/2000/svg" width="128" height="128" viewBox="0 0 128 128" xmlns:xlink="http://www.w3.org/1999/xlink">
  <defs>
    <circle id="a" cx="104" cy="93" r="24"/>
  </defs>
  <g fill="none" fill-rule="evenodd" transform="translate(0 11)">
    <path fill="#33A6FF" d="M94.1070278,98.0210526 L33.8929722,98.0210526 C15.200112,98.0210526 0,82.7201427 0,63.9112192 C0,54.9417201 3.43129214,46.4689539 9.66651329,40.0577568 C15.1284134,34.4469942 22.2035329,30.954423 29.8573629,30.0458912 C30.7612779,22.3426745 34.2284194,15.2211239 39.8081101,9.72617982 C46.1790466,3.44881739 54.5959549,0 63.5096325,0 C72.4207494,0 80.8402185,3.44881739 87.2111549,9.72360605 C92.7677996,15.1953865 96.2246984,22.2783309 97.1516594,29.9403678 C114.418229,31.4974829 128,46.1395146 128,63.9137927 C128,82.7201427 112.789645,98.0210526 94.1044672,98.0210526 L94.1070278,98.0210526 L94.1070278,98.0210526 Z"/>
    <use fill="#FF9126" xlink:href="#a"/>
    <circle cx="104" cy="93" r="25" stroke="#FFFFFF" stroke-width="2"/>
    <g fill="#FFFFFF" fill-rule="nonzero" transform="translate(92 81)">
      <path d="M0.019031732,13.7381869 C0.950348795,19.5288124 6.09876327,24 12,24 C16.6396293,24 20.8698695,21.3046617 22.8949716,17.1958892 C23.2612125,16.4528151 22.955729,15.5535376 22.2126549,15.1872967 C21.4695808,14.8210557 20.5703033,15.1265393 20.2040624,15.8696133 C18.6785655,18.9647263 15.4842738,21 12,21 C7.58388205,21 3.6802755,17.6098772 2.98096827,13.2618131 C2.84942129,12.4438969 2.07972931,11.8874848 1.26181312,12.0190317 C0.443896932,12.1505787 -0.112515249,12.9202707 0.019031732,13.7381869 Z M23.9859653,10.2952877 C23.1763393,4.41837612 18.0372964,0 12,0 C7.288991,0 3.02538845,2.71692679 1.0422889,6.87409868 C0.685608093,7.62180872 1.00259991,8.51709439 1.75030995,8.8737752 C2.49801999,9.23045601 3.39330566,8.91346419 3.74998647,8.16575415 C5.23745035,5.04758341 8.45066974,3 12,3 C16.5473008,3 20.4101363,6.32113598 21.0140347,10.7047123 C21.1270942,11.5253883 21.8840363,12.0990248 22.7047123,11.9859653 C23.5253883,11.8729058 24.0990248,11.1159637 23.9859653,10.2952877 Z"/>
      <path d="M18.9602766 5.59766808C18.3238613 5.06732196 17.3780142 5.15330805 16.8476681 5.7897234 16.317322 6.42613875 16.4033081 7.3719858 17.0397234 7.90233192L21.5397234 11.6523319C22.5167138 12.4664906 24 11.7717565 24 10.5L24 4.5C24 3.67157288 23.3284271 3 22.5 3 21.6715729 3 21 3.67157288 21 4.5L21 7.29743758 18.9602766 5.59766808zM5.0397234 18.4023319C5.67613875 18.932678 6.6219858 18.8466919 7.15233192 18.2102766 7.68267804 17.5738613 7.59669195 16.6280142 6.9602766 16.0976681L2.4602766 12.3476681C1.48328622 11.5335094 0 12.2282435 0 13.5L0 19.5C0 20.3284271.671572875 21 1.5 21 2.32842712 21 3 20.3284271 3 19.5L3 16.7025624 5.0397234 18.4023319z"/>
    </g>
  </g>
</svg>
