<?xml version="1.0" encoding="UTF-8" standalone="no"?>
<svg width="16px" height="16px" viewBox="0 0 16 16" version="1.1" xmlns="http://www.w3.org/2000/svg" xmlns:xlink="http://www.w3.org/1999/xlink" xmlns:sketch="http://www.bohemiancoding.com/sketch/ns">
    <!-- Generator: Sketch 3.4.2 (15857) - http://www.bohemiancoding.com/sketch -->
    <title>code</title>
    <desc>Created with Sketch.</desc>
    <defs></defs>
    <g id="Design" stroke="none" stroke-width="1" fill="none" fill-rule="evenodd" sketch:type="MSPage">
        <g id="1a-about" sketch:type="MSArtboardGroup" transform="translate(-713.000000, -3794.000000)" fill="#2E2B2C">
            <g id="4" sketch:type="MSLayerGroup" transform="translate(171.000000, 2547.000000)">
                <g id="timeline" transform="translate(0.000000, 218.000000)" sketch:type="MSShapeGroup">
                    <g id="7" transform="translate(112.000000, 999.000000)">
                        <g id="Page-1" transform="translate(430.000000, 30.000000)">
                            <g id="code">
                                <path d="M9.06,0.1505 L9.027,0.1455 C8.498,0.0685 8.002,0.4425 7.925,0.9775 L5.932,14.8705 C5.856,15.4055 6.226,15.9075 6.756,15.9845 L6.788,15.9895 C7.318,16.0675 7.814,15.6925 7.891,15.1575 L9.883,1.2655 C9.96,0.7295 9.589,0.2285 9.06,0.1505" id="Fill-6"></path>
                                <path d="M4.4859,4.4978 C4.1009,4.1048 3.4719,4.1048 3.0869,4.4978 L0.2889,7.3538 C-0.0961,7.7468 -0.0961,8.3888 0.2889,8.7818 L3.0869,11.6378 C3.4719,12.0308 4.1009,12.0308 4.4859,11.6378 C4.8709,11.2448 4.8709,10.6028 4.4859,10.2098 L2.3869,8.0678 L4.4859,5.9258 C4.8709,5.5328 4.8709,4.8908 4.4859,4.4978" id="Fill-1"></path>
                                <path d="M15.5405,7.3538 L12.7425,4.4978 C12.3575,4.1048 11.7275,4.1048 11.3435,4.4978 C10.9585,4.8908 10.9585,5.5328 11.3435,5.9258 L13.4415,8.0678 L11.3435,10.2098 C10.9585,10.6028 10.9585,11.2448 11.3435,11.6378 C11.7275,12.0308 12.3575,12.0308 12.7425,11.6378 L15.5405,8.7818 C15.9255,8.3888 15.9255,7.7468 15.5405,7.3538" id="Fill-3"></path>
                            </g>
                        </g>
                    </g>
                </g>
            </g>
        </g>
    </g>
</svg>