<?xml version="1.0" encoding="UTF-8" standalone="no"?>
<svg width="20px" height="42px" viewBox="0 0 20 42" version="1.1" xmlns="http://www.w3.org/2000/svg" xmlns:xlink="http://www.w3.org/1999/xlink" xmlns:sketch="http://www.bohemiancoding.com/sketch/ns">
    <!-- Generator: Sketch 3.4.4 (17248) - http://www.bohemiancoding.com/sketch -->
    <title>rocket</title>
    <desc>Created with Sketch.</desc>
    <defs>
        <path id="path-1" d="M0,0.0303737024 L19.9768953,0.0303737024 L19.9768953,42 L0,42 L0,0.0303737024 Z"></path>
        <path id="path-3" d="M0,0.0303737024 L19.9768953,0.0303737024 L19.9768953,42 L0,42 L0,0.0303737024 Z"></path>
    </defs>
    <g id="Design" stroke="none" stroke-width="1" fill="none" fill-rule="evenodd" sketch:type="MSPage">
        <g id="6a-student" sketch:type="MSArtboardGroup" transform="translate(-296.000000, -1022.000000)">
            <g id="Section-1" sketch:type="MSLayerGroup" transform="translate(0.000000, 711.000000)">
                <g id="4" transform="translate(296.000000, 311.000000)">
                    <g id="rocket">
                        <g id="Group-3">
                            <mask id="mask-2" sketch:name="Clip 2" fill="white">
                                <use xlink:href="#path-1"></use>
                            </mask>
                            <g id="Clip-2"></g>
                            <path d="M9.79611552,29.3503194 L12.6891119,29.3503194 C13.933444,26.452174 21.4665848,7.61481073 10.0681733,1.48629862 C-1.33067148,7.61350277 6.05380505,26.4388038 7.28174729,29.3503194 L9.79611552,29.3503194 Z M13.5190758,30.6479595 L6.44579061,30.6479595 L6.27301083,30.2699595 C6.16687365,30.0372156 3.66109747,24.4953228 2.77828159,18.012572 C1.58600722,9.25724325 4.00665704,3.08941972 9.77893141,0.176087543 L10.0677401,0.0303228374 L10.3565487,0.176087543 C16.130556,3.09021903 18.5220361,9.25978651 17.2721444,18.0169318 C16.3476679,24.499174 13.8001588,30.0411394 13.6922888,30.2738107 L13.5190758,30.6479595 Z" id="Fill-1" fill="#3D3D3D" sketch:type="MSShapeGroup" mask="url(#mask-2)"></path>
                        </g>
                        <path d="M4.08873646,24.446427 L2.11032491,29.8498941 L5.78389892,28.7118976 L4.08873646,24.446427 Z M0,31.8613163 L4.03884477,20.8276692 L7.50093863,29.5372194 L0,31.8613163 Z" id="Fill-4" fill="#3D3D3D" sketch:type="MSShapeGroup"></path>
                        <g id="Group-8">
                            <mask id="mask-4" sketch:name="Clip 7" fill="white">
                                <use xlink:href="#path-3"></use>
                            </mask>
                            <g id="Clip-7"></g>
                            <path d="M14.3370108,28.707109 L17.7819206,29.819673 L15.7183827,24.5377007 L14.3370108,28.707109 Z M19.9769386,31.8916246 L12.7016318,29.5419498 L15.6182383,20.73641 L19.9769386,31.8916246 Z" id="Fill-6" fill="#3D3D3D" sketch:type="MSShapeGroup" mask="url(#mask-4)"></path>
                        </g>
                        <path d="M9.52233213,33.6001889 L10.1636318,36.3616526 L10.8203105,33.598445 C10.7885415,33.2666595 10.5091913,33.0067391 10.1709242,33.0067391 C9.83265704,33.0067391 9.55374007,33.2675315 9.52233213,33.6001889 L9.52233213,33.6001889 Z M10.1485415,41.9999709 L8.23034657,33.6624623 C8.23034657,32.5854311 9.10110469,31.7090263 10.1713574,31.7090263 C11.2424043,31.7090263 12.1131625,32.5849952 12.1131625,33.6624623 L12.0955451,33.8138948 L10.1485415,41.9999709 Z" id="Fill-9" fill="#3D3D3D" sketch:type="MSShapeGroup"></path>
                        <path d="M9.98350903,8.9933481 C8.7925343,8.9933481 7.82329242,9.96835848 7.82329242,11.1669571 C7.82329242,12.3655557 8.7925343,13.3410021 9.98350903,13.3410021 C11.1744838,13.3410021 12.1437256,12.3659917 12.1437256,11.1669571 C12.1441588,9.96835848 11.174917,8.9933481 9.98350903,8.9933481 M9.98350903,14.6386422 C8.08119856,14.6386422 6.53390614,13.081009 6.53390614,11.1669571 C6.53390614,9.25290519 8.08163177,7.69570796 9.98350903,7.69570796 C11.8853863,7.69570796 13.4331119,9.25290519 13.4331119,11.1669571 C13.4335451,13.081009 11.8858195,14.6386422 9.98350903,14.6386422" id="Fill-11" fill="#3D3D3D" sketch:type="MSShapeGroup"></path>
                    </g>
                </g>
            </g>
        </g>
    </g>
</svg>