<?xml version="1.0" encoding="UTF-8" standalone="no"?>
<svg width="33px" height="28px" viewBox="0 0 33 28" version="1.1" xmlns="http://www.w3.org/2000/svg" xmlns:xlink="http://www.w3.org/1999/xlink" xmlns:sketch="http://www.bohemiancoding.com/sketch/ns">
    <!-- Generator: Sketch 3.4.2 (15857) - http://www.bohemiancoding.com/sketch -->
    <title>Discuss</title>
    <desc>Created with Sketch.</desc>
    <defs>
        <path id="path-1" d="M0,0.395438596 L32.8359851,0.395438596 L32.8359851,28 L0,28 L0,0.395438596 Z"></path>
        <path id="path-3" d="M0,0.395438596 L32.8359851,0.395438596 L32.8359851,28 L0,28"></path>
        <path id="path-5" d="M0,0.395438596 L32.8359851,0.395438596 L32.8359851,28 L0,28 L0,0.395438596 Z"></path>
    </defs>
    <g id="Design" stroke="none" stroke-width="1" fill="none" fill-rule="evenodd" sketch:type="MSPage">
        <g id="3a-community" sketch:type="MSArtboardGroup" transform="translate(-376.000000, -859.000000)">
            <g id="content" sketch:type="MSLayerGroup" transform="translate(140.000000, 826.000000)">
                <g id="1" transform="translate(92.000000, 0.000000)">
                    <g id="Discuss" transform="translate(144.000000, 33.000000)">
                        <mask id="mask-2" sketch:name="Clip 2" fill="white">
                            <use xlink:href="#path-1"></use>
                        </mask>
                        <g id="Clip-2"></g>
                        <path d="M13.1055313,7.31310877 C12.6134866,7.31310877 12.2125612,7.71247719 12.2125612,8.20370526 L12.2125612,22.1727579 C12.2125612,22.6634947 12.6134866,23.0628632 13.1055313,23.0628632 L26.7015313,23.0628632 L29.3178896,26.0377404 L29.3178896,23.0628632 L30.6950239,23.0628632 C31.1870687,23.0628632 31.5875015,22.663986 31.5875015,22.1727579 L31.5875015,8.20370526 C31.5875015,7.71247719 31.1875612,7.31310877 30.6950239,7.31310877 L13.1055313,7.31310877 Z M29.7508299,28.0001965 L29.7508299,28.0001965 C29.5173672,28.0001965 29.2952328,27.8990035 29.1405761,27.7236351 L26.1360985,24.3076351 L13.1055313,24.3076351 C11.9254119,24.3076351 10.9644716,23.3502316 10.9644716,22.1727579 L10.9644716,8.20370526 C10.9644716,7.02623158 11.9249194,6.06833684 13.1055313,6.06833684 L30.6950239,6.06833684 C31.8756358,6.06833684 32.8360836,7.02623158 32.8360836,8.20370526 L32.8360836,22.1727579 C32.8360836,23.3502316 31.8756358,24.3076351 30.6950239,24.3076351 L30.5659791,24.3076351 L30.5659791,27.1881965 C30.5659791,27.4136702 30.4719045,27.6298105 30.3069045,27.7825825 C30.155203,27.9230737 29.9581881,28.0001965 29.7508299,28.0001965 L29.7508299,28.0001965 Z" id="Fill-1" fill="#000000" sketch:type="MSShapeGroup" mask="url(#mask-2)"></path>
                        <mask id="mask-4" sketch:name="Clip 5" fill="white">
                            <use xlink:href="#path-3"></use>
                        </mask>
                        <g id="Clip-5"></g>
                        <path d="M3.08658358,22.3283298 C2.99004627,22.3283298 2.89153881,22.3106456 2.79697164,22.2752772 C2.47682239,22.1549263 2.26995672,21.8567509 2.26995672,21.5158386 L2.26995672,18.634786 L2.14091194,18.634786 C0.9603,18.634786 -0.000147761195,17.6773825 -0.000147761195,16.4999088 L-0.000147761195,2.53085614 C-0.000147761195,1.35338246 0.9603,0.395487719 2.14091194,0.395487719 L19.7304045,0.395487719 C20.9110164,0.395487719 21.8714642,1.35338246 21.8714642,2.53085614 L21.8714642,4.35871579 L20.6228821,4.35871579 L20.6228821,2.53085614 C20.6228821,2.0401193 20.2229418,1.64025965 19.7304045,1.64025965 L2.14091194,1.64025965 C1.64886716,1.64025965 1.24794179,2.0401193 1.24794179,2.53085614 L1.24794179,16.4999088 C1.24794179,16.9906456 1.64886716,17.390014 2.14091194,17.390014 L3.51804627,17.390014 L3.51804627,20.3648912 L6.13440448,17.390014 L8.62910597,17.390014 L8.62910597,18.634786 L6.69983731,18.634786 L3.6953597,22.050786 C3.53627015,22.2310667 3.3151209,22.3283298 3.08658358,22.3283298" id="Fill-4" fill="#000000" sketch:type="MSShapeGroup" mask="url(#mask-4)"></path>
                        <mask id="mask-6" sketch:name="Clip 8" fill="white">
                            <use xlink:href="#path-5"></use>
                        </mask>
                        <g id="Clip-8"></g>
                        <path d="M15.3435224,10.1242105 L27.9672537,10.1242105 L27.9672537,11.0580351 L15.3435224,11.0580351 L15.3435224,10.1242105 Z" id="Fill-7" fill="#000000" sketch:type="MSShapeGroup" mask="url(#mask-6)"></path>
                        <path d="M15.3435224,13.2665965 L27.9672537,13.2665965 L27.9672537,14.2004211 L15.3435224,14.2004211 L15.3435224,13.2665965 Z" id="Fill-9" fill="#000000" sketch:type="MSShapeGroup" mask="url(#mask-6)"></path>
                        <path d="M15.3435224,16.4084912 L27.9672537,16.4084912 L27.9672537,17.3423158 L15.3435224,17.3423158 L15.3435224,16.4084912 Z" id="Fill-10" fill="#000000" sketch:type="MSShapeGroup" mask="url(#mask-6)"></path>
                        <path d="M15.3435224,19.5508772 L21.6553881,19.5508772 L21.6553881,20.4847018 L15.3435224,20.4847018 L15.3435224,19.5508772 Z" id="Fill-11" fill="#000000" sketch:type="MSShapeGroup" mask="url(#mask-6)"></path>
                    </g>
                </g>
            </g>
        </g>
    </g>
</svg>