<?xml version="1.0" encoding="UTF-8" standalone="no"?>
<svg width="34px" height="29px" viewBox="0 0 34 29" version="1.1" xmlns="http://www.w3.org/2000/svg" xmlns:xlink="http://www.w3.org/1999/xlink" xmlns:sketch="http://www.bohemiancoding.com/sketch/ns">
    <!-- Generator: Sketch 3.4.2 (15857) - http://www.bohemiancoding.com/sketch -->
    <title>translate@2x</title>
    <desc>Created with Sketch.</desc>
    <defs>
        <path id="path-1" d="M0,0.026537155 L33.9893178,0.026537155 L33.9893178,29 L0,29 L0,0.026537155 Z"></path>
    </defs>
    <g id="Design" stroke="none" stroke-width="1" fill="none" fill-rule="evenodd" sketch:type="MSPage">
        <g id="3a-community" sketch:type="MSArtboardGroup" transform="translate(-986.000000, -2028.000000)">
            <g id="content" sketch:type="MSLayerGroup" transform="translate(140.000000, 826.000000)">
                <g id="4" transform="translate(82.000000, 1175.000000)">
                    <g id="translate" transform="translate(764.000000, 27.000000)">
                        <mask id="mask-2" sketch:name="Clip 2" fill="white">
                            <use xlink:href="#path-1"></use>
                        </mask>
                        <g id="Clip-2"></g>
                        <path d="M31.9290276,22.7658497 C31.9290276,25.0426883 30.1045645,26.8976416 27.8527512,26.9218391 L27.8527512,16.3242786 C30.1041982,16.3484144 31.9290276,18.2030599 31.9290276,20.4798369 L31.9290276,22.7658497 Z M6.13651777,26.9214696 C3.88476553,26.8976416 2.05993609,25.0423189 2.05993609,22.7654803 L2.05993609,20.4798369 C2.05993609,18.2030599 3.88439928,16.3484144 6.13651777,16.3242786 L6.13651777,26.9214696 Z M28.8389343,14.3329452 L28.8389343,11.9744017 C28.8389343,5.38616815 23.5254729,0.0265248408 16.9942987,0.0265248408 C10.4634908,0.0265248408 5.15033465,5.38616815 5.15033465,11.9744017 L5.15033465,14.3329452 C2.23109587,14.8288391 -2.44165167e-05,17.3966628 -2.44165167e-05,20.4798369 L-2.44165167e-05,22.7654803 C-2.44165167e-05,26.2030577 2.7724711,28.9996183 6.1801623,28.9996183 L8.19647828,28.9996183 L8.19647828,14.2746374 L7.21029515,14.2746374 L7.21029515,11.9747711 C7.21029515,6.53231465 11.5994083,2.10473503 16.9942987,2.10473503 C22.3895555,2.10473503 26.7786686,6.53231465 26.7786686,11.9747711 L26.7786686,14.2746374 L25.7924855,14.2746374 L25.7924855,28.9999877 L27.8088014,28.9999877 C31.2167978,28.9999877 33.9892934,26.2034272 33.9892934,22.7658497 L33.9892934,20.4802064 C33.9892934,17.3966628 31.7578679,14.8288391 28.8389343,14.3329452 L28.8389343,14.3329452 Z" id="Fill-1" fill="#000000" sketch:type="MSShapeGroup" mask="url(#mask-2)"></path>
                    </g>
                </g>
            </g>
        </g>
    </g>
</svg>