<?xml version="1.0" encoding="UTF-8" standalone="no"?>
<svg width="33px" height="36px" viewBox="0 0 33 36" version="1.1" xmlns="http://www.w3.org/2000/svg" xmlns:xlink="http://www.w3.org/1999/xlink" xmlns:sketch="http://www.bohemiancoding.com/sketch/ns">
    <!-- Generator: Sketch 3.4.4 (17248) - http://www.bohemiancoding.com/sketch -->
    <title>pad</title>
    <desc>Created with Sketch.</desc>
    <defs></defs>
    <g id="Design" stroke="none" stroke-width="1" fill="none" fill-rule="evenodd" sketch:type="MSPage">
        <g id="3a-Sync-files-and-photos" sketch:type="MSArtboardGroup" transform="translate(-748.000000, -811.000000)" fill="#FFFFFF">
            <g id="Section-1" sketch:type="MSLayerGroup" transform="translate(0.000000, 711.000000)">
                <g id="2" transform="translate(748.000000, 95.000000)" sketch:type="MSShapeGroup">
                    <path d="M31.4285714,29.2608696 L31.4285714,9.69565217 L1.57142857,9.69565217 L1.57142857,29.2608696 C1.57142857,30.5553043 2.629,31.6086957 3.92857143,31.6086957 L7.85714286,31.6086957 L7.85714286,20.6521739 C7.85714286,18.0625217 9.9715,15.9565217 12.5714286,15.9565217 C15.1713571,15.9565217 17.2857143,18.0625217 17.2857143,20.6521739 L17.2857143,21.8581739 C18.1209286,21.1107826 19.2201429,20.6521739 20.4285714,20.6521739 C23.0285,20.6521739 25.1428571,22.7581739 25.1428571,25.3478261 L25.1428571,31.6086957 L29.0714286,31.6086957 C30.371,31.6086957 31.4285714,30.5553043 31.4285714,29.2608696 L31.4285714,29.2608696 Z M1.57142857,8.13043478 L31.4285714,8.13043478 L31.4285714,6.56521739 L1.57142857,6.56521739 L1.57142857,8.13043478 Z M33,5.7826087 L33,29.2608696 C33,31.4185217 31.2376429,33.173913 29.0714286,33.173913 L25.1428571,33.173913 L25.1428571,37.0869565 C25.1428571,37.5197391 24.7916429,37.8695652 24.3571429,37.8695652 C23.9226429,37.8695652 23.5714286,37.5197391 23.5714286,37.0869565 L23.5714286,25.3478261 C23.5714286,23.6213913 22.1618571,22.2173913 20.4285714,22.2173913 C18.6952857,22.2173913 17.2857143,23.6213913 17.2857143,25.3478261 L17.2857143,40.2173913 C17.2857143,40.6501739 16.9345,41 16.5,41 C16.0655,41 15.7142857,40.6501739 15.7142857,40.2173913 L15.7142857,25.3478261 L15.7142857,20.6521739 C15.7142857,18.9257391 14.3047143,17.5217391 12.5714286,17.5217391 C10.8381429,17.5217391 9.42857143,18.9257391 9.42857143,20.6521739 L9.42857143,37.0869565 C9.42857143,37.5197391 9.07735714,37.8695652 8.64285714,37.8695652 C8.20835714,37.8695652 7.85714286,37.5197391 7.85714286,37.0869565 L7.85714286,33.173913 L3.92857143,33.173913 C1.76235714,33.173913 0,31.4185217 0,29.2608696 L0,5.7826087 C0,5.34982609 0.351214286,5 0.785714286,5 L32.2142857,5 C32.6487857,5 33,5.34982609 33,5.7826087 L33,5.7826087 Z M20.4285714,23.7826087 C19.5603571,23.7826087 18.8571429,24.4830435 18.8571429,25.3478261 L18.8571429,26.9130435 L22,26.9130435 L22,25.3478261 C22,24.4830435 21.296,23.7826087 20.4285714,23.7826087 L20.4285714,23.7826087 Z M14.1428571,20.6521739 L14.1428571,22.2173913 L11,22.2173913 L11,20.6521739 C11,19.7873913 11.7032143,19.0869565 12.5714286,19.0869565 C13.4388571,19.0869565 14.1428571,19.7873913 14.1428571,20.6521739 L14.1428571,20.6521739 Z" id="pad"></path>
                </g>
            </g>
        </g>
    </g>
</svg>