<?xml version="1.0" encoding="UTF-8" standalone="no"?>
<svg width="36px" height="32px" viewBox="0 0 36 32" version="1.1" xmlns="http://www.w3.org/2000/svg" xmlns:xlink="http://www.w3.org/1999/xlink" xmlns:sketch="http://www.bohemiancoding.com/sketch/ns">
    <!-- Generator: Sketch 3.4.2 (15857) - http://www.bohemiancoding.com/sketch -->
    <title>linux@2x</title>
    <desc>Created with Sketch.</desc>
    <defs></defs>
    <g id="Design" stroke="none" stroke-width="1" fill="none" fill-rule="evenodd" sketch:type="MSPage">
        <g id="4a-self-hosting" sketch:type="MSArtboardGroup" transform="translate(-293.000000, -925.000000)" fill="#3D3D3D">
            <g id="Section-1" sketch:type="MSLayerGroup" transform="translate(0.000000, 406.000000)">
                <g id="3" transform="translate(245.000000, 0.000000)" sketch:type="MSShapeGroup">
                    <path d="M74.1,528.777778 L74.1009,541.222222 L57.9,541.222222 L57.9,528.777778 L74.1,528.777778 Z M75.9,541.222222 L75.9,528.777778 C75.9,527.797333 75.0927,527 74.1,527 L57.9,527 C56.9073,527 56.1,527.797333 56.1,528.777778 L56.1,541.222222 C56.1,542.202667 56.9073,543 57.9,543 L74.1,543 C75.0927,543 75.9,542.202667 75.9,541.222222 L75.9,541.222222 Z M84,542.111111 C84,541.620444 83.5968,541.222222 83.1,541.222222 L78.6,541.222222 C78.1032,541.222222 77.7,541.620444 77.7,542.111111 C77.7,542.601778 78.1032,543 78.6,543 L83.1,543 C83.5968,543 84,542.601778 84,542.111111 L84,542.111111 Z M54.3,542.111111 C54.3,541.620444 53.8968,541.222222 53.4,541.222222 L48.9,541.222222 C48.4032,541.222222 48,541.620444 48,542.111111 C48,542.601778 48.4032,543 48.9,543 L53.4,543 C53.8968,543 54.3,542.601778 54.3,542.111111 L54.3,542.111111 Z M75.9,550.111111 L75.9,545.666667 C75.9,545.176 75.4968,544.777778 75,544.777778 C74.5032,544.777778 74.1,545.176 74.1,545.666667 L74.1,550.111111 C74.1,550.601778 74.5032,551 75,551 C75.4968,551 75.9,550.601778 75.9,550.111111 L75.9,550.111111 Z M57.9,550.111111 L57.9,545.666667 C57.9,545.176 57.4968,544.777778 57,544.777778 C56.5032,544.777778 56.1,545.176 56.1,545.666667 L56.1,550.111111 C56.1,550.601778 56.5032,551 57,551 C57.4968,551 57.9,550.601778 57.9,550.111111 L57.9,550.111111 Z M75.9,524.333333 L75.9,519.888889 C75.9,519.398222 75.4968,519 75,519 C74.5032,519 74.1,519.398222 74.1,519.888889 L74.1,524.333333 C74.1,524.824 74.5032,525.222222 75,525.222222 C75.4968,525.222222 75.9,524.824 75.9,524.333333 L75.9,524.333333 Z M84,527.888889 C84,527.398222 83.5968,527 83.1,527 L78.6,527 C78.1032,527 77.7,527.398222 77.7,527.888889 C77.7,528.379556 78.1032,528.777778 78.6,528.777778 L83.1,528.777778 C83.5968,528.777778 84,528.379556 84,527.888889 L84,527.888889 Z M54.3,527.888889 C54.3,527.398222 53.8968,527 53.4,527 L48.9,527 C48.4032,527 48,527.398222 48,527.888889 C48,528.379556 48.4032,528.777778 48.9,528.777778 L53.4,528.777778 C53.8968,528.777778 54.3,528.379556 54.3,527.888889 L54.3,527.888889 Z M57,525.222222 C56.5032,525.222222 56.1,524.824 56.1,524.333333 L56.1,519.888889 C56.1,519.398222 56.5032,519 57,519 C57.4968,519 57.9,519.398222 57.9,519.888889 L57.9,524.333333 C57.9,524.824 57.4968,525.222222 57,525.222222 L57,525.222222 Z" id="linux"></path>
                </g>
            </g>
        </g>
    </g>
</svg>