<?xml version="1.0" encoding="UTF-8" standalone="no"?>
<svg width="29px" height="29px" viewBox="0 0 29 29" version="1.1" xmlns="http://www.w3.org/2000/svg" xmlns:xlink="http://www.w3.org/1999/xlink" xmlns:sketch="http://www.bohemiancoding.com/sketch/ns">
    <!-- Generator: Sketch 3.4.2 (15857) - http://www.bohemiancoding.com/sketch -->
    <title>baguette magic@2x</title>
    <desc>Created with Sketch.</desc>
    <defs>
        <path id="path-1" d="M0,0.671046512 L28.3289535,0.671046512 L28.3289535,29 L0,29 L0,0.671046512 Z"></path>
    </defs>
    <g id="Design" stroke="none" stroke-width="1" fill="none" fill-rule="evenodd" sketch:type="MSPage">
        <g id="4a-self-hosting" sketch:type="MSArtboardGroup" transform="translate(-294.000000, -1020.000000)">
            <g id="Section-1" sketch:type="MSLayerGroup" transform="translate(0.000000, 406.000000)">
                <g id="4" transform="translate(294.000000, 514.000000)">
                    <g id="baguette-magic" transform="translate(0.000000, 100.000000)">
                        <mask id="mask-2" sketch:name="Clip 2" fill="white">
                            <use xlink:href="#path-1"></use>
                        </mask>
                        <g id="Clip-2"></g>
                        <path d="M26.9800488,26.9971791 C26.9800488,26.8225047 26.9119326,26.6586209 26.788514,26.5345279 L13.7533512,13.4993651 L12.8287233,14.423993 L25.863886,27.4598302 C26.1113977,27.7073419 26.5423512,27.7073419 26.788514,27.4598302 C26.9119326,27.3357372 26.9800488,27.1718535 26.9800488,26.9971791 L26.9800488,26.9971791 Z M7.58646744,9.18173721 L11.8750953,13.4703651 L12.7997233,12.5457372 L8.51042093,8.2571093 C8.38700233,8.1336907 8.2231186,8.06624884 8.04844419,8.06624884 C7.87376977,8.06624884 7.70988605,8.1336907 7.58646744,8.2571093 C7.33153721,8.51203953 7.33153721,8.92680698 7.58646744,9.18173721 L7.58646744,9.18173721 Z M28.328886,26.9971791 C28.328886,27.5326674 28.1204907,28.0351093 27.7421419,28.4134581 C27.3644674,28.791807 26.8613512,29.0002023 26.3265372,29.0002023 C25.7917233,29.0002023 25.288607,28.791807 24.9102581,28.4134581 L6.63283953,10.1353651 C5.85186279,9.35438837 5.85186279,8.08445814 6.63216512,7.3034814 C7.38953721,6.54745814 8.70735116,6.54678372 9.46404884,7.3034814 L27.7421419,25.5809 C28.1204907,25.9599233 28.328886,26.4623651 28.328886,26.9971791 L28.328886,26.9971791 Z M8.09295581,13.4852023 C7.72067674,13.4852023 7.41853721,13.7866674 7.41853721,14.1596209 L7.41853721,16.1828767 C7.41853721,16.5558302 7.72067674,16.8572953 8.09295581,16.8572953 C8.46523488,16.8572953 8.76737442,16.5558302 8.76737442,16.1828767 L8.76737442,14.1596209 C8.76737442,13.7866674 8.46523488,13.4852023 8.09295581,13.4852023 L8.09295581,13.4852023 Z M12.1394674,5.39217907 C12.3121186,5.39217907 12.4847698,5.32608605 12.6162814,5.19457442 L13.9651186,3.84573721 C14.2288163,3.58203953 14.2288163,3.15513256 13.9651186,2.8921093 C13.7020953,2.62841163 13.2751884,2.62841163 13.0114907,2.8921093 L11.6626535,4.24094651 C11.3989558,4.50396977 11.3989558,4.93087674 11.6626535,5.19457442 C11.7941651,5.32608605 11.9668163,5.39217907 12.1394674,5.39217907 L12.1394674,5.39217907 Z M12.813886,8.76427209 C12.813886,9.13722558 13.1160256,9.4386907 13.4883047,9.4386907 L15.5115605,9.4386907 C15.8838395,9.4386907 16.1859791,9.13722558 16.1859791,8.76427209 C16.1859791,8.3913186 15.8838395,8.08985349 15.5115605,8.08985349 L13.4883047,8.08985349 C13.1160256,8.08985349 12.813886,8.3913186 12.813886,8.76427209 L12.813886,8.76427209 Z M3.17442093,2.8921093 C2.91139767,2.62841163 2.4844907,2.62841163 2.22079302,2.8921093 C1.95709535,3.15513256 1.95709535,3.58203953 2.22079302,3.84573721 L3.56963023,5.19457442 C3.70114186,5.32608605 3.87379302,5.39217907 4.04644419,5.39217907 C4.21909535,5.39217907 4.39174651,5.32608605 4.52325814,5.19457442 C4.78695581,4.93087674 4.78695581,4.50396977 4.52325814,4.24094651 L3.17442093,2.8921093 Z M8.09295581,4.04334186 C8.46523488,4.04334186 8.76737442,3.74187674 8.76737442,3.36892326 L8.76737442,1.34566744 C8.76737442,0.972713953 8.46523488,0.671248837 8.09295581,0.671248837 C7.72067674,0.671248837 7.41853721,0.972713953 7.41853721,1.34566744 L7.41853721,3.36892326 C7.41853721,3.74187674 7.72067674,4.04334186 8.09295581,4.04334186 L8.09295581,4.04334186 Z M3.56963023,12.3339698 L2.22079302,13.682807 C1.95709535,13.9458302 1.95709535,14.3727372 2.22079302,14.6364349 C2.35230465,14.7679465 2.52495581,14.8340395 2.69760698,14.8340395 C2.87025814,14.8340395 3.0429093,14.7679465 3.17442093,14.6364349 L4.52325814,13.2875977 C4.78695581,13.0239 4.78695581,12.596993 4.52325814,12.3339698 C4.26023488,12.0702721 3.83332791,12.0702721 3.56963023,12.3339698 L3.56963023,12.3339698 Z M2.69760698,9.4386907 L0.674351163,9.4386907 C0.302072093,9.4386907 -6.74418607e-05,9.13722558 -6.74418607e-05,8.76427209 C-6.74418607e-05,8.3913186 0.302072093,8.08985349 0.674351163,8.08985349 L2.69760698,8.08985349 C3.06988605,8.08985349 3.37202558,8.3913186 3.37202558,8.76427209 C3.37202558,9.13722558 3.06988605,9.4386907 2.69760698,9.4386907 L2.69760698,9.4386907 Z" id="Fill-1" fill="#3D3D3D" sketch:type="MSShapeGroup" mask="url(#mask-2)"></path>
                    </g>
                </g>
            </g>
        </g>
    </g>
</svg>