<?xml version="1.0" encoding="UTF-8" standalone="no"?>
<svg width="32px" height="34px" viewBox="0 0 32 34" version="1.1" xmlns="http://www.w3.org/2000/svg" xmlns:xlink="http://www.w3.org/1999/xlink" xmlns:sketch="http://www.bohemiancoding.com/sketch/ns">
    <!-- Generator: Sketch 3.4.2 (15857) - http://www.bohemiancoding.com/sketch -->
    <title>Icon</title>
    <desc>Created with Sketch.</desc>
    <defs></defs>
    <g id="Design" stroke="none" stroke-width="1" fill="none" fill-rule="evenodd" sketch:type="MSPage">
        <g id="2b-Ungoogle" sketch:type="MSArtboardGroup" transform="translate(-744.000000, -808.000000)" fill="#FFFFFF">
            <g id="Section-1" sketch:type="MSLayerGroup" transform="translate(0.000000, 678.000000)">
                <g id="2" transform="translate(744.000000, 128.000000)" sketch:type="MSShapeGroup">
                    <g id="Icon" transform="translate(0.000000, 2.000000)">
                        <path d="M26.9133751,12.3925062 L19.8918508,12.3925062 L19.8918508,5.36671219 L26.9133751,5.36671219 L26.9133751,12.3925062 Z M18.1364697,21.1752563 L11.1149453,21.1752563 L11.1149453,14.1487855 L18.1364697,14.1487855 L18.1364697,21.1752563 Z M9.36023527,29.9580064 L2.33938195,29.9580064 L2.33938195,22.9315356 L9.36023527,22.9315356 L9.36023527,29.9580064 Z M2.33938195,5.36671219 L9.36023527,5.36671219 L9.36023527,12.3925062 L2.33938195,12.3925062 L2.33938195,5.36671219 Z M2.33938195,14.1487855 L9.36023527,14.1487855 L9.36023527,21.1752563 L2.33938195,21.1752563 L2.33938195,14.1487855 Z M18.1364697,12.3925062 L11.1149453,12.3925062 L11.1149453,5.36671219 L18.1364697,5.36671219 L18.1364697,12.3925062 Z M27.7910656,3.6097561 L1.46169141,3.6097561 C0.976545951,3.6097561 0.584000869,4.00297316 0.584000869,4.48823415 L0.584000869,30.8358077 C0.584000869,31.3210687 0.976545951,31.7142857 1.46169141,31.7142857 L10.2379258,31.7142857 C10.7230713,31.7142857 11.1156164,31.3210687 11.1156164,30.8358077 L11.1156164,22.9315356 L19.0141602,22.9315356 C19.4993057,22.9315356 19.8918508,22.5383185 19.8918508,22.0530576 L19.8918508,14.1487855 L27.7910656,14.1487855 C28.2762111,14.1487855 28.6687562,13.7555684 28.6687562,13.2709843 L28.6687562,4.48823415 C28.6687562,4.00297316 28.2762111,3.6097561 27.7910656,3.6097561 L27.7910656,3.6097561 Z" id="Fill-1"></path>
                        <rect id="Rectangle-37" x="8.94736842" y="0" width="1.78947368" height="4.51219512" rx="3"></rect>
                        <rect id="Rectangle-37-Copy" x="18.7894737" y="0" width="1.78947368" height="4.51219512" rx="3"></rect>
                        <g id="Page-1" transform="translate(24.274133, 26.894744) rotate(-315.000000) translate(-24.274133, -26.894744) translate(18.458343, 19.675232)">
                            <path d="M5.50723491,0.836937338 C2.76561515,0.836937338 0.496452954,2.88486616 0.108118904,5.55302843 C0.0457247046,5.98196322 0.381908378,6.36675217 0.815874006,6.36675217 L0.815874006,6.36675217 C1.16323276,6.36675217 1.46651203,6.11721857 1.51711031,5.77375765 C1.80455822,3.83196671 3.48144114,2.34134003 5.50723491,2.34134003 C7.53302868,2.34134003 9.2099116,3.80691942 9.49735951,5.74902345 C9.49735951,5.74902345 9.79722417,5.7192798 10.1445829,5.7192798 C10.5813423,5.65540921 10.9063509,5.54645351 10.9063509,5.54645351 C10.5192585,2.81035048 8.25816724,0.836937338 5.50723491,0.836937338" id="Fill-1"></path>
                            <path d="M10.8379656,6.0846571 C10.8028883,6.51077407 10.3189452,6.73933057 9.96661976,6.49605879 L8.62498926,5.5680568 L7.28335875,4.64005481 C6.9310333,4.39646994 6.97511278,3.86358891 7.36220516,3.68074371 L8.83793663,2.98411603 L10.3133577,2.28780145 C10.7004501,2.10495625 11.1406241,2.40928079 11.1055467,2.83571086 L10.9717562,4.46002743 L10.8379656,6.0846571 Z" id="Fill-4"></path>
                            <path d="M5.6002985,14.3285217 C8.34191826,14.3285217 10.6110805,12.2805928 10.9994145,9.61243056 C11.0618087,9.18349577 10.725625,8.79870682 10.2916594,8.79870682 L10.2916594,8.79870682 C9.94430064,8.79870682 9.64102137,9.04855351 9.59042309,9.39170134 C9.30297519,11.3334923 7.62609227,12.824119 5.6002985,12.824119 C3.57450473,12.824119 1.8976218,11.3585396 1.6101739,9.41674863 C1.6101739,9.41674863 1.31030924,9.44617919 0.962950483,9.44617919 C0.525880666,9.51036287 0.201182492,9.61900548 0.201182492,9.61900548 C0.588274866,12.3551085 2.84936617,14.3285217 5.6002985,14.3285217" id="Fill-7"></path>
                            <path d="M0.269567777,9.0808332 C0.304645113,8.65440314 0.788588185,8.42615973 1.14060322,8.66943151 L2.48254415,9.5974335 L3.82417465,10.5254355 C4.17618969,10.7690204 4.13242062,11.3019014 3.74532825,11.4847466 L2.26959678,12.1813743 L0.794175725,12.8776889 C0.407083351,13.060534 -0.0330906552,12.7562095 0.00198668099,12.3297794 L0.135777229,10.7054629 L0.269567777,9.0808332 Z" id="Fill-9"></path>
                        </g>
                    </g>
                </g>
            </g>
        </g>
    </g>
</svg>