<?xml version="1.0" encoding="UTF-8"?>
<svg width="18px" height="24px" viewBox="0 0 18 24" version="1.1" xmlns="http://www.w3.org/2000/svg" xmlns:xlink="http://www.w3.org/1999/xlink">
    <!-- Generator: Sketch 44.1 (41455) - http://www.bohemiancoding.com/sketch -->
    <title>Group</title>
    <desc>Created with Sketch.</desc>
    <defs></defs>
    <g id="Page-1" stroke="none" stroke-width="1" fill="none" fill-rule="evenodd" stroke-linecap="round" stroke-linejoin="round">
        <g id="Group" stroke="#000000">
            <path d="M16.5127,22.5 C16.5127,23.051 16.0637,23.5 15.5127,23.5 L1.5127,23.5 C0.9627,23.5 0.5127,23.051 0.5127,22.5 L0.5127,1.5 C0.5127,0.951 0.9627,0.5 1.5127,0.5 L15.5127,0.5 C16.0637,0.5 16.5127,0.951 16.5127,1.5 L16.5127,22.5 L16.5127,22.5 Z" id="Stroke-4780"></path>
            <polygon id="Stroke-4781" points="14.513 7.5 2.513 7.5 2.513 2.5 14.513 2.5"></polygon>
            <path d="M12.5127,4.5 L12.5127,5.5" id="Stroke-4782"></path>
            <path d="M3.5127,11.5 L4.5127,11.5" id="Stroke-4783"></path>
            <path d="M6.5127,11.5 L7.5127,11.5" id="Stroke-4784"></path>
            <path d="M9.5127,11.5 L10.5127,11.5" id="Stroke-4785"></path>
            <path d="M12.5127,11.5 L13.5127,11.5" id="Stroke-4786"></path>
            <path d="M3.5127,14.5 L4.5127,14.5" id="Stroke-4787"></path>
            <path d="M6.5127,14.5 L7.5127,14.5" id="Stroke-4788"></path>
            <path d="M9.5127,14.5 L10.5127,14.5" id="Stroke-4789"></path>
            <path d="M12.5127,14.5 L13.5127,14.5" id="Stroke-4790"></path>
            <path d="M3.5127,17.5 L4.5127,17.5" id="Stroke-4791"></path>
            <path d="M6.5127,17.5 L7.5127,17.5" id="Stroke-4792"></path>
            <path d="M9.5127,17.5 L10.5127,17.5" id="Stroke-4793"></path>
            <path d="M12.5127,17.5 L13.5127,17.5" id="Stroke-4794"></path>
            <path d="M3.5127,20.5 L4.5127,20.5" id="Stroke-4795"></path>
            <path d="M6.5127,20.5 L7.5127,20.5" id="Stroke-4796"></path>
            <path d="M9.5127,20.5 L13.5127,20.5" id="Stroke-4797"></path>
        </g>
    </g>
</svg>