<?xml version="1.0" encoding="UTF-8" standalone="no"?>
<svg width="33px" height="23px" viewBox="0 0 33 23" version="1.1" xmlns="http://www.w3.org/2000/svg" xmlns:xlink="http://www.w3.org/1999/xlink" xmlns:sketch="http://www.bohemiancoding.com/sketch/ns">
    <!-- Generator: Sketch 3.4.2 (15857) - http://www.bohemiancoding.com/sketch -->
    <title>Page 1</title>
    <desc>Created with Sketch.</desc>
    <defs></defs>
    <g id="Design" stroke="none" stroke-width="1" fill="none" fill-rule="evenodd" sketch:type="MSPage">
        <g id="2b-Ungoogle" sketch:type="MSArtboardGroup" transform="translate(-745.000000, -936.000000)" fill="#FFFFFF">
            <g id="Section-1" sketch:type="MSLayerGroup" transform="translate(0.000000, 678.000000)">
                <g id="4" transform="translate(745.000000, 254.000000)" sketch:type="MSShapeGroup">
                    <path d="M31.35,6.15625 C31.35,5.7595 30.9804,5.4375 30.525,5.4375 L2.475,5.4375 C2.0196,5.4375 1.65,5.7595 1.65,6.15625 L1.65,24.84375 C1.65,25.2405 2.0196,25.5625 2.475,25.5625 L30.525,25.5625 C30.9804,25.5625 31.35,25.2405 31.35,24.84375 L31.35,6.15625 Z M33,6.15625 L33,24.84375 C33,26.0325625 31.88955,27 30.525,27 L2.475,27 C1.11045,27 0,26.0325625 0,24.84375 L0,6.15625 C0,4.9674375 1.11045,4 2.475,4 L30.525,4 C31.88955,4 33,4.9674375 33,6.15625 L33,6.15625 Z M9.55845,12.625 L7.666725,10.9769062 C7.34415,10.695875 7.34415,10.241625 7.666725,9.96059375 C7.8276,9.8204375 8.0388,9.75 8.25,9.75 C8.4612,9.75 8.6724,9.8204375 8.833275,9.96059375 L16.5,16.6399375 L24.166725,9.96059375 C24.4893,9.6795625 25.0107,9.6795625 25.333275,9.96059375 C25.65585,10.241625 25.65585,10.695875 25.333275,10.9769062 L17.083275,18.1644062 C16.7607,18.4454375 16.2393,18.4454375 15.916725,18.1644062 L10.725,13.6413125 L9.55845,12.625 Z" id="Page-1"></path>
                </g>
            </g>
        </g>
    </g>
</svg>