<svg width="16" height="16" viewBox="0 0 16 16" xmlns="http://www.w3.org/2000/svg"><title>icon-rss</title><path d="M2.5 15c.828 0 1.5-.672 1.5-1.5S3.328 12 2.5 12 1 12.672 1 13.5 1.672 15 2.5 15zM2 10c2.448 0 4 1.552 4 4 0 .552.448 1 1 1s1-.448 1-1c0-3.552-2.448-6-6-6-.552 0-1 .448-1 1s.448 1 1 1zm0-4c4.448 0 8 3.552 8 8 0 .552.448 1 1 1s1-.448 1-1C12 8.448 7.552 4 2 4c-.552 0-1 .448-1 1s.448 1 1 1zm0-4c7.448 0 12 4.552 12 12 0 .552.448 1 1 1s1-.448 1-1C16 5.448 10.552 0 2 0c-.552 0-1 .448-1 1s.448 1 1 1z" fill="#3D3D3D" fill-rule="evenodd"/></svg>