<svg xmlns="http://www.w3.org/2000/svg" width="32" height="32" viewBox="0 0 32 32"><g fill="#3D3D3D"><path d="M29.999 2h-27.997c-1.113 0-2.002.891-2.002 1.991v24.018c0 1.091.896 1.991 2.002 1.991h27.997c1.112 0 2.002-.891 2.002-1.991v-24.018c0-1.091-.896-1.991-2.002-1.991zm.001 26h-28v-20h28v20zm0-22h-28v-2h28v2zM9.836 21.713c.394.387 1.028.38 1.414-.014.387-.395.38-1.028-.014-1.414l-2.831-2.74 2.838-2.838c.391-.391.391-1.024 0-1.414-.391-.391-1.024-.391-1.414 0l-3.536 3.536v-.001c-.393.393-.39 1.031.007 1.421l3.536 3.464zM20.286 21.7c.387.394 1.021.401 1.414.014l3.536-3.464c.396-.389.4-1.027.007-1.421l-3.536-3.536c-.391-.391-1.023-.391-1.414 0s-.391 1.024 0 1.414l2.803 2.839-2.796 2.74c-.394.387-.402 1.021-.014 1.414zM12.663 25.941c.52.186 1.092-.086 1.278-.605l5-14c.186-.52-.086-1.092-.605-1.278s-1.092.085-1.277.605l-5 14c-.187.521.084 1.092.604 1.278z"/></g></svg>
