<?xml version="1.0" encoding="UTF-8"?>
<svg width="25px" height="24px" viewBox="0 0 25 24" version="1.1" xmlns="http://www.w3.org/2000/svg" xmlns:xlink="http://www.w3.org/1999/xlink">
    <!-- Generator: Sketch 44.1 (41455) - http://www.bohemiancoding.com/sketch -->
    <title>Group</title>
    <desc>Created with Sketch.</desc>
    <defs></defs>
    <g id="Page-1" stroke="none" stroke-width="1" fill="none" fill-rule="evenodd" stroke-linejoin="round">
        <g id="Group" stroke="#000000">
            <polyline id="Stroke-5364" points="23.5127 5.5 23.5127 23.5 5.5127 23.5"></polyline>
            <polyline id="Stroke-5365" points="21.5127 2.5 21.5127 21.5 2.5127 21.5"></polyline>
            <polygon id="Stroke-5366" points="19.513 19.5 0.513 19.5 0.513 0.5 19.513 0.5"></polygon>
            <polyline id="Stroke-5367" points="17.0127 15.5 14.0127 7.5 10.0127 13.5 7.5127 10.5 4.5127 15.5"></polyline>
            <path d="M7.5127,5 C7.5127,5.828 6.8417,6.5 6.0127,6.5 C5.1847,6.5 4.5127,5.828 4.5127,5 C4.5127,4.172 5.1847,3.5 6.0127,3.5 C6.8417,3.5 7.5127,4.172 7.5127,5 L7.5127,5 Z" id="Stroke-5368"></path>
            <path d="M19.5127,15.5 L0.5127,15.5" id="Stroke-5369"></path>
        </g>
    </g>
</svg>