<svg xmlns="http://www.w3.org/2000/svg" width="32" height="32" viewBox="0 0 32 32">
  <g fill="none" fill-rule="evenodd">
    <path fill="#FCBABA" d="M16,0 C7.17733333,0 0,7.17733333 0,16 C0,24.8226667 7.17733333,32 16,32 C24.8213333,32 32,24.8226667 32,16 C32,7.17733333 24.8213333,0 16,0"/>
    <path fill="#F52D2D" d="M16.6666667,17.2866667 L16.6666667,20.6666667 C16.6666667,21.036 16.3666667,21.3333333 16,21.3333333 C15.632,21.3333333 15.3333333,21.036 15.3333333,20.6666667 L15.3333333,16.6666667 C15.3333333,16.2986667 15.632,16 16,16 C17.8373333,16 19.3333333,14.5053333 19.3333333,12.6666667 C19.3333333,10.828 17.8373333,9.33333333 16,9.33333333 C14.1613333,9.33333333 12.6666667,10.828 12.6666667,12.6666667 C12.6666667,13.036 12.3666667,13.3333333 12,13.3333333 C11.632,13.3333333 11.3333333,13.036 11.3333333,12.6666667 C11.3333333,10.0933333 13.4253333,8 16,8 C18.5733333,8 20.6666667,10.0933333 20.6666667,12.6666667 C20.6666667,15.0133333 18.924,16.9613333 16.6666667,17.2866667 Z M16,25.3333333 C15.2626667,25.3333333 14.6666667,24.7373333 14.6666667,24 C14.6666667,23.264 15.2626667,22.6666667 16,22.6666667 C16.7346667,22.6666667 17.3333333,23.264 17.3333333,24 C17.3333333,24.7373333 16.7346667,25.3333333 16,25.3333333 Z"/>
  </g>
</svg>
