<svg xmlns="http://www.w3.org/2000/svg" xmlns:xlink="http://www.w3.org/1999/xlink" width="101" height="129" viewBox="0 0 101 129">
    <defs>
        <path id="a" d="M1.13.364h39.075v49.823H1.13z"/>
        <path id="c" d="M.212 1.283h46.995v5.204H.212z"/>
    </defs>
    <g fill="none" fill-rule="evenodd">
        <g transform="translate(60.79 .244)">
            <mask id="b" fill="#fff">
                <use xlink:href="#a"/>
            </mask>
            <path fill="#FFDEC1" d="M40.186 12.723c-.003-.013.002-.023 0-.036-.153-.73-.46-1.453-.425-2.211.025-.524-.648-.685-.874-.344a4.773 4.773 0 0 0-.752.548c-.088-.357-.152-.715-.134-1.082.024-.525-.648-.686-.877-.344-.458.258-.838.617-1.234.962-.142-.524-.294-1.05-.268-1.592.025-.526-.648-.685-.876-.344-.446.251-.819.597-1.2.934-.14-.508-.283-1.02-.259-1.547.026-.524-.648-.685-.873-.344-.448.251-.821.598-1.202.934-.14-.51-.283-1.02-.26-1.547.026-.525-.647-.684-.873-.342-.472.264-.86.637-1.267.99-.147-.54-.31-1.083-.283-1.642.024-.526-.647-.684-.875-.344-.44.248-.808.589-1.184.92-.138-.5-.276-1.004-.252-1.522.024-.527-.648-.685-.875-.345-.459.258-.84.618-1.233.963-.144-.523-.295-1.049-.27-1.592.025-.527-.647-.686-.876-.344-.445.251-.818.597-1.202.934-.139-.51-.28-1.022-.257-1.549.027-.523-.647-.684-.875-.343-.447.253-.818.598-1.202.935-.14-.509-.28-1.02-.256-1.548.026-.524-.648-.683-.875-.343-.474.266-.863.638-1.269.991-.146-.54-.307-1.081-.28-1.64.024-.528-.65-.685-.877-.346-.601.34-1.073.848-1.613 1.276-.044.03-.09.068-.132.105l-.045.04c-.047.032-.072.07-.101.108-.027.03-.056.049-.083.081a62.82 62.82 0 0 1-1.413 4.87 99.318 99.318 0 0 1-2.637 7.789A127.58 127.58 0 0 1 5.94 25.054c-1.144 2.642-2.368 5.44-3.702 8.128-.56 1.129-1.215 1.648-1.093 2.253.08.74.32 1.492.21 2.242-.074.521.58.745.84.429.404-.179.758-.433 1.113-.69l.22.109c.076.444.135.892.071 1.338-.075.52.58.746.839.428.419-.185.787-.45 1.156-.718l.2.103c.079.463.146.926.079 1.39-.074.52.579.744.838.428.429-.188.8-.46 1.176-.733l.135.072c.081.468.15.942.083 1.414-.075.52.58.744.84.428.429-.19.806-.466 1.182-.74.042.023.083.044.125.065.083.475.155.95.086 1.427-.075.52.58.745.837.428.434-.191.81-.467 1.187-.742l.208.108c.082.475.156.955.087 1.432-.075.52.579.746.838.428.432-.191.81-.468 1.19-.744.031.018.065.032.095.05.082.477.155.957.086 1.435-.075.521.58.745.839.429.435-.193.813-.47 1.193-.748l.156.081c.081.478.156.96.086 1.442-.074.519.58.744.838.426.44-.193.82-.473 1.205-.754.034.02.066.036.101.054.082.483.158.968.088 1.454-.075.52.58.745.84.427.443-.196.83-.483 1.22-.766.028.013.054.025.078.041.086.49.166.984.096 1.477-.077.52.579.746.836.428.46-.202.856-.5 1.26-.793l.118.06c.09.51.178 1.022.104 1.533-.075.52.578.746.838.428.704-.31 1.258-.85 1.919-1.237a.444.444 0 0 0 .182-.208l.011-.013c.482-.965 2.183-4.986 2.51-5.883 3.258-8.884 6.513-17.77 9.767-26.659.032-.057.07-.109.095-.178.228-.685.841-2.092.947-2.812a.796.796 0 0 0-.007-.328" mask="url(#b)"/>
        </g>
        <path fill="#FF9300" d="M76.726 11.521c5.276 2.354 5.852 2.558 11.142 4.883 1.133.5 1.904-1.28.77-1.78-5.288-2.326-5.866-2.53-11.143-4.883-1.131-.504-1.902 1.276-.77 1.78M73.974 18.722c5.234 2.447 5.805 2.662 11.05 5.083 1.124.52 1.926-1.247.801-1.766-5.245-2.42-5.817-2.636-11.05-5.083-1.12-.524-1.923 1.24-.8 1.766M71.222 25.92c5.19 2.544 5.759 2.77 10.959 5.286 1.115.538 1.947-1.211.832-1.751-5.202-2.517-5.768-2.743-10.957-5.285-1.114-.545-1.946 1.206-.834 1.75M68.47 33.121c5.145 2.637 5.71 2.874 10.866 5.484 1.106.56 1.972-1.175.864-1.735-5.156-2.612-5.721-2.847-10.865-5.484-1.103-.566-1.967 1.169-.864 1.735M92.058 18.18c.815.363 1.032.467 1.632.731 1.135.498 1.904-1.28.77-1.78-.742-.328-.816-.36-1.632-.732-1.128-.515-1.902 1.275-.77 1.78M89.397 25.675c.81.377 1.026.484 1.621.758 1.125.517 1.923-1.252.799-1.768-.738-.339-.812-.373-1.623-.757-1.118-.532-1.92 1.245-.797 1.767M86.736 33.172c.804.389 1.018.5 1.61.781 1.117.535 1.944-1.22.824-1.754-.733-.35-.803-.385-1.608-.782-1.112-.55-1.94 1.215-.826 1.755M84.077 40.668c.797.4 1.01.516 1.597.808 1.109.553 1.963-1.19.851-1.742-.726-.362-.798-.397-1.597-.808-1.102-.567-1.958 1.184-.85 1.742"/>
        <path fill="#FFF" d="M69.343 32.885c-9.426-1.048-19.1-2.163-27.655-6.58a164.85 164.85 0 0 0 5.55-19.792 57.473 57.473 0 0 0 26.118 5.15 157.964 157.964 0 0 1-4.013 21.222"/>
        <path fill="#2BD1D4" d="M66.497 33.488c-3.468-2.323-6.176-5.54-8.848-8.726-1.265-1.51-2.515-3.063-3.907-4.456-.669-.67-1.358-.889-2.267-.594-1.088.354-2.144.917-3.184 1.397a129.776 129.776 0 0 0-6.96 3.476c-.048-.061-.155-.077-.2.015-.214.45-.432.898-.645 1.35-.137.291-.299.606-.269.938.063.642.861.892 1.362 1.082 1.786.683 3.766.932 5.627 1.336a699.686 699.686 0 0 1 18.954 4.38.102.102 0 0 0 .121-.061l.064.045c.125.084.279-.097.152-.182"/>
        <path fill="#2BD1D4" d="M71.872 24.07c-.13-.433-.524-.712-.857-.982-.85-.696-1.771-1.3-2.707-1.869a81.777 81.777 0 0 0-1.402-.83c-.403-.235-.813-.473-1.296-.441-.467.03-.928.27-1.352.45-.603.257-1.195.534-1.782.826-2.359 1.173-4.658 2.502-6.919 3.857-2.189 1.31-4.304 2.75-6.168 4.511-.069.065-.027.148.039.18-.367.333-.893.24-1.274.529-.266.2-.357.496-.406.814-.148.92-.008 1.994.438 2.817.45.822 1.342.93 2.178 1.117 1.17.261 2.358.454 3.548.603 2.394.299 4.804.419 7.208.571 1.205.076 2.41.159 3.61.276 1.091.105 2.232.368 3.328.246.54-.06 1.06-.225 1.565-.417.38-.144.808-.291 1.08-.617.26-.312.344-.75.445-1.134.164-.63.302-1.266.412-1.909.196-1.143.301-2.302.32-3.462.023-1.302-.185-2.62-.056-3.92.039-.4.167-.817.048-1.216"/>
        <path fill="#BBD9FD" d="M69.343 32.885c-9.426-1.048-19.1-2.163-27.655-6.58a164.85 164.85 0 0 0 5.55-19.792 57.473 57.473 0 0 0 26.118 5.15 157.964 157.964 0 0 1-4.013 21.222m4.92-22.97a.871.871 0 0 0-.266-.027 55.608 55.608 0 0 1-26.625-5.23.807.807 0 0 0-.572-.058c-.43-.1-.937.086-1.054.65A161.663 161.663 0 0 1 38.4 30.29c-.105.279-.852 2.31-.742 2.432.06.153.29.404.475.492 1.957 1.334 3.944 2.17 5.984 2.881a82.741 82.741 0 0 0 8.307 2.428 81.498 81.498 0 0 0 14.58 2.043c.203.012 1.923.076 2.054.08l.675.016a.792.792 0 0 0 .39-.09c.258-.08.477-.286.546-.637a485.733 485.733 0 0 0 4.723-29.032c.096-.728-.598-1.12-1.13-.988"/>
        <path fill="#FD9E2A" d="M64.083 14.316c-.795-.89-2.112-1.017-3.08-.39-.004.004-.01.004-.014.007-.42.248-.715.634-.874 1.07-.448.693-.32 1.684.266 2.366.894 1.045 2.486 1.095 3.538.26 1.041-.826 1.017-2.356.164-3.313"/>
        <path fill="#2BD1D4" d="M43.227 6.614c-.366-1.486-.845-2.906-1.625-4.024C40.22.612 38.002.6 35.652 1.212c-1.078.248-2.132.67-3.049 1.012-4.505 1.673-20.635 7.46-21.131 7.706-2.41 1.2-2.414 3.118-1.725 5.253.074.35 9.251 29.99 9.848 31.546.81 2.113 2.029 3.983 4.079 4.059 2.05.078 26.356-8.545 27.481-9.038 1.371-.6 1.947-1.456 2.034-2.44.18-.537.057-1.12-.103-1.855-.419-1.938-8.299-27.475-9.859-30.841"/>
        <path fill="#B7F6F7" d="M45.315 6.765c-.492-1.447-1.093-2.822-1.965-3.863-1.544-1.849-3.757-1.669-6.047-.848-1.05.34-2.065.856-2.948 1.275-4.344 2.066-19.917 9.255-20.39 9.545-2.295 1.407-2.137 3.32-1.265 5.384.103.342 11.795 29.062 12.522 30.557.99 2.033 2.366 3.788 4.413 3.684 2.046-.105 25.521-10.842 26.601-11.43 1.312-.72 1.813-1.624 1.815-2.612.132-.551-.039-1.122-.261-1.84-.584-1.891-10.632-26.636-12.475-29.852"/>
        <path fill="#FF8E8E" d="M42.56 13.105c-3.882-3.005-9.187-.272-10.18 4.041-3.61-2.5-9.343-.884-10.2 3.991-.594 3.368 1.228 6.69 3.871 8.623 3.675 2.685 8.12 1.068 11.8 3.269.239.143.46.134.635.04.194-.053.362-.196.442-.467 1.248-4.14 5.603-5.99 6.523-10.487.66-3.235-.208-6.933-2.891-9.01"/>
        <path fill="#F52D2D" d="M39.307 21.768l-1.978.778c-.33.13-.47.375-.502.717l-.237 2.596c-1.083-1.719-2.168-3.438-3.25-5.157-.4-.632-1.294-.272-1.318.419-.038 1.187-.08 2.375-.118 3.562-.498.197-.997.395-1.495.59-.854.336-.432 1.725.43 1.384.657-.26 1.316-.519 1.975-.778a.759.759 0 0 0 .502-.719l.058-1.706 3.126 4.964c.418.66 1.258.247 1.319-.418l.39-4.247 1.525-.6c.854-.338.434-1.724-.427-1.385"/>
        <path fill="#BBD9FD" d="M37.452 42.88a134.748 134.748 0 0 1-5.705-10.102 105.687 105.687 0 0 1-3.988-7.738 67.726 67.726 0 0 1-2.246-4.875c-.243-.227-.5-.378-.768-.394a1.195 1.195 0 0 0-.606.144c-.03.011-.061.005-.092.024-.072.05-.136.094-.21.143-.1.062-.2.123-.306.177-.026.013-.036.05-.053.071C18.582 23.67 6.155 30.586.948 34.173c-.253.193-.534.353-.704.68-.254.398-.355.945-.13 1.69.223.739.64 1.402.988 2.081.037.07.085.119.126.172C6.52 48.473 11.814 58.144 17.11 67.814c.041.077.086.124.13.182l.001.005c.126.248.256.493.392.73.333.635.696 1.22 1.12 1.623.142.167.29.323.448.446.742.584 1.554.264 2.155-.22 5.06-3.492 16.251-12.012 21.197-15.45.54-.283 1.078-.735 1.173-1.552.064-.576-.083-1.17-.323-1.758-2.253-2.796-4.117-6.005-5.95-8.94"/>
        <path fill="#3281EE" d="M33.994 50.743c-2.633 1.748.893-.56-1.766 1.152-1.104.71.133 2.348 1.232 1.64 2.66-1.712-.869.596 1.768-1.152 1.093-.725-.14-2.365-1.234-1.64M19.785 40.175c-2.534 1.921-5.368 3.601-7.987 5.429-1.077.752.1 2.432 1.18 1.677 2.62-1.826 5.453-3.506 7.988-5.428 1.046-.793-.128-2.476-1.181-1.678M26.405 46.502c-3.779 2.374-5.016 2.89-11.195 7.307-1.06.758.038 2.45 1.131 1.713 6.61-4.453 7.418-4.933 11.197-7.307 1.11-.7-.02-2.413-1.133-1.713M28.849 54.601c-4.42 2.945-5.296 3.586-8.834 6.167-1.054.769.066 2.45 1.15 1.701 6.56-4.526 4.572-3.219 8.834-6.17 1.082-.748-.056-2.428-1.15-1.698M17.566 36.745c-3.744 2.433-1.403.738-7.517 5.25-1.05.773.077 2.448 1.159 1.694 6.539-4.555 3.773-2.817 7.517-5.25 1.1-.714-.058-2.41-1.159-1.694M23.163 28.123c-5.074 3.45-10.154 6.895-15.211 10.372-1.083.746.051 2.457 1.136 1.711 5.057-3.477 10.137-6.92 15.211-10.372 1.088-.741-.046-2.452-1.136-1.711M32.963 46.51c-5.075 3.452-10.155 6.895-15.213 10.373-1.083.746.051 2.457 1.136 1.71 5.058-3.478 10.138-6.92 15.211-10.373 1.09-.74-.046-2.45-1.134-1.71"/>
        <path fill="#B7F6F7" d="M75.763 20.57a1.804 1.804 0 0 1 2.509-.546l19.92 13.05a1.858 1.858 0 0 1 .537 2.544l-12.873 20.19a1.807 1.807 0 0 1-2.512.546L63.425 43.303a1.858 1.858 0 0 1-.539-2.544L75.763 20.57z"/>
        <path fill="#2BD1D4" d="M72.75 34.696a2.128 2.128 0 0 0-3.028-.318 2.205 2.205 0 0 0-.314 3.07l.68.848a3.205 3.205 0 0 0 4.543.477l6.416-5.285a.67.67 0 0 1 .836.001l5.03 4.319c.225.195.228.503-.017.704l-4.577 3.772a.53.53 0 0 1-.759-.065l-1.025-1.278a2.137 2.137 0 0 0-3.026-.32l.147-.123a2.204 2.204 0 0 0-.31 3.067l.681.848a3.202 3.202 0 0 0 4.538.48l9.877-8.136c.462-.381.467-1.012.024-1.395l-7.519-6.528c-.448-.39-1.192-.391-1.65-.015l-8.77 7.226a.523.523 0 0 1-.75-.071l-1.026-1.278z"/>
        <g transform="translate(27.19 121.87)">
            <mask id="d" fill="#fff">
                <use xlink:href="#c"/>
            </mask>
            <path fill="#BBD9FD" d="M1.146 4.713c1.867.663 6.659 1.234 10.521 1.464 10.546.626 25.282.287 31.528-.866 6.295-1.16 6.575-2.917-9.425-3.786C20.147.784 4.245 1.84.847 3.41c-.914.423-.864.892.299 1.302" mask="url(#d)"/>
        </g>
        <path fill="#BBD9FD" d="M87.212 48.002c-6.175-2.942-12.204-5.225-18.085-6.844-6.68-1.84-12.42-2.724-18.23-2.724-5.733 0-11.545.884-18.156 2.724-5.953 1.619-11.98 3.902-18.08 6.844a3.594 3.594 0 0 0-2.326 3.386c0 18.255 2.397 32.461 8.206 44.24 5.811 11.85 14.96 21.198 28.469 29.809a3.619 3.619 0 0 0 3.846 0c13.512-8.611 22.663-17.959 28.472-29.81 5.807-11.778 8.133-25.984 8.133-44.239 0-1.544-.945-2.869-2.25-3.386"/>
        <path fill="#288AFC" d="M76.494 76.505c-.899 5.358-2.33 10.108-4.436 14.38-4.04 8.223-10.4 14.712-19.788 20.686-.808.51-1.868.51-2.67 0-9.208-5.86-15.494-12.216-19.546-20.218-1.555-3.356-2.737-6.882-3.563-10.763-1.256-5.906-1.483-12.78.778-18.555 1.497-3.819 4.28-5.79 5.118-6.413 1.759-1.184 3.747-1.898 5.904-2.537 4.573-1.35 8.634-1.887 12.621-1.887 4.034 0 8.088.38 12.664 1.887 3.282 1.082 5.91 2.29 9.275 5.827 1.509 1.779 2.325 3.54 2.81 5.379 1.189 4.495 1.283 8.196.833 12.214m10.717-28.504c-6.174-2.941-12.203-5.223-18.083-6.843-6.68-1.84-12.42-2.725-18.23-2.725-5.735 0-11.546.884-18.157 2.725C26.789 42.778 20.76 45.06 14.66 48a3.595 3.595 0 0 0-2.327 3.388c0 18.255 2.397 32.46 8.207 44.237 5.811 11.852 14.96 21.199 28.469 29.812a3.628 3.628 0 0 0 3.848 0c13.51-8.613 22.662-17.96 28.47-29.812 5.806-11.778 8.133-25.982 8.133-44.237 0-1.545-.944-2.87-2.25-3.388"/>
        <path fill="#288AFC" d="M51.093 94.293c-8.54 0-10.783-6.572-11.352-9.399-.215-1.077.47-2.128 1.534-2.347 1.061-.217 18.573-.217 19.637 0 1.062.22 1.747 1.27 1.531 2.347-.568 2.827-2.81 9.4-11.35 9.4M32.968 71.784c.188.75.728 1.427 1.18 1.712 1.236.779 3.03.516 3.85-.718.824-1.242.958-3.197-.915-4.29-1.599-.93-3.576.12-4.079 1.844a2.862 2.862 0 0 0-.036 1.452M63.299 72.505c.186.75.728 1.427 1.18 1.713 1.234.778 3.031.515 3.85-.719.823-1.242.959-3.196-.916-4.29-1.597-.932-3.573.12-4.074 1.845a2.81 2.81 0 0 0-.04 1.451"/>
        <path fill="#FEDBA7" d="M17.761 54.64c.104.42.407.8.663.958.693.438 1.699.29 2.16-.4.462-.698.54-1.796-.515-2.41-.895-.52-2.007.07-2.285 1.036-.08.261-.087.553-.023.816M25.254 51.077c.102.42.406.801.66.96.695.438 1.701.29 2.16-.402.463-.697.541-1.793-.513-2.408-.894-.52-2.002.07-2.286 1.036-.077.26-.085.552-.021.814M33.012 48.17c.102.421.406.8.662.96.694.434 1.7.29 2.16-.402.462-.698.54-1.794-.515-2.409-.895-.522-2 .07-2.285 1.037-.077.26-.086.551-.022.814M41.074 46.304c.102.42.408.801.662.96.693.436 1.701.29 2.162-.402.462-.696.54-1.794-.517-2.408-.893-.522-1.995.071-2.283 1.036-.078.26-.088.551-.024.814M49.346 46.039c.104.422.408.801.66.962.695.436 1.703.288 2.162-.404.464-.696.54-1.792-.515-2.407-.893-.522-2.005.068-2.285 1.035-.078.26-.086.551-.022.814M83.991 53.824c-.283-.966-1.392-1.557-2.29-1.036-1.047.615-.975 1.712-.511 2.41.46.69 1.467.838 2.161.4.255-.157.559-.538.663-.958a1.62 1.62 0 0 0-.023-.816M76.499 50.263c-.282-.967-1.39-1.557-2.288-1.037-1.05.615-.978 1.711-.514 2.41.461.69 1.466.837 2.162.402.256-.16.557-.54.662-.961a1.58 1.58 0 0 0-.022-.814M68.741 47.354c-.283-.966-1.392-1.557-2.29-1.036-1.05.616-.975 1.712-.511 2.408.46.692 1.467.84 2.161.404.255-.16.555-.54.66-.962a1.58 1.58 0 0 0-.02-.814M60.679 45.49c-.283-.967-1.394-1.557-2.29-1.035-1.053.614-.976 1.71-.512 2.408.46.69 1.467.838 2.162.402.253-.16.553-.542.659-.962a1.596 1.596 0 0 0-.02-.814"/>
        <path fill="#FEDBA7" d="M52.407 45.225c-.282-.967-1.392-1.557-2.288-1.035-1.055.615-.978 1.711-.514 2.407.461.692 1.467.84 2.162.404.254-.16.557-.54.66-.962a1.562 1.562 0 0 0-.02-.814M52.426 118.008c-.28-.968-1.39-1.556-2.288-1.036-1.052.615-.975 1.711-.512 2.408.459.691 1.467.84 2.161.403.255-.16.557-.539.663-.96a1.562 1.562 0 0 0-.024-.815M59.785 113.918c-.286-.967-1.387-1.559-2.286-1.038-1.052.616-.976 1.712-.514 2.41.46.69 1.467.837 2.162.402.256-.159.558-.538.664-.96a1.58 1.58 0 0 0-.026-.814M66.079 108.282c-.283-.967-1.39-1.557-2.29-1.037-1.051.615-.974 1.711-.512 2.408.46.691 1.467.84 2.162.403.254-.16.557-.539.662-.96a1.579 1.579 0 0 0-.022-.814M71.95 102.215c-.286-.967-1.39-1.559-2.287-1.038-1.05.614-.976 1.712-.512 2.41.459.69 1.465.838 2.161.402.255-.16.559-.539.663-.959a1.585 1.585 0 0 0-.024-.815M76.622 95.17c-.284-.964-1.39-1.556-2.288-1.036-1.05.615-.974 1.713-.512 2.408.463.693 1.466.839 2.164.403.252-.16.555-.539.662-.959a1.568 1.568 0 0 0-.026-.816M80.061 87.42c-.281-.966-1.39-1.557-2.288-1.036-1.05.614-.976 1.712-.512 2.408.461.69 1.466.837 2.162.402.254-.159.558-.538.662-.96a1.596 1.596 0 0 0-.024-.814M82.335 79.255c-.282-.967-1.392-1.559-2.288-1.037-1.051.613-.978 1.713-.514 2.41.461.691 1.466.835 2.162.402.256-.159.558-.54.662-.96a1.585 1.585 0 0 0-.022-.815M83.504 70.831c-.284-.968-1.394-1.558-2.29-1.036-1.051.613-.976 1.71-.512 2.41.46.69 1.466.836 2.162.4.254-.159.558-.538.662-.958a1.62 1.62 0 0 0-.022-.816M83.991 62.338c-.285-.967-1.393-1.56-2.288-1.038-1.053.613-.977 1.713-.515 2.41.462.69 1.469.837 2.163.402.253-.159.559-.538.663-.958a1.602 1.602 0 0 0-.023-.816M83.991 53.824c-.283-.966-1.392-1.557-2.29-1.036-1.047.615-.975 1.712-.511 2.41.46.69 1.467.838 2.161.4.255-.157.559-.538.663-.958a1.62 1.62 0 0 0-.023-.816"/>
        <path fill="#FEDBA7" d="M49.308 118.823c.101.422.407.801.661.96.695.436 1.703.289 2.16-.402.463-.697.54-1.795-.513-2.41-.898-.52-2.007.07-2.285 1.038-.077.258-.09.551-.023.814M41.949 114.734c.104.42.406.8.662.96.695.434 1.703.288 2.159-.403.464-.697.539-1.793-.514-2.41-.897-.52-2.001.07-2.285 1.038-.076.258-.088.55-.022.815M35.657 109.098c.104.42.406.801.66.96.695.436 1.703.289 2.16-.402.463-.697.54-1.794-.513-2.41-.898-.52-2.003.071-2.285 1.038-.077.258-.088.55-.022.814M29.785 103.031c.104.418.408.8.662.958.695.437 1.701.29 2.159-.402.462-.697.54-1.795-.514-2.41-.896-.52-2 .072-2.283 1.038-.077.261-.09.552-.024.816M25.112 95.987c.102.42.408.8.662.958.694.435 1.702.29 2.16-.402.462-.696.538-1.793-.514-2.408-.897-.52-2.003.07-2.284 1.036-.077.26-.09.552-.024.816M21.67 88.236c.105.42.409.8.663.96.693.433 1.701.29 2.159-.402.464-.697.54-1.797-.512-2.41-.898-.522-2.002.072-2.287 1.038-.077.26-.088.552-.022.814M19.399 80.071c.102.42.41.8.664.96.693.433 1.7.289 2.158-.402.463-.697.541-1.797-.513-2.41-.896-.522-2.002.072-2.285 1.036-.077.262-.09.553-.024.816M18.232 71.648c.104.42.408.799.664.958.694.435 1.7.29 2.158-.4.463-.7.541-1.797-.512-2.41-.896-.523-2.005.07-2.286 1.036-.077.26-.09.553-.024.816M17.744 63.154c.104.418.41.797.664.958.693.433 1.701.29 2.159-.402.462-.698.54-1.797-.514-2.41-.896-.522-2.001.073-2.285 1.038-.076.26-.09.551-.024.816M17.743 54.64c.104.42.408.8.664.958.69.438 1.7.29 2.158-.4.463-.698.54-1.796-.512-2.41-.897-.52-2.008.07-2.286 1.036-.079.261-.09.553-.024.816"/>
    </g>
</svg>
