<?xml version="1.0" encoding="UTF-8" standalone="no"?>
<svg width="16px" height="13px" viewBox="0 0 16 13" version="1.1" xmlns="http://www.w3.org/2000/svg" xmlns:xlink="http://www.w3.org/1999/xlink" xmlns:sketch="http://www.bohemiancoding.com/sketch/ns">
    <!-- Generator: Sketch 3.4.2 (15857) - http://www.bohemiancoding.com/sketch -->
    <title>laptop</title>
    <desc>Created with Sketch.</desc>
    <defs>
        <path id="path-1" d="M0,0 L16,0 L16,13 L0,13 L0,0 Z"></path>
    </defs>
    <g id="Design" stroke="none" stroke-width="1" fill="none" fill-rule="evenodd" sketch:type="MSPage">
        <g id="1a-about" sketch:type="MSArtboardGroup" transform="translate(-713.000000, -4154.000000)">
            <g id="4" sketch:type="MSLayerGroup" transform="translate(171.000000, 2547.000000)">
                <g id="timeline" transform="translate(0.000000, 218.000000)">
                    <g id="9" transform="translate(162.000000, 1351.000000)">
                        <g id="laptop" transform="translate(380.000000, 38.000000)">
                            <mask id="mask-2" sketch:name="Clip 2" fill="white">
                                <use xlink:href="#path-1"></use>
                            </mask>
                            <g id="Clip-2"></g>
                            <path d="M3,2 L13,2 L13,8 L3,8 L3,2 Z M2,10 L14,10 C14.553,10 15,9.553 15,9 L15,1 C15,0.447 14.553,0 14,0 L2,0 C1.448,0 1,0.447 1,1 L1,9 C1,9.553 1.448,10 2,10 L2,10 Z" id="Fill-1" fill="#2E2B2C" sketch:type="MSShapeGroup" mask="url(#mask-2)"></path>
                            <path d="M15.0001,11 L1.0001,11 C0.4481,11 0.0001,11.447 0.0001,12 C0.0001,12.553 0.4481,13 1.0001,13 L15.0001,13 C15.5531,13 16.0001,12.553 16.0001,12 C16.0001,11.447 15.5531,11 15.0001,11" id="Fill-3" fill="#2E2B2C" sketch:type="MSShapeGroup" mask="url(#mask-2)"></path>
                        </g>
                    </g>
                </g>
            </g>
        </g>
    </g>
</svg>