<svg xmlns="http://www.w3.org/2000/svg" width="128" height="128" viewBox="0 0 128 128" xmlns:xlink="http://www.w3.org/1999/xlink">
  <defs>
    <circle id="a" cx="91" cy="104" r="24"/>
  </defs>
  <g fill="none" fill-rule="evenodd" transform="translate(13)">
    <polygon fill="#C2F0D1" points="0 0 20 8 36 0 52 8 68 0 84 8 104 0 104 128 84 120 68 128 52 120 36 128 20 120 0 128"/>
    <path fill="#35CE68" d="M24 32L80 32 80 40 24 40 24 32zM24 48L80 48 80 56 24 56 24 48zM56 64L80 64 80 72 56 72 56 64zM56 80L80 80 80 88 56 88 56 80zM51.371437 77.8087294C49.0391441 74.4643094 46.0027629 72 40.6340887 72 34.3853041 72 29.8967404 76.268536 28.1365194 82.209282L24 82.209282 24 85.9497516 27.432431 85.9497516C27.34442 86.6098345 27.34442 87.3139229 27.34442 87.9740058 27.34442 88.5460777 27.34442 89.1181495 27.3884255 89.6462158L24 89.6462158 24 93.430691 28.0045028 93.430691C29.7207183 99.6794757 34.297293 103.860001 40.8101108 103.860001 45.8267407 103.860001 48.9511331 101.30768 51.459448 97.6552215L47.5869618 94.7948623C45.5627076 97.4791994 43.8024866 99.0193928 40.8541163 99.0193928 37.4216853 99.0193928 34.9133704 96.9071275 33.6812157 93.430691L43.1864092 93.430691 43.1864092 89.6462158 32.8451107 89.6462158C32.8011051 89.074144 32.8011051 88.5020721 32.8011051 87.8859948 32.8011051 87.2259119 32.8011051 86.565829 32.8891162 85.9497516L43.1864092 85.9497516 43.1864092 82.209282 33.7252212 82.209282C34.9573759 78.9088675 37.3776798 76.8406078 40.5020721 76.8406078 43.5824589 76.8406078 45.3866855 78.2487847 47.2789231 80.8451107L51.371437 77.8087294z"/>
    <g>
      <use fill="#F52D2D" xlink:href="#a"/>
      <circle cx="91" cy="104" r="25" stroke="#FFFFFF" stroke-width="2"/>
    </g>
    <path fill="#FFFFFF" fill-rule="nonzero" d="M82.5708019,105.000006 L92.6757246,114.262852 C93.0828436,114.636044 93.1103465,115.268612 92.7371541,115.675731 C92.3639617,116.08285 91.7313944,116.110352 91.3242754,115.73716 L79.3270117,104.739668 C79.1261015,104.556762 79,104.29311 79,104.000006 C79,103.706902 79.1261015,103.44325 79.3270117,103.260343 L91.3242754,92.2628518 C91.7313944,91.8896593 92.3639617,91.9171623 92.7371541,92.3242813 C93.1103465,92.7314003 93.0828436,93.3639676 92.6757246,93.73716 L82.5708019,103.000006 L102,103.000006 C102.552285,103.000006 103,103.447721 103,104.000006 C103,104.552291 102.552285,105.000006 102,105.000006 L82.5708019,105.000006 Z" transform="rotate(-90 91 104)"/>
  </g>
</svg>
