<svg xmlns="http://www.w3.org/2000/svg" width="32" height="32" viewBox="0 0 32 32"><g fill="#fff"><path d="M31 30h-2v-19.994999999999997c0-1.108-.895-2.005-1.998-2.005h-2.004c-1.1 0-1.998.898-1.998 2.005v19.994999999999997h-1v-14.005c0-1.102-.895-1.995-1.998-1.995h-2.004c-1.1 0-1.998.893-1.998 1.995v14.005h-1.001l.001-.008v-7.983c0-1.107-.895-2.009-1.998-2.009h-2.004c-1.1 0-1.998.9-1.998 2.009v7.983l.001.008h-1.001v-2.002c0-1.1-.895-1.998-1.998-1.998h-2.004c-1.1 0-1.998.895-1.998 1.998v2.002h-1c-.552 0-1 .447-1 1s.448 1 1 1h9.988l.01.001h2.004l.01-.001h17.988c.553 0 1-.447 1-1s-.447-1-1-1zm-11 0h-2v-14h2v14zm-9.002-8h2.004l-.002.009v7.983l.002.008h-2.004l.002-.008v-7.983l-.002-.009zm-4.998 8h-2v-2h2v2zm18.998 0l.002-.005v-19.99l-.002-.005h2.004l-.002.005v19.99l.002.005h-2.004zM3.675 23.738l22.065-20.191-.235 2.353c-.055.55.347 1.04.895 1.095.551.055 1.041-.346 1.096-.896l.5-5c.059-.589-.403-1.1-.995-1.1h-5c-.552 0-1 .448-1 1s.448 1 1 1l-.001.001h2.467l-22.142 20.262c-.407.373-.435 1.006-.063 1.413.373.407 1.005.434 1.413.063z"/></g></svg>
