<?xml version="1.0" encoding="UTF-8" standalone="no"?>
<svg width="14px" height="16px" viewBox="0 0 14 16" version="1.1" xmlns="http://www.w3.org/2000/svg" xmlns:xlink="http://www.w3.org/1999/xlink" xmlns:sketch="http://www.bohemiancoding.com/sketch/ns">
    <!-- Generator: Sketch 3.4.2 (15857) - http://www.bohemiancoding.com/sketch -->
    <title>man</title>
    <desc>Created with Sketch.</desc>
    <defs>
        <path id="path-1" d="M0,0 L13.991,0 L13.991,16 L0,16 L0,0 Z"></path>
    </defs>
    <g id="Design" stroke="none" stroke-width="1" fill="none" fill-rule="evenodd" sketch:type="MSPage">
        <g id="1a-about" sketch:type="MSArtboardGroup" transform="translate(-713.000000, -4525.000000)">
            <g id="4" sketch:type="MSLayerGroup" transform="translate(171.000000, 2547.000000)">
                <g id="timeline" transform="translate(0.000000, 218.000000)">
                    <g id="11" transform="translate(114.000000, 1705.000000)">
                        <g id="man" transform="translate(428.000000, 55.000000)">
                            <mask id="mask-2" sketch:name="Clip 2" fill="white">
                                <use xlink:href="#path-1"></use>
                            </mask>
                            <g id="Clip-2"></g>
                            <path d="M2.0134,14.0044 C1.9894,13.9844 2.0014,13.9634 2.0084,13.9514 C3.1484,11.9934 4.8264,11.0004 6.9954,11.0004 C9.1734,11.0004 10.8504,11.9934 11.9724,14.0004 L2.0134,14.0044 Z M6.9954,2.0004 C8.6484,2.0004 9.9934,3.3454 9.9934,5.0004 C9.9934,6.6544 8.6484,7.9994 6.9954,7.9994 C5.3424,7.9994 3.9974,6.6544 3.9974,5.0004 C3.9974,3.3454 5.3424,2.0004 6.9954,2.0004 L6.9954,2.0004 Z M13.7124,12.9504 C12.7634,11.3074 11.3414,9.9704 9.3934,9.3614 C10.9354,8.5104 11.9924,6.8874 11.9924,5.0004 C11.9924,2.2384 9.7554,0.0004 6.9954,0.0004 C4.2354,0.0004 1.9984,2.2384 1.9984,5.0004 C1.9984,6.8894 3.0574,8.5134 4.6024,9.3634 C2.6664,9.9734 1.2364,11.3034 0.2814,12.9444 C-0.5066,14.2984 0.4514,16.0004 2.0174,16.0004 L11.9724,16.0004 C13.5354,16.0004 14.4944,14.3044 13.7124,12.9504 L13.7124,12.9504 Z" id="Fill-1" fill="#2E2B2C" sketch:type="MSShapeGroup" mask="url(#mask-2)"></path>
                        </g>
                    </g>
                </g>
            </g>
        </g>
    </g>
</svg>