<svg xmlns="http://www.w3.org/2000/svg" width="32" height="32" viewBox="0 0 32 32"><g fill="#fff"><path d="M7.73 25.254c.48.809.414 1.354-.118 1.912-.551.579-1.565 1.107-2.896 1.541-.779.254-1.62.457-2.463.62.191-.878.423-1.753.7-2.565.476-1.392 1.031-2.451 1.616-3.015.541-.522 1.005-.567 1.725-.06l1.156-1.631-.001-.002c-1.519-1.076-3.049-.927-4.27.252-.864.834-1.549 2.141-2.118 3.808-.321.94-.586 1.94-.798 2.938-.074.35-.137.674-.188.967l-.063.379c-.096.65.451 1.216 1.104 1.141l.375-.05c.288-.042.607-.095.951-.158.984-.183 1.968-.421 2.895-.724 1.618-.527 2.896-1.192 3.725-2.063 1.144-1.202 1.331-2.726.389-4.312l-1.721 1.022zM30.288.034l-4.878 1.297c-1.24.33-2.891 1.279-3.794 2.183l-7.849 7.849h-2.679c-1.814 0-4.228.953-5.545 2.188l-5.228 4.901c-.685.642-.187 1.79.75 1.728l5.539-.37.052.079 5 5c.09.091.196.155.307.204l-.373 5.589c-.062.938 1.085 1.437 1.727.75l5.884-6.276c.688-.735 1.204-2.036 1.204-3.044v-4.545h-.013l8.077-8.076c.918-.918 1.838-2.608 2.109-3.878l.943-4.402c.159-.731-.511-1.369-1.233-1.177zm-23.376 14.976c.946-.887 2.871-1.647 4.177-1.647h.679l-4.391 4.391-3.651.243 3.186-2.987zm.839 2.719zm1.027 1.453l.858-.858 3.586 3.586-.858.858-3.586-3.586zm9.628 2.929c0 .5-.321 1.311-.663 1.676l-3.971 4.236.269-4.027-.073-.005 4.438-4.438v2.558zm8.651-14.035l-12.42 12.419-3.586-3.586 11.981-11.98c.654-.655 1.994-1.426 2.894-1.665l3.302-.878-.602 2.807c-.192.893-.924 2.237-1.569 2.883z"/></g></svg>