<?xml version="1.0" encoding="UTF-8" standalone="no"?>
<svg width="16px" height="15px" viewBox="0 0 16 15" version="1.1" xmlns="http://www.w3.org/2000/svg" xmlns:xlink="http://www.w3.org/1999/xlink" xmlns:sketch="http://www.bohemiancoding.com/sketch/ns">
    <!-- Generator: Sketch 3.4.2 (15857) - http://www.bohemiancoding.com/sketch -->
    <title>screen</title>
    <desc>Created with Sketch.</desc>
    <defs></defs>
    <g id="Design" stroke="none" stroke-width="1" fill="none" fill-rule="evenodd" sketch:type="MSPage">
        <g id="1a-about" sketch:type="MSArtboardGroup" transform="translate(-712.000000, -4714.000000)" fill="#2E2B2C">
            <g id="4" sketch:type="MSLayerGroup" transform="translate(171.000000, 2547.000000)">
                <g id="timeline" transform="translate(0.000000, 218.000000)" sketch:type="MSShapeGroup">
                    <g id="12" transform="translate(527.000000, 1894.000000)">
                        <path d="M28,65 L16,65 L16,57 L28,57 L28,65 Z M29,55 L15,55 C14.448,55 14,55.447 14,56 L14,66 C14,66.553 14.448,67 15,67 L21,67 L21,68 L19,68 C18.448,68 18,68.447 18,69 C18,69.553 18.448,70 19,70 L25,70 C25.552,70 26,69.553 26,69 C26,68.447 25.552,68 25,68 L23,68 L23,67 L29,67 C29.552,67 30,66.553 30,66 L30,56 C30,55.447 29.552,55 29,55 L29,55 Z" id="screen"></path>
                    </g>
                </g>
            </g>
        </g>
    </g>
</svg>