<?xml version="1.0" encoding="UTF-8" standalone="no"?>
<svg width="18px" height="16px" viewBox="0 0 18 16" version="1.1" xmlns="http://www.w3.org/2000/svg" xmlns:xlink="http://www.w3.org/1999/xlink" xmlns:sketch="http://www.bohemiancoding.com/sketch/ns">
    <!-- Generator: Sketch 3.4.2 (15857) - http://www.bohemiancoding.com/sketch -->
    <title>team</title>
    <desc>Created with Sketch.</desc>
    <defs></defs>
    <g id="Design" stroke="none" stroke-width="1" fill="none" fill-rule="evenodd" sketch:type="MSPage">
        <g id="1a-about" sketch:type="MSArtboardGroup" transform="translate(-712.000000, -2916.000000)" fill="#2E2B2C">
            <g id="4" sketch:type="MSLayerGroup" transform="translate(171.000000, 2547.000000)">
                <g id="timeline" transform="translate(0.000000, 218.000000)" sketch:type="MSShapeGroup">
                    <g id="2" transform="translate(541.000000, 131.000000)">
                        <g id="team" transform="translate(0.000000, 20.000000)">
                            <path d="M11.25,13.7142857 C11.25,12.4537143 12.259125,11.4285714 13.5,11.4285714 C14.740875,11.4285714 15.75,12.4537143 15.75,13.7142857 L11.25,13.7142857 Z M2.25,13.7142857 C2.25,11.824 3.76425,10.2857143 5.625,10.2857143 C7.48575,10.2857143 9,11.824 9,13.7142857 L2.25,13.7142857 Z M5.625,2.28571429 C6.865875,2.28571429 7.875,3.31085714 7.875,4.57142857 C7.875,5.83085714 6.865875,6.85714286 5.625,6.85714286 C4.38525,6.85714286 3.375,5.83085714 3.375,4.57142857 C3.375,3.31085714 4.38525,2.28571429 5.625,2.28571429 L5.625,2.28571429 Z M14.353875,9.224 C12.76425,8.92114286 11.28825,9.48685714 10.287,10.528 C9.6975,9.64228571 8.870625,8.93257143 7.900875,8.49371429 C9.225,7.69714286 10.125,6.24571429 10.125,4.57142857 C10.125,2.05028571 8.10675,0 5.625,0 C3.14325,0 1.125,2.05028571 1.125,4.57142857 C1.125,6.25257143 2.032875,7.70857143 3.366,8.50171429 C1.339875,9.42971429 0,11.5714286 0,13.9154286 C0,15.0662857 0.919125,16 2.052,16 L15.948,16 C17.080875,16 18,15.0662857 18,13.9154286 L18,13.8982857 C18,11.6697143 16.509375,9.63542857 14.353875,9.224 L14.353875,9.224 Z" id="Fill-1"></path>
                            <path d="M13.5001125,9.14285714 C14.7421125,9.14285714 15.7501125,8.12 15.7501125,6.85714286 C15.7501125,5.59428571 14.7421125,4.57142857 13.5001125,4.57142857 C12.2569875,4.57142857 11.2501125,5.59428571 11.2501125,6.85714286 C11.2501125,8.12 12.2569875,9.14285714 13.5001125,9.14285714" id="Fill-3"></path>
                        </g>
                    </g>
                </g>
            </g>
        </g>
    </g>
</svg>