<svg width="32" height="32" viewBox="0 0 32 32" xmlns="http://www.w3.org/2000/svg" xmlns:sketch="http://www.bohemiancoding.com/sketch/ns"><title>icon-cube</title><desc>Created with Sketch.</desc><g sketch:type="MSLayerGroup" fill="#3D3D3D"><path d="M2.394 8.919l14-6h-.788l14 6v-1.838l-14 6h.788l-14-6v1.838zm-.788-1.838c-.808.346-.808 1.492 0 1.838l14 6c.252.108.536.108.788 0l14-6c.808-.346.808-1.492 0-1.838l-14-6c-.252-.108-.536-.108-.788 0l-14 6zM29 8v16l.606-.919-14 6h.788l-14-6 .606.919v-16c0-.552-.448-1-1-1s-1 .448-1 1v16c0 .4.238.762.606.919l14 6c.252.108.536.108.788 0l14-6c.368-.158.606-.519.606-.919v-16c0-.552-.448-1-1-1s-1 .448-1 1zM15 14v16h2v-16h-2z" sketch:type="MSShapeGroup"/></g></svg>