<svg xmlns="http://www.w3.org/2000/svg" width="128" height="128" viewBox="0 0 128 128">
  <g fill="none" fill-rule="evenodd" transform="translate(8)">
    <path fill="#FFC644" d="M0,24 L112,24 L112,116 L112,116 C112,118.209139 110.209139,120 108,120 L4,120 L4,120 C1.790861,120 2.705415e-16,118.209139 0,116 L0,24 Z"/>
    <polygon fill="#FFECC1" points="24 0 88 0 112 24 0 24"/>
    <path fill="#FFFFFF" d="M56.5,36 C70.561,36 82,47.442 82,61.5 C82,75.057 71.359,86.142 58,86.928 L58,74.121 L59.938,76.059 C60.232,76.353 60.616,76.5 61,76.5 C61.384,76.5 61.768,76.353 62.062,76.059 L66.562,71.559 C67.147,70.977 67.147,70.026 66.562,69.441 C65.974,68.853 65.026,68.853 64.438,69.441 L61,72.879 L57.562,69.441 C57.424,69.306 57.256,69.192 57.07,69.12 C56.704,68.967 56.293,68.967 55.927,69.12 C55.741,69.192 55.573,69.306 55.438,69.441 L52,72.879 L48.562,69.441 C47.974,68.853 47.026,68.853 46.438,69.441 C45.853,70.026 45.853,70.977 46.438,71.559 L50.938,76.059 C51.526,76.644 52.474,76.644 53.062,76.059 L55,74.121 L55,86.928 C41.638,86.142 31,75.057 31,61.5 C31,47.442 42.439,36 56.5,36 Z M64,90 C64.825,90 65.5,90.672 65.5,91.5 C65.5,92.328 64.825,93 64,93 L49,93 C48.172,93 47.5,92.328 47.5,91.5 C47.5,90.672 48.172,90 49,90 L64,90 Z M64,96 C64.825,96 65.5,96.672 65.5,97.5 C65.5,98.328 64.825,99 64,99 L49,99 C48.172,99 47.5,98.328 47.5,97.5 C47.5,96.672 48.172,96 49,96 L64,96 Z M64,102 C64.825,102 65.5,102.672 65.5,103.5 C65.5,104.328 64.825,105 64,105 L58,105 L58,106.5 C58,107.328 57.325,108 56.5,108 C55.672,108 55,107.328 55,106.5 L55,105 L49,105 C48.172,105 47.5,104.328 47.5,103.5 C47.5,102.672 48.172,102 49,102 L64,102 Z"/>
    <path stroke="#FFC644" stroke-width="2" d="M56,24 L56,0"/>
  </g>
</svg>
