<?xml version="1.0" encoding="UTF-8" standalone="no"?>
<svg width="33px" height="38px" viewBox="0 0 33 38" version="1.1" xmlns="http://www.w3.org/2000/svg" xmlns:xlink="http://www.w3.org/1999/xlink" xmlns:sketch="http://www.bohemiancoding.com/sketch/ns">
    <!-- Generator: Sketch 3.4.2 (15857) - http://www.bohemiancoding.com/sketch -->
    <title>Shape Copy</title>
    <desc>Created with Sketch.</desc>
    <defs></defs>
    <g id="Design" stroke="none" stroke-width="1" fill="none" fill-rule="evenodd" sketch:type="MSPage">
        <g id="2b-Ungoogle" sketch:type="MSArtboardGroup" transform="translate(-263.000000, -938.000000)" fill="#FFFFFF">
            <g id="Section-1" sketch:type="MSLayerGroup" transform="translate(0.000000, 678.000000)">
                <g id="3" transform="translate(263.000000, 254.000000)" sketch:type="MSShapeGroup">
                    <path d="M8.47838742,33.4080479 C8.99855096,33.4080479 9.42066227,32.9880228 9.42066227,32.4692501 L9.42066227,31.5151534 C9.42066227,30.1924915 12.2405328,28.7140588 16.0145,28.7140588 C19.7884672,28.7140588 22.6090331,30.1924915 22.6090331,31.5151534 L22.6090331,32.4692501 C22.6090331,32.9880228 23.030449,33.4080479 23.5506126,33.4080479 C24.0707761,33.4080479 24.4928874,32.9880228 24.4928874,32.4692501 L24.4928874,31.5151534 C24.4928874,29.2835962 21.9372711,27.5158746 18.2724826,26.9964065 C19.7446567,25.8976654 20.7244834,23.7398212 20.7244834,21.2036763 C20.7244834,18.6153759 18.6118406,16.5096872 16.0145,16.5096872 C13.4178548,16.5096872 11.3045166,18.6153759 11.3045166,21.2036763 C11.3045166,23.7398212 12.2843433,25.8976654 13.7565174,26.9964065 C10.0924243,27.5158746 7.53611258,29.2835962 7.53611258,31.5151534 L7.53611258,32.4692501 C7.53611258,32.9880228 7.95822389,33.4080479 8.47838742,33.4080479 L8.47838742,33.4080479 Z M13.1883709,21.2036763 C13.1883709,19.6508351 14.4560956,18.3872828 16.0145,18.3872828 C17.5729044,18.3872828 18.8406291,19.6508351 18.8406291,21.2036763 C18.8406291,23.7481661 17.546479,25.8976654 16.0145,25.8976654 C14.4832164,25.8976654 13.1883709,23.7481661 13.1883709,21.2036763 L13.1883709,21.2036763 Z M29.2028709,6 L2.82612914,6 C1.26772476,6 -3.55271368e-15,7.26285692 -3.55271368e-15,8.81639346 L-3.55271368e-15,40.7341285 C-3.55271368e-15,42.2876651 1.26772476,43.550522 2.82612914,43.550522 L29.2028709,43.550522 C30.7612752,43.550522 32.029,42.2876651 32.029,40.7341285 L32.029,8.81639346 C32.029,7.26285692 30.7612752,6 29.2028709,6 L29.2028709,6 Z M30.1451457,40.7341285 C30.1451457,41.2522058 29.722339,41.6729264 29.2028709,41.6729264 L2.82612914,41.6729264 C2.30666101,41.6729264 1.88385429,41.2522058 1.88385429,40.7341285 L1.88385429,8.81639346 C1.88385429,8.29831614 2.30666101,7.87759564 2.82612914,7.87759564 L29.2028709,7.87759564 C29.722339,7.87759564 30.1451457,8.29831614 30.1451457,8.81639346 L30.1451457,40.7341285 L30.1451457,40.7341285 Z" id="Shape-Copy"></path>
                </g>
            </g>
        </g>
    </g>
</svg>