<?xml version="1.0" encoding="UTF-8" standalone="no"?>
<svg width="13px" height="12px" viewBox="0 0 13 12" version="1.1" xmlns="http://www.w3.org/2000/svg" xmlns:xlink="http://www.w3.org/1999/xlink" xmlns:sketch="http://www.bohemiancoding.com/sketch/ns">
    <!-- Generator: Sketch 3.4.2 (15857) - http://www.bohemiancoding.com/sketch -->
    <title>Image</title>
    <desc>Created with Sketch.</desc>
    <defs></defs>
    <g id="Design" stroke="none" stroke-width="1" fill="none" fill-rule="evenodd" sketch:type="MSPage">
        <g id="1a-Home" sketch:type="MSArtboardGroup" transform="translate(-784.000000, -1192.000000)" fill="#3D3D3D">
            <g id="Footer" sketch:type="MSLayerGroup" transform="translate(-3.000000, 1006.000000)">
                <g id="Follow-Us" transform="translate(782.000000, 47.000000)" sketch:type="MSShapeGroup">
                    <g id="RSS" transform="translate(5.000000, 136.000000)">
                        <path d="M12.48,14.66 C12.48,8.35 7,3.02 0.5,3 L0.5,5.34 C5.65,5.36 10.05,9.66 10.06,14.66 L12.48,14.66 L12.48,14.66 Z M8.37,14.66 C8.37,10.79 4.49,7.01 0.5,7.01 L0.5,9.35 C2.99,9.35 5.95,12.25 5.95,14.66 L8.37,14.66 L8.37,14.66 Z M2.89,13.52 C2.89,12.88 2.34,12.35 1.68,12.35 C1.04,12.35 0.5,12.89 0.5,13.52 C0.5,14.14 1.04,14.66 1.68,14.66 C2.33,14.66 2.89,14.14 2.89,13.52 L2.89,13.52 Z" id="Image"></path>
                    </g>
                </g>
            </g>
        </g>
    </g>
</svg>