<svg xmlns="http://www.w3.org/2000/svg" width="32" height="32" viewBox="0 0 32 32"><g fill="#3D3D3D"><path d="M2.551 20.895l16.965 8.98c-.307-.171-.515-.498-.515-.875 0-.552.448-1 1-1s1 .448 1 1c0 .162-.038.314-.106.449l8.981-16.965c-.171.307-.498.515-.875.515-.552 0-1-.448-1-1s.448-1 1-1c.162 0 .313.038.449.106l-16.965-8.981c.307.171.515.498.515.875 0 .552-.448 1-1 1s-1-.448-1-1c0-.162.038-.314.106-.449l-8.981 16.966c.171-.308.498-.516.875-.516.552 0 1 .448 1 1s-.448 1-1 1c-.162 0-.314-.038-.449-.105zm-.035-.02l-.867-.459.458-.865c-.068.135-.106.288-.106.449 0 .376.208.704.515.875zm17.035 9.02l.865.457.459-.867c-.171.307-.498.515-.875.515-.162 0-.314-.038-.449-.105zm9.933-18.769l.867.459-.457.865c.068-.135.106-.288.106-.449 0-.376-.208-.704-.516-.875zm-17.034-9.019l-.865-.458-.459.867c.171-.307.498-.515.875-.515.162 0 .314.038.449.106zm-.029 2.247l15.228 8.062-8.056 15.236-15.244-8.06 8.072-15.238z"/><path d="M12 0c-1.657 0-3 1.343-3 3s1.343 3 3 3 3-1.343 3-3-1.343-3-3-3zm0 4c-.552 0-1-.448-1-1s.448-1 1-1 1 .448 1 1-.448 1-1 1zM3 17c-1.657 0-3 1.343-3 3s1.343 3 3 3 3-1.343 3-3-1.343-3-3-3zm0 4c-.552 0-1-.448-1-1s.448-1 1-1 1 .448 1 1-.448 1-1 1zM20 26c-1.657 0-3 1.343-3 3s1.343 3 3 3 3-1.343 3-3-1.343-3-3-3zm0 4c-.552 0-1-.448-1-1s.448-1 1-1 1 .448 1 1-.448 1-1 1zM29 9c-1.657 0-3 1.343-3 3s1.343 3 3 3 3-1.343 3-3-1.343-3-3-3zm0 4c-.552 0-1-.448-1-1s.448-1 1-1 1 .448 1 1-.448 1-1 1z"/><path d="M2 11c0-.552.444-1 1-1 .552 0 1 .444 1 1v3c0 .552-.444 1-1 1-.552 0-1-.444-1-1v-3zm2-4v-2c0-.556.443-1 1-1h2c.552 0 1-.448 1-1s-.448-1-1-1h-2c-1.662 0-3 1.341-3 3v2c0 .552.448 1 1 1s1-.448 1-1zm17-5c.552 0 1 .444 1 1 0 .552-.443 1-1 1h-3c-.552 0-1-.444-1-1 0-.552.443-1 1-1h3zm4 2h2c.557 0 1 .443 1 1v2c0 .552.448 1 1 1s1-.448 1-1v-2c0-1.662-1.341-3-3-3h-2c-.552 0-1 .448-1 1s.448 1 1 1zm5 17c0 .552-.443 1-1 1-.552 0-1-.443-1-1v-3c0-.552.443-1 1-1 .552 0 1 .443 1 1v3zm-2 4v2c0 .557-.443 1-1 1h-2c-.552 0-1 .448-1 1s.448 1 1 1h2c1.662 0 3-1.341 3-3v-2c0-.552-.448-1-1-1s-1 .448-1 1zm-17 5c-.552 0-1-.443-1-1 0-.552.444-1 1-1h3c.552 0 1 .443 1 1 0 .552-.444 1-1 1h-3zm-4-2h-2c-.556 0-1-.443-1-1v-2c0-.552-.448-1-1-1s-1 .448-1 1v2c0 1.662 1.341 3 3 3h2c.552 0 1-.448 1-1s-.448-1-1-1z"/></g></svg>
