<?xml version="1.0" encoding="UTF-8" standalone="no"?>
<svg width="13px" height="16px" viewBox="0 0 13 16" version="1.1" xmlns="http://www.w3.org/2000/svg" xmlns:xlink="http://www.w3.org/1999/xlink" xmlns:sketch="http://www.bohemiancoding.com/sketch/ns">
    <!-- Generator: Sketch 3.4.2 (15857) - http://www.bohemiancoding.com/sketch -->
    <title>flag</title>
    <desc>Created with Sketch.</desc>
    <defs>
        <path id="path-1" d="M0,0 L14.002,0 L14.002,16 L0,16 L0,0 Z"></path>
    </defs>
    <g id="Design" stroke="none" stroke-width="1" fill="none" fill-rule="evenodd" sketch:type="MSPage">
        <g id="1a-about" sketch:type="MSArtboardGroup" transform="translate(-715.000000, -3270.000000)">
            <g id="4" sketch:type="MSLayerGroup" transform="translate(171.000000, 2547.000000)">
                <g id="timeline" transform="translate(0.000000, 218.000000)">
                    <g id="4" transform="translate(543.000000, 474.000000)">
                        <g id="flag" transform="translate(0.000000, 31.000000)">
                            <mask id="mask-2" sketch:name="Clip 2" fill="white">
                                <use xlink:href="#path-1"></use>
                            </mask>
                            <g id="Clip-2"></g>
                            <path d="M2.9975,9 L2.9975,3 L11.9865,3 C11.5525,3.583 10.9535,4.362 10.1845,5.406 C9.9225,5.762 9.9245,6.247 10.1895,6.6 L11.9865,9 L2.9975,9 Z M12.2325,5.996 C13.2745,4.585 14.3245,3.174 14.6395,2.771 C14.8625,2.588 15.0025,2.311 15.0025,2 C15.0025,1.448 14.5555,1 14.0035,1 L13.9985,1 L13.9675,1 L2.9975,1 C2.9975,0.448 2.5505,0 1.9985,0 C1.4475,0 1.0005,0.448 1.0005,1 L1.0005,15 C1.0005,15.552 1.4475,16 1.9985,16 C2.5505,16 2.9975,15.552 2.9975,15 L2.9975,11 L13.9845,11 C13.9915,11.001 13.9995,11.001 14.0035,11 C14.5555,11 15.0025,10.552 15.0025,10 C15.0025,9.71 14.8795,9.45 14.6835,9.267 L12.2325,5.996 Z" id="Fill-1" fill="#2E2B2C" sketch:type="MSShapeGroup" mask="url(#mask-2)"></path>
                        </g>
                    </g>
                </g>
            </g>
        </g>
    </g>
</svg>