<?xml version="1.0" encoding="UTF-8" standalone="no"?>
<svg width="14px" height="16px" viewBox="0 0 14 16" version="1.1" xmlns="http://www.w3.org/2000/svg" xmlns:xlink="http://www.w3.org/1999/xlink" xmlns:sketch="http://www.bohemiancoding.com/sketch/ns">
    <!-- Generator: Sketch 3.4.2 (15857) - http://www.bohemiancoding.com/sketch -->
    <title>docs</title>
    <desc>Created with Sketch.</desc>
    <defs>
        <path id="path-1" d="M0,0 L14,0 L14,16 L0,16"></path>
    </defs>
    <g id="Design" stroke="none" stroke-width="1" fill="none" fill-rule="evenodd" sketch:type="MSPage">
        <g id="1a-about" sketch:type="MSArtboardGroup" transform="translate(-713.000000, -3612.000000)">
            <g id="4" sketch:type="MSLayerGroup" transform="translate(171.000000, 2547.000000)">
                <g id="timeline" transform="translate(0.000000, 218.000000)">
                    <g id="6" transform="translate(527.000000, 804.000000)">
                        <g id="docs" transform="translate(15.000000, 43.000000)">
                            <g id="magazine">
                                <mask id="mask-2" sketch:name="Clip 2" fill="white">
                                    <use xlink:href="#path-1"></use>
                                </mask>
                                <g id="Clip-2"></g>
                                <path d="M13.0001,0 L11.0001,0 C10.4481,0 10.0001,0.447 10.0001,1 C10.0001,1.553 10.4481,2 11.0001,2 L12.0001,2 L12.0001,14 L2.0001,14 L2.0001,2 L3.0001,2 C3.5521,2 4.0001,1.553 4.0001,1 C4.0001,0.447 3.5521,0 3.0001,0 L1.0001,0 C0.4481,0 0.0001,0.447 0.0001,1 L0.0001,15 C0.0001,15.553 0.4481,16 1.0001,16 L13.0001,16 C13.5521,16 14.0001,15.553 14.0001,15 L14.0001,1 C14.0001,0.447 13.5521,0 13.0001,0" id="Fill-1" fill="#2E2B2C" sketch:type="MSShapeGroup" mask="url(#mask-2)"></path>
                            </g>
                            <path d="M6,2 L8,2 C8.552,2 9,1.553 9,1 C9,0.447 8.552,0 8,0 L6,0 C5.448,0 5,0.447 5,1 C5,1.553 5.448,2 6,2" id="Fill-4" fill="#2E2B2C" sketch:type="MSShapeGroup"></path>
                            <path d="M5,6 L9,6 C9.552,6 10,5.553 10,5 C10,4.447 9.552,4 9,4 L5,4 C4.448,4 4,4.447 4,5 C4,5.553 4.448,6 5,6" id="Fill-6" fill="#2E2B2C" sketch:type="MSShapeGroup"></path>
                            <path d="M9.0001,8 L5.0001,8 C4.4481,8 4.0001,8.447 4.0001,9 C4.0001,9.553 4.4481,10 5.0001,10 L9.0001,10 C9.5521,10 10.0001,9.553 10.0001,9 C10.0001,8.447 9.5521,8 9.0001,8" id="Fill-8" fill="#2E2B2C" sketch:type="MSShapeGroup"></path>
                        </g>
                    </g>
                </g>
            </g>
        </g>
    </g>
</svg>