<svg xmlns="http://www.w3.org/2000/svg" width="128" height="128" viewBox="0 0 128 128" xmlns:xlink="http://www.w3.org/1999/xlink">
  <defs>
    <circle id="a" cx="104" cy="104" r="24"/>
  </defs>
  <g fill="none" fill-rule="evenodd">
    <path fill="#FF9126" d="M64,72 C46.326888,72 32,55.882251 32,36 C32,16.117749 46.326888,0 64,0 C81.673112,0 96,16.117749 96,36 C96,55.882251 81.673112,72 64,72 Z M0,112 C-7.42456336e-08,104 16,80 32,80 C48,80 40,88 64,88 C88,88 80,80.0000001 96,80 C112,79.9999999 128,104 128,112 C128,120 128,128 120,128 L8,128 C0,128 7.4245635e-08,120 0,112 Z"/>
    <use fill="#33A6FF" xlink:href="#a"/>
    <circle cx="104" cy="104" r="25" stroke="#FFFFFF" stroke-width="2"/>
    <path fill="#FFFFFF" fill-rule="nonzero" d="M94,96.3902423 C94,109.479407 99.4005834,112.899669 104.243343,116 C109.086131,112.899669 114.487797,109.479407 114.487797,96.3902423 L104.243343,92 L94,96.3902423 Z"/>
  </g>
</svg>
