<?xml version="1.0" encoding="UTF-8" standalone="no"?>
<svg width="27px" height="30px" viewBox="0 0 27 30" version="1.1" xmlns="http://www.w3.org/2000/svg" xmlns:xlink="http://www.w3.org/1999/xlink" xmlns:sketch="http://www.bohemiancoding.com/sketch/ns">
    <!-- Generator: Sketch 3.4.2 (15857) - http://www.bohemiancoding.com/sketch -->
    <title>feedback@2x</title>
    <desc>Created with Sketch.</desc>
    <defs></defs>
    <g id="Design" stroke="none" stroke-width="1" fill="none" fill-rule="evenodd" sketch:type="MSPage">
        <g id="3a-community" sketch:type="MSArtboardGroup" transform="translate(-1002.000000, -1245.000000)" fill="#231F1F">
            <g id="content" sketch:type="MSLayerGroup" transform="translate(140.000000, 826.000000)">
                <g id="2" transform="translate(45.000000, 392.000000)" sketch:type="MSShapeGroup">
                    <path d="M838.459071,44.7219512 C838.054139,44.7219512 837.726824,45.049998 837.726824,45.4541986 L837.726824,54.2411673 C837.726824,54.6446356 837.398777,54.9734147 836.994577,54.9734147 L819.420639,54.9734147 C819.016439,54.9734147 818.688392,54.6446356 818.688392,54.2411673 L818.688392,29.344756 C818.688392,28.9412877 819.016439,28.6125086 819.420639,28.6125086 L834.797834,28.6125086 C835.202767,28.6125086 835.530082,28.2844618 835.530082,27.8802612 C835.530082,27.4760607 835.202767,27.1480138 834.797834,27.1480138 L819.420639,27.1480138 C818.209502,27.1480138 817.223897,28.1336188 817.223897,29.344756 L817.223897,54.2411673 C817.223897,55.4523045 818.209502,56.4379095 819.420639,56.4379095 L836.994577,56.4379095 C838.205714,56.4379095 839.191319,55.4523045 839.191319,54.2411673 L839.191319,45.4541986 C839.191319,45.049998 838.864004,44.7219512 838.459071,44.7219512 M841.913815,35.8947089 L837.767098,31.7479919 C837.490308,31.4712024 837.001899,31.4763282 836.718519,31.7589756 L825.605933,42.8715621 L824.052836,49.6089703 L830.790244,48.0551413 L841.902831,36.9425549 C842.194998,36.6511205 842.199391,36.1802854 841.913815,35.8947089 M842.938229,37.978685 L831.676996,49.2391854 C831.579607,49.3365743 831.457322,49.4046733 831.324053,49.4354277 L823.240774,51.2989973 C823.186588,51.3114455 823.130937,51.3173035 823.076018,51.3173035 C822.884169,51.3173035 822.697446,51.241882 822.558319,51.102755 C822.379651,50.9248189 822.305694,50.6670678 822.362809,50.4210327 L824.226379,42.3377537 C824.256401,42.2044847 824.3245,42.0814671 824.421889,41.9848105 L835.683121,30.7228456 C836.52008,29.8873513 837.972859,29.8814933 838.802495,30.7125941 L842.949212,34.8593111 C843.806674,35.7167728 843.801548,37.1160976 842.938229,37.978685 M839.415386,35.2840146 L829.814159,44.8845101 C829.528582,45.1708189 829.528582,45.6343315 829.814159,45.9199079 C829.957679,46.0634284 830.145134,46.1344564 830.331858,46.1344564 C830.519313,46.1344564 830.706768,46.0634284 830.849556,45.9199079 L840.450784,36.3194124 C840.736361,36.0331037 840.736361,35.5695911 840.450784,35.2840146 C840.164476,34.9977059 839.700963,34.9977059 839.415386,35.2840146 M838.377792,34.24642 L828.776564,43.8469156 C828.633776,43.9897038 828.446321,44.0614641 828.258865,44.0614641 C828.07141,44.0614641 827.884687,43.9897038 827.741166,43.8469156 C827.45559,43.5606068 827.45559,43.0970942 827.741166,42.8115178 L837.342394,33.2110222 C837.627971,32.9247135 838.091483,32.9247135 838.377792,33.2110222 C838.663368,33.4965987 838.663368,33.9601113 838.377792,34.24642" id="feedback"></path>
                </g>
            </g>
        </g>
    </g>
</svg>