<svg xmlns="http://www.w3.org/2000/svg" xmlns:xlink="http://www.w3.org/1999/xlink" width="95" height="130" viewBox="0 0 95 130">
    <defs>
        <path id="a" d="M0 .197h72.17V99.28H0z"/>
    </defs>
    <g fill="none" fill-rule="evenodd">
        <path fill="#F52D2D" d="M38.688 31.378S22.821 18.098 34.905 5.02C46.99-8.059 56.514 7.877 52.52 13.766c0 0 11.367-9.516 15.975 1.923 0 0 3.79-1.566 7.6-.158 3.36 1.242 3.412 5.98.153 7.472-1.78.815-3.365 2.053-3.656 3.91-.717 4.574 9.888 9.492 0 17.134L38.688 31.378z"/>
        <g transform="translate(-.01 29.83)">
            <mask id="b" fill="#fff">
                <use xlink:href="#a"/>
            </mask>
            <path fill="#288AFC" d="M2.804 92.086c.727-5.958.605-15.497-1.913-30.708C-1.12 49.223.243 36.65 5.285 25.435 12.099 10.28 26.244-4.76 55.533 1.761c0 0 6.806-.175 16.638 10.204 0 0-16.228 25.76-9.674 41.615 3.456 8.362 6.457 18.19 7.86 27.258.917 5.924-6.19 9.422-10.278 5.088-3.643-3.863-8.064-6.057-12.739-2.788-8.167 5.708-9.364 8.67-12.11 4.566-2.37-3.542-7.458-3.44-9.644.222-2.322 3.892-5.83 7.815-11.017 9.743-1.277.474-2.457.895-3.547 1.268-4.407 1.508-8.789-2.173-8.218-6.851" mask="url(#b)"/>
        </g>
        <path fill="#F52D2D" d="M69.328 37.751c-7.445-5.416-23.89-14.306-31.78 5.553-1 2.513.986 5.3 3.641 4.982 3.441-.411 7.125.77 6.96 7.8-.307 13.08 5.223 27.325 19.97 27.325 14.746 0 8.5-17.982 5.018-21.719-2.363-2.535-1.52-11.237-.732-16.568.419-2.846-.77-5.695-3.077-7.373"/>
        <path fill="#FF9300" d="M73.136 42.802s15.854-.619 20.97 12.232c.556 1.398-.655 2.854-2.091 2.46-4.527-1.246-12.988-2.355-18.879 4.198 0 0-5.734-7.889 0-18.89"/>
        <path fill="#FEFEFE" d="M64.136 47.057c0 3.783-3.026 6.85-6.758 6.85-3.733 0-6.76-3.067-6.76-6.85 0-3.784 3.027-6.85 6.76-6.85 3.732 0 6.758 3.066 6.758 6.85"/>
        <path fill="#22385E" d="M59.363 47.057c0 1.11-.89 2.012-1.985 2.012-1.097 0-1.985-.901-1.985-2.012s.888-2.012 1.985-2.012c1.096 0 1.985.9 1.985 2.012"/>
    </g>
</svg>
