<svg xmlns="http://www.w3.org/2000/svg" width="32" height="32" viewBox="0 0 32 32"><g fill="#fff"><path d="M29.999 2h-27.997c-1.113 0-2.002.891-2.002 1.991h.001v24.018c0 1.091.898 1.991 2.007 1.991h2.007v1c0 .557.448 1 1 1h.024c.551 0 1-.448 1-1v-1h19.961v1c0 .557.448 1 1 1h.048c.546 0 1-.448 1-1v-1h1.953c1.103 0 2-.891 2-1.991v-24.018c0-1.091-.896-1.991-2.002-1.991zm.001 26h-28v-24h28v24zM6 22.044v.951c0 1.101.891 2.004 1.991 2.004h18.018c1.101 0 1.991-.894 1.991-1.995v-14.01c0-1.102-.891-1.995-1.991-1.995h-18.018c-1.101 0-1.991.897-1.991 2.003v1c-.547 0-1 .443-1 .99v2.025c0 .546.448.99 1 .99v4.004c-.547 0-1 .446-1 .997v2.039c0 .551.448.997 1 .997zm2-13.044h18v14h-18v-14zM22 19h2v2h-2zM22 15h2v2h-2zM18 19h2v2h-2zM14 19h2v2h-2zM14 11h10v2h-10zM18 15h2v2h-2zM14 15h2v2h-2z"/></g></svg>
