<?xml version="1.0" encoding="UTF-8" standalone="no"?>
<svg width="22px" height="43px" viewBox="0 0 22 43" version="1.1" xmlns="http://www.w3.org/2000/svg" xmlns:xlink="http://www.w3.org/1999/xlink" xmlns:sketch="http://www.bohemiancoding.com/sketch/ns">
    <!-- Generator: Sketch 3.4.4 (17248) - http://www.bohemiancoding.com/sketch -->
    <title>Page 1</title>
    <desc>Created with Sketch.</desc>
    <defs></defs>
    <g id="Design" stroke="none" stroke-width="1" fill="none" fill-rule="evenodd" sketch:type="MSPage">
        <g id="3a-Sync-files-and-photos" sketch:type="MSArtboardGroup" transform="translate(-754.000000, -936.000000)" fill="#FFFFFF">
            <g id="Section-1" sketch:type="MSLayerGroup" transform="translate(0.000000, 711.000000)">
                <g id="4" transform="translate(754.000000, 221.000000)" sketch:type="MSShapeGroup">
                    <path d="M20,44 L20,40 L3,40 L3,44 C3,44.551 3.448,45 4,45 L19,45 C19.552,45 20,44.551 20,44 L20,44 Z M3,8 L3,12 L20,12 L20,8 C20,7.449 19.552,7 19,7 L4,7 C3.448,7 3,7.449 3,8 L3,8 Z M3,38 L20,38 L20,14 L3,14 L3,38 Z M22,8 L22,44 C22,45.654 20.654,47 19,47 L4,47 C2.346,47 1,45.654 1,44 L1,20 C0.447,20 0,19.552 0,19 L0,17 C0,16.448 0.447,16 1,16 L1,15 C0.447,15 0,14.552 0,14 L0,12 C0,11.448 0.447,11 1,11 L1,8 C1,6.346 2.346,5 4,5 L15,5 C15,4.448 15.447,4 16,4 L19,4 C19.553,4 20,4.448 20,5 C20,5.062 19.976,5.115 19.965,5.173 C21.144,5.578 22,6.685 22,8 L22,8 Z M13,42.5 C13,43.328 12.328,44 11.5,44 C10.671,44 10,43.328 10,42.5 C10,41.672 10.671,41 11.5,41 C12.328,41 13,41.672 13,42.5 L13,42.5 Z" id="Page-1"></path>
                </g>
            </g>
        </g>
    </g>
</svg>