<svg xmlns="http://www.w3.org/2000/svg" width="32" height="32" viewBox="0 0 32 32"><g fill="#3D3D3D"><path d="M8.993 0l.023.004.023-.004h-.046zM28.001 2h-4.002v-1c0-.556-.448-1-1-1-.556 0-1 .448-1 1v1h-12v-1c0-.548-.438-.982-.983-.996-.539.014-.983.452-.983.996v1h-4.024c-1.119 0-2.009.891-2.009 1.991h-.001v24.018c0 1.091.891 1.991 1.991 1.991h24.018c1.092 0 1.991-.891 1.991-1.991v-24.018c0-1.091-.895-1.991-1.998-1.991zm-.001 26h-24v-18h24v18zm0-20h-24v-4h4v1c0 .552.444 1 1 1 .552 0 1-.444 1-1v-1h12v1c0 .552.443 1 1 1 .552 0 1-.444 1-1v-1h4v4z"/></g><path fill="#3D3D3D" d="M25.008 21h-2.008v-4h2.008c.536 0 .992-.448.992-1 0-.556-.443-1-.992-1h-2.008v-1.993c0-.557-.448-1.007-1-1.007-.557 0-1 .451-1 1.007v1.993h-4v-1.993c0-.557-.448-1.007-1-1.007-.556 0-1 .451-1 1.007v1.993h-4v-1.993c0-.557-.448-1.007-1-1.007-.556 0-1 .451-1 1.007v1.993h-2.008c-.536 0-.992.448-.992 1 0 .557.444 1 .992 1h2.008v4h-2.008c-.536 0-.992.448-.992 1 0 .557.444 1 .992 1h2.008v1.993c0 .557.448 1.007 1 1.007.556 0 1-.451 1-1.007v-1.993h4v1.993c0 .557.448 1.007 1 1.007.557 0 1-.451 1-1.007v-1.993h4v1.993c0 .557.448 1.007 1 1.007.557 0 1-.451 1-1.007v-1.993h2.008c.536 0 .992-.448.992-1 0-.557-.443-1-.992-1zm-10.008 0h-4v-4h4v4zm6 0h-4v-4h4v4z"/></svg>