<?xml version="1.0" encoding="UTF-8" standalone="no"?>
<svg width="46px" height="26px" viewBox="0 0 46 26" version="1.1" xmlns="http://www.w3.org/2000/svg" xmlns:xlink="http://www.w3.org/1999/xlink" xmlns:sketch="http://www.bohemiancoding.com/sketch/ns">
    <!-- Generator: Sketch 3.4.2 (15857) - http://www.bohemiancoding.com/sketch -->
    <title>Page 1</title>
    <desc>Created with Sketch.</desc>
    <defs>
        <path id="path-1" d="M0,0.0853666667 L45.979403,0.0853666667 L45.979403,26 L0,26"></path>
    </defs>
    <g id="Design" stroke="none" stroke-width="1" fill="none" fill-rule="evenodd" sketch:type="MSPage">
        <g id="3a-community" sketch:type="MSArtboardGroup" transform="translate(-389.000000, -2410.000000)">
            <g id="content" sketch:type="MSLayerGroup" transform="translate(140.000000, 826.000000)">
                <g id="5" transform="translate(117.000000, 1545.000000)">
                    <g id="Page-1" transform="translate(132.000000, 39.000000)">
                        <mask id="mask-2" sketch:name="Clip 2" fill="white">
                            <use xlink:href="#path-1"></use>
                        </mask>
                        <g id="Clip-2"></g>
                        <path d="M10.4875537,2.52869933 C12.0543858,2.52869933 13.3289978,3.81639267 13.3289978,5.399186 C13.3289978,6.979986 12.0543858,8.26611933 10.4875537,8.26611933 C8.92072164,8.26611933 7.64559478,6.980506 7.64559478,5.399186 C7.64559478,3.81639267 8.92072164,2.52869933 10.4875537,2.52869933 M10.4875537,10.709946 C13.3888149,10.709946 15.7490612,8.32799933 15.7490612,5.399706 C15.7490612,2.46933267 13.3888149,0.0853926667 10.4875537,0.0853926667 C7.58577761,0.0853926667 5.22501642,2.46933267 5.22501642,5.399706 C5.22553134,8.32747933 7.58629254,10.709946 10.4875537,10.709946 M35.4923299,2.52869933 C37.058647,2.52869933 38.3337739,3.81639267 38.3337739,5.399186 C38.3337739,6.979986 37.0591619,8.26611933 35.4923299,8.26611933 C33.9254978,8.26611933 32.6502851,6.980506 32.6502851,5.399186 C32.6497701,3.81639267 33.9249828,2.52869933 35.4923299,2.52869933 M35.4923299,10.709946 C38.393591,10.709946 40.7538373,8.32799933 40.7538373,5.399706 C40.7538373,2.46933267 38.393591,0.0853926667 35.4923299,0.0853926667 C32.5910687,0.0853926667 30.2297925,2.46933267 30.2297925,5.399706 C30.2297925,8.32747933 32.5910687,10.709946 35.4923299,10.709946 M45.975953,19.501066 C46.0260724,20.1743793 45.5264231,20.7604193 44.8596806,20.810946 C44.8290425,20.813546 44.7984045,20.814586 44.7672515,20.814586 C44.1404157,20.814586 43.6096134,20.326046 43.5625836,19.6847127 C43.3613336,16.9854793 42.2629119,13.8874927 35.4918149,13.8874927 C32.3907627,13.8874927 30.2308224,14.5266593 28.9393037,15.828306 C33.052356,17.1634927 35.3104754,20.1196927 35.6501545,24.681826 C35.7002739,25.3551393 35.2006246,25.9416993 34.5338821,25.992226 C33.8713448,26.0449193 33.2868187,25.538786 33.2367851,24.8650393 C32.9793224,21.410506 31.5820724,17.4451593 22.9891694,17.4451593 C14.3900873,17.4451593 12.9969567,21.4119793 12.7430985,24.8685927 C12.6955537,25.5108793 12.1647515,26.000026 11.5379157,26.000026 C11.5072776,26.000026 11.4775836,25.998986 11.4469455,25.996386 C10.7808037,25.9468993 10.2806396,25.3612927 10.3297291,24.688066 C10.6643448,20.120646 12.9213485,17.1629727 17.0374903,15.827266 C15.7459716,14.5271793 13.5870612,13.8880127 10.4865239,13.8869727 C3.71182239,13.8869727 2.61546045,16.9859993 2.41678507,19.6852327 C2.3692403,20.328126 1.83843806,20.817186 1.21160224,20.817186 C1.18096418,20.817186 1.15135597,20.816146 1.12063209,20.813546 C0.454490299,20.7635393 -0.046188806,20.1779327 0.00341567164,19.504706 C0.396732836,14.155206 3.92328507,11.4425393 10.4870388,11.4425393 C15.0343448,11.4446193 18.0449418,12.6889793 19.6633522,15.2319527 C20.692259,15.0843593 21.7931694,15.0008127 22.9891694,15.0008127 C24.1851694,15.0008127 25.2860799,15.0843593 26.3149866,15.2319527 C27.9328821,12.687506 30.943994,11.4425393 35.4918149,11.4425393 C42.0509343,11.4425393 45.5780015,14.153646 45.975953,19.501066 M22.9896843,4.16617933 C25.0807104,4.16617933 26.7814231,5.88365267 26.7814231,7.995286 C26.7814231,10.1053593 25.0807104,11.8223127 22.9896843,11.8223127 C20.8981433,11.8223127 19.1964007,10.1053593 19.1964007,7.995286 C19.1964007,5.88365267 20.8981433,4.16617933 22.9896843,4.16617933 M22.9896843,14.2656193 C26.4146246,14.2656193 29.2014007,11.4524193 29.2014007,7.995286 C29.2014007,4.53607267 26.4146246,1.72235267 22.9896843,1.72235267 C19.5637142,1.72235267 16.7769381,4.53607267 16.7769381,7.995286 C16.7769381,11.4524193 19.5637142,14.2656193 22.9896843,14.2656193" id="Fill-1" fill="#000000" sketch:type="MSShapeGroup" mask="url(#mask-2)"></path>
                    </g>
                </g>
            </g>
        </g>
    </g>
</svg>