<?xml version="1.0" encoding="UTF-8" standalone="no"?>
<svg width="37px" height="34px" viewBox="0 0 37 34" version="1.1" xmlns="http://www.w3.org/2000/svg" xmlns:xlink="http://www.w3.org/1999/xlink" xmlns:sketch="http://www.bohemiancoding.com/sketch/ns">
    <!-- Generator: Sketch 3.4.2 (15857) - http://www.bohemiancoding.com/sketch -->
    <title>tools@2x</title>
    <desc>Created with Sketch.</desc>
    <defs>
        <path id="path-1" d="M0,0.00523076923 L36.1584651,0.00523076923 L36.1584651,34 L0,34 L0,0.00523076923 Z"></path>
    </defs>
    <g id="Design" stroke="none" stroke-width="1" fill="none" fill-rule="evenodd" sketch:type="MSPage">
        <g id="5a-connect-my-data" sketch:type="MSArtboardGroup" transform="translate(-787.000000, -956.000000)">
            <g id="Section-1" sketch:type="MSLayerGroup" transform="translate(0.000000, 711.000000)">
                <g id="4" transform="translate(787.000000, 241.000000)">
                    <g id="tools" transform="translate(0.000000, 4.000000)">
                        <mask id="mask-2" sketch:name="Clip 2" fill="white">
                            <use xlink:href="#path-1"></use>
                        </mask>
                        <g id="Clip-2"></g>
                        <path d="M25.6643186,14.8971436 L23.213714,17.3800154 L20.721807,14.8587846 L23.1741326,12.3732974 C23.2799698,12.2669385 23.3556907,12.1344256 23.3952721,11.9888359 L24.8227837,6.73627179 L31.4062023,3.66057949 L34.2646674,6.55755385 L31.229807,13.2267846 L26.0437837,14.6730923 C25.900086,14.7131949 25.7692953,14.7899128 25.6643186,14.8971436 L25.6643186,14.8971436 Z M31.0362023,27.7596051 C32.0119698,28.7464769 32.1332953,30.3078615 31.3106907,31.313041 C30.3848302,32.4472462 28.5580628,32.5344256 27.5392721,31.5013487 L14.3001558,18.1070923 C13.8174349,17.619759 13.1763884,17.3503744 12.4949,17.3503744 C12.0362721,17.3503744 11.5836674,17.4759128 11.186993,17.7121692 C10.5364814,18.1001179 9.7913186,18.3049897 9.03152791,18.3049897 C7.89571395,18.3049897 6.82701628,17.857759 6.02420233,17.0443744 L5.45543488,16.4689897 L2.09273721,12.2216051 C1.55322558,11.5381179 1.60657442,10.5582205 2.21664419,9.94098974 L3.0031093,9.14678462 L6.2591093,12.4395538 C6.42517907,12.6078103 6.61878372,12.6949897 6.88896977,12.6941179 C9.93157442,12.6165282 12.469086,10.0490923 12.5439465,6.97078462 C12.5499698,6.73278462 12.4579,6.50088718 12.2909698,6.33263077 L9.03927209,3.04334872 L9.82315581,2.25001538 C10.4160163,1.64934872 11.4219,1.59181026 12.0810163,2.12534872 L16.2826674,5.52447692 L16.8514349,6.09986154 C18.2221558,7.48601538 18.4932023,9.63150256 17.5114116,11.3166821 C16.9151093,12.3375538 17.0760163,13.6347846 17.9012023,14.4690923 L31.0362023,27.7596051 Z M11.854714,31.2319641 C10.5640163,32.5361692 8.31476047,32.5361692 7.02578372,31.2319641 C6.38129535,30.5807333 6.02678372,29.7141692 6.02678372,28.7926821 C6.02592326,27.8711949 6.38129535,27.0046308 7.02492326,26.3525282 L13.519714,19.7826821 L18.3469233,24.6664769 L11.854714,31.2319641 Z M32.0722023,14.8003744 C32.3165744,14.7323744 32.5196442,14.5580154 32.6254814,14.3252462 L36.0793884,6.7354 C36.2299698,6.40324615 36.1602721,6.01181026 35.9055744,5.75375897 L32.1986907,1.99806667 C31.943993,1.74088718 31.5585047,1.67027179 31.229807,1.8228359 L23.7394581,5.32222051 C23.5088535,5.42945128 23.3376209,5.63432308 23.2705047,5.88191282 L21.7973884,11.3036051 L19.5042488,13.6269385 L19.1170395,13.2346308 C18.847714,12.9626308 18.797807,12.5389385 18.9931326,12.2032974 C20.3750395,9.83114359 19.9938535,6.81473333 18.0672721,4.8654 L17.4649465,4.25601538 C17.441714,4.23422051 17.4184814,4.21155385 17.3935279,4.19237436 L13.1548767,0.762733333 C12.5516907,0.274528205 11.7936209,0.00514358974 11.0209233,0.00514358974 C10.1088302,0.00514358974 9.25094651,0.364323077 8.6073186,1.01642564 L7.21336512,2.42611795 C7.05073721,2.59001538 6.96038837,2.81232308 6.96038837,3.04334872 C6.96038837,3.27524615 7.05073721,3.49755385 7.21336512,3.66057949 L10.7989233,7.28724615 C10.583807,9.17032308 9.06164419,10.7081692 7.19873721,10.9252462 L3.61059767,7.29770769 C3.27415581,6.95945128 2.73206279,6.95945128 2.39562093,7.29770769 L1.00080698,8.7074 C-0.23137907,9.95493846 -0.338937209,11.9347846 0.750411628,13.3122205 L4.14150465,17.5979641 C4.16215581,17.6223744 4.18280698,17.6459128 4.20517907,17.6694513 L4.80750465,18.2788359 C5.93557442,19.4191436 7.43536512,20.0485795 9.03152791,20.0485795 C9.79820233,20.0485795 10.5528302,19.8942718 11.2566907,19.6083231 L5.80908605,25.1189385 C4.83934186,26.1005795 4.30499302,27.4056564 4.30585349,28.7926821 C4.30585349,30.1805795 4.83934186,31.4847846 5.80994651,32.4664256 C6.7796907,33.4471949 8.06866744,33.9868359 9.44024884,33.9868359 C10.8109698,33.9868359 12.0999465,33.4471949 13.0696907,32.4664256 L19.5644814,25.8974513 L26.3234349,32.7358103 C27.1288302,33.5509385 28.2009698,33.9999128 29.3402256,33.9999128 C30.6180163,33.9999128 31.8192256,33.4262718 32.6375279,32.4245795 C34.0194349,30.7324256 33.8499233,28.1405795 32.2520395,26.5251436 L24.4312721,18.6118615 L26.7209698,16.2928872 L32.0722023,14.8003744 Z" id="Fill-1" fill="#FFFFFF" sketch:type="MSShapeGroup" mask="url(#mask-2)"></path>
                    </g>
                </g>
            </g>
        </g>
    </g>
</svg>