<svg xmlns="http://www.w3.org/2000/svg" width="32" height="32" viewBox="0 0 32 32"><g fill="#fff"><path d="M22.001 0h-12.002c-2.207 0-3.999 1.793-3.999 4.004v23.991c0 2.215 1.79 4.004 3.999 4.004h12.002c2.207 0 3.999-1.793 3.999-4.004v-23.991c0-2.215-1.79-4.004-3.999-4.004zm1.999 28c0 1.105-.895 2-1.994 2h-12.012c-1.101 0-1.994-.889-1.994-2v-2h16v2zm0-4h-16v-16h16v16zm0-18h-16v-2c0-1.105.895-2 1.994-2h12.012c1.101 0 1.994.888 1.994 2v2zM19 3h-6c-.552 0-1 .448-1 1s.448 1 1 1h6c.553 0 1-.448 1-1s-.447-1-1-1z"/><circle cx="16" cy="28" r="2"/></g></svg>
