<svg width="34" height="33" viewBox="0 0 34 33" xmlns="http://www.w3.org/2000/svg"><title>icon-medal</title><g stroke="#3D3D3D" stroke-width="2" fill="none" fill-rule="evenodd" stroke-linecap="round" stroke-linejoin="round"><path d="M6.613 19l-4.946 8.552 5.133-.87 1.78 4.894 4.38-7.076M27.5 19l4.62 8.433-5.136-.868-1.78 4.892-4.37-6.957"/><path d="M29 13c0 6.628-5.373 12-12 12-6.628 0-12-5.372-12-12C5 6.375 10.372 1 17 1c6.627 0 12 5.375 12 12z"/><path d="M17 7l2 4h4l-3.333 2.667L21 18.333l-4-2.5-4 2.5 1.333-4.666L11 11h4z"/></g></svg>