<svg xmlns="http://www.w3.org/2000/svg" width="32" height="32" viewBox="0 0 32 32"><g fill="#FFF"><path d="M27.003 0h-22.006c-1.102 0-1.997.896-1.997 2.002v27.995c0 1.112.897 2.002 2.004 2.002h22.001c.54 0 .995-.448.995-1 0-.556-.449-1-1.003-1h-21.495c-.274 0-.502-.224-.502-.5 0-.269.224-.5.501-.5h21.494c1.108 0 2.005-.892 2.005-1.993v-25.013c0-1.093-.895-1.993-1.997-1.993zm-.003 26.307c0 .382-.329.693-.734.693h-20.533c-.404 0-.734-.311-.734-.693v-23.612c0-.383.329-.694.734-.694h20.533c.404 0 .734.311.734.694v23.612zM22.999 10h-13.998c-.556 0-1.001.448-1.001 1 0 .556.448 1 1.001 1h13.998c.556 0 1.001-.448 1.001-1 0-.556-.448-1-1.001-1zM20.997 18h-9.995c-.546 0-1.002.448-1.002 1 0 .557.448 1 1.002 1h9.995c.546 0 1.002-.448 1.002-1 0-.557-.448-1-1.002-1zM19.003 16c.544 0 .997-.448.997-1 0-.556-.445-1-.997-1h-6.006c-.544 0-.997.448-.997 1 0 .556.446 1 .997 1h6.006z"/></g></svg>
