<?xml version="1.0" encoding="UTF-8"?>
<svg width="121px" height="121px" viewBox="0 0 121 121" version="1.1" xmlns="http://www.w3.org/2000/svg" xmlns:xlink="http://www.w3.org/1999/xlink">
    <!-- Generator: Sketch 46.2 (44496) - http://www.bohemiancoding.com/sketch -->
    <title>icon-color-question-mark</title>
    <desc>Created with Sketch.</desc>
    <defs></defs>
    <g id="Page-1" stroke="none" stroke-width="1" fill="none" fill-rule="evenodd">
        <g id="icon-color-question-mark" fill-rule="nonzero">
            <path d="M60.5,0 C27.1392917,0 0,27.1392917 0,60.5 C0,93.8607085 27.1392917,121 60.5,121 C93.8556665,121 121,93.8607085 121,60.5 C121,27.1392917 93.8556665,0 60.5,0" id="Shape" fill="#FCBABA"></path>
            <path d="M63.0208335,65.3652085 L63.0208335,78.1458335 C63.0208335,79.542375 61.8864585,80.6666665 60.5,80.6666665 C59.1085,80.6666665 57.9791665,79.542375 57.9791665,78.1458335 L57.9791665,63.0208335 C57.9791665,61.6293335 59.1085,60.5 60.5,60.5 C67.4474165,60.5 73.1041665,54.8482915 73.1041665,47.8958335 C73.1041665,40.943375 67.4474165,35.2916667 60.5,35.2916667 C53.5475415,35.2916667 47.8958335,40.943375 47.8958335,47.8958335 C47.8958335,49.292375 46.7614585,50.4166665 45.375,50.4166665 C43.9835,50.4166665 42.8541665,49.292375 42.8541665,47.8958335 C42.8541665,38.1654165 50.7645415,30.25 60.5,30.25 C70.2304165,30.25 78.1458335,38.1654165 78.1458335,47.8958335 C78.1458335,56.7691665 71.556375,64.1350415 63.0208335,65.3652085 Z M60.5,95.7916665 C57.7119585,95.7916665 55.4583335,93.5380415 55.4583335,90.75 C55.4583335,87.967 57.7119585,85.7083335 60.5,85.7083335 C63.2779585,85.7083335 65.5416665,87.967 65.5416665,90.75 C65.5416665,93.5380415 63.2779585,95.7916665 60.5,95.7916665 Z" id="Shape" fill="#F52D2D"></path>
        </g>
    </g>
</svg>