<svg width="36" height="36" viewBox="0 0 36 36" xmlns="http://www.w3.org/2000/svg"><title>icon-survey</title><g fill="#FFF" fill-rule="evenodd"><path d="M16 2h-2.998C12.456 2 12 2.444 12 2.99V4H6.998C5.338 4 4 5.337 4 6.992v26.016C4 34.658 5.344 36 6.997 36h22.006C30.657 36 32 34.66 32 33.008V6.992C32 5.342 30.655 4 29.002 4H24V2.99c0-.54-.45-.99-1.002-.99H20c0-1.105-.895-2-2-2s-2 .895-2 2zm8 4h4.997C29.55 6 30 6.44 30 6.997v26.006c0 .55-.447.997-1 .997H7c-.552 0-1-.44-1-.997V6.997C6 6.447 6.438 6 7.003 6H12v1.01c0 .54.45.99 1.002.99h9.996C23.544 8 24 7.556 24 7.01V6zM14 4h8v2h-8V4z"/><path d="M10.293 21.707l4 4c.39.39 1.024.39 1.414 0l11-11c.39-.39.39-1.024 0-1.414-.39-.39-1.024-.39-1.414 0l-11 11h1.414l-4-4c-.39-.39-1.024-.39-1.414 0-.39.39-.39 1.024 0 1.414z"/></g></svg>