<?xml version="1.0" encoding="UTF-8" standalone="no"?>
<svg width="16px" height="15px" viewBox="0 0 16 15" version="1.1" xmlns="http://www.w3.org/2000/svg" xmlns:xlink="http://www.w3.org/1999/xlink" xmlns:sketch="http://www.bohemiancoding.com/sketch/ns">
    <!-- Generator: Sketch 3.4.2 (15857) - http://www.bohemiancoding.com/sketch -->
    <title>Image</title>
    <desc>Created with Sketch.</desc>
    <defs></defs>
    <g id="Design" stroke="none" stroke-width="1" fill="none" fill-rule="evenodd" sketch:type="MSPage">
        <g id="1a-Home" sketch:type="MSArtboardGroup" transform="translate(-781.000000, -1159.000000)" fill="#3D3D3D">
            <g id="Footer" sketch:type="MSLayerGroup" transform="translate(-3.000000, 1006.000000)">
                <g id="Follow-Us" transform="translate(782.000000, 47.000000)" sketch:type="MSShapeGroup">
                    <g id="Instagram" transform="translate(2.000000, 104.000000)">
                        <path d="M11.77,8.66 C12.11,8.98 12.14,9.31 12.14,9.64 C12.14,11.97 10.29,13.84 8.01,13.84 C5.73,13.84 3.87,11.97 3.87,9.64 C3.87,9.31 3.91,8.98 4,8.66 L0.5,8.66 L0.5,15.66 C0.5,16.39 1.07,17 1.75,17 L14.25,17 C14.93,17 15.5,16.39 15.5,15.66 L15.5,8.66 L11.77,8.66 L11.77,8.66 Z M10.43,9.71 C10.43,11.17 9.28,12.36 7.88,12.36 C6.48,12.36 5.34,11.17 5.34,9.71 C5.34,8.25 6.48,7.07 7.88,7.07 C9.28,7.07 10.43,8.25 10.43,9.71 L10.43,9.71 Z M14.48,5.08 C14.48,5.32 14.25,5.52 13.96,5.52 L11.97,5.52 C11.68,5.52 11.43,5.32 11.43,5.08 L11.43,3.45 C11.43,3.21 11.68,3.03 11.97,3.03 L13.96,3.03 C14.25,3.03 14.48,3.21 14.48,3.45 L14.48,5.08 L14.48,5.08 Z M14.16,2 L1.75,2 C1.07,2 0.5,2.61 0.5,3.29 L0.5,6.53 L5.34,6.53 C6.1,5.98 6.91,5.51 7.88,5.51 C8.83,5.51 9.68,5.98 10.43,6.53 L15.5,6.53 L15.5,3.29 C15.5,2.61 14.89,2 14.16,2 L14.16,2 Z" id="Image"></path>
                    </g>
                </g>
            </g>
        </g>
    </g>
</svg>