<svg xmlns="http://www.w3.org/2000/svg" width="32" height="32" viewBox="0 0 32 32"><g fill="#fff"><path d="M28.001 2h-4.002v-1c0-.556-.448-1-1-1-.556 0-1 .448-1 1v1h-12v-1c0-.548-.438-.982-.983-.996-.539.014-.983.452-.983.996v1h-4.024c-1.119 0-2.009.891-2.009 1.991h-.001v24.018c0 1.091.891 1.991 1.991 1.991h24.018c1.092 0 1.991-.891 1.991-1.991v-24.018c0-1.091-.895-1.991-1.998-1.991zm-.001 26h-24v-18h24v18zm0-20h-24v-4h4v1c0 .552.444 1 1 1 .552 0 1-.444 1-1v-1h12v1c0 .552.443 1 1 1 .552 0 1-.444 1-1v-1h4v4zM8.993 0l.023.004.023-.004h-.046zM21.657 24.657c1.482-1.48 2.343-3.498 2.343-5.657 0-4.418-3.582-8-8-8v2c3.314 0 6 2.686 6 6 0 1.62-.645 3.132-1.757 4.243l-1.531-1.531c-.389-.389-.712-.269-.712.279v4.018c0 .54.443.991.991.991h4.018c.54 0 .673-.318.279-.712l-1.631-1.631zm-9.9-9.9l1.531 1.531c.389.389.712.269.712-.279v-4.018c0-.54-.444-.991-.991-.991h-4.018c-.54 0-.672.319-.279.712l1.631 1.631c-1.481 1.48-2.343 3.498-2.343 5.657 0 4.418 3.582 8 8 8v-2c-3.314 0-6-2.686-6-6 0-1.62.645-3.132 1.757-4.243z"/></g></svg>