<?xml version="1.0" encoding="UTF-8" standalone="no"?>
<svg width="36px" height="36px" viewBox="0 0 36 36" version="1.1" xmlns="http://www.w3.org/2000/svg" xmlns:xlink="http://www.w3.org/1999/xlink" xmlns:sketch="http://www.bohemiancoding.com/sketch/ns">
    <!-- Generator: Sketch 3.4.2 (15857) - http://www.bohemiancoding.com/sketch -->
    <title>platform@2x</title>
    <desc>Created with Sketch.</desc>
    <defs></defs>
    <g id="Design" stroke="none" stroke-width="1" fill="none" fill-rule="evenodd" sketch:type="MSPage">
        <g id="4a-self-hosting" sketch:type="MSArtboardGroup" transform="translate(-291.000000, -842.000000)" fill="#3D3D3D">
            <g id="Section-1" sketch:type="MSLayerGroup" transform="translate(0.000000, 406.000000)">
                <path d="M325.363636,449.909091 C325.363636,449.006636 324.629727,448.272727 323.727273,448.272727 C322.824818,448.272727 322.090909,449.006636 322.090909,449.909091 C322.090909,450.811545 322.824818,451.545455 323.727273,451.545455 C324.629727,451.545455 325.363636,450.811545 325.363636,449.909091 L325.363636,449.909091 Z M321.492818,452.286727 C320.857091,451.689455 320.454545,450.848364 320.454545,449.909091 C320.454545,449.651364 320.491364,449.404273 320.547818,449.163727 L307.286727,441.507182 C306.689455,442.142909 305.847545,442.545455 304.909091,442.545455 C304.652182,442.545455 304.404273,442.508636 304.163727,442.452182 L296.508,455.713273 C297.142909,456.310545 297.545455,457.152455 297.545455,458.090909 C297.545455,458.348636 297.508636,458.595727 297.452182,458.836273 L310.713273,466.492818 C311.310545,465.857091 312.152455,465.454545 313.090909,465.454545 C313.348636,465.454545 313.595727,465.491364 313.836273,465.547818 L321.492818,452.286727 Z M314.727273,468.727273 C314.727273,467.824818 313.993364,467.090909 313.090909,467.090909 C312.188455,467.090909 311.454545,467.824818 311.454545,468.727273 C311.454545,469.629727 312.188455,470.363636 313.090909,470.363636 C313.993364,470.363636 314.727273,469.629727 314.727273,468.727273 L314.727273,468.727273 Z M295.909091,458.090909 C295.909091,457.188455 295.175182,456.454545 294.272727,456.454545 C293.370273,456.454545 292.636364,457.188455 292.636364,458.090909 C292.636364,458.993364 293.370273,459.727273 294.272727,459.727273 C295.175182,459.727273 295.909091,458.993364 295.909091,458.090909 L295.909091,458.090909 Z M303.272727,439.272727 C303.272727,440.175182 304.006636,440.909091 304.909091,440.909091 C305.811545,440.909091 306.545455,440.175182 306.545455,439.272727 C306.545455,438.370273 305.811545,437.636364 304.909091,437.636364 C304.006636,437.636364 303.272727,438.370273 303.272727,439.272727 L303.272727,439.272727 Z M327,449.909091 C327,451.714 325.532182,453.181818 323.727273,453.181818 C323.450727,453.181818 323.186455,453.136818 322.929545,453.072182 L315.283636,466.314455 C315.942273,466.913364 316.363636,467.768364 316.363636,468.727273 C316.363636,470.532182 314.895818,472 313.090909,472 C311.286,472 309.818182,470.532182 309.818182,468.727273 C309.818182,468.450727 309.863182,468.185636 309.927818,467.928727 L296.685545,460.283636 C296.085818,460.942273 295.230818,461.363636 294.272727,461.363636 C292.467818,461.363636 291,459.895818 291,458.090909 C291,456.286 292.467818,454.818182 294.272727,454.818182 C294.549273,454.818182 294.814364,454.863182 295.071273,454.928636 L302.716364,441.685545 C302.057727,441.086636 301.636364,440.231636 301.636364,439.272727 C301.636364,437.467818 303.104182,436 304.909091,436 C306.714,436 308.181818,437.467818 308.181818,439.272727 C308.181818,439.549273 308.136818,439.813545 308.072182,440.070455 L321.314455,447.716364 C321.914182,447.057727 322.769182,446.636364 323.727273,446.636364 C325.532182,446.636364 327,448.104182 327,449.909091 L327,449.909091 Z M318.818182,440.090909 L322.090909,440.090909 C322.541727,440.090909 322.909091,440.457455 322.909091,440.909091 L322.909091,444.181818 C322.909091,444.634273 323.275636,445 323.727273,445 C324.178909,445 324.545455,444.634273 324.545455,444.181818 L324.545455,440.909091 C324.545455,439.555818 323.444182,438.454545 322.090909,438.454545 L318.818182,438.454545 C318.366545,438.454545 318,438.820273 318,439.272727 C318,439.725182 318.366545,440.090909 318.818182,440.090909 L318.818182,440.090909 Z M299.181818,467.909091 L295.909091,467.909091 C295.458273,467.909091 295.090909,467.542545 295.090909,467.090909 L295.090909,463.818182 C295.090909,463.365727 294.724364,463 294.272727,463 C293.821091,463 293.454545,463.365727 293.454545,463.818182 L293.454545,467.090909 C293.454545,468.444182 294.555818,469.545455 295.909091,469.545455 L299.181818,469.545455 C299.633455,469.545455 300,469.179727 300,468.727273 C300,468.274818 299.633455,467.909091 299.181818,467.909091 L299.181818,467.909091 Z M323.727273,463 C323.275636,463 322.909091,463.365727 322.909091,463.818182 L322.909091,467.090909 C322.909091,467.542545 322.541727,467.909091 322.090909,467.909091 L318.818182,467.909091 C318.366545,467.909091 318,468.274818 318,468.727273 C318,469.179727 318.366545,469.545455 318.818182,469.545455 L322.090909,469.545455 C323.444182,469.545455 324.545455,468.444182 324.545455,467.090909 L324.545455,463.818182 C324.545455,463.365727 324.178909,463 323.727273,463 L323.727273,463 Z M310.636364,440.090909 L315.545455,440.090909 C315.997091,440.090909 316.363636,439.725182 316.363636,439.272727 C316.363636,438.820273 315.997091,438.454545 315.545455,438.454545 L310.636364,438.454545 C310.184727,438.454545 309.818182,438.820273 309.818182,439.272727 C309.818182,439.725182 310.184727,440.090909 310.636364,440.090909 L310.636364,440.090909 Z M323.727273,454.818182 C323.275636,454.818182 322.909091,455.183909 322.909091,455.636364 L322.909091,460.545455 C322.909091,460.997909 323.275636,461.363636 323.727273,461.363636 C324.178909,461.363636 324.545455,460.997909 324.545455,460.545455 L324.545455,455.636364 C324.545455,455.183909 324.178909,454.818182 323.727273,454.818182 L323.727273,454.818182 Z M294.272727,445 C294.724364,445 295.090909,444.634273 295.090909,444.181818 L295.090909,440.909091 C295.090909,440.457455 295.458273,440.090909 295.909091,440.090909 L299.181818,440.090909 C299.633455,440.090909 300,439.725182 300,439.272727 C300,438.820273 299.633455,438.454545 299.181818,438.454545 L295.909091,438.454545 C294.555818,438.454545 293.454545,439.555818 293.454545,440.909091 L293.454545,444.181818 C293.454545,444.634273 293.821091,445 294.272727,445 L294.272727,445 Z M294.272727,453.181818 C294.724364,453.181818 295.090909,452.816091 295.090909,452.363636 L295.090909,447.454545 C295.090909,447.002091 294.724364,446.636364 294.272727,446.636364 C293.821091,446.636364 293.454545,447.002091 293.454545,447.454545 L293.454545,452.363636 C293.454545,452.816091 293.821091,453.181818 294.272727,453.181818 L294.272727,453.181818 Z M308.181818,468.727273 C308.181818,469.179727 307.815273,469.545455 307.363636,469.545455 L302.454545,469.545455 C302.002909,469.545455 301.636364,469.179727 301.636364,468.727273 C301.636364,468.274818 302.002909,467.909091 302.454545,467.909091 L307.363636,467.909091 C307.815273,467.909091 308.181818,468.274818 308.181818,468.727273 L308.181818,468.727273 Z" id="platform" sketch:type="MSShapeGroup"></path>
            </g>
        </g>
    </g>
</svg>