<svg width="33" height="31" viewBox="0 0 33 31" xmlns="http://www.w3.org/2000/svg"><title>icon-thumb-up</title><path d="M28.826 22.746c0 1.155-.933 2.087-2.087 2.087h-1.392c1.153 0 2.087.935 2.087 2.087 0 1.155-.934 2.087-2.087 2.087h-9.044c-5.565 0-4.174-2.783-15.304-2.783v-12.52h4.174c4.87 0 10.435-4.483 10.435-11.132 0-2.2 4.173-2.478 4.173 1.696 0 2.783-1.392 8.043-1.392 8.043h11.132c1.153 0 2.087.936 2.087 2.088 0 1.155-.935 2.087-2.088 2.087H28.13c1.154 0 2.087.935 2.087 2.087 0 1.155-.933 2.087-2.087 2.087h-1.39c1.153 0 2.086.934 2.086 2.086z" stroke="#FFF" stroke-width="2" fill="none" fill-rule="evenodd" stroke-linecap="round" stroke-linejoin="round"/></svg>