<svg xmlns="http://www.w3.org/2000/svg" width="32" height="32" viewBox="0 0 32 32"><path fill="#fff" d="M16 0c-8.837 0-16 7.163-16 16s7.163 16 16 16 16-7.163 16-16-7.163-16-16-16zm7.434 9.999h-1.435c-.265 0-.521.105-.707.293l-2 2c-.353.352-.392.909-.093 1.307l2.591 3.455-6.979 11.343-.812-.812v-7.586c0-.297-.132-.578-.36-.769l-5.27-4.392 2.13-2.84h6.5c.552 0 1-.448 1-1v-4c0-.43-.274-.813-.685-.949l-1.464-.488 3.215-3.214c2.597.581 4.922 1.876 6.752 3.679l-2.383 3.973zm-21.434 6.001c0-7.732 6.268-14 14-14l.558.028-3.265 3.265c-.526.526-.314 1.421.391 1.656l2.316.772v2.279h-6c-.315 0-.611.148-.8.4l-3 4c-.319.426-.249 1.027.16 1.368l5.64 4.7v7.532c0 .266.105.52.293.707l1.031 1.03c-6.451-1.249-11.324-6.921-11.324-13.737zm14.18 13.991l7.672-12.468c.215-.35.195-.795-.052-1.124l-2.479-3.306 1.093-1.093h1.586c.352 0 .677-.184.857-.486l2.338-3.896c1.753 2.339 2.805 5.234 2.805 8.382 0 7.672-6.172 13.894-13.82 13.991z"/></svg>
