<svg width="34" height="28" viewBox="0 0 34 28" xmlns="http://www.w3.org/2000/svg"><title>icon-group</title><g stroke="#FFF" stroke-width="2" fill="none" fill-rule="evenodd" stroke-linejoin="round"><path d="M1 10v4c0 1.1.9 2 2 2l.5 6h3l.5-6c1.1 0 2-.9 2-2v-4H1zM25 10v4c0 1.1.9 2 2 2l.5 6h3l.5-6c1.1 0 2-.9 2-2v-4h-8zM22 10v7c0 1.467-.533 2-2 2l-1 8h-4l-1-8c-1.468 0-2-.533-2-2v-7h10zM7 5c0 1.104-.896 2-2 2s-2-.896-2-2 .896-2 2-2 2 .896 2 2zM31 5c0 1.104-.896 2-2 2s-2-.896-2-2 .896-2 2-2 2 .896 2 2zM20 4c0 1.657-1.343 3-3 3s-3-1.343-3-3 1.343-3 3-3 3 1.343 3 3z"/></g></svg>