<?xml version="1.0" encoding="UTF-8" standalone="no"?>
<svg width="26px" height="35px" viewBox="0 0 26 35" version="1.1" xmlns="http://www.w3.org/2000/svg" xmlns:xlink="http://www.w3.org/1999/xlink" xmlns:sketch="http://www.bohemiancoding.com/sketch/ns">
    <!-- Generator: Sketch 3.4.2 (15857) - http://www.bohemiancoding.com/sketch -->
    <title>unlock</title>
    <desc>Created with Sketch.</desc>
    <defs></defs>
    <g id="Design" stroke="none" stroke-width="1" fill="none" fill-rule="evenodd" sketch:type="MSPage">
        <g id="2b-Ungoogle" sketch:type="MSArtboardGroup" transform="translate(-265.000000, -807.000000)" fill="#FFFFFF">
            <g id="Section-1" sketch:type="MSLayerGroup" transform="translate(0.000000, 678.000000)">
                <g id="1" transform="translate(265.000000, 128.000000)" sketch:type="MSShapeGroup">
                    <path d="M13.025124,20.4301488 C15.4125291,20.4301488 17.3500594,22.3677489 17.3500594,24.7550842 C17.3500594,27.1424893 15.4125291,29.0800894 13.025124,29.0800894 C10.6377189,29.0800894 8.70018855,27.1424893 8.70018855,24.7550842 C8.70018855,22.3677489 10.6377189,20.4301488 13.025124,20.4301488 M13.025124,22.160109 C11.5892214,22.160109 10.4301488,23.3192514 10.4301488,24.7550842 C10.4301488,26.1909868 11.5892214,27.3500594 13.025124,27.3500594 C14.4610265,27.3500594 15.6200992,26.1909868 15.6200992,24.7550842 C15.6200992,23.3192514 14.4610265,22.160109 13.025124,22.160109 M5.24019836,13.5102381 C3.33719329,13.5102381 1.78020817,15.0672233 1.78020817,16.9701586 L1.78020817,30.8100496 C1.78020817,32.7130547 3.33719329,34.2700398 5.24019836,34.2700398 L20.8100496,34.2700398 C22.7130547,34.2700398 24.2700398,32.7130547 24.2700398,30.8100496 L24.2700398,16.9701586 C24.2700398,15.0672233 22.7130547,13.5102381 20.8100496,13.5102381 L5.24019836,13.5102381 M20.8100496,11.7802082 C23.6818547,11.7802082 26,14.0984232 26,16.9701586 L26,30.8100496 C26,33.6818547 23.6818547,36 20.8100496,36 L5.24019836,36 C2.36839325,36 0.0502479504,33.6818547 0.0502479504,30.8100496 L0.0502479504,16.9701586 C0.0502479504,14.0984232 2.36839325,11.7802082 5.24019836,11.7802082 L19.0800894,11.7802082 L19.0800894,9.18523297 C19.0800894,5.84639509 16.3639618,3.13033732 13.025124,3.13033732 C9.98034377,3.13033732 7.4545586,5.37929258 7.03934862,8.32028773 L5.29209089,8.32028773 C5.72459838,4.42779005 9.01154373,1.40030735 13.025124,1.40030735 C17.3500594,1.40030735 20.8100496,4.86029754 20.8100496,9.18523297 L20.8100496,11.7802082" id="unlock"></path>
                </g>
            </g>
        </g>
    </g>
</svg>