<svg xmlns="http://www.w3.org/2000/svg" width="128" height="128" viewBox="0 0 128 128" xmlns:xlink="http://www.w3.org/1999/xlink">
  <defs>
    <circle id="a" cx="43.001" cy="43.001" r="43"/>
  </defs>
  <g fill="none" fill-rule="evenodd" transform="translate(4 4)">
    <path fill="#B9D5FB" d="M83.7646661,80.0145613 L91.1883183,80.0145613 C91.7187513,80.0145613 92.2274592,80.225275 92.6025319,80.6003477 L118.365716,106.363532 C121.48991,109.487726 121.48991,114.553046 118.365716,117.67724 L117.67724,118.365716 C114.553046,121.48991 109.487726,121.48991 106.363532,118.365716 L106.363532,118.365716 L80.6003477,92.6025319 C80.225275,92.2274592 80.0145613,91.7187513 80.0145613,91.1883183 L80.0145613,83.7646661 C71.5207174,91.3730573 60.3006989,96 48,96 C21.490332,96 2.84217094e-14,74.509668 2.84217094e-14,48 C2.84217094e-14,21.490332 21.490332,0 48,0 C74.509668,0 96,21.490332 96,48 C96,60.3006989 91.3730573,71.5207174 83.7646661,80.0145613 Z M48.0014561,91.0014561 C71.7497004,91.0014561 91.0014561,71.7497004 91.0014561,48.0014561 C91.0014561,24.2532119 71.7497004,5.00145613 48.0014561,5.00145613 C24.2532119,5.00145613 5.00145613,24.2532119 5.00145613,48.0014561 C5.00145613,71.7497004 24.2532119,91.0014561 48.0014561,91.0014561 Z"/>
    <g transform="translate(5 5)">
      <mask id="b" fill="white">
        <use xlink:href="#a"/>
      </mask>
      <path fill="#297EF2" d="M73.9633705,77 L33.0366295,77 C20.3313261,77 10,66.5414205 10,53.6850204 C10,47.5541289 12.3322064,41.7627676 16.5702083,37.3805436 C20.2825935,33.5454379 25.0914638,31.1581725 30.2936764,30.5371668 C30.9080561,25.2718131 33.2646288,20.4040436 37.0570748,16.6481029 C41.3873207,12.3573585 47.1081881,10 53.1667033,10 C59.2234781,10 64.946086,12.3573585 69.2763318,16.6463437 C73.0531138,20.3864514 75.4027247,25.2278325 76.0327685,30.4650388 C87.7686398,31.5293684 97,41.5375871 97,53.6867795 C97,66.5414205 86.661712,77 73.96163,77 L73.9633705,77 Z M65.6107013,52.5563709 C64.1511274,51.6209604 64.0794597,49.9028945 64.0759637,49.8273751 C64.0654757,49.3605282 63.6774213,48.9932293 63.2019673,49.0000947 C62.7265133,49.0086765 62.3489468,49.3948551 62.3576868,49.8582695 C62.3611828,49.9200581 62.3856547,50.7267423 62.7772051,51.6776 C57.5821706,56.5108404 49.4190445,56.5177057 44.213522,51.706778 C44.6155604,50.7421895 44.6417803,49.9217743 44.6417803,49.8599858 C44.6505202,49.3965714 44.2747018,49.0138255 43.8027437,49.0018111 C43.3360297,48.9880803 42.9392353,49.3622444 42.9235034,49.8256589 C42.9235034,49.8943128 42.8535837,51.619244 41.3905137,52.5546547 C40.9919714,52.8121071 40.8800999,53.3355937 41.1405508,53.7252051 C41.3048621,53.9723593 41.577549,54.107951 41.8607238,54.107951 C42.0215391,54.107951 42.1841025,54.0633259 42.3291859,53.9706431 C42.7050043,53.7303541 43.019643,53.4557381 43.2835899,53.1639587 C46.1747699,55.7213195 49.8280748,57 53.4813796,57 C57.1434244,57 60.8054692,55.7161705 63.7018932,53.1467953 C63.9675881,53.4420074 64.2857228,53.7234887 64.6720292,53.9706431 C64.8153646,54.0633259 64.9796759,54.107951 65.1404913,54.107951 C65.4201701,54.107951 65.694605,53.9706431 65.8606643,53.7234887 C66.1193672,53.332161 66.0074957,52.8069581 65.6107013,52.5529383 L65.6107013,52.5563709 Z" mask="url(#b)"/>
    </g>
  </g>
</svg>
