<?xml version="1.0" encoding="UTF-8" standalone="no"?>
<svg width="38px" height="27px" viewBox="0 0 38 27" version="1.1" xmlns="http://www.w3.org/2000/svg" xmlns:xlink="http://www.w3.org/1999/xlink" xmlns:sketch="http://www.bohemiancoding.com/sketch/ns">
    <!-- Generator: Sketch 3.4.2 (15857) - http://www.bohemiancoding.com/sketch -->
    <title>Shape</title>
    <desc>Created with Sketch.</desc>
    <defs></defs>
    <g id="Design" stroke="none" stroke-width="1" fill="none" fill-rule="evenodd" sketch:type="MSPage">
        <g id="3a-community" sketch:type="MSArtboardGroup" transform="translate(-984.000000, -2800.000000)" fill="#000000">
            <g id="content" sketch:type="MSLayerGroup" transform="translate(140.000000, 826.000000)">
                <g id="6" transform="translate(60.000000, 1945.000000)" sketch:type="MSShapeGroup">
                    <path d="M811.31838,55.1014249 L793.838809,55.1014249 C788.412449,55.1014249 784,51.0270395 784,46.0185266 C784,43.6300937 784.996072,41.3739327 786.806097,39.6667344 C788.391635,38.1726788 790.445476,37.2426635 792.66731,37.0007361 C792.929708,34.9494938 793.936186,33.0531397 795.555918,31.5899248 C797.405341,29.9183644 799.848689,29 802.436246,29 C805.023059,29 807.467151,29.9183644 809.316574,31.5892394 C810.929615,33.0462863 811.93312,34.9323601 812.202208,36.9726369 C817.21453,37.3872716 821.15719,41.2862084 821.15719,46.0192119 C821.15719,51.0270395 816.741767,55.1014249 811.317637,55.1014249 L811.31838,55.1014249 L811.31838,55.1014249 Z M811.244047,53.1961614 L811.31838,53.1961614 C815.605948,53.1961614 819.093686,49.9764031 819.093686,46.0185266 C819.093686,42.0613354 815.605948,38.841577 811.31838,38.841577 L811.24033,38.841577 C810.680597,38.841577 810.221958,38.4303691 810.209321,37.9122471 C810.112688,34.0468923 806.626437,30.9038928 802.436989,30.9038928 C798.247541,30.9038928 794.759804,34.048263 794.663913,37.9136178 C794.651277,38.4221449 794.207504,38.8319822 793.655948,38.8436331 C789.469474,38.9327282 786.063504,42.1511157 786.063504,46.0192119 C786.063504,49.9770885 789.551241,53.1968468 793.838809,53.1968468 L793.901993,53.1968468 L793.926523,53.195476 C793.948823,53.195476 793.971123,53.195476 793.993423,53.1968468 L811.241817,53.1968468 L811.244047,53.1961614 L811.244047,53.1961614 Z M807.482018,45.4743613 C806.861331,45.1008475 806.830854,44.4148155 806.829368,44.3846603 C806.824908,44.198246 806.659887,44.0515818 806.457699,44.0543232 C806.255512,44.05775 806.094951,44.2119529 806.098667,44.3969966 C806.100154,44.421669 806.110561,44.7437819 806.277068,45.1234639 C804.067871,47.0533999 800.596487,47.0561413 798.382829,45.1351148 C798.553796,44.74995 798.564946,44.4223543 798.564946,44.3976818 C798.568663,44.2126383 798.408846,44.059806 798.208145,44.0550086 C798.009674,44.0495258 797.840936,44.1989313 797.834246,44.383975 C797.834246,44.4113888 797.804513,45.1001621 797.182339,45.473676 C797.012859,45.576478 796.965285,45.7855087 797.076042,45.9410824 C797.145916,46.0397723 797.261876,46.0939147 797.382297,46.0939147 C797.450684,46.0939147 797.519814,46.0760957 797.581511,46.039087 C797.741329,45.9431384 797.87513,45.8334829 797.987373,45.7169741 C799.216853,46.7381405 800.770427,47.2487237 802.324002,47.2487237 C803.881293,47.2487237 805.438584,46.7360844 806.670294,45.7101206 C806.783281,45.8280002 806.918568,45.9403971 807.082846,46.039087 C807.143799,46.0760957 807.213673,46.0939147 807.28206,46.0939147 C807.400994,46.0939147 807.517698,46.039087 807.588315,45.9403971 C807.698329,45.784138 807.650755,45.574422 807.482018,45.4729907 L807.482018,45.4743613 L807.482018,45.4743613 Z" id="Shape"></path>
                </g>
            </g>
        </g>
    </g>
</svg>