<svg xmlns="http://www.w3.org/2000/svg" width="48" height="48" fill="none" viewBox="0 0 48 48">
  <circle cx="24" cy="24" r="24" fill="#FFC4CA"/>
  <path fill="#F1142D" fill-rule="evenodd" d="M14.219 17.047A11.946 11.946 0 0012 24c0 6.627 5.373 12 12 12 2.592 0 4.991-.822 6.953-2.218L14.218 17.047zm2.828-2.829l16.735 16.735A11.946 11.946 0 0036 24c0-6.627-5.373-12-12-12-2.592 0-4.991.822-6.953 2.219zM24 40c-8.837 0-16-7.163-16-16S15.163 8 24 8s16 7.163 16 16-7.163 16-16 16z" clip-rule="evenodd"/>
  <circle cx="24" cy="24" r="24" fill="#FEDEC1"/>
  <path fill="#FC9426" fill-rule="evenodd" d="M14.219 17.047A11.946 11.946 0 0012 24c0 6.627 5.373 12 12 12 2.592 0 4.991-.822 6.953-2.218L14.218 17.047zm2.828-2.829l16.735 16.735A11.946 11.946 0 0036 24c0-6.627-5.373-12-12-12-2.592 0-4.991.822-6.953 2.219zM24 40c-8.837 0-16-7.163-16-16S15.163 8 24 8s16 7.163 16 16-7.163 16-16 16z" clip-rule="evenodd"/>
</svg>
