<svg xmlns="http://www.w3.org/2000/svg" width="32" height="32" viewBox="0 0 32 32"><g fill="#FFF"><path d="M16 0c-8.837 0-16 7.163-16 16s7.163 16 16 16 16-7.163 16-16-7.163-16-16-16zm0 30c-7.732 0-14-6.268-14-14s6.268-14 14-14 14 6.268 14 14-6.268 14-14 14zM25.173 18.01c-.546-.08-1.054.299-1.135.844-.024.164-.099.488-.244.92-.247.73-.604 1.463-1.093 2.142-1.387 1.931-3.531 3.083-6.702 3.083-3.17 0-5.308-1.15-6.686-3.081-.485-.679-.84-1.41-1.084-2.142-.144-.43-.217-.756-.24-.918-.078-.547-.585-.928-1.131-.85-.547.078-.927.585-.849 1.131l.001.002c.146 1.021.631 2.478 1.676 3.94 1.746 2.444 4.484 3.919 8.314 3.919 3.829 0 6.57-1.473 8.326-3.917 1.05-1.462 1.541-2.919 1.691-3.938.081-.545-.298-1.054-.844-1.135zM19 14c.552 0 1-.448 1-1 0-.079.042-.28.16-.47.205-.327.585-.53 1.34-.53s1.135.203 1.34.53c.119.19.16.391.16.47 0 .552.448 1 1 1s1-.448 1-1c0-.421-.113-.97-.465-1.53-.577-.923-1.603-1.47-3.035-1.47-1.434 0-2.459.547-3.035 1.47-.35.56-.465 1.109-.465 1.53 0 .552.448 1 1 1z"/></g><path fill="#FFF" d="M10 9c-1.657 0-3 1.343-3 3s1.343 3 3 3 3-1.343 3-3-1.343-3-3-3zm0 4c-.552 0-1-.448-1-1s.448-1 1-1 1 .448 1 1-.448 1-1 1z"/></svg>
