<?xml version="1.0" encoding="UTF-8" standalone="no"?>
<svg width="16px" height="16px" viewBox="0 0 16 16" version="1.1" xmlns="http://www.w3.org/2000/svg" xmlns:xlink="http://www.w3.org/1999/xlink" xmlns:sketch="http://www.bohemiancoding.com/sketch/ns">
    <!-- Generator: Sketch 3.4.2 (15857) - http://www.bohemiancoding.com/sketch -->
    <title>player</title>
    <desc>Created with Sketch.</desc>
    <defs>
        <path id="path-1" d="M0,0 L16,0 L16,16 L0,16 L0,0 Z"></path>
    </defs>
    <g id="Design" stroke="none" stroke-width="1" fill="none" fill-rule="evenodd" sketch:type="MSPage">
        <g id="1a-about" sketch:type="MSArtboardGroup" transform="translate(-713.000000, -4328.000000)">
            <g id="4" sketch:type="MSLayerGroup" transform="translate(171.000000, 2547.000000)">
                <g id="timeline" transform="translate(0.000000, 218.000000)">
                    <g id="10" transform="translate(527.000000, 1506.000000)">
                        <g id="player" transform="translate(15.000000, 57.000000)">
                            <path d="M7,9.2339 L7,6.7659 L9.057,7.9999 L7,9.2339 Z M11.515,7.1429 L6.515,4.1429 C6.206,3.9569 5.821,3.9519 5.507,4.1299 C5.194,4.3069 5,4.6399 5,4.9999 L5,10.9999 C5,11.3609 5.194,11.6929 5.507,11.8699 C5.66,11.9569 5.83,11.9999 6,11.9999 C6.178,11.9999 6.356,11.9529 6.515,11.8579 L11.515,8.8579 C11.815,8.6769 12,8.3509 12,7.9999 C12,7.6489 11.815,7.3229 11.515,7.1429 L11.515,7.1429 Z" id="Fill-1" fill="#2E2B2C" sketch:type="MSShapeGroup"></path>
                            <g id="Group-5">
                                <mask id="mask-2" sketch:name="Clip 4" fill="white">
                                    <use xlink:href="#path-1"></use>
                                </mask>
                                <g id="Clip-4"></g>
                                <path d="M14.0001,12 C14.0001,13.103 13.1031,14 12.0001,14 L4.0001,14 C2.8971,14 2.0001,13.103 2.0001,12 L2.0001,4 C2.0001,2.897 2.8971,2 4.0001,2 L12.0001,2 C13.1031,2 14.0001,2.897 14.0001,4 L14.0001,12 Z M12.0001,0 L4.0001,0 C1.7911,0 0.0001,1.791 0.0001,4 L0.0001,12 C0.0001,14.209 1.7911,16 4.0001,16 L12.0001,16 C14.2091,16 16.0001,14.209 16.0001,12 L16.0001,4 C16.0001,1.791 14.2091,0 12.0001,0 L12.0001,0 Z" id="Fill-3" fill="#2E2B2C" sketch:type="MSShapeGroup" mask="url(#mask-2)"></path>
                            </g>
                        </g>
                    </g>
                </g>
            </g>
        </g>
    </g>
</svg>