<?xml version="1.0" encoding="UTF-8" standalone="no"?>
<svg width="14px" height="16px" viewBox="0 0 14 16" version="1.1" xmlns="http://www.w3.org/2000/svg" xmlns:xlink="http://www.w3.org/1999/xlink" xmlns:sketch="http://www.bohemiancoding.com/sketch/ns">
    <!-- Generator: Sketch 3.4.2 (15857) - http://www.bohemiancoding.com/sketch -->
    <title>docs</title>
    <desc>Created with Sketch.</desc>
    <defs></defs>
    <g id="Design" stroke="none" stroke-width="1" fill="none" fill-rule="evenodd" sketch:type="MSPage">
        <g id="1a-about" sketch:type="MSArtboardGroup" transform="translate(-714.000000, -3099.000000)" fill="#2E2B2C">
            <g id="4" sketch:type="MSLayerGroup" transform="translate(171.000000, 2547.000000)">
                <g id="timeline" transform="translate(0.000000, 218.000000)" sketch:type="MSShapeGroup">
                    <g id="3" transform="translate(124.000000, 269.000000)">
                        <g id="docs" transform="translate(419.000000, 65.000000)">
                            <path d="M12,11 L5,11 L5,2 L12,2 L12,11 Z M13,0 L4,0 C3.448,0 3,0.447 3,1 L3,12 C3,12.553 3.448,13 4,13 L13,13 C13.552,13 14,12.553 14,12 L14,1 C14,0.447 13.552,0 13,0 L13,0 Z" id="Fill-1"></path>
                            <path d="M9.0001,14 L2.0001,14 L2.0001,5 C2.0001,4.447 1.5521,4 1.0001,4 C0.4481,4 9.99999993e-05,4.447 9.99999993e-05,5 L9.99999993e-05,15 C9.99999993e-05,15.553 0.4481,16 1.0001,16 L9.0001,16 C9.5521,16 10.0001,15.553 10.0001,15 C10.0001,14.447 9.5521,14 9.0001,14" id="Fill-3"></path>
                            <path d="M7.0001,5.0001 L10.0001,5.0001 C10.5521,5.0001 11.0001,4.5531 11.0001,4.0001 C11.0001,3.4471 10.5521,3.0001 10.0001,3.0001 L7.0001,3.0001 C6.4481,3.0001 6.0001,3.4471 6.0001,4.0001 C6.0001,4.5531 6.4481,5.0001 7.0001,5.0001" id="Fill-4"></path>
                            <path d="M7.0001,8.0001 L10.0001,8.0001 C10.5521,8.0001 11.0001,7.5531 11.0001,7.0001 C11.0001,6.4471 10.5521,6.0001 10.0001,6.0001 L7.0001,6.0001 C6.4481,6.0001 6.0001,6.4471 6.0001,7.0001 C6.0001,7.5531 6.4481,8.0001 7.0001,8.0001" id="Fill-5"></path>
                        </g>
                    </g>
                </g>
            </g>
        </g>
    </g>
</svg>