<svg xmlns="http://www.w3.org/2000/svg" width="122" height="129" viewBox="0 0 122 129">
    <g fill="none" fill-rule="nonzero">
        <path fill="#F4383C" d="M121.818 83.85c-.456-4.036-.19-9.397-3.594-11.83l-.68-.412a6.493 6.493 0 0 0-1.059-.456c-2.521-.82-5.935.026-8.508.23a7.09 7.09 0 0 1-2.375-.228c-.69-2.22-4.334-12.237-15.76-19.604-.937-2.617-1.297-5.458-1.381-8.24-.087-2.87.949-6.931-2.103-8.543-2.562-1.354-6.376.72-8.462 2.176-1.642 1.145-2.935 2.615-3.736 4.483-.526 1.228-.6 2.365-.724 3.509-4.069-.884-8.622-1.437-13.735-1.523v-.016c-.28 0-.555.004-.831.007-.2-.001-.395-.007-.596-.007v.013c-27.863.469-39.398 14.614-43.723 22.688-.39.729-.718 1.404-.998 2.019-1.857 3.954-2.837 7.701-3.24 11.165-.206.024-.408.07-.6.14-.174.061-1.457.167-2.218.136-1.11-.045-1.623-.421-2.7-.827-1.476-.558-3.413.499-3.864 1.979-.528 1.733.433 3.017 1.882 3.565.39.148 1.174.4 1.783.593l.376.12c.276.087 2.187.224 2.816.247.8.028 1.6.094 2.378.033.665 9.915 5.625 16.325 5.626 16.326 3.103 4.964 8.673 11.28 18.237 15.595.442 3.194.452 6.607-.638 9.02-.55 1.217-.133 2.165.695 2.743h4.32l.03-.016h9.836v-.162c2.735.638 5.915-2.439 3.195-4.61-.643-.515-1.096-1.56-1.44-2.618 2.578.331 5.315.543 8.246.592v.016c.241 0 .474-.005.714-.008.239.003.473.008.713.008v-.016c4.589-.077 8.728-.529 12.472-1.26a8.64 8.64 0 0 0-.023.249c-.14 1.764-.917 3.474-1.588 5.083-.506 1.21-.103 2.158.697 2.743h16.877c.34-.158.664-.36.963-.63 2.042-1.84.802-4.25.655-6.583-.167-2.64.008-5.383.49-8.004 11.51-7.607 14.926-17.859 15.422-19.545.485.045.98.059 1.466.062 2.708.017 5.639.317 8.325-.116.33-.052.642-.119.944-.195l1.824-.664c3.316-1.68 4.07-5.226 3.594-9.428z"/>
        <ellipse cx="87.525" cy="66.939" fill="#14457E" rx="3.479" ry="3.526"/>
        <ellipse cx="53.088" cy="11.934" fill="#FF9300" rx="11.774" ry="11.934"/>
        <ellipse cx="29.539" cy="35.801" fill="#FF9300" rx="11.774" ry="11.934"/>
        <ellipse cx="56.409" cy="49.975" fill="#FF9300" rx="11.774" ry="11.934"/>
        <path fill="#14457E" d="M65.974 59.908c-5.71 1.683-13.22 1.945-18.814-.254-1.704-.67-3.485 1.7-1.587 2.446 6.465 2.54 14.604 2.495 21.235.541 1.952-.576 1.027-3.281-.834-2.733z"/>
    </g>
</svg>
