<?xml version="1.0" encoding="UTF-8" standalone="no"?>
<svg width="31px" height="29px" viewBox="0 0 31 29" version="1.1" xmlns="http://www.w3.org/2000/svg" xmlns:xlink="http://www.w3.org/1999/xlink" xmlns:sketch="http://www.bohemiancoding.com/sketch/ns">
    <!-- Generator: Sketch 3.4.2 (15857) - http://www.bohemiancoding.com/sketch -->
    <title>serveur@2x</title>
    <desc>Created with Sketch.</desc>
    <defs></defs>
    <g id="Design" stroke="none" stroke-width="1" fill="none" fill-rule="evenodd" sketch:type="MSPage">
        <g id="4a-self-hosting" sketch:type="MSArtboardGroup" transform="translate(-768.000000, -920.000000)" fill="#3D3D3D">
            <g id="Section-1" sketch:type="MSLayerGroup" transform="translate(0.000000, 406.000000)">
                <g id="4" transform="translate(294.000000, 514.000000)" sketch:type="MSShapeGroup">
                    <path d="M503.45,22.7297297 C503.45,22.2970811 503.1028,21.9459459 502.675,21.9459459 L476.325,21.9459459 C475.8972,21.9459459 475.55,22.2970811 475.55,22.7297297 L475.55,26.6486486 C475.55,27.0812973 475.8972,27.4324324 476.325,27.4324324 L477.1,27.4324324 L477.1,25.0810811 C477.1,24.6476486 477.446425,24.2972973 477.875,24.2972973 C478.303575,24.2972973 478.65,24.6476486 478.65,25.0810811 L478.65,27.4324324 L480.2,27.4324324 L480.2,25.0810811 C480.2,24.6476486 480.546425,24.2972973 480.975,24.2972973 C481.403575,24.2972973 481.75,24.6476486 481.75,25.0810811 L481.75,27.4324324 L483.3,27.4324324 L483.3,25.0810811 C483.3,24.6476486 483.646425,24.2972973 484.075,24.2972973 C484.503575,24.2972973 484.85,24.6476486 484.85,25.0810811 L484.85,27.4324324 L486.4,27.4324324 L486.4,25.0810811 C486.4,24.6476486 486.746425,24.2972973 487.175,24.2972973 C487.603575,24.2972973 487.95,24.6476486 487.95,25.0810811 L487.95,27.4324324 L502.675,27.4324324 C503.1028,27.4324324 503.45,27.0812973 503.45,26.6486486 L503.45,22.7297297 Z M502.675,14.8918919 L476.325,14.8918919 C475.8972,14.8918919 475.55,15.243027 475.55,15.6756757 L475.55,19.5945946 C475.55,20.0272432 475.8972,20.3783784 476.325,20.3783784 L477.1,20.3783784 L477.1,18.027027 C477.1,17.5935946 477.446425,17.2432432 477.875,17.2432432 C478.303575,17.2432432 478.65,17.5935946 478.65,18.027027 L478.65,20.3783784 L480.2,20.3783784 L480.2,18.027027 C480.2,17.5935946 480.546425,17.2432432 480.975,17.2432432 C481.403575,17.2432432 481.75,17.5935946 481.75,18.027027 L481.75,20.3783784 L483.3,20.3783784 L483.3,18.027027 C483.3,17.5935946 483.646425,17.2432432 484.075,17.2432432 C484.503575,17.2432432 484.85,17.5935946 484.85,18.027027 L484.85,20.3783784 L486.4,20.3783784 L486.4,18.027027 C486.4,17.5935946 486.746425,17.2432432 487.175,17.2432432 C487.603575,17.2432432 487.95,17.5935946 487.95,18.027027 L487.95,20.3783784 L502.675,20.3783784 C503.1028,20.3783784 503.45,20.0272432 503.45,19.5945946 L503.45,15.6756757 C503.45,15.243027 503.1028,14.8918919 502.675,14.8918919 L502.675,14.8918919 Z M475.55,12.5405405 C475.55,12.9731892 475.8972,13.3243243 476.325,13.3243243 L477.1,13.3243243 L477.1,10.972973 C477.1,10.5395405 477.446425,10.1891892 477.875,10.1891892 C478.303575,10.1891892 478.65,10.5395405 478.65,10.972973 L478.65,13.3243243 L480.2,13.3243243 L480.2,10.972973 C480.2,10.5395405 480.546425,10.1891892 480.975,10.1891892 C481.403575,10.1891892 481.75,10.5395405 481.75,10.972973 L481.75,13.3243243 L483.3,13.3243243 L483.3,10.972973 C483.3,10.5395405 483.646425,10.1891892 484.075,10.1891892 C484.503575,10.1891892 484.85,10.5395405 484.85,10.972973 L484.85,13.3243243 L486.4,13.3243243 L486.4,10.972973 C486.4,10.5395405 486.746425,10.1891892 487.175,10.1891892 C487.603575,10.1891892 487.95,10.5395405 487.95,10.972973 L487.95,13.3243243 L502.675,13.3243243 C503.1028,13.3243243 503.45,12.9731892 503.45,12.5405405 L503.45,8.62162162 C503.45,8.18897297 503.1028,7.83783784 502.675,7.83783784 L476.325,7.83783784 C475.8972,7.83783784 475.55,8.18897297 475.55,8.62162162 L475.55,12.5405405 Z M505,12.5405405 C505,13.1448378 504.766725,13.6911351 504.3955,14.1081081 C504.766725,14.5250811 505,15.0713784 505,15.6756757 L505,19.5945946 C505,20.1988919 504.766725,20.7451892 504.3955,21.1621622 C504.766725,21.5791351 505,22.1254324 505,22.7297297 L505,26.6486486 C505,27.945027 503.95685,29 502.675,29 L476.325,29 C475.04315,29 474,27.945027 474,26.6486486 L474,22.7297297 C474,22.1254324 474.233275,21.5791351 474.6045,21.1621622 C474.233275,20.7451892 474,20.1988919 474,19.5945946 L474,15.6756757 C474,15.0713784 474.233275,14.5250811 474.6045,14.1081081 C474.233275,13.6911351 474,13.1448378 474,12.5405405 L474,8.62162162 C474,7.32524324 475.04315,6.27027027 476.325,6.27027027 L502.675,6.27027027 C503.95685,6.27027027 505,7.32524324 505,8.62162162 L505,12.5405405 Z M476.775275,5.33991892 L481.998,1.56756757 L497.002,1.56756757 L502.224725,5.33991892 C502.361125,5.43867568 502.51845,5.48648649 502.674225,5.48648649 C502.9168,5.48648649 503.15395,5.37205405 503.305075,5.15808108 C503.554625,4.80616216 503.47325,4.3162973 503.125275,4.06548649 L497.700275,0.146567568 C497.5693,0.0509459459 497.4112,0 497.25,0 L481.75,0 C481.5888,0 481.4307,0.0509459459 481.299725,0.146567568 L475.874725,4.06548649 C475.52675,4.3162973 475.445375,4.80616216 475.694925,5.15808108 C475.9437,5.51 476.4273,5.59308108 476.775275,5.33991892 L476.775275,5.33991892 Z M500.7375,11.7567568 C501.3792,11.7567568 501.9,11.2300541 501.9,10.5810811 C501.9,9.93210811 501.3792,9.40540541 500.7375,9.40540541 C500.095025,9.40540541 499.575,9.93210811 499.575,10.5810811 C499.575,11.2300541 500.095025,11.7567568 500.7375,11.7567568 L500.7375,11.7567568 Z M500.7375,18.8108108 C501.3792,18.8108108 501.9,18.2841081 501.9,17.6351351 C501.9,16.9861622 501.3792,16.4594595 500.7375,16.4594595 C500.095025,16.4594595 499.575,16.9861622 499.575,17.6351351 C499.575,18.2841081 500.095025,18.8108108 500.7375,18.8108108 L500.7375,18.8108108 Z M501.9,24.6891892 C501.9,25.3381622 501.3792,25.8648649 500.7375,25.8648649 C500.095025,25.8648649 499.575,25.3381622 499.575,24.6891892 C499.575,24.0402162 500.095025,23.5135135 500.7375,23.5135135 C501.3792,23.5135135 501.9,24.0402162 501.9,24.6891892 L501.9,24.6891892 Z" id="serveur"></path>
                </g>
            </g>
        </g>
    </g>
</svg>