<?xml version="1.0" encoding="UTF-8" standalone="no"?>
<svg width="35px" height="32px" viewBox="0 0 35 32" version="1.1" xmlns="http://www.w3.org/2000/svg" xmlns:xlink="http://www.w3.org/1999/xlink" xmlns:sketch="http://www.bohemiancoding.com/sketch/ns">
    <!-- Generator: Sketch 3.4.4 (17248) - http://www.bohemiancoding.com/sketch -->
    <title>coffre fort</title>
    <desc>Created with Sketch.</desc>
    <defs>
        <path id="path-1" d="M0,0.00232081911 L34.9577181,0.00232081911 L34.9577181,34 L0,34"></path>
        <path id="path-3" d="M0,0.00232081911 L34.9577181,0.00232081911 L34.9577181,34 L0,34 L0,0.00232081911 Z"></path>
    </defs>
    <g id="Design" stroke="none" stroke-width="1" fill="none" fill-rule="evenodd" sketch:type="MSPage">
        <g id="3a-Sync-files-and-photos" sketch:type="MSArtboardGroup" transform="translate(-266.000000, -810.000000)">
            <g id="Section-1" sketch:type="MSLayerGroup" transform="translate(0.000000, 711.000000)">
                <g id="1" transform="translate(266.000000, 95.000000)">
                    <g id="coffre-fort" transform="translate(0.000000, 4.000000)">
                        <g id="Group-3">
                            <mask id="mask-2" sketch:name="Clip 2" fill="white">
                                <use xlink:href="#path-1"></use>
                            </mask>
                            <g id="Clip-2"></g>
                            <path d="M29.3311686,0.00230921502 L5.62600923,0.00230921502 C2.53168037,0.00230921502 -5.87248352e-06,2.27265051 -5.87248352e-06,5.04655154 L-5.87248352e-06,26.297944 C-5.87248352e-06,29.071787 2.53168037,31.3416061 5.62600923,31.3416061 L29.3311686,31.3416061 C32.426026,31.3416061 34.9577122,29.071787 34.9577122,26.297944 L34.9577122,5.04655154 C34.9577122,2.27265051 32.426026,0.00230921502 29.3311686,0.00230921502 M29.3311686,1.08166416 C31.8306737,1.08166416 33.8653129,2.86033993 33.8653129,5.04655154 L33.8653129,26.297944 C33.8653129,28.4840976 31.8306737,30.2623092 29.3311686,30.2623092 L5.62600923,30.2623092 C3.12597567,30.2623092 1.09245218,28.4840976 1.09245218,26.297944 L1.09245218,5.04655154 C1.09245218,2.86033993 3.12597567,1.08166416 5.62600923,1.08166416 L29.3311686,1.08166416" id="Fill-1" fill="#FFFFFF" sketch:type="MSShapeGroup" mask="url(#mask-2)"></path>
                        </g>
                        <mask id="mask-4" sketch:name="Clip 5" fill="white">
                            <use xlink:href="#path-3"></use>
                        </mask>
                        <g id="Clip-5"></g>
                        <path d="M6.2044547,25.7291229 L28.7532634,25.7291229 L28.7532634,5.61586007 L6.2044547,5.61586007 L6.2044547,25.7291229 Z M29.8457215,26.8084778 L5.11199664,26.8084778 L5.11199664,4.53656314 L29.8457215,4.53656314 L29.8457215,26.8084778 L29.8457215,26.8084778 Z" id="Fill-4" fill="#FFFFFF" sketch:type="MSShapeGroup" mask="url(#mask-4)"></path>
                        <path d="M11.2678565,14.1015464 C10.2136871,14.1015464 9.35612836,14.9488195 9.35612836,15.9903451 C9.35612836,17.0319287 10.2136871,17.8792017 11.2678565,17.8792017 C12.322026,17.8792017 13.1795847,17.0319287 13.1795847,15.9903451 C13.1795847,14.9488195 12.322026,14.1015464 11.2678565,14.1015464 M11.2678565,18.9584986 C9.6111703,18.9584986 8.2636703,17.6266386 8.2636703,15.9903451 C8.2636703,14.3535874 9.6111703,13.0221915 11.2678565,13.0221915 C12.9245428,13.0221915 14.2720428,14.3535874 14.2720428,15.9903451 C14.2720428,17.6266386 12.9245428,18.9584986 11.2678565,18.9584986" id="Fill-6" fill="#FFFFFF" sketch:type="MSShapeGroup" mask="url(#mask-4)"></path>
                        <path d="M20.4092869,9.93589078 L26.2095386,9.93589078 L26.2095386,11.0152457 L20.4092869,11.0152457 L20.4092869,9.93589078 Z" id="Fill-7" fill="#FFFFFF" sketch:type="MSShapeGroup" mask="url(#mask-4)"></path>
                        <path d="M20.4092869,12.7723379 L26.2095386,12.7723379 L26.2095386,13.8516348 L20.4092869,13.8516348 L20.4092869,12.7723379 Z" id="Fill-8" fill="#FFFFFF" sketch:type="MSShapeGroup" mask="url(#mask-4)"></path>
                        <path d="M20.4092869,15.6082628 L26.2095386,15.6082628 L26.2095386,16.6876177 L20.4092869,16.6876177 L20.4092869,15.6082628 Z" id="Fill-9" fill="#FFFFFF" sketch:type="MSShapeGroup" mask="url(#mask-4)"></path>
                        <path d="M20.4092869,18.4441877 L26.2095386,18.4441877 L26.2095386,19.5234846 L20.4092869,19.5234846 L20.4092869,18.4441877 Z" id="Fill-10" fill="#FFFFFF" sketch:type="MSShapeGroup" mask="url(#mask-4)"></path>
                    </g>
                </g>
            </g>
        </g>
    </g>
</svg>