<svg width="16" height="16" viewBox="0 0 16 16" xmlns="http://www.w3.org/2000/svg"><title>icon-twitter</title><path d="M15.948 3.62c-.58.258-1.203.432-1.858.51.668-.4 1.18-1.034 1.422-1.79-.625.37-1.316.64-2.053.786-.59-.63-1.432-1.022-2.362-1.022-1.786 0-3.234 1.448-3.234 3.235 0 .252.028.498.084.736C5.26 5.94 2.876 4.653 1.28 2.696 1.004 3.174.845 3.73.845 4.323c0 1.12.57 2.112 1.438 2.69-.53-.016-1.03-.16-1.465-.403v.04c0 1.567 1.115 2.874 2.595 3.172-.272.073-.558.113-.853.113-.21 0-.412-.02-.61-.058.413 1.285 1.607 2.22 3.022 2.246-1.107.867-2.5 1.385-4.017 1.385-.26 0-.518-.016-.77-.046 1.43.918 3.13 1.453 4.956 1.453 5.95 0 9.203-4.928 9.203-9.202 0-.14-.003-.28-.01-.42.633-.454 1.182-1.024 1.615-1.672z" fill="#3D3D3D" fill-rule="evenodd"/></svg>