<?xml version="1.0" encoding="UTF-8" standalone="no"?>
<svg width="18px" height="13px" viewBox="0 0 18 13" version="1.1" xmlns="http://www.w3.org/2000/svg" xmlns:xlink="http://www.w3.org/1999/xlink" xmlns:sketch="http://www.bohemiancoding.com/sketch/ns">
    <!-- Generator: Sketch 3.4.2 (15857) - http://www.bohemiancoding.com/sketch -->
    <title>Image</title>
    <desc>Created with Sketch.</desc>
    <defs></defs>
    <g id="Design" stroke="none" stroke-width="1" fill="none" fill-rule="evenodd" sketch:type="MSPage">
        <g id="1a-Home" sketch:type="MSArtboardGroup" transform="translate(-779.000000, -1127.000000)" fill="#3D3D3D">
            <g id="Footer" sketch:type="MSLayerGroup" transform="translate(-3.000000, 1006.000000)">
                <g id="Follow-Us" transform="translate(782.000000, 47.000000)" sketch:type="MSShapeGroup">
                    <g id="Twitter" transform="translate(0.000000, 72.000000)">
                        <path d="M14.5,4.03 L14.47,4 C13.81,3.41 13.05,3.13 12.16,3.17 L12.13,3.1 L12.15,3.1 C12.95,2.92 13.43,2.74 13.57,2.54 C13.62,2.38 13.56,2.3 13.38,2.27 C12.98,2.32 12.61,2.41 12.28,2.53 C12.7,2.27 12.86,2.09 12.77,2 C12.35,2.01 11.9,2.21 11.43,2.61 C11.61,2.33 11.67,2.17 11.63,2.15 C11.41,2.3 11.21,2.46 11.04,2.63 C10.69,3.01 10.4,3.36 10.18,3.68 L10.17,3.71 C9.61,4.58 9.22,5.46 8.98,6.36 L8.9,6.43 L8.88,6.44 C8.54,6.03 8.14,5.69 7.65,5.42 C7.08,5.06 6.41,4.72 5.63,4.39 C4.79,3.97 3.93,3.62 3.06,3.35 C3.06,4.28 3.53,5.03 4.47,5.57 L4.47,5.58 C4.14,5.58 3.82,5.63 3.51,5.72 C3.57,6.58 4.21,7.18 5.42,7.51 L5.41,7.53 C4.94,7.5 4.55,7.66 4.24,7.99 C4.64,8.74 5.34,9.09 6.36,9.07 C6.16,9.17 6,9.28 5.9,9.4 C5.71,9.59 5.65,9.81 5.71,10.06 C5.93,10.44 6.33,10.61 6.9,10.59 L6.94,10.63 L6.92,10.64 C5.92,11.63 4.72,12.08 3.3,11.99 L3.28,12 C2.42,11.99 1.49,11.59 0.5,10.8 C1.5,12.19 2.83,13.19 4.48,13.82 C6.37,14.42 8.26,14.46 10.14,13.95 L10.17,13.95 C12,13.44 13.55,12.4 14.83,10.83 C15.42,10 15.79,9.22 15.94,8.46 C16.89,8.49 17.58,8.23 18.01,7.67 L18,7.65 C17.68,7.76 17.06,7.73 16.13,7.55 L16.13,7.45 C16.13,7.44 16.13,7.44 16.14,7.45 C17.15,7.34 17.74,7.03 17.94,6.51 C17.23,6.77 16.54,6.78 15.85,6.53 C15.73,5.62 15.28,4.78 14.5,4.03" id="Image"></path>
                    </g>
                </g>
            </g>
        </g>
    </g>
</svg>