<svg xmlns="http://www.w3.org/2000/svg" width="128" height="128" viewBox="0 0 128 128">
  <g fill="none" fill-rule="evenodd" transform="translate(0 16)">
    <rect width="128" height="96" fill="#FCBABA" rx="4"/>
    <path fill="#F52D2D" d="M65.7948617,35.011834 L87.8577355,73.9537576 C88.4022234,74.9148022 88.0645375,76.1352774 87.1034929,76.6797653 C86.8028343,76.8501059 86.46317,76.9396401 86.1176103,76.9396401 L41.9834303,76.9396401 L41.9834303,76.9396401 C40.8788608,76.9396401 39.9834303,76.0442096 39.9834303,74.9396401 C39.9834303,74.5939693 40.073022,74.2541997 40.2434667,73.9534724 L62.3147729,35.0115488 L62.3147729,35.0115488 C62.8594184,34.0505935 64.0799489,33.7131076 65.0409042,34.257753 C65.3558361,34.4362485 65.6164178,34.6968729 65.7948617,35.011834 L65.7948617,35.011834 Z M64.050197,67.9399171 C62.3933937,67.9399171 61.0502893,69.2830215 61.0502893,70.9398247 L61.0502893,70.9398247 C61.0502893,72.596628 62.3933937,73.9397324 64.050197,73.9397324 C65.7070003,73.9397324 67.0501047,72.596628 67.0501047,70.9398247 C67.0501047,69.2830215 65.7070003,67.9399171 64.050197,67.9399171 Z M64.050197,43.9406556 C62.3933937,43.9406556 61.0502893,45.28376 61.0502893,46.9405633 L61.0502893,61.9401017 C61.0502893,63.596905 62.3933937,64.9400094 64.050197,64.9400094 C65.7070003,64.9400094 67.0501047,63.596905 67.0501047,61.9401017 L67.0501047,46.9405633 C67.0501047,45.28376 65.7070003,43.9406556 64.050197,43.9406556 Z"/>
    <path fill="#F62C2C" d="M4,0 L124,0 L124,0 C126.209139,-4.05812251e-16 128,1.790861 128,4 L128,16 L0,16 L0,4 L0,4 C-2.705415e-16,1.790861 1.790861,4.05812251e-16 4,0 Z"/>
    <circle cx="8" cy="8" r="4" fill="#FFFFFF"/>
    <circle cx="18" cy="8" r="4" fill="#FFFFFF"/>
  </g>
</svg>
