<?xml version="1.0" encoding="UTF-8" standalone="no"?>
<svg width="37px" height="36px" viewBox="0 0 37 36" version="1.1" xmlns="http://www.w3.org/2000/svg" xmlns:xlink="http://www.w3.org/1999/xlink" xmlns:sketch="http://www.bohemiancoding.com/sketch/ns">
    <!-- Generator: Sketch 3.4.2 (15857) - http://www.bohemiancoding.com/sketch -->
    <title>collect</title>
    <desc>Created with Sketch.</desc>
    <defs>
        <path id="path-1" d="M0,0.00951330799 L36.9833638,0.00951330799 L36.9833638,36 L0,36 L0,0.00951330799 Z"></path>
        <path id="path-3" d="M0,0.00951330799 L36.9833638,0.00951330799 L36.9833638,36 L0,36"></path>
        <path id="path-5" d="M0,0.00951330799 L36.9833638,0.00951330799 L36.9833638,36 L0,36"></path>
    </defs>
    <g id="Design" stroke="none" stroke-width="1" fill="none" fill-rule="evenodd" sketch:type="MSPage">
        <g id="2b-Ungoogle" sketch:type="MSArtboardGroup" transform="translate(-266.000000, -1067.000000)">
            <g id="Section-1" sketch:type="MSLayerGroup" transform="translate(0.000000, 678.000000)">
                <g id="5" transform="translate(266.000000, 388.000000)">
                    <g id="collect" transform="translate(0.000000, 1.000000)">
                        <g id="Group-3">
                            <mask id="mask-2" sketch:name="Clip 2" fill="white">
                                <use xlink:href="#path-1"></use>
                            </mask>
                            <g id="Clip-2"></g>
                            <path d="M3.69220653,11.4100015 L18.4463017,19.7204578 L33.2916543,11.27353 L18.5379733,2.65666312 L3.69220653,11.4100015 Z M18.4487868,22.3548228 C18.2383838,22.3548228 18.028395,22.3018494 17.8393912,22.1951498 L0.625486381,12.4990357 C0.24209459,12.2835148 0.00504608209,11.8825871 0.00049011194,11.4466859 C-0.00358264925,11.011127 0.226079664,10.6053399 0.604570336,10.3824958 L17.9043483,0.181628897 C18.2909845,-0.0473749049 18.7734341,-0.0473749049 19.1625554,0.178754373 L36.3756319,10.2321308 C36.7536394,10.4534008 36.9858558,10.8583665 36.9833707,11.2942677 C36.9804715,11.7298266 36.7450106,12.1315072 36.3628614,12.3486707 L19.0639118,22.1918646 C18.8736655,22.3006175 18.6612606,22.3548228 18.4487868,22.3548228 L18.4487868,22.3548228 Z" id="Fill-1" fill="#FFFFFF" sketch:type="MSShapeGroup" mask="url(#mask-2)"></path>
                        </g>
                        <g id="Group-6">
                            <mask id="mask-4" sketch:name="Clip 5" fill="white">
                                <use xlink:href="#path-3"></use>
                            </mask>
                            <g id="Clip-5"></g>
                            <path d="M18.4487868,29.1806692 C18.2383838,29.1806692 18.028395,29.1276958 17.8393912,29.0209962 L0.625486381,19.3252928 C0.0321057836,18.9915741 -0.175397948,18.2439924 0.161191604,17.655673 C0.497712127,17.0673536 1.25421026,16.8607985 1.8446916,17.1960913 L18.4458875,26.5463042 L35.1330256,17.0514753 C35.7239211,16.7149506 36.4795909,16.917057 36.8185965,17.5037338 C37.1580162,18.09 36.9534118,18.838403 36.362033,19.1749278 L19.0634976,29.0181217 C18.8736655,29.1268745 18.6612606,29.1806692 18.4487868,29.1806692" id="Fill-4" fill="#FFFFFF" sketch:type="MSShapeGroup" mask="url(#mask-4)"></path>
                        </g>
                        <g id="Group-9">
                            <mask id="mask-6" sketch:name="Clip 8" fill="white">
                                <use xlink:href="#path-5"></use>
                            </mask>
                            <g id="Clip-8"></g>
                            <path d="M18.4487868,36 C18.2383838,36 18.028395,35.9470266 17.8393912,35.840327 L0.625486381,26.1446236 C0.0321057836,25.8109049 -0.175397948,25.0633232 0.161191604,24.4750038 C0.497712127,23.8875057 1.25421026,23.6813612 1.8446916,24.0154221 L18.4458875,33.365635 L35.1330256,23.8708061 C35.7239211,23.5330494 36.4795909,23.7367985 36.8185965,24.3230646 C37.1580162,24.9093308 36.9534118,25.6577338 36.362033,25.9942586 L19.0634976,35.8374525 C18.8736655,35.9462053 18.6612606,36 18.4487868,36" id="Fill-7" fill="#FFFFFF" sketch:type="MSShapeGroup" mask="url(#mask-6)"></path>
                        </g>
                    </g>
                </g>
            </g>
        </g>
    </g>
</svg>