<?xml version="1.0" encoding="UTF-8" standalone="no"?>
<svg width="29px" height="29px" viewBox="0 0 29 29" version="1.1" xmlns="http://www.w3.org/2000/svg" xmlns:xlink="http://www.w3.org/1999/xlink" xmlns:sketch="http://www.bohemiancoding.com/sketch/ns">
    <!-- Generator: Sketch 3.4.2 (15857) - http://www.bohemiancoding.com/sketch -->
    <title>cloud</title>
    <desc>Created with Sketch.</desc>
    <defs></defs>
    <g id="Design" stroke="none" stroke-width="1" fill="none" fill-rule="evenodd" sketch:type="MSPage">
        <g id="5a-connect-my-data" sketch:type="MSArtboardGroup" transform="translate(-291.000000, -879.000000)" fill="#FFFFFF">
            <g id="Section-1" sketch:type="MSLayerGroup" transform="translate(0.000000, 711.000000)">
                <g id="1" transform="translate(291.000000, 165.000000)" sketch:type="MSShapeGroup">
                    <path d="M29,5.28947368 L29,20.5526316 C29,21.8148947 27.9727895,22.8421053 26.7105263,22.8421053 L22.1315789,22.8421053 C21.7103158,22.8421053 21.3684211,22.5002105 21.3684211,22.0789474 C21.3684211,21.6576842 21.7103158,21.3157895 22.1315789,21.3157895 L26.7105263,21.3157895 C27.1310263,21.3157895 27.4736842,20.9731316 27.4736842,20.5526316 L27.4736842,5.28947368 C27.4736842,4.86897368 27.1310263,4.52631579 26.7105263,4.52631579 L11.4473684,4.52631579 C11.0268684,4.52631579 10.6842105,4.86897368 10.6842105,5.28947368 L10.6842105,9.86842105 C10.6842105,10.2896842 10.3423158,10.6315789 9.92105263,10.6315789 C9.49978947,10.6315789 9.15789474,10.2896842 9.15789474,9.86842105 L9.15789474,5.28947368 C9.15789474,4.02721053 10.1851053,3 11.4473684,3 L26.7105263,3 C27.9727895,3 29,4.02721053 29,5.28947368 L29,5.28947368 Z M19.8421053,25.1315789 L19.8421053,29.7105263 C19.8421053,30.9727895 18.8148947,32 17.5526316,32 L2.28947368,32 C1.02721053,32 0,30.9727895 0,29.7105263 L0,14.4473684 C0,13.1851053 1.02721053,12.1578947 2.28947368,12.1578947 L6.86842105,12.1578947 C7.28968421,12.1578947 7.63157895,12.4997895 7.63157895,12.9210526 C7.63157895,13.3423158 7.28968421,13.6842105 6.86842105,13.6842105 L2.28947368,13.6842105 C1.86897368,13.6842105 1.52631579,14.0268684 1.52631579,14.4473684 L1.52631579,29.7105263 C1.52631579,30.1310263 1.86897368,30.4736842 2.28947368,30.4736842 L17.5526316,30.4736842 C17.9731316,30.4736842 18.3157895,30.1310263 18.3157895,29.7105263 L18.3157895,25.1315789 C18.3157895,24.7103158 18.6576842,24.3684211 19.0789474,24.3684211 C19.5002105,24.3684211 19.8421053,24.7103158 19.8421053,25.1315789 L19.8421053,25.1315789 Z M18.3157895,21.3157895 L16.7894737,21.3157895 L16.7894737,13.6842105 L17.5526316,13.6842105 C17.9731316,13.6842105 18.3157895,14.0268684 18.3157895,14.4473684 L18.3157895,21.3157895 Z M10.6842105,20.5526316 L10.6842105,13.6842105 L12.2105263,13.6842105 L12.2105263,21.3157895 L11.4473684,21.3157895 C11.0268684,21.3157895 10.6842105,20.9731316 10.6842105,20.5526316 L10.6842105,20.5526316 Z M15.2631579,21.3157895 L13.7368421,21.3157895 L13.7368421,13.6842105 L15.2631579,13.6842105 L15.2631579,21.3157895 Z M17.5526316,12.1578947 L9.92105263,12.1578947 C9.49978947,12.1578947 9.15789474,12.4997895 9.15789474,12.9210526 L9.15789474,20.5526316 C9.15789474,21.8148947 10.1851053,22.8421053 11.4473684,22.8421053 L19.0789474,22.8421053 C19.5002105,22.8421053 19.8421053,22.5002105 19.8421053,22.0789474 L19.8421053,14.4473684 C19.8421053,13.1851053 18.8148947,12.1578947 17.5526316,12.1578947 L17.5526316,12.1578947 Z" id="cloud"></path>
                </g>
            </g>
        </g>
    </g>
</svg>