<svg xmlns="http://www.w3.org/2000/svg" width="48" height="48" viewBox="0 0 48 48">
    <g fill="none" fill-rule="evenodd">
        <circle cx="24" cy="24" r="24" fill="#FFDEBF"/>
        <path fill="#FF9400" d="M27 25.708S27.148 22 30.393 22c3.246 0 5.607.824 5.607.824-1.77 4.532-9 2.884-9 2.884m-15-2.884S14.36 22 17.607 22C20.852 22 21 25.708 21 25.708s-7.23 1.648-9-2.884M30.809 16C25.362 16 24 20.624 24 20.624S22.638 16 17.191 16c-3.574 0-5.276 2.807-9.191 2.807C8 31.357 15.83 34 18.553 34c2.724 0 3.745-2.642 5.447-2.642S26.723 34 29.447 34C32.17 34 40 31.358 40 18.807c-3.915 0-5.617-2.807-9.191-2.807"/>
    </g>
</svg>
