<svg width="18" height="13" viewBox="0 0 18 13" xmlns="http://www.w3.org/2000/svg"><title>Image</title><path d="M14.5 2.03L14.47 2c-.66-.59-1.42-.87-2.31-.83l-.03-.07h.02c.8-.18 1.28-.36 1.42-.56.05-.16-.01-.24-.19-.27-.4.05-.77.14-1.1.26.42-.26.58-.44.49-.53-.42.01-.87.21-1.34.61.18-.28.24-.44.2-.46-.22.15-.42.31-.59.48-.35.38-.64.73-.86 1.05l-.01.03c-.56.87-.95 1.75-1.19 2.65l-.08.07-.02.01a4.22 4.22 0 0 0-1.23-1.02c-.57-.36-1.24-.7-2.02-1.03-.84-.42-1.7-.77-2.57-1.04 0 .93.47 1.68 1.41 2.22v.01c-.33 0-.65.05-.96.14.06.86.7 1.46 1.91 1.79l-.01.02c-.47-.03-.86.13-1.17.46.4.75 1.1 1.1 2.12 1.08-.2.1-.36.21-.46.33a.66.66 0 0 0-.19.66c.22.38.62.55 1.19.53l.04.04-.02.01c-1 .99-2.2 1.44-3.62 1.35l-.02.01C2.42 9.99 1.49 9.59.5 8.8c1 1.39 2.33 2.39 3.98 3.02 1.89.6 3.78.64 5.66.13h.03c1.83-.51 3.38-1.55 4.66-3.12.59-.83.96-1.61 1.11-2.37.95.03 1.64-.23 2.07-.79L18 5.65c-.32.11-.94.08-1.87-.1v-.1c0-.01 0-.01.01 0 1.01-.11 1.6-.42 1.8-.94-.71.26-1.4.27-2.09.02-.12-.91-.57-1.75-1.35-2.5" fill="#3D3D3D" fill-rule="evenodd"/></svg>