<svg xmlns="http://www.w3.org/2000/svg" width="97" height="96" fill="none"><path fill="#32363F" fill-rule="evenodd" d="M6.25 75V17.984c0-3.305 2.7-5.984 5.974-5.984h72.052c3.3 0 5.974 2.707 5.974 5.984V75h-84Z" clip-rule="evenodd"/><path fill="#5D6165" d="M12.25 18h72v48h-72z"/><path fill="#95999D" fill-rule="evenodd" d="m57.274 73.237-.024.263c0 .828-.699 1.5-1.51 1.5H37.76c-.741 0-1.358-.55-1.486-1.237l-.024-.263c0-.828-.687-1.5-1.501-1.5H1.751C.922 72 .25 72.645.25 73.471V78c0 3.314 2.668 6 6.005 6h83.99a5.988 5.988 0 0 0 6.005-6v-4.529c0-.812-.677-1.471-1.481-1.471H58.73c-.727 0-1.332.55-1.457 1.237Z" clip-rule="evenodd"/></svg>