<svg xmlns="http://www.w3.org/2000/svg" width="248" height="72" viewBox="0 0 248 72">
    <g fill="#FFDEBF" fill-rule="evenodd">
        <path d="M9.425 51.244c-.246-.52-.476-1.004-.658-1.471-.908-2.323-1.427-5.11-.477-7.478.892-2.222 2.458-4.033 5.031-4.889.042.475.096.895.14 1.307.141 1.35.246 2.846.065 4.208-.234 1.761-.744 3.511-1.607 5.098-.629 1.155-1.575 2.256-2.494 3.225zm4.197 11.68c-2.242.463-4.106.022-5.94-1.175-2.339-1.525-4.06-4.379-4.945-7.297a44.432 44.432 0 0 1-.791-3.03l.057-.178c.827.402 1.662.807 2.488 1.094.97.336 1.918 1.071 2.894 1.955 2.222 2.01 3.955 4.548 5.445 7.215.238.426.486.847.74 1.265.023.04.03.088.052.15zM.122 36.418c2.379 1.457 4.073 3.353 5.418 5.675 1.323 2.281 2.199 4.935 2.794 7.533.119.52.26 1.042.423 1.618-1.33-.173-2.896-.656-3.98-1.448-1.94-1.418-3.105-3.365-3.933-5.47-.74-1.882-.854-3.987-.843-6.014.002-.598.062-1.21.12-1.894zm7.61-9.884C4.95 24.095 4.48 20.746 5.114 17.49c.44-2.258 1.78-4.545 3.345-6.376.395-.461.812-.915 1.257-1.381 1.285 3.135 1.152 6.31.519 9.519-.384 1.946-1.125 3.846-1.875 5.704-.208.515-.425 1.032-.63 1.58zM6.852 37.84c-.242-2.952.552-6.335 2.656-8.24 1.107-1.002 2.455-1.784 4.06-1.975.32-.038.65-.07 1.026-.102-.203.74-.353 1.423-.5 2.102-.513 2.4-1.574 4.723-3.124 6.626-1.076 1.32-2.485 2.304-3.973 3.132-.064-.559-.104-1.052-.145-1.543zm-.915-9.623c.87 3.106 1.019 6.34.756 9.536a31.56 31.56 0 0 0-.086 1.63c-1.93-.883-3.264-2.122-4.255-3.783-1.712-2.873-1.706-6.753-.667-10.042.309-.978.669-1.938 1.096-2.977.27.34.512.622.744.92 1.1 1.413 1.934 3.012 2.412 4.716zm9.913-5.298c-1.977 1.943-4.34 3.189-7.094 3.615.105-.533.212-1.044.342-1.549.458-1.793 1.286-3.636 2.58-4.88 2.116-2.033 4.725-3.049 7.781-2.12-.236.359-.446.709-.659 1.052-.854 1.376-1.784 2.737-2.95 3.882zm2.98 33.267c.468.628.915 1.165 1.36 1.699 1.727 2.07 3.176 4.605 3.758 7.22.371 1.667.41 3.154.358 4.918-.28-.143-.544-.281-.799-.422-1.194-.662-2.558-1.616-3.426-2.682-1.405-1.725-2.683-3.985-2.56-6.293.084-1.564.43-3.032 1.31-4.44zm-4.353-41.209c1.02-1.517 2.064-2.754 3.47-3.682 2.089-1.378 4.918-2.168 7.511-.99.617.28 1.183.624 1.785.977-.455.343-.814.65-1.178.937-1.659 1.308-3.352 2.481-5.22 3.351-2.237 1.043-4.775 1.323-7.224.874.29-.528.558-1.025.856-1.467zm.057 32.384c.232.693.488 1.38.754 2.048.82 2.071 1.198 4.393 1.25 6.639.047 2.093-.52 4.16-1.285 6.068-.05-.036-.09-.053-.118-.087-.3-.356-.613-.724-.88-1.093-1.704-2.348-2.88-5.207-2.513-8.392.149-1.28.499-2.384 1.109-3.19.52-.686 1.024-1.402 1.56-2.064.04.024.082.047.123.07zm-1.9-31.868c-1.397-2.819-1.072-5.578.107-8.311 1.147-2.663 3.484-4.666 5.79-6.166.53-.345 1.11-.651 1.797-1.016-.11.772-.158 1.49-.26 2.228-.396 2.875-1.83 5.568-3.342 7.876-.93 1.418-1.977 2.752-3.052 4.08-.34.42-.68.835-1.04 1.31zM36 1.183C29.73-.067 22.16 2.859 19.541 9.496 25.526 8.04 30.95 4.835 36 1.184zm-13.534 69.06c.235.178.47.36.725.549-1.463.828-3.086 1.334-4.784 1.18-3.648-.33-6.56-2.465-8.713-5.17-.583-.732-1.11-1.558-1.68-2.461 1.587-.121 3.185-.072 4.718.355 2.232.622 4.31 1.747 6.23 2.983 1.201.773 2.351 1.697 3.504 2.565zM238.575 51.244c.246-.52.476-1.004.658-1.471.908-2.323 1.427-5.11.477-7.478-.892-2.222-2.458-4.033-5.031-4.889-.042.475-.096.895-.14 1.307-.141 1.35-.246 2.846-.065 4.208.234 1.761.744 3.511 1.607 5.098.629 1.155 1.575 2.256 2.494 3.225zm-4.197 11.68c2.242.463 4.106.022 5.94-1.175 2.339-1.525 4.06-4.379 4.945-7.297.303-.999.559-2.012.791-3.03l-.057-.178c-.827.402-1.662.807-2.488 1.094-.97.336-1.918 1.071-2.894 1.955-2.222 2.01-3.955 4.548-5.445 7.215-.238.426-.486.847-.74 1.265-.023.04-.03.088-.052.15zm13.5-26.506c-2.379 1.457-4.073 3.353-5.418 5.675-1.323 2.281-2.199 4.935-2.794 7.533-.119.52-.26 1.042-.423 1.618 1.33-.173 2.896-.656 3.98-1.448 1.94-1.418 3.105-3.365 3.933-5.47.74-1.882.854-3.987.843-6.014-.002-.598-.062-1.21-.12-1.894zm-7.61-9.884c2.782-2.439 3.251-5.788 2.617-9.045-.44-2.258-1.78-4.545-3.345-6.376a34.665 34.665 0 0 0-1.257-1.381c-1.285 3.135-1.152 6.31-.519 9.519.384 1.946 1.125 3.846 1.875 5.704.208.515.425 1.032.63 1.58zm.879 11.306c.242-2.952-.552-6.335-2.656-8.24-1.107-1.002-2.455-1.784-4.06-1.975a30.99 30.99 0 0 0-1.026-.102c.203.74.353 1.423.5 2.102.513 2.4 1.574 4.723 3.124 6.626 1.076 1.32 2.485 2.304 3.973 3.132.064-.559.104-1.052.145-1.543zm.915-9.623c-.87 3.106-1.019 6.34-.756 9.536.043.516.068 1.037.086 1.63 1.93-.883 3.264-2.122 4.255-3.783 1.712-2.873 1.706-6.753.667-10.042a37.256 37.256 0 0 0-1.096-2.977c-.27.34-.512.622-.744.92-1.1 1.413-1.934 3.012-2.412 4.716zm-9.913-5.298c1.977 1.943 4.34 3.189 7.094 3.615a28.018 28.018 0 0 0-.342-1.549c-.458-1.793-1.286-3.636-2.58-4.88-2.116-2.033-4.725-3.049-7.781-2.12.236.359.446.709.659 1.052.854 1.376 1.784 2.737 2.95 3.882zm-2.98 33.267a37.739 37.739 0 0 1-1.36 1.699c-1.727 2.07-3.176 4.605-3.758 7.22-.371 1.667-.41 3.154-.358 4.918.28-.143.544-.281.799-.422 1.194-.662 2.558-1.616 3.426-2.682 1.405-1.725 2.683-3.985 2.56-6.293-.084-1.564-.43-3.032-1.31-4.44zm4.353-41.209c-1.02-1.517-2.064-2.754-3.47-3.682-2.089-1.378-4.918-2.168-7.511-.99-.617.28-1.183.624-1.785.977.455.343.814.65 1.178.937 1.659 1.308 3.352 2.481 5.22 3.351 2.237 1.043 4.775 1.323 7.224.874-.29-.528-.558-1.025-.856-1.467zm-.057 32.384c-.232.693-.488 1.38-.754 2.048-.82 2.071-1.198 4.393-1.25 6.639-.047 2.093.52 4.16 1.285 6.068.05-.036.09-.053.118-.087.3-.356.613-.724.88-1.093 1.704-2.348 2.88-5.207 2.513-8.392-.149-1.28-.499-2.384-1.109-3.19-.52-.686-1.024-1.402-1.56-2.064-.04.024-.082.047-.123.07zm1.9-31.868c1.397-2.819 1.072-5.578-.107-8.311-1.147-2.663-3.484-4.666-5.79-6.166-.53-.345-1.11-.651-1.797-1.016.11.772.158 1.49.26 2.228.396 2.875 1.83 5.568 3.342 7.876.93 1.418 1.977 2.752 3.052 4.08.34.42.68.835 1.04 1.31zM212 1.183c6.27-1.251 13.84 1.675 16.459 8.312C222.474 8.04 217.05 4.835 212 1.184zm13.534 69.06c-.235.178-.47.36-.725.549 1.463.828 3.086 1.334 4.784 1.18 3.648-.33 6.56-2.465 8.713-5.17.583-.732 1.11-1.558 1.68-2.461-1.587-.121-3.185-.072-4.718.355-2.232.622-4.31 1.747-6.23 2.983-1.201.773-2.351 1.697-3.504 2.565z"/>
    </g>
</svg>
