<?xml version="1.0" encoding="utf-8"?>
<!-- Generator: Adobe Illustrator 17.1.0, SVG Export Plug-In . SVG Version: 6.00 Build 0)  -->
<!DOCTYPE svg PUBLIC "-//W3C//DTD SVG 1.1//EN" "http://www.w3.org/Graphics/SVG/1.1/DTD/svg11.dtd">
<svg version="1.1" id="Calque_1" xmlns="http://www.w3.org/2000/svg" xmlns:xlink="http://www.w3.org/1999/xlink" x="0px" y="0px"
	 viewBox="0 0 260.8 62.4" enable-background="new 0 0 260.8 62.4" xml:space="preserve">
<g>
	<g>
		<g>
			<g>
				<path fill="#FFFFFF" d="M16.2,12.2v30.6c0,2.9,0.9,4.2,4.6,4.2h4.4c5,0,7.4-2,9.2-5.7l1.7-3.5l2.6,0.7l-2,11.6H0.6v-2.6
					c6.3-1.3,6.6-1.5,6.6-4V12.2c0-2.6-0.4-2.8-6.6-4V5.7H23v2.6C16.6,9.4,16.2,9.6,16.2,12.2 M66.4,25.8c0,4-2.4,8.8-17.9,9.6
					c0.4,6.3,3.7,10.5,9,10.5c2.9,0,5.7-1.3,8.3-3.5l1.5,1.7c-2.8,4.2-7.4,7-12.9,7c-8.7,0-14.9-6.3-14.9-16
					c0-9.4,7.7-16.9,16.6-16.9C63.5,18.1,66.4,22.7,66.4,25.8 M55.8,20.8c-5,0-7,5.2-7.2,12c10.7-1.7,11-5.7,11-8.1
					C59.6,21.9,57.4,20.8,55.8,20.8 M79.9,51c-7.7,0-10.7-3.1-10.7-6.4c0-2.6,2.4-4.8,5.7-4l0.9,1.1c-2,3.5-0.6,6.6,4.6,6.6
					c3.3,0,5.5-1.7,5.5-4.4c0-3.1-2.6-4.4-6.6-6.1c-5.7-2.2-9-5-9-10.1s4.6-9.6,11.4-9.6c7.4,0,10.7,3.5,10.7,6.4
					c0,2.4-2.2,4.8-5.9,4l-0.7-1.1c2.2-3.1,1.1-6.6-3.9-6.6c-2.9,0-5,1.8-5,4.4c0,2.9,3.1,4.4,6.8,5.7C89.4,33,94,35.6,94,41.3
					C93.7,47,89.6,51,79.9,51 M100.5,5.7h35.9l0.4,11.8h-2.4l-1.3-3.7c-1.3-3.7-3.9-4.8-7.5-4.8h-9.4v16.6h9.2c2,0,2-0.4,3.5-6.1
					h2.6v16.2h-2.6c-1.3-5.5-1.5-6.4-3.5-6.4h-9.2v13.6c0,2.9,0.9,4.2,4.6,4.2h4.4c5,0,7.4-2,9.2-5.7l1.7-3.5l2.6,0.7l-2,11.6h-36.1
					v-2.6c6.3-1.3,6.6-1.5,6.6-4V12.2c0-2.6-0.4-2.8-6.6-4V5.7z M166,42.2l1.5,1.7c-2.8,4.2-7.4,7-12.9,7c-8.7,0-14.9-6.3-14.9-16
					c0-9.4,7-16.9,16.2-16.9c7.2,0,10.5,3.9,10.5,7c0,2.6-1.7,5.2-6.3,4.4l-0.7-1.1c1.3-2.9,1.7-7.5-3.3-7.5
					c-5.2,0-7.2,5.9-7.2,13.1s3.3,12,9.2,12C160.9,45.9,163.6,44.6,166,42.2 M189.6,46.6V29.3c0-3.7-1.3-5.2-4-5.2
					c-4,0-7.4,6.3-7.4,15.8v10.3h-8.5V8.5c0-2.4-0.2-2.6-4.2-4V2.1h13.1c-0.4,2.8-0.4,23.6-0.4,25h0.2c2.2-5.3,6.1-8.8,11.4-8.8
					c4.8,0,8.3,3.3,8.3,9.8v15.6c0,2.9,0.6,3.3,5,4.2v2.6c-3.9,0.4-6.8,0.7-8.7,0.7C191.2,51,189.6,49.7,189.6,46.6 M218.3,48.3
					c5.7,0,7.2-6.6,7.2-13.3c0-7.4-1.1-14.2-7.2-14.2c-5.7,0-7.2,6.6-7.2,13.3C210.9,41.4,212.2,48.3,218.3,48.3 M217.5,51
					c-9.2,0-15.5-6.1-15.5-15.5c0-10.5,6.6-17.5,16.9-17.5c9.2,0,15.5,6.1,15.5,15.5C234.3,44,227.8,51,217.5,51 M246.6,51
					c-7.7,0-10.7-3.1-10.7-6.4c0-2.6,2.4-4.8,5.7-4l0.9,1.1c-2,3.5-0.6,6.6,4.6,6.6c3.3,0,5.5-1.7,5.5-4.4c0-3.1-2.6-4.4-6.6-6.1
					c-5.7-2.2-9-5-9-10.1s4.6-9.6,11.4-9.6c7.4,0,10.7,3.5,10.7,6.4c0,2.4-2.2,4.8-5.9,4l-0.7-1.1c2.2-3.1,1.1-6.6-3.9-6.6
					c-2.9,0-5,1.8-5,4.4c0,2.9,3.1,4.4,6.8,5.7c5.7,2,10.3,4.6,10.3,10.3C260.4,47,256.4,51,246.6,51"/>
			</g>
		</g>
	</g>
</g>
<rect x="0.4" y="58.4" fill="#FFFFFF" width="260.1" height="3.3"/>
</svg>
