<?xml version="1.0" encoding="utf-8"?>
<!-- Generator: Adobe Illustrator 17.1.0, SVG Export Plug-In . SVG Version: 6.00 Build 0)  -->
<!DOCTYPE svg PUBLIC "-//W3C//DTD SVG 1.1//EN" "http://www.w3.org/Graphics/SVG/1.1/DTD/svg11.dtd">
<svg version="1.1" id="Calque_1" xmlns="http://www.w3.org/2000/svg" xmlns:xlink="http://www.w3.org/1999/xlink" x="0px" y="0px"
	 viewBox="0 0 260.8 62.4" enable-background="new 0 0 260.8 62.4" xml:space="preserve">
<title>JDN</title>
<path fill="#32363F" d="M80,40.8c0,11.4-5.7,21.6-20.4,21.6c-9.7,0-13.9-5-13.9-9.4c-0.1-2.6,2-4.7,4.6-4.8c0.2,0,0.3,0,0.5,0
	c2.6,0,4.8,2,4.8,4.7c0,0.1,0,0.1,0,0.2c0,3-2.1,4.5-2.1,6s1.4,2,7.3,2c11.4,0,11-9.3,11-19.4V14.1c0-12.5-0.8-13.5-5.3-13.7l-2-0.1
	V0h22.6v0.3l-1.9,0.1C80.8,0.5,80,1.6,80,14V40.8z"/>
<path fill="#32363F" d="M89.5,60.9l1.9-0.1c4.4-0.2,5.3-1.3,5.3-13.7v-33c0-12.5-0.8-13.5-5.3-13.7l-1.9-0.1V0h29.8
	c20.1,0,30.6,13.8,30.6,30.5s-11.2,30.6-30.6,30.6H89.5V60.9z M109.2,1.5c-3.9,0-4.3,0.3-4.3,12.6v33c0,12.3,0.3,12.6,4.3,12.6h10.1
	c15.3,0,21.3-13.6,21.3-29.1c0-16.1-7.2-29.1-21.3-29.1H109.2z"/>
<path fill="#32363F" d="M205.6,49.6v-29c0-7.4-1.4-19.9-8.3-20.3l-1.9-0.1V0h19.7v0.3l-1,0.1c-5,0.5-7,7.4-7,21.4V62h-1.3L159.4,6.6
	v33.9c0,7.4,1.4,19.9,8.3,20.3l1.9,0.1v0.3h-19.7v-0.3l1-0.1c5-0.5,7-7.4,7-21.4V14.1c0-12.5-1.9-13.5-6.4-13.7l-1.6-0.1V0h15
	L205.6,49.6z"/>
</svg>
