<?xml version="1.0" encoding="UTF-8"?>
<svg width="100px" height="86px" viewBox="0 0 100 86" version="1.1" xmlns="http://www.w3.org/2000/svg" xmlns:xlink="http://www.w3.org/1999/xlink">
    <!-- Generator: Sketch 46.2 (44496) - http://www.bohemiancoding.com/sketch -->
    <title>medium-logo</title>
    <desc>Created with Sketch.</desc>
    <defs></defs>
    <g id="Page-1" stroke="none" stroke-width="1" fill="none" fill-rule="evenodd">
        <g id="medium-logo" fill-rule="nonzero">
            <path d="M67.5257732,0.103092784 C67.0103093,-0.137457045 66.5979381,0.103092784 66.5979381,0.687285223 L66.5979381,70.4123711 L97.1477663,85.6701031 C98.6597938,86.4261168 99.8969072,85.6701031 99.8969072,83.95189 L99.8969072,16.838488 C99.8969072,16.4948454 99.7250859,16.185567 99.4158076,16.04811 L67.5257732,0.103092784 Z" id="XMLID_103_" fill="#D0D2D3"></path>
            <path d="M33.2989691,53.7800687 L66.04811,0.549828179 C66.3573883,0.0687285223 67.0103093,-0.137457045 67.5257732,0.137457045 L99.1752577,15.9450172 C99.5532646,16.1512027 99.7250859,16.6323024 99.4845361,17.0103093 L66.5979381,70.4123711 L33.2989691,53.7800687 Z" id="XMLID_102_" fill="#A6A8AB"></path>
            <path d="M3.67697595,1.51202749 C1.64948454,0.481099656 0.962199313,1.2371134 2.16494845,3.19587629 L33.2989691,53.7800687 L66.5979381,70.4467354 L33.5051546,16.6666667 C33.3676976,16.4261168 33.161512,16.2542955 32.9209622,16.1168385 L3.67697595,1.51202749 Z" id="XMLID_101_" fill="#808184"></path>
            <path d="M33.2989691,83.9862543 C33.2989691,85.6701031 32.0618557,86.4604811 30.5498282,85.7044674 L1.8556701,71.3402062 C0.824742268,70.8247423 0,69.4845361 0,68.3505155 L0,1.71821306 C0,0.58419244 0.824742268,0.0687285223 1.8556701,0.58419244 L32.8865979,16.1168385 C33.1271478,16.2542955 33.2989691,16.4948454 33.2989691,16.7697595 L33.2989691,83.9862543 Z" id="XMLID_100_" fill="#58595B"></path>
        </g>
    </g>
</svg>