<?xml version="1.0" encoding="UTF-8"?>
<svg width="100px" height="96px" viewBox="0 0 100 96" version="1.1" xmlns="http://www.w3.org/2000/svg" xmlns:xlink="http://www.w3.org/1999/xlink">
    <!-- Generator: Sketch 46.2 (44496) - http://www.bohemiancoding.com/sketch -->
    <title>meetup-logo-m-swarm</title>
    <desc>Created with Sketch.</desc>
    <defs></defs>
    <g id="Page-1" stroke="none" stroke-width="1" fill="none" fill-rule="evenodd">
        <g id="meetup-logo-m-swarm" fill-rule="nonzero">
            <path d="M71.4900154,82.8110599 C69.5084485,84.1781874 69.0168971,86.8970814 70.3840246,88.8632873 C71.7511521,90.8448541 74.4700461,91.3364055 76.4516129,89.969278 C78.4331797,88.6021505 78.9247312,85.8832565 77.5576037,83.9170507 C76.1904762,81.9354839 73.4715822,81.4439324 71.4900154,82.8110599 M46.0522273,90.4147465 C44.8233487,91.2596006 44.53149,92.9339478 45.3609831,94.1474654 C46.2058372,95.3609831 47.8801843,95.6682028 49.093702,94.8387097 C50.3225806,93.9938556 50.6144393,92.3195084 49.7849462,91.1059908 C48.9554531,89.8771121 47.281106,89.5852535 46.0522273,90.4147465 M15.1612903,77.9262673 C15.3917051,78.9708141 16.4208909,79.6313364 17.4654378,79.4162826 C18.5099846,79.1858679 19.1705069,78.156682 18.9554531,77.1121352 C18.7250384,76.0675883 17.6958525,75.4070661 16.6513057,75.6221198 C15.5913978,75.8525346 14.9308756,76.8817204 15.1612903,77.9262673 M7.71121352,48.0184332 C9.01689708,46.1290323 8.52534562,43.5330261 6.6359447,42.2427035 C4.74654378,40.93702 2.15053763,41.4285714 0.844854071,43.3179724 C-0.460829493,45.2073733 0.0307219662,47.8033794 1.92012289,49.093702 C3.82488479,50.3993856 6.42089094,49.9078341 7.71121352,48.0184332 M21.9354839,21.1981567 C23.3640553,20.1996928 23.7327189,18.2334869 22.734255,16.8049155 C21.7357911,15.3763441 19.7695853,15.0076805 18.3410138,16.0061444 C16.9124424,17.0046083 16.5437788,18.9708141 17.5422427,20.3993856 C18.5253456,21.827957 20.5069124,22.1812596 21.9354839,21.1981567 M31.3517665,1.82795699 C31.0906298,0.629800307 29.9231951,-0.122887865 28.7250384,0.138248848 C27.5268817,0.399385561 26.7741935,1.56682028 27.0353303,2.76497696 C27.296467,3.96313364 28.4639017,4.71582181 29.6620584,4.4546851 C30.8448541,4.19354839 31.6129032,3.02611367 31.3517665,1.82795699 M59.5391705,4.74654378 C58.3717358,2.79569892 55.8371736,2.16589862 53.8709677,3.33333333 C51.9201229,4.50076805 51.2903226,7.03533026 52.4577573,8.98617512 C53.625192,10.93702 56.1597542,11.5668203 58.1259601,10.3993856 C60.0768049,9.23195084 60.7219662,6.69738863 59.5391705,4.74654378 M79.8003072,34.2396313 C80.1075269,30.1536098 79.093702,25.9293395 76.5745008,22.2887865 C71.6743472,15.1920123 62.718894,12.5960061 54.9615975,15.3917051 C48.0337942,10.952381 38.8786482,10.7680492 31.6897081,15.7296467 C28.0491551,18.2488479 25.453149,21.7050691 23.9938556,25.5453149 C21.8740399,25.8371736 19.7849462,26.5437788 17.9109063,27.8341014 C11.7050691,32.1198157 10.0614439,40.4761905 14.0092166,46.8202765 C8.66359447,51.7204301 7.43471582,59.8617512 11.4900154,66.1597542 C13.9016897,69.8924731 17.6804916,72.1351767 21.7511521,72.8110599 C21.827957,75.8525346 22.734255,78.9093702 24.6082949,81.6129032 C29.6927803,88.9861751 39.8003072,90.8294931 47.1735791,85.7296467 C47.4500768,85.5299539 47.6651306,85.2841782 47.9416283,85.0844854 C52.0430108,88.7557604 58.218126,89.3548387 62.9493088,86.0829493 C65.46851,84.3471582 67.0814132,81.797235 67.7880184,79.047619 C71.4900154,79.1858679 75.2534562,78.2488479 78.5407066,75.9754224 C86.40553,70.5376344 88.5253456,59.9078341 83.4869432,51.8894009 C87.5268817,48.4792627 88.4024578,42.5192012 85.2995392,38.1259601 C83.8863287,36.1751152 81.9354839,34.8847926 79.8003072,34.2396313 M88.6943164,31.7204301 C90.2918587,30.6144393 90.6912442,28.4331797 89.5852535,26.8356375 C88.4792627,25.2380952 86.2980031,24.8387097 84.7004608,25.9447005 C83.1029186,27.0506912 82.703533,29.2319508 83.8095238,30.8294931 C84.9001536,32.4270353 87.0967742,32.8264209 88.6943164,31.7204301 M95.499232,52.2734255 C95.1920123,50.8602151 93.8095238,49.969278 92.3963134,50.2611367 C90.9831029,50.5683564 90.0921659,51.9508449 90.3993856,53.3640553 C90.7066052,54.7772657 92.0890937,55.6682028 93.5023041,55.3763441 C94.9001536,55.0844854 95.7910906,53.6866359 95.499232,52.2734255 M99.9231951,39.6774194 C99.6927803,38.6328725 98.6635945,37.9569892 97.6190476,38.187404 C96.5745008,38.4178187 95.8986175,39.4470046 96.1290323,40.4915515 C96.359447,41.5360983 97.3886329,42.2119816 98.4485407,41.9815668 C99.4930876,41.7665131 100.15361,40.7219662 99.9231951,39.6774194" id="Shape" fill="#86888B"></path>
            <path d="M70.3686636,65.6374808 C69.7695853,61.797235 62.6574501,64.7619048 62.2273425,60.5529954 C61.6129032,54.5929339 70.4761905,41.7357911 69.7695853,36.7434716 C69.1397849,32.2580645 66.1136713,31.3056836 63.4715822,31.2596006 C60.906298,31.2135177 60.2304147,31.6282642 59.3701997,32.1198157 C58.8786482,32.4116743 58.156682,32.9800307 57.1582181,32.0430108 C56.4976959,31.4132104 56.0522273,30.9677419 55.3609831,30.4147465 C55.0076805,30.1228879 54.4393241,29.7695853 53.4869432,29.6313364 C52.5345622,29.4930876 51.3056836,29.6313364 50.5222734,29.969278 C49.7388633,30.3072197 49.124424,30.890937 48.4792627,31.4592934 C47.8341014,32.0122888 46.2058372,33.8402458 44.6850998,33.1797235 C44.0245776,32.8878648 41.781874,31.7665131 40.1689708,31.0752688 C37.0506912,29.7235023 32.5652842,31.9047619 30.93702,34.7926267 C28.5253456,39.06298 23.7788018,55.8678955 23.0568356,58.0952381 C21.4439324,63.0721966 25.0998464,67.1274962 30.030722,66.8970814 C32.1198157,66.8049155 33.5023041,66.0368664 34.8233487,63.640553 C35.5913978,62.2580645 42.734255,43.5791091 43.2718894,42.6728111 C43.655914,42.0276498 44.9462366,41.1674347 46.0368664,41.7204301 C47.1274962,42.2734255 47.3425499,43.4408602 47.1889401,44.546851 C46.9278034,46.328725 41.8740399,57.7265745 41.6897081,59.0168971 C41.3671275,61.2135177 42.3963134,62.4270353 44.6850998,62.5499232 C46.2519201,62.6267281 47.8033794,62.0737327 49.0322581,59.7388633 C49.7235023,58.4331797 57.6804916,42.5038402 58.3870968,41.4439324 C59.1551459,40.2764977 59.7849462,39.8924731 60.5683564,39.9385561 C61.1827957,39.969278 62.1658986,40.1228879 61.9201229,41.9508449 C61.6743472,43.7480799 55.2841782,55.437788 54.6082949,58.2949309 C53.7173579,62.1198157 55.8064516,65.9907834 59.2780338,67.6958525 C61.4900154,68.7557604 71.1520737,70.6144393 70.3686636,65.6374808" id="Shape" fill="#FFFFFF"></path>
        </g>
    </g>
</svg>