<?xml version="1.0" encoding="utf-8"?>
<!-- Generator: Adobe Illustrator 22.1.0, SVG Export Plug-In . SVG Version: 6.00 Build 0)  -->
<svg version="1.1" id="Calque_1" xmlns="http://www.w3.org/2000/svg" xmlns:xlink="http://www.w3.org/1999/xlink" x="0px" y="0px"
	 viewBox="0 0 300 300" style="enable-background:new 0 0 300 300;" xml:space="preserve">
<style type="text/css">
	.st0{fill:#C2ADF4;}
	.st1{fill:#288AFC;}
	.st2{fill:#FFFFFF;}
	.st3{fill:#BBD9FD;}
	.st4{fill:#F4383C;}
	.st5{fill:#21385E;}
	.st6{fill:#FF8E8E;}
	.st7{fill:#2BD1D4;}
	.st8{fill:#0F1523;}
	.st9{fill:#B7F6F7;}
	.st10{fill:#F52D2D;}
	.st11{fill:#FEFEFE;}
	.st12{fill:#FD9E2A;}
	.st13{fill:#0DCBCF;}
	.st14{fill:#ACF5F7;}
	.st15{fill:#FFDEC1;}
	.st16{fill:#FF9300;}
	.st17{fill:#3281EE;}
	<![CDATA[
		#w {
		/* animation:hero-octonaut 2s alternate ease-in-out infinite;will-change:transform;-webkit-user-select:none;user-select:none */

		 animation: zen_woman 2s ease-in-out alternate infinite;
		  }


		@keyframes zen_woman {
		  0% {
		  /*  transform: scale(1.0); */
		    transform: translateY(-8px);
		  }
		  100% {
		    /* transform: scale(1.1); */
		    transform: translateY(8px);
		  }
		}
	]]>
</style>
<g id="circles">
	<path class="st0" d="M150,285.1C75,285.1,13.9,224,13.9,149S75,12.9,150,12.9S286.1,74,286.1,149S225,285.1,150,285.1z M150,21.9
		c-70.1,0-127.1,57-127.1,127.1s57,127.1,127.1,127.1s127.1-57,127.1-127.1S220.1,21.9,150,21.9z"/>
</g>
<g id="chart">
	<g id="_x31_6px_9_" transform="translate(-224.000000, -224.000000)">
		<g id="graph_9_">
			<path class="st1" d="M480.7,314.6c-10.8,0-20-8.1-21.4-18.7c-1.6-11.8,6.7-22.8,18.5-24.4l1.5-0.2l2.7,20l20-2.7l0.2,1.5
				c0.8,5.7-0.7,11.4-4.2,16s-8.6,7.6-14.3,8.4C482.7,314.6,481.7,314.6,480.7,314.6z"/>
			<path class="st2" d="M478,273l2.7,20l20-2.7c1.5,11-6.2,21.2-17.3,22.7c-0.9,0.1-1.9,0.2-2.8,0.2c-9.9,0-18.6-7.3-20-17.4
				C459.2,284.6,467,274.5,478,273 M480.6,269.6l-3,0.4c-12.7,1.7-21.6,13.4-19.8,26.1c1.6,11.4,11.4,20,22.9,20
				c1.1,0,2.1-0.1,3.2-0.2c6.1-0.8,11.6-4,15.3-8.9c3.7-4.9,5.3-11,4.5-17.2l-0.4-3l-3,0.4l-17,2.3l-2.3-17L480.6,269.6L480.6,269.6
				z"/>
		</g>
	</g>
	<g>
		<path class="st3" d="M261.3,36.2l1.5-0.2c1-0.1,2-0.2,3-0.2c10.8,0,20,8.1,21.5,18.7l0.2,1.5l-23,3.1L261.3,36.2z"/>
		<path class="st2" d="M265.7,37.3c9.9,0,18.6,7.3,20,17.4c-5.7,0.8-20,2.7-20,2.7l-2.7-20C263.9,37.3,264.8,37.3,265.7,37.3
			 M265.7,34.3L265.7,34.3c-1.1,0-2.1,0.1-3.2,0.2l-3,0.4l0.4,3l2.7,20l0.4,3l3-0.4l20-2.7l3-0.4l-0.4-3
			C287.1,42.9,277.2,34.3,265.7,34.3L265.7,34.3z"/>
	</g>
</g>
<g id="bg">
</g>
<g id="w">
	<path class="st4" d="M142.9,99.1c1,0.8,2,1.5,3.1,2.2c1.4,1,2.9,1.9,4,3.2c5.6,6.7-1.7,18.6,4.1,25.1c1.7,1.9,4.3,2.9,6.2,4.7
		c3.8,3.4,4.4,9,5.2,14c0.9,5,2.9,10.7,7.7,12.4c2,0.7,4.2,0.6,6.3,0.2c5-0.8,9.8-3.1,12.9-7.1c3.1-4,4-9.8,1.6-14.2
		c-1.9-3.4-5.5-5.5-7.3-8.9c-2.1-3.7-1.8-8.3-3.2-12.4c-3.3-9.6-14.6-13.8-20.3-22.2c-5.7-8.6-5.7-21.7-14.9-26.4L142.9,99.1z"/>
	<path class="st5" d="M210.7,138.3c-1.9-3.4-5.5-5.5-7.3-8.9c-2.1-3.7-1.8-8.3-3.2-12.4c-3.3-9.6-14.6-13.8-20.3-22.2
		c-5.7-8.6-5.7-21.7-14.9-26.4c-6.7-3.4-14.8-0.3-22.2-1.4c-1.9-0.3-4.4-0.3-4.8,1.5c-0.1,0.7,0.1,1.4,0.4,2c1.1,2.6,2.3,5,3.7,7.4
		C128.9,81.8,130.4,99,130.4,99c4.3-1.7,8.6-6.9,11.8-11.9c3.7,5.7,11.8,8.9,17.4,10.5c1,0.8,2,1.5,3.1,2.2c1.4,1,2.9,1.9,4,3.2
		c5.6,6.7-1.7,18.6,4.1,25.1c1.7,1.9,4.3,2.9,6.2,4.7c3.8,3.4,4.4,9,5.2,14c0.9,5,2.9,10.7,7.7,12.4c2,0.7,4.2,0.6,6.3,0.2
		c5-0.8,9.8-3.1,12.9-7.1C212.2,148.5,213.2,142.7,210.7,138.3z"/>
	<path class="st6" d="M217.8,176.7c4.2-3.8,4.7-10.2,7-15.5c0.2-0.5,0.4-0.9,0.7-1.4c0.3-0.8,0.7-1.6,1.4-2.2
		c0.9-0.8,2.1-1.1,3.2-1.3c0.5-0.1,1.1-0.2,1.6,0s0.8,0.7,0.8,1.2s-0.3,1-0.7,1.3c-0.3,0.2-0.7,0.2-1.1,0.4
		c-1.1,0.3-2.1,1.1-2.5,2.2c-0.1,0.4-0.2,0.7-0.2,1.1c0,0.1,0,0.2,0.1,0.3c0.5,2.1,2.9,3.6,5,3c1.1-0.3,2.1-1.2,2.4-2.3
		c0.1-0.3,0.1-0.5,0.1-0.8c-0.3-0.7-0.8-1.4-1.5-1.8c-0.3-0.2-0.7-0.4-1-0.7c-0.3-0.4-0.5-0.9-0.3-1.4s0.6-0.9,1.1-0.9
		c0.6-0.1,1.1,0.2,1.6,0.4c1,0.6,2.1,1.2,2.7,2.2c0.8,1.1,0.9,2.6,0.6,4c0,0.1-0.1,0.2-0.1,0.4c1.2-1.9,1.8-4.1,2.4-6.2
		c0.3-1.1,1.2-2.6,2.3-2.2c0.4,0.1,0.7,0.5,1,0.9c1.7,2.4,0,4.6-0.4,7.5c-0.3,2-0.8,3.9-1.6,5.7c-0.9,1.8-2.2,3.5-4.1,4.1
		c-0.8,0.3-1.7,0.3-2.5,0.4c-5.3,0.6-8.7,3.5-13.1,6.6c-0.3,0.2-0.7,0.5-1.1,0.4c-0.2-0.1-0.4-0.2-0.6-0.4
		C219.6,180.2,218.5,178.5,217.8,176.7z"/>
	<path class="st6" d="M79.6,176.7c-4.2-3.8-4.7-10.2-7-15.5c-0.2-0.5-0.4-0.9-0.7-1.4c-0.3-0.8-0.7-1.6-1.4-2.2
		c-0.9-0.8-2.1-1.1-3.2-1.3c-0.6-0.1-1.1-0.2-1.7,0c-0.5,0.2-0.8,0.7-0.8,1.2s0.3,1,0.7,1.3c0.3,0.2,0.7,0.2,1.1,0.4
		c1.1,0.3,2.1,1.1,2.5,2.2c0.1,0.4,0.2,0.7,0.2,1.1c0,0.1,0,0.2-0.1,0.3c-0.5,2.1-2.9,3.6-5,3c-1.1-0.3-2.1-1.2-2.4-2.3
		c-0.1-0.3-0.1-0.5-0.1-0.8c0.3-0.7,0.8-1.4,1.5-1.8c0.3-0.2,0.7-0.4,1-0.7c0.3-0.4,0.5-0.9,0.3-1.4s-0.6-0.9-1.1-0.9
		c-0.6-0.1-1.1,0.2-1.6,0.4c-1,0.6-2.1,1.2-2.7,2.2c-0.8,1.1-0.9,2.6-0.6,4c0,0.1,0.1,0.2,0.1,0.4c-1.2-1.9-1.8-4.1-2.4-6.2
		c-0.3-1.1-1.2-2.6-2.3-2.2c-0.4,0.1-0.7,0.5-1,0.9c-1.7,2.4,0,4.6,0.4,7.5c0.3,2,0.8,3.9,1.6,5.7c0.9,1.8,2.2,3.5,4.1,4.1
		c0.8,0.3,1.7,0.3,2.5,0.4c5.3,0.6,8.7,3.5,13.1,6.6c0.3,0.2,0.7,0.5,1.1,0.4c0.2-0.1,0.4-0.2,0.6-0.4
		C77.7,180.2,78.8,178.5,79.6,176.7z"/>
	<path class="st7" d="M219.4,166.8c-7.2,5.3-11.5,6.7-12.8,7l-0.3-0.1l-1.4,0.3c-0.3-0.1-0.9-0.5-1.5-1.1c-1.4-1.6-2.6-4.3-3.8-7.1
		l-0.4-1c-4.5-10.4-10-20.5-16.4-29.9c-1.9-2.7-5.3-7.8-11-10.7c-0.5-1.5-1-3-2-4.1c-1.5-1.6-3.6-1.7-5.5-1.7c-3.2,0-6.5,0-9.7,0
		l-0.1-1.7l-19.8,1.6c-0.3,0-0.7,0.1-1.1,0.1c-1.2,0-2.4,0-3.5,0.4c-2.3,0.4-4.8,1-7.2,2.2c-5.8,2.9-10.1,10.4-12,13.1
		c-6.4,9.4-7.9,20.2-12.4,30.6l-0.4,1c-1.2,2.8-2.3,5.5-3.8,7.1c-0.5,0.6-1,0.9-1.3,1l-0.4-0.4l-1.5,0.2c-1.2-0.3-5.6-1.6-12.9-7
		l-11.6,15.7c11.6,8.6,19.4,10.4,22.8,10.8c1.1,0.2,2.2,0.3,3.4,0.3c5.9,0,11.8-2.8,16.2-7.8c3.5-4,5.4-8.4,7.1-12.3l0.4-1
		c2-4.6,4.2-9,6.5-13.4c0,3.6-0.1,7.2-0.3,10.7c-0.4,6.1-1.3,12.5-3.9,17.5l30.2-2.5l30.2,2.5c-2.6-5-3.5-11.4-3.9-17.5
		c-0.2-3.4-0.3-6.9-0.3-10.4c2.3,4.3,4.5,8.6,6.4,13.1l0.4,1c1.7,3.9,3.6,8.3,7.1,12.3c4.4,5,10.3,7.8,16.2,7.8
		c1.1,0,2.3-0.1,3.4-0.3c3.4-0.4,11.2-2.2,22.8-10.8L219.4,166.8z"/>
	<path class="st4" d="M130.1,98.8c-3.8-3.9-5.6-9.5-4.7-14.9c1.1-6.4,5.6-11.6,10.6-15.9c0.9-0.8,3.1-2.8,5.5-3.2
		c8.2-1.3,29.8-1,29.4,12.4c-0.1,4-1.1,10.5-0.9,14.5c0.1,2,0.3,4.1-0.4,6c-0.8,1.9-2.9,3.4-4.8,2.8"/>
	<circle class="st6" cx="147.9" cy="99.1" r="17.5"/>
	<path class="st8" d="M132.5,109.4"/>
	<path class="st6" d="M155,108.1c-4.6,1.3-9.5,1.9-14.4,1.8c0,3.4,0.3,5.5,0.2,8.8c1.5,1.7,5.1,3.4,7.3,3.4c2.9,0,4.9-1.1,7.4-3.7
		C155.2,114.5,155.2,112.1,155,108.1z"/>
	<path class="st2" d="M152.7,106.8c0.6,0,1,0.5,0.9,1.1c-0.5,2.4-2.6,4.1-5.1,4.1s-4.6-1.8-5.1-4.1c-0.1-0.6,0.3-1.1,0.9-1.1H152.7z
		"/>
	<path class="st4" d="M210.7,138.3c-1.9-3.4-5.5-5.5-7.3-8.9c-2.1-3.7-1.8-8.3-3.2-12.4c-3.3-9.6-14.6-13.8-20.3-22.2
		c-5.7-8.6-5.7-21.7-14.9-26.4c-6.7-3.4-14.8-0.3-22.2-1.4c-1.9-0.3-4.4-0.3-4.8,1.5c-0.1,0.7,0.1,1.4,0.4,2c1.1,2.6,2.3,5,3.7,7.4
		C128.9,81.8,130.4,99,130.4,99c4.3-1.7,8.6-6.9,11.8-11.9c3.7,5.7,11.8,8.9,17.4,10.5c1,0.8,2,1.5,3.1,2.2c1.4,1,2.9,1.9,4,3.2
		c5.6,6.7-1.7,18.6,4.1,25.1c1.7,1.9,4.3,2.9,6.2,4.7c3.8,3.4,4.4,9,5.2,14c0.9,5,2.9,10.7,7.7,12.4c2,0.7,4.2,0.6,6.3,0.2
		c5-0.8,9.8-3.1,12.9-7.1C212.2,148.5,213.2,142.7,210.7,138.3z"/>
	<path class="st3" d="M174.3,181.1h-24.8h-1.9h-24.8c0,0-42,11.6-42,42.5c0,28.7,59.5-2,67.7-6.4c8.2,4.4,67.7,35.1,67.7,6.4
		C216.3,192.8,174.3,181.1,174.3,181.1z"/>
</g>
<g id="health">
	<path class="st2" d="M38,98.9L38,98.9c-1.7-0.1-3.7-0.7-5.6-2.7c-0.5,0.1-1,0.1-1.4,0.1h-0.4c-3.5-0.4-6-3-7.4-7.6v-0.1
		c-0.4-1.3-4-17.1-7.3-31.9c-0.9-3.8-1.5-6.4-1.5-6.6c-1.5-6.6,2.3-9.2,4.7-10.2l0.2-0.1c0.3-0.1,0.8-0.2,5.3-1.5
		c6.4-1.7,17.1-4.6,21-5.8h0.2c0.3-0.1,0.6-0.2,0.9-0.2c0.9-0.3,2-0.5,3.1-0.7c3-0.6,5.6-0.2,7.6,1c1.9,0.5,3.5,1.5,4.8,3.2
		c1.4,1.8,2,3.9,2.5,5.7c2.4,5.4,11.7,34.8,12.2,37v0.2c0.2,0.9,0.5,2.2,0.1,3.7c-0.3,1.5-1.2,3.9-4.4,5.3
		C72.3,87.7,42.2,98.9,38,98.9z M35.8,88.5l1.3,2.1c0.2,0.4,0.7,1.1,1.1,1.3c4-0.7,29.4-9.8,31.7-10.7c0.1-0.1,0.2-0.1,0.3-0.2
		l0.1-0.5c0-0.1-0.1-0.2-0.1-0.3L70.1,80c-0.6-2.8-10.2-32.3-11.8-35.8l-0.1-0.3L58,43.5c-0.4-1.6-0.8-2.8-1.4-3.6
		c-0.4-0.5-0.7-0.6-1.1-0.7l-0.8-0.1L54,38.6c-0.5-0.4-1.6-0.4-3-0.2h-0.1c-0.8,0.1-1.6,0.3-2.4,0.6c-0.3,0.1-0.6,0.2-1,0.2
		c-4,1.2-14.7,4.1-21.1,5.8c-2.2,0.6-4.3,1.2-4.9,1.3c-0.6,0.2-0.7,0.4-0.3,2c0,0.1,0.2,0.9,1.5,6.7c2.2,9.7,6.8,29.7,7.2,31.6
		c0.5,1.6,1,2.4,1.4,2.6c0.4,0,1-0.1,1.9-0.3L35.8,88.5z M70.4,80.1C70.4,80.1,70.4,80.2,70.4,80.1L70.4,80.1z"/>
	<g>
		<path class="st7" d="M58.9,42.3c-0.3-1.8-0.7-3.5-1.6-4.9c-1.5-2.5-4.1-2.7-7-2.2c-1.3,0.2-2.6,0.6-3.8,0.9
			c-5.5,1.5-25.5,6.8-26.1,7c-3,1.2-3.2,3.5-2.6,6.1c0.1,0.4,8.3,36.5,8.8,38.4c0.8,2.6,2.1,4.9,4.5,5.2c2.5,0.3,32.5-7.6,33.9-8.1
			c1.7-0.6,2.5-1.5,2.7-2.7c0.3-0.6,0.2-1.3,0.1-2.2C67.5,77.4,60.4,46.4,58.9,42.3"/>
		<path class="st9" d="M61.4,42.6c-0.5-1.8-1-3.5-2-4.8c-1.7-2.3-4.4-2.3-7.2-1.6c-1.3,0.3-2.6,0.8-3.7,1.2
			c-5.4,2-24.8,9.1-25.4,9.4c-2.9,1.4-2.9,3.7-2,6.3c0.1,0.4,11.4,35.6,12.1,37.4c1,2.5,2.5,4.7,5,4.8c2.5,0.1,31.7-10.4,33.1-11
			c1.6-0.7,2.3-1.7,2.4-2.9c0.2-0.6,0.1-1.3-0.1-2.2C73,76.9,63.3,46.6,61.4,42.6"/>
		<path class="st6" d="M57.6,54.8c-4.4-3.9-11-1.2-12.6,3.8c-4.1-3.3-11.1-2-12.6,3.8c-1,3.9,0.8,8,3.8,10.6c4.2,3.5,9.7,2.1,13.9,5
			c0.3,0.2,0.5,0.2,0.8,0.1c0.2,0,0.5-0.2,0.6-0.5c1.9-4.8,7.3-6.6,8.8-11.8C61.3,62,60.6,57.5,57.6,54.8"/>
		<path class="st10" d="M52.9,64.7c-0.8,0.2-1.6,0.5-2.5,0.7c-0.4,0.1-0.6,0.4-0.7,0.8c-0.2,1-0.4,2-0.5,3.1
			c-1.1-2.1-2.3-4.3-3.4-6.4c-0.4-0.8-1.5-0.4-1.6,0.4c-0.2,1.4-0.3,2.8-0.5,4.2c-0.6,0.2-1.2,0.4-1.9,0.6c-1.1,0.3-0.7,2,0.4,1.7
			c0.8-0.2,1.6-0.5,2.4-0.7c0.4-0.1,0.6-0.4,0.7-0.8c0.1-0.7,0.2-1.3,0.2-2l3.3,6.2c0.4,0.8,1.5,0.4,1.6-0.4c0.3-1.7,0.6-3.3,0.9-5
			c0.6-0.2,1.3-0.4,1.9-0.6C54.3,66.1,53.9,64.4,52.9,64.7"/>
	</g>
</g>
<g id="photo">
	<path class="st11" d="M170.7,46.5h-0.8c-0.1,0-0.7,0-1.3-0.1c-0.5,0-0.9,0-1,0c-5.4-0.2-11-1-16.8-2.3c-3.3-0.8-6.5-1.8-9.6-2.8
		c-2.3-0.8-4.8-1.8-7.3-3.5c-0.7-0.4-1.3-1-1.6-1.7c-0.7-1.3-0.3-2.4,0.6-4.8L133,31c3.3-8.5,6-17.6,8.1-27l0.1-0.3
		c0.6-1.9,2.4-3,4.3-2.7c0.4,0,1,0.1,1.7,0.4c8.6,4,18.4,5.9,28.2,5.4h0.1c1.1-0.2,2.3,0.1,3.2,0.8c1.1,0.9,1.6,2.2,1.4,3.6
		c-1.7,12-3.4,22.5-5.3,32.2v0.1c-0.3,1.2-1,2.1-2.1,2.6C171.8,46.5,171,46.5,170.7,46.5z M167.7,40.4c0.2,0,0.7,0,1.2,0.1
		c0.1,0,0.1,0,0.2,0c1.6-8.5,3.2-17.6,4.6-27.7c-9.5,0.2-18.8-1.6-27.4-5.2c-2,8.9-4.6,17.5-7.8,25.6l-0.1,0.2
		c0,0.1-0.1,0.2-0.1,0.3c1.6,0.9,3.2,1.5,4.7,2.1c2.9,1,5.9,1.8,9,2.6C157.5,39.5,162.8,40.2,167.7,40.4L167.7,40.4z M137.9,35.2
		L137.9,35.2L137.9,35.2z M144.5,6.8h0.1H144.5z M144.4,6.7C144.5,6.7,144.5,6.8,144.4,6.7C144.5,6.8,144.5,6.7,144.4,6.7z"/>
	<g>
		<path class="st2" d="M170.2,34.9c-10.5-1.2-21.3-2.4-30.8-7.2c2.5-7.1,4.6-14.4,6.2-21.7c9.1,4.1,19.1,6,29.1,5.7
			C173.8,19.5,172.3,27.2,170.2,34.9"/>
		<path class="st7" d="M167.1,35.6c-3.9-2.6-6.9-6.1-9.9-9.6c-1.4-1.7-2.8-3.4-4.4-4.9c-0.7-0.7-1.5-1-2.5-0.6
			c-1.2,0.4-2.4,1-3.5,1.5c-2.6,1.2-5.2,2.5-7.8,3.8c-0.1-0.1-0.2-0.1-0.2,0c-0.2,0.5-0.5,1-0.7,1.5c-0.2,0.3-0.3,0.7-0.3,1
			c0.1,0.7,1,1,1.5,1.2c2,0.7,4.2,1,6.3,1.5c4.5,1,9,2,13.5,3c2.6,0.6,5.1,1.2,7.6,1.8c0.1,0,0.1,0,0.1-0.1c0,0,0,0,0.1,0.1
			C167,35.9,167.2,35.7,167.1,35.6"/>
		<path class="st7" d="M173.1,25.2c-0.1-0.5-0.6-0.8-1-1.1c-0.9-0.8-2-1.4-3-2.1c-0.5-0.3-1-0.6-1.6-0.9c-0.4-0.3-0.9-0.5-1.4-0.5
			s-1,0.3-1.5,0.5c-0.7,0.3-1.3,0.6-2,0.9c-2.6,1.3-5.2,2.7-7.7,4.2c-2.4,1.4-4.8,3-6.9,5c-0.1,0.1,0,0.2,0,0.2
			c-0.4,0.4-1,0.3-1.4,0.6c-0.3,0.2-0.4,0.5-0.5,0.9c-0.2,1,0,2.2,0.5,3.1c0.5,0.9,1.5,1,2.4,1.2c1.3,0.3,2.6,0.5,4,0.7
			c2.7,0.3,5.4,0.5,8,0.6c1.3,0.1,2.7,0.2,4,0.3c1.2,0.1,2.5,0.4,3.7,0.3c0.6-0.1,1.2-0.2,1.7-0.5c0.4-0.2,0.9-0.3,1.2-0.7
			c0.3-0.3,0.4-0.8,0.5-1.2c0.2-0.7,0.3-1.4,0.5-2.1c0.2-1.3,0.3-2.5,0.4-3.8c0-1.4-0.2-2.9-0.1-4.3C173,26.1,173.2,25.7,173.1,25.2
			"/>
		<path class="st3" d="M175.7,9.7c-0.1,0-0.2,0-0.3,0C165.2,10.2,155,8.3,145.7,4c-0.2-0.1-0.4-0.1-0.6-0.1c-0.5-0.1-1,0.1-1.2,0.7
			c-2,9.4-4.7,18.6-8.2,27.5c-0.1,0.3-0.9,2.5-0.8,2.7c0.1,0.2,0.3,0.4,0.5,0.5c2.2,1.5,4.4,2.4,6.7,3.2c3,1,6.1,1.9,9.3,2.7
			c5.3,1.2,10.8,2,16.2,2.2c0.2,0,2.1,0.1,2.3,0.1c0.3,0,0.5,0,0.8,0c0.2,0,0.3,0,0.4-0.1c0.3-0.1,0.5-0.3,0.6-0.7
			c2.1-10.6,3.8-21.2,5.3-31.9C177.1,9.9,176.3,9.5,175.7,9.7 M170.2,34.9c-10.5-1.2-21.3-2.4-30.8-7.2c2.5-7.1,4.6-14.4,6.2-21.7
			c9.1,4.1,19.1,6,29.1,5.7C173.8,19.5,172.3,27.2,170.2,34.9"/>
		<path class="st12" d="M164.4,14.5c-0.9-1-2.4-1.1-3.4-0.4l0,0c-0.5,0.3-0.8,0.7-1,1.2c-0.5,0.8-0.4,1.9,0.3,2.6
			c1,1.1,2.8,1.2,3.9,0.3C165.4,17.2,165.3,15.6,164.4,14.5"/>
	</g>
</g>
<g id="g_x5F_recipes">
	<g>
		<g id="_x33_2px_10_" transform="translate(-224.000000, -224.000000)">
			<g id="icons_10_" transform="translate(32.000000, 32.000000)">
				<g id="analytics-02_10_" transform="translate(193.000000, 193.000000)">
					<path id="Rectangle-4_10_" class="st13" d="M148,238.4l26.6,30.8c1.1,1.3,1.3,3.1,0.3,3.9l-22.8,19.7c-1,0.8-2.7,0.4-3.8-0.9
						l-26.6-30.8c-1.1-1.3-1.3-3.1-0.3-3.9l22.8-19.6C145.2,236.7,146.9,237.1,148,238.4z"/>
				</g>
			</g>
		</g>
		<g id="_x33_2px_9_" transform="translate(-224.000000, -224.000000)">
			<g id="icons_9_" transform="translate(32.000000, 32.000000)">
				<g id="analytics-02_9_" transform="translate(193.000000, 193.000000)">
					<path id="Rectangle-4_9_" class="st14" d="M154.1,238.5l26.6,30.8c1.1,1.3,1.3,3.1,0.3,3.9l-22.8,19.7c-1,0.8-2.7,0.4-3.8-0.9
						l-26.6-30.8c-1.1-1.3-1.3-3-0.3-3.9l22.8-19.7C151.3,236.8,153,237.2,154.1,238.5z"/>
					<path id="Combined-Shape_9_" class="st13" d="M137.6,254.8c1-0.8,2.4-0.7,3.3,0.2c0.8,1,0.7,2.4-0.2,3.3l-3.5,3
						c-1,0.8-2.4,0.7-3.3-0.2c-0.8-1-0.7-2.4,0.2-3.3L137.6,254.8z M161.7,261.5c1-0.8,2.4-0.7,3.3,0.2c0.8,1,0.7,2.4-0.2,3.3
						l-14.1,12.1c-1,0.8-2.4,0.7-3.3-0.2c-0.8-1-0.7-2.4,0.2-3.3L161.7,261.5z M150.1,262.3c1-0.8,2.4-0.7,3.3,0.2
						c0.8,1,0.7,2.4-0.2,3.3l-7,6c-1,0.8-2.4,0.7-3.3-0.2c-0.8-1-0.7-2.4,0.2-3.3L150.1,262.3z M149.1,254c1-0.8,2.4-0.7,3.3,0.2
						c0.8,1,0.7,2.4-0.2,3.3l-10.5,9.1c-1,0.8-2.4,0.7-3.3-0.2c-0.8-1-0.7-2.4,0.2-3.3L149.1,254z"/>
				</g>
			</g>
		</g>
	</g>
	<g>
		<path class="st2" d="M146.5,238.1c0.9,0,1.8,0.5,2.5,1.3l0.6,0.7l1.7-1.5c0.3-0.3,0.8-0.4,1.3-0.4c0.9,0,1.8,0.5,2.5,1.3
			l26.6,30.8c1.1,1.3,1.3,3.1,0.3,3.9l-22.8,19.6c-0.3,0.3-0.8,0.4-1.3,0.4c-0.9,0-1.8-0.5-2.5-1.3l-0.6-0.7l-1.7,1.5
			c-0.3,0.3-0.8,0.4-1.3,0.4c-0.9,0-1.8-0.5-2.5-1.3L122.7,262c-1.1-1.3-1.3-3-0.3-3.9l22.8-19.6C145.5,238.3,146,238.1,146.5,238.1
			 M146.5,235.1L146.5,235.1c-1.2,0-2.4,0.4-3.2,1.2l-22.8,19.6c-2.3,2-2.3,5.5,0,8.1l26.6,30.8c1.3,1.5,3.1,2.3,4.8,2.3
			c1.1,0,2.1-0.3,2.9-0.9c1,0.6,2.1,1,3.3,1s2.3-0.4,3.2-1.2l22.8-19.7c1-0.8,1.6-2.1,1.7-3.4c0.1-1.6-0.5-3.3-1.7-4.7l-26.6-30.8
			c-1.3-1.5-3.1-2.3-4.8-2.3c-1.1,0-2.1,0.3-2.9,0.9C148.7,235.5,147.6,235.1,146.5,235.1L146.5,235.1L146.5,235.1z"/>
	</g>
</g>
<g id="y_x5F_recipes">
	<path class="st2" d="M264.6,232.8c-0.5,0-1.1-0.1-1.6-0.3c-0.6-0.3-1.2-0.7-1.6-1.2c-0.4,0-0.8-0.1-1.1-0.3c-0.5-0.2-1-0.6-1.4-1
		c-0.4,0-0.9-0.1-1.3-0.3c-0.6-0.3-1.1-0.6-1.5-1.1c-0.4,0-0.7-0.1-1.1-0.3c-0.6-0.3-1.1-0.6-1.5-1.1c-0.4,0-0.8-0.1-1.2-0.3
		c-0.6-0.3-1.1-0.6-1.5-1.1c-0.4,0-0.7-0.1-1.1-0.3c-0.6-0.3-1.1-0.6-1.5-1.1c-0.4,0-0.8-0.1-1.2-0.3c-0.6-0.3-1.1-0.6-1.5-1.1
		c-0.4,0-0.7-0.1-1.1-0.3c-0.6-0.3-1.1-0.6-1.5-1.1c-0.4,0-0.8-0.1-1.2-0.3c-0.6-0.3-1.1-0.6-1.5-1.1c-0.4,0-0.8-0.1-1.2-0.3
		c-0.6-0.3-1.1-0.6-1.5-1.1c-0.4,0-0.8-0.1-1.2-0.3c-1.7-0.7-2.7-2.5-2.5-4.3c0,0-0.1-0.4-0.1-0.6c-0.1-0.4-0.1-0.8-0.2-1.1
		c-0.2-1.7,0.6-3,1.2-3.8c0.2-0.2,0.3-0.5,0.5-0.8c1.1-2.3,2.2-4.6,3.2-6.9c0.4-0.9,0.8-1.7,1.1-2.5c1.6-3.5,3-7.2,4.6-11.8
		c1.1-2.9,2.2-6,3.1-9v-0.1c0.6-1.8,1.2-3.7,1.6-5.5l0.2-0.9l0.5-0.5c0.4-0.5,0.8-0.8,1.3-1.1c0.4-0.4,0.9-0.8,1.5-1.1
		c0.9-0.8,2.3-1.2,3.6-0.9l0,0c0.3-0.3,0.7-0.7,1.2-1c1-0.9,2.4-1.3,3.8-1c0.2-0.2,0.5-0.5,0.8-0.7c1-1,2.4-1.4,3.9-1.1
		c0.6,0.1,1.2,0.4,1.6,0.8c0.4,0,0.9,0,1.4,0.1c0.6,0.1,1.1,0.4,1.5,0.7c0.5,0,0.9,0,1.4,0.1c0.6,0.1,1.2,0.4,1.6,0.8
		c0.4,0,0.8,0,1.3,0.1c0.6,0.1,1.1,0.4,1.5,0.7c0.5,0,0.9,0,1.4,0.1c0.6,0.1,1.1,0.4,1.5,0.7c0.5,0,0.9,0,1.4,0.1
		c0.6,0.1,1.2,0.4,1.6,0.8c0.4,0,0.9,0,1.4,0.1c0.6,0.1,1.2,0.4,1.6,0.8c0.4,0,0.8,0,1.3,0.1c0.6,0.1,1.1,0.4,1.5,0.7
		c0.5,0,0.9,0,1.4,0.1c0.6,0.1,1.1,0.4,1.5,0.7c0.4,0,0.8,0,1.2,0.1l2.6,0.9c1.6,0.5,2.8,1.9,2.9,3.5c0,0.2,0.2,0.6,0.3,0.9
		c0.1,0.3,0.2,0.6,0.3,0.9l0.2,1l-3.2,12.1c-2.1,8.4-4.2,16.7-6.2,24.8c-0.3,1.2-1.7,5.8-2.2,7.2c-0.2,0.7-0.5,1.3-1.1,1.9l-0.4,0.4
		c-0.2,0.1-0.4,0.3-0.6,0.5c-0.4,0.3-0.8,0.7-1.4,1.1c-1.1,0.9-2.6,1.2-4,0.7c-0.2-0.1-0.4-0.2-0.6-0.3l0,0l-0.3,0.3l-0.3,0.2
		c-0.2,0.1-0.4,0.3-0.6,0.5c-0.4,0.3-0.8,0.7-1.4,1c-1.1,0.9-2.7,1.1-4.1,0.5c-0.3-0.1-0.6-0.3-0.9-0.6c0,0,0,0.1-0.1,0.1l-0.2,0.4
		l-0.8,0.8l-0.3,0.2c-0.3,0.2-0.5,0.3-0.7,0.5c-0.4,0.3-0.9,0.6-1.4,0.9C266.3,232.5,265.5,232.8,264.6,232.8z M267.5,229.2
		L267.5,229.2L267.5,229.2z M273.4,225.1L273.4,225.1L273.4,225.1z M259.5,225L259.5,225L259.5,225z M264.3,222.3l1.1,1.1
		c0.2-0.4,0.4-0.9,0.6-1.5v-2.7h6.6l0.2,1.1c0.3,0,0.5,0.1,0.7,0.2l6.7-22.4V218c0.1,0,0.1,0,0.2,0.1c0.6-1.8,1.2-3.9,1.4-4.5
		c2.5-10.1,5.2-20.7,7.9-31.2l-0.3-1.1l-1.6,2l-1-3.1l-1.9,2.3l-1.2-3.6l-1.9,1.9l-1-3.1l-2.2,1.7l-0.8-2.3l-1.9,1.9l-0.8-2.3
		l-1.9,2.3l-1.2-3.6l-1.9,1.9l-0.8-2.4l-1.9,2.3l-1.3-3.9l-2.2,1.7l-0.5-1.6l-4,4l-0.8-2.3c-0.2,0.2-0.5,0.4-0.7,0.6l-3.9,2.9
		l-0.1-0.2c-0.1,0.2-0.1,0.5-0.2,0.7c-0.9,3.2-2.1,6.4-3.2,9.4c-1.6,4.7-3.1,8.7-4.8,12.3c-0.4,0.8-0.7,1.7-1.1,2.5
		c-1,2.3-2.1,4.8-3.3,7.2h1.3l0.3,1.4c0.5,0.1,0.9,0.3,1.3,0.5l0,0l4.1,2v0.2c0.9,0.2,1.6,0.7,2.2,1.3c0.9,0.1,1.8,0.5,2.4,1.1
		l0.3,0.3c1.1,0.1,2,0.6,2.6,1.4c0.2,0,0.4,0,0.6,0.1h2.3l0.2,1.4c0.9,0.2,1.6,0.7,2.2,1.3h2.9L264.3,222.3L264.3,222.3z
		 M283.1,223.4L283.1,223.4L283.1,223.4z M254.2,222.2L254.2,222.2L254.2,222.2z M248.9,219.4L248.9,219.4L248.9,219.4z
		 M252.5,176.1L252.5,176.1L252.5,176.1z"/>
	<g>
		<path class="st15" d="M294.5,178.6C294.5,178.5,294.5,178.5,294.5,178.6c-0.3-0.9-0.7-1.7-0.8-2.6c0-0.6-0.9-0.7-1.1-0.3
			c-0.3,0.2-0.6,0.5-0.8,0.7c-0.1-0.4-0.3-0.8-0.3-1.2c0-0.6-0.9-0.7-1.1-0.3c-0.5,0.4-0.9,0.8-1.3,1.3c-0.2-0.6-0.5-1.2-0.5-1.8
			s-0.9-0.7-1.1-0.3c-0.5,0.4-0.9,0.8-1.3,1.3c-0.2-0.6-0.5-1.2-0.5-1.8s-0.9-0.7-1.1-0.3c-0.5,0.4-0.9,0.8-1.3,1.2
			c-0.2-0.6-0.5-1.2-0.5-1.8s-0.9-0.7-1.1-0.3c-0.5,0.4-0.9,0.9-1.4,1.3c-0.2-0.6-0.5-1.2-0.5-1.9c0-0.6-0.9-0.7-1.1-0.3
			c-0.5,0.4-0.9,0.8-1.3,1.2c-0.2-0.6-0.5-1.1-0.5-1.7c0-0.6-0.9-0.7-1.1-0.3c-0.5,0.4-0.9,0.8-1.3,1.3c-0.2-0.6-0.5-1.2-0.5-1.8
			s-0.9-0.7-1.1-0.3c-0.5,0.4-0.9,0.8-1.3,1.2c-0.2-0.6-0.5-1.2-0.5-1.8s-0.9-0.7-1.1-0.3c-0.5,0.4-0.9,0.8-1.3,1.3
			c-0.2-0.6-0.5-1.2-0.5-1.8s-0.9-0.7-1.1-0.3c-0.5,0.4-0.9,0.9-1.4,1.3c-0.2-0.6-0.5-1.2-0.5-1.9c0-0.6-0.9-0.7-1.1-0.3
			c-0.7,0.5-1.2,1.1-1.7,1.7l-0.1,0.1c0,0,0,0,0,0.1c-0.1,0-0.1,0.1-0.1,0.1l-0.1,0.1c-0.3,2-0.6,3.9-1.1,5.9
			c-0.6,3.2-1.3,6.3-2.1,9.5c-0.9,4.2-2,8.4-3.3,12.5c-1,3.2-2.1,6.7-3.3,10c-0.5,1.4-1.2,2.1-1,2.8c0.2,0.9,0.6,1.7,0.5,2.6
			c0,0.6,0.8,0.8,1.1,0.4c0.5-0.3,0.8-0.6,1.2-1c0.1,0,0.2,0.1,0.3,0.1c0.1,0.5,0.3,1,0.3,1.6s0.8,0.8,1,0.4c0.5-0.3,0.9-0.6,1.3-1
			c0.1,0,0.2,0.1,0.3,0.1c0.1,0.5,0.3,1.1,0.3,1.6c0,0.6,0.8,0.8,1.1,0.4c0.5-0.3,0.9-0.6,1.3-1l0.2,0.1c0.2,0.5,0.3,1.1,0.3,1.6
			c0,0.6,0.8,0.8,1.1,0.4c0.5-0.3,0.9-0.6,1.3-1c0.1,0,0.1,0,0.2,0.1c0.2,0.5,0.3,1.1,0.3,1.7c0,0.6,0.8,0.8,1,0.4
			c0.5-0.3,0.9-0.7,1.3-1c0.1,0,0.2,0.1,0.3,0.1c0.2,0.5,0.3,1.1,0.3,1.7c0,0.6,0.8,0.8,1.1,0.4c0.5-0.3,0.9-0.7,1.3-1h0.1
			c0.2,0.5,0.3,1.1,0.3,1.7c0,0.6,0.8,0.8,1,0.4c0.5-0.3,0.9-0.7,1.3-1c0.1,0,0.1,0.1,0.2,0.1c0.2,0.5,0.3,1.1,0.3,1.7
			c0,0.6,0.8,0.8,1.1,0.4c0.5-0.3,0.9-0.7,1.3-1c0,0,0.1,0,0.1,0.1c0.2,0.6,0.3,1.1,0.3,1.7c0,0.6,0.8,0.8,1.1,0.4
			c0.5-0.3,0.9-0.7,1.3-1.1h0.1c0.2,0.6,0.3,1.1,0.3,1.7c0,0.6,0.8,0.8,1,0.4c0.5-0.3,1-0.7,1.4-1.1c0,0,0.1,0,0.1,0.1
			c0.2,0.6,0.3,1.2,0.3,1.8s0.8,0.8,1.1,0.4c0.8-0.5,1.4-1.2,2.1-1.7c0.1-0.1,0.2-0.2,0.2-0.3l0,0c0.4-1.2,1.9-6.1,2.2-7.2
			c2.7-10.8,5.4-21.6,8.2-32.5c0-0.1,0.1-0.1,0.1-0.2c0.2-0.8,0.7-2.6,0.8-3.4C294.5,178.8,294.5,178.6,294.5,178.6"/>
		<path class="st16" d="M289.2,181.6L289.2,181.6c-0.2-0.9-0.7-1.7-0.7-2.6c0-0.6-0.8-0.8-1.1-0.3c-0.3,0.2-0.6,0.4-0.9,0.7
			c-0.1-0.4-0.2-0.8-0.2-1.3c0-0.6-0.8-0.8-1.1-0.3c-0.5,0.3-0.9,0.8-1.4,1.2c-0.2-0.6-0.4-1.2-0.4-1.9c0-0.6-0.8-0.8-1.1-0.3
			c-0.5,0.3-0.9,0.8-1.4,1.2c-0.2-0.6-0.4-1.2-0.4-1.8s-0.8-0.8-1.1-0.3c-0.5,0.3-0.9,0.8-1.4,1.2c-0.2-0.6-0.4-1.2-0.4-1.8
			s-0.8-0.8-1.1-0.3c-0.5,0.3-1,0.8-1.4,1.3c-0.2-0.6-0.5-1.2-0.5-1.9c0-0.6-0.8-0.8-1.1-0.3c-0.5,0.3-0.9,0.8-1.3,1.2
			c-0.2-0.6-0.4-1.2-0.4-1.8s-0.8-0.8-1.1-0.3c-0.5,0.3-0.9,0.8-1.4,1.2c-0.2-0.6-0.4-1.2-0.4-1.9c0-0.6-0.8-0.8-1.1-0.3
			c-0.5,0.3-0.9,0.8-1.4,1.2c-0.2-0.6-0.4-1.2-0.4-1.8s-0.8-0.8-1.1-0.3c-0.5,0.3-0.9,0.8-1.4,1.2c-0.2-0.6-0.4-1.2-0.4-1.8
			s-0.8-0.8-1.1-0.3c-0.5,0.4-1,0.8-1.4,1.3c-0.2-0.6-0.5-1.2-0.5-1.9c0-0.6-0.8-0.8-1.1-0.3c-0.7,0.4-1.2,1.1-1.8,1.6
			c-0.1,0-0.1,0.1-0.1,0.1l0,0c-0.1,0-0.1,0.1-0.1,0.1l-0.1,0.1c-0.4,2-0.8,3.9-1.3,5.8c-0.7,3.2-1.6,6.3-2.5,9.4
			c-1.1,4.2-2.4,8.3-3.8,12.3c-1.2,3.2-2.4,6.6-3.8,9.8c-0.6,1.4-1.3,2-1.1,2.7c0.2,0.9,0.5,1.7,0.4,2.6c0,0.6,0.8,0.8,1,0.4
			c0.5-0.2,0.9-0.6,1.3-0.9c0.1,0,0.2,0.1,0.3,0.1c0.1,0.5,0.2,1,0.2,1.6c-0.1,0.6,0.7,0.8,1,0.4c0.5-0.2,0.9-0.6,1.3-0.9
			c0.1,0,0.2,0.1,0.2,0.1c0.1,0.5,0.2,1.1,0.2,1.6c0,0.6,0.8,0.8,1,0.4c0.5-0.3,0.9-0.6,1.3-1l0.2,0.1c0.1,0.5,0.3,1.1,0.2,1.7
			c0,0.6,0.8,0.8,1,0.4c0.5-0.3,0.9-0.6,1.4-1c0.1,0,0.1,0,0.2,0.1c0.1,0.6,0.3,1.1,0.2,1.7c-0.1,0.6,0.7,0.8,1,0.4
			c0.5-0.3,0.9-0.6,1.4-1c0.1,0,0.2,0.1,0.3,0.1c0.1,0.6,0.3,1.1,0.2,1.7c-0.1,0.6,0.7,0.8,1,0.4c0.5-0.3,0.9-0.6,1.4-1
			c0,0,0.1,0,0.1,0.1c0.1,0.6,0.3,1.1,0.2,1.7c-0.1,0.6,0.7,0.8,1,0.4c0.5-0.3,0.9-0.6,1.4-1c0.1,0,0.1,0.1,0.2,0.1
			c0.1,0.6,0.3,1.1,0.2,1.7c0,0.6,0.8,0.8,1,0.4c0.5-0.3,0.9-0.6,1.4-1c0,0,0.1,0,0.1,0.1c0.1,0.6,0.3,1.1,0.2,1.7
			c-0.1,0.6,0.8,0.8,1,0.4c0.5-0.3,0.9-0.6,1.4-1h0.1c0.1,0.6,0.3,1.1,0.2,1.7c-0.1,0.6,0.7,0.8,1,0.4c0.5-0.3,1-0.7,1.4-1
			c0,0,0.1,0,0.1,0.1c0.1,0.6,0.3,1.2,0.2,1.8c-0.1,0.6,0.7,0.8,1,0.4c0.8-0.4,1.4-1.1,2.2-1.6c0.1-0.1,0.2-0.2,0.2-0.3l0,0
			c0.5-1.2,2.2-6,2.5-7.1c3.2-10.7,6.4-21.4,9.5-32.1c0-0.1,0.1-0.1,0.1-0.2c0.2-0.8,0.8-2.5,0.9-3.4
			C289.3,181.9,289.3,181.7,289.2,181.6"/>
		<path class="st15" d="M283.4,185.6L283.4,185.6c-0.2-0.9-0.6-1.8-0.5-2.6c0-0.6-0.8-0.8-1-0.4c-0.3,0.2-0.6,0.4-0.9,0.6
			c-0.1-0.4-0.2-0.8-0.2-1.3c0-0.6-0.8-0.8-1-0.4c-0.5,0.3-1,0.7-1.5,1.1c-0.2-0.6-0.4-1.2-0.3-1.9c0-0.6-0.8-0.8-1-0.4
			c-0.5,0.3-1,0.7-1.4,1.1c-0.2-0.6-0.3-1.2-0.3-1.8s-0.8-0.8-1-0.4c-0.5,0.3-1,0.7-1.4,1.1c-0.2-0.6-0.3-1.2-0.3-1.8
			s-0.8-0.8-1-0.4c-0.6,0.3-1,0.8-1.5,1.2c-0.2-0.6-0.4-1.3-0.3-1.9c0-0.6-0.8-0.8-1-0.4c-0.5,0.3-1,0.7-1.4,1.1
			c-0.2-0.6-0.3-1.2-0.3-1.8s-0.8-0.8-1-0.4c-0.5,0.3-1,0.7-1.5,1.1c-0.2-0.6-0.4-1.2-0.3-1.9c0-0.6-0.8-0.8-1-0.4
			c-0.5,0.3-1,0.7-1.4,1.1c-0.2-0.6-0.3-1.2-0.3-1.8s-0.8-0.8-1-0.4c-0.5,0.3-1,0.7-1.4,1.1c-0.2-0.6-0.3-1.2-0.3-1.8
			s-0.8-0.8-1-0.4c-0.6,0.3-1,0.8-1.5,1.2c-0.2-0.6-0.4-1.3-0.3-1.9c0-0.6-0.8-0.8-1-0.4c-0.7,0.4-1.3,1-1.9,1.5
			c-0.1,0-0.1,0.1-0.2,0.1c0,0,0,0-0.1,0s-0.1,0.1-0.1,0.1l-0.1,0.1c-0.5,1.9-1.1,3.9-1.7,5.7c-0.9,3.1-2,6.2-3.1,9.2
			c-1.4,4.1-2.9,8.1-4.7,12.1c-1.4,3.1-2.8,6.4-4.4,9.6c-0.7,1.3-1.4,1.9-1.3,2.6c0.1,0.9,0.4,1.8,0.3,2.6c-0.1,0.6,0.7,0.9,1,0.5
			c0.5-0.2,0.9-0.5,1.3-0.8c0.1,0,0.2,0.1,0.3,0.1c0.1,0.5,0.2,1,0.1,1.6c-0.1,0.6,0.7,0.9,1,0.5c0.5-0.2,0.9-0.5,1.4-0.8
			c0.1,0,0.2,0.1,0.2,0.1c0.1,0.5,0.2,1.1,0.1,1.6c-0.1,0.6,0.7,0.9,1,0.5c0.5-0.2,1-0.5,1.4-0.9l0.2,0.1c0.1,0.6,0.2,1.1,0.1,1.7
			c-0.1,0.6,0.7,0.9,1,0.5c0.5-0.2,1-0.6,1.4-0.9c0.1,0,0.1,0.1,0.1,0.1c0.1,0.6,0.2,1.1,0.1,1.7c-0.1,0.6,0.7,0.9,1,0.5
			c0.5-0.2,1-0.6,1.4-0.9c0.1,0,0.2,0.1,0.2,0.1c0.1,0.6,0.2,1.1,0.1,1.7c-0.1,0.6,0.7,0.9,1,0.5c0.5-0.2,1-0.6,1.4-0.9
			c0,0,0.1,0,0.1,0.1c0.1,0.6,0.2,1.1,0.1,1.7c-0.1,0.6,0.7,0.9,1,0.5c0.5-0.2,1-0.6,1.4-0.9c0.1,0,0.1,0.1,0.2,0.1
			c0.1,0.6,0.2,1.1,0.1,1.7c-0.1,0.6,0.7,0.9,1,0.5c0.5-0.2,1-0.6,1.4-0.9c0,0,0.1,0,0.1,0.1c0.1,0.6,0.2,1.1,0.1,1.7
			c-0.1,0.6,0.7,0.9,1,0.5c0.5-0.2,1-0.6,1.5-0.9h0.1c0.1,0.6,0.2,1.2,0.1,1.7c-0.1,0.6,0.7,0.9,1,0.5c0.6-0.2,1-0.6,1.5-0.9
			c0,0,0.1,0,0.1,0.1c0.1,0.6,0.2,1.2,0.1,1.8s0.7,0.9,1,0.5c0.8-0.4,1.5-1,2.3-1.5c0.1-0.1,0.2-0.2,0.2-0.2l0,0
			c0.6-1.1,2.6-5.9,3-6.9c3.9-10.5,7.8-20.9,11.7-31.4c0-0.1,0.1-0.1,0.1-0.2c0.3-0.8,1-2.5,1.1-3.3
			C283.4,185.8,283.4,185.7,283.4,185.6"/>
		<path class="st16" d="M254.4,183.9c6.3,2.8,7,3,13.3,5.7c1.4,0.6,2.3-1.5,0.9-2.1c-6.3-2.7-7-3-13.3-5.7
			C254,181.2,253.1,183.3,254.4,183.9"/>
		<path class="st16" d="M251.2,192.4c6.2,2.9,6.9,3.1,13.2,6c1.3,0.6,2.3-1.5,1-2.1c-6.3-2.9-6.9-3.1-13.2-6
			C250.8,189.7,249.8,191.8,251.2,192.4"/>
		<path class="st16" d="M247.9,200.9c6.2,3,6.9,3.3,13.1,6.2c1.3,0.6,2.3-1.4,1-2.1c-6.2-3-6.9-3.2-13.1-6.2
			C247.5,198.2,246.6,200.2,247.9,200.9"/>
		<path class="st16" d="M244.6,209.3c6.1,3.1,6.8,3.4,13,6.5c1.3,0.7,2.4-1.4,1-2c-6.2-3.1-6.8-3.4-13-6.5
			C244.3,206.6,243.3,208.7,244.6,209.3"/>
		<path class="st16" d="M272.8,191.8c1,0.4,1.2,0.6,1.9,0.9c1.4,0.6,2.3-1.5,0.9-2.1c-0.9-0.4-1-0.4-1.9-0.9
			C272.3,189.1,271.4,191.2,272.8,191.8"/>
		<path class="st16" d="M269.6,200.6c1,0.4,1.2,0.6,1.9,0.9c1.3,0.6,2.3-1.5,1-2.1c-0.9-0.4-1-0.4-1.9-0.9
			C269.2,197.9,268.2,200,269.6,200.6"/>
		<path class="st16" d="M266.4,209.4c1,0.5,1.2,0.6,1.9,0.9c1.3,0.6,2.3-1.4,1-2.1c-0.9-0.4-1-0.4-1.9-0.9
			C266.1,206.7,265.1,208.8,266.4,209.4"/>
		<path class="st16" d="M263.2,218.2c0.9,0.5,1.2,0.6,1.9,1c1.3,0.6,2.3-1.4,1-2.1c-0.9-0.4-1-0.5-1.9-0.9
			C262.9,215.5,261.9,217.6,263.2,218.2"/>
	</g>
</g>
<g id="b_x5F_recipes">
	<path class="st2" d="M32.5,254.3c-1.4,0-2.7-0.6-3.7-1.6l0,0c-1.7,0.3-3.3-0.3-4.5-1.6l-0.1-0.1c-2.3,0.9-4.5,0.4-5.9-1.2l-0.3-0.3
		l-0.3-0.5c-0.1-0.1-0.1-0.3-0.2-0.4c-0.5-0.8-0.9-1.8-1.3-2.9c-0.1-0.2-0.1-0.4-0.2-0.6c0-0.1-0.1-0.3-0.1-0.4l0,0
		c-0.1-0.1-0.1-0.3-0.2-0.5c-1.8-5.7-3.5-11.4-5.3-17.1c-2.3-7.4-4.6-14.9-6.9-22.4c-0.1-0.2-0.2-0.4-0.2-0.6c-0.3-1-0.7-2-0.8-3.3
		c-0.2-1.7,0.3-3.3,1.3-4.4c0.7-0.8,1.4-1.2,1.9-1.3l0.4-0.2c3.7-1.5,9.9-3.6,15.9-5.6c5.8-1.9,11.8-3.9,15.3-5.4l0.6-0.5h0.3
		l0.1-0.1h0.8c0.2-0.1,0.5-0.1,0.8-0.1l0,0c0.3,0,1-0.1,1.7,0.1c0.9,0.2,1.7,0.8,2.3,1.5l0,0h0.3l0.1-0.1H45
		c0.2-0.1,0.5-0.1,0.8-0.1l0,0c0.3,0,1-0.1,1.7,0.1c0.9,0.2,1.7,0.8,2.3,1.5c0.2,0,0.3,0,0.5,0l0,0c0.3,0,1-0.1,1.7,0.1
		c1,0.3,1.9,1,2.6,1.9l0.3,0.5l0.1,0.5c0.5,2.1,1,4.3,1.6,6.5v0.1c0.8,3.5,1.9,7,2.9,10.3v0.1c1.3,4.7,2.8,9.4,4.4,13.8
		c0.4,0.9,0.8,2,1.1,3c1.2,3.1,2.4,6.4,3.9,9.2l0.2,0.3l0.1,0.3c0.4,1.5,0.3,3-0.3,4.1c-0.5,1.1-1.5,2.5-3.6,3.1
		c-3.4,1.4-8.6,3.8-14.2,6.3c-6.1,2.8-12.5,5.6-16.3,7.2C34.2,254.1,33.3,254.3,32.5,254.3z M32.4,248.3L32.4,248.3L32.4,248.3z
		 M33,248.1L33,248.1c3.9-1.6,9.9-4.3,15.8-7c5.7-2.6,11.1-5,14.5-6.4l0.2-0.1c-1.5-3-2.8-6.3-3.9-9.4c-0.4-1-0.8-2-1.1-3
		c-1.7-4.6-3.2-9.4-4.6-14.2c-1.1-3.5-2.2-7.1-3-10.7c-0.4-1.5-0.8-3-1.1-4.6l-4,1.6l-0.5-3.2c-0.6,0.2-1.4,0.5-2.2,0.8l-3,1l-0.9-3
		v-0.1c-3.7,1.5-9.3,3.3-15.2,5.3c-5.8,1.9-11.8,4-15.4,5.4c0.1,0.5,0.2,0.9,0.4,1.4l0.1,0.1l0.2,0.7c2.3,7.6,4.7,15.1,7,22.7
		c1.8,5.8,3.6,11.5,5.4,17.3c0.1,0.1,0.1,0.3,0.2,0.5c0,0.1,0.1,0.3,0.1,0.4c0,0.1,0.1,0.3,0.1,0.4c0.1,0.3,0.3,0.9,0.5,1.3
		c0.6-0.3,1.3-0.5,2-0.8l2.7-1l1.1,2.7c0.1,0.2,0.1,0.3,0.2,0.4h0.1c0.2-0.1,0.4-0.1,0.6-0.2l2.9-1L33,248.1z M27.9,246.7
		L27.9,246.7L27.9,246.7z"/>
	<g>
		<path class="st3" d="M50.9,218.4c-1.7-4.6-3.2-9.3-4.5-14c-1.1-3.5-2.2-7-3-10.6c-0.6-2.2-1.1-4.4-1.6-6.6
			c-0.2-0.3-0.5-0.6-0.9-0.7c-0.3-0.1-0.5,0-0.8,0H40c-0.1,0-0.2,0.1-0.3,0.1c-0.1,0.1-0.3,0.1-0.4,0.1l-0.1,0.1
			c-7,2.9-24.4,8.2-31.8,11.2c-0.4,0.2-0.8,0.3-1.1,0.7c-0.4,0.4-0.7,1.1-0.6,2.1s0.4,1.9,0.7,2.8c0,0.1,0.1,0.2,0.1,0.2
			c4.1,13.4,8.3,26.7,12.4,40c0,0.1,0.1,0.2,0.1,0.3l0,0c0.1,0.3,0.2,0.7,0.3,1c0.3,0.9,0.6,1.7,1,2.3c0.1,0.2,0.3,0.5,0.4,0.7
			c0.8,0.9,1.9,0.7,2.8,0.3c7.2-3,23.5-10.6,30.6-13.6c0.7-0.2,1.5-0.6,1.9-1.6c0.2-0.7,0.2-1.5,0-2.3
			C53.9,226.9,52.4,222.5,50.9,218.4"/>
		<path class="st17" d="M56.9,219.6c-1.7-4.6-3.2-9.3-4.5-14c-1.1-3.5-2.2-7-3-10.6c-0.6-2.2-1.1-4.4-1.6-6.6
			c-0.2-0.3-0.5-0.6-0.9-0.7c-0.3-0.1-0.5,0-0.8,0H46c-0.1,0-0.2,0.1-0.3,0.1c-0.1,0.1-0.3,0.1-0.4,0.1l-0.1,0.1
			c-7,2.9-24.4,8.2-31.8,11.2c-0.4,0.2-0.8,0.3-1.1,0.7c-0.4,0.4-0.7,1.1-0.6,2.1c0.1,1,0.4,1.9,0.7,2.8c0,0.1,0.1,0.2,0.1,0.2
			c4.1,13.4,8.3,26.7,12.4,40c0,0.1,0.1,0.2,0.1,0.3l0,0c0.1,0.3,0.2,0.7,0.3,1c0.3,0.9,0.6,1.7,1,2.3c0.1,0.2,0.3,0.5,0.4,0.7
			c0.8,0.9,1.9,0.7,2.8,0.3c7.2-3,23.5-10.6,30.6-13.6c0.7-0.2,1.5-0.6,1.9-1.6c0.2-0.7,0.2-1.5,0-2.3
			C59.9,228.2,58.4,223.7,56.9,219.6"/>
		<path class="st3" d="M61.4,221.1c-1.7-4.6-3.2-9.3-4.5-14c-1.1-3.5-2.2-7-3-10.6c-0.6-2.2-1.1-4.4-1.6-6.6
			c-0.2-0.3-0.5-0.6-0.9-0.7c-0.3-0.1-0.5,0-0.8,0h-0.1c-0.1,0-0.2,0.1-0.3,0.1c-0.1,0.1-0.3,0.1-0.4,0.1l-0.1,0.1
			c-7,2.9-24.4,8.2-31.8,11.2c-0.4,0.2-0.8,0.3-1.1,0.7c-0.4,0.4-0.7,1.1-0.6,2.1s0.4,1.9,0.7,2.8c0,0.1,0.1,0.2,0.1,0.2
			c4.1,13.4,8.3,26.7,12.4,40c0,0.1,0.1,0.2,0.1,0.3l0,0c0.1,0.3,0.2,0.7,0.3,1c0.3,0.9,0.6,1.7,1,2.3c0.1,0.2,0.3,0.5,0.4,0.7
			c0.8,0.9,1.9,0.7,2.8,0.3c7.2-3,23.5-10.6,30.6-13.6c0.7-0.2,1.5-0.6,1.9-1.6c0.2-0.7,0.2-1.5,0-2.3
			C64.4,229.7,62.9,225.2,61.4,221.1"/>
		<path class="st17" d="M39.9,213.2c-3.7,1.7-7.7,3.1-11.4,4.6c-1.5,0.6-0.5,3,1,2.4c3.8-1.6,7.7-2.9,11.4-4.6
			C42.5,214.8,41.5,212.4,39.9,213.2"/>
		<path class="st17" d="M46.6,222.7c-5.3,1.9-7,2.3-15.9,6.1c-1.5,0.7-0.6,3,1,2.4c9.4-3.8,10.6-4.2,15.9-6.1
			C49.2,224.5,48.2,222.1,46.6,222.7"/>
		<path class="st17" d="M47.6,233.4c-6.3,2.5-7.6,3.1-12.7,5.3c-1.5,0.7-0.5,3,1,2.4c9.4-3.9,6.6-2.8,12.7-5.3
			C50.1,235.1,49.1,232.7,47.6,233.4"/>
		<path class="st17" d="M38,208.3c-5.3,2-1.9,0.5-10.8,4.5c-1.5,0.7-0.5,3,1,2.4c9.4-3.9,5.5-2.5,10.8-4.5
			C40.6,210.1,39.6,207.7,38,208.3"/>
		<path class="st17" d="M47.3,199.1C40,202,32.8,205,25.6,208c-1.6,0.6-0.6,3.1,1,2.4c7.2-3,14.5-5.9,21.7-8.9
			C49.8,200.9,48.8,198.5,47.3,199.1"/>
		<path class="st17" d="M54.8,224.4c-7.3,2.9-14.5,5.9-21.7,8.9c-1.6,0.6-0.6,3,1,2.4c7.2-3,14.5-5.9,21.7-8.9
			C57.4,226.2,56.4,223.8,54.8,224.4"/>
	</g>
</g>
</svg>
