<?xml version="1.0" encoding="utf-8"?>
<!-- Generator: Adobe Illustrator 16.0.0, SVG Export Plug-In . SVG Version: 6.00 Build 0)  -->
<!DOCTYPE svg PUBLIC "-//W3C//DTD SVG 1.1//EN" "http://www.w3.org/Graphics/SVG/1.1/DTD/svg11.dtd">
<svg version="1.1" id="Calque_1" xmlns="http://www.w3.org/2000/svg" xmlns:xlink="http://www.w3.org/1999/xlink" x="0px" y="0px"
	 width="300px" height="300px" viewBox="0 0 300 300" enable-background="new 0 0 300 300" xml:space="preserve">
<style type="text/css">
	<![CDATA[
	#w {
		animation: zen_woman 2s ease-in-out alternate infinite;
	}
	@keyframes zen_woman {
		0% {
		  transform: translateY(-8px);
		}
		100% {
		  transform: translateY(8px);
		}
	}
	]]>
</style>
<g id="circles">
	<path fill="none" stroke="#C2ADF4" stroke-width="9" d="M150,17.382c72.678,0,131.59,58.907,131.59,131.576
		c0,72.672-58.912,131.581-131.59,131.581c-72.678,0-131.59-58.909-131.59-131.581C18.41,76.289,77.322,17.382,150,17.382z"/>
	<circle fill="#906CEA" cx="150" cy="18.095" r="15.595"/>
	<circle fill="#906CEA" cx="150" cy="281.905" r="15.595"/>
	<circle fill="#906CEA" cx="262.096" cy="222.06" r="15.594"/>
	<circle fill="#906CEA" cx="37.905" cy="222.06" r="15.594"/>
	<path fill="#906CEA" d="M37.905,65.139c8.612,0,15.595,6.984,15.595,15.597c0,8.61-6.982,15.595-15.595,15.595
		c-8.614,0-15.596-6.984-15.596-15.595C22.31,72.123,29.291,65.139,37.905,65.139z"/>
	<path fill="#906CEA" d="M262.096,65.139c8.613,0,15.596,6.984,15.596,15.597c0,8.61-6.979,15.595-15.596,15.595
		c-8.611,0-15.596-6.984-15.596-15.595C246.5,72.123,253.482,65.139,262.096,65.139z"/>
</g>
<g id="chart">
	<g id="_x31_6px_9_" transform="translate(-224.000000, -224.000000)">
		<g id="graph_9_">
			<path fill="#288AFC" d="M490.717,312.637c-10.768,0-19.988-8.058-21.449-18.742c-1.619-11.843,6.699-22.795,18.541-24.414
				l1.486-0.203l2.732,19.991l19.99-2.734l0.203,1.486c0.782,5.738-0.714,11.438-4.216,16.048c-3.502,4.611-8.59,7.583-14.325,8.366
				C492.698,312.568,491.701,312.637,490.717,312.637z"/>
			<path fill="#FFFFFF" d="M488.012,270.967l2.733,19.991l19.989-2.734c1.511,11.043-6.215,21.217-17.258,22.725
				c-0.93,0.127-1.852,0.188-2.764,0.188c-9.93,0-18.58-7.331-19.963-17.445C469.244,282.648,476.971,272.477,488.012,270.967
				 M490.577,267.588l-2.972,0.406c-12.662,1.731-21.558,13.441-19.826,26.104c1.563,11.425,11.424,20.039,22.937,20.039
				c1.054,0,2.119-0.072,3.168-0.216c6.136-0.838,11.574-4.015,15.318-8.945c3.743-4.93,5.344-11.023,4.506-17.158l-0.406-2.973
				l-2.973,0.406l-17.019,2.328l-2.328-17.019L490.577,267.588L490.577,267.588z"/>
		</g>
	</g>
	<g>
		<path fill="#BBD9FD" d="M267.252,39.19l1.486-0.203c0.979-0.134,1.979-0.202,2.963-0.202c10.77,0,19.99,8.058,21.451,18.743
			l0.203,1.486l-22.965,3.14L267.252,39.19z"/>
		<path fill="#FFFFFF" d="M271.7,40.285c9.932,0,18.584,7.333,19.966,17.446c-5.712,0.781-19.991,2.733-19.991,2.733l-2.733-19.991
			C269.868,40.347,270.79,40.285,271.7,40.285 M271.701,37.285L271.701,37.285c-1.053,0-2.118,0.073-3.166,0.216l-2.973,0.406
			l0.404,2.973l2.732,19.991l0.404,2.973l2.975-0.406l19.99-2.733l2.973-0.406l-0.405-2.973
			C293.077,45.9,283.216,37.285,271.701,37.285L271.701,37.285z"/>
	</g>
</g>
<g id="bg">
</g>
<g id="w">
	<path fill="#F4383C" d="M142.886,99.133c1.001,0.758,2.015,1.496,3.058,2.193c1.42,0.952,2.899,1.869,4,3.175
		c5.632,6.692-1.705,18.565,4.076,25.13c1.717,1.95,4.281,2.941,6.199,4.697c3.756,3.44,4.365,9.015,5.243,14.031
		c0.878,5.029,2.87,10.672,7.667,12.394c2.014,0.719,4.23,0.608,6.344,0.249c4.965-0.846,9.846-3.135,12.938-7.117
		c3.092-3.988,4.045-9.794,1.567-14.178c-1.896-3.352-5.455-5.514-7.338-8.87c-2.092-3.724-1.809-8.31-3.182-12.353
		c-3.262-9.59-14.643-13.785-20.256-22.217c-5.729-8.604-5.691-21.729-14.893-26.445L142.886,99.133z"/>
	<path fill="#21385E" d="M210.695,138.287c-1.896-3.352-5.453-5.514-7.338-8.869c-2.092-3.724-1.812-8.311-3.185-12.353
		c-3.262-9.59-14.639-13.785-20.254-22.216c-5.729-8.604-5.692-21.729-14.896-26.447c-6.67-3.42-14.778-0.35-22.208-1.362
		c-1.852-0.255-4.432-0.315-4.834,1.512c-0.146,0.674,0.121,1.363,0.388,1.997c1.087,2.552,2.339,5.027,3.738,7.42
		c-13.238,3.886-11.696,21.1-11.696,21.1c4.292-1.664,8.568-6.942,11.818-11.897c3.659,5.716,11.791,8.935,17.371,10.543
		c1,0.758,2.018,1.496,3.06,2.192c1.419,0.953,2.897,1.869,4,3.176c5.631,6.692-1.707,18.566,4.073,25.13
		c1.72,1.95,4.283,2.941,6.201,4.697c3.754,3.44,4.363,9.014,5.24,14.031c0.878,5.02,2.871,10.674,7.668,12.393
		c2.016,0.721,4.231,0.607,6.346,0.25c4.963-0.846,9.845-3.135,12.938-7.125C212.221,148.476,213.172,142.672,210.695,138.287z"/>
	<path fill="#FF8E8E" d="M217.792,176.693c4.239-3.843,4.675-10.229,6.976-15.471c0.201-0.462,0.435-0.924,0.701-1.354
		c0.281-0.836,0.747-1.604,1.422-2.166c0.898-0.754,2.072-1.088,3.228-1.318c0.549-0.111,1.146-0.195,1.649,0.04
		c0.461,0.215,0.781,0.698,0.81,1.206c0.022,0.508-0.252,1.021-0.688,1.275c-0.345,0.201-0.744,0.246-1.125,0.352
		c-1.109,0.303-2.06,1.143-2.492,2.205c-0.142,0.352-0.226,0.729-0.196,1.104c0.016,0.086,0.032,0.174,0.055,0.258
		c0.476,2.119,2.908,3.574,5,2.98c1.136-0.32,2.127-1.201,2.431-2.342c0.067-0.255,0.092-0.521,0.082-0.787
		c-0.301-0.736-0.812-1.389-1.486-1.809c-0.338-0.207-0.711-0.367-0.979-0.653c-0.348-0.372-0.47-0.94-0.3-1.422
		c0.166-0.479,0.615-0.851,1.115-0.929c0.555-0.082,1.102,0.17,1.596,0.432c1.039,0.55,2.07,1.204,2.721,2.184
		c0.762,1.146,0.897,2.622,0.607,3.967c-0.027,0.127-0.074,0.248-0.107,0.377c1.153-1.859,1.775-4.102,2.408-6.232
		c0.344-1.146,1.182-2.563,2.321-2.202c0.418,0.131,0.723,0.483,0.968,0.851c1.67,2.445,0.031,4.613-0.423,7.543
		c-0.308,1.967-0.785,3.922-1.646,5.715c-0.856,1.793-2.203,3.486-4.088,4.117c-0.809,0.27-1.668,0.33-2.516,0.42
		c-5.257,0.576-8.738,3.543-13.072,6.578c-0.334,0.233-0.725,0.485-1.119,0.393c-0.24-0.059-0.436-0.232-0.608-0.409
		C219.633,180.195,218.525,178.523,217.792,176.693z"/>
	<path fill="#FF8E8E" d="M79.568,176.693c-4.24-3.843-4.679-10.229-6.977-15.471c-0.201-0.462-0.432-0.924-0.703-1.354
		c-0.278-0.836-0.743-1.604-1.417-2.166c-0.902-0.754-2.074-1.088-3.227-1.318c-0.55-0.111-1.144-0.195-1.653,0.04
		c-0.461,0.215-0.783,0.698-0.808,1.206c-0.022,0.508,0.255,1.021,0.692,1.275c0.342,0.201,0.744,0.246,1.123,0.352
		c1.11,0.303,2.057,1.143,2.49,2.205c0.141,0.352,0.225,0.729,0.198,1.104c-0.013,0.086-0.033,0.174-0.052,0.258
		c-0.475,2.119-2.91,3.574-5.002,2.98c-1.132-0.32-2.125-1.201-2.432-2.342c-0.067-0.255-0.09-0.521-0.08-0.787
		c0.296-0.736,0.811-1.389,1.486-1.809c0.338-0.207,0.711-0.367,0.979-0.653c0.349-0.372,0.472-0.94,0.301-1.422
		c-0.166-0.479-0.612-0.851-1.118-0.929c-0.553-0.082-1.098,0.17-1.596,0.432c-1.037,0.55-2.068,1.204-2.715,2.184
		c-0.759,1.146-0.899,2.622-0.611,3.967c0.027,0.127,0.076,0.248,0.111,0.377c-1.158-1.859-1.781-4.102-2.411-6.232
		c-0.341-1.146-1.183-2.563-2.321-2.202c-0.418,0.131-0.722,0.483-0.969,0.851c-1.669,2.445-0.03,4.613,0.422,7.543
		c0.307,1.967,0.785,3.922,1.645,5.715c0.859,1.793,2.205,3.486,4.089,4.117c0.807,0.27,1.665,0.33,2.515,0.42
		c5.258,0.576,8.738,3.543,13.072,6.578c0.336,0.233,0.725,0.485,1.121,0.393c0.244-0.059,0.435-0.232,0.609-0.409
		C77.727,180.195,78.834,178.523,79.568,176.693z"/>
	<path fill="#2BD1D4" d="M219.374,166.846c-7.19,5.303-11.531,6.674-12.84,6.991l-0.317-0.086l-1.436,0.347
		c-0.307-0.109-0.924-0.456-1.504-1.113c-1.424-1.619-2.562-4.272-3.762-7.088l-0.438-1.015
		c-4.502-10.442-10.028-20.517-16.423-29.914c-1.868-2.746-5.34-7.842-11.041-10.703c-0.471-1.523-1.047-3.044-1.995-4.076
		c-1.511-1.645-3.613-1.714-5.548-1.705c-3.229,0.01-6.463,0.022-9.692,0.034l-0.132-1.677l-19.774,1.557
		c-0.338,0.026-0.694,0.055-1.056,0.086c-1.173-0.004-2.405,0.025-3.529,0.418c-2.278,0.363-4.763,0.983-7.213,2.199
		c-5.756,2.854-10.132,10.392-12.005,13.15c-6.398,9.402-7.887,20.19-12.391,30.63l-0.432,1.014
		c-1.207,2.813-2.342,5.469-3.768,7.09c-0.49,0.563-1.012,0.896-1.347,1.047l-0.356-0.354l-1.464,0.186
		c-1.19-0.276-5.566-1.582-12.929-7.016L66.39,182.564c11.627,8.576,19.381,10.422,22.789,10.782c1.113,0.209,2.242,0.31,3.371,0.31
		c5.875,0,11.805-2.775,16.194-7.771c3.486-3.962,5.381-8.395,7.054-12.303l0.412-0.963c1.968-4.56,4.157-9.035,6.547-13.404
		c-0.031,3.604-0.1,7.191-0.322,10.742c-0.385,6.15-1.301,12.459-3.924,17.502l30.247-2.508l30.246,2.508
		c-2.62-5.043-3.54-11.352-3.923-17.502c-0.218-3.447-0.287-6.938-0.32-10.436c2.324,4.271,4.462,8.646,6.38,13.098l0.414,0.963
		c1.674,3.908,3.569,8.341,7.055,12.302c4.395,4.997,10.32,7.772,16.197,7.772c1.129,0,2.256-0.101,3.37-0.31
		c3.406-0.36,11.161-2.206,22.789-10.782L219.374,166.846z"/>
	<path fill="#F4383C" d="M130.092,98.759c-3.781-3.852-5.587-9.547-4.713-14.875c1.053-6.439,5.564-11.593,10.596-15.919
		c0.913-0.785,3.15-2.84,5.513-3.21c8.16-1.28,29.832-1.018,29.388,12.428c-0.131,4.008-1.13,10.516-0.879,14.518
		c0.127,2.028,0.34,4.144-0.413,6.032c-0.75,1.888-2.851,3.428-4.778,2.777"/>
	<circle fill="#FF8E8E" cx="147.896" cy="99.066" r="17.482"/>
	<path fill="#0F1523" d="M132.529,109.445"/>
	<path fill="#FF8E8E" d="M154.965,108.111c-4.617,1.298-9.524,1.924-14.415,1.843c-0.012,3.354,0.257,5.494,0.243,8.85
		c1.518,1.727,5.057,3.391,7.261,3.397c2.853,0.013,4.885-1.115,7.415-3.707C155.23,114.507,155.205,112.097,154.965,108.111z"/>
	<path fill="#FFFFFF" d="M152.725,106.848c0.566,0,0.998,0.521,0.879,1.075c-0.494,2.354-2.582,4.12-5.083,4.12
		c-2.5,0-4.589-1.767-5.082-4.12c-0.115-0.555,0.313-1.075,0.879-1.075H152.725z"/>
	<path fill="#F4383C" d="M210.695,138.287c-1.896-3.352-5.453-5.514-7.338-8.869c-2.092-3.724-1.812-8.311-3.185-12.353
		c-3.262-9.59-14.639-13.785-20.254-22.216c-5.729-8.604-5.692-21.729-14.896-26.447c-6.67-3.42-14.778-0.35-22.208-1.362
		c-1.852-0.255-4.432-0.315-4.834,1.512c-0.146,0.674,0.121,1.363,0.388,1.997c1.087,2.552,2.339,5.027,3.738,7.42
		c-13.238,3.886-11.696,21.1-11.696,21.1c4.292-1.664,8.568-6.942,11.818-11.897c3.659,5.716,11.791,8.935,17.371,10.543
		c1,0.758,2.018,1.496,3.06,2.192c1.419,0.953,2.897,1.869,4,3.176c5.631,6.692-1.707,18.566,4.073,25.13
		c1.72,1.95,4.283,2.941,6.201,4.697c3.754,3.44,4.363,9.014,5.24,14.031c0.878,5.02,2.871,10.674,7.668,12.393
		c2.016,0.721,4.231,0.607,6.346,0.25c4.963-0.846,9.845-3.135,12.938-7.125C212.221,148.476,213.172,142.672,210.695,138.287z"/>
	<path fill="#BBD9FD" d="M174.29,181.113h-24.784h-1.872h-24.781c0,0-41.973,11.649-41.973,42.478c0,28.71,59.521-2,67.69-6.351
		c8.17,4.351,67.694,35.061,67.694,6.351C216.264,192.766,174.29,181.113,174.29,181.113z"/>
</g>
<g id="health">
	<path fill="none" stroke="#FFFFFF" stroke-width="7" d="M77.531,68.241c-0.522-2.298-10.242-32.615-12.152-36.604
		c-0.451-1.765-1.044-3.451-1.992-4.772c-0.881-1.226-2.04-1.799-3.348-1.968c-1.51-1.113-3.564-1.156-5.744-0.779
		c-1.318,0.188-2.625,0.588-3.762,0.906c-5.574,1.549-25.512,6.854-26.131,7.097c-3.011,1.192-3.199,3.467-2.575,6.065
		c0.056,0.42,8.263,36.458,8.831,38.36c0.773,2.585,2.063,4.921,4.518,5.205c0.378,0.045,1.414-0.104,2.896-0.392
		c0.955,1.685,2.255,2.943,4.107,3.001c2.468,0.071,31.707-10.396,33.063-10.992c1.642-0.726,2.332-1.748,2.426-2.92
		C77.883,69.81,77.729,69.118,77.531,68.241z"/>
	<g>
		<path fill="#2BD1D4" d="M62.885,31.255c-0.298-1.796-0.738-3.525-1.57-4.929c-1.469-2.479-4.137-2.707-7.02-2.208
			c-1.318,0.188-2.625,0.588-3.762,0.906c-5.574,1.549-25.512,6.854-26.131,7.097c-3.011,1.192-3.199,3.467-2.575,6.065
			c0.056,0.42,8.263,36.458,8.831,38.36c0.773,2.585,2.063,4.921,4.518,5.205c2.455,0.292,32.494-7.588,33.891-8.062
			c1.707-0.582,2.479-1.541,2.679-2.699c0.269-0.616,0.175-1.326,0.054-2.21C71.479,66.442,64.441,35.397,62.885,31.255"/>
		<path fill="#B7F6F7" d="M65.379,31.638c-0.451-1.765-1.044-3.451-1.992-4.772c-1.68-2.338-4.357-2.341-7.188-1.586
			c-1.296,0.3-2.563,0.813-3.666,1.225c-5.418,2.03-24.82,9.053-25.413,9.353c-2.894,1.445-2.888,3.73-2.035,6.26
			c0.091,0.417,11.409,35.603,12.14,37.446c0.996,2.509,2.484,4.722,4.955,4.799c2.468,0.071,31.707-10.396,33.063-10.992
			c1.642-0.726,2.332-1.748,2.426-2.92c0.215-0.64,0.061-1.331-0.137-2.208C77.009,65.943,67.289,35.626,65.379,31.638"/>
		<path fill="#FF8E8E" d="M61.614,43.779c-4.378-3.938-11.015-1.209-12.62,3.81c-4.102-3.313-11.146-1.952-12.642,3.75
			c-1.033,3.935,0.84,8.05,3.831,10.596c4.164,3.541,9.66,2.051,13.875,5.016c0.273,0.194,0.536,0.207,0.76,0.111
			c0.236-0.045,0.451-0.196,0.574-0.513c1.895-4.79,7.307-6.563,8.839-11.805C65.332,50.969,64.641,46.5,61.614,43.779"/>
		<path fill="#F52D2D" d="M56.88,53.74c-0.818,0.241-1.637,0.483-2.45,0.73c-0.408,0.122-0.603,0.398-0.674,0.803
			c-0.179,1.018-0.354,2.038-0.531,3.056c-1.138-2.145-2.277-4.289-3.414-6.433c-0.42-0.786-1.531-0.446-1.627,0.372
			c-0.159,1.402-0.321,2.811-0.48,4.211c-0.617,0.186-1.236,0.372-1.852,0.555c-1.061,0.319-0.684,2.007,0.385,1.686
			c0.813-0.245,1.631-0.489,2.447-0.731c0.391-0.122,0.627-0.403,0.672-0.805c0.08-0.675,0.154-1.345,0.234-2.02l3.283,6.19
			c0.438,0.824,1.488,0.412,1.623-0.371c0.293-1.666,0.582-3.332,0.875-4.998C56,55.8,56.63,55.608,57.263,55.422
			C58.32,55.105,57.947,53.421,56.88,53.74"/>
	</g>
</g>
<g id="photo">
	<path fill="none" stroke="#FEFEFE" stroke-width="6" stroke-miterlimit="10" d="M178.721,14.66
		c-0.091-0.021-0.188-0.031-0.296-0.027c-10.196,0.537-20.396-1.443-29.654-5.746c-0.229-0.107-0.443-0.117-0.637-0.064
		c-0.479-0.109-1.043,0.094-1.174,0.715c-1.975,9.383-4.709,18.58-8.182,27.514c-0.117,0.305-0.949,2.539-0.826,2.672
		c0.066,0.168,0.322,0.443,0.529,0.541c2.18,1.465,4.393,2.383,6.664,3.166c3.037,1.047,6.123,1.941,9.251,2.668
		c5.336,1.236,10.771,1.975,16.236,2.244c0.227,0.012,2.145,0.084,2.287,0.09c0.252,0.008,0.504,0.01,0.752,0.018
		c0.176,0,0.316-0.037,0.438-0.1c0.287-0.09,0.531-0.314,0.605-0.699c2.08-10.58,3.834-21.217,5.262-31.904
		C180.085,14.947,179.313,14.518,178.721,14.66z"/>
	<g>
		<path fill="#FFFFFF" d="M173.241,39.904c-10.498-1.152-21.271-2.377-30.801-7.232c2.514-7.109,4.582-14.375,6.182-21.746
			c9.117,4.107,19.096,6.047,29.086,5.66C176.759,24.455,175.266,32.248,173.241,39.904"/>
		<path fill="#2BD1D4" d="M170.07,40.566c-3.862-2.555-6.879-6.088-9.854-9.59c-1.407-1.658-2.801-3.365-4.35-4.896
			c-0.744-0.734-1.515-0.977-2.525-0.65c-1.213,0.389-2.389,1.006-3.547,1.533c-2.623,1.195-5.205,2.473-7.75,3.818
			c-0.055-0.066-0.174-0.082-0.225,0.018c-0.238,0.494-0.48,0.988-0.717,1.484c-0.154,0.32-0.334,0.666-0.301,1.031
			c0.07,0.705,0.959,0.98,1.518,1.189c1.988,0.748,4.193,1.021,6.268,1.469c4.494,0.959,8.979,1.957,13.459,2.998
			c2.554,0.592,5.103,1.195,7.649,1.814c0.066,0.014,0.111-0.021,0.136-0.07c0.022,0.018,0.047,0.035,0.071,0.051
			C170.042,40.857,170.212,40.66,170.07,40.566"/>
		<path fill="#2BD1D4" d="M176.059,30.219c-0.146-0.477-0.584-0.783-0.955-1.08c-0.945-0.764-1.974-1.43-3.017-2.053
			c-0.517-0.311-1.039-0.613-1.562-0.914c-0.448-0.26-0.905-0.52-1.442-0.484c-0.521,0.033-1.033,0.295-1.506,0.494
			c-0.673,0.283-1.33,0.588-1.984,0.908c-2.627,1.287-5.188,2.748-7.706,4.238c-2.438,1.439-4.791,3.021-6.869,4.957
			c-0.076,0.07-0.027,0.164,0.045,0.197c-0.408,0.367-0.997,0.266-1.418,0.582c-0.297,0.219-0.396,0.545-0.453,0.895
			c-0.162,1.01-0.008,2.193,0.488,3.094c0.502,0.904,1.496,1.023,2.426,1.229c1.306,0.287,2.627,0.498,3.953,0.662
			c2.664,0.33,5.351,0.461,8.025,0.629c1.342,0.084,2.686,0.174,4.021,0.303c1.215,0.115,2.483,0.404,3.707,0.271
			c0.6-0.068,1.18-0.25,1.742-0.459c0.424-0.158,0.897-0.32,1.2-0.68c0.289-0.342,0.388-0.824,0.494-1.244
			c0.188-0.693,0.338-1.395,0.461-2.1c0.22-1.254,0.336-2.529,0.354-3.805c0.024-1.43-0.207-2.879-0.063-4.305
			C176.048,31.113,176.189,30.658,176.059,30.219"/>
		<path fill="#BBD9FD" d="M178.721,14.66c-0.091-0.021-0.188-0.031-0.296-0.027c-10.196,0.537-20.396-1.443-29.654-5.746
			c-0.229-0.107-0.443-0.117-0.637-0.064c-0.479-0.109-1.043,0.094-1.174,0.715c-1.975,9.383-4.709,18.58-8.182,27.514
			c-0.117,0.305-0.949,2.539-0.826,2.672c0.066,0.168,0.322,0.443,0.529,0.541c2.18,1.465,4.393,2.383,6.664,3.166
			c3.037,1.047,6.123,1.941,9.251,2.668c5.336,1.236,10.771,1.975,16.236,2.244c0.227,0.012,2.145,0.084,2.287,0.09
			c0.252,0.008,0.504,0.01,0.752,0.018c0.176,0,0.316-0.037,0.438-0.1c0.287-0.09,0.531-0.314,0.605-0.699
			c2.08-10.58,3.834-21.217,5.262-31.904C180.085,14.947,179.313,14.518,178.721,14.66 M173.241,39.904
			c-10.498-1.152-21.271-2.377-30.801-7.232c2.514-7.109,4.582-14.375,6.182-21.746c9.117,4.107,19.096,6.047,29.086,5.66
			C176.759,24.455,175.266,32.248,173.241,39.904"/>
		<path fill="#FD9E2A" d="M167.382,19.498c-0.885-0.977-2.353-1.117-3.43-0.428c-0.004,0.004-0.011,0.004-0.017,0.008
			c-0.471,0.273-0.797,0.695-0.975,1.176c-0.498,0.762-0.354,1.85,0.295,2.6c0.996,1.148,2.771,1.205,3.941,0.285
			C168.357,22.232,168.333,20.551,167.382,19.498"/>
	</g>
</g>
<g id="g_x5F_recipes">
	<g>
		<g id="_x33_2px_10_" transform="translate(-224.000000, -224.000000)">
			<g id="icons_10_" transform="translate(32.000000, 32.000000)">
				<g id="analytics-02_10_" transform="translate(193.000000, 193.000000)">
					<path id="Rectangle-4_10_" fill="#0DCBCF" d="M145,235.422l26.576,30.844c1.129,1.311,1.26,3.051,0.289,3.885l-22.807,19.651
						c-0.967,0.835-2.67,0.449-3.797-0.86L118.686,258.1c-1.13-1.311-1.262-3.051-0.294-3.888l22.811-19.647
						C142.169,233.727,143.872,234.113,145,235.422z"/>
				</g>
			</g>
		</g>
		<g id="_x33_2px_9_" transform="translate(-224.000000, -224.000000)">
			<g id="icons_9_" transform="translate(32.000000, 32.000000)">
				<g id="analytics-02_9_" transform="translate(193.000000, 193.000000)">
					<path id="Rectangle-4_9_" fill="#ACF5F7" d="M151.141,235.504l26.576,30.844c1.131,1.313,1.26,3.051,0.289,3.885
						l-22.805,19.651c-0.969,0.837-2.672,0.449-3.801-0.86l-26.574-30.842c-1.129-1.311-1.26-3.05-0.291-3.886l22.81-19.651
						C148.312,233.809,150.014,234.193,151.141,235.504z"/>
					<path id="Combined-Shape_9_" fill="#0DCBCF" d="M134.578,251.755c0.969-0.832,2.422-0.729,3.264,0.246
						c0.834,0.97,0.734,2.424-0.238,3.265l-3.514,3.026c-0.969,0.834-2.422,0.729-3.266-0.246c-0.834-0.968-0.733-2.424,0.241-3.263
						L134.578,251.755z M158.719,258.471c0.961-0.834,2.415-0.726,3.254,0.247c0.836,0.972,0.728,2.438-0.229,3.261l-14.053,12.106
						c-0.963,0.833-2.417,0.728-3.258-0.248c-0.833-0.97-0.724-2.435,0.234-3.26L158.719,258.471z M147.148,259.268
						c0.971-0.84,2.431-0.74,3.273,0.235c0.834,0.97,0.72,2.435-0.25,3.272l-7.004,6.033c-0.973,0.84-2.433,0.736-3.271-0.238
						c-0.836-0.965-0.723-2.437,0.247-3.271L147.148,259.268z M146.135,250.971c0.966-0.832,2.42-0.729,3.26,0.246
						c0.833,0.969,0.726,2.432-0.236,3.262l-10.536,9.08c-0.968,0.832-2.422,0.729-3.262-0.248
						c-0.835-0.969-0.726-2.431,0.237-3.263L146.135,250.971z"/>
				</g>
			</g>
		</g>
	</g>
	<g>
		<path fill="#FFFFFF" d="M143.463,235.121c0.852,0,1.813,0.46,2.537,1.301l0.613,0.713l1.731-1.49
			c0.346-0.299,0.785-0.439,1.259-0.439c0.852,0,1.813,0.461,2.536,1.302l26.577,30.845c1.132,1.312,1.259,3.051,0.289,3.885
			L156.2,290.886c-0.347,0.3-0.786,0.441-1.261,0.441c-0.854,0-1.813-0.461-2.539-1.304l-0.61-0.713l-1.732,1.49
			c-0.346,0.301-0.785,0.441-1.26,0.441c-0.852,0-1.813-0.461-2.537-1.305l-26.575-30.843c-1.13-1.31-1.262-3.05-0.294-3.887
			l22.811-19.647C142.549,235.266,142.988,235.121,143.463,235.121 M143.463,232.121L143.463,232.121
			c-1.205,0-2.35,0.417-3.225,1.175l-22.804,19.644c-2.258,1.953-2.265,5.52-0.02,8.119l26.574,30.84
			c1.261,1.471,3.06,2.348,4.81,2.348c1.057,0,2.068-0.321,2.892-0.911c1.004,0.64,2.141,0.993,3.252,0.993
			c1.201,0,2.348-0.416,3.222-1.17l22.804-19.651c0.979-0.843,1.576-2.055,1.68-3.412c0.121-1.632-0.481-3.347-1.654-4.702
			l-26.575-30.844c-1.261-1.467-3.06-2.344-4.809-2.344c-1.057,0-2.068,0.318-2.891,0.912
			C145.709,232.477,144.576,232.121,143.463,232.121L143.463,232.121L143.463,232.121z"/>
	</g>
</g>
<g id="y_x5F_recipes">
	<path fill="none" stroke="#FFFFFF" stroke-width="7" stroke-miterlimit="10" d="M294.477,178.559c-0.004-0.015,0-0.025-0.004-0.039
		c-0.277-0.836-0.733-1.646-0.789-2.537c-0.037-0.614-0.855-0.717-1.081-0.289c-0.306,0.221-0.569,0.479-0.822,0.74
		c-0.149-0.404-0.272-0.814-0.299-1.248c-0.038-0.617-0.854-0.718-1.084-0.289c-0.511,0.363-0.915,0.834-1.339,1.289
		c-0.237-0.596-0.486-1.188-0.523-1.83c-0.037-0.619-0.857-0.717-1.084-0.289c-0.495,0.354-0.896,0.809-1.303,1.252
		c-0.234-0.573-0.469-1.154-0.506-1.774c-0.039-0.618-0.857-0.718-1.084-0.29c-0.495,0.354-0.896,0.809-1.305,1.249
		c-0.23-0.575-0.47-1.153-0.509-1.771c-0.034-0.619-0.854-0.717-1.08-0.287c-0.524,0.369-0.938,0.855-1.376,1.324
		c-0.242-0.613-0.507-1.229-0.547-1.888c-0.038-0.62-0.854-0.717-1.083-0.288c-0.487,0.35-0.884,0.793-1.287,1.229
		c-0.226-0.566-0.452-1.14-0.489-1.747c-0.039-0.619-0.859-0.719-1.086-0.292c-0.513,0.362-0.914,0.832-1.336,1.289
		c-0.236-0.595-0.486-1.189-0.527-1.827c-0.037-0.622-0.856-0.721-1.082-0.289c-0.494,0.354-0.896,0.805-1.305,1.25
		c-0.229-0.578-0.47-1.158-0.511-1.777c-0.03-0.613-0.854-0.717-1.08-0.287c-0.497,0.354-0.896,0.809-1.305,1.254
		c-0.229-0.58-0.465-1.158-0.502-1.779c-0.037-0.616-0.856-0.717-1.084-0.287c-0.527,0.371-0.941,0.857-1.377,1.324
		c-0.246-0.614-0.509-1.229-0.544-1.883c-0.041-0.621-0.856-0.719-1.09-0.293c-0.668,0.479-1.164,1.135-1.748,1.705
		c-0.049,0.041-0.096,0.094-0.144,0.143c-0.017,0.017-0.03,0.035-0.048,0.05c-0.051,0.045-0.076,0.092-0.105,0.144
		c-0.024,0.037-0.059,0.063-0.088,0.104c-0.047,0.356-0.113,0.708-0.166,1.063c-0.309,0.267-0.601,0.549-0.891,0.834
		c-0.219-0.625-0.453-1.248-0.464-1.904c-0.015-0.623-0.825-0.754-1.071-0.34c-0.689,0.449-1.213,1.084-1.82,1.629
		c-0.051,0.039-0.102,0.088-0.147,0.137c-0.019,0.014-0.033,0.031-0.05,0.047c-0.057,0.041-0.081,0.088-0.112,0.137
		c-0.024,0.037-0.063,0.063-0.092,0.104c-0.087,0.479-0.191,0.953-0.289,1.433c-0.371,0.268-0.722,0.563-1.063,0.857
		c-0.18-0.641-0.369-1.275-0.336-1.934c0.025-0.621-0.773-0.807-1.049-0.41c-0.718,0.402-1.279,1-1.926,1.505
		c-0.055,0.034-0.104,0.081-0.158,0.127c-0.02,0.014-0.033,0.028-0.053,0.043c-0.059,0.036-0.086,0.082-0.121,0.13
		c-0.03,0.034-0.063,0.059-0.1,0.096c-0.482,1.942-1.053,3.852-1.688,5.733c-0.915,3.106-1.977,6.159-3.146,9.173
		c-1.381,4.081-2.926,8.104-4.662,12.063c-1.364,3.108-2.824,6.403-4.418,9.571c-0.668,1.326-1.448,1.938-1.307,2.649
		c0.098,0.873,0.383,1.757,0.252,2.642c-0.089,0.61,0.692,0.878,1.002,0.505c0.481-0.209,0.905-0.513,1.33-0.813
		c0.088,0.043,0.174,0.086,0.262,0.13c0.093,0.523,0.162,1.049,0.086,1.574c-0.09,0.611,0.689,0.88,1,0.505
		c0.5-0.218,0.94-0.531,1.384-0.849c0.077,0.041,0.155,0.08,0.235,0.123c0.094,0.545,0.174,1.092,0.094,1.637
		c-0.086,0.615,0.693,0.877,1.004,0.505c0.51-0.224,0.951-0.541,1.402-0.86l0.158,0.083c0.1,0.55,0.18,1.106,0.1,1.666
		c-0.088,0.611,0.693,0.877,1.004,0.504c0.512-0.225,0.963-0.55,1.41-0.872c0.053,0.027,0.1,0.053,0.147,0.078
		c0.101,0.563,0.185,1.119,0.104,1.682c-0.09,0.612,0.69,0.877,0.998,0.506c0.519-0.229,0.97-0.553,1.42-0.877
		c0.08,0.045,0.164,0.086,0.246,0.129c0.097,0.56,0.186,1.125,0.104,1.687c-0.09,0.612,0.689,0.877,1.001,0.505
		c0.517-0.229,0.968-0.553,1.419-0.875c0.038,0.021,0.076,0.035,0.113,0.059c0.1,0.562,0.186,1.128,0.104,1.691
		c-0.092,0.609,0.69,0.875,1,0.502c0.521-0.229,0.973-0.556,1.424-0.881c0.063,0.029,0.121,0.063,0.188,0.096
		c0.097,0.563,0.188,1.129,0.103,1.699c-0.086,0.609,0.691,0.877,1.002,0.499c0.521-0.228,0.979-0.556,1.438-0.888
		c0.04,0.021,0.078,0.043,0.118,0.063c0.102,0.569,0.189,1.144,0.105,1.715c-0.09,0.609,0.693,0.877,1.002,0.5
		c0.529-0.229,0.99-0.566,1.455-0.896c0.033,0.016,0.063,0.025,0.097,0.046c0.102,0.576,0.194,1.159,0.11,1.741
		c-0.09,0.609,0.691,0.877,0.998,0.504c0.551-0.238,1.023-0.591,1.506-0.938c0.045,0.022,0.096,0.05,0.144,0.067
		c0.104,0.603,0.209,1.208,0.123,1.808c-0.091,0.613,0.688,0.881,1.001,0.504c0.839-0.364,1.503-1,2.288-1.452
		c0.112-0.067,0.178-0.158,0.217-0.248c0,0,0.013-0.009,0.017-0.017c0.354-0.703,1.269-2.781,2.004-4.516
		c0.025-0.021,0.056-0.043,0.082-0.064c0.035,0.013,0.063,0.022,0.099,0.039c0.139,0.567,0.272,1.144,0.229,1.729
		c-0.052,0.616,0.748,0.827,1.026,0.437c0.532-0.272,0.979-0.653,1.438-1.031c0.047,0.021,0.098,0.041,0.146,0.06
		c0.146,0.595,0.288,1.19,0.243,1.795c-0.051,0.617,0.744,0.832,1.031,0.438c0.813-0.422,1.434-1.1,2.188-1.604
		c0.109-0.075,0.166-0.171,0.199-0.261c0,0,0.01-0.012,0.013-0.02c0.168-0.396,0.478-1.213,0.819-2.162
		c0,0.019,0.003,0.031,0.002,0.05c-0.021,0.618,0.783,0.795,1.047,0.393c0.521-0.298,0.952-0.698,1.395-1.096
		c0.049,0.021,0.101,0.039,0.147,0.054c0.171,0.588,0.34,1.178,0.319,1.783c-0.021,0.618,0.779,0.799,1.051,0.393
		c0.793-0.455,1.383-1.156,2.115-1.695c0.104-0.08,0.156-0.18,0.188-0.271c0,0,0.012-0.008,0.012-0.019
		c0.449-1.19,1.949-6.119,2.222-7.214c2.723-10.823,5.438-21.647,8.151-32.479c0.033-0.07,0.074-0.141,0.092-0.223
		c0.185-0.832,0.729-2.559,0.761-3.412C294.533,178.768,294.512,178.648,294.477,178.559z"/>
	<g>
		<path fill="#FFDEC1" d="M294.477,178.559c-0.004-0.015,0-0.025-0.004-0.039c-0.277-0.836-0.733-1.646-0.789-2.537
			c-0.037-0.614-0.855-0.717-1.081-0.289c-0.306,0.221-0.569,0.479-0.822,0.74c-0.149-0.404-0.272-0.814-0.299-1.248
			c-0.038-0.617-0.854-0.718-1.084-0.289c-0.511,0.363-0.915,0.834-1.339,1.289c-0.237-0.596-0.486-1.188-0.523-1.83
			c-0.037-0.619-0.857-0.717-1.084-0.289c-0.495,0.354-0.896,0.809-1.303,1.252c-0.234-0.573-0.469-1.154-0.506-1.774
			c-0.039-0.618-0.857-0.718-1.084-0.29c-0.495,0.354-0.896,0.809-1.305,1.249c-0.23-0.575-0.47-1.153-0.509-1.771
			c-0.034-0.619-0.854-0.717-1.08-0.287c-0.524,0.369-0.938,0.855-1.376,1.324c-0.242-0.613-0.507-1.229-0.547-1.888
			c-0.038-0.62-0.854-0.717-1.083-0.288c-0.487,0.35-0.884,0.793-1.287,1.229c-0.226-0.566-0.452-1.14-0.489-1.747
			c-0.039-0.619-0.859-0.719-1.086-0.292c-0.513,0.362-0.914,0.832-1.336,1.289c-0.236-0.595-0.486-1.189-0.527-1.827
			c-0.037-0.622-0.856-0.721-1.082-0.289c-0.494,0.354-0.896,0.805-1.305,1.25c-0.229-0.578-0.47-1.158-0.511-1.777
			c-0.03-0.613-0.854-0.717-1.08-0.287c-0.497,0.354-0.896,0.809-1.305,1.254c-0.229-0.58-0.465-1.158-0.502-1.779
			c-0.037-0.616-0.856-0.717-1.084-0.287c-0.527,0.371-0.941,0.857-1.377,1.324c-0.246-0.614-0.509-1.229-0.544-1.883
			c-0.041-0.621-0.856-0.719-1.09-0.293c-0.668,0.479-1.164,1.135-1.748,1.705c-0.049,0.041-0.096,0.094-0.144,0.143
			c-0.017,0.017-0.03,0.035-0.048,0.05c-0.051,0.045-0.076,0.092-0.105,0.144c-0.024,0.037-0.059,0.063-0.088,0.104
			c-0.269,1.983-0.623,3.938-1.052,5.884c-0.569,3.189-1.288,6.34-2.124,9.461c-0.928,4.209-2.021,8.377-3.314,12.5
			c-1.02,3.241-2.106,6.676-3.346,9.999c-0.52,1.392-1.229,2.087-1.01,2.778c0.193,0.854,0.574,1.701,0.54,2.596
			c-0.021,0.618,0.785,0.797,1.052,0.393c0.457-0.26,0.844-0.606,1.232-0.952c0.092,0.032,0.182,0.065,0.275,0.101
			c0.146,0.514,0.272,1.021,0.258,1.559c-0.023,0.619,0.781,0.799,1.049,0.394c0.473-0.271,0.877-0.634,1.279-0.993
			c0.084,0.029,0.164,0.063,0.252,0.096c0.147,0.531,0.291,1.066,0.27,1.617c-0.018,0.62,0.785,0.795,1.053,0.391
			c0.482-0.273,0.889-0.644,1.301-1.01l0.166,0.064c0.16,0.535,0.304,1.083,0.283,1.646c-0.021,0.617,0.783,0.795,1.051,0.391
			c0.484-0.277,0.896-0.65,1.312-1.021c0.052,0.021,0.104,0.041,0.151,0.063c0.16,0.546,0.31,1.093,0.287,1.657
			c-0.021,0.621,0.783,0.795,1.049,0.396c0.488-0.284,0.9-0.655,1.314-1.024c0.086,0.033,0.172,0.063,0.26,0.101
			c0.155,0.545,0.308,1.097,0.285,1.663c-0.021,0.619,0.784,0.798,1.051,0.393c0.488-0.281,0.9-0.654,1.314-1.022
			c0.041,0.018,0.08,0.024,0.119,0.045c0.158,0.546,0.307,1.101,0.288,1.671c-0.022,0.616,0.782,0.793,1.049,0.391
			c0.492-0.281,0.903-0.656,1.321-1.029c0.063,0.021,0.125,0.051,0.193,0.074c0.155,0.547,0.31,1.104,0.285,1.68
			c-0.02,0.613,0.784,0.795,1.053,0.385c0.494-0.281,0.91-0.656,1.332-1.039c0.043,0.02,0.082,0.035,0.125,0.051
			c0.159,0.555,0.313,1.113,0.295,1.691c-0.023,0.617,0.785,0.795,1.051,0.389c0.5-0.287,0.922-0.674,1.349-1.053
			c0.034,0.012,0.065,0.021,0.099,0.035c0.162,0.563,0.322,1.131,0.306,1.719c-0.023,0.619,0.78,0.796,1.047,0.393
			c0.521-0.299,0.952-0.699,1.396-1.096c0.049,0.02,0.1,0.039,0.146,0.053c0.171,0.588,0.339,1.178,0.316,1.783
			c-0.021,0.619,0.781,0.799,1.054,0.393c0.793-0.455,1.383-1.157,2.112-1.696c0.105-0.079,0.158-0.179,0.188-0.271
			c0,0,0.013-0.008,0.013-0.018c0.448-1.191,1.948-6.119,2.221-7.213c2.725-10.823,5.438-21.648,8.152-32.479
			c0.032-0.07,0.073-0.141,0.092-0.223c0.186-0.831,0.729-2.559,0.762-3.412C294.533,178.768,294.512,178.648,294.477,178.559"/>
		<path fill="#FF9300" d="M289.247,181.648c-0.004-0.016,0.001-0.026-0.003-0.039c-0.24-0.846-0.662-1.674-0.68-2.566
			c-0.01-0.618-0.824-0.754-1.066-0.335c-0.314,0.205-0.59,0.45-0.854,0.703c-0.133-0.41-0.236-0.828-0.245-1.261
			c-0.013-0.617-0.823-0.752-1.071-0.334c-0.525,0.34-0.949,0.793-1.393,1.229c-0.213-0.605-0.438-1.209-0.445-1.85
			c-0.011-0.62-0.826-0.754-1.07-0.336c-0.51,0.334-0.93,0.768-1.354,1.195c-0.208-0.588-0.416-1.18-0.43-1.801
			c-0.015-0.615-0.826-0.753-1.068-0.335c-0.514,0.334-0.932,0.769-1.357,1.188c-0.205-0.584-0.418-1.174-0.43-1.791
			c-0.011-0.623-0.824-0.754-1.064-0.334c-0.543,0.348-0.979,0.814-1.434,1.265c-0.219-0.622-0.455-1.247-0.467-1.906
			c-0.014-0.618-0.822-0.752-1.068-0.335c-0.506,0.327-0.916,0.753-1.339,1.178c-0.202-0.576-0.403-1.158-0.417-1.771
			c-0.013-0.62-0.826-0.754-1.07-0.338c-0.524,0.342-0.949,0.793-1.393,1.229c-0.212-0.604-0.436-1.211-0.447-1.85
			c-0.011-0.624-0.824-0.756-1.068-0.336c-0.508,0.332-0.926,0.765-1.356,1.193c-0.203-0.588-0.414-1.181-0.43-1.8
			c-0.009-0.614-0.822-0.755-1.066-0.337c-0.514,0.335-0.93,0.771-1.356,1.197c-0.207-0.592-0.414-1.178-0.426-1.801
			c-0.013-0.616-0.826-0.752-1.07-0.334c-0.543,0.351-0.979,0.816-1.432,1.267c-0.22-0.625-0.453-1.248-0.465-1.901
			c-0.014-0.623-0.824-0.754-1.07-0.34c-0.688,0.446-1.213,1.084-1.819,1.629c-0.052,0.039-0.103,0.088-0.149,0.137
			c-0.017,0.014-0.031,0.031-0.05,0.047c-0.056,0.041-0.081,0.088-0.112,0.137c-0.024,0.036-0.062,0.061-0.092,0.102
			c-0.354,1.974-0.793,3.91-1.303,5.834c-0.706,3.162-1.561,6.277-2.529,9.361c-1.104,4.164-2.379,8.281-3.849,12.346
			c-1.155,3.193-2.394,6.578-3.771,9.849c-0.578,1.364-1.315,2.028-1.127,2.729c0.155,0.863,0.5,1.729,0.428,2.617
			c-0.047,0.616,0.75,0.828,1.031,0.436c0.469-0.237,0.872-0.567,1.274-0.896c0.091,0.037,0.18,0.074,0.271,0.111
			c0.125,0.518,0.23,1.032,0.19,1.563c-0.052,0.617,0.747,0.832,1.03,0.438c0.482-0.249,0.902-0.597,1.322-0.938
			c0.078,0.034,0.158,0.068,0.242,0.105c0.131,0.538,0.246,1.078,0.201,1.627c-0.043,0.619,0.751,0.828,1.035,0.436
			c0.493-0.254,0.915-0.604,1.344-0.953l0.164,0.072c0.137,0.543,0.252,1.096,0.209,1.656c-0.047,0.616,0.75,0.828,1.034,0.436
			c0.495-0.256,0.924-0.609,1.353-0.963c0.053,0.022,0.103,0.043,0.152,0.066c0.137,0.553,0.257,1.105,0.215,1.668
			c-0.05,0.621,0.748,0.83,1.029,0.439c0.501-0.266,0.93-0.615,1.355-0.97c0.084,0.037,0.168,0.072,0.254,0.109
			c0.134,0.551,0.262,1.106,0.219,1.676c-0.051,0.617,0.746,0.828,1.029,0.438c0.5-0.26,0.93-0.615,1.357-0.967
			c0.039,0.019,0.078,0.027,0.116,0.051c0.137,0.551,0.259,1.11,0.217,1.68c-0.051,0.615,0.748,0.828,1.031,0.436
			c0.503-0.262,0.932-0.619,1.362-0.974c0.063,0.026,0.125,0.056,0.189,0.083c0.135,0.555,0.264,1.113,0.215,1.689
			c-0.045,0.612,0.75,0.828,1.033,0.431c0.506-0.261,0.938-0.618,1.375-0.981c0.041,0.021,0.081,0.037,0.123,0.057
			c0.136,0.563,0.27,1.125,0.225,1.701c-0.053,0.615,0.75,0.83,1.029,0.437c0.514-0.269,0.949-0.634,1.395-0.994
			c0.035,0.015,0.063,0.021,0.099,0.039c0.139,0.565,0.272,1.146,0.229,1.729c-0.052,0.617,0.748,0.828,1.026,0.438
			c0.532-0.273,0.979-0.654,1.438-1.033c0.047,0.021,0.098,0.043,0.146,0.061c0.146,0.595,0.288,1.189,0.243,1.796
			c-0.051,0.616,0.745,0.832,1.031,0.438c0.813-0.423,1.434-1.1,2.188-1.604c0.109-0.075,0.166-0.171,0.199-0.261
			c0,0,0.01-0.01,0.013-0.019c0.5-1.173,2.21-6.028,2.528-7.112c3.186-10.695,6.359-21.396,9.539-32.1
			c0.035-0.066,0.078-0.134,0.102-0.216c0.219-0.823,0.838-2.524,0.904-3.377C289.295,181.861,289.277,181.743,289.247,181.648"/>
		<path fill="#FFDEC1" d="M283.395,185.613c-0.004-0.014,0.003-0.026,0-0.039c-0.186-0.859-0.551-1.715-0.508-2.606
			c0.031-0.616-0.772-0.807-1.043-0.405c-0.328,0.187-0.617,0.41-0.897,0.646c-0.104-0.418-0.181-0.842-0.16-1.271
			c0.029-0.617-0.771-0.808-1.047-0.406c-0.547,0.308-1,0.729-1.472,1.137c-0.172-0.618-0.354-1.234-0.32-1.876
			c0.03-0.619-0.773-0.808-1.046-0.405c-0.531,0.299-0.979,0.703-1.433,1.104c-0.168-0.598-0.338-1.201-0.31-1.821
			c0.028-0.618-0.772-0.808-1.046-0.405c-0.529,0.301-0.979,0.702-1.438,1.1c-0.166-0.598-0.336-1.198-0.308-1.815
			c0.031-0.621-0.772-0.808-1.043-0.403c-0.563,0.31-1.028,0.75-1.513,1.166c-0.178-0.638-0.37-1.275-0.338-1.936
			c0.029-0.62-0.771-0.807-1.045-0.405c-0.525,0.292-0.965,0.689-1.414,1.084c-0.162-0.59-0.326-1.184-0.299-1.793
			c0.027-0.618-0.773-0.807-1.047-0.407c-0.549,0.307-1,0.729-1.471,1.137c-0.172-0.616-0.354-1.235-0.32-1.875
			c0.027-0.623-0.774-0.809-1.048-0.404c-0.528,0.298-0.977,0.699-1.435,1.1c-0.164-0.6-0.336-1.201-0.311-1.82
			c0.033-0.614-0.771-0.809-1.043-0.405c-0.535,0.298-0.979,0.705-1.436,1.104c-0.166-0.604-0.335-1.201-0.305-1.824
			c0.028-0.614-0.774-0.807-1.047-0.403c-0.563,0.313-1.029,0.752-1.514,1.168c-0.178-0.64-0.368-1.274-0.336-1.933
			c0.027-0.621-0.771-0.807-1.047-0.41c-0.719,0.402-1.28,1-1.926,1.505c-0.055,0.034-0.104,0.081-0.158,0.127
			c-0.02,0.013-0.035,0.028-0.053,0.043c-0.059,0.036-0.088,0.082-0.121,0.129c-0.029,0.035-0.063,0.058-0.1,0.097
			c-0.482,1.942-1.053,3.851-1.688,5.733c-0.915,3.106-1.977,6.159-3.146,9.172c-1.381,4.081-2.926,8.104-4.662,12.063
			c-1.365,3.107-2.824,6.402-4.418,9.57c-0.668,1.326-1.449,1.938-1.308,2.65c0.099,0.873,0.384,1.756,0.252,2.641
			c-0.088,0.612,0.692,0.877,1.003,0.506c0.48-0.209,0.905-0.514,1.329-0.813c0.089,0.043,0.175,0.086,0.263,0.129
			c0.092,0.524,0.162,1.049,0.086,1.575c-0.09,0.611,0.689,0.88,1,0.505c0.5-0.218,0.94-0.532,1.383-0.849
			c0.078,0.041,0.156,0.08,0.236,0.123c0.094,0.545,0.174,1.092,0.094,1.637c-0.086,0.615,0.693,0.877,1.002,0.505
			c0.512-0.224,0.953-0.541,1.404-0.86l0.157,0.082c0.101,0.551,0.181,1.107,0.101,1.666c-0.088,0.612,0.692,0.877,1.002,0.504
			c0.514-0.224,0.965-0.55,1.412-0.871c0.053,0.026,0.1,0.051,0.147,0.078c0.101,0.562,0.185,1.118,0.104,1.68
			c-0.091,0.613,0.689,0.877,0.998,0.507c0.519-0.229,0.969-0.554,1.42-0.877c0.08,0.045,0.164,0.086,0.246,0.129
			c0.096,0.56,0.186,1.125,0.104,1.687c-0.09,0.612,0.691,0.877,1.001,0.504c0.517-0.228,0.967-0.552,1.419-0.873
			c0.038,0.021,0.076,0.035,0.113,0.059c0.099,0.561,0.185,1.127,0.104,1.689c-0.092,0.61,0.689,0.875,1,0.504
			c0.521-0.229,0.971-0.557,1.424-0.881c0.063,0.028,0.121,0.063,0.188,0.096c0.097,0.563,0.188,1.129,0.103,1.699
			c-0.086,0.608,0.691,0.877,1.002,0.498c0.521-0.228,0.979-0.555,1.438-0.888c0.04,0.021,0.077,0.043,0.118,0.063
			c0.1,0.568,0.189,1.144,0.105,1.715c-0.09,0.609,0.693,0.877,1.002,0.5c0.529-0.229,0.99-0.567,1.455-0.897
			c0.033,0.015,0.063,0.026,0.096,0.046c0.103,0.576,0.195,1.159,0.111,1.741c-0.09,0.61,0.691,0.877,0.998,0.504
			c0.551-0.239,1.023-0.59,1.506-0.937c0.045,0.021,0.094,0.049,0.143,0.066c0.104,0.604,0.209,1.209,0.123,1.809
			c-0.09,0.611,0.688,0.881,1.002,0.504c0.839-0.364,1.502-1,2.287-1.453c0.113-0.066,0.179-0.158,0.218-0.247
			c0,0,0.011-0.009,0.016-0.017c0.574-1.137,2.604-5.869,2.995-6.93c3.891-10.459,7.771-20.924,11.655-31.392
			c0.04-0.065,0.088-0.129,0.114-0.209c0.271-0.81,1.004-2.463,1.129-3.312C283.426,185.829,283.42,185.71,283.395,185.613"/>
		<path fill="#FF9300" d="M254.45,183.913c6.3,2.771,6.987,3.01,13.3,5.747c1.354,0.59,2.272-1.508,0.92-2.096
			c-6.313-2.736-7-2.979-13.3-5.748C254.022,181.221,253.098,183.318,254.45,183.913"/>
		<path fill="#FF9300" d="M251.17,192.391c6.242,2.883,6.926,3.139,13.188,5.986c1.344,0.611,2.299-1.471,0.955-2.08
			c-6.261-2.852-6.944-3.105-13.188-5.984C250.785,189.695,249.827,191.771,251.17,192.391"/>
		<path fill="#FF9300" d="M247.885,200.869c6.19,2.994,6.871,3.26,13.076,6.224c1.334,0.634,2.325-1.427,0.993-2.062
			c-6.207-2.965-6.886-3.229-13.073-6.225C247.549,198.164,246.555,200.227,247.885,200.869"/>
		<path fill="#FF9300" d="M244.6,209.346c6.14,3.105,6.813,3.387,12.969,6.461c1.32,0.658,2.352-1.387,1.029-2.045
			c-6.151-3.076-6.827-3.352-12.967-6.457C244.315,206.639,243.284,208.682,244.6,209.346"/>
		<path fill="#FF9300" d="M272.754,191.752c0.969,0.432,1.229,0.553,1.944,0.861c1.354,0.586,2.272-1.506,0.92-2.094
			c-0.887-0.392-0.973-0.429-1.948-0.863C272.323,189.05,271.399,191.154,272.754,191.752"/>
		<path fill="#FF9300" d="M269.577,200.579c0.966,0.44,1.222,0.569,1.933,0.894c1.346,0.609,2.297-1.476,0.953-2.082
			c-0.879-0.396-0.968-0.438-1.937-0.894C269.19,197.872,268.235,199.965,269.577,200.579"/>
		<path fill="#FF9300" d="M266.4,209.406c0.958,0.459,1.215,0.588,1.921,0.92c1.334,0.633,2.317-1.434,0.985-2.066
			c-0.877-0.408-0.963-0.449-1.924-0.92C266.057,206.693,265.069,208.771,266.4,209.406"/>
		<path fill="#FF9300" d="M263.228,218.232c0.948,0.473,1.204,0.606,1.905,0.951c1.32,0.65,2.34-1.396,1.016-2.052
			c-0.867-0.426-0.952-0.469-1.905-0.95C262.926,215.514,261.903,217.578,263.228,218.232"/>
	</g>
</g>
<g id="b_x5F_recipes">
	<path fill="none" stroke="#FFFFFF" stroke-width="6" stroke-miterlimit="10" d="M64.544,261.729
		c-2.103-4.049-3.611-8.504-5.152-12.611c-1.726-4.6-3.233-9.266-4.548-13.983c-1.141-3.493-2.154-7.024-3.003-10.61
		c-0.602-2.184-1.131-4.383-1.56-6.615c-0.247-0.346-0.527-0.602-0.86-0.689c-0.278-0.074-0.541-0.044-0.796,0.021
		c-0.043,0.006-0.078-0.012-0.121,0.006c-0.104,0.041-0.195,0.08-0.301,0.119c-0.142,0.052-0.285,0.102-0.431,0.139
		c-0.035,0.012-0.058,0.055-0.084,0.076c-0.464,0.189-0.978,0.391-1.526,0.6c-0.128-0.59-0.267-1.177-0.381-1.771
		c-0.247-0.347-0.527-0.603-0.86-0.688c-0.278-0.074-0.541-0.045-0.796,0.021c-0.043,0.006-0.078-0.013-0.121,0.006
		c-0.104,0.041-0.195,0.08-0.301,0.119c-0.142,0.052-0.285,0.103-0.431,0.139c-0.035,0.013-0.058,0.056-0.084,0.076
		c-0.848,0.347-1.85,0.729-2.965,1.138c-0.151-0.688-0.31-1.367-0.442-2.06c-0.247-0.347-0.527-0.603-0.86-0.688
		c-0.278-0.074-0.541-0.045-0.796,0.021c-0.043,0.006-0.078-0.013-0.121,0.006c-0.104,0.041-0.195,0.08-0.301,0.119
		c-0.142,0.052-0.285,0.103-0.431,0.139c-0.035,0.013-0.058,0.056-0.084,0.076c-6.999,2.853-24.359,8.155-31.811,11.229
		c-0.368,0.174-0.761,0.299-1.06,0.658c-0.421,0.428-0.688,1.072-0.598,2.057c0.088,0.974,0.44,1.898,0.701,2.834
		c0.028,0.096,0.075,0.166,0.113,0.244c4.139,13.351,8.281,26.696,12.426,40.039c0.033,0.104,0.076,0.176,0.117,0.26v0.007
		c0.094,0.339,0.193,0.678,0.302,1.004c0.254,0.874,0.558,1.69,0.987,2.301c0.134,0.246,0.279,0.478,0.445,0.671
		c0.781,0.914,1.88,0.731,2.759,0.291c0.65-0.269,1.394-0.587,2.177-0.923c0.176,0.451,0.376,0.865,0.619,1.211
		c0.134,0.246,0.279,0.478,0.445,0.671c0.781,0.914,1.88,0.731,2.759,0.291c0.253-0.104,0.541-0.229,0.815-0.343
		c0.143,0.319,0.299,0.623,0.48,0.881c0.134,0.246,0.279,0.478,0.445,0.671c0.781,0.914,1.88,0.731,2.759,0.291
		c7.243-2.996,23.47-10.611,30.556-13.568c0.748-0.207,1.541-0.627,1.868-1.612C64.726,263.289,64.693,262.518,64.544,261.729z"/>
	<g>
		<path fill="#BBD9FD" d="M48.892,246.363c-1.726-4.598-3.233-9.262-4.548-13.982c-1.141-3.496-2.154-7.025-3.003-10.613
			c-0.602-2.181-1.131-4.383-1.56-6.613c-0.247-0.346-0.527-0.603-0.86-0.688c-0.278-0.071-0.541-0.044-0.796,0.021
			c-0.043,0.008-0.078-0.012-0.121,0.008c-0.104,0.041-0.195,0.079-0.301,0.119c-0.142,0.052-0.285,0.102-0.431,0.139
			c-0.035,0.014-0.058,0.057-0.084,0.076c-6.999,2.854-24.359,8.156-31.811,11.229c-0.368,0.174-0.761,0.301-1.06,0.658
			c-0.421,0.428-0.688,1.073-0.598,2.059c0.088,0.973,0.44,1.897,0.701,2.834c0.028,0.095,0.075,0.166,0.113,0.242
			c4.139,13.351,8.281,26.697,12.426,40.039c0.033,0.104,0.076,0.176,0.117,0.26v0.007c0.094,0.34,0.193,0.679,0.302,1.005
			c0.254,0.874,0.558,1.691,0.987,2.301c0.134,0.246,0.279,0.477,0.445,0.671c0.781,0.914,1.88,0.732,2.759,0.291
			c7.243-2.997,23.47-10.61,30.556-13.567c0.748-0.209,1.541-0.629,1.868-1.612c0.23-0.697,0.198-1.47,0.049-2.259
			C51.941,254.93,50.433,250.475,48.892,246.363"/>
		<path fill="#3281EE" d="M54.892,247.613c-1.726-4.598-3.233-9.262-4.548-13.982c-1.141-3.496-2.154-7.025-3.003-10.613
			c-0.602-2.181-1.131-4.383-1.56-6.613c-0.247-0.346-0.527-0.603-0.86-0.688c-0.278-0.071-0.541-0.044-0.796,0.021
			c-0.043,0.008-0.078-0.012-0.121,0.008c-0.104,0.041-0.195,0.079-0.301,0.119c-0.142,0.052-0.285,0.102-0.431,0.139
			c-0.035,0.014-0.058,0.057-0.084,0.076c-6.999,2.854-24.359,8.156-31.811,11.229c-0.368,0.174-0.761,0.301-1.06,0.658
			c-0.421,0.428-0.688,1.073-0.598,2.059c0.088,0.973,0.44,1.897,0.701,2.834c0.028,0.095,0.075,0.166,0.113,0.242
			c4.139,13.351,8.281,26.697,12.426,40.039c0.033,0.104,0.076,0.176,0.117,0.26v0.007c0.094,0.34,0.193,0.679,0.302,1.005
			c0.254,0.874,0.558,1.691,0.987,2.301c0.134,0.246,0.279,0.477,0.445,0.671c0.781,0.914,1.88,0.732,2.759,0.291
			c7.243-2.997,23.47-10.61,30.556-13.567c0.748-0.209,1.541-0.629,1.868-1.612c0.23-0.697,0.198-1.47,0.049-2.259
			C57.941,256.18,56.433,251.725,54.892,247.613"/>
		<path fill="#BBD9FD" d="M59.392,249.113c-1.726-4.598-3.233-9.262-4.548-13.982c-1.141-3.496-2.154-7.025-3.003-10.613
			c-0.602-2.181-1.131-4.383-1.56-6.613c-0.247-0.346-0.527-0.603-0.86-0.688c-0.278-0.071-0.541-0.044-0.796,0.021
			c-0.043,0.008-0.078-0.012-0.121,0.008c-0.104,0.041-0.195,0.079-0.301,0.119c-0.142,0.052-0.285,0.102-0.431,0.139
			c-0.035,0.014-0.058,0.057-0.084,0.076c-6.999,2.854-24.359,8.156-31.811,11.229c-0.368,0.174-0.761,0.301-1.06,0.658
			c-0.421,0.428-0.688,1.073-0.598,2.059c0.088,0.973,0.44,1.897,0.701,2.834c0.028,0.095,0.075,0.166,0.113,0.242
			c4.139,13.351,8.281,26.697,12.426,40.039c0.033,0.104,0.076,0.176,0.117,0.26v0.007c0.094,0.34,0.193,0.679,0.302,1.005
			c0.254,0.874,0.558,1.691,0.987,2.301c0.134,0.246,0.279,0.477,0.445,0.671c0.781,0.914,1.88,0.732,2.759,0.291
			c7.243-2.997,23.47-10.61,30.556-13.567c0.748-0.209,1.541-0.629,1.868-1.612c0.23-0.697,0.198-1.47,0.049-2.259
			C62.441,257.68,60.933,253.225,59.392,249.113"/>
		<path fill="#3281EE" d="M37.943,241.152c-3.674,1.715-7.658,3.051-11.414,4.627c-1.543,0.646-0.501,3.035,1.049,2.384
			c3.754-1.575,7.738-2.911,11.412-4.627C40.506,242.83,39.467,240.439,37.943,241.152"/>
		<path fill="#3281EE" d="M44.609,250.709c-5.349,1.947-7.033,2.26-15.918,6.109c-1.525,0.66-0.582,3.039,0.977,2.416
			c9.434-3.779,10.57-4.164,15.92-6.11C47.159,252.549,46.186,250.135,44.609,250.709"/>
		<path fill="#3281EE" d="M45.584,261.363c-6.302,2.488-7.563,3.051-12.664,5.318c-1.52,0.676-0.549,3.049,1.005,2.402
			c9.39-3.886,6.56-2.786,12.665-5.32C48.137,263.121,47.145,260.747,45.584,261.363"/>
		<path fill="#3281EE" d="M36.044,236.332c-5.319,2.027-1.948,0.545-10.775,4.527c-1.515,0.681-0.534,3.049,1.015,2.396
			c9.373-3.924,5.455-2.499,10.777-4.524C38.625,238.134,37.61,235.73,36.044,236.332"/>
		<path fill="#3281EE" d="M45.285,227.13c-7.252,2.944-14.508,5.873-21.742,8.853c-1.551,0.644-0.572,3.057,0.982,2.414
			c7.236-2.979,14.492-5.908,21.741-8.854C47.822,228.911,46.842,226.498,45.285,227.13"/>
		<path fill="#3281EE" d="M52.828,252.436c-7.252,2.938-14.509,5.867-21.745,8.854c-1.55,0.639-0.569,3.05,0.983,2.413
			c7.236-2.979,14.492-5.91,21.742-8.854C55.365,254.215,54.382,251.801,52.828,252.436"/>
	</g>
</g>
</svg>
