<?xml version="1.0" encoding="utf-8"?>
<!-- Generator: Adobe Illustrator 17.1.0, SVG Export Plug-In . SVG Version: 6.00 Build 0)  -->
<!DOCTYPE svg PUBLIC "-//W3C//DTD SVG 1.1//EN" "http://www.w3.org/Graphics/SVG/1.1/DTD/svg11.dtd">
<svg version="1.1" id="Calque_1" xmlns="http://www.w3.org/2000/svg" xmlns:xlink="http://www.w3.org/1999/xlink" x="0px" y="0px"
	 viewBox="0 0 260.8 62.4" enable-background="new 0 0 260.8 62.4" xml:space="preserve">
<g>
	<path fill="#FFFFFF" d="M34.9,8.6c0,6.2,0,12.4,0,18.7c0,4.3,0,8.6,0,12.9c0,0.4,0,0.7,0,1.1c-2.9,0-5.7,0-8.6,0c0-8,0-16,0-24
		c-5.9,0-11.6,0-17.5,0c0,8,0,15.9,0,24.1c-3,0-5.8,0-8.7,0c0-10.9,0-21.8,0-32.7C11.8,8.6,23.4,8.6,34.9,8.6z"/>
	<path fill="#FFFFFF" d="M13.4,54.6c0-6.2,0-12.4,0-18.7c0-4.3,0-8.6,0-12.9c0-0.4,0-0.7,0-1.1c2.9,0,5.7,0,8.6,0c0,8,0,15.9,0,24
		c5.9,0,11.6,0,17.5,0c0-8,0-15.9,0-23.9c2.9,0,5.7,0,8.7,0c0,0.3,0,0.7,0,1c0,10.2,0,20.3,0,30.5c0,0.4,0,0.7,0,1.1
		C36.6,54.6,25,54.6,13.4,54.6z"/>
	<path fill="#FFFFFF" d="M261,42.5c-1.1,0-2.1,0-3.2,0c-0.6,0-1-0.2-1.2-0.8c-0.1-0.4-0.3-0.8-0.6-1.3c-0.5,0.4-0.9,0.7-1.3,1
		c-2.5,1.8-5.7,1.9-8.1,0.2c-2.4-1.6-3.5-4.7-2.7-7.6c0.6-2.3,2.3-3.6,4.4-4.2c1.5-0.4,3.1-0.6,4.7-0.8c0.8-0.1,1.6,0,2.4,0
		c0.5-2.6-1.4-4.5-4.2-4.2c-1.9,0.2-3.8,0.5-5.7,0.7c-0.3-1.1-0.6-2.3-0.9-3.6c2.6-0.9,5.2-1.3,7.8-1.4c1.3,0,2.7,0.1,4,0.4
		c2.4,0.5,3.8,2.1,4.4,4.5c0.1,0.3,0.2,0.5,0.2,0.8C261,31.6,261,37,261,42.5z M255.5,34.7c0-0.5,0.1-0.9,0-1.3
		c0-0.2-0.3-0.5-0.4-0.5c-1.4,0.1-2.8,0.1-4.1,0.3c-1.2,0.3-1.7,1.2-1.6,2.6c0.1,1.3,0.8,2.2,2,2.4c1.1,0.2,1.9-0.4,2.7-1
		C254.9,36.6,255.8,35.9,255.5,34.7z"/>
	<path fill="#FFFFFF" d="M238.3,42.4c-1.9,0-3.7,0-5.6,0c0-0.4,0-0.7,0-1c0-3.9,0-7.8,0-11.7c0-0.8-0.1-1.6-0.3-2.3
		c-0.5-1.5-1.6-2.1-3-1.6c-1,0.4-1.9,1-2.8,1.6c-0.2,0.2-0.4,0.7-0.4,1c0,4.3,0,8.6,0,13c0,0.3,0,0.7,0,1c-1.9,0-3.7,0-5.6,0
		c0-0.4,0-0.8,0-1.1c0-4.1,0-8.2,0-12.3c0-0.2,0-0.3,0-0.5c-0.2-2.6-1.8-3.5-4.2-2.4c-0.1,0.1-0.2,0.1-0.3,0.2
		c-1.3,0.6-1.9,1.4-1.9,3c0.1,4,0,8,0,12c0,0.3,0,0.7,0,1.1c-1.9,0-3.7,0-5.6,0c0-7.1,0-14.3,0-21.5c1.5,0,2.9,0,4.4,0
		c0.2,0,0.4,0.3,0.5,0.5c0.2,0.4,0.4,0.9,0.6,1.5c1.8-1.3,3.7-2.3,5.9-2.4c2.4-0.1,4.2,0.8,5.3,3c0.9-0.6,1.7-1.1,2.6-1.7
		c1.7-1,3.6-1.5,5.5-1.2c2.3,0.3,3.7,1.8,4.3,4c0.3,1.2,0.5,2.5,0.5,3.8c0.1,4.6,0,9.1,0,13.7C238.3,42.1,238.3,42.2,238.3,42.4z"/>
	<path fill="#FFFFFF" d="M141.2,42.4c-1.9,0-3.7,0-5.6,0c0-0.4,0-0.8,0-1.1c0-3.9,0-7.8,0-11.7c0-0.7-0.1-1.5-0.3-2.2
		c-0.4-1.5-1.6-2.2-3.1-1.6c-1,0.4-1.9,1-2.8,1.6c-0.2,0.2-0.3,0.7-0.3,1.1c0,4.3,0,8.6,0,12.9c0,0.3,0,0.7,0,1.1
		c-1.8,0-3.6,0-5.5,0c0-0.4-0.1-0.7-0.1-1.1c0-3.9,0-7.7,0-11.6c0-0.8-0.1-1.6-0.3-2.3c-0.4-1.5-1.5-2.1-3-1.6
		c-1,0.3-1.9,0.9-2.7,1.5c-0.3,0.2-0.4,0.7-0.4,1.1c0,4.3,0,8.6,0,12.9c0,0.4,0,0.7,0,1.1c-1.9,0-3.6,0-5.5,0c0-0.3-0.1-0.7-0.1-1
		c0-6.5,0-13,0-19.5c0-0.8,0.2-1.2,1.1-1.1c0.8,0.1,1.7,0.1,2.5,0c0.9-0.1,1.4,0.3,1.5,1.1c0.1,0.3,0.2,0.5,0.3,0.8
		c0.8-0.5,1.5-0.9,2.2-1.3c1.5-0.9,3.2-1.1,4.9-1c1.9,0.2,3.2,1.2,4.1,2.9c0.9-0.6,1.7-1.1,2.5-1.6c1.7-1.1,3.6-1.6,5.6-1.3
		c2.5,0.4,4.1,2.1,4.7,5c0.1,0.7,0.2,1.5,0.2,2.2c0,4.7,0,9.4,0,14.1C141.2,41.9,141.2,42.1,141.2,42.4z"/>
	<path fill="#FFFFFF" d="M79.4,42.4c-1.9,0-3.7,0-5.6,0c0-0.4,0-0.8,0-1.1c0-4.1,0-8.2,0-12.3c0-0.5-0.1-1-0.3-1.5
		c-0.5-1.5-1.8-2.3-3.3-1.8c-1.1,0.4-2.1,1.1-3.1,1.7c-0.2,0.2-0.3,0.7-0.3,1.1c0,4.3,0,8.6,0,13c0,0.3,0,0.7,0,1.1
		c-1.9,0-3.7,0-5.6,0c0-0.3,0-0.6,0-0.9c0-6.6,0-13.1,0-19.7c0-0.8,0.3-1.1,1-1c0.9,0.1,1.7,0.1,2.6,0c0.9-0.1,1.4,0.3,1.6,1.1
		c0.1,0.3,0.3,0.5,0.4,0.9c0.9-0.5,1.7-1,2.5-1.5c1.5-0.8,3.2-1,4.9-0.8c3.1,0.4,5,2.5,5.1,6.1C79.5,31.8,79.4,37.1,79.4,42.4z"/>
	<path fill="#FFFFFF" d="M104.4,20.8c0,7.2,0,14.4,0,21.5c-1.6,0-3.1,0-4.7,0c-0.3-0.6-0.6-1.2-0.9-2c-0.5,0.3-1,0.6-1.5,0.9
		c-1.9,1.3-4.1,1.6-6.3,1.2c-2.6-0.4-4.4-2.6-4.7-5.6c-0.1-1.2-0.1-2.4-0.1-3.6c0-3.9,0-7.8,0-11.7c0-0.7,0.2-1,0.9-0.9
		c1.5,0,3,0,4.7,0c0,0.4,0,0.8,0,1.1c0,3.9,0,7.8,0,11.8c0,0.8,0.1,1.7,0.3,2.4c0.5,1.6,1.8,2.4,3.3,1.9c1.1-0.4,2.1-1,3-1.6
		c0.2-0.2,0.3-0.7,0.3-1.1c0-4.4,0-8.9,0-13.3c0-0.9,0.2-1.2,1.1-1.1C101.4,20.9,102.9,20.8,104.4,20.8z"/>
	<path fill="#FFFFFF" d="M186.9,25.4c-0.3-1.1-0.6-2.3-0.9-3.7c1.7-0.3,3.3-0.8,4.9-1c2.2-0.3,4.4-0.5,6.6,0c3,0.7,4.8,2.7,4.8,5.8
		c0.1,5.2,0,10.4,0.1,15.5c0,0.1,0,0.2-0.1,0.4c-1.2,0-2.4,0-3.6,0c-0.2,0-0.4-0.3-0.5-0.5c-0.2-0.5-0.4-1-0.7-1.6
		c-0.4,0.3-0.8,0.6-1.1,0.9c-2.5,1.9-5.7,2.1-8.2,0.4c-2.4-1.6-3.6-4.7-2.8-7.7c0.6-2.1,2-3.5,4-4.1c1.6-0.5,3.4-0.7,5.1-0.9
		c0.8-0.1,1.6,0,2.4,0c0.1-2.9-1.5-4.5-4.2-4.2C190.7,24.8,188.9,25.1,186.9,25.4z M196.8,32.8c-1.6,0.2-3.1,0.2-4.6,0.5
		c-1.3,0.3-1.9,1.7-1.4,3.2c0.4,1.4,1.5,2.1,2.8,1.8c1.3-0.3,2.1-1.2,3-2.2c0.1-0.1,0.2-0.3,0.2-0.5
		C196.8,34.8,196.8,33.9,196.8,32.8z"/>
	<path fill="#FFFFFF" d="M163.1,37.4c0.3,1.2,0.6,2.4,0.9,3.8c-1.3,0.4-2.5,0.8-3.8,1.1c-2.3,0.5-4.7,0.6-7,0.1
		c-3.2-0.7-5.4-2.6-6.3-5.8c-0.9-3.3-0.9-6.7,0.1-10c1.3-4.2,4.4-6.2,9.2-6.1c3.9,0,6.8,2.2,7.7,5.9c0.3,1.2,0.4,2.5,0.5,3.8
		c0.1,0.7-0.1,1.5,0,2.2c0,0.7-0.3,0.9-1,0.9c-3.5,0-7,0-10.5,0c-1.3,0-1.3,0-1.1,1.3c0.3,2.4,2.1,3.8,5,3.8c1,0,2.1-0.1,3.1-0.3
		C161,37.9,162,37.6,163.1,37.4z M151.7,29.4c2.5,0,4.9,0,7.4,0c0.1-1.6-0.1-3.1-1.5-4.1c-1.1-0.8-2.5-0.9-3.7-0.2
		C152.2,25.9,151.9,27.5,151.7,29.4z"/>
	<path fill="#FFFFFF" d="M175.4,42.4c-1.9,0-3.7,0-5.6,0c0-0.4,0-0.7,0-1c0-6.5,0-13,0-19.5c0-0.8,0.2-1.2,1.1-1.1
		c0.8,0.1,1.7,0.1,2.5,0c0.8-0.1,1,0.3,1.1,0.9c0.1,0.4,0.2,0.7,0.3,1.2c2.2-1.8,4.4-3.2,7.4-2.3c-0.2,1.6-0.3,3.3-0.5,5
		c-2.4-0.7-4.2,0.1-5.7,1.8c-0.3,0.3-0.5,0.9-0.6,1.3c0,4.2,0,8.3,0,12.5C175.4,41.7,175.4,42,175.4,42.4z"/>
</g>
<path fill="#FFFFFF" d="M0,8.4"/>
</svg>
