<svg xmlns="http://www.w3.org/2000/svg" xmlns:xlink="http://www.w3.org/1999/xlink" viewBox="0 0 600 250"><defs><style>.cls-1{fill:#eff4fa;}.cls-2{opacity:0.2;}.cls-3{fill:#8cbdff;}.cls-4{fill:#197bff;}.cls-5{fill:#b2d3ff;}.cls-6{fill:#3281ee;}.cls-7{fill:#65a7ff;}.cls-8{fill:none;}.cls-9{fill:#855cea;}.cls-10{fill:url(#linear-gradient);}.cls-11{fill:#ff7bac;}</style><linearGradient id="linear-gradient" x1="461.76" y1="97.38" x2="512.31" y2="97.38" gradientTransform="translate(6.02 94.99) rotate(1.21)" gradientUnits="userSpaceOnUse"><stop offset="0" stop-color="#eff4fa"/><stop offset="0.28" stop-color="#d1e4fc"/><stop offset="0.57" stop-color="#bad8fe"/><stop offset="0.74" stop-color="#b2d3ff"/></linearGradient></defs><title>pattern-600x250</title><g id="bg"><rect class="cls-1" x="-24.05" width="648.09" height="250"/></g><g id="Layer_1" data-name="Layer 1"><g class="cls-2"><path class="cls-3" d="M568.19,75.8l1.28-2a1.51,1.51,0,0,0,.18-.36,1.66,1.66,0,0,0-2.84-1.7L565.33,74h-.16a2,2,0,0,0-.53-.1,11,11,0,0,1-1.63-.18,12.44,12.44,0,0,1-3-1.36,16,16,0,0,1-2.83-2.09,8.29,8.29,0,0,1-1.1-1.47c-.1-.17-.19-.34-.28-.52a1.64,1.64,0,0,0-.14-.22s0-.09-.07-.14a.76.76,0,0,1,0-.11l1.26-1.92a1.66,1.66,0,0,0-2.69-1.94,2.32,2.32,0,0,0-.24.28,13.42,13.42,0,0,0-1.42,2.21,2.1,2.1,0,0,0-.18.4,2.68,2.68,0,0,0-.07.27,2.14,2.14,0,0,0-.07.38v.17a1.63,1.63,0,0,0,0,.66,6.11,6.11,0,0,0,.28,1.06,1.48,1.48,0,0,0,.24.6,8.82,8.82,0,0,0,2.16,2.84,15.3,15.3,0,0,0,2.21,1.9l.2.14a.94.94,0,0,0,.18.12l.58.37a2.29,2.29,0,0,0,.23.16,15.21,15.21,0,0,0,4.61,2.08c1.56.32,3.47.3,4.71-.85l.12-.11.09-.1A2.1,2.1,0,0,0,568.19,75.8Z"/><path class="cls-4" d="M569.72,71.17a11.79,11.79,0,0,0-2.88-4.34,13.27,13.27,0,0,0-3.92-2.9c-2.31-1.14-5.12-2-7.62-1.08a1.29,1.29,0,0,0-.61.44,1.43,1.43,0,0,0-.53,1.18A7.92,7.92,0,0,0,557,70.36a15.2,15.2,0,0,0,3.1,2.4,16.56,16.56,0,0,0,1.51.78,10.88,10.88,0,0,0,5.31,1.23C568.8,74.58,570.42,73.19,569.72,71.17Z"/><path class="cls-5" d="M563.75,65.88a10.66,10.66,0,0,1,2.14,1.81l.05,0a10.7,10.7,0,0,1,2.57,3.86,1.2,1.2,0,0,1-.06,1.06,2.24,2.24,0,0,1-1.67.84,9.69,9.69,0,0,1-4.65-1.12,14.21,14.21,0,0,1-1.4-.72l-.05,0a5.35,5.35,0,0,1-.59-.35,19.15,19.15,0,0,1-2.24-1.85,6.73,6.73,0,0,1-2.41-4.94.32.32,0,0,1,0-.19,1,1,0,0,0,.21-.21l0,0c1.74-.63,4-.29,6.62,1a13.71,13.71,0,0,1,1.4.8m.71-1.07a13.22,13.22,0,0,0-1.54-.88c-2.31-1.14-5.12-2-7.62-1.08a1.29,1.29,0,0,0-.61.44,1.43,1.43,0,0,0-.53,1.18A7.92,7.92,0,0,0,557,70.36a18.89,18.89,0,0,0,2.41,2c.23.15.46.28.69.41a16.56,16.56,0,0,0,1.51.78,10.88,10.88,0,0,0,5.31,1.23c1.9-.19,3.52-1.58,2.82-3.6a11.79,11.79,0,0,0-2.88-4.34,12.08,12.08,0,0,0-2.38-2Z"/><path class="cls-3" d="M570.37,66.18l.14-2.39a1.85,1.85,0,0,0,0-.41,1.66,1.66,0,0,0-3.31-.12L567,66h0l-.12.07a1.82,1.82,0,0,0-.52.16,10.58,10.58,0,0,1-1.52.63,12.39,12.39,0,0,1-3.27.25A15.53,15.53,0,0,1,558,66.6a8.62,8.62,0,0,1-1.67-.75l-.5-.32-.22-.13-.14-.09-.09-.08.18-2.29a1.67,1.67,0,0,0-1.52-1.78,1.69,1.69,0,0,0-1.76,1.38,1.9,1.9,0,0,0-.08.36,13.53,13.53,0,0,0-.18,2.62,2.32,2.32,0,0,0,0,.44,1.34,1.34,0,0,0,.07.27,1.27,1.27,0,0,0,.12.36,1.09,1.09,0,0,0,.08.15,1.87,1.87,0,0,0,.31.59,8.17,8.17,0,0,0,.76.79,1.74,1.74,0,0,0,.51.41A9.09,9.09,0,0,0,557.2,70a16.59,16.59,0,0,0,2.85.59l.25,0,.22,0,.68,0a1.24,1.24,0,0,0,.27,0,15,15,0,0,0,5-.4c1.52-.47,3.19-1.41,3.72-3,0,0,0-.1,0-.15l0-.13A2.29,2.29,0,0,0,570.37,66.18Z"/><path class="cls-4" d="M569.48,61.39A11.86,11.86,0,0,0,564.86,59a13.18,13.18,0,0,0-4.84-.65c-2.56.12-5.43.73-7.19,2.73a1.29,1.29,0,0,0-.32.68,1.44,1.44,0,0,0,.1,1.28,7.9,7.9,0,0,0,5.31,3.81,15.25,15.25,0,0,0,3.88.6,13.83,13.83,0,0,0,1.7,0,10.8,10.8,0,0,0,5.24-1.48C570.32,64.82,571.07,62.82,569.48,61.39Z"/><path class="cls-5" d="M561.7,59.63a11.19,11.19,0,0,1,2.74.55l.07,0a10.78,10.78,0,0,1,4.11,2.14,1.14,1.14,0,0,1,.45,1A2.22,2.22,0,0,1,568,64.84a9.89,9.89,0,0,1-4.62,1.26c-.52,0-1,.05-1.57,0h-.06c-.21,0-.44,0-.68,0a19.27,19.27,0,0,1-2.86-.55,6.71,6.71,0,0,1-4.49-3.16.27.27,0,0,1,0-.19,1,1,0,0,0,.08-.29l0,0c1.21-1.39,3.33-2.16,6.28-2.3a14.55,14.55,0,0,1,1.62,0m.1-1.28a15.18,15.18,0,0,0-1.78,0c-2.56.12-5.43.73-7.19,2.73a1.29,1.29,0,0,0-.32.68,1.44,1.44,0,0,0,.1,1.28,7.9,7.9,0,0,0,5.31,3.81,18.94,18.94,0,0,0,3.07.58,7.3,7.3,0,0,0,.81,0,13.83,13.83,0,0,0,1.7,0,10.8,10.8,0,0,0,5.24-1.48c1.58-1.08,2.33-3.08.74-4.51A11.86,11.86,0,0,0,564.86,59a12.23,12.23,0,0,0-3.06-.62Z"/><path class="cls-3" d="M574.41,60.2l.14-2.39a1.82,1.82,0,0,0,0-.41,1.66,1.66,0,0,0-3.31-.12L571,60h0l-.12.06a1.86,1.86,0,0,0-.52.17,11,11,0,0,1-1.51.63,12.94,12.94,0,0,1-3.28.25,16.13,16.13,0,0,1-3.49-.47,8.66,8.66,0,0,1-1.67-.76l-.5-.32a.94.94,0,0,0-.22-.12l-.14-.1-.08-.07.18-2.29a1.66,1.66,0,0,0-3.29-.41,1.53,1.53,0,0,0-.07.36,12.89,12.89,0,0,0-.19,2.63,2.15,2.15,0,0,0,0,.43,1.34,1.34,0,0,0,.07.27,1.45,1.45,0,0,0,.12.37,1.09,1.09,0,0,0,.08.15,1.83,1.83,0,0,0,.31.58,7.16,7.16,0,0,0,.76.79,1.47,1.47,0,0,0,.51.41A8.83,8.83,0,0,0,561.24,64a15.72,15.72,0,0,0,2.85.6l.25,0h.22l.68.05a2.4,2.4,0,0,0,.28,0,15.26,15.26,0,0,0,5-.4c1.53-.47,3.19-1.41,3.72-3,0,0,0-.11.05-.16l0-.13A2.23,2.23,0,0,0,574.41,60.2Z"/><path class="cls-4" d="M573.52,55.41A11.88,11.88,0,0,0,568.9,53a13.38,13.38,0,0,0-4.84-.64c-2.56.11-5.43.72-7.19,2.73a1.3,1.3,0,0,0-.32.67,1.46,1.46,0,0,0,.1,1.29,7.9,7.9,0,0,0,5.31,3.8,15.26,15.26,0,0,0,3.88.61c.56,0,1.13,0,1.7,0a10.81,10.81,0,0,0,5.24-1.49C574.36,58.84,575.11,56.84,573.52,55.41Z"/><path class="cls-5" d="M565.74,53.65a10.65,10.65,0,0,1,2.74.55l.07,0a10.64,10.64,0,0,1,4.11,2.14,1.14,1.14,0,0,1,.45,1,2.21,2.21,0,0,1-1.05,1.53,9.79,9.79,0,0,1-4.62,1.27c-.52,0-1.05.05-1.57,0h-.06l-.68,0a18.05,18.05,0,0,1-2.86-.54,6.73,6.73,0,0,1-4.49-3.17s-.07-.14,0-.18a1.71,1.71,0,0,0,.09-.3l0,0c1.21-1.39,3.33-2.16,6.28-2.29a10.93,10.93,0,0,1,1.62,0m.1-1.28a13.25,13.25,0,0,0-1.78,0c-2.56.11-5.43.72-7.19,2.73a1.3,1.3,0,0,0-.32.67,1.46,1.46,0,0,0,.1,1.29,7.9,7.9,0,0,0,5.31,3.8,19.15,19.15,0,0,0,3.07.58,7.31,7.31,0,0,0,.81,0c.56,0,1.13,0,1.7,0a10.81,10.81,0,0,0,5.24-1.49c1.58-1.07,2.33-3.07.74-4.5A11.88,11.88,0,0,0,568.9,53a12.68,12.68,0,0,0-3.06-.61Z"/><path class="cls-1" d="M564,57.66l-.19-.24-.13,0a.88.88,0,0,1-.5-.11,2,2,0,0,1-.52-.28c-.13-.11.09-.28.67-.5a1.73,1.73,0,0,1-.05-1.28,1.42,1.42,0,0,1,1-.8,1.35,1.35,0,0,1,.73.08,2.38,2.38,0,0,1,.75.37.51.51,0,0,1,.15.25c0,.09,0,.15-.07.17a1.33,1.33,0,0,1-.28-.1.58.58,0,0,0-.38-.06.87.87,0,0,0-.5.36,1.27,1.27,0,0,0-.2.62A14.41,14.41,0,0,1,566,55.8c.4-.07.67,0,.8.07s0,.26-.52.49a10.39,10.39,0,0,1-1.3.56l-.31.12.16.25a15.78,15.78,0,0,1,1.75-.64c.56-.17.9-.19,1-.08s-.44.64-2,1.37a1.38,1.38,0,0,0,1.08.12,3.39,3.39,0,0,0,1.27-.7,1.05,1.05,0,0,1,.31-.19.34.34,0,0,1,.22,0,.55.55,0,0,1,.21.12q.19.15.06.45a1.58,1.58,0,0,1-.48.6,2.24,2.24,0,0,1-.79.42,3.11,3.11,0,0,1-2.75-.43l-.32.1a1,1,0,0,1-.49-.12,1.88,1.88,0,0,1-.51-.28C563.42,58,563.6,57.86,564,57.66Z"/><path class="cls-4" d="M520.18,23.31A1.09,1.09,0,0,0,518.93,22c-7.17,1.11-14.72,0-22,.81a1.09,1.09,0,0,0-.81.17,1,1,0,0,0-.2.15l-.06,0-.07.08-.08.09c-3.21,3.52-6.67,6.81-9.23,10.86-3.38,5.35-5.5,11.4-7.62,17.32-2.18,6.11-4.1,13.33-8.26,18.42A11.77,11.77,0,0,1,466,73.39c-2.45,1-6.35.22-8-2.07-1.32-1.86-.39-6-.05-8.11a1.23,1.23,0,0,0-2.41-.44c-.67,4.07-1.34,9.92,2.6,12.64a7.13,7.13,0,0,0,4,1.23,1.12,1.12,0,0,0,.56.06c11.94-1.51,24.41-.51,36.24-3a1.35,1.35,0,0,0,1-1.59c1.34-1,4.22-1.24,5.52-2.89,3-3.8,4.48-9.13,6.08-13.59,1.7-4.73,3.59-9.39,4.66-14.31,1.24-5.66,1.59-11.29,4.16-16.58A1.12,1.12,0,0,0,520.18,23.31Z"/><path class="cls-3" d="M495.88,23.13c-3.25,3.59-6.78,6.92-9.38,11-3.38,5.35-5.5,11.4-7.62,17.32-.83,2.35-1.63,4.85-2.54,7.34a114.86,114.86,0,0,0-20,3,1,1,0,0,0-.75,1.32c-.64,4-1.16,9.63,2.66,12.27,4,2.8,10,.41,13.15-2.64,6-5.84,8-15.62,10.8-23.2,3.63-9.89,8.57-17.09,15.58-24.84C498.79,23.56,496.94,22,495.88,23.13Z"/><path class="cls-5" d="M503.78,22.11l-.94-.15a1.08,1.08,0,0,0-.87-.24l-.78.06a9.85,9.85,0,0,0-5.75.92,11.21,11.21,0,0,0-3.18,3.53c-1,1.37-2,2.65-2.91,4.08a36.13,36.13,0,0,0-2.85,3.85c-3.38,5.35-5.5,11.4-7.62,17.32-2.18,6.11-4.1,13.33-8.26,18.42A11.77,11.77,0,0,1,466,73.39c-2.45,1-6.35.22-8-2.07-1.32-1.86-.39-6-.05-8.11a1.23,1.23,0,0,0-2.41-.44c-.67,4.07-1.34,9.92,2.6,12.64s10,.41,13.15-2.64c6-5.84,8-15.62,10.8-23.2,3.4-9.28,8-16.19,14.33-23.41A6.93,6.93,0,0,1,500,25a1.1,1.1,0,0,0,1-.79c.84.07,1.66.2,2.36.32A1.23,1.23,0,0,0,503.78,22.11Z"/><path class="cls-5" d="M544.07,21.16c-6.26-.64-42,.28-46.72.64l-.07,0a3.38,3.38,0,0,0-1.67.85,11.61,11.61,0,0,0-2.21,2.89s0,0,0,0a10.73,10.73,0,0,0-.86,1.36,1.46,1.46,0,0,0,0,.2,1.22,1.22,0,0,0,2,1.31.32.32,0,0,1,.09-.08l.07,0a2.41,2.41,0,0,1,2.4.34c1.8,2,.66,6.92.3,8.29a43.63,43.63,0,0,1-3.42,8.07c-2,3.55-4.31,6.9-6,9.84a108.71,108.71,0,0,0-6.27,11.15c-1.7,2.71-3.37,5.42-5,8.19a43.84,43.84,0,0,0-1.26,5.05C474,87,477.12,96.22,485.53,92.42q19.26-2.85,38.63-4.76a1.07,1.07,0,0,0,.72.18l4.4-.38a1.29,1.29,0,0,0,.21-.06,1.13,1.13,0,0,0,1.22-.94l2.34-12.67a1.12,1.12,0,0,0-.31-1,1.25,1.25,0,0,0-.08-.52c-4.22-11.8.87-20.23,8.24-29.24a1.22,1.22,0,0,0,.26-.63l1-1.33a1.15,1.15,0,0,0,.26-.19C545.94,36.84,555,22.29,544.07,21.16Z"/><path class="cls-4" d="M485.53,92.42c2.73-.4,5.47-.79,8.2-1.17q15.18-2.09,30.43-3.59a1.07,1.07,0,0,0,.72.18l4.4-.38a1.29,1.29,0,0,0,.21-.06,1.13,1.13,0,0,0,1.22-.94l2.34-12.67a1.12,1.12,0,0,0-.31-1,1.25,1.25,0,0,0-.08-.52c-.53-1.47-21.95,1.67-35.8,2.94C495.19,75.33,491.69,82.93,485.53,92.42Z"/><path class="cls-3" d="M541.21,91.35a1.13,1.13,0,0,0-.15-.51,1,1,0,0,0-.95-1.12c-9-.68.5-12.11,1.19-15.17.52-2.31,0-4.62-2.31-5.68-2.06-.94-4.41-.11-6.5.25-4.57.78-9.17,1.45-13.74,2.23-7,1.18-14.11,1.89-21,3.44a1,1,0,0,0-.54.31c-.44.1.35.45,0,.61s4.07,1.89,4.58,2a2.52,2.52,0,0,1,1.17.68,2.38,2.38,0,0,1,.53,1c.51,2.09-1.14,5.46-2,7.67a1.28,1.28,0,0,0-.16.26c-1.59,4.3-4.94,12.63-2.45,17.61.46.92,5.28,3.61,7.18,2.52,8-3.06,17-4.68,25.18-7.27C537.43,98.26,541.76,98.81,541.21,91.35Z"/><path class="cls-5" d="M547.54,87.44c-5.67,3.23-13.79,4-20.11,5.22-5.56,1-11.21,1.86-16.69,3.3a1,1,0,0,0-.66,1.57,1.43,1.43,0,0,0,0,.22c.06,1.41-.87,2.66-1.48,3.85s-1,2.51-2.11,3.3a1.23,1.23,0,0,0-.43.58c-.95.14-1.91.25-2.87.31a1.22,1.22,0,0,0,.21,2.43c7.57-.47,15.14-3.3,22.52-4.92,5.24-1.14,11-1.69,16.16-3.41a6.53,6.53,0,0,0,4.05-1.48.92.92,0,0,0,.79-.68c1-3,1.82-6,2.56-9.06C549.71,87.56,548.39,87,547.54,87.44Z"/><path class="cls-5" d="M509.7,97.67a11.54,11.54,0,0,1-3.21,6.37c-2.77,2.72-6.56,1.48-7-2.39-.5-4.45,1.19-9.1,2.71-13.21a1.16,1.16,0,0,0,.13-.22c1.14-3.57,4-6.3,2-10.2a6.18,6.18,0,0,0-6.41-3c-9,1.07-6.3,16-16.45,16-1.58,0-1.36,2.44.21,2.44,4.93,0,7.7-2.72,9.85-6.89,1.57-3,3-8.92,7.07-9.12,6.32-.32,3,6,1.63,9.54a1,1,0,0,0-.16.26c-1.88,5.09-6.24,15.83-.43,20,6.06,4.31,11.48-3.93,12.46-9A1.23,1.23,0,0,0,509.7,97.67Z"/><path class="cls-4" d="M507.19,54.58c-3.79.05-3.71.16-7.5.16-1.57,0-1.36,2.43.21,2.43,3.79,0,3.71-.1,7.5-.15C509,57,508.76,54.56,507.19,54.58Z"/><path class="cls-4" d="M512.83,49.32c-3.79.41-7.74.4-11.56.66a1.23,1.23,0,0,0,.21,2.44c3.82-.27,7.77-.25,11.56-.66A1.23,1.23,0,0,0,512.83,49.32Z"/><path class="cls-4" d="M511.06,62.54c-5.34.43-6.94.29-15.95,1.55a1.22,1.22,0,0,0,.28,2.43C504.88,65.46,506,65.4,511.34,65,512.91,64.85,512.63,62.42,511.06,62.54Z"/><path class="cls-4" d="M505.13,67.67c-5.33.42-1.9,0-10.91,1.23a1.22,1.22,0,0,0,.28,2.43c9.49-1.06,5.58-.81,10.91-1.23C507,70,506.7,67.54,505.13,67.67Z"/><path class="cls-4" d="M516.85,39.12a91.61,91.61,0,0,0-11,.38A1.23,1.23,0,0,0,506,42c9.54-.32,5.62-.38,11-.38C518.51,41.57,518.42,39.12,516.85,39.12Z"/><path class="cls-4" d="M529,33.58c-7.36.17-14.71.32-22.06.51a1.23,1.23,0,0,0,.06,2.45c7.35-.2,14.7-.35,22-.51A1.23,1.23,0,0,0,529,33.58Z"/><path class="cls-4" d="M532.94,37.15s.09-.18.24-.45H533c-.14,0-.24-.15-.31-.42a1.39,1.39,0,0,1,0-.7c.06-.23.59-.36,1.59-.41a8.81,8.81,0,0,1,2.3-1.95,4.54,4.54,0,0,1,2.48-.7.69.69,0,0,1,.61.49,1.31,1.31,0,0,1,.08,1,1,1,0,0,1-.29.45.55.55,0,0,1-.38.21s-.07-.09-.12-.28-.13-.29-.27-.29a2.5,2.5,0,0,0-1.17.29,7.88,7.88,0,0,0-1.34.83,16.75,16.75,0,0,1,2.24.21c.54.09.78.26.71.5s-.55.37-1.45.48a20.32,20.32,0,0,1-2.35.18,3.88,3.88,0,0,1-.53,0,5.38,5.38,0,0,0-.3.46,28,28,0,0,1,3-.07c.87,0,1.27.17,1.2.41s-1.61.74-4.52,1.07c0,.47.33.72.89.74a8.38,8.38,0,0,0,2.58-.4,3,3,0,0,1,.67-.14.2.2,0,0,1,.21.13.38.38,0,0,1,0,.28c-.07.22-.32.46-.77.72a6.85,6.85,0,0,1-1.59.65,5,5,0,0,1-1.59.24c-1.53-.06-2.2-.75-2-2.07H532c-.12,0-.22-.14-.28-.42a1.36,1.36,0,0,1,0-.69Q531.73,37.3,532.94,37.15Z"/><path class="cls-4" d="M524,51.67s.09-.17.23-.44h-.2c-.14,0-.25-.15-.31-.43a1.36,1.36,0,0,1,0-.69c.07-.23.6-.37,1.6-.41a8.85,8.85,0,0,1,2.3-2,4.62,4.62,0,0,1,2.48-.7.71.71,0,0,1,.61.5,1.36,1.36,0,0,1,.08.95,1.15,1.15,0,0,1-.29.45.64.64,0,0,1-.38.21s-.07-.1-.12-.28-.14-.29-.27-.3a2.66,2.66,0,0,0-1.17.3,6.51,6.51,0,0,0-1.34.83,19.21,19.21,0,0,1,2.24.2c.54.1.77.27.7.51s-.54.37-1.44.48a20.07,20.07,0,0,1-2.35.17,5,5,0,0,1-.54,0,4.5,4.5,0,0,0-.29.46,27.88,27.88,0,0,1,3-.07c.88,0,1.28.17,1.21.41s-1.62.74-4.52,1.06c0,.48.32.73.89.75a8.43,8.43,0,0,0,2.58-.41,3.25,3.25,0,0,1,.67-.13.21.21,0,0,1,.21.13.44.44,0,0,1,0,.28q-.1.33-.78.72a7.43,7.43,0,0,1-1.58.65,5,5,0,0,1-1.6.24c-1.52-.06-2.19-.75-2-2.07h-.51c-.12,0-.22-.15-.28-.42a1.36,1.36,0,0,1,0-.69C522.8,51.88,523.22,51.77,524,51.67Z"/><path class="cls-4" d="M519.17,64.46s.09-.17.24-.44h-.21c-.14,0-.24-.15-.31-.43a1.35,1.35,0,0,1,0-.69c.06-.23.59-.37,1.59-.41a8.85,8.85,0,0,1,2.3-2,4.63,4.63,0,0,1,2.49-.7.71.71,0,0,1,.6.5,1.31,1.31,0,0,1,.08,1,1,1,0,0,1-.29.45.59.59,0,0,1-.38.21s-.07-.1-.12-.28-.14-.29-.27-.3a2.66,2.66,0,0,0-1.17.3,7.29,7.29,0,0,0-1.34.83,19,19,0,0,1,2.24.2c.54.1.78.27.71.51s-.55.37-1.45.48a22.83,22.83,0,0,1-2.35.18l-.53,0c-.06.08-.16.23-.3.46a28,28,0,0,1,3-.07c.87,0,1.27.17,1.2.41-.11.39-1.61.74-4.52,1.06,0,.48.33.73.89.75a8.13,8.13,0,0,0,2.58-.41,2.74,2.74,0,0,1,.67-.13.19.19,0,0,1,.21.13.38.38,0,0,1,0,.28c-.07.22-.32.46-.77.72a7.31,7.31,0,0,1-1.59.65,5,5,0,0,1-1.59.24c-1.53-.06-2.2-.75-2-2.07h-.52c-.12,0-.22-.14-.28-.42a1.36,1.36,0,0,1,0-.69C517.94,64.67,518.36,64.56,519.17,64.46Z"/></g><g class="cls-2"><path class="cls-5" d="M86.13,69.24c4.7-7.3,3.92-6.86,8.51-14a2.57,2.57,0,0,0,.65-2.57c-.51-1.45-2.19-2.47-3.69-3.43h0c-12.86-8.82-24.9-17-37.73-25.78l-.28-.25a14.54,14.54,0,0,0-1.9-1.26,3,3,0,0,0-2.41-.46,1.84,1.84,0,0,0-.73.55s-.08,0-.11.08l-.19.3c-.1.14-.2.27-.31.4s0,.08,0,.12c-4.58,7-6,7.85-10.82,15.34a2.91,2.91,0,0,0-.53,1.25,2.37,2.37,0,0,0,.83,2.11A17.16,17.16,0,0,0,40,43.48a1.11,1.11,0,0,0,.27.13Q59.51,56.09,78.79,68.54a1.22,1.22,0,0,0,.28.14h0c.32.21.64.43,1,.63a9,9,0,0,0,2.47,1.25,4.79,4.79,0,0,0,.87.26A2.62,2.62,0,0,0,86.13,69.24Z"/><path class="cls-4" d="M80.86,68.88c3.49-7.95,2.8-7.4,6.19-15.2A2.58,2.58,0,0,0,87.28,51c-.73-1.36-2.55-2.09-4.18-2.8h0C69,41.56,55.83,35.43,41.76,28.75a3.28,3.28,0,0,0-.31-.2,13.2,13.2,0,0,0-2.07-.94,3,3,0,0,0-2.46-.08,1.73,1.73,0,0,0-.63.66s-.07,0-.09.1l-.15.32c-.08.15-.15.3-.24.45s0,.08,0,.12c-3.41,7.65-4.65,8.69-8.25,16.86a2.81,2.81,0,0,0-.33,1.32,2.36,2.36,0,0,0,1.15,2,17.94,17.94,0,0,0,2.83,1.45,1.38,1.38,0,0,0,.29.08q21,9.27,42,18.51a2.11,2.11,0,0,0,.3.1h0c.35.16.7.33,1,.47a8.71,8.71,0,0,0,2.64.85,5.58,5.58,0,0,0,.89.12A2.62,2.62,0,0,0,80.86,68.88Z"/><path class="cls-5" d="M78.76,67.37c2.14-8.41,1.54-7.75,3.61-16a2.58,2.58,0,0,0-.2-2.65c-1-1.22-2.86-1.64-4.59-2.07h0c-15-4.28-29-8.17-44-12.44a2,2,0,0,0-.34-.14,13.56,13.56,0,0,0-2.2-.6,3.05,3.05,0,0,0-2.44.33,1.93,1.93,0,0,0-.51.75s-.06.07-.07.11S28,34.89,28,35l-.17.48s0,.08,0,.12c-2.11,8.11-3.16,9.34-5.37,18A2.8,2.8,0,0,0,22.31,55a2.36,2.36,0,0,0,1.45,1.73,16.72,16.72,0,0,0,3,1,1.65,1.65,0,0,0,.3,0L71.58,69.05a1.88,1.88,0,0,0,.31,0h0q.55.16,1.11.3a8.87,8.87,0,0,0,2.74.4,5.35,5.35,0,0,0,.9,0A2.61,2.61,0,0,0,78.76,67.37Z"/><path class="cls-4" d="M42.81,46.46c-5.23-1.62-1.8-.74-10.85-3a1.25,1.25,0,0,0-.65,2.42c9.42,2.6,5.61,1.35,10.84,3C43.69,49.36,44.35,46.94,42.81,46.46Z"/><path class="cls-4" d="M55.57,44.64c-7.23-2.08-14.46-4.18-21.7-6.23a1.26,1.26,0,0,0-.7,2.41Q44,43.9,54.88,47.05A1.25,1.25,0,0,0,55.57,44.64Z"/><path class="cls-4" d="M71.16,62C63.88,60,37.23,53.4,30,51.51a1.26,1.26,0,0,0-.64,2.43c7.28,1.89,33.93,8.5,41.21,10.43A1.25,1.25,0,0,0,71.16,62Z"/><path class="cls-3" d="M129.53,49.47c-7.92-14.52-7.61-12.92-15.39-27.13-.68-1.52-1.66-3.09-3.13-3.63-2.05-.76-3.93.67-5.66,1.89h0c-15.72,9.85-30.28,19.19-46,29a2.9,2.9,0,0,0-.41.16,9.82,9.82,0,0,0-2.27,1.5,3.59,3.59,0,0,0-1.4,3.08A5.08,5.08,0,0,0,55.76,56c0,.08,0,.16.07.25s.21.39.32.6.29.57.42.87c0,.07.1.11.15.17,7.59,14,8.21,17,16.34,31.91a8,8,0,0,0,1.44,2.08,3,3,0,0,0,3,1A12.24,12.24,0,0,0,80.79,91a1.11,1.11,0,0,0,.26-.27Q103.64,75.18,126.2,59.6a1.72,1.72,0,0,0,.27-.27h0c.38-.25.77-.5,1.14-.77a7.24,7.24,0,0,0,2.44-2.35,4.72,4.72,0,0,0,.62-1C131.44,53.47,130.59,51.22,129.53,49.47Z"/><path class="cls-3" d="M107.11,84.34c-.94-7.18-12.33-7.82-17.52-5.83C85.18,80.2,79,81.83,75.13,84.65a4.29,4.29,0,0,0-1.56,1.86,1.43,1.43,0,0,0-.78,1.62c.47,2.28,2,4.64,4.29,5.36a53.55,53.55,0,0,0,5.71,1.39c1.08.3,2.15.61,3.23.89a22.79,22.79,0,0,0,6.19.84,8.79,8.79,0,0,0,4.87-2c3.45-2.47,7-5.34,10.22-8.14A1.32,1.32,0,0,0,107.11,84.34Z"/><path class="cls-1" d="M94,95a2.42,2.42,0,0,1-1.64-.76,5.89,5.89,0,0,1-1.19-1.46l-.27-.4C86.11,85,83.53,80.51,81,76.22c-2.35-4-4.77-8.21-9-14.85l0,0-.09-.12-.05,0c-.15-.27-.3-.52-.45-.77l-.35-.55a.58.58,0,0,0-.06-.17,4.58,4.58,0,0,1-.53-1.37,2.17,2.17,0,0,1,.85-2.09,6.14,6.14,0,0,1,1.55-1.08l.42-.24.17-.06.14,0,.13-.08c7.82-5,15.47-10,22.87-14.78,6.83-4.43,13.67-8.88,20.77-13.44l.28-.2c1.15-.83,2.33-1.69,3.51-1.69a2.6,2.6,0,0,1,.86.15c1,.35,1.94,1.38,2.87,3.07,4.4,6.86,6.55,10,8.63,13,2.22,3.23,4.32,6.28,8.93,13.47,1.36,1.93,1.9,3.63,1.51,4.69a2.78,2.78,0,0,1-.41.74l0,.06,0,.07a5.26,5.26,0,0,1-1.92,1.91c-.37.28-.71.51-1.06.73l-.09.06-.09.08-.13.16q-21.3,15.15-42.63,30.27l-.12.08-.16.2-.72.5A6.93,6.93,0,0,1,94.49,95,2.22,2.22,0,0,1,94,95Z"/><path class="cls-4" d="M121.15,25.6a1.46,1.46,0,0,1,.53.1c.5.17,1.32.77,2.32,2.6l0,.07,0,.06c4.38,6.8,6.53,9.93,8.61,13,2.22,3.23,4.32,6.27,8.92,13.45l0,0,0,0c1.33,1.89,1.56,3.19,1.36,3.74a2.2,2.2,0,0,1-.28.5l-.09.12-.07.14A4.34,4.34,0,0,1,141,60.92l-.05,0-.06,0a9.36,9.36,0,0,1-.94.64l0,0,0,0-.25.17-.17.21v0Q118.22,77.17,97,92.24l-.24.17-.15.19L96,93a6.29,6.29,0,0,1-1.73,1L94,94a1.5,1.5,0,0,1-1-.49l0,0-.06,0A5.57,5.57,0,0,1,92,92.25c-.08-.13-.17-.26-.26-.39C87,84.41,84.38,80,81.89,75.71c-2.35-4-4.78-8.22-9-14.87l-.07-.13-.1-.11,0-.05c-.12-.22-.25-.45-.39-.67v0l0,0-.13-.2L72,59.4s0-.07,0-.11l0-.08,0-.07a3.73,3.73,0,0,1-.39-1c0-.2-.11-.57.54-1.18l.06,0,0,0A5.3,5.3,0,0,1,73.35,56l.35-.2,0,0L74,55.7l.24-.15c7.81-5,15.46-10,22.85-14.77,6.73-4.37,13.69-8.88,20.79-13.45l0,0,0,0,.24-.17a6.13,6.13,0,0,1,2.92-1.5m0-2c-1.6,0-3,1.09-4.33,2h0C101.9,35.24,88.09,44.32,73.18,53.87a1.93,1.93,0,0,0-.4.15,9.06,9.06,0,0,0-2.15,1.46,3.2,3.2,0,0,0-1.15,3,5.27,5.27,0,0,0,.6,1.59,1,1,0,0,0,.09.24l.37.59c.17.28.34.56.49.84,0,.08.11.11.16.17C79.89,75.57,80.74,78.42,90.05,93a8.84,8.84,0,0,0,1.61,2A3.42,3.42,0,0,0,94,96a2.89,2.89,0,0,0,.76-.1,11.36,11.36,0,0,0,3.14-1.78,1,1,0,0,0,.24-.27q21.33-15.12,42.64-30.27a1.52,1.52,0,0,0,.25-.26h0c.37-.23.73-.48,1.08-.74a6.29,6.29,0,0,0,2.25-2.28,4.14,4.14,0,0,0,.54-1c.62-1.68-.41-3.87-1.61-5.57-9.06-14.13-8.62-12.58-17.53-26.41-.8-1.47-1.91-3-3.42-3.53a3.59,3.59,0,0,0-1.18-.21Z"/><path class="cls-3" d="M70.08,60.07a5.27,5.27,0,0,1-.6-1.59,3.2,3.2,0,0,1,1.15-3A9.06,9.06,0,0,1,72.78,54a1.93,1.93,0,0,1,.4-.15c14.91-9.55,28.72-18.63,43.64-28.22h0c1.64-1.19,3.4-2.58,5.51-1.84L111,18.71c-2.05-.76-3.93.67-5.66,1.89h0c-15.72,9.85-30.28,19.19-46,29a2.9,2.9,0,0,0-.41.16,9.82,9.82,0,0,0-2.27,1.5,3.59,3.59,0,0,0-1.4,3.08Z"/><path class="cls-4" d="M104.75,74.08c.9-4.61.67-4.22,1.55-8.74a1.76,1.76,0,0,0,0-1.39c-.34-.58-1.06-.68-1.71-.79h0C98.9,61.9,93.64,60.77,88,59.51l-.13,0a3.4,3.4,0,0,0-.83-.17,1,1,0,0,0-.92.34,1.43,1.43,0,0,0-.21.43l0,.07,0,.19a2.5,2.5,0,0,0-.07.26s0,0,0,.07c-.89,4.44-1.3,5.17-2.24,9.91a2.24,2.24,0,0,0-.06.73,1,1,0,0,0,.54.82,4.3,4.3,0,0,0,1.13.31.48.48,0,0,0,.12,0l16.72,3a.48.48,0,0,0,.12,0h0l.42.08a2.26,2.26,0,0,0,1,0,1,1,0,0,0,.34-.08A1.65,1.65,0,0,0,104.75,74.08Z"/><path class="cls-3" d="M112,63c5.11.34,4.68.13,9.69.46a1.94,1.94,0,0,0,1.53-.27,2.94,2.94,0,0,0,.82-2.1h0c1.2-6.69,2.27-12.94,3.47-19.63a.47.47,0,0,0,.06-.15,4.88,4.88,0,0,0,.16-1,1.09,1.09,0,0,0-.41-1,1.2,1.2,0,0,0-.48-.17l-.07,0-.22,0-.29,0h-.07c-4.93-.35-5.75-.72-11-1.08a2.42,2.42,0,0,0-.8,0,1.24,1.24,0,0,0-.89.74,5.7,5.7,0,0,0-.3,1.36.3.3,0,0,0,0,.13q-1.41,9.88-2.81,19.77a.57.57,0,0,0,0,.14h0c0,.17-.06.33-.08.5a2.8,2.8,0,0,0,0,1.19,1.59,1.59,0,0,0,.1.39C110.67,62.83,111.38,63,112,63Z"/><path class="cls-4" d="M113.84,35.93a1.16,1.16,0,0,0-.74.22,6.46,6.46,0,0,0-5.22,2.65c-2.58,3.36-1.82,8.76,1.79,11,3.35,2.05,8.82-.37,10.47-3.94C122.35,41.06,118.27,36.17,113.84,35.93Z"/><path class="cls-5" d="M83.61,42.11a4,4,0,0,0-.8-1.43,1.5,1.5,0,0,0-2.09,0,1.41,1.41,0,0,0-.34.54,6.92,6.92,0,0,0-3.81,2.35,1.55,1.55,0,0,0-1.48,0,1.5,1.5,0,0,0-.54,2c.37.8.76,1.54,1.7,1.78a3.16,3.16,0,0,0,1.92-.25,9.34,9.34,0,0,0,4.23-2.16,7.34,7.34,0,0,0,.69-.67,2.19,2.19,0,0,0,.61-1.5A1.29,1.29,0,0,0,83.61,42.11Z"/><path class="cls-1" d="M80.82,39.25c-2.69-.71-5.69,1.87-6.66,4.17a1.49,1.49,0,0,0,1,1.82,1.93,1.93,0,0,0,.33,0h.1a1.32,1.32,0,0,0,.28,0c2.38-.14,5.84-1.85,6.55-4.18A1.43,1.43,0,0,0,80.82,39.25Z"/><path class="cls-5" d="M103.47,28.73a4,4,0,0,0-.8-1.42,1.49,1.49,0,0,0-2.09,0,1.45,1.45,0,0,0-.34.53,6.88,6.88,0,0,0-3.81,2.36,1.56,1.56,0,0,0-1.48,0,1.51,1.51,0,0,0-.54,2c.37.8.76,1.54,1.7,1.78A3.23,3.23,0,0,0,98,33.7a9.34,9.34,0,0,0,4.23-2.16,7.41,7.41,0,0,0,.69-.68,2.15,2.15,0,0,0,.61-1.49A1.33,1.33,0,0,0,103.47,28.73Z"/><path class="cls-1" d="M100.68,25.88C98,25.17,95,27.74,94,30a1.5,1.5,0,0,0,1,1.83,1.25,1.25,0,0,0,.33,0h.1a1.32,1.32,0,0,0,.28,0c2.38-.14,5.84-1.86,6.55-4.19A1.42,1.42,0,0,0,100.68,25.88Z"/><path class="cls-4" d="M99.73,27.39c-4.08-3.92-10.72-6.6-17.09-2.32s-7.41,11.67-6.22,17.11a1.55,1.55,0,0,0,1.06,1.18,2.1,2.1,0,0,0,.56.08,2.37,2.37,0,0,0,1.59-.6,1.74,1.74,0,0,0,.56-1.69C79.66,38.7,79,32.57,84,28.49c5.67-4.63,11.35,0,13,1.58a1.77,1.77,0,0,0,1.74.41,2.24,2.24,0,0,0,1.54-1.55A1.56,1.56,0,0,0,99.73,27.39Zm-.51.54Z"/></g><g class="cls-2"><path class="cls-3" d="M238.26,44.82a20.19,20.19,0,0,0-3.35-6.48c-2.63-3.1-6.39-2.79-10.28-1.41a42.38,42.38,0,0,0-5,2.15c-7.38,3.46-33.85,15.55-34.65,16-3.9,2.36-3.63,5.57-2.14,9,.17.57,20.09,48.73,21.33,51.24,1.69,3.41,4,6.35,7.51,6.17s43.37-18.22,45.21-19.21c2.23-1.21,3.08-2.73,3.08-4.39a5.8,5.8,0,0,0-.45-3.08C258.52,91.71,241.4,50.21,238.26,44.82Z"/><path class="cls-4" d="M241.94,44.66A20.15,20.15,0,0,0,238,38.5c-2.89-2.86-6.61-2.23-10.37-.51a40.73,40.73,0,0,0-4.8,2.57c-7.05,4.1-32.36,18.45-33.12,19-3.68,2.7-3.13,5.87-1.35,9.19.23.55,24.27,46.79,25.72,49.18,2,3.25,4.57,6,8,5.5s41.62-21.94,43.36-23.09c2.12-1.39,2.83-3,2.69-4.63a6,6,0,0,0-.71-3C266.21,89.6,245.54,49.76,241.94,44.66Z"/><path class="cls-6" d="M231.43,21.83c-6.14,2-7.37,8.35-7.37,14,0,5.18-1.16,12.28,1.38,17.11A9,9,0,0,0,230,57.28c2.21.59,4.57.24,6-1.87,2.08-3,.91-7.87.83-11.29-.06-2.78-1.43-6.75-5.09-5.85-3,.72-1.87,4.69-1.67,6.8.16,1.73,2.8,1.15,2.64-.56-.05-.54-.13-1.07-.19-1.61a9.34,9.34,0,0,1-.13-1.4l1.6,1c.59,1.06.1,3.63.18,4.84a26.83,26.83,0,0,1,.22,4.65c-.31,2.53-2,3.16-3.78,2.69-.21-.06-1.39-.34-2.43-2.33-2.09-4-1.29-11.47-1.38-15.44-.06-2.69-.18-5.5,1-8,2.73-5.8,9.6-5.07,11.35,1.14,2.81,10,1.91,21.51,3.18,31.8.21,1.73,2.86,1.15,2.64-.56-1.26-10.27-.43-21.75-3.18-31.8C240.42,24.53,237.12,20,231.43,21.83Z"/><path class="cls-3" d="M245.48,44.29a20,20,0,0,0-4.42-5.8c-3.13-2.59-6.78-1.64-10.37.39a41.85,41.85,0,0,0-4.56,3c-6.67,4.7-30.64,21.19-31.34,21.81-3.44,3-2.61,6.12-.54,9.27.27.54,28.25,44.5,29.91,46.76,2.25,3.06,5.06,5.55,8.46,4.77S272.17,99,273.81,97.71c2-1.58,2.56-3.22,2.27-4.85a5.81,5.81,0,0,0-1-3C273.57,86.94,249.51,49.05,245.48,44.29Z"/><path class="cls-1" d="M244.08,60.54c-7.38-3.82-15.46,2.27-15.86,9.69-6.77-3.06-15.9,1.32-15.91,9.62,0,5.74,4,10.68,9,13.09,6.94,3.35,13.91-.64,20.71,1.9a1.28,1.28,0,0,0,1.68-1c.88-7.21,7.63-11.56,7.85-19.26C251.72,69,249.18,63.17,244.08,60.54Z"/><path class="cls-4" d="M241.17,75.81l-3.08,1.87a1.28,1.28,0,0,0-.63,1.34l.36,4.36-6.95-7.56a1.23,1.23,0,0,0-2.08,1.08l.84,5.92-2.33,1.42c-1.33.81-.22,3,1.12,2.16l3.09-1.87a1.28,1.28,0,0,0,.63-1.34c-.14-.94-.27-1.89-.41-2.84l6.69,7.28a1.23,1.23,0,0,0,2.08-1.08c-.19-2.38-.39-4.76-.58-7.14L242.29,78C243.62,77.16,242.51,75,241.17,75.81Z"/><path class="cls-4" d="M231.43,21.83c-6.14,2-7.37,8.35-7.37,14,0,5.18-1.16,12.28,1.38,17.11A9,9,0,0,0,230,57.28c2.21.59,4.57.24,6-1.87a8.51,8.51,0,0,0,1.23-4.75c0-2.24-.47-8.2-.58-9-.29-2-.92-4-3.36-4.21a3.16,3.16,0,0,0-3,1.36c-1.23,1.46-.43,4.56-.27,6.25s2.8,1.15,2.64-.56c-.05-.54-.13-1.07-.19-1.61a9.34,9.34,0,0,1-.13-1.4.77.77,0,1,1,1.51-.26,23.92,23.92,0,0,1,.42,2.88,54.69,54.69,0,0,1,.07,7.83c-.31,2.53-2,3.16-3.78,2.69-.21-.06-1.39-.34-2.43-2.33-1.43-2.77-1.51-7.12-1.44-10.87l-.59.43.59-.43c0-1.72.09-3.32.06-4.57-.06-2.69-.18-5.5,1-8,2.73-5.8,9.6-5.07,11.35,1.14a55.13,55.13,0,0,1,1.56,8.21c.12.09.26.16.38.26a15.31,15.31,0,0,1,2.59,2.88,64.47,64.47,0,0,0-1.89-11.91C240.42,24.53,237.12,20,231.43,21.83Z"/><path class="cls-6" d="M230.38,39.06l.31-.18c.42-.23.83-.45,1.25-.65l-.22,0A2.39,2.39,0,0,0,230.38,39.06Z"/></g><g class="cls-2"><path class="cls-4" d="M307.4,53.88a8.46,8.46,0,0,0,5,2.85c4,.46,8.22-2.32,8.84-6.36s-3.93-8.38-8-8.53a7.37,7.37,0,0,0-7.39,8.39A7.57,7.57,0,0,0,307.4,53.88Z"/><path class="cls-5" d="M340.59,20.05a2,2,0,0,0-1.69,0h0c-.68.3-1.36.63-2.12,1l-.14.07c-1.76.89-3.49,1.87-5.16,2.81l-1.27.72c-1.4.7-2.48,1.28-3.44,1.84l-.2.11c-.29.15-.58.3-.88.44a2,2,0,0,0-1.13,1.76,2.21,2.21,0,0,0,.84,1.76,1.79,1.79,0,0,0,1.59.34,2.24,2.24,0,0,0,.74-.19l.24-.14.3-.18.19-.11c1.1-.56,10-5.34,11.79-6.31l.39-.18a2,2,0,0,0,1.1-1.21,2.09,2.09,0,0,0-.11-1.45A2.21,2.21,0,0,0,340.59,20.05Z"/><path class="cls-5" d="M340,20.87a1.91,1.91,0,0,0-1.53,2.34h0c1.08,4.88,8.57,23.59,11,28.21a2,2,0,0,0,2.77.9l.07,0a1.93,1.93,0,0,0,.88-2.67c-2.16-4.16-9.51-22.13-10.62-27.17A2.06,2.06,0,0,0,340,20.87Z"/><path class="cls-4" d="M325.62,26.1a2.55,2.55,0,0,0-.55-.27,3.13,3.13,0,0,0-.56-.23c-2.31-.64-5.35,1.79-5.6,4.08A.3.3,0,0,0,319,30a.31.31,0,0,0,.14.16,28.14,28.14,0,0,0,3.23,1.76,28.35,28.35,0,0,0,3.47,1.19.41.41,0,0,0,.22,0,.3.3,0,0,0,.3-.12C327.91,31.24,327.66,27.36,325.62,26.1Z"/><path class="cls-5" d="M325,30.12a9.48,9.48,0,0,0-2-.94,9.81,9.81,0,0,0-2-.81c-8.2-2.29-19,6.33-19.87,14.48a1.11,1.11,0,0,0,.42,1.08,1.32,1.32,0,0,0,.52.59,102,102,0,0,0,11.45,6.24A101.11,101.11,0,0,0,325.87,55a1.29,1.29,0,0,0,.78,0,1.09,1.09,0,0,0,1.08-.42C333.13,48.38,332.21,34.62,325,30.12Z"/><path class="cls-3" d="M386.82,50.49c-3.85-3.49-7.54-7.16-11.07-11-2.77-2.73-5.44-5.56-8-8.53-1.63-1.76-3.2-3.57-4.69-5.47a1.74,1.74,0,0,0-1.14-.22,1.62,1.62,0,0,0-.74.4s-.08,0-.11.07l-.22.26-.34.33s0,.08,0,.12c-5.2,6.08-19,19.51-24.48,26a2.79,2.79,0,0,0-.67,1.13,2.56,2.56,0,0,0,.43,2.23,16.62,16.62,0,0,0,2,2.32,1.74,1.74,0,0,0,.22.18L369.17,90a1.88,1.88,0,0,0,.24.18h0q.39.42.78.81a8.34,8.34,0,0,0,2,1.68,4.31,4.31,0,0,0,.75.42,2.29,2.29,0,0,0,2.74-1.07c5.35-6.34,16.93-21.39,22.16-27.62a2.67,2.67,0,0,0,1-2.43,4.93,4.93,0,0,0-1.06-2.15A123.7,123.7,0,0,1,386.82,50.49Z"/><path class="cls-4" d="M299.9,52c-4.15,1.09-4.24.86-8.45,1.79a1.38,1.38,0,0,0,.64,2.68c4.21-.93,4.3-.7,8.45-1.79C302.25,54.22,301.62,51.53,299.9,52Z"/><path class="cls-4" d="M306.73,60.83c-2.16,3.71-2.39,3.6-4.7,7.24-1,1.5,1.39,2.94,2.35,1.44,2.31-3.63,2.54-3.53,4.7-7.24C310,60.74,307.63,59.29,306.73,60.83Z"/><path class="cls-4" d="M317.75,61.35c1.1,4.15.86,4.24,1.8,8.45a1.38,1.38,0,0,0,2.68-.65c-.94-4.21-.7-4.29-1.79-8.44C320,59,317.3,59.63,317.75,61.35Z"/><path class="cls-4" d="M412.43,24.76c-8,.43-6.81,10.68-5.86,16.22,1.82,10.66,5.72,20.78,6.86,31.62.86,8.19.26,16.29-3.82,23.58-3.53,6.32-9.13,14.34-17,15.11-13.3,1.31-21.86-15.78-20.63-27.08a1.38,1.38,0,0,0-2.74-.24c-1.1,10.09,4,21.53,12.55,27.14,10.83,7.09,21,0,27.47-9.25,8.88-12.79,8.07-27.12,4.79-41.76-1.24-5.54-10.93-32.1-1.18-32.62C414.67,27.39,414.18,24.67,412.43,24.76Z"/><path class="cls-4" d="M338.68,19.62c-3.4,1.6-.91,6.89,2.49,5.28S342.08,18,338.68,19.62Z"/><path class="cls-4" d="M391.8,50.35c-3.86-3.49-7.54-7.15-11.08-11-2.77-2.73-5.44-5.56-8-8.53-1.62-1.76-3.19-3.57-4.68-5.47a1.83,1.83,0,0,0-1.15-.23,1.79,1.79,0,0,0-.74.41s-.07,0-.1.07l-.23.25a3.64,3.64,0,0,1-.34.34s0,.08,0,.12c-5.2,6.08-19,19.51-24.48,26a2.92,2.92,0,0,0-.68,1.14,2.58,2.58,0,0,0,.44,2.23,17.22,17.22,0,0,0,2,2.32,1.81,1.81,0,0,0,.23.18q15.57,15.82,31.15,31.64a1.33,1.33,0,0,0,.24.19h0c.25.28.51.55.77.81a8.57,8.57,0,0,0,2,1.68A4.23,4.23,0,0,0,378,93a2.28,2.28,0,0,0,2.74-1.07c5.36-6.34,16.93-21.39,22.17-27.62a2.67,2.67,0,0,0,1-2.43,4.75,4.75,0,0,0-1.05-2.15A120.76,120.76,0,0,1,391.8,50.35Z"/><path class="cls-3" d="M397.39,49.71c-3.86-3.49-7.54-7.15-11.08-11-2.77-2.73-5.44-5.57-8-8.53q-2.44-2.64-4.68-5.47a1.83,1.83,0,0,0-1.15-.23,1.63,1.63,0,0,0-.74.41.6.6,0,0,0-.11.06l-.22.26-.34.34s0,.08,0,.11c-5.2,6.09-19,19.52-24.49,26a2.76,2.76,0,0,0-.67,1.14,2.58,2.58,0,0,0,.43,2.22,17.37,17.37,0,0,0,2,2.33,1.24,1.24,0,0,0,.23.17q15.57,15.84,31.15,31.65a1.92,1.92,0,0,0,.23.19h0c.25.28.51.55.77.8a8.43,8.43,0,0,0,2.05,1.69,4.17,4.17,0,0,0,.74.41,2.27,2.27,0,0,0,2.74-1.06c5.36-6.34,16.93-21.4,22.16-27.63a2.62,2.62,0,0,0,1-2.42,4.8,4.8,0,0,0-1.05-2.15A120.76,120.76,0,0,1,397.39,49.71Z"/><path class="cls-4" d="M395.69,61.11c-2.82,3.21,1-1-1.9,2.12-1.19,1.32,1,3,2.2,1.67,2.86-3.17-.92,1.09,1.9-2.13C399.06,61.44,396.86,59.78,395.69,61.11Z"/><path class="cls-4" d="M373.19,52.53c-2.62,3.4-5.72,6.59-8.49,9.9-1.14,1.36,1,3.1,2.15,1.74,2.76-3.31,5.87-6.51,8.49-9.9C376.42,52.86,374.28,51.12,373.19,52.53Z"/><path class="cls-4" d="M384.25,58.4c-4.09,4.43-5.52,5.54-12,13.48a1.38,1.38,0,0,0,2.09,1.8c7-8.14,7.93-9.05,12-13.49C387.55,58.89,385.46,57.09,384.25,58.4Z"/><path class="cls-4" d="M390.35,68c-4.73,5.4-5.64,6.55-9.34,11.16-1.1,1.37,1,3.14,2.11,1.78,7-8.22,4.82-5.81,9.34-11.17A1.38,1.38,0,0,0,390.35,68Z"/><path class="cls-4" d="M369.07,48.91c-4,4.5-1.57,1.46-7.95,9.5a1.38,1.38,0,0,0,2.12,1.77c6.92-8.25,3.93-5,7.95-9.5C372.37,49.36,370.25,47.59,369.07,48.91Z"/><path class="cls-4" d="M373.43,35.87c-5.39,6.3-10.8,12.58-16.16,18.9a1.38,1.38,0,0,0,2.09,1.8q8.06-9.48,16.17-18.9A1.38,1.38,0,0,0,373.43,35.87Z"/><path class="cls-4" d="M392.82,56c-5.39,6.29-10.8,12.57-16.16,18.89a1.38,1.38,0,0,0,2.1,1.8q8-9.48,16.16-18.9A1.38,1.38,0,0,0,392.82,56Z"/><path class="cls-4" d="M418.72,26.82c1.16.37,1.35.48,3.73,1.33a1.38,1.38,0,0,0,.88-2.62c-1.81-.62-2.69-1-3.73-1.32C417.9,23.74,417,26.28,418.72,26.82Z"/><path class="cls-4" d="M417,31.42c1.13.47,1.3.59,3.6,1.64a1.38,1.38,0,0,0,1.11-2.53c-1.75-.78-2.6-1.27-3.6-1.64C416.43,28.28,415.34,30.73,417,31.42Z"/><path class="cls-7" d="M411.6,24.36a4,4,0,0,0-.36.8,4.12,4.12,0,0,0-.31.81c-.85,3.32,2.72,7.58,6,7.87a.43.43,0,0,0,.43-.18.46.46,0,0,0,.23-.21A38.84,38.84,0,0,0,420,28.79a41.62,41.62,0,0,0,1.6-5,.54.54,0,0,0,0-.31.47.47,0,0,0-.18-.44C418.88,20.93,413.35,21.42,411.6,24.36Z"/></g><g class="cls-2"><path class="cls-3" d="M103.52,144.1s0,0,0-.06a14.22,14.22,0,0,1,0-3.51.79.79,0,0,0-1.26-.79,7.27,7.27,0,0,0-1.33.61,5.72,5.72,0,0,1,.12-1.7.79.79,0,0,0-1.26-.79A11.35,11.35,0,0,0,97.6,139a8,8,0,0,1,.05-2.53.79.79,0,0,0-1.26-.79,11.26,11.26,0,0,0-2.14,1.07,7.39,7.39,0,0,1,.06-2.44.79.79,0,0,0-1.26-.79,11.65,11.65,0,0,0-2.15,1.07,8,8,0,0,1,.06-2.45.78.78,0,0,0-1.25-.79,11.49,11.49,0,0,0-2.27,1.14,8.46,8.46,0,0,1,0-2.61.79.79,0,0,0-1.26-.79,11.26,11.26,0,0,0-2.11,1.06,7.49,7.49,0,0,1,.06-2.41.78.78,0,0,0-1.25-.79,12.31,12.31,0,0,0-2.21,1.1,8.19,8.19,0,0,1,.06-2.52.79.79,0,0,0-1.26-.79,11.65,11.65,0,0,0-2.15,1.07,7.74,7.74,0,0,1,.07-2.45.79.79,0,0,0-1.26-.79A11.65,11.65,0,0,0,74,123.61a8,8,0,0,1,.06-2.44.79.79,0,0,0-1.26-.8,12.94,12.94,0,0,0-2.26,1.14,8.09,8.09,0,0,1,.05-2.6.79.79,0,0,0-1.26-.79,20.54,20.54,0,0,0-2.88,1.47l-.24.13-.08,0a.94.94,0,0,0-.19.14l-.15.1c-1.12,2.4-2.34,4.74-3.64,7-2,3.81-4.13,7.52-6.41,11.14q-4.23,7.45-9.11,14.53c-2.56,3.7-5.29,7.62-8.16,11.34-1.2,1.57-2.37,2.17-2.36,3.13a14.15,14.15,0,0,1-.34,3.5.79.79,0,0,0,1.18.91,10.18,10.18,0,0,0,1.93-.72l.31.23a6.55,6.55,0,0,1-.28,2.07.78.78,0,0,0,1.17.91,10.14,10.14,0,0,0,2-.76l.28.22a6.79,6.79,0,0,1-.29,2.16.79.79,0,0,0,1.18.91,10.44,10.44,0,0,0,2-.77l.19.15a7,7,0,0,1-.29,2.19.79.79,0,0,0,1.17.91,10.66,10.66,0,0,0,2.06-.78l.18.14a7.46,7.46,0,0,1-.29,2.21.79.79,0,0,0,1.17.91,10.75,10.75,0,0,0,2.07-.78l.29.23a7.57,7.57,0,0,1-.29,2.22.78.78,0,0,0,1.17.9,10.13,10.13,0,0,0,2.07-.78l.13.11a6.92,6.92,0,0,1-.29,2.22.79.79,0,0,0,1.18.91,10.16,10.16,0,0,0,2.07-.79l.22.17a7,7,0,0,1-.29,2.24.79.79,0,0,0,1.17.91,11.09,11.09,0,0,0,2.1-.8l.14.11A7.42,7.42,0,0,1,61,190.7a.79.79,0,0,0,1.17.91,10.75,10.75,0,0,0,2.13-.81l.11.08a7.42,7.42,0,0,1-.3,2.3.79.79,0,0,0,1.18.91,11.38,11.38,0,0,0,2.19-.84l.17.13a7.67,7.67,0,0,1-.3,2.38.79.79,0,0,0,1.18.9,29.85,29.85,0,0,0,3.35-1.32.65.65,0,0,0,.34-.26l0,0c1-1.33,4.87-7,5.65-8.26l23.07-37.93a1.21,1.21,0,0,0,.2-.24,35,35,0,0,0,2.31-4A1.3,1.3,0,0,0,103.52,144.1Z"/><path class="cls-4" d="M94.88,144V144a14.27,14.27,0,0,1-.23-3.51.78.78,0,0,0-1.3-.71,8.43,8.43,0,0,0-1.29.7,5.7,5.7,0,0,1,0-1.7.78.78,0,0,0-1.3-.71,11.33,11.33,0,0,0-2.13,1.25,7.93,7.93,0,0,1-.11-2.52.78.78,0,0,0-1.3-.71,11.07,11.07,0,0,0-2.08,1.21,7.49,7.49,0,0,1-.09-2.45.79.79,0,0,0-1.31-.71,11.31,11.31,0,0,0-2.07,1.21,7.78,7.78,0,0,1-.1-2.45.79.79,0,0,0-1.31-.71,12.63,12.63,0,0,0-2.18,1.29,8.44,8.44,0,0,1-.12-2.6.79.79,0,0,0-1.31-.71,11,11,0,0,0-2,1.19,7.82,7.82,0,0,1-.09-2.41.79.79,0,0,0-1.31-.71,12.12,12.12,0,0,0-2.12,1.24,7.91,7.91,0,0,1-.11-2.52.79.79,0,0,0-1.31-.7,11.87,11.87,0,0,0-2.07,1.2,7.7,7.7,0,0,1-.1-2.44.78.78,0,0,0-1.3-.71,11.51,11.51,0,0,0-2.07,1.2A7.7,7.7,0,0,1,64,123a.79.79,0,0,0-1.31-.71,12.84,12.84,0,0,0-2.18,1.28,8.11,8.11,0,0,1-.12-2.6.78.78,0,0,0-1.31-.7,19.56,19.56,0,0,0-2.78,1.65l-.23.14-.08,0a.66.66,0,0,0-.18.14.81.81,0,0,0-.14.12c-1,2.47-2,4.88-3.18,7.25-1.73,3.94-3.63,7.77-5.68,11.54-2.5,5.13-5.21,10.17-8.15,15.08-2.32,3.86-4.79,8-7.41,11.85-1.11,1.64-2.24,2.31-2.16,3.27a14.21,14.21,0,0,1-.11,3.51.79.79,0,0,0,1.23.83,9.31,9.31,0,0,0,1.88-.84l.33.21a6.65,6.65,0,0,1-.16,2.09.79.79,0,0,0,1.24.83,10,10,0,0,0,1.95-.88l.29.2a6.87,6.87,0,0,1-.14,2.17.79.79,0,0,0,1.23.83,11.13,11.13,0,0,0,2-.9l.2.13a7.11,7.11,0,0,1-.15,2.21.79.79,0,0,0,1.23.83,10.6,10.6,0,0,0,2-.91l.19.13a7.26,7.26,0,0,1-.15,2.23.78.78,0,0,0,1.23.82,10.08,10.08,0,0,0,2-.91l.3.21a7,7,0,0,1-.14,2.24.79.79,0,0,0,1.23.83,10.12,10.12,0,0,0,2-.92l.14.1a6.73,6.73,0,0,1-.15,2.24.79.79,0,0,0,1.24.83,10.81,10.81,0,0,0,2-.92l.22.16a7.06,7.06,0,0,1-.14,2.25.79.79,0,0,0,1.23.83,10.41,10.41,0,0,0,2-.93l.14.1a7.19,7.19,0,0,1-.14,2.27.79.79,0,0,0,1.23.83,10.44,10.44,0,0,0,2.07-.94l.11.07a7.21,7.21,0,0,1-.14,2.32.79.79,0,0,0,1.23.83,11.74,11.74,0,0,0,2.13-1l.18.11a7.71,7.71,0,0,1-.14,2.4.79.79,0,0,0,1.23.83,33.14,33.14,0,0,0,3.25-1.53.73.73,0,0,0,.33-.29l0,0c1-1.4,4.41-7.28,5.1-8.61q10.3-19.65,20.59-39.33a1.7,1.7,0,0,0,.18-.26,33.35,33.35,0,0,0,2-4.16A1.49,1.49,0,0,0,94.88,144Z"/><path class="cls-3" d="M85.56,142.68s0,0,0-.05a13.31,13.31,0,0,1-.74-3.44.79.79,0,0,0-1.4-.51,7.62,7.62,0,0,0-1.17.88,6.07,6.07,0,0,1-.25-1.69.78.78,0,0,0-1.39-.51,11.89,11.89,0,0,0-1.92,1.54,7.85,7.85,0,0,1-.48-2.48.78.78,0,0,0-1.39-.51,11.28,11.28,0,0,0-1.87,1.5,7.74,7.74,0,0,1-.46-2.41.78.78,0,0,0-1.39-.51,11.79,11.79,0,0,0-1.88,1.5,8,8,0,0,1-.45-2.41.79.79,0,0,0-1.4-.51,13,13,0,0,0-2,1.58,8.25,8.25,0,0,1-.5-2.55.78.78,0,0,0-1.39-.51,11.38,11.38,0,0,0-1.85,1.47,7.75,7.75,0,0,1-.44-2.37.79.79,0,0,0-1.4-.51,12.35,12.35,0,0,0-1.92,1.54,7.84,7.84,0,0,1-.47-2.48.79.79,0,0,0-1.4-.51,12.18,12.18,0,0,0-1.87,1.5,7.45,7.45,0,0,1-.45-2.41.79.79,0,0,0-1.4-.51,11.28,11.28,0,0,0-1.87,1.5A7.45,7.45,0,0,1,52,126.4a.79.79,0,0,0-1.4-.51,12,12,0,0,0-2,1.59,8.08,8.08,0,0,1-.5-2.56.79.79,0,0,0-1.4-.51,21.3,21.3,0,0,0-2.51,2l-.21.17-.07.06a.59.59,0,0,0-.15.17c0,.05-.09.08-.13.13-.59,2.59-1.3,5.13-2.09,7.65-1.14,4.14-2.46,8.21-3.94,12.24-1.73,5.44-3.67,10.81-5.87,16.1-1.74,4.16-3.59,8.56-5.62,12.8-.85,1.78-1.87,2.61-1.66,3.55a13.75,13.75,0,0,1,.4,3.49.79.79,0,0,0,1.34.65A9.52,9.52,0,0,0,28,182.35l.36.16a6.69,6.69,0,0,1,.15,2.09.79.79,0,0,0,1.34.64,10,10,0,0,0,1.8-1.16l.32.16a6.91,6.91,0,0,1,.17,2.17.79.79,0,0,0,1.34.64,11.07,11.07,0,0,0,1.84-1.18l.21.11a6.81,6.81,0,0,1,.18,2.2.79.79,0,0,0,1.34.64,10.6,10.6,0,0,0,1.85-1.19l.2.1a7,7,0,0,1,.17,2.23.79.79,0,0,0,1.34.64,10.36,10.36,0,0,0,1.86-1.2l.33.17a7.3,7.3,0,0,1,.18,2.23.79.79,0,0,0,1.34.64,9.84,9.84,0,0,0,1.86-1.2l.15.08a6.78,6.78,0,0,1,.18,2.24.79.79,0,0,0,1.34.64,10.81,10.81,0,0,0,1.87-1.2l.24.12a6.82,6.82,0,0,1,.18,2.25.79.79,0,0,0,1.34.64,10.7,10.7,0,0,0,1.89-1.22l.16.08a7.25,7.25,0,0,1,.18,2.27.79.79,0,0,0,1.34.64,10.92,10.92,0,0,0,1.91-1.23l.12.06a7.16,7.16,0,0,1,.2,2.3.79.79,0,0,0,1.34.65,11.09,11.09,0,0,0,2-1.28l.18.09a7.43,7.43,0,0,1,.21,2.39.79.79,0,0,0,1.34.64,28.35,28.35,0,0,0,3-2,.67.67,0,0,0,.28-.33l0,0c.73-1.52,3.3-7.85,3.8-9.26Q76.71,168.86,84,147.9a1.55,1.55,0,0,0,.14-.29,36.51,36.51,0,0,0,1.42-4.41A1.4,1.4,0,0,0,85.56,142.68Z"/><path class="cls-4" d="M47.15,141.16c8.42,3.52,9.34,3.82,17.77,7.29a1.52,1.52,0,0,0,1.17-2.81c-8.44-3.47-9.36-3.77-17.78-7.28A1.52,1.52,0,0,0,47.15,141.16Z"/><path class="cls-4" d="M43,152.49c8.35,3.66,9.27,4,17.64,7.6a1.52,1.52,0,0,0,1.21-2.79c-8.37-3.62-9.28-3.93-17.63-7.6A1.52,1.52,0,0,0,43,152.49Z"/><path class="cls-4" d="M38.87,163.81c8.29,3.81,9.2,4.14,17.5,7.91A1.52,1.52,0,0,0,57.63,169c-8.3-3.77-9.21-4.1-17.49-7.91A1.52,1.52,0,0,0,38.87,163.81Z"/><path class="cls-4" d="M34.74,175.13c8.21,4,9.12,4.31,17.35,8.23a1.52,1.52,0,0,0,1.32-2.74c-8.24-3.92-9.14-4.27-17.36-8.23A1.52,1.52,0,0,0,34.74,175.13Z"/><polyline class="cls-8" points="59.39 183.83 66.79 187.34 71.75 149.76"/><path class="cls-4" d="M71.6,151.09c1.3.54,1.65.7,2.61,1.09a1.52,1.52,0,0,0,1.16-2.8l-2.6-1.09A1.52,1.52,0,0,0,71.6,151.09Z"/><path class="cls-4" d="M67.62,162.87c1.29.56,1.64.73,2.59,1.13a1.52,1.52,0,0,0,1.21-2.78c-1.18-.5-1.3-.56-2.59-1.13A1.52,1.52,0,0,0,67.62,162.87Z"/><path class="cls-4" d="M63.64,174.65l2.57,1.18a1.52,1.52,0,0,0,1.25-2.77c-1.17-.52-1.29-.57-2.57-1.17A1.52,1.52,0,0,0,63.64,174.65Z"/><path class="cls-4" d="M59.65,186.44l2.55,1.21a1.52,1.52,0,0,0,1.3-2.75c-1.16-.54-1.28-.59-2.55-1.21A1.52,1.52,0,0,0,59.65,186.44Z"/><path class="cls-4" d="M47.78,211.24c1.73,6.88,6.78,13.08,11,15.7,11.47,7.14,28.15,4.72,35.77-6.59S103.48,191,86,181c-14.85-8.54-33.23,1.11-37.88,16.92A25.79,25.79,0,0,0,47.78,211.24Z"/><path class="cls-1" d="M83,189.76,70.5,187.42a3.34,3.34,0,0,0-3.9,2.67l-4.69,25A3.35,3.35,0,0,0,64.58,219l12.52,2.34A3.35,3.35,0,0,0,81,218.71l4.68-25A3.35,3.35,0,0,0,83,189.76Zm-10.5,27.43a1.26,1.26,0,0,1-1.41-2.08,1.3,1.3,0,0,1,1.74.33,1.26,1.26,0,0,1-.32,1.75Zm6.87-3.49-14.16-2.65,3.62-19.34L83,194.36Z"/></g><g class="cls-2"><path class="cls-1" d="M381.74,204.53c-11-14.28-22.24-29-27.55-46.46a305.37,305.37,0,0,0,34.08-18.13,110.61,110.61,0,0,0,27.46,42.49A291.7,291.7,0,0,1,381.74,204.53Z"/><path class="cls-9" d="M377.18,201.42c-1.43-7.78-.65-15.68.13-23.48.38-3.7.83-7.43.88-11.15a3.88,3.88,0,0,0-2.18-3.88,58,58,0,0,0-6.09-2.55q-6.85-2.72-13.88-5a.22.22,0,0,0-.28-.26l-2.68.87a3.52,3.52,0,0,0-1.62.85c-.78.92-.07,2.34.33,3.28,1.43,3.33,3.71,6.37,5.61,9.45q6.21,10,12.24,20.11,3.45,5.78,6.83,11.56a.19.19,0,0,0,.24.09s0,.1,0,.15C376.78,201.73,377.23,201.7,377.18,201.42Z"/><path class="cls-4" d="M397,196.54a4.28,4.28,0,0,0,.2-2.46,45.36,45.36,0,0,0-1-6.13c-.23-1-.48-2-.73-3a4.37,4.37,0,0,0-1.11-2.35,8.58,8.58,0,0,0-2.39-1.27c-1.14-.49-2.3-.94-3.47-1.36-4.69-1.71-9.52-3.13-14.33-4.47a67,67,0,0,0-14.23-2.59c-.18,0-.24.15-.2.29-.93-.07-1.5-.91-2.39-1.06a2.23,2.23,0,0,0-1.64.5,8.52,8.52,0,0,0-3.23,4.27c-.52,1.68.51,3,1.36,4.43,1.19,1.95,2.49,3.83,3.86,5.65,2.75,3.67,5.77,7.13,8.73,10.63,1.49,1.75,3,3.5,4.39,5.3a31.15,31.15,0,0,0,4.05,4.88,12.21,12.21,0,0,0,2.63,1.61,4.72,4.72,0,0,0,2.25.67,5.31,5.31,0,0,0,2.12-.86c1.07-.59,2.12-1.23,3.13-1.92a42.45,42.45,0,0,0,5.1-4.06c1.79-1.67,3.3-3.67,5.23-5.18A5.76,5.76,0,0,0,397,196.54Z"/><path class="cls-3" d="M419.3,181.4A1.89,1.89,0,0,0,419,181a107.07,107.07,0,0,1-28-43.3,1.55,1.55,0,0,0-.68-.86,1.59,1.59,0,0,0-2.27-.6,300.87,300.87,0,0,1-43.54,22.5c-.52.21-4.25,1.83-4.27,2.14a2.16,2.16,0,0,0,0,1.29,46.92,46.92,0,0,0,4,11.95,155.81,155.81,0,0,0,24.12,37.19c.26.29,2.44,2.73,2.6,2.92l.87.94a1.45,1.45,0,0,0,.64.42,1.49,1.49,0,0,0,1.58-.08q23.22-14.94,45.49-31.28A1.73,1.73,0,0,0,419.3,181.4Zm-37.56,23.13c-11-14.28-22.24-29-27.55-46.46a305.37,305.37,0,0,0,34.08-18.13,110.61,110.61,0,0,0,27.46,42.49A291.7,291.7,0,0,1,381.74,204.53Z"/><path class="cls-5" d="M398.93,172.88a4.59,4.59,0,0,0-3.53-4.73h0a3.92,3.92,0,0,0-2.6.19,3.79,3.79,0,0,0-2.85,3.44,5,5,0,0,0,4.32,5.19A4.24,4.24,0,0,0,398.93,172.88Z"/><path class="cls-1" d="M371.6,191.49c-17.74-3.21-35.94-6.58-51.6-16a305.26,305.26,0,0,0,13.12-36.31A110.51,110.51,0,0,0,382,152.3,290.67,290.67,0,0,1,371.6,191.49Z"/><path class="cls-4" d="M366.13,192.25c-6.28-4.82-11-11.2-15.65-17.51-2.2-3-4.37-6.07-6.82-8.86a3.91,3.91,0,0,0-4.23-1.41,57.35,57.35,0,0,0-6.22,2.19q-6.91,2.58-13.66,5.58a.22.22,0,0,0-.38,0c-.47.82-.94,1.63-1.4,2.45a3.37,3.37,0,0,0-.63,1.71c0,1.22,1.51,1.79,2.44,2.21,3.3,1.52,7,2.25,10.5,3.25q11.31,3.25,22.57,6.71,6.42,2,12.81,4a.2.2,0,0,0,.24-.1l.12.09C366,192.74,366.36,192.42,366.13,192.25Z"/><path class="cls-4" d="M377.56,175.33a4.3,4.3,0,0,0-1.5-2,45.48,45.48,0,0,0-4.89-3.85c-.84-.59-1.7-1.17-2.55-1.74a4.53,4.53,0,0,0-2.4-1,8.35,8.35,0,0,0-2.63.67c-1.17.4-2.34.84-3.49,1.31-4.62,1.88-9.16,4.06-13.63,6.3a66.82,66.82,0,0,0-12.29,7.62.2.2,0,0,0,.05.34c-.74.58-1.72.34-2.49.83a2.2,2.2,0,0,0-.87,1.47,8.51,8.51,0,0,0,.46,5.32c.75,1.6,2.43,1.93,4,2.38,2.19.65,4.42,1.17,6.66,1.61,4.5.87,9.06,1.42,13.6,2,2.28.3,4.55.62,6.81,1a31.2,31.2,0,0,0,6.28.91,12,12,0,0,0,3-.58,4.53,4.53,0,0,0,2.13-1,5.21,5.21,0,0,0,1-2.06c.39-1.16.74-2.33,1-3.52a42.4,42.4,0,0,0,1.06-6.44c.21-2.43,0-4.93.41-7.34A6,6,0,0,0,377.56,175.33Z"/><path class="cls-3" d="M384,149.15a1.65,1.65,0,0,0-.51-.08,107,107,0,0,1-49.82-13.32,2.7,2.7,0,0,0-3.16.89,302.4,302.4,0,0,1-17.21,45.89c-.24.51-1.93,4.21-1.73,4.46a2.16,2.16,0,0,0,.84,1,47.18,47.18,0,0,0,11,6.18,154.95,154.95,0,0,0,42.83,11.41l3.89.42,1.28.12a1.91,1.91,0,0,0,1.87-1.24q7.2-26.66,12.76-53.71A1.72,1.72,0,0,0,384,149.15ZM371.6,191.49c-17.74-3.21-35.94-6.58-51.6-16a305.26,305.26,0,0,0,13.12-36.31A110.51,110.51,0,0,0,382,152.3,290.67,290.67,0,0,1,371.6,191.49Z"/><path class="cls-5" d="M363.12,156.49a4.57,4.57,0,0,0-5.79-1.14h0a3.84,3.84,0,0,0-1.8,1.89,3.78,3.78,0,0,0,.2,4.46,5,5,0,0,0,6.68.95A4.24,4.24,0,0,0,363.12,156.49Z"/><path class="cls-1" d="M364.94,221.59c-15.92-8.47-32.23-17.22-44.28-30.94a305.81,305.81,0,0,0,23.55-30.59,110.63,110.63,0,0,0,42.56,27.36A291.77,291.77,0,0,1,364.94,221.59Z"/><path class="cls-4" d="M359.5,220.64c-4.52-6.5-7.07-14-9.57-21.44-1.19-3.52-2.32-7.11-3.81-10.52a3.87,3.87,0,0,0-3.59-2.63,56,56,0,0,0-6.6.19q-7.37.36-14.7,1.16a.23.23,0,0,0-.37-.12l-2.08,1.9a3.45,3.45,0,0,0-1.12,1.45c-.34,1.16.9,2.16,1.65,2.84,2.68,2.45,6,4.28,9,6.29q9.8,6.56,19.46,13.27,5.5,3.83,11,7.71a.2.2,0,0,0,.26,0l.08.12C359.26,221.08,359.66,220.87,359.5,220.64Z"/><path class="cls-4" d="M375.53,208a4.12,4.12,0,0,0-.83-2.32,44.82,44.82,0,0,0-3.48-5.16c-.62-.82-1.26-1.63-1.9-2.44a4.49,4.49,0,0,0-2-1.68,8.49,8.49,0,0,0-2.71-.17c-1.24,0-2.48.09-3.72.19-5,.38-10,1.08-14.9,1.85a66.46,66.46,0,0,0-14,3.52c-.16.06-.15.23-.06.34-.87.32-1.74-.21-2.62,0A2.21,2.21,0,0,0,328,203.3a8.52,8.52,0,0,0-1.18,5.21c.22,1.75,1.73,2.57,3.07,3.48,1.89,1.29,3.85,2.46,5.85,3.56,4,2.2,8.2,4.11,12.34,6.07,2.07,1,4.14,2,6.18,3a32,32,0,0,0,5.71,2.77,12.55,12.55,0,0,0,3.05.38,4.77,4.77,0,0,0,2.34-.32,5.33,5.33,0,0,0,1.58-1.66c.72-1,1.41-2,2.05-3a41.81,41.81,0,0,0,3-5.81c.94-2.25,1.49-4.7,2.62-6.87A5.72,5.72,0,0,0,375.53,208Z"/><path class="cls-3" d="M389.59,185a1.48,1.48,0,0,0-.45-.24,106.92,106.92,0,0,1-43.4-27.86,1.48,1.48,0,0,0-1-.5,1.58,1.58,0,0,0-2.31.39,301.31,301.31,0,0,1-30.37,38.46c-.39.42-3.12,3.43-3,3.72a2.18,2.18,0,0,0,.5,1.19,47.22,47.22,0,0,0,8.57,9.24,159.9,159.9,0,0,0,13,10.08,157,157,0,0,0,24.33,13.83l3.58,1.58,1.18.51a1.59,1.59,0,0,0,.75.12,1.53,1.53,0,0,0,1.41-.73q15-23.19,28.51-47.28A1.71,1.71,0,0,0,389.59,185Zm-24.65,36.57c-15.92-8.47-32.23-17.22-44.28-30.94a305.81,305.81,0,0,0,23.55-30.59,110.63,110.63,0,0,0,42.56,27.36A291.77,291.77,0,0,1,364.94,221.59Z"/><path class="cls-5" d="M367.53,185.66a4.6,4.6,0,0,0-5.17-2.85h0a3.88,3.88,0,0,0-2.29,1.25,3.78,3.78,0,0,0-1.18,4.31,5,5,0,0,0,6.08,2.95A4.26,4.26,0,0,0,367.53,185.66Z"/></g><g class="cls-2"><path class="cls-4" d="M481.75,226.4c1-.09,2-.25,2.93-.43a2.21,2.21,0,0,0-.07-.47l.91.23.08.06,1.2-.25c3.95-.86,7.87-1.89,11.73-3.11a152.54,152.54,0,0,0,15.62-6,30.2,30.2,0,0,1,.06-4.77.3.3,0,0,0-.31-.36,19,19,0,0,0-.65-2.9c-1.56-5-4.89-9.1-7.72-13.38a151.59,151.59,0,0,1-8.63-14.73c-.88-1.71-1.49-4.17-3.69-4.48a19.39,19.39,0,0,0-3.65.13q-2.28.13-4.56.21-10.1.35-20.19-.32a.37.37,0,0,0-.19.68h0c-.48,7.87,1.57,15.58,4.35,22.88,1.37,3.59,2.91,7.12,4.42,10.67,1.6,3.76,3,7.56,4.43,11.4C478.52,223.44,479.84,225.67,481.75,226.4Z"/><path class="cls-10" d="M515.92,211.74a.29.29,0,0,0-.31-.35,16.68,16.68,0,0,0-.65-2.9c-1.55-5-4.89-9.11-7.72-13.38a156.15,156.15,0,0,1-8.63-14.73c-.88-1.72-1.49-4.17-3.69-4.48a18.48,18.48,0,0,0-3.64.13c-1.52.09-3,.16-4.57.21-6.73.23-13.46.11-20.18-.32a.36.36,0,0,0-.19.68h0c-.49,7.87,1.56,15.57,4.34,22.87,1.37,3.6,2.92,7.13,4.42,10.67,1.6,3.77,3,7.57,4.44,11.41,1,2.71,3.2,6,6.59,4.9a.36.36,0,0,0,.27-.35,2,2,0,0,0-.08-.57l.91.23a3.62,3.62,0,0,1,1.56,1.87c.06.17.24.35.44.27a5.08,5.08,0,0,0,1.73-1.2,37.16,37.16,0,0,1,5.65,1.91,6.49,6.49,0,0,0,1.38.83c1.45.61,1.85-.36,2.61-1.35l.34.11a.37.37,0,0,0,.47-.34,1,1,0,0,1,.07-.28,11.41,11.41,0,0,1,2,.42,2.21,2.21,0,0,0,1.5-.33,15.74,15.74,0,0,0,1.55-1.17,12.52,12.52,0,0,0,1.78-.53,13,13,0,0,0,3.89-2.33,5.6,5.6,0,0,0,2.17-1.46C516.81,219.29,515.41,215.14,515.92,211.74Z"/><path class="cls-4" d="M577,184.07c-14.91-1.44-23.69-15.12-33.14-25.28a.44.44,0,0,0-.09-.11l-.07-.07a1.85,1.85,0,0,1-.14-.14q-2.28-2.82-4.39-5.77h0a.33.33,0,0,0-.38-.18l0,0a.31.31,0,0,0-.4-.08.37.37,0,0,0-.55,0,10.27,10.27,0,0,0-5.15.51c-.85.32-1.6.8-2.42,1.19a9.51,9.51,0,0,1-3.82.55c-4.21.19-8.37,2.36-12.2,3.94a207.21,207.21,0,0,0-25.05,12.91,116.8,116.8,0,0,0-12.91,8.55.29.29,0,0,0-.11.36.38.38,0,0,0-.07.3c1.45,7.72,6,14.59,10,21.22,3.79,6.32,7.88,12.56,13.07,17.83a46.1,46.1,0,0,0,9.35,7.4.33.33,0,0,0,.2.16.9.9,0,0,0,.54,0A1.3,1.3,0,0,0,510,227c9.24-4.79,18.51-9.53,27.73-14.38,4.44-2.33,8.85-4.73,13.08-7.42s8.29-5.71,12.64-8.25c3.4-2,7.11-3.67,9.78-6.6a.38.38,0,0,0,.34-.15c1.46-1.85,3.45-3.3,4-5.71A.39.39,0,0,0,577,184.07Z"/><path class="cls-3" d="M479.82,170.46c0-1.32-.12-2.46-1.28-3.26a6.82,6.82,0,0,0-2.71-1.07,4.41,4.41,0,0,0-2.23-.9,33.68,33.68,0,0,0-5.28-.9c-1-.09-2-.14-3-.16a4.19,4.19,0,0,0-1.83.16,1.1,1.1,0,0,0-.47,1.73.36.36,0,0,0,0,.1c0,2.34,0,4.67.05,7,.05,1.09.1,2.18.19,3.27a3.41,3.41,0,0,0,.37,1.72,1.41,1.41,0,0,0,.35.34.34.34,0,0,0,.16.58,30,30,0,0,1,5.65,2,32.52,32.52,0,0,0,4.74,2.13c2.45.71,5.25-1.44,6.22-3.65C482.07,176.61,479.8,173.47,479.82,170.46Z"/><path class="cls-3" d="M540.66,153.51c-1.83-1.22-2.61-3.3-3.54-5.2a9.79,9.79,0,0,0-3.7-4.37,22.79,22.79,0,0,0-6.36-2.12l-9-2.16a.35.35,0,0,0-.37.12h0a1.23,1.23,0,0,1-.29-.07q-20,9.31-40.11,18.38-6.86,3.09-13.72,6.14a.3.3,0,0,0-.16.43.34.34,0,0,0,.21.51c2.63.7,5.36,1.25,7.94,2.11,1.68.56,2.07,1.89,2.41,3.48a26.17,26.17,0,0,1,.56,4.59c.06,1.92-.72,4.74.59,6.39a2.37,2.37,0,0,0,2.57.82.37.37,0,0,0,.31,0q24.38-10.85,48.58-22.08,6.83-3.16,13.63-6.35l0,0,0,0C540.67,154.4,541.05,153.77,540.66,153.51Z"/><path class="cls-4" d="M480,156.49h0c-.81-.27-6.67-1.57-8.86.53a2.75,2.75,0,0,0-.67,2.87,1.43,1.43,0,0,0,2.76-.75.43.43,0,0,0,0,0c.13-.11.75-.43,3-.35a9.15,9.15,0,0,1,3.77.85c1.74.85,3.4,2.82,2.92,5.12a1.44,1.44,0,0,0,1.14,1.72l.27,0a1.37,1.37,0,0,0,1.38-1.11,7.08,7.08,0,0,0-1.21-5.57A9,9,0,0,0,480,156.49Z"/><path class="cls-4" d="M493.72,150.58c-.78-.26-6.43-1.51-8.56.52a2.71,2.71,0,0,0-.66,2.81,1.41,1.41,0,0,0,1.76,1,1.38,1.38,0,0,0,1-1.72v0c.16-.11.78-.39,2.87-.31a8.78,8.78,0,0,1,3.61.81c1.66.81,3.24,2.69,2.78,4.87a1.39,1.39,0,0,0,.45,1.36,1.45,1.45,0,0,0,.94.38,1.49,1.49,0,0,0,.47-.07,1.4,1.4,0,0,0,.91-1C499.92,156,498.22,152.08,493.72,150.58Z"/><path class="cls-4" d="M505.26,144.8c-.74-.24-6.1-1.43-8.12.5a2.6,2.6,0,0,0-.63,2.71,1.37,1.37,0,0,0,1,1,1.45,1.45,0,0,0,1.38-.38,1.36,1.36,0,0,0,.34-1.3,5.53,5.53,0,0,1,2.63-.26,8.21,8.21,0,0,1,3.37.75,4.32,4.32,0,0,1,2.58,4.52,1.41,1.41,0,0,0,.44,1.34,1.47,1.47,0,0,0,.93.37,1.43,1.43,0,0,0,.46-.07,1.33,1.33,0,0,0,.89-1C511.13,150,509.53,146.22,505.26,144.8Z"/><path class="cls-4" d="M516.59,140h0c-.82-.27-5.76-1.35-7.69.49a2.47,2.47,0,0,0-.61,2.6,1.33,1.33,0,0,0,1,1,1.42,1.42,0,0,0,1.36-.37,1.34,1.34,0,0,0,.34-1.24,5.75,5.75,0,0,1,2.4-.21,7.66,7.66,0,0,1,3.14.7,4,4,0,0,1,2.39,4.18,1.38,1.38,0,0,0,1.1,1.65,1.07,1.07,0,0,0,.25,0,1.34,1.34,0,0,0,1.34-1.07C522.17,144.92,520.64,141.37,516.59,140Z"/><path class="cls-1" d="M492.93,183.38c-2.72,0-2.7,4.26,0,4.24S495.67,183.36,492.93,183.38Z"/><path class="cls-1" d="M500.1,180c-2.72,0-2.7,4.26,0,4.25S502.84,180,500.1,180Z"/><path class="cls-1" d="M506.88,176.67c-2.72,0-2.7,4.26,0,4.24S509.62,176.65,506.88,176.67Z"/><path class="cls-1" d="M521.26,169.54c-2.73,0-2.71,4.26,0,4.24S524,169.52,521.26,169.54Z"/><path class="cls-1" d="M528.43,166.18c-2.73,0-2.71,4.26,0,4.24S531.16,166.16,528.43,166.18Z"/><path class="cls-1" d="M535.21,162.83c-2.73,0-2.71,4.26,0,4.24S537.94,162.81,535.21,162.83Z"/><path class="cls-1" d="M514.24,173.06c-2.73,0-2.71,4.26,0,4.24S517,173,514.24,173.06Z"/><path class="cls-1" d="M497.55,191.19c-2.73,0-2.7,4.26,0,4.24S500.29,191.17,497.55,191.19Z"/><path class="cls-1" d="M504.72,187.84c-2.73,0-2.7,4.26,0,4.24S507.46,187.82,504.72,187.84Z"/><path class="cls-1" d="M511.5,184.48c-2.73,0-2.7,4.26,0,4.24S514.24,184.47,511.5,184.48Z"/><path class="cls-1" d="M525.88,177.35c-2.73,0-2.71,4.26,0,4.24S528.61,177.33,525.88,177.35Z"/><path class="cls-1" d="M533.05,174c-2.73,0-2.71,4.26,0,4.24S535.78,174,533.05,174Z"/><path class="cls-1" d="M539.83,170.64c-2.73,0-2.71,4.26,0,4.24S542.56,170.62,539.83,170.64Z"/><path class="cls-1" d="M518.86,180.87c-2.73,0-2.71,4.26,0,4.24S521.59,180.85,518.86,180.87Z"/><path class="cls-1" d="M503.08,198.22c-2.72,0-2.7,4.26,0,4.24S505.82,198.2,503.08,198.22Z"/><path class="cls-1" d="M510.25,194.86c-2.72,0-2.7,4.26,0,4.24S513,194.84,510.25,194.86Z"/><path class="cls-1" d="M517,191.51c-2.72,0-2.7,4.26,0,4.24S519.77,191.49,517,191.51Z"/><path class="cls-1" d="M531.41,184.37c-2.73,0-2.71,4.26,0,4.25S534.14,184.36,531.41,184.37Z"/><path class="cls-1" d="M538.58,181c-2.73,0-2.71,4.26,0,4.24S541.31,181,538.58,181Z"/><path class="cls-1" d="M545.36,177.66c-2.73,0-2.71,4.26,0,4.25S548.09,177.65,545.36,177.66Z"/><path class="cls-1" d="M524.39,187.9c-2.73,0-2.71,4.26,0,4.24S527.12,187.88,524.39,187.9Z"/><path class="cls-1" d="M509.33,206.1c-2.73.12-2.53,4.36.2,4.23S512.06,206,509.33,206.1Z"/><path class="cls-1" d="M516.36,202.45c-2.73.13-2.53,4.37.2,4.24S519.09,202.32,516.36,202.45Z"/><path class="cls-1" d="M523,198.83c-2.72.12-2.53,4.36.2,4.23S525.72,198.7,523,198.83Z"/><path class="cls-1" d="M537.07,191.11c-2.73.13-2.53,4.37.2,4.24S539.8,191,537.07,191.11Z"/><path class="cls-1" d="M544.09,187.47c-2.72.13-2.53,4.36.2,4.24S546.82,187.34,544.09,187.47Z"/><path class="cls-1" d="M550.73,183.84c-2.72.13-2.53,4.37.2,4.24S553.46,183.71,550.73,183.84Z"/><path class="cls-1" d="M530.2,194.92c-2.73.13-2.53,4.36.2,4.23S532.93,194.79,530.2,194.92Z"/><path class="cls-1" d="M515.77,213c-2.73.17-2.47,4.4.26,4.23S518.5,212.87,515.77,213Z"/><path class="cls-1" d="M522.74,209.29c-2.72.17-2.46,4.41.26,4.24S525.47,209.12,522.74,209.29Z"/><path class="cls-1" d="M529.32,205.57c-2.72.17-2.46,4.4.27,4.23S532.05,205.4,529.32,205.57Z"/><path class="cls-7" d="M543.28,197.65c-2.72.17-2.46,4.4.26,4.23S546,197.48,543.28,197.65Z"/><path class="cls-7" d="M550.25,193.9c-2.72.17-2.46,4.4.27,4.24S553,193.73,550.25,193.9Z"/><path class="cls-7" d="M556.84,190.18c-2.73.17-2.47,4.4.26,4.23S559.57,190,556.84,190.18Z"/><path class="cls-7" d="M536.47,201.56c-2.73.16-2.47,4.4.26,4.23S539.2,201.39,536.47,201.56Z"/></g><g class="cls-2"><path class="cls-4" d="M255.24,203.77l-.1,0a.22.22,0,0,0-.23.05.24.24,0,0,0-.16-.09,31.84,31.84,0,0,1-6.43-1.6c-2-.62-3.95-1.2-5.88-2a48.08,48.08,0,0,1-10.64-6.17,53.8,53.8,0,0,1-8.87-7.91,37.84,37.84,0,0,1-3.69-5,11.83,11.83,0,0,1-1.16-3.1,8.38,8.38,0,0,0-.76-2.38l0,0a.19.19,0,0,0-.18-.11H217a.25.25,0,0,0-.38-.13h0a.25.25,0,0,0-.21-.06,4.3,4.3,0,0,0-1.49-.39c-1.64-.37-3.28-.61-4.94-.82-3.75-.49-7.47-1.08-11.19-1.75a69,69,0,0,1-11.51-2.89c-3.53-1.3-6.82-3-10.2-4.6-1.72-.82-3.49-1.47-5.19-2.37-1.44-.77-2.8-1.79-4.3-2.44a14,14,0,0,0-4.49-.9,18.73,18.73,0,0,0-4.61-.11,9.5,9.5,0,0,0-6.13,3.65c-1.72,2.34-1.78,5.77-1.56,8.53a20.25,20.25,0,0,0,2.92,8.9c1.83,2.83,2.94,6,4.57,8.93a24.12,24.12,0,0,0,2.72,3.66c1.05,1.26,1.95,2.67,3,3.94s2.55,2.32,3.36,3.93c.56,1.1.79,2.53,1.76,3.35a.21.21,0,0,0,.11.19c1.08.61,2.13,1.26,3.23,1.84,1.3.69,2.66,1.23,4,2a43.58,43.58,0,0,0,7.55,3.29,32.67,32.67,0,0,0,8.23,1.7c2,.15,4,0,6,.17a.24.24,0,0,0,.21.31c.26,0,.52.08.76.09a.25.25,0,0,0,.19.15c1.08.13,2.1.51,3.19.65,1.29.16,2.6.25,3.91.3,2.59.09,5.22,0,7.81-.18a120.48,120.48,0,0,0,15.6-2A109.34,109.34,0,0,0,245,208.64a71.42,71.42,0,0,0,7.05-2.42,16.16,16.16,0,0,0,2.49-1.34c.27-.19.83-.46.83-.86A.25.25,0,0,0,255.24,203.77Z"/><path class="cls-5" d="M262.41,200.66l-1.66-.13a.2.2,0,0,0-.22.16A63.92,63.92,0,0,1,250.18,199a35.29,35.29,0,0,1-11-4.56c-1.54-1-3-2.32-4.5-3.43a23.24,23.24,0,0,1-4.9-4.57c-1.25-1.64-2.44-3.25-3.77-4.81a17.67,17.67,0,0,1-1.67-2.72c-.59-1.05-1.36-1.9-2-2.94a.2.2,0,0,0-.32,0,3.91,3.91,0,0,1-2.3.85h-.11l-.23,0a.17.17,0,0,0-.2.11,42.84,42.84,0,0,0-4.61,1.52c-1.77.56-3.59,1.06-5.38,1.47a77.88,77.88,0,0,1-10.93,1.35,78.93,78.93,0,0,1-11.19.29c-1.72-.11-3.42,0-5.14,0a11,11,0,0,1-2.86-.34c-.62-.17-1.13-.59-1.75-.7-.21,0-.29.25-.2.42a.26.26,0,0,0-.07.19,7.5,7.5,0,0,0,1.16,3.91c.89,1.6,1.87,3.13,2.82,4.68a49.75,49.75,0,0,0,3.41,4.66c1.1,1.41,2.15,2.93,3.36,4.22s2.75,2.63,4.06,4.06a25.84,25.84,0,0,0,3.78,3.27c1.44,1.06,2.84,2.12,4.33,3.1.36.23,3.63,1.94,3.64,1.91a.22.22,0,0,0,.11.26.14.14,0,0,0,.09,0c1.24.13,2.45.42,3.68.62a39.41,39.41,0,0,0,4.35.32c2.75.15,5.52.19,8.28.13s5.23-.24,7.83-.49,5.43-.8,8.15-1.1a67.32,67.32,0,0,0,8.24-1.7,74.63,74.63,0,0,0,7.8-2.28c1.2-.43,2.42-.75,3.63-1.13a33.49,33.49,0,0,0,3.28-1.38c1.25-.54,3.05-1.4,3.49-3.08C262.64,200.85,262.56,200.67,262.41,200.66Z"/><path class="cls-1" d="M246.94,208.43l-.07.12a.27.27,0,0,0-.06-.17l-.31-.11c-.7-.14-1.44-.42-2.12-.6-1-.26-1.92-.5-2.88-.78-1.83-.54-3.66-1.16-5.45-1.86-3.71-1.44-7.46-2.87-11.09-4.55s-7.53-3.48-11.12-5.6c-1.72-1-3.41-2.12-5.05-3.3-.77-.56-1.52-1.16-2.28-1.74a9.27,9.27,0,0,0-1.44-1.19.18.18,0,0,0-.25.13.14.14,0,0,0-.11-.05,27.16,27.16,0,0,0-3.84.76c-1.52.31-3,.81-4.5,1.19s-2.9.49-4.34.79a46.78,46.78,0,0,1-4.84.75c-3.17.32-6.35,1-9.53,1.06-1.51,0-3,.1-4.52,0-.36,0-1.56.12-1.86-.19-.09-.1-.21-.08-.33-.09a.18.18,0,0,0-.19.12.19.19,0,0,0-.14.2.35.35,0,0,0,.08.29l0,.09h0l0,0,0,0,.13.12a4.37,4.37,0,0,0,.52.85c.54.78,1.13,1.54,1.72,2.27l.47.66a16.65,16.65,0,0,0,2.15,2.36c.32.38.64.76,1,1.12a68.31,68.31,0,0,0,9.39,7.94,32.86,32.86,0,0,0,4.9,2.9c1.79.86,3.5,1.93,5.27,2.86a19,19,0,0,0,4.7,1.89,13.38,13.38,0,0,0,3.27.86,8.08,8.08,0,0,0,2.64.23,60.15,60.15,0,0,0,6.44,0c2-.09,4.08-.26,6.11-.42s4.12-.07,6.19-.28a56,56,0,0,0,11.91-2.56,30.77,30.77,0,0,0,4.31-1.63H242a.16.16,0,0,0,.1,0,7.11,7.11,0,0,0,2.89-1.71,10.63,10.63,0,0,0,2.4-2.68Zm-63.34-1.8q-.58-.47-1.17-1l1.18.84A.49.49,0,0,0,183.6,206.63Zm3.41,2.52c-1-.68-2-1.4-2.92-2.14a28.89,28.89,0,0,1,3.9,2.78C187.66,209.58,187.33,209.38,187,209.15Zm3.75,2,1.28.71.47.32C191.92,211.87,191.33,211.52,190.76,211.16Zm54.79-1.06a3.75,3.75,0,0,0,.66-1.15.29.29,0,0,0,.22.15h0C246.18,209.45,245.87,209.77,245.55,210.1Z"/><path class="cls-4" d="M263.87,215.93l-.15-.07a.28.28,0,0,0-.14-.09c-4.73-1-8.82-3.82-12.93-6.2-2.15-1.25-4.23-2.73-6.25-4.17-1-.71-2-1.47-2.92-2.21-.44-.35-1.95-1-2-1.54a.27.27,0,0,0-.29-.19A60.33,60.33,0,0,1,227,202q-3-.21-5.91-.55c-1-.12-1.9-.28-2.85-.42a4.51,4.51,0,0,1-2.63-.82.25.25,0,0,0-.43.14v.12s0,.05,0,.07a.23.23,0,0,0,0,.18c3.14,7.17,10.81,11.8,17.78,14.65a.2.2,0,0,0,.13,0c.14.07.3,0,.45.15.32.24.84.12,1.22.12,1.18.14,2.4.1,3.58.16,3.1.14,6.19.46,9.28.64,2.84.17,5.65.25,8.5.28,1.47,0,2.94.09,4.41.11a6.46,6.46,0,0,0,3.38-.45A.24.24,0,0,0,263.87,215.93Z"/><path class="cls-3" d="M191.69,182.75h0a11.1,11.1,0,0,1-4.14-2.27l-.21-.16a44.65,44.65,0,0,1-4.13-3.39c-2.54-2.46-4.93-5.08-7.17-7.56l-.24-.26a97.62,97.62,0,0,0-6.8-7c-1.95-1.75-4.29-3.65-7.46-4a10.79,10.79,0,0,0-7.2,1.86,9.39,9.39,0,0,0-4.19,6.16c-.6,3.5.29,7.2,1.17,10.4a41.92,41.92,0,0,0,4.11,9.35,74.55,74.55,0,0,0,6.44,9.33c1.28,1.62,2.59,3.17,3.71,4.48l.37.43a8.06,8.06,0,0,1,2.08,3.29.94.94,0,0,0,.86.78,1.23,1.23,0,0,0,.27,0,1,1,0,0,0,.78-1.13,7.77,7.77,0,0,0-1.61-3l0,0c-.64-.87-1.36-1.69-2-2.49-.34-.39-.68-.78-1-1.17a91.58,91.58,0,0,1-6.58-8.82c-4.7-7.27-7-14-6.75-19.91a7.49,7.49,0,0,1,3.75-6.13,8.89,8.89,0,0,1,8.29-.64,14.51,14.51,0,0,1,3.4,2.5l.38.34c1.44,1.27,2.79,2.68,4,4,.9,1,1.78,1.92,2.67,2.88,1.43,1.56,2.9,3.16,4.39,4.72.27.27.52.54.78.82a42.93,42.93,0,0,0,4.84,4.57l.57.43c.88.67,1.78,1.37,2.71,2a11.24,11.24,0,0,0,1.51.9,8.2,8.2,0,0,0,.79.36l.26.09,0,0,.05.09a1,1,0,0,0,.75.39,1.15,1.15,0,0,0,1.27-1.08A1,1,0,0,0,191.69,182.75Z"/><path class="cls-3" d="M229.2,175.9a.22.22,0,0,0-.14-.14c-1.44-.58-2.5-1.88-3.6-2.93s-2.18-2.08-3.2-3.18-1.9-2.22-2.84-3.33c-.28-.35-.56-.69-.83-1a11.45,11.45,0,0,1-.89-1.09,1,1,0,0,1-.22-.31v0a.1.1,0,0,1,0,0c-.49.07-1,.12-1.49.16a9.17,9.17,0,0,1-2.28.07c-.71,0-1.42-.05-2.14-.1l-.43,0c-2.51.09-5-.12-7.53-.24a143.6,143.6,0,0,1-15.1-1.05c-5.14-.8-10.29-1.57-15.41-2.45-2.54-.43-5.08-.83-7.62-1.28-1.08-.19-2.08-.74-3.17-.88a2.78,2.78,0,0,0-.82,0,1.73,1.73,0,0,0-.39,0,.91.91,0,0,0-.13.08h-.29a.26.26,0,0,0-.27.23.24.24,0,0,0,0,.48h.12a6.64,6.64,0,0,1,1.94.87c.79.37,1.59.72,2.38,1.13a26.69,26.69,0,0,1,4.12,2.8c2.63,2.09,4.37,4.68,6.49,7.23,1,1.21,2.17,2.27,3.24,3.41s2.42,2.53,3.7,3.73,5,4.58,6.25,5.55a8.1,8.1,0,0,0,5.91,1.51c1.92-.1,3.4-.35,5.29-.62,2.09-.31,4.18-.68,6.27-1a45.72,45.72,0,0,0,6.26-1.06c3.91-1.05,7.79-2.28,11.66-3.46a18.9,18.9,0,0,0,3.67-1.58c.44-.24,1.61-.69,1.69-1.28A.22.22,0,0,0,229.2,175.9Z"/><path class="cls-4" d="M219.37,223.59a.8.8,0,0,1-.16.08.21.21,0,0,0-.13,0l-.06,0c-1,.11-2.91-1.27-3.55-1.62-1.93-1-3.83-2.12-5.66-3.32A63.36,63.36,0,0,1,199.75,210c-1.48-1.5-3-3-4.35-4.58-.61-.68-1.29-1.28-1.9-2a5.75,5.75,0,0,0-1.6-1.55,5,5,0,0,0-2.07-.29c-.88,0-1.77-.08-2.64,0-.6,0-17.18.47-19.36.55-3.41.13-7.45,1.09-10.47-1a.24.24,0,0,0-.36.12.22.22,0,0,0-.19.21l0,.16h0c-.14,1.87,1.23,3.86,2.27,5.29a72.56,72.56,0,0,0,4.83,5.56c3.16,3.54,13.13,8.78,13.82,9a13.88,13.88,0,0,0,2.29.55c2,.25,3.93.29,5.9.35,4,.13,8,.58,12,.86s8,.38,12,.42c1.87,0,3.73.16,5.6.3,1.17.09,2.61.61,3.74.12a1.11,1.11,0,0,0,.43-.19C219.93,223.76,219.61,223.39,219.37,223.59Z"/><path class="cls-11" d="M212.54,230.47l-.06,0C212.57,230.5,212.57,230.5,212.54,230.47Z"/><path class="cls-3" d="M249.43,233.3a4.29,4.29,0,0,0-1.38-1.4,23,23,0,0,1-2.66-2.28,29.23,29.23,0,0,1-4.9-6.33,39.07,39.07,0,0,1-3-6.75,24.49,24.49,0,0,1-1.43-8.2.19.19,0,0,0,0-.08,5.25,5.25,0,0,0,.09-1,.27.27,0,0,0-.31-.29,31.39,31.39,0,0,1-6.07,1.14,67,67,0,0,1-7.23.11c-2.1-.15-4.21-.13-6.32-.23-.25,0-1.22,0-2.34-.13a11.72,11.72,0,0,1-4.45-.92h-.13a.26.26,0,0,0-.25.14.26.26,0,0,0-.15.12c-.1,0-.17.49-.17.65a.33.33,0,0,0,0,.12c0,.15-.09.47-.09.47a14.28,14.28,0,0,0-.48,2,30,30,0,0,0-.43,3.54,34,34,0,0,0,.21,5.88,20.46,20.46,0,0,0,3.86,10.35,7.85,7.85,0,0,0,1.49.61c.25.08.51.14.75.2a38,38,0,0,0,4.27.55c3.34.41,6.67.91,10,1.2s6.57.57,9.85.82c1.56.12,3.13.21,4.69.29a19.41,19.41,0,0,0,3.14-.2.29.29,0,0,0,.19.06,9.05,9.05,0,0,1,1.48-.15l1.54.12h.08a.21.21,0,0,0,.15-.1v0A.23.23,0,0,0,249.43,233.3Z"/></g></g></svg>