<svg xmlns="http://www.w3.org/2000/svg" width="97" height="96" fill="none"><path fill="#95999D" fill-rule="evenodd" d="M70.75 96h-44c-4.42 0-8-3.74-8-8.348V8.348c0-4.608 3.58-8.348 8-8.348h44c4.416 0 8 3.74 8 8.348v79.304c0 4.608-3.584 8.348-8 8.348Z" clip-rule="evenodd"/><path fill="#F5F6F7" d="M42.75 6.003a1.5 1.5 0 1 1 0-3l12-.003a1.5 1.5 0 1 1 0 3l-12 .003Z"/><path fill="#F5F6F7" fill-rule="evenodd" d="M53.25 88.5c0 2.484-2.016 4.5-4.5 4.5a4.502 4.502 0 0 1-4.5-4.5c0-2.484 2.016-4.5 4.5-4.5s4.5 2.016 4.5 4.5Z" clip-rule="evenodd"/><path fill="#32363F" d="M21.75 9h54v75h-54z"/></svg>