<svg xmlns:sketch="http://www.bohemiancoding.com/sketch/ns" xmlns="http://www.w3.org/2000/svg" width="912" height="48" viewBox="0 0 912 48"><title>sprite-landing</title><desc>Created with Sketch.</desc><g fill="#fff"><path d="M347.274 11.688c.385.385 1.021.388 1.412-.002.393-.394.392-1.023.002-1.412l-4.247-4.247c-.385-.385-1.021-.389-1.412.002-.394.394-.392 1.023-.002 1.412l4.247 4.247zM343.009 22h-4.018c-.54 0-.991.448-.991 1 0 .556.443 1 .991 1h4.018c.54 0 .991-.448.991-1 0-.556-.443-1-.991-1zM372.726 11.688l4.247-4.247c.385-.385.389-1.021-.002-1.412-.394-.393-1.022-.391-1.412-.002l-4.247 4.247c-.385.384-.389 1.021.002 1.412.393.394 1.023.392 1.412.002zM360 7c.556 0 1-.443 1-.991v-4.018c0-.54-.447-.991-1-.991-.556 0-1 .443-1 .991v4.019c0 .539.447.99 1 .99zM360.99 46h-1.98c-.566 0-1.01.447-1.01 1 0 .557.452 1 1.01 1h1.98c.566 0 1.01-.447 1.01-1 0-.557-.452-1-1.01-1zM364.005 42h-8.01c-.539 0-.995.447-.995 1 0 .557.445 1 .995 1h8.01c.539 0 .995-.447.995-1 0-.557-.445-1-.995-1zM381.009 22h-4.018c-.54 0-.991.448-.991 1 0 .556.443 1 .991 1h4.018c.54 0 .991-.448.991-1 0-.556-.443-1-.991-1zM360 9c-7.732 0-14 6.268-14 14 0 5.869 3.649 11.029 9 13.073v1.932c0 1.101.899 1.995 1.997 1.995h6.006c1.102 0 1.997-.895 1.997-1.994v-1.934c5.351-2.045 9-7.204 9-13.072 0-7.732-6.268-14-14-14zm3.692 25.424c-.412.133-.692.517-.692.951v2.625h-6v-2.623c0-.434-.28-.818-.693-.951-4.909-1.584-8.307-6.18-8.307-11.426 0-6.627 5.373-12 12-12s12 5.373 12 12c0 5.246-3.397 9.839-8.308 11.424z"/></g><g fill="#fff"><path d="M412.997 10.645c-1.6-.426-3.28-.645-4.997-.645-1.479 0-2.933.163-4.331.481-.538.122-.876.658-.753 1.197.122.539.658.876 1.196.753 1.253-.285 2.558-.431 3.888-.431 1.543 0 3.052.197 4.482.578.533.142 1.081-.175 1.224-.709.142-.534-.176-1.082-.709-1.224z"/><circle cx="397" cy="20" r="2"/><path d="M431.242 19.03c-.535-.134-1.078.192-1.212.728-.295 1.179-.766 1.837-1.341 2.145-.238.127-.492.186-.743.201-.551-9.007-9.288-16.104-19.946-16.104-1.5 0-2.979.145-4.417.421l-.315-.233c.105.084-1.072-.889-1.491-1.204-2.712-2.035-5.356-2.603-8.291-.842-.732.439-.612 1.536.198 1.806 1.161.387 2.181 1.183 2.801 2.085.222.323.352.614.403.832-4.5 2.558-7.623 6.564-8.577 11.134h-1.306c-1.661 0-3.005 1.336-3.005 2.998v4.004c0 1.652 1.347 2.998 2.992 2.998h2.809c1.759 3.309 4.676 5.984 8.251 7.735l-.053.263v7.004c0 .552.447.998 1 .998.556 0 1-.447 1-.998v-6.431c2.469.92 5.177 1.43 8 1.43 2.843 0 5.546-.513 8-1.424v6.426c0 .552.447.998 1 .998.557 0 1-.447 1-.998v-7.004l-.053-.263c5.641-2.754 9.546-7.774 9.987-13.635.559-.014 1.134-.134 1.696-.434 1.104-.589 1.914-1.723 2.339-3.424.136-.535-.19-1.078-.726-1.212zm-23.242 18.97c-7.432 0-13.982-3.788-16.698-9.434-.167-.345-.518-.566-.902-.566h-3.408c-.541 0-.992-.451-.992-.998v-4.004c0-.555.446-.998 1.005-.998h2.141c.496 0 .917-.363.989-.854.644-4.365 3.581-8.266 7.981-10.682 1.8-.988.518-3.643-1.715-5.299 1.375-.197 2.702.314 4.174 1.419.376.281 1.519 1.226 1.445 1.167.73.583 1.107.796 1.713.673 1.385-.28 2.815-.424 4.267-.424 9.976 0 18 6.757 18 15 0 8.242-8.024 15-18 15z"/></g><g fill="#fff"><path d="M620.501 12.135l-19-11c-.31-.18-.692-.18-1.002 0l-19 11c-.309.178-.499.508-.499.865v22c0 .334.167.646.445.832l6 4 .107.062c.201.101.529.239.949.376.856.278 1.73.422 2.581.351 2.427-.201 3.918-2.066 3.918-5.621v-19c0-.552-.447-1-1-1s-1 .448-1 1v19c0 2.57-.759 3.518-2.083 3.629-.548.045-1.172-.057-1.797-.26-.293-.096-.507-.187-.633-.246l-5.487-3.658v-20.889l18-10.421 18 10.421v20.848l-18.003 10.423-6.501-3.715c-.479-.274-1.09-.107-1.364.372s-.107 1.09.372 1.364l7 4c.31.177.689.176.997-.003l19-11c.309-.178.499-.508.499-.865v-22c0-.357-.19-.687-.499-.865zM606 31c-2.793 0-4.485-.645-5.372-1.658-.477-.545-.628-1.065-.628-1.342 0-.553-.447-1-1-1s-1 .447-1 1c0 .723.286 1.703 1.122 2.658 1.301 1.487 3.546 2.342 6.878 2.342 3.979 0 6.342-.93 7.401-2.632.484-.776.599-1.436.599-2.368 0-2.85-1.813-3.983-7.836-4.986-5.16-.86-6.164-1.488-6.164-3.014 0-.588.06-.931.297-1.312.631-1.013 2.347-1.688 5.703-1.688 2.793 0 4.485.645 5.372 1.659.477.544.628 1.063.628 1.341 0 .552.447 1 1 1s1-.448 1-1c0-.722-.286-1.703-1.122-2.659-1.301-1.486-3.546-2.341-6.878-2.341-3.979 0-6.342.93-7.401 2.632-.484.777-.599 1.436-.599 2.368 0 2.849 1.813 3.983 7.836 4.986 5.16.86 6.164 1.489 6.164 3.014 0 .588-.06.931-.297 1.312-.631 1.012-2.347 1.688-5.703 1.688z"/></g><path fill="#fff" d="M714.999 7h-37.998c-2.766 0-5.001 2.238-5.001 4.999v24.003c0 2.768 2.239 4.999 5.001 4.999h37.998c2.766 0 5.001-2.237 5.001-4.999v-24.003c0-2.768-2.239-4.999-5.001-4.999zm3.001 29.002c0 1.658-1.341 2.999-3.001 2.999h-2.999v-25.008c0-.547-.448-.993-1-.993-.556 0-1 .445-1 .993v25.008h-4.001l.001-.004v-20.994c0-.564-.448-1.003-1-1.003-.556 0-1 .449-1 1.003v20.994l.001.004h-4.001v-17.006c0-.544-.448-.995-1-.995-.556 0-1 .446-1 .995v17.006h-4.002l.002-.008v-12.985c0-.558-.448-1.007-1-1.007-.556 0-1 .451-1 1.007v12.985l.002.008h-4.002v-9.005c0-.551-.448-.996-1-.996-.556 0-1 .445-1 .996v9.005h-4.001l.001-.004v-4.994c0-.565-.448-1.003-1-1.003-.556 0-1 .449-1 1.003v4.994l.001.004h-3c-1.661 0-3.001-1.339-3.001-2.999v-24.003c0-1.658 1.341-2.999 3.001-2.999h37.998c1.661 0 3.001 1.339 3.001 2.999v24.003z"/><g fill="#fff"><path d="M753 9c-8.271 0-15 6.729-15 15s6.729 15 15 15 15-6.729 15-15-6.729-15-15-15zm0 28c-7.168 0-13-5.832-13-13s5.832-13 13-13 13 5.832 13 13-5.832 13-13 13zM754 17.001c-.552 0-1 .448-1 1l.005 6.463-7.599-3.377c-.505-.224-1.097.003-1.32.508-.224.505.003 1.096.508 1.32l9 4c.661.294 1.406-.19 1.406-.914v-8c0-.552-.448-1-1-1zM735.993 29h-11.986c-.557 0-1.007.448-1.007 1 0 .557.451 1 1.007 1h11.986c.557 0 1.007-.448 1.007-1 0-.557-.451-1-1.007-1zM734 24c0-.556-.451-1-1.007-1h-11.986c-.557 0-1.007.448-1.007 1 0 .557.451 1 1.007 1h11.986c.557 0 1.007-.448 1.007-1zM735.993 17h-11.986c-.557 0-1.007.448-1.007 1 0 .556.451 1 1.007 1h11.986c.557 0 1.007-.448 1.007-1 0-.556-.451-1-1.007-1z"/></g><g fill="#fff"><path d="M813.981 6.765l-.973-1.989c-.834-1.707-2.51-2.765-4.374-2.765h-10.811c-1.864 0-3.539 1.058-4.374 2.765l-1.749 3.579c-.501 1.022-1.506 1.658-2.625 1.658h-14.230999999999998c-3.774 0-6.846 3.141-6.846 7.002v20.006c0 3.86 3.071 7.002 6.846 7.002h34.253c3.775 0 6.847-3.142 6.847-7.002v-21.756c.001-2.936-.678-5.875-1.963-8.5zm-20.533 2.484l1.751-3.579c.501-1.022 1.506-1.658 2.625-1.658h10.811c1.117 0 2.124.636 2.625 1.66l.973 1.989c.37.757.677 1.546.933 2.352h-20.189c.174-.239.337-.49.471-.764zm20.539 27.772c0 2.756-2.195 5-4.891 5h-34.251c-2.694 0-4.89-2.244-4.89-5v-20.006c0-2.756 2.195-5.001 4.89-5.001h14.229l.014-.001h24.584c.205 1.071.315 2.161.315 3.252v21.756zM799.253 22.556c-.202-1.678-.958-3.229-2.174-4.427-1.395-1.374-3.236-2.129-5.186-2.129s-3.79.755-5.185 2.13c-1.221 1.203-1.979 2.763-2.177 4.45-1.675.199-3.223.964-4.417 2.193-1.364 1.403-2.115 3.26-2.115 5.224 0 4.119 3.325 7.47 7.414 7.47l.001-.001h13.171c4.088 0 7.415-3.351 7.415-7.47.001-3.892-2.97-7.099-6.747-7.44zm-.668 12.911h-13.171l.001-.001c-2.981 0-5.414-2.452-5.414-5.47 0-1.445.548-2.801 1.549-3.83.873-.896 1.997-1.455 3.218-1.6.918-.109 1.643-.834 1.75-1.753.146-1.24.701-2.378 1.595-3.259 1.02-1.005 2.355-1.554 3.78-1.554s2.762.549 3.78 1.554c.89.876 1.444 2.008 1.593 3.243.113.937.866 1.667 1.807 1.752 2.77.25 4.928 2.614 4.928 5.448-.001 3.017-2.436 5.47-5.416 5.47z"/></g><g fill="#fff"><path d="M879.532 28l.002.001h16.934c5.255 0 9.533-4.371 9.533-9.743 0-5.078-3.82-9.26-8.676-9.705-.261-2.188-1.233-4.212-2.796-5.775-1.792-1.793-4.16-2.778-6.666-2.778-2.507 0-4.874.985-6.666 2.778-1.57 1.569-2.545 3.604-2.799 5.804-2.153.26-4.144 1.257-5.68 2.86-1.754 1.832-2.719 4.252-2.719 6.814.001 5.373 4.276 9.744 9.533 9.744zm-5.371-15.175c1.214-1.267 2.778-2.054 4.474-2.258.918-.111 1.642-.837 1.747-1.756.203-1.759.98-3.374 2.227-4.62 1.417-1.418 3.275-2.192 5.252-2.192 1.976 0 3.835.775 5.252 2.192 1.238 1.24 2.015 2.846 2.224 4.598.112.937.864 1.669 1.804 1.755 3.853.353 6.859 3.695 6.859 7.713 0 4.277-3.392 7.743-7.533 7.743h-16.936c-4.143 0-7.532-3.466-7.532-7.744-.001-2.049.766-3.974 2.162-5.431zM883 30c-.552 0-1 .448-1 1v3.5c0 1.379-1.122 2.5-2.5 2.5h-2.671c-.412-1.165-1.523-2-2.829-2-1.657 0-3 1.343-3 3s1.343 3 3 3c1.306 0 2.417-.835 2.829-2h2.671c2.483 0 4.5-2.016 4.5-4.5v-3.5c0-.552-.448-1-1-1zm-9 9c-.552 0-1-.448-1-1s.448-1 1-1 1 .448 1 1-.448 1-1 1zM902 35c-1.306 0-2.417.835-2.829 2h-2.671c-1.378 0-2.5-1.121-2.5-2.5v-3.5c0-.552-.448-1-1-1s-1 .448-1 1v3.5c0 2.484 2.017 4.5 4.5 4.5h2.671c.412 1.165 1.523 2 2.829 2 1.657 0 3-1.343 3-3s-1.343-3-3-3zm0 4c-.552 0-1-.448-1-1s.448-1 1-1 1 .448 1 1-.448 1-1 1zM888.987 42.166l.013-.164v-11.003c0-.552-.448-.999-1-.999-.556 0-1 .448-1 .999v11.003l.014.164c-1.173.408-2.014 1.523-2.014 2.834 0 1.657 1.343 3 3 3s3-1.343 3-3c0-1.311-.841-2.426-2.013-2.834zm-.987 3.834c-.552 0-1-.448-1-1s.448-1 1-1 1 .448 1 1-.448 1-1 1z"/></g><g fill="#fff"><path d="M836.112 12.431c1.253-.285 2.558-.431 3.888-.431 1.543 0 3.052.197 4.482.578.533.142 1.081-.175 1.224-.709.142-.534-.176-1.082-.709-1.224-1.6-.426-3.28-.645-4.997-.645-1.479 0-2.933.163-4.331.481-.538.122-.876.658-.753 1.197.122.538.658.876 1.196.753z"/><circle cx="829" cy="20" r="2"/><path d="M863.242 19.03c-.535-.134-1.078.192-1.212.728-.295 1.179-.766 1.837-1.341 2.145-.238.127-.491.186-.743.201-.344-5.614-3.86-10.481-9.056-13.353l3.953-6.213c.297-.466.159-1.084-.307-1.381s-1.084-.159-1.381.307l-4.074 6.402c-2.729-1.186-5.811-1.866-9.081-1.866-1.5 0-2.979.145-4.417.421l-.315-.233c.105.084-1.072-.889-1.491-1.204-2.712-2.035-5.356-2.603-8.291-.842-.732.439-.612 1.536.198 1.806 1.161.387 2.181 1.183 2.801 2.085.222.323.352.614.403.832-4.5 2.558-7.622 6.564-8.577 11.134h-1.306c-1.661 0-3.005 1.336-3.005 2.998v4.004c0 1.652 1.347 2.998 2.992 2.998h2.809c1.761 3.311 4.668 5.999 8.25 7.748l-.008.035-4.887 7.68c-.297.467-.159 1.084.307 1.381s1.084.159 1.381-.307l3.156-4.96v3.425c0 .552.447.998 1 .998.557 0 1-.447 1-.998v-6.431c2.47.918 5.178 1.429 8 1.429 2.844 0 5.547-.513 8-1.424v6.426c0 .552.447.998 1 .998.557 0 1-.447 1-.998v-7.004l-.053-.263c5.641-2.754 9.547-7.774 9.987-13.635.56-.014 1.134-.134 1.696-.434 1.104-.589 1.914-1.723 2.339-3.424.135-.534-.191-1.077-.727-1.211zm-39.941 9.536c-.166-.346-.517-.566-.9-.566h-3.408c-.541 0-.992-.451-.992-.998v-4.004c0-.555.446-.998 1.005-.998h2.141c.496 0 .917-.363.989-.854.644-4.365 3.581-8.266 7.981-10.682 1.8-.988.518-3.643-1.715-5.299 1.374-.197 2.702.314 4.174 1.419.376.281 1.519 1.226 1.445 1.167.73.583 1.107.796 1.713.673 1.384-.28 2.814-.424 4.266-.424 2.879 0 5.585.577 7.993 1.576l-16.848 26.476c-3.496-1.654-6.294-4.266-7.844-7.486zm16.699 9.434c-2.458 0-4.814-.422-6.973-1.181l16.788-26.38c4.931 2.684 8.185 7.318 8.185 12.561 0 8.242-8.024 15-18 15z"/></g><path fill="#fff" d="M652 23c0-1.861-1.277-3.412-3-3.858v2.136c.596.346 1 .984 1 1.723 0 .739-.404 1.376-1 1.724v2.135c1.723-.448 3-1.999 3-3.86zm-3.594 21.085l-17.476-7.767-2.848-25.627 20.232-6.744c.523-.175.807-.741.632-1.265-.176-.524-.741-.807-1.266-.632l.001.001-21 7c-.445.149-.729.59-.677 1.059l3 27c.039.354.263.66.588.806l18 8c.505.226 1.096-.003 1.32-.508.227-.508-.001-1.099-.506-1.323zm-1.406-35.295l-10.915 24.808c-.222.506.007 1.096.513 1.317s1.097-.007 1.318-.513l3.257-7.402h5.827v-2h-4.947l4.947-11.244v-4.966zm25 14.21c0-3.458-3.865-6.357-9.8-8.129 1.313-5.658.8-10.093-1.952-11.682-2.78-1.605-6.874.141-11.248 4.297v3.606c.529.631 1.059 1.282 1.578 1.963-.521-.022-1.051-.025-1.578-.034v1.997c1.053.019 2.092.058 3.102.131.91 1.315 1.8 2.685 2.634 4.132.819 1.422 1.558 2.837 2.219 4.229-.659 1.389-1.394 2.799-2.21 4.215-.611 1.06-1.253 2.074-1.907 3.065-1.238.104-2.524.162-3.835.188v1.991c.801-.014 1.604-.022 2.383-.065-.775 1.072-1.577 2.065-2.383 3.019v3.608c4.375 4.152 8.463 5.891 11.24 4.285 2.9-1.676 3.312-6.518 1.719-12.617 6.067-1.765 10.038-4.694 10.038-8.199zm-21.938-13.762c3.904-3.806 7.372-5.362 9.186-4.316 1.841 1.062 2.129 4.661 1.016 9.428-2.155-.519-4.528-.899-7.048-1.122-1.025-1.429-2.081-2.764-3.154-3.99zm6.405 9.044c-.57-.989-1.162-1.95-1.771-2.883 1.799.22 3.491.524 5.057.897-.451 1.533-1.039 3.162-1.742 4.841-.488-.948-.991-1.9-1.544-2.855zm.008 10.443c.55-.949 1.054-1.896 1.534-2.838.562 1.34 1.04 2.641 1.44 3.891-1.275.293-2.637.541-4.065.734.367-.591.738-1.176 1.091-1.787zm2.763 13.359c-1.81 1.044-5.271-.508-9.185-4.318 1.338-1.525 2.646-3.228 3.896-5.062 2.15-.22 4.187-.558 6.062-.997 1.385 5.236 1.188 9.245-.773 10.377zm2.162-12.813c-.584-1.847-1.336-3.778-2.241-5.758 1.062-2.319 1.913-4.575 2.53-6.697 5.069 1.51 8.311 3.792 8.311 6.184 0 2.438-3.365 4.761-8.6 6.271z" sketch:type="MSShapeGroup"/><g fill="#fff"><path d="M12.002 0l.023.004.023-.004h-.046zM41 3h-4v-2.001c0-.556-.448-.999-1-.999-.556 0-1 .447-1 .999v2.001h-22v-2.001c0-.548-.435-.981-.975-.995-.535.013-.975.451-.975.995v2.001h-4.049c-2.214 0-4.001 1.794-4.001 4.008v33.984c0 2.217 1.794 4.008 4.008 4.008h33.983c2.218 0 4.009-1.795 4.009-4.008v-33.984c0-2.217-1.791-4.008-4-4.008zm2 38.007c0 1.1-.902 1.993-2.003 1.993h-33.994c-1.107 0-2.003-.9-2.003-1.993v-27.007h38v27.007zm0-29.007h-38v-4.994c0-1.108.898-2.006 1.998-2.006h4.002v2.001c0 .552.444.999 1 .999.552 0 1-.443 1-.999v-2.001h22v2.001c0 .552.444.999 1 .999.552 0 1-.443 1-.999v-2.001h4.002c1.103 0 1.998.887 1.998 2.006v4.994zM7.999 32c-.544 0-.999.447-.999 1 0 .557.447 1 .999 1h5.001v6.004c0 .541.448.996 1 .996.556 0 1-.445 1-.996v-6.004h8v6.004c0 .541.448.996 1 .996.556 0 1-.445 1-.996v-6.004h8v6.004c0 .541.448.996 1 .996.556 0 1-.445 1-.996v-6.004h5.001c.544 0 .999-.447.999-1 0-.557-.447-1-.999-1h-5.001v-7h5.001c.544 0 .999-.447.999-1 0-.556-.447-1-.999-1h-5.001v-6.004c0-.541-.448-.996-1-.996-.556 0-1 .446-1 .996v6.004h-8v-6.004c0-.541-.448-.996-1-.996-.556 0-1 .446-1 .996v6.004h-8v-6.004c0-.541-.448-.996-1-.996-.556 0-1 .446-1 .996v6.004h-5.001c-.544 0-.999.448-.999 1 0 .557.447 1 .999 1h5.001v7h-5.001zm17.001-7h8v7h-8v-7zm-10 0h8v7h-8v-7z"/></g><g fill="#fff"><path d="M87.005 0h-30.01c-2.213 0-3.995 1.795-3.995 4.01v39.98c0 2.216 1.788 4.01 3.993 4.01h31.512c.547 0 .995-.447.995-1 0-.557-.446-1-.995-1h-32.51c-.546 0-.995-.447-.995-1 0-.557.448-1 1-1h31.01c2.205 0 3.99-1.791 3.99-4.002v-35.996c0-2.209-1.789-4.002-3.995-4.002zm1.995 40.003c0 1.102-.892 1.997-2 1.997h-30c-1.104 0-2-.892-2-1.997v-36.006c0-1.103.892-1.997 2-1.997h30c1.104 0 2 .892 2 1.997v36.006zM73.898 24.08c2.224-1.021 3.602-3.774 3.602-6.58 0-3.038-2.462-5.5-5.5-5.5s-5.5 2.462-5.5 5.5c0 2.806 1.378 5.559 3.602 6.58-3.137.245-5.33 1.108-6.684 2.463-1.052 1.052-1.418 2.149-1.418 2.957v3c0 .553.448 1 1 1s1-.447 1-1v-3c0-.039.02-.18.089-.387.128-.385.364-.777.743-1.156 1.198-1.197 3.476-1.957 7.168-1.957s5.97.76 7.168 1.957c.379.379.615.771.743 1.156.069.207.089.348.089.387v3c0 .553.448 1 1 1s1-.447 1-1v-3c0-.808-.366-1.905-1.418-2.957-1.354-1.355-3.547-2.218-6.684-2.463zm-5.398-6.58c0-1.933 1.567-3.5 3.5-3.5s3.5 1.567 3.5 3.5c0 2.57-1.532 5-3.5 5s-3.5-2.43-3.5-5z"/></g><path fill="#fff" d="M139.99 6h-39.98c-2.216 0-4.01 1.787-4.01 3.99v28.02c0 2.205 1.795 3.99 4.01 3.99h39.98c2.216 0 4.01-1.787 4.01-3.99v-28.02c0-2.205-1.795-3.99-4.01-3.99zm-39.985 2h39.99c.132 0 .262.013.387.037l-20.364 18.626-20.399-18.626c.125-.024.254-.037.386-.037zm41.995 29.998c0 1.105-.899 2.002-2.005 2.002h-39.99c-1.108 0-2.005-.889-2.005-2.002v-27.996c0-.224.037-.438.104-.64l21.221 19.376c.382.349.967.349 1.349 0l21.222-19.376c.067.201.104.416.104.64v27.996z"/><g fill="#fff"><path d="M175 40c0-1.62.646-3.132 1.757-4.242l1.531 1.53c.389.39.712.269.712-.278v-4.02c0-.539-.443-.99-.991-.99h-4.019c-.54 0-.672.318-.279.712l1.631 1.631c-1.481 1.48-2.342 3.499-2.342 5.657 0 4.418 3.582 8 8 8v-2c-3.313 0-6-2.687-6-6zM186.657 45.657c1.481-1.48 2.343-3.499 2.343-5.657 0-4.418-3.582-8-8-8v2c3.313 0 6 2.687 6 6 0 1.62-.646 3.132-1.757 4.242l-1.531-1.53c-.389-.39-.712-.269-.712.278v4.02c0 .539.443.99.991.99h4.019c.54 0 .672-.318.279-.712l-1.632-1.631zM155.998 46c-1.106 0-1.998-.895-1.998-1.998v-4.002h17l.5-2h-17.5v-28h26v20h2v-26.001c0-2.212-1.791-3.999-3.999-3.999h-22.002c-2.212 0-3.999 1.795-3.999 4.01v39.98c0 2.216 1.793 4.01 4.006 4.01h18.994l-2-2h-17.002zm-1.998-42.002c0-1.103.895-1.998 1.997-1.998h22.006c1.103 0 1.997.898 1.997 1.998v4.002h-26v-4.002z"/><circle cx="167" cy="43" r="2"/><path d="M170.003 4h-6.006c-.544 0-.997.448-.997 1 0 .556.446 1 .997 1h6.006c.544 0 .997-.448.997-1 0-.556-.446-1-.997-1z"/></g><g fill="#fff"><path d="M240 41.433c0-3.167-2.346-5.829-5.477-6.436-.303-1.188-.926-2.275-1.851-3.14-1.28-1.199-2.972-1.857-4.756-1.857s-3.476.658-4.757 1.857c-.939.878-1.566 1.986-1.863 3.195-1.255.277-2.412.872-3.333 1.77-1.263 1.235-1.963 2.875-1.963 4.61 0 3.634 3.07 6.568 6.825 6.568h10.349c3.755 0 6.826-2.936 6.826-6.567zm-6.826 4.567h-10.349c-2.67 0-4.825-2.061-4.825-4.568 0-1.193.48-2.318 1.36-3.178.777-.758 1.786-1.232 2.884-1.355.459-.053.824-.412.88-.871.127-1.027.615-1.974 1.401-2.709.908-.85 2.11-1.318 3.391-1.318s2.483.469 3.391 1.317c.783.732 1.27 1.674 1.4 2.696.06.467.437.83.907.87 2.479.212 4.387 2.195 4.387 4.549-.001 2.506-2.157 4.567-4.827 4.567zM205.003 46c-1.109 0-2.003-.895-2.003-1.998v-4.002h11l1-2h-12v-28h26v18l2 .5v-24.507c0-2.21-1.791-3.993-3.999-3.993h-22.002c-2.212 0-3.999 1.795-3.999 4.01v39.98c0 2.216 1.794 4.01 4.007 4.01h12.993l-2-2h-10.997zm-2.003-42.002c0-1.103.895-1.998 1.997-1.998h22.006c1.103 0 1.997.898 1.997 1.998v4.002h-26v-4.002zM219.003 4h-6.006c-.544 0-.997.448-.997 1 0 .556.446 1 .997 1h6.006c.544 0 .997-.448.997-1 0-.556-.446-1-.997-1z"/></g><g fill="#fff"><path d="M283.99 6h-39.98c-2.216 0-4.01 1.793-4.01 4.004v23.992c0 2.215 1.795 4.004 4.01 4.004h16.99v6h-10.998c-.547 0-1.002.447-1.002 1 0 .557.444 1 .993 1h30.015c.541 0 .993-.447.993-1 0-.557-.449-1-1.002-1h-10.999v-6h14.99c2.216 0 4.01-1.793 4.01-4.004v-23.992c0-2.215-1.795-4.004-4.01-4.004zm-16.99 38h-4v-6h4v6zm19-9.991c0 1.1-.899 1.991-2.005 1.991h-39.99c-1.107 0-2.005-.9-2.005-1.991v-24.018c0-1.1.899-1.991 2.005-1.991h39.99c1.108 0 2.005.9 2.005 1.991v24.018zM282.991 10h-37.982c-.56 0-1.009.448-1.009 1v22c0 .553.452 1 1.009 1h37.982c.56 0 1.009-.448 1.009-1v-22c0-.553-.452-1-1.009-1zm-.991 22h-36v-20h36v20z"/></g><g fill="#fff"><path d="M331 33h-38v-26.009c0-1.1.902-1.991 2.003-1.991h26.997v-2h-26.992c-2.217 0-4.008 1.794-4.008 4.008v33.984c0 2.217 1.794 4.008 4.008 4.008h33.984c2.217 0 4.008-1.795 4.008-4.008v-24.992l-2 2v15zm0 8.002c0 1.104-.902 1.998-2.003 1.998h-33.994c-1.106 0-2.003-.887-2.003-1.998v-6.002h38v6.002zM326.29 28.704l1.42-1.408-11.95-12.05-.707-.713-.71.71-8.343 8.343-2.293-2.293-.707-.707-.707.707-6 6 1.414 1.414 5.293-5.293 5.376 5.376 1.414-1.415-2.376-2.375 7.633-7.633zM335.707 7.293l-7-7c-.391-.391-1.023-.391-1.414 0s-.391 1.023 0 1.414l5.293 5.293h-6.586c-2.856 0-5.138.83-6.875 2.219-1.062.849-1.709 1.713-2.02 2.333-.247.494-.047 1.095.447 1.342s1.095.047 1.342-.447c.037-.074.139-.241.312-.472.303-.404.69-.812 1.169-1.194 1.388-1.111 3.231-1.781 5.625-1.781h6.586l-5.293 5.293c-.391.391-.391 1.023 0 1.414s1.023.391 1.414 0l7-7c.391-.391.391-1.023 0-1.414zM306 18c1.657 0 3-1.343 3-3s-1.343-3-3-3-3 1.343-3 3 1.343 3 3 3zm0-4c.553 0 1 .448 1 1s-.447 1-1 1-1-.448-1-1 .447-1 1-1z"/></g><g fill="#fff"><path d="M475.99 4h-39.98c-2.216 0-4.01 1.791-4.01 4v32c0 2.203 1.795 4 4.01 4h39.98c2.216 0 4.01-1.791 4.01-4v-32c0-2.204-1.795-4-4.01-4zm2.01 36.008c0 1.101-.898 1.992-2.005 1.992h-39.99c-1.107 0-2.005-.898-2.005-1.992v-28.008h44v28.008zm0-29.926h-44v-2c0-1.104.898-2 2.005-2h39.99c1.107 0 2.005.888 2.005 2v2zM461.293 34.806c.391.391 1.023.391 1.414 0l7.082-7.081c.391-.391.391-1.024 0-1.415l-7.018-7.017c-.39-.391-1.023-.391-1.414 0s-.391 1.023 0 1.414l6.311 6.311-6.375 6.374c-.391.39-.391 1.023 0 1.414zM449.375 34.806c.391.391 1.023.391 1.414 0s.391-1.023 0-1.414l-6.375-6.375 6.309-6.31c.391-.391.391-1.023 0-1.414-.39-.391-1.023-.391-1.414 0l-7.017 7.017c-.391.391-.391 1.024 0 1.415l7.083 7.081zM452.697 38.953c.525.167 1.088-.123 1.256-.65l7-22c.167-.526-.124-1.089-.65-1.256-.525-.167-1.088.124-1.256.65l-7 22c-.167.526.124 1.088.65 1.256z"/></g><g fill="#fff"><path d="M523.99 4h-39.98c-2.216 0-4.01 1.791-4.01 4v32c0 2.203 1.795 4 4.01 4h39.98c2.216 0 4.01-1.791 4.01-4v-32c0-2.204-1.795-4-4.01-4zm2.01 36.008c0 1.101-.898 1.992-2.005 1.992h-39.99c-1.107 0-2.005-.898-2.005-1.992v-28.008h44v28.008zm0-29.926h-44v-2c0-1.104.898-2 2.005-2h39.99c1.107 0 2.005.888 2.005 2v2zM504.003 35h9.995c.546 0 1.002-.447 1.002-1 0-.557-.449-1-1.002-1h-9.995c-.547 0-1.003.447-1.003 1 0 .557.449 1 1.003 1zM494.293 34.806c.391.391 1.023.391 1.414 0l7.082-7.081c.391-.391.391-1.024 0-1.415l-7.018-7.017c-.39-.391-1.023-.391-1.414 0s-.391 1.023 0 1.414l6.311 6.311-6.375 6.374c-.391.39-.391 1.023 0 1.414z"/></g><g fill="#fff"><path d="M567.005 0h-30.01c-2.213 0-3.995 1.795-3.995 4.01v39.98c0 2.216 1.788 4.01 3.993 4.01h31.512c.547 0 .995-.447.995-1 0-.557-.445-1-.995-1h-32.51c-.546 0-.995-.447-.995-1 0-.557.448-1 1-1h31.01c2.205 0 3.99-1.791 3.99-4.002v-35.996c0-2.209-1.789-4.002-3.995-4.002zm1.995 40.003c0 1.103-.892 1.997-2 1.997h-30c-1.104 0-2-.892-2-1.997v-36.006c0-1.103.892-1.997 2-1.997h30c1.104 0 2 .892 2 1.997v36.006zM539 14h24v2h-24zM539 26h12v2h-12zM539 20h26v2h-26z"/></g></svg>