<svg width="1104" height="48" viewBox="0 0 1104 48" xmlns="http://www.w3.org/2000/svg"><title>sprite-landing</title><g fill="none" fill-rule="evenodd"><path d="M33 23h-8v-6.005c0-.54-.448-.995-1-.995-.556 0-1 .446-1 .995V23h-8v-6.005c0-.54-.448-.995-1-.995-.556 0-1 .446-1 .995V23H8c-.545 0-1 .448-1 1 0 .556.447 1 1 1h5v7H8c-.545 0-1 .448-1 1 0 .556.447 1 1 1h5v6.005c0 .54.448.995 1 .995.556 0 1-.446 1-.995V34h8v6.005c0 .54.448.995 1 .995.556 0 1-.446 1-.995V34h8v6.005c0 .54.448.995 1 .995.556 0 1-.446 1-.995V34h5c.545 0 1-.448 1-1 0-.556-.447-1-1-1h-5v-7h5c.545 0 1-.448 1-1 0-.556-.447-1-1-1h-5v-6.005c0-.54-.448-.995-1-.995-.556 0-1 .446-1 .995V23zm0 2h-8v7h8v-7zm-10 7h-8v-7h8v7zM3 7.008C3 4.794 4.787 3 7.002 3h4.048V1c0-.553.453-1 .998-1h-.046c.55 0 .998.443.998 1v2h22V1c0-.553.444-1 1-1 .552 0 1 .443 1 1v2h4c2.21 0 4 1.79 4 4.008v33.984C45 43.206 43.21 45 40.992 45H7.008C4.794 45 3 43.21 3 40.992V7.008zm2-.002C5 5.898 5.898 5 6.998 5H11v2c0 .553.444 1 1 1 .552 0 1-.443 1-1V5h22v2c0 .553.444 1 1 1 .552 0 1-.443 1-1V5h4.002C42.106 5 43 5.887 43 7.006V12H5V7.006zM5 14h38v27.007c0 1.1-.902 1.993-2.003 1.993H7.003C5.897 43 5 42.1 5 41.007V14z" fill="#FFF"/><g fill="#FFF"><path d="M53 4.01C53 1.795 54.782 0 56.995 0h30.01C89.21 0 91 1.793 91 4.002v35.996C91 42.208 89.215 44 87.01 44H56c-.552 0-1 .444-1 1 0 .552.45 1 .995 1h32.51c.55 0 .995.444.995 1 0 .552-.448 1-.995 1H56.993C54.788 48 53 46.206 53 43.99V4.01zM57 42c-1.105 0-2-.892-2-1.997V3.997C55 2.894 55.892 2 57 2h30c1.105 0 2 .892 2 1.997v36.006C89 41.106 88.108 42 87 42H57z"/><path d="M72 24.5c3.316 0 5.5-3.464 5.5-7 0-3.038-2.462-5.5-5.5-5.5s-5.5 2.462-5.5 5.5c0 3.536 2.184 7 5.5 7zm0-2c-1.968 0-3.5-2.43-3.5-5 0-1.933 1.567-3.5 3.5-3.5s3.5 1.567 3.5 3.5c0 2.57-1.532 5-3.5 5zm-8 10v-3c0-.04.02-.18.09-.387.127-.384.363-.777.742-1.156C66.03 26.76 68.307 26 72 26s5.97.76 7.168 1.957c.38.38.615.772.743 1.156.07.208.09.348.09.387v3c0 .552.45 1 1 1s1-.448 1-1v-3c0-.807-.36-1.905-1.41-2.957C78.97 24.928 76.19 24 72 24s-6.968.928-8.582 2.543C62.366 27.595 62 28.693 62 29.5v3c0 .552.448 1 1 1s1-.448 1-1z"/></g><g fill="#FFF"><path d="M186.657 45.657C188.137 44.177 189 42.16 189 40c0-4.418-3.582-8-8-8v2c3.314 0 6 2.686 6 6 0 1.62-.645 3.132-1.757 4.243l-1.53-1.53c-.39-.39-.713-.27-.713.278v4.02c0 .54.444.99.99.99h4.02c.54 0 .67-.32.278-.71l-1.63-1.63zm-9.9-9.9l1.53 1.53c.39.39.713.27.713-.278v-4.02c0-.54-.444-.99-.99-.99h-4.02c-.54 0-.67.32-.278.71l1.63 1.63C173.862 35.82 173 37.84 173 40c0 4.417 3.582 8 8 8v-2c-3.314 0-6-2.687-6-6 0-1.62.645-3.133 1.757-4.244z"/><path d="M152 4.01c0-2.215 1.787-4.01 4-4.01h22c2.21 0 4 1.787 4 4v26h-2V10h-26v28h17.5l-.5 2h-17v4.002c0 1.104.89 1.998 1.997 1.998H173l2 2h-18.994c-2.212 0-4.006-1.794-4.006-4.01V4.01zm2-.012c0-1.104.895-1.998 1.997-1.998h22.006c1.103 0 1.997.898 1.997 1.998V8h-26V3.998zM163 5c0-.552.453-1 .997-1h6.006c.55 0 .997.444.997 1 0 .552-.453 1-.997 1h-6.006c-.55 0-.997-.444-.997-1zm4 40c1.105 0 2-.895 2-2s-.895-2-2-2-2 .895-2 2 .895 2 2 2z"/></g><path d="M98.104 9.363c-.067.2-.104.415-.104.64v27.995c0 1.113.898 2.002 2.005 2.002h39.99c1.106 0 2.005-.896 2.005-2.002V10.002c0-.224-.036-.44-.104-.64l-21.222 19.376c-.382.35-.966.35-1.348 0L98.104 9.363zm1.515-1.326c.12-.024.25-.037.38-.037h39.99c.13 0 .26.013.38.037l-20.36 18.626-20.4-18.626zM96 9.99C96 7.786 97.794 6 100.01 6h39.98c2.215 0 4.01 1.785 4.01 3.99v28.02c0 2.204-1.794 3.99-4.01 3.99h-39.98C97.795 42 96 40.215 96 38.01V9.99z" fill="#FFF"/><g fill="#FFF"><path d="M432 8c0-2.21 1.794-4 4.01-4h39.98c2.215 0 4.01 1.796 4.01 4v32c0 2.21-1.794 4-4.01 4h-39.98c-2.215 0-4.01-1.796-4.01-4V8zm2 4h44v28.008c0 1.1-.9 1.992-2.005 1.992h-39.99c-1.107 0-2.005-.898-2.005-1.992V12zm0-3.918c0-1.105.9-2 2.005-2h39.99c1.107 0 2.005.888 2.005 2v2h-44v-2z"/><path d="M449.31 19.293l-7.017 7.017c-.39.39-.39 1.023 0 1.414l7.082 7.082c.39.39 1.023.39 1.414 0 .39-.39.39-1.024 0-1.414l-7.09-7.082v1.414l7.01-7.017c.39-.39.39-1.024 0-1.414-.39-.39-1.03-.39-1.42 0zm12.048 1.414l7.017 7.017V26.31l-7.082 7.082c-.39.39-.39 1.023 0 1.414.39.39 1.024.39 1.414 0l7.082-7.082c.39-.39.39-1.024 0-1.414l-7.02-7.017c-.39-.39-1.03-.39-1.42 0-.39.39-.39 1.024 0 1.414zm-7.405 17.596l7-22c.167-.526-.124-1.088-.65-1.256-.526-.167-1.088.124-1.256.65l-7 22c-.167.526.124 1.088.65 1.256.526.167 1.088-.124 1.256-.65z"/></g><g fill="#FFF"><path d="M480 8c0-2.21 1.794-4 4.01-4h39.98c2.215 0 4.01 1.796 4.01 4v32c0 2.21-1.794 4-4.01 4h-39.98c-2.215 0-4.01-1.796-4.01-4V8zm2 4h44v28.008c0 1.1-.9 1.992-2.005 1.992h-39.99c-1.107 0-2.005-.898-2.005-1.992V12zm0-3.918c0-1.105.9-2 2.005-2h39.99c1.107 0 2.005.888 2.005 2v2h-44v-2z"/><path d="M503 34c0-.552.456-1 1.002-1h9.996c.553 0 1.002.444 1.002 1 0 .552-.456 1-1.002 1h-9.996c-.553 0-1.002-.444-1.002-1zm-8.642-13.293l7.017 7.017V26.31l-7.082 7.082c-.39.39-.39 1.023 0 1.414.39.39 1.024.39 1.414 0l7.082-7.082c.39-.39.39-1.024 0-1.414l-7.02-7.017c-.39-.39-1.03-.39-1.42 0-.39.39-.39 1.024 0 1.414z"/></g><g fill="#FFF"><path d="M201 4.01c0-2.215 1.787-4.01 4-4.01h22c2.21 0 4 1.783 4 3.993V28.5l-2-.5V10h-26v28h12l-1 2h-11v4.002c0 1.104.894 1.998 2.003 1.998H216l2 2h-12.993c-2.213 0-4.007-1.794-4.007-4.01V4.01zm2-.012c0-1.104.895-1.998 1.997-1.998h22.006c1.103 0 1.997.898 1.997 1.998V8h-26V3.998zM212 5c0-.552.453-1 .997-1h6.006c.55 0 .997.444.997 1 0 .552-.453 1-.997 1h-6.006c-.55 0-.997-.444-.997-1z"/><path d="M233.175 46h-10.35c-2.67 0-4.825-2.06-4.825-4.568 0-1.193.48-2.32 1.36-3.178.777-.758 1.785-1.232 2.884-1.356.46-.052.823-.412.88-.87.127-1.027.615-1.974 1.4-2.71.91-.85 2.11-1.318 3.392-1.318 1.28 0 2.482.468 3.39 1.317.783.733 1.27 1.674 1.4 2.697.06.467.437.83.907.87 2.48.212 4.387 2.195 4.387 4.55 0 2.505-2.156 4.566-4.826 4.566v2-2zm0 2c1.333 0 1.333-2 0-2-1.334 0-1.334 2 0 2 3.753 0 6.825-2.935 6.825-6.567 0-3.413-2.723-6.243-6.217-6.542l.907.87c-.19-1.48-.897-2.85-2.018-3.9-1.28-1.2-2.972-1.86-4.756-1.86-1.785 0-3.476.66-4.757 1.86-1.13 1.06-1.84 2.43-2.02 3.93l.88-.87c-1.54.17-2.96.84-4.06 1.91-1.27 1.24-1.97 2.88-1.97 4.61 0 3.64 3.07 6.57 6.82 6.57h10.35z"/></g><path d="M240 10.004C240 7.794 241.794 6 244.01 6h39.98c2.215 0 4.01 1.79 4.01 4.004v23.992c0 2.21-1.794 4.004-4.01 4.004h-39.98c-2.215 0-4.01-1.79-4.01-4.004V10.004zm2-.013c0-1.09.9-1.99 2.005-1.99h39.99c1.107 0 2.005.9 2.005 1.99v24.02c0 1.1-.9 1.99-2.005 1.99h-39.99c-1.107 0-2.005-.9-2.005-1.99V9.99zm2 1.01c0-.55.45-1 1.01-1h37.98c.558 0 1.01.45 1.01 1v22c0 .56-.45 1-1.01 1h-37.98c-.558 0-1.01-.44-1.01-1V11zm2 1h36v20h-36V12zm3 33c0-.55.456-1 1.002-1H261v-6h2v6h4v-6h2v6h10.998c.553 0 1.002.45 1.002 1s-.452 1-.993 1h-30.014c-.55 0-.993-.44-.993-1z" fill="#FFF"/><g fill="#FFF"><path d="M325.496 3h-30.488C292.79 3 291 4.794 291 7.008v33.984c0 2.217 1.794 4.008 4.008 4.008h33.984c2.217 0 4.008-1.794 4.008-4.008V11.504 16l-2 2v15h-38V6.99c0-1.098.902-1.99 2.003-1.99H322V3h3.496zM293 35h38v6.002c0 1.103-.902 1.998-2.003 1.998h-33.994c-1.106 0-2.003-.887-2.003-1.998V35z"/><path d="M307.414 25l2.376 2.376-1.414 1.414-6.083-6.083h1.414l-6 6-1.414-1.414 6-6 .707-.707.707.707L306 23.586l8.343-8.343.71-.71.707.713 11.95 12.05-1.42 1.408-11.95-12.05 1.417.003L307.414 25zM306 18c1.657 0 3-1.343 3-3s-1.343-3-3-3-3 1.343-3 3 1.343 3 3 3zm0-2c.552 0 1-.448 1-1s-.448-1-1-1-1 .448-1 1 .448 1 1 1zm26.586-9l-5.293-5.293c-.39-.39-.39-1.024 0-1.414.39-.39 1.024-.39 1.414 0l7 7c.39.39.39 1.024 0 1.414l-7 7c-.39.39-1.024.39-1.414 0-.39-.39-.39-1.024 0-1.414L332.586 9H326c-2.394 0-4.237.67-5.625 1.78-.48.383-.866.79-1.17 1.195-.172.23-.274.4-.31.472-.248.494-.848.694-1.342.447-.494-.247-.694-.847-.447-1.34.31-.622.958-1.486 2.02-2.335C320.86 7.83 323.143 7 326 7h6.71z"/></g><path d="M338 23c0-.552.45-1 .99-1h4.02c.546 0 .99.444.99 1 0 .552-.45 1-.99 1h-4.02c-.546 0-.99-.444-.99-1zm38 0c0-.552.45-1 .99-1h4.02c.546 0 .99.444.99 1 0 .552-.45 1-.99 1h-4.02c-.546 0-.99-.444-.99-1zm-21 20c0-.552.456-1 .995-1h8.01c.55 0 .995.444.995 1 0 .552-.456 1-.995 1h-8.01c-.55 0-.995-.444-.995-1zm3 4c0-.552.443-1 1.01-1h1.98c.558 0 1.01.444 1.01 1 0 .552-.443 1-1.01 1h-1.98c-.558 0-1.01-.444-1.01-1zm13.314-35.314c-.39-.39-.387-1.027-.002-1.412l4.246-4.247c.39-.39 1.02-.39 1.413.002.39.39.39 1.02.01 1.41l-4.24 4.24c-.39.39-1.02.39-1.41 0zM343.03 6.03c.39-.39 1.027-.387 1.412-.003l4.246 4.247c.39.39.392 1.02-.002 1.412-.39.39-1.027.387-1.412.002l-4.247-4.246c-.39-.39-.39-1.02.002-1.413zM359 1.99c0-.546.444-.99 1-.99.552 0 1 .45 1 .99v4.02c0 .546-.444.99-1 .99-.552 0-1-.45-1-.99V1.99zm-4 33.387v2.628c0 1.1.9 1.995 1.997 1.995h6.006c1.1 0 1.997-.895 1.997-1.994v-2.63l-.693.95C370.037 34.476 374 29.12 374 23c0-7.732-6.268-14-14-14s-14 6.268-14 14c0 6.12 3.964 11.48 9.693 13.33l-.693-.953zm2 0c0-.434-.28-.82-.693-.952C351.4 32.84 348 28.247 348 23c0-6.627 5.373-12 12-12s12 5.373 12 12c0 5.246-3.397 9.84-8.307 11.424-.413.133-.693.518-.693.952v2.63c0-.006 0-.006.003-.006h-6.006c.005 0 .003-.002.003.005v-2.628z" fill="#FFF"/><g fill="#FFF"><path d="M412.997 10.645c-1.6-.426-3.28-.645-4.997-.645-1.48 0-2.933.163-4.33.48-.54.123-.877.66-.754 1.198.122.538.658.875 1.196.753 1.253-.28 2.558-.43 3.888-.43 1.543 0 3.05.2 4.482.58.534.14 1.082-.17 1.224-.71.142-.53-.175-1.08-.71-1.22z"/><path d="M384 27.002c0 1.652 1.347 2.998 2.992 2.998h3.408l-.9-.566C392.56 35.8 399.826 40 408 40c11.01 0 20-7.57 20-17s-8.99-17-20-17c-1.586 0-3.148.157-4.665.464.198-.04.287-.014.322.006-.08-.046-.208-.137-.39-.282.106.084-1.07-.89-1.49-1.204-2.713-2.035-5.357-2.602-8.29-.84-.734.438-.614 1.535.197 1.805 1.16.38 2.18 1.18 2.8 2.08.246.35.394.69.43.91.002.01.046-.13.24-.24-4.927 2.7-8.26 7.13-8.998 12.14l.99-.86h-2.14c-1.662 0-3.006 1.33-3.006 2.99V27zm2 0v-4.004c0-.555.446-.998 1.005-.998h2.14c.496 0 .917-.364.99-.854.643-4.365 3.58-8.266 7.98-10.682 2.314-1.27-.453-5.298-3.8-6.413l.2 1.81c2.106-1.26 3.93-.87 6.06.73.376.28 1.52 1.23 1.445 1.17.73.59 1.108.8 1.713.68C405.118 8.15 406.548 8 408 8c9.976 0 18 6.757 18 15s-8.024 15-18 15c-7.432 0-13.982-3.788-16.7-9.434-.165-.346-.516-.566-.9-.566h-3.408c-.54 0-.992-.45-.992-.998z"/><path d="M397 22c1.105 0 2-.895 2-2s-.895-2-2-2-2 .895-2 2 .895 2 2 2zm1 15.998c0-.55.444-.998 1-.998.552 0 1 .446 1 .998v7.004c0 .55-.444.998-1 .998-.552 0-1-.446-1-.998v-7.004zm18 0c0-.55.444-.998 1-.998.552 0 1 .446 1 .998v7.004c0 .55-.444.998-1 .998-.552 0-1-.446-1-.998v-7.004zm10.684-14.048c.08.026.2.058.353.087.82.16 1.724.093 2.594-.37 1.11-.59 1.92-1.724 2.34-3.424.14-.536-.19-1.08-.72-1.213-.53-.134-1.08.192-1.21.727-.29 1.18-.76 1.838-1.34 2.145-.41.218-.86.25-1.27.172-.06-.012-.1-.022-.1-.023-.52-.17-1.09.11-1.26.64-.17.53.11 1.09.64 1.27z"/></g><g fill="#FFF"><path d="M533 4.01c0-2.215 1.782-4.01 3.995-4.01h30.01C569.21 0 571 1.793 571 4.002v35.996c0 2.21-1.785 4.002-3.99 4.002H536c-.552 0-1 .444-1 1 0 .552.45 1 .995 1h32.51c.55 0 .995.444.995 1 0 .552-.448 1-.995 1h-31.512c-2.205 0-3.993-1.794-3.993-4.01V4.01zM537 42c-1.105 0-2-.892-2-1.997V3.997c0-1.103.892-1.997 2-1.997h30c1.105 0 2 .892 2 1.997v36.006c0 1.103-.892 1.997-2 1.997h-30z"/><path d="M539 14h24v2h-24v-2zm0 6h26v2h-26v-2zm0 6h12v2h-12v-2z"/></g><g fill="#FFF"><path d="M593.504 42.868l7 4c.31.177.69.176.997-.003l19-11c.31-.178.5-.508.5-.865V13c0-.357-.19-.687-.5-.865l-19-11c-.31-.18-.69-.18-1 0l-19 11c-.31.178-.5.508-.5.865v22c0 .334.17.647.45.832l6 4 .11.062c.2.1.53.24.95.377.86.28 1.73.43 2.58.36 2.42-.21 3.91-2.07 3.91-5.63V16c0-.552-.44-1-1-1s-1 .448-1 1v19c0 2.57-.76 3.518-2.08 3.628-.55.046-1.17-.056-1.79-.26-.31-.103-.55-.203-.67-.262l.11.062-6-4L583 35V13l-.5.865 19-11h-1l19 11L619 13v22l.5-.865-19 11 .996-.003-7-4c-.48-.274-1.09-.108-1.364.372s-.108 1.09.372 1.364z"/><path d="M614 20c0-.722-.286-1.703-1.122-2.66-1.3-1.485-3.546-2.34-6.878-2.34-3.98 0-6.342.93-7.4 2.632-.485.777-.6 1.437-.6 2.368 0 2.85 1.814 3.983 7.836 4.986 5.16.86 6.164 1.488 6.164 3.014 0 .59-.06.93-.297 1.312C611.073 30.325 609.357 31 606 31c-2.793 0-4.485-.645-5.372-1.66-.476-.543-.628-1.062-.628-1.34 0-.552-.448-1-1-1s-1 .448-1 1c0 .722.286 1.703 1.122 2.66 1.3 1.485 3.546 2.34 6.878 2.34 3.98 0 6.342-.93 7.4-2.632.485-.777.6-1.437.6-2.368 0-2.85-1.814-3.983-7.836-4.986-5.16-.86-6.164-1.488-6.164-3.014 0-.59.06-.93.297-1.312.63-1.013 2.346-1.688 5.703-1.688 2.793 0 4.485.645 5.372 1.66.476.543.628 1.062.628 1.34 0 .552.448 1 1 1s1-.448 1-1z"/></g><g fill="#FFF"><path d="M672 12c0-2.762 2.235-5 5-5h38c2.76 0 5 2.23 5 5v24c0 2.76-2.235 5-5 5h-38c-2.76 0-5-2.232-5-5V12zm2 0v24c0 1.66 1.34 3 3 3h38c1.66 0 3-1.342 3-3V12c0-1.66-1.34-3-3-3h-38c-1.66 0-3 1.34-3 3z"/><path d="M680 34.003c0-.554.444-1.003 1-1.003.552 0 1 .438 1 1.003v4.994c0 .554-.444 1.003-1 1.003-.552 0-1-.438-1-1.003v-4.994zm6-4.007c0-.55.444-.996 1-.996.552 0 1 .445 1 .996v9.01c0 .55-.444.995-1 .995-.552 0-1-.44-1-.99V30zm6-3.988c0-.556.444-1.007 1-1.007.552 0 1 .45 1 1.01V39c0 .556-.444 1.007-1 1.007-.552 0-1-.45-1-1.006V26.01zm6-4.013c0-.55.444-.995 1-.995.552 0 1 .45 1 .995v17.01c0 .55-.444.995-1 .995-.552 0-1-.45-1-.995v-17.01zm6-3.992c0-.554.444-1.003 1-1.003.552 0 1 .44 1 1.003v20.994c0 .554-.444 1.003-1 1.003-.552 0-1-.44-1-1.003V18.003zm6-4.01c0-.548.444-.993 1-.993.552 0 1 .446 1 .993v25.014c0 .548-.444.993-1 .993-.552 0-1-.446-1-.993V13.993z"/></g><g fill="#FFF"><path d="M753 39c-8.27 0-15-6.73-15-15s6.73-15 15-15c8.272 0 15 6.73 15 15 0 8.272-6.73 15-15 15zm0-28c-7.168 0-13 5.832-13 13s5.832 13 13 13 13-5.832 13-13-5.832-13-13-13z"/><path d="M753.005 24.464l-7.6-3.377c-.504-.224-1.095.003-1.32.508-.223.505.004 1.096.51 1.32l9 4c.66.294 1.405-.19 1.405-.914v-8c0-.55-.448-1-1-1s-1 .45-1 1l.005 6.47zM723 18c0-.552.45-1 1.007-1h11.986c.556 0 1.007.444 1.007 1 0 .552-.45 1-1.007 1h-11.986c-.556 0-1.007-.444-1.007-1zm-3 6c0-.552.45-1 1.007-1h11.986c.556 0 1.007.444 1.007 1 0 .552-.45 1-1.007 1h-11.986c-.556 0-1.007-.444-1.007-1zm3 6c0-.552.45-1 1.007-1h11.986c.556 0 1.007.444 1.007 1 0 .552-.45 1-1.007 1h-11.986c-.556 0-1.007-.444-1.007-1z"/></g><g fill="#FFF"><path d="M774.846 44.023c-3.775 0-6.846-3.14-6.846-7.002v-20c0-3.86 3.07-7 6.846-7h14.23c1.12 0 2.124-.63 2.625-1.66l1.75-3.58c.84-1.7 2.51-2.76 4.38-2.76h10.81c1.87 0 3.54 1.06 4.38 2.77l.97 1.99c1.29 2.63 1.97 5.56 1.97 8.5v21.75c0 3.86-3.07 7.01-6.84 7.01h-34.26zm0-32.01c-2.695 0-4.89 2.246-4.89 5.002V37.02c0 2.758 2.195 5.002 4.89 5.002h34.25c2.696 0 4.89-2.245 4.89-5V15.264c0-2.627-.607-5.256-1.754-7.604l-.972-1.988c-.5-1.024-1.508-1.66-2.625-1.66h-10.81c-1.12 0-2.125.636-2.626 1.658l-1.76 3.58c-.84 1.705-2.51 2.764-4.38 2.764h-14.23z"/><path d="M785.414 35.467h13.17c2.98 0 5.416-2.453 5.416-5.47 0-2.834-2.158-5.198-4.928-5.448-.94-.09-1.693-.82-1.806-1.76-.15-1.24-.704-2.37-1.593-3.25-1.02-1.01-2.356-1.56-3.78-1.56-1.425 0-2.76.55-3.78 1.55-.894.88-1.45 2.02-1.595 3.26-.108.92-.832 1.64-1.75 1.75-1.22.14-2.345.7-3.218 1.6-1 1.03-1.55 2.38-1.55 3.83 0 3.01 2.434 5.47 5.415 5.47zm0 2c-4.09 0-7.414-3.35-7.414-7.47 0-1.964.75-3.82 2.115-5.224 1.195-1.23 2.742-1.994 4.417-2.193.198-1.687.956-3.247 2.177-4.45 1.39-1.375 3.23-2.13 5.18-2.13 1.95 0 3.79.755 5.18 2.13 1.21 1.197 1.97 2.748 2.17 4.426 3.77.34 6.75 3.548 6.75 7.44 0 4.12-3.33 7.47-7.42 7.47H785.4zm28.573-25.454h-27.384c-.54 0-.978-.448-.978-1s.438-1 .978-1h27.384c.54 0 .978.448.978 1s-.438 1-.978 1"/></g><path d="M879.532 26h16.934c4.14 0 7.533-3.466 7.533-7.743 0-4.018-3.01-7.36-6.86-7.713-.94-.086-1.7-.818-1.81-1.755-.21-1.76-.99-3.36-2.23-4.6-1.41-1.42-3.27-2.19-5.25-2.19s-3.83.77-5.25 2.19c-1.25 1.24-2.02 2.86-2.23 4.62-.11.92-.83 1.64-1.75 1.75-1.7.2-3.26.99-4.48 2.26-1.4 1.45-2.16 3.38-2.16 5.43 0 4.28 3.39 7.74 7.53 7.74zm0 2c-5.257 0-9.532-4.37-9.532-9.744 0-2.562.965-4.982 2.72-6.814 1.535-1.603 3.525-2.6 5.678-2.86.254-2.2 1.23-4.235 2.8-5.804C882.988.985 885.355 0 887.862 0c2.506 0 4.874.985 6.666 2.778 1.562 1.563 2.534 3.586 2.795 5.775 4.856.445 8.676 4.627 8.676 9.705 0 5.372-4.28 9.742-9.53 9.742h-16.94zm-2.702 11c-.413 1.165-1.524 2-2.83 2-1.657 0-3-1.343-3-3s1.343-3 3-3c1.306 0 2.417.835 2.83 2h2.67c1.378 0 2.5-1.12 2.5-2.5V31c0-.552.448-1 1-1s1 .448 1 1v3.5c0 2.484-2.017 4.5-4.5 4.5h-2.67zM874 39c.552 0 1-.448 1-1s-.448-1-1-1-1 .448-1 1 .448 1 1 1zm25.17-2c.413-1.165 1.524-2 2.83-2 1.657 0 3 1.343 3 3s-1.343 3-3 3c-1.306 0-2.417-.835-2.83-2h-2.67c-2.483 0-4.5-2.016-4.5-4.5V31c0-.552.448-1 1-1s1 .448 1 1v3.5c0 1.38 1.122 2.5 2.5 2.5h2.67zm2.83 2c.552 0 1-.448 1-1s-.448-1-1-1-1 .448-1 1 .448 1 1 1zm-13.013 3.166C890.16 42.574 891 43.69 891 45c0 1.657-1.343 3-3 3s-3-1.343-3-3c0-1.31.84-2.426 2.014-2.834l-.014-.164V31c0-.552.444-1 1-1 .552 0 1 .447 1 1v11l-.013.165zM888 46c.552 0 1-.448 1-1s-.448-1-1-1-1 .448-1 1 .448 1 1 1z" fill="#FFF"/><g fill="#FFF"><path d="M844.997 10.645c-1.6-.426-3.28-.645-4.997-.645-1.48 0-2.933.163-4.33.48-.54.123-.877.66-.754 1.198.122.538.658.875 1.196.753 1.253-.28 2.558-.43 3.888-.43 1.543 0 3.05.2 4.482.58.534.14 1.082-.17 1.224-.71.142-.53-.175-1.08-.71-1.22z"/><path d="M816 27.002c0 1.652 1.347 2.998 2.992 2.998h3.408l-.9-.566C824.56 35.8 831.826 40 840 40c11.01 0 20-7.57 20-17s-8.99-17-20-17c-1.586 0-3.148.157-4.665.464.198-.04.287-.014.322.006-.08-.046-.208-.137-.39-.282.106.084-1.07-.89-1.49-1.204-2.713-2.035-5.357-2.602-8.29-.84-.734.438-.614 1.535.197 1.805 1.16.38 2.18 1.18 2.8 2.08.246.35.394.69.43.91.002.01.046-.13.24-.24-4.927 2.7-8.26 7.13-8.998 12.14l.99-.86h-2.14c-1.662 0-3.006 1.33-3.006 2.99V27zm2 0v-4.004c0-.555.446-.998 1.005-.998h2.14c.496 0 .917-.364.99-.854.643-4.365 3.58-8.266 7.98-10.682 2.314-1.27-.453-5.298-3.8-6.413l.2 1.81c2.106-1.26 3.93-.87 6.06.73.376.28 1.52 1.23 1.445 1.17.73.59 1.108.8 1.713.68C837.118 8.15 838.548 8 840 8c9.976 0 18 6.757 18 15s-8.024 15-18 15c-7.432 0-13.982-3.788-16.7-9.434-.165-.346-.516-.566-.9-.566h-3.408c-.54 0-.992-.45-.992-.998z"/><path d="M829 22c1.105 0 2-.895 2-2s-.895-2-2-2-2 .895-2 2 .895 2 2 2zm1 15.998c0-.55.444-.998 1-.998.552 0 1 .446 1 .998v7.004c0 .55-.444.998-1 .998-.552 0-1-.446-1-.998v-7.004zm18 0c0-.55.444-.998 1-.998.552 0 1 .446 1 .998v7.004c0 .55-.444.998-1 .998-.552 0-1-.446-1-.998v-7.004zm10.684-14.048c.08.026.2.058.353.087.82.16 1.724.093 2.594-.37 1.11-.59 1.92-1.724 2.34-3.424.14-.536-.19-1.08-.72-1.213-.53-.134-1.08.192-1.21.727-.29 1.18-.76 1.838-1.34 2.145-.41.218-.86.25-1.27.172-.06-.012-.1-.022-.1-.023-.52-.17-1.09.11-1.26.64-.17.53.11 1.09.64 1.27z"/><path d="M826.844 46.537l28-44c.296-.466.16-1.084-.307-1.38-.466-.297-1.084-.16-1.38.306l-28 44c-.297.466-.16 1.084.306 1.38.466.297 1.084.16 1.38-.306z"/></g><path d="M652 23c0-1.86-1.277-3.412-3-3.858v2.136c.596.346 1 .984 1 1.723 0 .74-.404 1.38-1 1.73v2.14c1.723-.44 3-2 3-3.86zm-3.594 21.085l-17.475-7.767-2.84-25.627 20.23-6.74c.53-.17.81-.74.63-1.26-.17-.52-.74-.8-1.26-.63l-21 7c-.44.15-.73.59-.67 1.06l3 27c.04.36.26.66.59.81l18 8c.51.23 1.1 0 1.32-.51.23-.5 0-1.09-.51-1.32zM647 8.79l-10.915 24.808c-.222.506.007 1.096.513 1.317.506.222 1.096-.007 1.318-.513L641.173 27H647v-2h-4.947L647 13.756V8.79zM672 23c0-3.458-3.865-6.357-9.8-8.13 1.314-5.657.8-10.092-1.952-11.68-2.78-1.606-6.874.14-11.248 4.296v3.606c.53.63 1.06 1.282 1.578 1.963-.52-.022-1.05-.025-1.578-.034v2c1.053.02 2.092.06 3.102.13.91 1.32 1.8 2.69 2.633 4.14.82 1.43 1.558 2.84 2.22 4.23-.66 1.39-1.394 2.8-2.21 4.22-.612 1.06-1.254 2.08-1.908 3.07-1.238.11-2.525.16-3.835.19v2c.8-.01 1.604-.02 2.383-.06-.776 1.07-1.577 2.07-2.383 3.02v3.61c4.375 4.157 8.463 5.896 11.24 4.29 2.9-1.676 3.313-6.52 1.72-12.62C668.028 29.43 672 26.5 672 23zM650.062 9.238c3.905-3.806 7.373-5.362 9.186-4.316 1.84 1.062 2.13 4.66 1.016 9.428-2.156-.52-4.53-.9-7.048-1.122-1.025-1.43-2.08-2.764-3.154-3.99zm6.405 9.044c-.57-.99-1.162-1.95-1.77-2.883 1.798.22 3.49.52 5.056.89-.45 1.53-1.04 3.16-1.742 4.84-.48-.95-.99-1.9-1.54-2.86zm.008 10.443c.55-.95 1.053-1.896 1.534-2.838.56 1.34 1.04 2.64 1.44 3.89-1.28.294-2.64.542-4.07.735.36-.59.74-1.176 1.09-1.787zm2.763 13.36c-1.81 1.043-5.27-.51-9.184-4.32 1.338-1.525 2.645-3.227 3.896-5.06 2.15-.22 4.187-.56 6.063-.998 1.383 5.236 1.186 9.245-.775 10.377zM661.4 29.27c-.584-1.845-1.336-3.777-2.24-5.757 1.06-2.32 1.912-4.575 2.53-6.697 5.068 1.51 8.31 3.792 8.31 6.184 0 2.438-3.365 4.76-8.6 6.27z" fill="#FFF"/><path d="M935.025 28l-22-10v16l22 10zm24-10l-24 10v16l24-10zm-17 1c0 1.656-2.688 3-6 3-3.314 0-6-1.344-6-3s2.686-3 6-3c3.312 0 6 1.344 6 3zm0-11c0 1.656-2.688 3-6 3-3.314 0-6-1.344-6-3s2.686-3 6-3c3.312 0 6 1.344 6 3zm14 6c0 1.656-2.688 3-6 3-3.314 0-6-1.344-6-3s2.686-3 6-3c3.312 0 6 1.344 6 3zm-27 0c0 1.656-2.688 3-6 3-3.314 0-6-1.344-6-3s2.686-3 6-3c3.312 0 6 1.344 6 3zm-10.85 1.762L913.025 18M931.5 9.97l-4.31 1.873m18.224.237l-4.868-2.113M959.026 18l-4.6-2m43.6 8c0-7.732-6.27-14-14-14s-14 6.268-14 14 6.267 14 14 14 14-6.268 14-14zm-14 18v4m13-9l3 3m2-16h4m-9-13l3-3m-16-2V2m-13 9l-3-3m-2 16h-4m9 13l-3 3m56.102 5.68c0 .12 5.872-14.68 5.872-14.68-1 0-5-3-5-7s3.5-7 7-7 7 3 7 7-4 7-5 7l5.513 14.8C1049.088 42.65 1055 36.256 1055 24s-10.745-23-23-23-23 10.745-23 23c0 9.497 5.74 18.42 15.128 21.68zM1095 32c1.658 0 3 1.344 3 3 0 1.66-1.342 3-3 3h-2c1.658 0 3 1.344 3 3 0 1.66-1.342 3-3 3h-13c-8 0-6-4-22-4V22h6c7 0 15-6.442 15-16 0-3.162 6-3.562 6 2.438 0 4-2 11.562-2 11.562h16c1.658 0 3 1.344 3 3 0 1.66-1.342 3-3 3h-2c1.658 0 3 1.344 3 3 0 1.66-1.342 3-3 3h-2" stroke="#FFF" stroke-width="2" stroke-linecap="round" stroke-linejoin="round"/></g></svg>