<svg xmlns="http://www.w3.org/2000/svg" width="480" height="48" viewBox="0 0 480 48">
  <g fill="none" fill-rule="evenodd" stroke="#32363F" stroke-width="2" stroke-linecap="round" stroke-linejoin="round">
    <g transform="translate(8 1)">
      <path d="M32.0254,44 C32.0254,45.102 31.1274,46 30.0254,46 L2.0254,46 C0.9254,46 0.0254,45.102 0.0254,44 L0.0254,2 C0.0254,0.902 0.9254,0 2.0254,0 L30.0254,0 C31.1274,0 32.0254,0.902 32.0254,2 L32.0254,44 L32.0254,44 Z"/>
      <polygon points="28.026 14 4.026 14 4.026 4 28.026 4"/>
      <path d="M24 8L24 10M6.0254 22L8.0254 22M12.0254 22L14.0254 22M18.0254 22L20.0254 22M24.0254 22L26.0254 22M6.0254 28L8.0254 28M12.0254 28L14.0254 28M18.0254 28L20.0254 28M24.0254 28L26.0254 28M6.0254 34L8.0254 34M12.0254 34L14.0254 34M18.0254 34L20.0254 34M24.0254 34L26.0254 34M6.0254 40L8.0254 40M12.0254 40L14.0254 40M18.0254 40L26.0254 40"/>
    </g>
    <g transform="translate(49 1)">
      <path d="M46.0254,23 C46.0254,35.704 35.7294,46 23.0254,46 C10.3234,46 0.0254,35.704 0.0254,23 C0.0254,10.3 10.3234,0 23.0254,0 C35.7294,0 46.0254,10.3 46.0254,23 L46.0254,23 Z"/>
      <path d="M28.0254 34C20.8454 34 15.0254 32 15.0254 23 15.0254 14 20.8454 12 28.0254 12M12.0254 26L23.0254 26M12.0254 22L25.0254 22"/>
    </g>
    <g transform="translate(104 1)">
      <polygon points="34 40 6 40 6 0 22 0 34 12"/>
      <polyline points="22 0 22 12 34 12"/>
      <polyline points="28 40 28 46 0 46 0 6 6 6"/>
    </g>
    <g transform="translate(145 1)">
      <polyline points="0 27 12 27 15 23 19 28.996 24 18.996 28 33 31 27 46 27"/>
      <path d="M41.5098 22.996C43.0298 19.788 43.9998 16.45 43.9998 13.148 43.9998-2.238 25.3678-3.422 22.9998 11.964 20.6338-3.422 1.9998-2.238 1.9998 14.33 1.9998 17.33 2.6958 20.24 3.8218 22.996M8.461 30.996C14.633 39.246 23.001 44.788 23.001 44.788 23.001 44.788 30.513 38.966 36.553 30.996"/>
    </g>
    <g transform="translate(193 1)">
      <polyline points="46.025 10 46.025 46 10.025 46"/>
      <polyline points="42.025 4 42.025 42 4.025 42"/>
      <polygon points="38.026 38 .026 38 .026 0 38.026 0"/>
      <polyline points="33.025 30 27.025 14 19.025 26 14.025 20 8.025 30"/>
      <path d="M14.0254 9C14.0254 10.656 12.6834 12 11.0254 12 9.3694 12 8.0254 10.656 8.0254 9 8.0254 7.344 9.3694 6 11.0254 6 12.6834 6 14.0254 7.344 14.0254 9L14.0254 9zM38.0254 30L.0254 30"/>
    </g>
    <g transform="translate(248 1)">
      <path d="M18 29C18 29.55 17.552 30 17 30 16.448 30 16 29.55 16 29 16 28.446 16.448 28 17 28 17.552 28 18 28.446 18 29L18 29zM17 30L17 36"/>
      <polygon points="34 18 0 18 0 46 34 46"/>
      <path d="M6,11 C6,4.924 10.924,0 17,0 C23.074,0 28,4.924 28,11 L28,18"/>
    </g>
    <g transform="translate(289 4)">
      <path d="M0 14L0 20C0 21.65.35 23 2 23L2 32 8 32 8 23C9.648 23 9.998 21.648 10 20L10 14 0 14 0 14zM36 14L36 20C36 21.65 36.35 23 38 23L38 32 44 32 44 23C45.648 23 45.998 21.648 46 20L46 14 36 14 36 14zM16 14L30 14 30 24C30 26.2 28.2 28 26 28L26 40 20 40 20 28C17.798 28 16 26.2 16 24L16 14 16 14zM8 7C8 8.656 6.656 10 5 10 3.344 10 2 8.656 2 7 2 5.344 3.344 4 5 4 6.656 4 8 5.344 8 7L8 7zM44 7C44 8.656 42.656 10 41 10 39.344 10 38 8.656 38 7 38 5.344 39.344 4 41 4 42.656 4 44 5.344 44 7L44 7zM28 5C28 7.762 25.762 10 23 10 20.238 10 18 7.762 18 5 18 2.238 20.238 0 23 0 25.762 0 28 2.238 28 5L28 5z"/>
    </g>
    <g transform="translate(337 6)">
      <polyline points=".854 14.398 6.428 22.698 12.838 15.022"/>
      <polyline points="46 23 40.428 14.7 34.016 22.374"/>
      <path d="M40.3536 14.7734C42.0216 23.5894 35.8076 32.2314 27.3356 34.2314 21.4276 35.6294 15.5036 33.7514 11.4756 29.7814M6.4376 22.6484C3.8096 12.8824 10.3776 3.3004 19.5136 1.1424 25.8256-.3516 32.1456 1.8864 36.1616 6.4244"/>
    </g>
    <g transform="translate(387 3)">
      <polyline points="42 .5 17 31.5 7 21.5"/>
      <polyline points="36 19 36 42 0 42 0 6 25 6"/>
    </g>
    <g transform="translate(441 1)">
      <path d="M12 15C12 13.362 13.36 12 15 12 16.656 12 18 13.344 18 15L18 27 26.836 30C28.814 30.636 29.466 32.974 29 35L27 46 11 46 3 34C2.092 32.614 2 30 4 30 6 30 8 30.838 12 37L12 15 12 15zM30 14L24 14M26 4L22 8M16 0L16 6M4 4L8 8M0 14L6 14"/>
    </g>
  </g>
</svg>
