<?xml version="1.0" encoding="utf-8"?>
<!-- Generator: Adobe Illustrator 16.0.4, SVG Export Plug-In . SVG Version: 6.00 Build 0)  -->
<!DOCTYPE svg PUBLIC "-//W3C//DTD SVG 1.1//EN" "http://www.w3.org/Graphics/SVG/1.1/DTD/svg11.dtd">
<svg version="1.1" id="Layer_1" xmlns:sketch="http://www.bohemiancoding.com/sketch/ns"
	 xmlns="http://www.w3.org/2000/svg" xmlns:xlink="http://www.w3.org/1999/xlink" x="0px" y="0px" width="130px" height="130px"
	 viewBox="0 0 130 130" enable-background="new 0 0 130 130" xml:space="preserve">
<title>stand-for-ungoogleyourlife</title>
<desc>Created with Sketch.</desc>
<g id="ICONS" sketch:type="MSPage">
	<g id="Artboard-3" transform="translate(-825.000000, -613.000000)" sketch:type="MSArtboardGroup">
		<g id="ungoogle" transform="translate(825.000000, 613.000000)" sketch:type="MSLayerGroup">
			<path id="Shape" sketch:type="MSShapeGroup" fill="#222222" d="M25,92H10.991C4.922,92,0,87.074,0,81.005v-32.01
				C0,42.925,4.926,38,10.991,38H33V8.999C33,4.031,37.028,0,41.994,0h46.012C92.974,0,97,4.029,97,8.999V38h22.01
				c6.068,0,10.99,4.925,10.99,10.995v32.01C130,87.074,125.074,92,119.01,92H105v27.004c0,6.074-4.922,10.996-10.998,10.996H35.998
				C29.927,130,25,125.071,25,119.004V92z"/>
			<g id="Rectangle-85-_x2B_-Shape" transform="translate(34.000000, 1.000000)" sketch:type="MSShapeGroup">
				<path id="Mask" fill="#FFFFFF" d="M61,39V11c0-5.523-4.477-10-10-10H11C5.477,1,1,5.477,1,11v28H61z"/>
				<path id="Shape_1_" fill="#222222" d="M0,38L0,38h62l-2,2V7.999C60,4.685,57.316,2,54.006,2H7.994C4.686,2,2,4.688,2,7.999V40
					L0,38z M0,40L0,40V7.999C0,3.585,3.579,0,7.994,0h46.012C58.422,0,62,3.581,62,7.999V40H0z"/>
				<path id="Shape_2_" fill="#3B82F8" d="M31.605,25.811v5.027h12.162c-0.594,7.049-6.459,10.055-11.994,10.055
					c-7.083,0-13.263-5.573-13.263-13.383c0-7.609,5.892-13.469,13.279-13.469c5.699,0,9.057,3.633,9.057,3.633l3.521-3.645
					c0,0-4.519-5.029-12.757-5.029C21.117,9,13,17.855,13,27.42c0,9.373,7.635,18.512,18.877,18.512
					C41.764,45.932,49,39.159,49,29.144c0-2.113-0.307-3.334-0.307-3.334L31.605,25.811z"/>
				<path id="Shape_3_" fill="#222222" d="M31.605,30.838h12.162c-0.594,7.049-6.459,10.055-11.994,10.055
					c-7.083,0-13.263-5.573-13.263-13.383c0-7.609,5.892-13.469,13.279-13.469c5.699,0,9.057,3.633,9.057,3.633l3.521-3.645
					c0,0-4.519-5.029-12.757-5.029C21.117,9,13,17.855,13,27.42c0,9.373,7.635,18.512,18.877,18.512
					C41.764,45.932,49,39.159,49,29.144c0-2.113-0.307-3.334-0.307-3.334l-17.088,0.001V30.838z M29.606,25.811v-2h2l17.088-0.001
					h1.56l0.38,1.513c0.057,0.224,0.129,0.592,0.195,1.095C50.937,27.216,51,28.128,51,29.144c0,11.022-8.029,18.788-19.123,18.788
					C20.075,47.932,11,38.467,11,27.42C11,16.474,20.283,7,31.609,7c3.978,0,7.483,1.045,10.475,2.786
					c1.814,1.057,3.074,2.133,3.77,2.907l1.245,1.386l-1.294,1.34l-3.52,3.645l-1.471,1.523l-1.437-1.555
					c-0.051-0.055-0.198-0.196-0.435-0.396c-0.421-0.355-0.922-0.715-1.498-1.052c-1.65-0.966-3.542-1.543-5.656-1.543
					c-6.319,0-11.279,5.001-11.279,11.469c0,6.468,5.042,11.383,11.263,11.383c4.202,0,7.604-1.781,9.145-4.984
					c0.314-0.653,0.416-1.071,0.416-1.071c-1.614,0-9.729,0-9.729,0h-2v-2V25.811z"/>
			</g>
			<path id="Rectangle-84" sketch:type="MSShapeGroup" fill="#E9E9EB" d="M12,40h106c5.523,0,10,4.477,10,10v30
				c0,5.523-4.477,10-10,10H12C6.477,90,2,85.523,2,80V50C2,44.477,6.477,40,12,40z"/>
			<path id="Rectangle-74" sketch:type="MSShapeGroup" fill="#D3D3D8" d="M2,47.006C2,43.689,4.693,41,8,41h6c0,0-6,2-6,8v31
				c0,8,6,9,6,9H8c-3.313,0-6-2.684-6-6.006V47.006z"/>
			<path id="Rectangle-74_1_" sketch:type="MSShapeGroup" fill="#F4F3F5" d="M128,47.006c0-3.317-2.693-6.006-6-6.006h-6
				c0,0,6,2,6,8v31c0,8-6,9-6,9h6c3.313,0,6-2.684,6-6.006V47.006z"/>
			<path id="Shape_4_" sketch:type="MSShapeGroup" fill="#222222" d="M3,48.995L3,48.995v32.01C3,85.418,6.579,89,10.991,89H119.01
				c4.408,0,7.99-3.582,7.99-7.995v-32.01c0-4.414-3.579-7.995-7.99-7.995H10.991C6.583,41,3,44.582,3,48.995L3,48.995z M1,48.995
				C1,43.475,5.48,39,10.991,39H119.01c5.518,0,9.99,4.479,9.99,9.995v32.01c0,5.521-4.48,9.995-9.99,9.995H10.991
				C5.473,91,1,86.521,1,81.005V48.995L1,48.995z"/>
			<path id="Path-82" sketch:type="MSShapeGroup" fill="#D3D3D8" d="M26,69v20H13l7-20H26z"/>
			<path id="Rectangle-86" sketch:type="MSShapeGroup" fill="#222222" d="M20,71h90v2H20V71z M2,55h126v2H2V55z M20,67h90v2H20V67z
				 M30,53V41h2v10h66V41h2v12H30z M119,49c1.104,0,2-0.896,2-2s-0.896-2-2-2s-2,0.896-2,2S117.896,49,119,49z M119,51
				c-2.209,0-4-1.791-4-4s1.791-4,4-4s4,1.791,4,4S121.209,51,119,51z M109,49c1.104,0,2-0.896,2-2s-0.896-2-2-2s-2,0.896-2,2
				S107.896,49,109,49z M109,51L109,51c-2.209,0-4-1.791-4-4s1.791-4,4-4s4,1.791,4,4S111.209,51,109,51L109,51z"/>
			<path id="Rectangle-85_1_" sketch:type="MSShapeGroup" fill="#3B82F8" d="M103,68v50c0,5.523-4.477,10-10,10H37
				c-5.523,0-10-4.477-10-10V68H103z"/>
			<path id="Shape_5_" sketch:type="MSShapeGroup" fill="#222222" d="M26,67h78v52.004c0,5.521-4.474,9.996-9.998,9.996H35.998
				c-5.521,0-9.998-4.484-9.998-9.996V67L26,67z M28,69v50.004c0,4.41,3.584,7.996,7.998,7.996h58.004
				c4.419,0,7.998-3.579,7.998-7.996V69H28z"/>
			<g id="cozy-logo" transform="translate(38.000000, 75.000000)" sketch:type="MSShapeGroup">
				<path id="cozy-black-white" fill="#FFFFFF" d="M14.828,43C6.65,43,0,36.287,0,28.037c0-3.936,1.501-7.652,4.229-10.465
					c2.39-2.461,5.485-3.993,8.833-4.392c0.396-3.38,1.913-6.503,4.354-8.914C20.203,1.513,23.886,0,27.785,0
					c3.898,0,7.582,1.513,10.369,4.266c2.432,2.4,3.943,5.508,4.35,8.869C50.059,13.817,56,20.24,56,28.037
					C56,36.287,49.346,43,41.171,43H14.828z"/>
				<path id="cozy-black-white_1_" fill="#222222" d="M14.828,43C6.65,43,0,36.287,0,28.037c0-3.936,1.501-7.652,4.229-10.465
					c2.39-2.461,5.485-3.993,8.833-4.392c0.396-3.38,1.913-6.503,4.354-8.914C20.203,1.513,23.886,0,27.785,0
					c3.898,0,7.582,1.513,10.369,4.266c2.432,2.4,3.943,5.508,4.35,8.869C50.059,13.817,56,20.24,56,28.037
					C56,36.287,49.346,43,41.171,43H14.828z M41.223,40.194h0.113c6.542,0,11.864-5.4,11.864-12.038s-5.322-12.038-11.864-12.038
					h-0.119c-0.854,0-1.555-0.69-1.573-1.56c-0.147-6.482-5.467-11.754-11.86-11.754c-6.392,0-11.714,5.273-11.86,11.757
					c-0.02,0.853-0.697,1.54-1.538,1.56C7.997,16.271,2.8,21.669,2.8,28.156c0,6.639,5.322,12.039,11.864,12.039h0.097l0.037-0.002
					c0.034,0,0.068,0,0.102,0.002h26.319L41.223,40.194z"/>
				<g id="Path-69-_x2B_-Path-70-_x2B_-Path-70" transform="translate(16.000000, 24.000000)">
					<path id="Shape_6_" fill="#222222" d="M18.926,4.375c-0.418,0.314-0.943,0.66-1.572,1.003C15.496,6.392,13.365,7,11,7
						C8.634,7,6.504,6.392,4.646,5.378C4.017,5.035,3.492,4.689,3.074,4.375C2.479,4.762,1.774,5,1,5C0.448,5,0,4.553,0,4
						s0.448-1,1-1c1.092,0,2-1.135,2-2c0-0.553,0.448-1,1-1s1,0.447,1,1c0,0.639-0.194,1.303-0.541,1.903
						c0.339,0.245,0.722,0.487,1.145,0.719C7.183,4.483,8.991,5,11,5c2.01,0,3.816-0.517,5.396-1.378
						c0.423-0.231,0.805-0.474,1.145-0.719C17.194,2.303,17,1.639,17,1c0-0.553,0.447-1,1-1s1,0.447,1,1c0,0.865,0.908,2,2,2
						c0.553,0,1,0.447,1,1s-0.447,1-1,1C20.227,5,19.521,4.762,18.926,4.375z"/>
				</g>
			</g>
		</g>
	</g>
</g>
</svg>
