<?xml version="1.0" encoding="UTF-8" standalone="no"?>
<svg width="128px" height="133px" viewBox="0 0 128 133" version="1.1" xmlns="http://www.w3.org/2000/svg" xmlns:xlink="http://www.w3.org/1999/xlink" xmlns:sketch="http://www.bohemiancoding.com/sketch/ns">
    <!-- Generator: Sketch 3.4.2 (15857) - http://www.bohemiancoding.com/sketch -->
    <title>quantify</title>
    <desc>Created with Sketch.</desc>
    <defs>
        <filter x="-50%" y="-50%" width="200%" height="200%" filterUnits="objectBoundingBox" id="filter-1">
            <feOffset dx="5" dy="0" in="SourceAlpha" result="shadowOffsetInner1"></feOffset>
            <feGaussianBlur stdDeviation="0" in="shadowOffsetInner1" result="shadowBlurInner1"></feGaussianBlur>
            <feComposite in="shadowBlurInner1" in2="SourceAlpha" operator="arithmetic" k2="-1" k3="1" result="shadowInnerInner1"></feComposite>
            <feColorMatrix values="0 0 0 0 0.111862282   0 0 0 0 0.692655187   0 0 0 0 0.39858283  0 0 0 0.7 0" in="shadowInnerInner1" type="matrix" result="shadowMatrixInner1"></feColorMatrix>
            <feMerge>
                <feMergeNode in="SourceGraphic"></feMergeNode>
                <feMergeNode in="shadowMatrixInner1"></feMergeNode>
            </feMerge>
        </filter>
    </defs>
    <g id="Page-1" stroke="none" stroke-width="1" fill="none" fill-rule="evenodd" sketch:type="MSPage">
        <g id="Artboard-1" sketch:type="MSArtboardGroup" transform="translate(-486.000000, -610.000000)">
            <g id="icons" sketch:type="MSLayerGroup" transform="translate(316.000000, 355.000000)">
                <g id="quantify" transform="translate(170.000000, 255.000000)">
                    <g id="light"></g>
                    <g id="bulb" sketch:type="MSShapeGroup">
                        <path d="M126.292893,57.7071068 C126.683418,58.0976311 127.316582,58.0976311 127.707107,57.7071068 C128.097631,57.3165825 128.097631,56.6834175 127.707107,56.2928932 C127.316582,55.9023689 126.683418,55.9023689 126.292893,56.2928932 C125.902369,56.6834175 125.902369,57.3165825 126.292893,57.7071068 Z M123,56 L112,56 C111.447715,56 111,56.4477153 111,57 C111,57.5522847 111.447715,58 112,58 L123,58 C123.552285,58 124,57.5522847 124,57 C124,56.4477153 123.552285,56 123,56 Z M8,56 L5,56 C4.44771525,56 4,56.4477153 4,57 C4,57.5522847 4.44771525,58 5,58 L8,58 C8.55228475,58 9,57.5522847 9,57 C9,56.4477153 8.55228475,56 8,56 Z M2,56 L1,56 C0.44771525,56 0,56.4477153 0,57 C0,57.5522847 0.44771525,58 1,58 L2,58 C2.55228475,58 3,57.5522847 3,57 C3,56.4477153 2.55228475,56 2,56 Z M108,56 L105,56 C104.447715,56 104,56.4477153 104,57 C104,57.5522847 104.447715,58 105,58 L108,58 C108.552285,58 109,57.5522847 109,57 C109,56.4477153 108.552285,56 108,56 Z M21,56 L11,56 C10.4477153,56 10,56.4477153 10,57 C10,57.5522847 10.4477153,58 11,58 L21,58 C21.5522847,58 22,57.5522847 22,57 C22,56.4477153 21.5522847,56 21,56 Z M65,2 L65,1 C65,0.44771525 64.5522847,0 64,0 C63.4477153,0 63,0.44771525 63,1 L63,2 C63,2.55228475 63.4477153,3 64,3 C64.5522847,3 65,2.55228475 65,2 Z M63,5 L63,14 C63,14.5522847 63.4477153,15 64,15 C64.5522847,15 65,14.5522847 65,14 L65,5 C65,4.44771525 64.5522847,4 64,4 C63.4477153,4 63,4.44771525 63,5 Z M12.2928932,107.292893 C12.2837637,107.302023 12.2837637,107.302023 12.2746333,107.311153 C11.5383282,108.047458 11.5383282,108.047458 11.2928932,108.292893 C10.9023689,108.683418 10.9023689,109.316582 11.2928932,109.707107 C11.6834175,110.097631 12.3165825,110.097631 12.7071068,109.707107 C12.9525418,109.461672 12.9525418,109.461672 13.6888469,108.725367 C13.6979773,108.716236 13.6979773,108.716236 13.7071068,108.707107 C14.0976311,108.316582 14.0976311,107.683418 13.7071068,107.292893 C13.3165825,106.902369 12.6834175,106.902369 12.2928932,107.292893 Z M23.8318947,95.7538918 C19.5243263,100.06146 19.5243263,100.06146 16.7259991,102.859787 L14.2928932,105.292893 C13.9023689,105.683418 13.9023689,106.316582 14.2928932,106.707107 C14.6834175,107.097631 15.3165825,107.097631 15.7071068,106.707107 C16.1206837,106.29353 16.1206837,106.29353 18.1402126,104.274001 C20.9385399,101.475674 20.9385399,101.475674 25.2461082,97.1681053 C25.6366325,96.777581 25.6366325,96.144416 25.2461082,95.7538918 C24.855584,95.3633675 24.222419,95.3633675 23.8318947,95.7538918 Z M25.7848976,93.8008888 C25.6980192,93.8877672 25.6980192,93.8877672 25.617234,93.9685524 C25.2267097,94.3590767 25.2267097,94.9922417 25.617234,95.382766 C26.0077583,95.7732903 26.6409233,95.7732903 27.0314476,95.382766 C27.1122328,95.3019808 27.1122328,95.3019808 27.1991112,95.2151024 C27.5896355,94.8245781 27.5896355,94.1914131 27.1991112,93.8008888 C26.8085869,93.4103645 26.1754219,93.4103645 25.7848976,93.8008888 Z M32.0660866,87.5196999 C30.1237423,89.4620441 30.1237423,89.4620441 27.8638771,91.7219093 C27.4733528,92.1124336 27.4733528,92.7455986 27.8638771,93.1361229 C28.2544014,93.5266472 28.8875664,93.5266472 29.2780907,93.1361229 C31.5379559,90.8762577 31.5379559,90.8762577 33.4803001,88.9339134 C33.8708244,88.5433891 33.8708244,87.9102242 33.4803001,87.5196999 C33.0897758,87.1291756 32.4566109,87.1291756 32.0660866,87.5196999 Z M111.292893,8.29289322 L96.3329323,23.2528542 C95.942408,23.6433784 95.942408,24.2765434 96.3329323,24.6670677 C96.7234566,25.057592 97.3566216,25.057592 97.7471458,24.6670677 L112.707107,9.70710678 C113.097631,9.31658249 113.097631,8.68341751 112.707107,8.29289322 C112.316582,7.90236893 111.683418,7.90236893 111.292893,8.29289322 Z M115.292893,4.29289322 L114.772813,4.81297379 C114.382288,5.20349808 114.382288,5.83666306 114.772813,6.22718735 C115.163337,6.61771164 115.796502,6.61771164 116.187026,6.22718735 L116.707107,5.70710678 C117.097631,5.31658249 117.097631,4.68341751 116.707107,4.29289322 C116.316582,3.90236893 115.683418,3.90236893 115.292893,4.29289322 Z M101.846604,96.2608177 L115.292893,109.707107 C115.683418,110.097631 116.316582,110.097631 116.707107,109.707107 C117.097631,109.316582 117.097631,108.683418 116.707107,108.292893 L103.260818,94.8466042 C102.870293,94.4560799 102.237128,94.4560799 101.846604,94.8466042 C101.45608,95.2371284 101.45608,95.8702934 101.846604,96.2608177 Z M94.5465553,88.9607689 C96.6290599,91.0432734 96.6290599,91.0432734 98.5710915,92.985305 C98.9616158,93.3758293 99.5947807,93.3758293 99.985305,92.985305 C100.375829,92.5947807 100.375829,91.9616158 99.985305,91.5710915 C98.0432734,89.6290599 98.0432734,89.6290599 95.9607689,87.5465553 C95.5702446,87.156031 94.9370796,87.156031 94.5465553,87.5465553 C94.156031,87.9370796 94.156031,88.5702446 94.5465553,88.9607689 Z M18.1240089,12.5382225 C21.5638011,15.9780147 21.5638011,15.9780147 25.3235645,19.7377781 L34.969651,29.3838646 C35.3601753,29.7743889 35.9933403,29.7743889 36.3838646,29.3838646 C36.7743889,28.9933403 36.7743889,28.3601753 36.3838646,27.969651 C31.9992798,23.5850663 31.9992798,23.5850663 26.7377781,18.3235645 C22.9780147,14.5638011 22.9780147,14.5638011 19.5382225,11.1240089 C19.1476982,10.7334846 18.5145332,10.7334846 18.1240089,11.1240089 C17.7334846,11.5145332 17.7334846,12.1476982 18.1240089,12.5382225 Z M14.8779152,9.29212875 C15.649565,10.0637785 15.649565,10.0637785 16.4954689,10.9096825 C16.8859932,11.3002068 17.5191582,11.3002068 17.9096825,10.9096825 C18.3002068,10.5191582 18.3002068,9.88599319 17.9096825,9.4954689 L16.2921288,7.87791519 C15.9016045,7.4873909 15.2684395,7.4873909 14.8779152,7.87791519 C14.4873909,8.26843948 14.4873909,8.90160446 14.8779152,9.29212875 Z M11.2928932,5.70710678 L11.5866554,6.00086899 C11.9771797,6.39139328 12.6103447,6.39139328 13.000869,6.00086899 C13.3913933,5.6103447 13.3913933,4.97717972 13.000869,4.58665543 L12.7071068,4.29289322 C12.3165825,3.90236893 11.6834175,3.90236893 11.2928932,4.29289322 C10.9023689,4.68341751 10.9023689,5.31658249 11.2928932,5.70710678 Z" id="Path" fill="#FFFFFF"></path>
                        <path d="M44.096592,92.8534027 C48.5,95.5 49,99 49,101 L49,125 C49,125 56,132 64,132 C72,132 79,125 79,125 L79,101 C79,99 79.5,95.5 83.4428691,93.1057541 C95.9384578,85.5180023 105,72.6081611 105,57 C105,34.3563253 86.6436747,16 64,16 C41.3563253,16 23,34.3563253 23,57 C23,72.4207633 31.7359931,85.4242644 44.096592,92.8534027 Z" id="Oval-9" stroke="#05486B" stroke-width="2" fill="#FFFFFF"></path>
                        <path d="M50,104 L78,104 L78,125 C78,125 68.6666667,131 64,131 C59.3333333,131 50,125 50,125 L50,104 Z" id="Rectangle-103" fill="#40DE8E" filter="url(#filter-1)"></path>
                        <path d="M44.096592,92.8534027 C48.5,95.5 49,99 49,101 L49,125 C49,125 56,132 64,132 C72,132 79,125 79,125 L79,101 C79,99 79.5,95.5 83.4428691,93.1057541 C95.9384578,85.5180023 105,72.6081611 105,57 C105,34.3563253 86.6436747,16 64,16 C41.3563253,16 23,34.3563253 23,57 C23,72.4207633 31.7359931,85.4242644 44.096592,92.8534027 Z" id="Oval-9" stroke="#05486B" stroke-width="2"></path>
                        <path d="M96.9944611,51.6689217 C97.3299534,53.5807583 97.5,55.5293406 97.5,57.5 C97.5,58.0522847 97.9477153,58.5 98.5,58.5 C99.0522847,58.5 99.5,58.0522847 99.5,57.5 C99.5,55.4133318 99.3198601,53.3490896 98.9643607,51.3232403 C98.8689034,50.7792676 98.350543,50.4156739 97.8065702,50.5111312 C97.2625974,50.6065885 96.8990038,51.1249489 96.9944611,51.6689217 L96.9944611,51.6689217 Z M70.0739689,103 L58.9231949,103 L54.9968153,53.9202548 L53.0031847,54.0797452 L56.9168051,103 L50,103 L50,105 L70.6656132,105 L49.8397053,108.010286 L50.1258222,109.989714 L77.7988202,105.989714 L77.6557617,105 L79,105 L79,103 L72.0798773,103 L74.9970545,65.0766965 L73.0029455,64.9233035 L70.0739689,103 Z M63.8911617,123 L79,123 L79,125 L50,125 L50,124.119245 L49.8397053,123.010286 L77.5127032,119.010286 L77.7988202,120.989714 L63.8911617,123 Z M90.4673682,36.9522994 C84.273915,28.9861447 74.6196448,24 64,24 C63.4477153,24 63,23.5522847 63,23 C63,22.4477153 63.4477153,22 64,22 C75.0711425,22 85.1518739,27.1136177 91.7249204,35.3174815 L93.207376,33.3902892 L94.792624,34.6097108 L92.9741782,36.9736903 C95.0762516,39.9370144 96.7423384,43.2513697 97.8694951,46.8340106 C98.0352431,47.360837 97.7425313,47.9222795 97.215705,48.0880276 C96.6888786,48.2537757 96.1274361,47.9610639 95.961688,47.4342375 C94.9619288,44.2565262 93.5127404,41.3024342 91.6948297,38.6368433 L74.792624,60.6097108 L74.269649,61.2895782 L73.5180813,60.8762159 L53.5180813,49.8762159 L54.6476484,49.7619393 L34.6476484,66.7619393 L33.3523516,65.2380607 L53.3523516,48.2380607 L53.8777362,47.7914837 L54.4819187,48.1237841 L74.4819187,59.1237841 L73.207376,59.3902892 L90.4673682,36.9522994 Z M56,128 L73,128 L69,130 L59,130 L56,128 Z M77.5127032,109.010286 L49.8397053,113.010286 L50.1258222,114.989714 L77.7988202,110.989714 L77.5127032,109.010286 Z M77.5127032,114.010286 L49.8397053,118.010286 L50.1258222,119.989714 L77.7988202,115.989714 L77.5127032,114.010286 Z" id="Shape" fill="#05486B"></path>
                        <path d="M54,55 C57.3137085,55 60,52.3137085 60,49 C60,45.6862915 57.3137085,43 54,43 C50.6862915,43 48,45.6862915 48,49 C48,52.3137085 50.6862915,55 54,55 Z M94,40 C97.3137085,40 100,37.3137085 100,34 C100,30.6862915 97.3137085,28 94,28 C90.6862915,28 88,30.6862915 88,34 C88,37.3137085 90.6862915,40 94,40 Z" id="Oval-11" stroke="#05486B" stroke-width="2" fill="#96EC20"></path>
                        <path d="M34,72 C37.3137085,72 40,69.3137085 40,66 C40,62.6862915 37.3137085,60 34,60 C30.6862915,60 28,62.6862915 28,66 C28,69.3137085 30.6862915,72 34,72 Z M74,66 C77.3137085,66 80,63.3137085 80,60 C80,56.6862915 77.3137085,54 74,54 C70.6862915,54 68,56.6862915 68,60 C68,63.3137085 70.6862915,66 74,66 Z" id="Oval-11-Copy-3" stroke="#05486B" stroke-width="2" fill="#40DE8E"></path>
                    </g>
                </g>
            </g>
        </g>
    </g>
</svg>