<?xml version="1.0" encoding="UTF-8" standalone="no"?>
<svg width="130px" height="130px" viewBox="0 0 130 130" version="1.1" xmlns="http://www.w3.org/2000/svg" xmlns:xlink="http://www.w3.org/1999/xlink" xmlns:sketch="http://www.bohemiancoding.com/sketch/ns">
    <!-- Generator: Sketch 3.4.2 (15855) - http://www.bohemiancoding.com/sketch -->
    <title>stand-for-tinkerers</title>
    <desc>Created with Sketch.</desc>
    <defs></defs>
    <g id="ICONS" stroke="none" stroke-width="1" fill="none" fill-rule="evenodd" sketch:type="MSPage">
        <g id="Artboard-3" sketch:type="MSArtboardGroup" transform="translate(-315.000000, -360.000000)">
            <g id="student" sketch:type="MSLayerGroup" transform="translate(315.000000, 372.000000)">
                <path d="M124.000001,7.19535872 C127.561764,9.01334945 130,12.7171462 130,16.9928722 L130,91.0071278 C130,97.0757743 125.0743,102 119.00937,102 L10.9906302,102 C4.91950628,102 0,97.0805406 0,91.0071278 L0,16.9928722 C0,12.7215918 2.44005976,9.01722665 5.9999989,7.19763347 L6,3.00681124 C6,1.34584994 7.34193322,0 9.00295852,0 L12.4135734,0 C16.0594349,1.11022302e-16 16.0594349,1.11022302e-16 21.04611,1.11022302e-16 L34.6388258,2.22044605e-16 L50.9925678,2.22044605e-16 L56.8737169,1.11022302e-16 L60,0 C62.105238,0 63.7077455,0.934675806 64.8181274,2.45587557 C65.4683464,3.34666187 64.5316536,3.34666187 65.1818726,2.45587557 C66.2922545,0.934675806 67.894762,0 70,0 L120.997041,0 C122.655499,0 124,1.34788839 124,3.00681124 L124,7.19535375 Z" id="Shape" fill="#05486B" sketch:type="MSShapeGroup"></path>
                <rect id="Rectangle-1" fill="#FFAE5F" sketch:type="MSShapeGroup" x="2" y="8" width="126" height="92" rx="10"></rect>
                <path d="M2,93 L2,17 C2,17 3.100625,13.1991667 4,12 C5.100625,10.5325 8,9 8,9 L8,95 L3,95 C3,95 2,93.4082031 2,93 Z" id="Rectangle-82" fill="#EB8C2F" sketch:type="MSShapeGroup"></path>
                <path d="M3,16.9928722 L3,16.9928722 L3,91.0071278 C3,95.4236799 6.57635413,99 10.9906302,99 L119.00937,99 C123.417647,99 127,95.4187189 127,91.0071278 L127,16.9928722 C127,12.5763201 123.423646,9 119.00937,9 L10.9906302,9 C6.5823533,9 3,12.5812811 3,16.9928722 L3,16.9928722 Z M1,16.9928722 C1,11.4739613 5.48053479,7 10.9906302,7 L119.00937,7 C124.527043,7 129,11.4705777 129,16.9928722 L129,91.0071278 C129,96.5260387 124.519465,101 119.00937,101 L10.9906302,101 C5.47295749,101 1,96.5294223 1,91.0071278 L1,16.9928722 L1,16.9928722 Z" id="Shape" fill="#05486B" sketch:type="MSShapeGroup"></path>
                <path d="M8,5.00869923 C8,3.34704053 9.33710142,2 10.9968566,2 C10.9968566,2 55.9722222,2 60,2 C64.0277778,2 65,6.09090909 65,6.09090909 C65,6.09090909 65.9722222,2 70,2 L119.003143,2 C120.658262,2 122,3.33600474 122,5.00869923 L122,90.9913008 C122,92.6529595 120.662344,94 118.998518,94 L70,94 C70,94 69.0277778,89 65,89 C60.9722222,89 60,94 60,94 L11.0014819,94 C9.34380922,94 8,92.6639953 8,90.9913008 L8,5.00869923 Z" id="Rectangle-2" fill="#FFFFFF" sketch:type="MSShapeGroup"></path>
                <path d="M72,78 L72,1 L71,1 C69.9106682,1 67,3 67,3 L65,7 L65,78 L8,78 L8,94 L59,94 C59,94 61,89 65,89 C65.0000136,89.0000021 67.8846527,89.4503646 69,91 C70.0413528,92.4468293 71,95 71,95 L72,95 L72,94 L122,94 L122,78 L72,78 Z" id="Rectangle-79" fill="#E9E9EB" sketch:type="MSShapeGroup"></path>
                <path d="M65,5.09090909 C65,5.09090909 66,3 66.2041423,2.76937213 C66.9678981,1.84649749 68.1678188,1 70,1 L123,1 L123,92.9931888 C123,94.10152 122.102324,95 121.00309,95 L70,95 C70,95 69.0277778,90 65,90 C60.9722222,90 60,95 60,95 L8.99690951,95 C7.89404684,95 7,94.0997928 7,92.9931888 L7,1 C7,1 55.9722222,1 60,1 C61.8321812,1 63.0321019,1.84649749 63.7958577,2.76937213 C64,3 65,5.09090909 65,5.09090909 Z M9,1 L9,92.9931888 C9,92.9982928 58.0367699,93 58.4995788,93.0522242 C58.6952529,92.5509247 58.9492586,92.0157538 59.2724968,91.4745178 C60.535421,89.359854 62.4429939,88 65,88 C67.5570061,88 69.464579,89.359854 70.7275032,91.4745178 C71.4261589,92.6443598 71.4135742,93 71.4135742,93 L121.00309,93 C120.997352,93 121,1 121,1 L123,3 L70,3 C68.9240177,3 68.1837201,3.43178475 67.6050048,4.2246125 C67.2257553,4.74417626 67.0111666,5.27831265 66.9458056,5.55333819 L65,13.7408837 L63.0541944,5.55333819 C62.9888334,5.27831265 62.7742447,4.74417626 62.3949952,4.2246125 C61.8162799,3.43178475 61.0759823,3 60,3 L56.7852478,3 L50.6755844,3 L33.6314057,3 L19.845679,3 L10.6462191,3 L7,3 L9,1 Z" id="Shape" fill="#05486B" sketch:type="MSShapeGroup"></path>
                <path d="M64,79 L64,82.1748505 C63.1212104,81.4366672 62.1216599,81 61,81 C60.1789065,81 60.1789065,81 58.083799,81 C55.4426855,81 55.4426855,81 51.8915621,81 C43.6973033,81 43.6973033,81 34.0470285,81 C25.5812105,81 25.5812105,81 18.0983934,81 C13.4574789,81 13.4574789,81 10.1089852,81 C7.5738953,81 7.5738953,81 6.99999993,81 L6.99999993,83 C7.5738953,83 7.5738953,83 10.1089852,83 C13.4574789,83 13.4574789,83 18.0983934,83 C25.5812105,83 25.5812105,83 34.0470285,83 C43.6973033,83 43.6973033,83 51.8915621,83 C55.4426855,83 55.4426855,83 58.083799,83 C60.1789065,83 60.1789065,83 61,83 C61.7679428,83 62.5127193,83.4255866 63.2003458,84.1757246 C63.4590718,84.4579711 63.6886152,84.7640291 63.8838662,85.0696393 C63.9287241,85.1398516 63.967497,85.2030816 64,85.2578839 L64,89 L66,89 L66,85.2578836 C66.032503,85.2030814 66.0712759,85.1398515 66.1161337,85.0696393 C66.3113847,84.7640291 66.5409281,84.4579711 66.7996541,84.1757246 C67.4872806,83.4255866 68.2320571,83 68.9999999,83 C69.8210934,83 69.8210934,83 71.9162009,83 C74.5573143,83 74.5573143,83 78.1084378,83 C86.3026966,83 86.3026966,83 95.9529714,83 C104.418789,83 104.418789,83 111.901606,83 C116.542521,83 116.542521,83 119.891015,83 C122.426105,83 122.426105,83 123,83 L123,81 C122.426105,81 122.426105,81 119.891015,81 C116.542521,81 116.542521,81 111.901606,81 C104.418789,81 104.418789,81 95.9529714,81 C86.3026966,81 86.3026966,81 78.1084378,81 C74.5573143,81 74.5573143,81 71.9162009,81 C69.8210934,81 69.8210934,81 68.9999999,81 C67.87834,81 66.8787896,81.4366672 66,82.1748504 L66,79 L122,79 L122,77 L66,77 L66,9 L64,9 L64,77 L6.99999993,77 L6.99999993,79 L64,79 Z M6.99999993,91 C7.53489269,91 7.53489269,91 9.89659656,91 C13.015326,91 13.015326,91 17.3353469,91 C24.2355395,91 24.2355395,91 32.0321413,91 C41.0280667,91 41.0280667,91 48.6470118,91 C51.9401167,91 51.9401167,91 54.3726089,91 C56.2887334,91 56.2887334,91 57,91 C57.4773451,91 57.8386592,91.2580814 58.1425075,91.7644956 C58.3548147,92.118341 58.4774393,92.4862155 58.5194192,92.6961156 L60.4805808,92.3038844 C60.397561,91.8887845 60.2076862,91.319159 59.8574936,90.7355044 C59.2238424,89.6794186 58.2726562,89 57,89 C56.2887334,89 56.2887334,89 54.3726089,89 C51.9401167,89 51.9401167,89 48.6470118,89 C41.0280667,89 41.0280667,89 32.0321413,89 C24.2355395,89 24.2355395,89 17.3353469,89 C13.015326,89 13.015326,89 9.89659656,89 C7.53489269,89 7.53489269,89 6.99999993,89 L6.99999993,91 Z M6.99999993,87 C7.5516081,87 7.5516081,87 9.98857096,87 C13.2076722,87 13.2076722,87 17.6699721,87 C24.8841237,87 24.8841237,87 33.0489946,87 C42.3240154,87 42.3240154,87 50.2054015,87 C53.6234815,87 53.6234815,87 56.1705398,87 C58.1949851,87 58.1949851,87 59,87 C59.7679428,87 60.5127193,87.4255866 61.2003458,88.1757246 C61.4590718,88.4579711 61.6886152,88.7640291 61.8838662,89.0696393 C61.9986256,89.2492627 62.0735597,89.3831875 62.1055727,89.4472136 L63.8944271,88.5527864 C63.6688622,88.1016566 63.2623955,87.4654479 62.6746541,86.8242754 C61.6435306,85.6994134 60.4195572,85 59,85 C58.1949851,85 58.1949851,85 56.1705398,85 C53.6234815,85 53.6234815,85 50.2054015,85 C42.3240154,85 42.3240154,85 33.0489946,85 C24.8841237,85 24.8841237,85 17.6699721,85 C13.2076722,85 13.2076722,85 9.98857096,85 C7.5516081,85 7.5516081,85 6.99999993,85 L6.99999993,87 Z M122.5,89 C121.965107,89 121.965107,89 119.603403,89 C116.484674,89 116.484674,89 112.164653,89 C105.26446,89 105.26446,89 97.4678587,89 C88.4719332,89 88.4719332,89 80.8529881,89 C77.5598832,89 77.5598832,89 75.1273911,89 C73.2112666,89 73.2112666,89 72.4999999,89 C71.2273437,89 70.2761575,89.6794186 69.6425063,90.7355044 C69.2923138,91.319159 69.1024389,91.8887845 69.0194191,92.3038844 L70.9805807,92.6961156 C71.0225606,92.4862155 71.1451853,92.118341 71.3574924,91.7644956 C71.6613407,91.2580814 72.0226548,91 72.4999999,91 C73.2112666,91 73.2112666,91 75.1273911,91 C77.5598832,91 77.5598832,91 80.8529881,91 C88.4719332,91 88.4719332,91 97.4678587,91 C105.26446,91 105.26446,91 112.164653,91 C116.484674,91 116.484674,91 119.603403,91 C121.965107,91 121.965107,91 122.5,91 L122.5,89 Z M123,85 C122.448392,85 122.448392,85 120.011429,85 C116.792328,85 116.792328,85 112.330028,85 C105.115876,85 105.115876,85 96.9510053,85 C87.6759845,85 87.6759845,85 79.7945984,85 C76.3765183,85 76.3765183,85 73.82946,85 C71.8050148,85 71.8050148,85 70.9999999,85 C69.5804427,85 68.3564692,85.6994134 67.3253458,86.8242754 C66.7376043,87.4654479 66.3311376,88.1016566 66.1055727,88.5527864 L67.8944271,89.4472136 C67.9264402,89.3831875 68.0013743,89.2492627 68.1161337,89.0696393 C68.3113847,88.7640291 68.5409281,88.4579711 68.7996541,88.1757246 C69.4872806,87.4255866 70.2320571,87 70.9999999,87 C71.8050148,87 71.8050148,87 73.82946,87 C76.3765183,87 76.3765183,87 79.7945984,87 C87.6759845,87 87.6759845,87 96.9510053,87 C105.115876,87 105.115876,87 112.330028,87 C116.792328,87 116.792328,87 120.011429,87 C122.448392,87 122.448392,87 123,87 L123,85 Z M43,18 C43,17.4477153 43.4499488,17 44.0068455,17 L55.9931545,17 C56.5492199,17 57,17.4438648 57,18 C57,18.5522847 56.5500512,19 55.9931545,19 L44.0068455,19 C43.4507801,19 43,18.5561352 43,18 Z M43,22 C43,21.4477153 43.4547089,21 43.9999602,21 L59.0000398,21 C59.5523026,21 60,21.4438648 60,22 C60,22.5522847 59.5452911,23 59.0000398,23 L43.9999602,23 C43.4476974,23 43,22.5561352 43,22 Z M43,26 C43,25.4477153 43.4547089,25 43.9999602,25 L59.0000398,25 C59.5523026,25 60,25.4438648 60,26 C60,26.5522847 59.5452911,27 59.0000398,27 L43.9999602,27 C43.4476974,27 43,26.5561352 43,26 Z M43,30 C43,29.4477153 43.4530363,29 43.9970301,29 L50.0029699,29 C50.5536144,29 51,29.4438648 51,30 C51,30.5522847 50.5469637,31 50.0029699,31 L43.9970301,31 C43.4463856,31 43,30.5561352 43,30 Z M15,50 C15,49.4477153 15.4530363,49 15.9970301,49 L22.0029699,49 C22.5536144,49 23,49.4438648 23,50 C23,50.5522847 22.5469637,51 22.0029699,51 L15.9970301,51 C15.4463856,51 15,50.5561352 15,50 Z M15,54 C15,53.4477153 15.4547089,53 15.9999602,53 L31.0000398,53 C31.5523026,53 32,53.4438648 32,54 C32,54.5522847 31.5452911,55 31.0000398,55 L15.9999602,55 C15.4476974,55 15,54.5561352 15,54 Z M15,58 C15,57.4477153 15.4547089,57 15.9999602,57 L31.0000398,57 C31.5523026,57 32,57.4438648 32,58 C32,58.5522847 31.5452911,59 31.0000398,59 L15.9999602,59 C15.4476974,59 15,58.5561352 15,58 Z M15,62 C15,61.4477153 15.4489202,61 16.007484,61 L28.992516,61 C29.5489341,61 30,61.4438648 30,62 C30,62.5522847 29.5510798,63 28.992516,63 L16.007484,63 C15.4510659,63 15,62.5561352 15,62 Z M73,60 C73,59.4477153 73.4449463,59 73.9933977,59 L90.0066023,59 C90.5552407,59 91,59.4438648 91,60 C91,60.5522847 90.5550537,61 90.0066023,61 L73.9933977,61 C73.4447593,61 73,60.5561352 73,60 Z M77,64 C77,63.4477153 77.4499488,63 78.0068455,63 L89.9931545,63 C90.5492199,63 91,63.4438648 91,64 C91,64.5522847 90.5500512,65 89.9931545,65 L78.0068455,65 C77.4507801,65 77,64.5561352 77,64 Z M37.2928932,55.2928932 L36.5857864,56 L37.2928932,56.7071068 L41.2928932,60.7071068 L42.7071068,59.2928932 L39.4077293,56.0064842 L42.7071068,52.7071068 L41.2928932,51.2928932 L37.2928932,55.2928932 Z M54.5822914,56.003495 L51.2928932,59.2928932 L52.7071068,60.7071068 L56.7071068,56.7071068 L57.4142136,56 L56.7071068,55.2928932 L52.7071068,51.2928932 L51.2928932,52.7071068 L54.5822914,56.003495 Z M48.0384761,48.7252789 L44.0384761,62.7252789 L45.9615239,63.2747211 L49.9615239,49.2747211 L48.0384761,48.7252789 Z M89,18 L106,18 L105,17 L105,59.0119031 L107,59.0119031 L107,17 L107,16 L106,16 L89,16 L89,18 Z M88,40 L102,40 L102,38 L88,38 L88,40 Z" id="Rectangle-21" fill="#05486B" sketch:type="MSShapeGroup"></path>
                <path d="M97,17 C97,13.6862915 99.6947819,11 102.993739,11 L109.006261,11 C112.316511,11 115,13.6930342 115,17 C115,20.3137085 112.305218,23 109.006261,23 L102.993739,23 C99.6834885,23 97,20.3069658 97,17 Z M71,39 C71,35.6862915 73.6765363,33 77.0006595,33 L84.9993405,33 C88.3134132,33 91,35.6930342 91,39 C91,42.3137085 88.3234637,45 84.9993405,45 L77.0006595,45 C73.6865868,45 71,42.3069658 71,39 Z" id="Rectangle-53" fill="#FFAE5F" sketch:type="MSShapeGroup"></path>
                <path d="M99,39 C99,35.1340068 102.141873,32 106,32 C109.865993,32 113,35.1418733 113,39 C113,42.8659932 109.858127,46 106,46 C102.134007,46 99,42.8581267 99,39 Z M99,56.0068455 C99,55.4507801 99.4499488,55 100.006845,55 L111.993155,55 C112.54922,55 113,55.4499488 113,56.0068455 L113,67.9931545 C113,68.5492199 112.550051,69 111.993155,69 L100.006845,69 C99.4507801,69 99,68.5500512 99,67.9931545 L99,56.0068455 Z M72,12.0024733 C72,11.4488226 72.4449463,11 72.9933977,11 L89.0066023,11 C89.5552407,11 90,11.455761 90,12.0024733 L90,21.9975267 C90,22.5511774 89.5550537,23 89.0066023,23 L72.9933977,23 C72.4447593,23 72,22.544239 72,21.9975267 L72,12.0024733 Z M15,14.0024617 C15,13.4488174 15.4512787,13 16.0032996,13 L39.9967004,13 C40.5508075,13 41,13.4394583 41,14.0024617 L41,33.9975383 C41,34.5511826 40.5487213,35 39.9967004,35 L16.0032996,35 C15.4491925,35 15,34.5605417 15,33.9975383 L15,14.0024617 Z" id="Rectangle-67-Copy-2" fill="#FFC644" sketch:type="MSShapeGroup"></path>
                <path d="M99,17 L99,17 C99,19.205539 100.791198,21 102.993739,21 L109.006261,21 C111.204664,21 113,19.2051247 113,17 C113,14.794461 111.208802,13 109.006261,13 L102.993739,13 C100.795336,13 99,14.7948753 99,17 L99,17 Z M97,17 C97,13.6862915 99.6947819,11 102.993739,11 L109.006261,11 C112.316511,11 115,13.6930342 115,17 C115,20.3137085 112.305218,23 109.006261,23 L102.993739,23 C99.6834885,23 97,20.3069658 97,17 L97,17 Z M73,39 L73,39 C73,41.2050231 74.7937818,43 77.0006595,43 L84.9993405,43 C87.2149537,43 89,41.2130826 89,39 C89,36.7949769 87.2062182,35 84.9993405,35 L77.0006595,35 C74.7850463,35 73,36.7869174 73,39 L73,39 Z M71,39 C71,35.6862915 73.6765363,33 77.0006595,33 L84.9993405,33 C88.3134132,33 91,35.6930342 91,39 C91,42.3137085 88.3234637,45 84.9993405,45 L77.0006595,45 C73.6865868,45 71,42.3069658 71,39 L71,39 Z" id="Shape" fill="#05486B" sketch:type="MSShapeGroup"></path>
                <path d="M101,39 L101,39 C101,41.7566214 103.241639,44 106,44 C108.756621,44 111,41.7583614 111,39 C111,36.2433786 108.758361,34 106,34 C103.243379,34 101,36.2416386 101,39 L101,39 Z M99,39 C99,35.1340068 102.141873,32 106,32 C109.865993,32 113,35.1418733 113,39 C113,42.8659932 109.858127,46 106,46 C102.134007,46 99,42.8581267 99,39 L99,39 Z M101,56.0068455 L101,56.0068455 L101,67.9931545 C101,67.4449391 100.554807,67 100.006845,67 L111.993155,67 C111.444939,67 111,67.445193 111,67.9931545 L111,56.0068455 C111,56.5550609 111.445193,57 111.993155,57 L100.006845,57 C100.555061,57 101,56.554807 101,56.0068455 L101,56.0068455 Z M99,56.0068455 C99,55.4507801 99.4499488,55 100.006845,55 L111.993155,55 C112.54922,55 113,55.4499488 113,56.0068455 L113,67.9931545 C113,68.5492199 112.550051,69 111.993155,69 L100.006845,69 C99.4507801,69 99,68.5500512 99,67.9931545 L99,56.0068455 L99,56.0068455 Z M74,12.0024733 L74,12.0024733 L74,21.9975267 C74,21.4482249 73.5579463,21 72.9933977,21 L89.0066023,21 C88.4465155,21 88,21.4505363 88,21.9975267 L88,12.0024733 C88,12.5517751 88.4420537,13 89.0066023,13 L72.9933977,13 C73.5534845,13 74,12.5494637 74,12.0024733 L74,12.0024733 Z M72,12.0024733 C72,11.4488226 72.4449463,11 72.9933977,11 L89.0066023,11 C89.5552407,11 90,11.455761 90,12.0024733 L90,21.9975267 C90,22.5511774 89.5550537,23 89.0066023,23 L72.9933977,23 C72.4447593,23 72,22.544239 72,21.9975267 L72,12.0024733 L72,12.0024733 Z M17,14.0024617 L17,14.0024617 L17,33.9975383 C17,33.449456 16.5472486,33 16.0032996,33 L39.9967004,33 C39.4458877,33 39,33.4448763 39,33.9975383 L39,14.0024617 C39,14.550544 39.4527514,15 39.9967004,15 L16.0032996,15 C16.5541123,15 17,14.5551237 17,14.0024617 L17,14.0024617 Z M15,14.0024617 C15,13.4488174 15.4512787,13 16.0032996,13 L39.9967004,13 C40.5508075,13 41,13.4394583 41,14.0024617 L41,33.9975383 C41,34.5511826 40.5487213,35 39.9967004,35 L16.0032996,35 C15.4491925,35 15,34.5605417 15,33.9975383 L15,14.0024617 L15,14.0024617 Z" id="Shape" fill="#05486B" sketch:type="MSShapeGroup"></path>
                <path d="M23.5,18 C24.3284271,18 25,17.3284271 25,16.5 C25,15.6715729 24.3284271,15 23.5,15 C22.6715729,15 22,15.6715729 22,16.5 C22,17.3284271 22.6715729,18 23.5,18 Z M19.5,18 C20.3284271,18 21,17.3284271 21,16.5 C21,15.6715729 20.3284271,15 19.5,15 C18.6715729,15 18,15.6715729 18,16.5 C18,17.3284271 18.6715729,18 19.5,18 Z M31,27 L37,27 L37,29 L31,29 L31,27 Z M31,23 L37,23 L37,25 L31,25 L31,23 Z M17,18 L39,18 L39,20 L17,20 L17,18 Z M19,22 L29,22 L29,31 L19,31 L19,22 Z M21,24 L27,24 L27,29 L21,29 L21,24 Z" id="Oval-5-Copy" fill="#05486B" sketch:type="MSShapeGroup"></path>
            </g>
        </g>
    </g>
</svg>