<?xml version="1.0" encoding="UTF-8" standalone="no"?>
<svg width="130px" height="130px" viewBox="0 0 130 130" version="1.1" xmlns="http://www.w3.org/2000/svg" xmlns:xlink="http://www.w3.org/1999/xlink" xmlns:sketch="http://www.bohemiancoding.com/sketch/ns">
    <!-- Generator: Sketch 3.4.2 (15857) - http://www.bohemiancoding.com/sketch -->
    <title>ungoogle</title>
    <desc>Created with Sketch.</desc>
    <defs>
        <filter x="-50%" y="-50%" width="200%" height="200%" filterUnits="objectBoundingBox" id="filter-1">
            <feOffset dx="6" dy="0" in="SourceAlpha" result="shadowOffsetInner1"></feOffset>
            <feGaussianBlur stdDeviation="0" in="shadowOffsetInner1" result="shadowBlurInner1"></feGaussianBlur>
            <feComposite in="shadowBlurInner1" in2="SourceAlpha" operator="arithmetic" k2="-1" k3="1" result="shadowInnerInner1"></feComposite>
            <feColorMatrix values="0 0 0 0 0.82745098   0 0 0 0 0.82745098   0 0 0 0 0.847058824  0 0 0 0.7 0" in="shadowInnerInner1" type="matrix" result="shadowMatrixInner1"></feColorMatrix>
            <feOffset dx="-6" dy="0" in="SourceAlpha" result="shadowOffsetInner2"></feOffset>
            <feGaussianBlur stdDeviation="0" in="shadowOffsetInner2" result="shadowBlurInner2"></feGaussianBlur>
            <feComposite in="shadowBlurInner2" in2="SourceAlpha" operator="arithmetic" k2="-1" k3="1" result="shadowInnerInner2"></feComposite>
            <feColorMatrix values="0 0 0 0 1   0 0 0 0 1   0 0 0 0 1  0 0 0 0.35 0" in="shadowInnerInner2" type="matrix" result="shadowMatrixInner2"></feColorMatrix>
            <feMerge>
                <feMergeNode in="SourceGraphic"></feMergeNode>
                <feMergeNode in="shadowMatrixInner1"></feMergeNode>
                <feMergeNode in="shadowMatrixInner2"></feMergeNode>
            </feMerge>
        </filter>
    </defs>
    <g id="Page-1" stroke="none" stroke-width="1" fill="none" fill-rule="evenodd" sketch:type="MSPage">
        <g id="Artboard-1" sketch:type="MSArtboardGroup" transform="translate(-825.000000, -613.000000)">
            <g id="icons" sketch:type="MSLayerGroup" transform="translate(316.000000, 355.000000)">
                <g id="ungoogle" transform="translate(510.000000, 259.000000)">
                    <path d="M25,90 L9.99063018,90 C4.47295749,90 0,85.5215031 0,80.0046567 L0,47.9953433 C0,42.4750676 4.48053479,38 9.99063018,38 L33,38 L33,7.99845994 C33,3.58493529 36.5791757,0 40.9943126,0 L87.0056874,0 C91.42131,0 95,3.58103249 95,7.99845994 L95,38 L118.00937,38 C123.527043,38 128,42.4784969 128,47.9953433 L128,80.0046567 C128,85.5249324 123.519465,90 118.00937,90 L103,90 L103,118.004196 C103,123.524726 98.5262292,128 93.0023133,128 L34.9976867,128 C29.4761168,128 25,123.516172 25,118.004196 L25,90 Z" id="Mask" stroke="#05486B" stroke-width="2" fill="#FFFFFF" sketch:type="MSShapeGroup"></path>
                    <g id="Rectangle-85-+-Shape" transform="translate(33.000000, 0.000000)" stroke="#05486B" stroke-width="2" sketch:type="MSShapeGroup">
                        <rect id="Mask" fill="#FFFFFF" transform="translate(31.000000, 20.000000) scale(1, -1) translate(-31.000000, -20.000000) " x="0" y="0" width="62" height="40" rx="10"></rect>
                        <path d="M31.6061315,25.8108494 L31.6061315,30.8377568 L43.7673557,30.8377568 C43.1739177,37.8868145 37.3090945,40.893039 31.7732744,40.893039 C24.6907587,40.893039 18.5102864,35.3203858 18.5102864,27.5097198 C18.5102864,19.9009754 24.4018172,14.0411417 31.7888294,14.0411417 C37.4881238,14.0411417 40.8463903,17.6742621 40.8463903,17.6742621 L44.3660766,14.0294021 C44.3660766,14.0294021 39.8483754,9 31.6087729,9 C21.1169234,8.99985325 13,17.8550523 13,27.4200585 C13,36.7925347 20.6351585,45.9315392 31.8762896,45.9315392 C41.7629615,45.9315392 49,39.1589496 49,29.1435821 C49,27.0307431 48.6933023,25.8095287 48.6933023,25.8095287 L31.6061315,25.8108494 Z" id="Shape" fill="#3B82F8"></path>
                    </g>
                    <rect id="Rectangle-84" stroke="#05486B" stroke-width="2" fill="#E9E9EB" filter="url(#filter-1)" sketch:type="MSShapeGroup" x="0" y="38" width="128" height="52" rx="10"></rect>
                    <path d="M25,68 L25,88 L12,88 L19,68 L25,68 Z" id="Path-82" fill="#D3D3D8" sketch:type="MSShapeGroup"></path>
                    <path d="M19,70 L109,70 L109,72 L19,72 L19,70 Z M1,54 L127,54 L127,56 L1,56 L1,54 Z M19,66 L109,66 L109,68 L19,68 L19,66 Z M29,51.9999998 L29,40 L31,40 L31,49.9999996 L97,50 L97,40 L99,40 L99,52 L29,51.9999998 Z M118,48 C119.104569,48 120,47.1045695 120,46 C120,44.8954305 119.104569,44 118,44 C116.895431,44 116,44.8954305 116,46 C116,47.1045695 116.895431,48 118,48 Z M118,50 C115.790861,50 114,48.209139 114,46 C114,43.790861 115.790861,42 118,42 C120.209139,42 122,43.790861 122,46 C122,48.209139 120.209139,50 118,50 Z M108,48 C109.104569,48 110,47.1045695 110,46 C110,44.8954305 109.104569,44 108,44 C106.895431,44 106,44.8954305 106,46 C106,47.1045695 106.895431,48 108,48 Z M108,50 L108,50 C105.790861,50 104,48.209139 104,46 C104,43.790861 105.790861,42 108,42 C110.209139,42 112,43.790861 112,46 C112,48.209139 110.209139,50 108,50 L108,50 Z" id="Rectangle-86" fill="#05486B" sketch:type="MSShapeGroup"></path>
                    <rect id="Rectangle-85" stroke="#05486B" stroke-width="2" fill="#FFFFFF" sketch:type="MSShapeGroup" x="25" y="66" width="78" height="62" rx="10"></rect>
                    <g id="cozy-logo" transform="translate(37.000000, 74.000000)">
                        <path d="M14.8281753,43 C6.65004901,43 0,36.2877774 0,28.0366549 C0,24.1019036 1.50119031,20.3850598 4.22909957,17.5725877 C6.61868086,15.1112512 9.71404565,13.5791256 13.0625963,13.1805697 C13.4580591,9.80131286 14.9749335,6.67722201 17.4160482,4.26669293 C20.2033329,1.5129316 23.8857303,0 27.7854642,0 C31.6840779,0 35.3675956,1.5129316 38.1548803,4.26556387 C40.5859123,6.66593147 42.0983056,9.77308652 42.503851,13.1342786 C50.0579751,13.8173559 56,20.240541 56,28.0377839 C56,36.2877774 49.3454698,43 41.1707044,43 L14.8281753,43 Z M41.2224148,40.1945026 L41.3358389,40.1945026 C47.8781411,40.1945026 53.2,34.7940984 53.2,28.1556706 C53.2,21.5183922 47.8781411,16.1179879 41.3358389,16.1179879 L41.2167436,16.1179879 C40.3626601,16.1179879 39.6628334,15.4282812 39.6435513,14.5592506 C39.4960999,8.07600676 34.1765095,2.80434783 27.7839271,2.80434783 C21.3913447,2.80434783 16.0694858,8.07830577 15.9231687,14.5615497 C15.9038866,15.414487 15.2267447,16.1018948 14.3851378,16.1214365 C7.99709238,16.270873 2.8,21.6689781 2.8,28.15682 C2.8,34.7952479 8.1218589,40.1956522 14.6641611,40.1956522 L14.7605716,40.1956522 L14.7980016,40.1933531 C14.8320288,40.1933531 14.866056,40.1933531 14.9000833,40.1956522 L41.219012,40.1956522 L41.2224148,40.1945026 Z" id="cozy-black-white" stroke="#05486B" stroke-width="2" fill="#1FA8F1" sketch:type="MSShapeGroup"></path>
                        <g id="Path-69-+-Path-70-+-Path-70" transform="translate(17.000000, 25.000000)" stroke="#05486B" stroke-width="2" sketch:type="MSShapeGroup">
                            <path d="M2,2 C2,2 5,5 10,5 C15,5 18,2 18,2" id="Path-69"></path>
                            <path d="M0,3 C2,3 3,1 3,0" id="Path-70" stroke-linecap="round"></path>
                            <path d="M17,3 C19,3 20,1 20,0" id="Path-70" stroke-linecap="round" transform="translate(18.500000, 1.500000) scale(-1, 1) translate(-18.500000, -1.500000) "></path>
                        </g>
                        <g id="Path-69-+-Path-70-+-Path-70" transform="translate(16.000000, 24.000000)"></g>
                    </g>
                </g>
            </g>
        </g>
    </g>
</svg>