<?xml version="1.0" encoding="utf-8"?>
<!-- Generator: Adobe Illustrator 16.0.4, SVG Export Plug-In . SVG Version: 6.00 Build 0)  -->
<!DOCTYPE svg PUBLIC "-//W3C//DTD SVG 1.1//EN" "http://www.w3.org/Graphics/SVG/1.1/DTD/svg11.dtd">
<svg version="1.1" id="Layer_1" xmlns:sketch="http://www.bohemiancoding.com/sketch/ns"
	 xmlns="http://www.w3.org/2000/svg" xmlns:xlink="http://www.w3.org/1999/xlink" x="0px" y="0px" width="130px" height="130px"
	 viewBox="0 0 130 130" enable-background="new 0 0 130 130" xml:space="preserve">
<title>stand-for-selfhosting</title>
<desc>Created with Sketch.</desc>
<path id="Shape" sketch:type="MSShapeGroup" fill="#222222" d="M111,63h6.001C124.184,63,130,68.816,130,76.004v23.992
	c0,7.18-5.823,13.004-12.999,13.004H12.999C5.817,113,0,107.184,0,99.996V76.004C0,68.824,5.823,63,12.999,63H19V52
	c-1.782-0.004-2.885-1.513-2.334-3.208l8.515-26.201c0.474-1.46,2.037-2.59,3.572-2.59h42.933l2.205-2.266
	c1.155-1.189,3.053-1.203,4.223-0.032l2.3,2.299h17.832c1.54,0,3.097,1.128,3.571,2.59l8.516,26.201
	c0.141,0.434,0.174,0.856,0.115,1.243l2.045,2.045c0.811,0.811,0.75,2.103-0.139,2.83l-0.944,0.774
	c-0.198,0.162-0.411,0.611-0.411,0.867v6.449L111,63z"/>
<path sketch:type="MSShapeGroup" fill="#FFFFFF" d="M13,64h104c6.627,0,12,5.373,12,12v24c0,6.627-5.373,12-12,12H13
	c-6.627,0-12-5.373-12-12V76C1,69.373,6.373,64,13,64z"/>
<g>
	<rect x="11" y="87" fill="#E9E9EB" width="109" height="24"/>
	<rect x="20.98" y="50" fill="#E9E9EB" width="32.02" height="31"/>
</g>
<g>
	<path fill="#CBCBD1" d="M2,79v22c0,0,1.766,4.629,3,6c1.766,1.962,6,4,6,4V87l-5-2L2,79z"/>
	<polygon fill="#CBCBD1" points="21,50 21,54 36,54 39,57 39,81 45,81 45,50 	"/>
</g>
<g>
	<polygon fill="#F03E3E" points="100.25,21 26.75,21 17,51 110,51 	"/>
	<rect x="29" y="57" fill="#F03E3E" width="8" height="16"/>
</g>
<path fill="#D92A2A" d="M45,50l28-28H51L40.929,50.071L45,50z"/>
<path fill="#FFFFFF" d="M76,18l35.5,35.5l-2.5,2.047V81H44.015l0.005-25.453L41.5,53.5L76,18z"/>
<g>
	<rect x="80" y="57" fill="#F03E3E" width="18" height="16"/>
	<ellipse fill="#F03E3E" cx="76.005" cy="40.08" rx="3.995" ry="3.752"/>
</g>
<g>
	<path fill="#222222" d="M128.313,72.03c-1.64-4.678-6.079-8.03-11.312-8.03H110v-8.453l2.5-2.047L110,51l-9.75-30H80l-4-4l-3.891,4
		H26.75L17,51h3v13h-7.001c-0.828,0-1.636,0.084-2.417,0.244C5.118,65.363,1,70.201,1,76c0,0.001,0,0.001,0,0.002s0,0.001,0,0.002
		v23.992C1,106.634,6.372,112,12.999,112h104.002c6.621,0,11.999-5.374,11.999-12.004V76.004c0-0.001,0-0.001,0-0.002
		s0-0.001,0-0.002C129,74.606,128.75,73.274,128.313,72.03z M98.809,23.001h0.002l8.129,24.938L82.008,23.008L98.809,23.001z
		 M75.959,19.872L75.959,19.872l33.678,33.388l-0.904,0.739l-0.732,0.6v25.4H73V76h-6V59.091c0,0,0-5.091-6-5.091s-6,5.091-6,5.091
		V76h-6v3.999h-3.985l0.005-24.453v-0.953l-0.739-0.6l-0.795-0.572L75.959,19.872z M67,78h4v1.999H51V78h4H67z M57,76V59.091
		c0-0.037,0.013-0.189,0.056-0.41c0.076-0.388,0.213-0.773,0.417-1.12C58.049,56.583,59.08,56,61,56s2.951,0.583,3.527,1.561
		c0.204,0.347,0.341,0.732,0.417,1.12C64.987,58.902,65,59.054,65,59.091V76H57z M19.75,49l8.444-25.97l41.958-0.018L44.877,49H20
		H19.75z M43.02,55.547L43.016,80H22V51h20.932L40.5,53.5L43.02,55.547z M127,99.996c0,5.523-4.48,10.004-9.999,10.004H12.999
		C7.474,110,3,105.525,3,99.996V82.629C5.149,85.865,8.823,88,12.999,88h104.002c4.173,0,7.849-2.137,9.999-5.374V99.996z
		 M117.001,86H12.999C7.477,86,3.001,81.524,3,76.002C3.001,70.479,7.481,66,12.999,66H20v16h23.015H49h4h20h37V66h7.001
		c4.043,0,7.517,2.403,9.092,5.855c0.039,0.085,0.085,0.166,0.122,0.253c0.005,0.013,0.009,0.026,0.014,0.039
		c0.496,1.187,0.771,2.487,0.771,3.854C126.999,81.522,122.519,86,117.001,86z"/>
	<rect x="58" y="67" fill="#222222" width="2" height="2"/>
	<path fill="#222222" d="M76,45c2.762,0,5-2.239,5-5s-2.238-5-5-5s-5,2.239-5,5S73.238,45,76,45z M76,37c1.657,0,3,1.343,3,3
		s-1.343,3-3,3s-3-1.343-3-3S74.343,37,76,37z"/>
	<path fill="#222222" d="M28,74h10V56H28V74z M30,58h6v14h-6V58z"/>
	<path fill="#222222" d="M79,74h20V56H79V74z M90,58h7v14h-7V58z M81,58h7v14h-7V58z"/>
	<path fill="#222222" d="M76,94c-2.209,0-4,1.791-4,4s1.791,4,4,4s4-1.791,4-4S78.209,94,76,94z M76,100c-1.105,0-2-0.895-2-2
		s0.895-2,2-2s2,0.895,2,2S77.105,100,76,100z"/>
	<path fill="#222222" d="M88,94c-2.209,0-4,1.791-4,4s1.791,4,4,4s4-1.791,4-4S90.209,94,88,94z M88,100c-1.105,0-2-0.895-2-2
		s0.895-2,2-2s2,0.895,2,2S89.105,100,88,100z"/>
	<path fill="#222222" d="M100,94c-2.209,0-4,1.791-4,4s1.791,4,4,4s4-1.791,4-4S102.209,94,100,94z M100,100c-1.105,0-2-0.895-2-2
		s0.895-2,2-2s2,0.895,2,2S101.105,100,100,100z"/>
	<path fill="#222222" d="M54.002,100H25.998c-0.551,0-0.998,0.443-0.998,0.991v4.018c0,0.54,0.447,0.991,0.998,0.991h28.004
		c0.551,0,0.998-0.443,0.998-0.991v-4.018C55,100.451,54.553,100,54.002,100z M53,104.009H27v-2.018h26V104.009z"/>
	<path fill="#222222" d="M54.002,92H25.998C25.447,92,25,92.443,25,92.991v4.018C25,97.549,25.447,98,25.998,98h28.004
		C54.553,98,55,97.557,55,97.009v-4.018C55,92.451,54.553,92,54.002,92z M53.002,96H26.998v-2h26.004V96z"/>
</g>
</svg>
