<?xml version="1.0" encoding="UTF-8" standalone="no"?>
<svg width="130px" height="102px" viewBox="0 0 130 102" version="1.1" xmlns="http://www.w3.org/2000/svg" xmlns:xlink="http://www.w3.org/1999/xlink" xmlns:sketch="http://www.bohemiancoding.com/sketch/ns">
    <!-- Generator: Sketch 3.4.2 (15857) - http://www.bohemiancoding.com/sketch -->
    <title>student</title>
    <desc>Created with Sketch.</desc>
    <defs></defs>
    <g id="Page-1" stroke="none" stroke-width="1" fill="none" fill-rule="evenodd" sketch:type="MSPage">
        <g id="Artboard-1" sketch:type="MSArtboardGroup" transform="translate(-315.000000, -372.000000)">
            <g id="icons" sketch:type="MSLayerGroup" transform="translate(316.000000, 355.000000)">
                <g id="student" transform="translate(0.000000, 18.000000)" sketch:type="MSShapeGroup">
                    <path d="M6,6.83044781 C2.47117301,8.37191391 0,11.8942298 0,15.9928722 L0,90.0071278 C0,95.5294223 4.47295749,100 9.99063018,100 L118.00937,100 C123.519465,100 128,95.5260387 128,90.0071278 L128,15.9928722 C128,11.8904675 125.531503,8.36847516 122,6.82854097 L122,2.00681124 C122,0.900207233 121.103245,0 119.997041,0 L69,0 C64.9722222,0 64,4.09090909 64,4.09090909 C64,4.09090909 63.0277778,0 59,0 C54.9722222,4.07660017e-16 8.00295852,1.58803245e-17 8.00295852,1.58803245e-17 C6.89387768,7.21436499e-18 6,0.898479994 6,2.00681124 L6,6.83044781 Z" id="Rectangle-1" stroke="#05486B" stroke-width="2" fill="#1FA8F1"></path>
                    <rect id="Rectangle-1" stroke="#05486B" stroke-width="2" fill="#FFAE5F" x="0" y="6" width="128" height="94" rx="10"></rect>
                    <path d="M1,92 L1,16 C1,16 2.100625,12.1991667 3,11 C4.100625,9.5325 7,8 7,8 L7,94 L2,94 C2,94 1,92.4082031 1,92 Z" id="Rectangle-82" fill="#EB8C2F"></path>
                    <rect id="Rectangle-1" stroke="#05486B" stroke-width="2" x="0" y="6" width="128" height="94" rx="10"></rect>
                    <path d="M6,0 C6,0 54.9722222,4.07660017e-16 59,0 C63.0277778,0 64,4.09090909 64,4.09090909 C64,4.09090909 64.9722222,0 69,0 L122,0 L122,94 L69,94 C69,94 68.0277778,89 64,89 C59.9722222,89 59,94 59,94 L6,94 L6,0 Z" id="Rectangle-2" stroke="#05486B" stroke-width="2" fill="#FFFFFF"></path>
                    <path d="M71,77 L71,0 L70,0 C68.9106682,0 66,2 66,2 L64,6 L64,77 L7,77 L7,93 L58,93 C58,93 60,88 64,88 C64.0000136,88.0000021 66.8846527,88.4503646 68,90 C69.0413528,91.4468293 70,94 70,94 L71,94 L71,93 L121,93 L121,77 L71,77 Z" id="Rectangle-79" fill="#E9E9EB"></path>
                    <path d="M6,0 C6,0 54.9722222,4.07660017e-16 59,0 C63.0277778,0 64,4.09090909 64,4.09090909 C64,4.09090909 64.9722222,0 69,0 L122,0 L122,91.9931888 C122,93.10152 121.102324,94 120.00309,94 L69,94 C69,94 68.0277778,89 64,89 C59.9722222,89 59,94 59,94 L7.99690951,94 C6.89404684,94 6,93.0997928 6,91.9931888 L6,0 Z" id="Rectangle-2" stroke="#05486B" stroke-width="2"></path>
                    <path d="M63,78 L63,81.1748505 C62.1212104,80.4366672 61.1216599,80 60,80 C59.1789065,80 59.1789065,80 57.083799,80 C54.4426855,80 54.4426855,80 50.8915621,80 C42.6973033,80 42.6973033,80 33.0470285,80 C24.5812105,80 24.5812105,80 17.0983934,80 C12.4574789,80 12.4574789,80 9.10898522,80 C6.5738953,80 6.5738953,80 5.99999993,80 L5.99999993,82 C6.5738953,82 6.5738953,82 9.10898522,82 C12.4574789,82 12.4574789,82 17.0983934,82 C24.5812105,82 24.5812105,82 33.0470285,82 C42.6973033,82 42.6973033,82 50.8915621,82 C54.4426855,82 54.4426855,82 57.083799,82 C59.1789065,82 59.1789065,82 60,82 C60.7679428,82 61.5127193,82.4255866 62.2003458,83.1757246 C62.4590718,83.4579711 62.6886152,83.7640291 62.8838662,84.0696393 C62.9287241,84.1398516 62.967497,84.2030816 63,84.2578839 L63,88 L65,88 L65,84.2578836 C65.032503,84.2030814 65.0712759,84.1398515 65.1161337,84.0696393 C65.3113847,83.7640291 65.5409281,83.4579711 65.7996541,83.1757246 C66.4872806,82.4255866 67.2320571,82 67.9999999,82 C68.8210934,82 68.8210934,82 70.9162009,82 C73.5573143,82 73.5573143,82 77.1084378,82 C85.3026966,82 85.3026966,82 94.9529714,82 C103.418789,82 103.418789,82 110.901606,82 C115.542521,82 115.542521,82 118.891015,82 C121.426105,82 121.426105,82 122,82 L122,80 C121.426105,80 121.426105,80 118.891015,80 C115.542521,80 115.542521,80 110.901606,80 C103.418789,80 103.418789,80 94.9529714,80 C85.3026966,80 85.3026966,80 77.1084378,80 C73.5573143,80 73.5573143,80 70.9162009,80 C68.8210934,80 68.8210934,80 67.9999999,80 C66.87834,80 65.8787896,80.4366672 65,81.1748504 L65,78 L121,78 L121,76 L65,76 L65,8 L63,8 L63,76 L5.99999993,76 L5.99999993,78 L63,78 Z M5.99999993,90 C6.53489269,90 6.53489269,90 8.89659656,90 C12.015326,90 12.015326,90 16.3353469,90 C23.2355395,90 23.2355395,90 31.0321413,90 C40.0280667,90 40.0280667,90 47.6470118,90 C50.9401167,90 50.9401167,90 53.3726089,90 C55.2887334,90 55.2887334,90 56,90 C56.4773451,90 56.8386592,90.2580814 57.1425075,90.7644956 C57.3548147,91.118341 57.4774393,91.4862155 57.5194192,91.6961156 L59.4805808,91.3038844 C59.397561,90.8887845 59.2076862,90.319159 58.8574936,89.7355044 C58.2238424,88.6794186 57.2726562,88 56,88 C55.2887334,88 55.2887334,88 53.3726089,88 C50.9401167,88 50.9401167,88 47.6470118,88 C40.0280667,88 40.0280667,88 31.0321413,88 C23.2355395,88 23.2355395,88 16.3353469,88 C12.015326,88 12.015326,88 8.89659656,88 C6.53489269,88 6.53489269,88 5.99999993,88 L5.99999993,90 Z M5.99999993,86 C6.5516081,86 6.5516081,86 8.98857096,86 C12.2076722,86 12.2076722,86 16.6699721,86 C23.8841237,86 23.8841237,86 32.0489946,86 C41.3240154,86 41.3240154,86 49.2054015,86 C52.6234815,86 52.6234815,86 55.1705398,86 C57.1949851,86 57.1949851,86 58,86 C58.7679428,86 59.5127193,86.4255866 60.2003458,87.1757246 C60.4590718,87.4579711 60.6886152,87.7640291 60.8838662,88.0696393 C60.9986256,88.2492627 61.0735597,88.3831875 61.1055727,88.4472136 L62.8944271,87.5527864 C62.6688622,87.1016566 62.2623955,86.4654479 61.6746541,85.8242754 C60.6435306,84.6994134 59.4195572,84 58,84 C57.1949851,84 57.1949851,84 55.1705398,84 C52.6234815,84 52.6234815,84 49.2054015,84 C41.3240154,84 41.3240154,84 32.0489946,84 C23.8841237,84 23.8841237,84 16.6699721,84 C12.2076722,84 12.2076722,84 8.98857096,84 C6.5516081,84 6.5516081,84 5.99999993,84 L5.99999993,86 Z M121.5,88 C120.965107,88 120.965107,88 118.603403,88 C115.484674,88 115.484674,88 111.164653,88 C104.26446,88 104.26446,88 96.4678587,88 C87.4719332,88 87.4719332,88 79.8529881,88 C76.5598832,88 76.5598832,88 74.1273911,88 C72.2112666,88 72.2112666,88 71.4999999,88 C70.2273437,88 69.2761575,88.6794186 68.6425063,89.7355044 C68.2923138,90.319159 68.1024389,90.8887845 68.0194191,91.3038844 L69.9805807,91.6961156 C70.0225606,91.4862155 70.1451853,91.118341 70.3574924,90.7644956 C70.6613407,90.2580814 71.0226548,90 71.4999999,90 C72.2112666,90 72.2112666,90 74.1273911,90 C76.5598832,90 76.5598832,90 79.8529881,90 C87.4719332,90 87.4719332,90 96.4678587,90 C104.26446,90 104.26446,90 111.164653,90 C115.484674,90 115.484674,90 118.603403,90 C120.965107,90 120.965107,90 121.5,90 L121.5,88 Z M122,84 C121.448392,84 121.448392,84 119.011429,84 C115.792328,84 115.792328,84 111.330028,84 C104.115876,84 104.115876,84 95.9510053,84 C86.6759845,84 86.6759845,84 78.7945984,84 C75.3765183,84 75.3765183,84 72.82946,84 C70.8050148,84 70.8050148,84 69.9999999,84 C68.5804427,84 67.3564692,84.6994134 66.3253458,85.8242754 C65.7376043,86.4654479 65.3311376,87.1016566 65.1055727,87.5527864 L66.8944271,88.4472136 C66.9264402,88.3831875 67.0013743,88.2492627 67.1161337,88.0696393 C67.3113847,87.7640291 67.5409281,87.4579711 67.7996541,87.1757246 C68.4872806,86.4255866 69.2320571,86 69.9999999,86 C70.8050148,86 70.8050148,86 72.82946,86 C75.3765183,86 75.3765183,86 78.7945984,86 C86.6759845,86 86.6759845,86 95.9510053,86 C104.115876,86 104.115876,86 111.330028,86 C115.792328,86 115.792328,86 119.011429,86 C121.448392,86 121.448392,86 122,86 L122,84 Z M42,17 C42,16.4477153 42.4499488,16 43.0068455,16 L54.9931545,16 C55.5492199,16 56,16.4438648 56,17 C56,17.5522847 55.5500512,18 54.9931545,18 L43.0068455,18 C42.4507801,18 42,17.5561352 42,17 Z M42,21 C42,20.4477153 42.4547089,20 42.9999602,20 L58.0000398,20 C58.5523026,20 59,20.4438648 59,21 C59,21.5522847 58.5452911,22 58.0000398,22 L42.9999602,22 C42.4476974,22 42,21.5561352 42,21 Z M42,25 C42,24.4477153 42.4547089,24 42.9999602,24 L58.0000398,24 C58.5523026,24 59,24.4438648 59,25 C59,25.5522847 58.5452911,26 58.0000398,26 L42.9999602,26 C42.4476974,26 42,25.5561352 42,25 Z M42,29 C42,28.4477153 42.4530363,28 42.9970301,28 L49.0029699,28 C49.5536144,28 50,28.4438648 50,29 C50,29.5522847 49.5469637,30 49.0029699,30 L42.9970301,30 C42.4463856,30 42,29.5561352 42,29 Z M14,49 C14,48.4477153 14.4530363,48 14.9970301,48 L21.0029699,48 C21.5536144,48 22,48.4438648 22,49 C22,49.5522847 21.5469637,50 21.0029699,50 L14.9970301,50 C14.4463856,50 14,49.5561352 14,49 Z M14,53 C14,52.4477153 14.4547089,52 14.9999602,52 L30.0000398,52 C30.5523026,52 31,52.4438648 31,53 C31,53.5522847 30.5452911,54 30.0000398,54 L14.9999602,54 C14.4476974,54 14,53.5561352 14,53 Z M14,57 C14,56.4477153 14.4547089,56 14.9999602,56 L30.0000398,56 C30.5523026,56 31,56.4438648 31,57 C31,57.5522847 30.5452911,58 30.0000398,58 L14.9999602,58 C14.4476974,58 14,57.5561352 14,57 Z M14,61 C14,60.4477153 14.4489202,60 15.007484,60 L27.992516,60 C28.5489341,60 29,60.4438648 29,61 C29,61.5522847 28.5510798,62 27.992516,62 L15.007484,62 C14.4510659,62 14,61.5561352 14,61 Z M72,59 C72,58.4477153 72.4449463,58 72.9933977,58 L89.0066023,58 C89.5552407,58 90,58.4438648 90,59 C90,59.5522847 89.5550537,60 89.0066023,60 L72.9933977,60 C72.4447593,60 72,59.5561352 72,59 Z M76,63 C76,62.4477153 76.4499488,62 77.0068455,62 L88.9931545,62 C89.5492199,62 90,62.4438648 90,63 C90,63.5522847 89.5500512,64 88.9931545,64 L77.0068455,64 C76.4507801,64 76,63.5561352 76,63 Z M40.2928932,50.2928932 L36.2928932,54.2928932 L35.5857864,55 L36.2928932,55.7071068 L40.2928932,59.7071068 L41.7071068,58.2928932 L37.7071068,54.2928932 L37.7071068,55.7071068 L41.7071068,51.7071068 L40.2928932,50.2928932 Z M50.2928932,51.7071068 L54.2928932,55.7071068 L54.2928932,54.2928932 L50.2928932,58.2928932 L51.7071068,59.7071068 L55.7071068,55.7071068 L56.4142136,55 L55.7071068,54.2928932 L51.7071068,50.2928932 L50.2928932,51.7071068 Z M47.0384761,47.7252789 L43.0384761,61.7252789 L44.9615239,62.2747211 L48.9615239,48.2747211 L47.0384761,47.7252789 Z M88,17 L105,17 L104,16 L104,58.0119031 L106,58.0119031 L106,16 L106,15 L105,15 L88,15 L88,17 Z M87,39 L101,39 L101,37 L87,37 L87,39 Z" id="Rectangle-21" fill="#05486B"></path>
                    <path d="M96,16 C96,12.6862915 98.6947819,10 101.993739,10 L108.006261,10 C111.316511,10 114,12.6930342 114,16 C114,19.3137085 111.305218,22 108.006261,22 L101.993739,22 C98.6834885,22 96,19.3069658 96,16 Z M70,38 C70,34.6862915 72.6765363,32 76.0006595,32 L83.9993405,32 C87.3134132,32 90,34.6930342 90,38 C90,41.3137085 87.3234637,44 83.9993405,44 L76.0006595,44 C72.6865868,44 70,41.3069658 70,38 Z" id="Rectangle-53" stroke="#05486B" stroke-width="2" fill="#FFAE5F"></path>
                    <path d="M98,38 C98,34.1340068 101.141873,31 105,31 C108.865993,31 112,34.1418733 112,38 C112,41.8659932 108.858127,45 105,45 C101.134007,45 98,41.8581267 98,38 Z M98,55.0068455 C98,54.4507801 98.4499488,54 99.0068455,54 L110.993155,54 C111.54922,54 112,54.4499488 112,55.0068455 L112,66.9931545 C112,67.5492199 111.550051,68 110.993155,68 L99.0068455,68 C98.4507801,68 98,67.5500512 98,66.9931545 L98,55.0068455 Z M71,11.0024733 C71,10.4488226 71.4449463,10 71.9933977,10 L88.0066023,10 C88.5552407,10 89,10.455761 89,11.0024733 L89,20.9975267 C89,21.5511774 88.5550537,22 88.0066023,22 L71.9933977,22 C71.4447593,22 71,21.544239 71,20.9975267 L71,11.0024733 Z M14,13.0024617 C14,12.4488174 14.4512787,12 15.0032996,12 L38.9967004,12 C39.5508075,12 40,12.4394583 40,13.0024617 L40,32.9975383 C40,33.5511826 39.5487213,34 38.9967004,34 L15.0032996,34 C14.4491925,34 14,33.5605417 14,32.9975383 L14,13.0024617 Z" id="Rectangle-67-Copy-2" stroke="#05486B" stroke-width="2" fill="#FFC644"></path>
                    <path d="M22.5,17 C23.3284271,17 24,16.3284271 24,15.5 C24,14.6715729 23.3284271,14 22.5,14 C21.6715729,14 21,14.6715729 21,15.5 C21,16.3284271 21.6715729,17 22.5,17 Z M18.5,17 C19.3284271,17 20,16.3284271 20,15.5 C20,14.6715729 19.3284271,14 18.5,14 C17.6715729,14 17,14.6715729 17,15.5 C17,16.3284271 17.6715729,17 18.5,17 Z M30,26 L36,26 L36,28 L30,28 L30,26 Z M30,22 L36,22 L36,24 L30,24 L30,22 Z M16,17 L38,17 L38,19 L16,19 L16,17 Z M18,21 L28,21 L28,30 L18,30 L18,21 Z M20,23 L26,23 L26,28 L20,28 L20,23 Z" id="Oval-5-Copy" fill="#05486B"></path>
                </g>
            </g>
        </g>
    </g>
</svg>