<?xml version="1.0" encoding="UTF-8" standalone="no"?>
<svg width="130px" height="130px" viewBox="0 0 130 130" version="1.1" xmlns="http://www.w3.org/2000/svg" xmlns:xlink="http://www.w3.org/1999/xlink" xmlns:sketch="http://www.bohemiancoding.com/sketch/ns">
    <!-- Generator: Sketch 3.4.2 (15855) - http://www.bohemiancoding.com/sketch -->
    <title>stand-for-selfhosting</title>
    <desc>Created with Sketch.</desc>
    <defs></defs>
    <g id="ICONS" stroke="none" stroke-width="1" fill="none" fill-rule="evenodd" sketch:type="MSPage">
        <g id="Artboard-3" sketch:type="MSArtboardGroup" transform="translate(-655.000000, -360.000000)">
            <g id="server-+-house" sketch:type="MSLayerGroup" transform="translate(655.000000, 376.000000)">
                <path d="M111,47 L117.001228,47 C124.182981,47 130,52.8169356 130,60.0040647 L130,83.9959353 C130,91.1759415 124.176653,97 117.001228,97 L12.9987723,97 C5.8170193,97 0,91.1830644 0,83.9959353 L0,60.0040647 C0,52.8240585 5.82334694,47 12.9987723,47 L19,47 L19,35.9999942 C17.2178024,35.9959716 16.1153281,34.4867226 16.6662688,32.7915204 L25.181663,6.59030745 C25.6561404,5.13037715 27.2184623,4 28.7540664,4 L71.6872165,4 L73.8914994,1.73362465 L73.8914994,1.73362465 C75.0478353,0.544715837 76.9451559,0.530942348 78.1155851,1.70137155 L80.4142136,4 L98.2459336,4 C99.7857162,4 101.343158,5.12821931 101.818337,6.59030745 L110.333731,32.7915204 C110.47483,33.2256698 110.50796,33.6475031 110.449165,34.034951 L112.494372,36.0801579 C113.30572,36.8915066 113.244145,38.1831682 112.356122,38.910108 L111.410746,39.6839982 C111.212922,39.8459377 111,40.2951111 111,40.5512182 L111,47 Z" id="Shape" fill="#05486B" sketch:type="MSShapeGroup"></path>
                <rect id="Rectangle-488" fill="#FFFFFF" sketch:type="MSShapeGroup" x="1" y="48" width="128" height="48" rx="12"></rect>
                <rect id="Rectangle-89" fill="#E9E9EB" sketch:type="MSShapeGroup" x="11" y="71" width="109" height="24"></rect>
                <path d="M2,63 L6,69 L11,71 L11,95 C11,95 6.76566681,92.961852 5,91 C3.76566681,89.6285187 2,85 2,85 L2,63 Z" id="Rectangle-90" fill="#D4D4D8" sketch:type="MSShapeGroup"></path>
                <path d="M3,60.0040647 L3,60.0040647 L3,83.9959353 C3,89.5262005 7.47386389,94 12.9987723,94 L117.001228,94 C122.519717,94 127,89.5191693 127,83.9959353 L127,60.0040647 C127,54.4737995 122.526136,50 117.001228,50 L12.9987723,50 C7.48028325,50 3,54.4808307 3,60.0040647 L3,60.0040647 Z M1,60.0040647 C1,53.3744028 6.37757191,48 12.9987723,48 L117.001228,48 C123.627967,48 129,53.3664911 129,60.0040647 L129,83.9959353 C129,90.6255972 123.622428,96 117.001228,96 L12.9987723,96 C6.37203335,96 1,90.6335089 1,83.9959353 L1,60.0040647 L1,60.0040647 Z" id="Shape" fill="#05486B" sketch:type="MSShapeGroup"></path>
                <path d="M3,60 L3,60 C3,65.5238097 7.47610784,70 12.9987723,70 L117.001228,70 C122.519868,70 127,65.5208381 127,60 C127,54.4761903 122.523892,50 117.001228,50 L12.9987723,50 C7.48013164,50 3,54.4791619 3,60 L3,60 Z M1,60 C1,53.372583 6.37757191,48 12.9987723,48 L117.001228,48 C123.627967,48 129,53.3711258 129,60 C129,66.627417 123.622428,72 117.001228,72 L12.9987723,72 C6.37203335,72 1,66.6288742 1,60 L1,60 Z" id="Shape" fill="#05486B" sketch:type="MSShapeGroup"></path>
                <path d="M76,86 C78.209139,86 80,84.209139 80,82 C80,79.790861 78.209139,78 76,78 C73.790861,78 72,79.790861 72,82 C72,84.209139 73.790861,86 76,86 Z M76,84 C74.8954305,84 74,83.1045695 74,82 C74,80.8954305 74.8954305,80 76,80 C77.1045695,80 78,80.8954305 78,82 C78,83.1045695 77.1045695,84 76,84 Z M88,86 C90.209139,86 92,84.209139 92,82 C92,79.790861 90.209139,78 88,78 C85.790861,78 84,79.790861 84,82 C84,84.209139 85.790861,86 88,86 Z M88,84 C86.8954305,84 86,83.1045695 86,82 C86,80.8954305 86.8954305,80 88,80 C89.1045695,80 90,80.8954305 90,82 C90,83.1045695 89.1045695,84 88,84 Z M100,86 C102.209139,86 104,84.209139 104,82 C104,79.790861 102.209139,78 100,78 C97.790861,78 96,79.790861 96,82 C96,84.209139 97.790861,86 100,86 Z M100,84 C98.8954305,84 98,83.1045695 98,82 C98,80.8954305 98.8954305,80 100,80 C101.104569,80 102,80.8954305 102,82 C102,83.1045695 101.104569,84 100,84 Z M25,84.990778 C25,84.4435864 25.4473652,84 25.9981537,84 L54.0018463,84 C54.5531114,84 55,84.4509752 55,84.990778 L55,89.009222 C55,89.5564136 54.5526348,90 54.0018463,90 L25.9981537,90 C25.4468886,90 25,89.5490248 25,89.009222 L25,84.990778 Z M27,88.009222 L53,88.009222 L53,85.990778 L27,85.990778 L27,88.009222 Z M25,76.990778 C25,76.4435864 25.4473652,76 25.9981537,76 L54.0018463,76 C54.5531114,76 55,76.4509752 55,76.990778 L55,81.009222 C55,81.5564136 54.5526348,82 54.0018463,82 L25.9981537,82 C25.4468886,82 25,81.5490248 25,81.009222 L25,76.990778 Z M26.9981537,80 L53.0018463,80 L53.0018463,78 L26.9981537,78 L26.9981537,80 Z" id="Shape" fill="#05486B" sketch:type="MSShapeGroup"></path>
                <g id="home" transform="translate(17.000000, 1.000000)" sketch:type="MSShapeGroup">
                    <g id="house">
                        <g id="roof" transform="translate(0.000000, 3.750000)">
                            <path d="M9.75,0.25 L83.25,0.25 L93,30.25 L0,30.25 L9.75,0.25 Z" fill="#F03E3E"></path>
                            <path d="M28,29.25 L56,1.25 L34,1.25 L23.9286623,29.3213377 L28,29.25 Z" id="Rectangle-89" fill="#D92A2A"></path>
                            <path d="M83.25,0.25 L93,30.25 L0,30.25 L9.75,0.25 L83.25,0.25 Z M81.8088196,2.25059291 L11.1933396,2.27964446 L2.74902344,28.25 L90.2836914,28.25 L81.8088196,2.25059291 Z" id="Shape" fill="#05486B"></path>
                        </g>
                        <g id="left-side" transform="translate(3.000000, 31.750000)">
                            <rect id="Rectangle-23" fill="#E9E9EB" x="0.979841891" y="1.25" width="32.0201581" height="31"></rect>
                            <path d="M1,1.25 L0.999999999,5.25 L16.0000003,5.25 L19,8.25 L19,32.25 L25,32.25 L25,1.25 L1,1.25 Z" id="Path-78" fill="#D3D3D8"></path>
                            <path d="M0,0.25 L33,0.25 L33,33.25 L0,33.25 L0,0.25 Z M2,2.25 L2,31.25 L31,31.25 L31,2.25 L2,2.25 Z" id="Shape" fill="#05486B"></path>
                        </g>
                        <g id="front" transform="translate(11.000000, 0.000000)">
                            <g id="bckgrd" transform="translate(12.000000, 0.000000)">
                                <path d="M36,1 L71.5,36.5 L69,38.5465126 L69,64 L4.01510038,64 L4.02034884,38.5465116 L1.5,36.5 L36,1 Z" id="Path-6" fill="#FFFFFF"></path>
                                <path d="M36,0 L72.5,36.5 L70,38.5465126 L70,65 L3.01510038,65 L3.02034884,38.5465116 L0.5,36.5 L36,0 Z M35.9594345,2.87203 L3.48614582,36.4214688 L4.2810621,36.9939003 L5.02053779,37.5943511 L5.0203488,38.5469084 L5.01510042,63 L68,63 L68,38.5465126 L68,37.5990647 L68.7331321,36.9989191 L69.6356451,36.2601174 L35.9594345,2.87203 Z" id="Shape" fill="#05486B"></path>
                            </g>
                            <g id="door" transform="translate(20.500000, 36.250000)" fill="#05486B">
                                <path d="M24.5,22.75 L24.5,28.75 L0.5,28.75 L0.5,22.75 L24.5,22.75 Z M2.5,24.75 L2.5,26.75 L22.5,26.75 L22.5,24.75 L2.5,24.75 Z" id="Shape"></path>
                                <path d="M8.5,5.84090909 L8.5,5.84090909 L8.5,24.75 L6.5,22.75 L18.5,22.75 L16.5,24.75 L16.5,5.84090909 C16.5,5.80386357 16.4872469,5.65237169 16.4437524,5.43094515 C16.3676062,5.04329183 16.231195,4.65748237 16.0269231,4.31083916 C15.4506541,3.33292817 14.4201204,2.75 12.5,2.75 C10.5798796,2.75 9.5493459,3.33292817 8.97307692,4.31083916 C8.76880503,4.65748237 8.63239383,5.04329183 8.55624764,5.43094515 C8.51275314,5.65237169 8.5,5.80386357 8.5,5.84090909 L8.5,5.84090909 Z M6.5,5.84090909 C6.5,5.84090909 6.5,0.75 12.5,0.75 C18.5,0.75 18.5,5.84090909 18.5,5.84090909 L18.5,24.75 L6.5,24.75 L6.5,5.84090909 L6.5,5.84090909 Z" id="Shape"></path>
                                <rect id="Rectangle-36" x="9.5" y="13.75" width="2" height="2"></rect>
                            </g>
                            <path d="M1,40 L9,40 L9,56 L1,56 L1,40 Z M52,40 L70,40 L70,56 L52,56 L52,40 Z M48,27 C50.209139,27 52,25.209139 52,23 C52,20.790861 50.209139,19 48,19 C45.790861,19 44,20.790861 44,23 C44,25.209139 45.790861,27 48,27 Z" id="Rectangle-86" fill="#FD8361"></path>
                            <path d="M0,39 L10,39 L10,57 L0,57 L0,39 Z M2,41 L8,41 L8,55 L2,55 L2,41 Z M51,39 L71,39 L71,57 L51,57 L51,39 Z M53,41 L60,41 L60,55 L53,55 L53,41 Z M62,41 L69,41 L69,55 L62,55 L62,41 Z M48,28 C45.2385763,28 43,25.7614237 43,23 C43,20.2385763 45.2385763,18 48,18 C50.7614237,18 53,20.2385763 53,23 C53,25.7614237 50.7614237,28 48,28 Z M48,26 C49.6568542,26 51,24.6568542 51,23 C51,21.3431458 49.6568542,20 48,20 C46.3431458,20 45,21.3431458 45,23 C45,24.6568542 46.3431458,26 48,26 Z" id="Rectangle-25" fill="#05486B"></path>
                        </g>
                    </g>
                </g>
            </g>
        </g>
    </g>
</svg>