<?xml version="1.0" encoding="UTF-8" standalone="no"?>
<svg width="130px" height="97px" viewBox="0 0 130 97" version="1.1" xmlns="http://www.w3.org/2000/svg" xmlns:xlink="http://www.w3.org/1999/xlink" xmlns:sketch="http://www.bohemiancoding.com/sketch/ns">
    <!-- Generator: Sketch 3.4.2 (15857) - http://www.bohemiancoding.com/sketch -->
    <title>server + house</title>
    <desc>Created with Sketch.</desc>
    <defs></defs>
    <g id="Page-1" stroke="none" stroke-width="1" fill="none" fill-rule="evenodd" sketch:type="MSPage">
        <g id="Artboard-1" sketch:type="MSArtboardGroup" transform="translate(-655.000000, -376.000000)">
            <g id="icons" sketch:type="MSLayerGroup" transform="translate(316.000000, 355.000000)">
                <g id="server-+-house" transform="translate(340.000000, 22.000000)">
                    <path d="M109,47 L116.001228,47 C122.627967,47 128,52.3711258 128,59 C128,59.6805484 127.943296,60.3478651 127.834363,60.9974914 C127.9433,61.6468848 128,62.3139201 128,62.9941238 L128,83.0058762 C128,89.6300479 122.622428,95 116.001228,95 L11.9987723,95 C5.37203335,95 0,89.6267485 0,83.0058762 L0,62.9941238 C0,62.3141147 0.05666991,61.6473228 0.165537605,60.9982005 C0.0566660637,60.3483717 0,59.6808194 0,59 C0,52.372583 5.37757191,47 11.9987723,47 L19,47 L19,34 L18.0071396,34 C16.898627,34 16.276093,33.1504831 16.6173029,32.1006065 L25.1326971,5.89939352 C25.4736241,4.85038744 26.6527944,4 27.7540664,4 L71.109589,4 L73.6083579,1.43084326 C74.3769406,0.640610347 75.6335258,0.633525848 76.4084783,1.40847833 L79,4 L97.2459336,4 C98.3527489,4 99.526093,4.84951689 99.8673029,5.89939352 L108.382697,32.1006065 C108.532912,32.5628072 108.497693,32.9864489 108.315781,33.3157809 L110.787265,35.7872647 C111.180898,36.1808975 111.152386,36.7845588 110.722688,37.1363112 L109.777312,37.9102014 C109.348014,38.2616264 109,38.9945629 109,39.5512182 L109,47 Z" id="Rectangle-488" stroke="#05486B" stroke-width="2" fill="#FEFEFE" sketch:type="MSShapeGroup"></path>
                    <rect id="Rectangle-89" fill="#E9E9EB" sketch:type="MSShapeGroup" x="10" y="70" width="109" height="24"></rect>
                    <path d="M1,62 L5,68 L10,70 L10,94 C10,94 5.76566681,91.961852 4,90 C2.76566681,88.6285187 1,84 1,84 L1,62 Z" id="Rectangle-90" fill="#D4D4D8" sketch:type="MSShapeGroup"></path>
                    <rect id="Rectangle-488" stroke="#05486B" stroke-width="2" sketch:type="MSShapeGroup" x="0" y="51" width="128" height="44" rx="12"></rect>
                    <rect id="Rectangle-488" stroke="#05486B" stroke-width="2" fill="#FFFFFF" sketch:type="MSShapeGroup" x="0" y="47" width="128" height="24" rx="12"></rect>
                    <rect id="Rectangle-102" fill="#E9E9EB" sketch:type="MSShapeGroup" x="2" y="48" width="18" height="22"></rect>
                    <rect id="Rectangle-488" stroke="#05486B" stroke-width="2" sketch:type="MSShapeGroup" x="0" y="47" width="128" height="24" rx="12"></rect>
                    <path d="M75,85 C77.209139,85 79,83.209139 79,81 C79,78.790861 77.209139,77 75,77 C72.790861,77 71,78.790861 71,81 C71,83.209139 72.790861,85 75,85 Z M75,83 C73.8954305,83 73,82.1045695 73,81 C73,79.8954305 73.8954305,79 75,79 C76.1045695,79 77,79.8954305 77,81 C77,82.1045695 76.1045695,83 75,83 Z M87,85 C89.209139,85 91,83.209139 91,81 C91,78.790861 89.209139,77 87,77 C84.790861,77 83,78.790861 83,81 C83,83.209139 84.790861,85 87,85 Z M87,83 C85.8954305,83 85,82.1045695 85,81 C85,79.8954305 85.8954305,79 87,79 C88.1045695,79 89,79.8954305 89,81 C89,82.1045695 88.1045695,83 87,83 Z M99,85 C101.209139,85 103,83.209139 103,81 C103,78.790861 101.209139,77 99,77 C96.790861,77 95,78.790861 95,81 C95,83.209139 96.790861,85 99,85 Z M99,83 C97.8954305,83 97,82.1045695 97,81 C97,79.8954305 97.8954305,79 99,79 C100.104569,79 101,79.8954305 101,81 C101,82.1045695 100.104569,83 99,83 Z M24,83.990778 C24,83.4435864 24.4473652,83 24.9981537,83 L53.0018463,83 C53.5531114,83 54,83.4509752 54,83.990778 L54,88.009222 C54,88.5564136 53.5526348,89 53.0018463,89 L24.9981537,89 C24.4468886,89 24,88.5490248 24,88.009222 L24,83.990778 Z M26,83.990778 L26,88.009222 C26,87.4459857 25.5529969,87 24.9981537,87 L53.0018463,87 C52.4516832,87 52,87.4481977 52,88.009222 L52,83.990778 C52,84.5540143 52.4470031,85 53.0018463,85 L24.9981537,85 C25.5483168,85 26,84.5518023 26,83.990778 Z M24,75.990778 C24,75.4435864 24.4473652,75 24.9981537,75 L53.0018463,75 C53.5531114,75 54,75.4509752 54,75.990778 L54,80.009222 C54,80.5564136 53.5526348,81 53.0018463,81 L24.9981537,81 C24.4468886,81 24,80.5490248 24,80.009222 L24,75.990778 Z M26,75.990778 L26,80.009222 C26,79.4459857 25.5529969,79 24.9981537,79 L53.0018463,79 C52.4516832,79 52,79.4481977 52,80.009222 L52,75.990778 C52,76.5540143 52.4470031,77 53.0018463,77 L24.9981537,77 C25.5483168,77 26,76.5518023 26,75.990778 Z" id="Shape" fill="#05486B" sketch:type="MSShapeGroup"></path>
                    <g id="home" transform="translate(16.000000, 0.000000)">
                        <g id="house">
                            <g id="roof" transform="translate(0.000000, 3.750000)" sketch:type="MSShapeGroup">
                                <g>
                                    <path d="M9.75,0.25 L83.25,0.25 L93,30.25 L0,30.25 L9.75,0.25 Z" stroke="#05486B" stroke-width="2" fill="#F03E3E"></path>
                                    <path d="M28,29.25 L56,1.25 L34,1.25 L23.9286623,29.3213377 L28,29.25 Z" id="Rectangle-89" fill="#D92A2A"></path>
                                    <path d="M9.75,0.25 L83.25,0.25 L93,30.25 L0,30.25 L9.75,0.25 Z" stroke="#05486B" stroke-width="2"></path>
                                </g>
                            </g>
                            <g id="left-side" transform="translate(3.000000, 31.750000)">
                                <rect id="Rectangle-23" stroke="#05486B" stroke-width="2" fill="#E9E9EB" sketch:type="MSShapeGroup" x="0" y="0.25" width="33" height="33"></rect>
                                <g id="window-copy-2" transform="translate(7.250000, 6.500000)"></g>
                                <path d="M1,1.25 L0.999999999,5.25 L16.0000003,5.25 L19,8.25 L19,32.25 L25,32.25 L25,1.25 L1,1.25 Z" id="Path-78" fill="#D3D3D8" sketch:type="MSShapeGroup"></path>
                                <rect id="Rectangle-23" stroke="#05486B" stroke-width="2" sketch:type="MSShapeGroup" x="0" y="0.25" width="33" height="33"></rect>
                            </g>
                            <g id="front" transform="translate(11.000000, 0.000000)">
                                <g id="bckgrd" transform="translate(12.000000, 0.000000)" stroke="#05486B" stroke-width="2" fill="#FFFFFF" sketch:type="MSShapeGroup">
                                    <path d="M36,0 L72.5,36.5 L70,38.5465126 L70,65 L3.01510038,65 L3.02034884,38.5465116 L0.5,36.5 L36,0 Z" id="Path-6"></path>
                                </g>
                                <g id="window" transform="translate(50.250000, 38.250000)"></g>
                                <g id="door" transform="translate(20.500000, 36.250000)" sketch:type="MSShapeGroup">
                                    <rect id="Rectangle-24" stroke="#05486B" stroke-width="2" fill="#FFFFFF" x="0.5" y="22.75" width="24" height="6"></rect>
                                    <path d="M6.5,5.84090909 C6.5,5.84090909 6.5,0.75 12.5,0.75 C18.5,0.75 18.5,5.84090909 18.5,5.84090909 L18.5,24.75 L6.5,24.75 L6.5,5.84090909 Z" id="Rectangle-26" stroke="#05486B" stroke-width="2" fill="#FFFFFF"></path>
                                    <rect id="Rectangle-36" fill="#05486B" x="9.5" y="13.75" width="2" height="2"></rect>
                                </g>
                                <path d="M1,40 L9,40 L9,56 L1,56 L1,40 Z M52,40 L70,40 L70,56 L52,56 L52,40 Z M48,27 C50.209139,27 52,25.209139 52,23 C52,20.790861 50.209139,19 48,19 C45.790861,19 44,20.790861 44,23 C44,25.209139 45.790861,27 48,27 Z" id="Rectangle-86" fill="#FD8361" sketch:type="MSShapeGroup"></path>
                                <path d="M0,39 L10,39 L10,57 L0,57 L0,39 Z M2,41 L8,41 L8,55 L2,55 L2,41 Z M51,39 L71,39 L71,57 L51,57 L51,39 Z M53,41 L60,41 L60,55 L53,55 L53,41 Z M62,41 L69,41 L69,55 L62,55 L62,41 Z" id="Rectangle-25" stroke="#05486B" stroke-width="2" sketch:type="MSShapeGroup"></path>
                                <path d="M48,28 C45.2385763,28 43,25.7614237 43,23 C43,20.2385763 45.2385763,18 48,18 C50.7614237,18 53,20.2385763 53,23 C53,25.7614237 50.7614237,28 48,28 Z M48,26 C49.6568542,26 51,24.6568542 51,23 C51,21.3431458 49.6568542,20 48,20 C46.3431458,20 45,21.3431458 45,23 C45,24.6568542 46.3431458,26 48,26 Z" id="Shape" stroke="#05486B" stroke-width="2" fill="#1FA8F1" sketch:type="MSShapeGroup"></path>
                            </g>
                        </g>
                    </g>
                </g>
            </g>
        </g>
    </g>
</svg>