<?xml version="1.0" encoding="utf-8"?>
<!-- Generator: Adobe Illustrator 16.0.4, SVG Export Plug-In . SVG Version: 6.00 Build 0)  -->
<!DOCTYPE svg PUBLIC "-//W3C//DTD SVG 1.1//EN" "http://www.w3.org/Graphics/SVG/1.1/DTD/svg11.dtd">
<svg version="1.1" id="Layer_1" xmlns:sketch="http://www.bohemiancoding.com/sketch/ns"
	 xmlns="http://www.w3.org/2000/svg" xmlns:xlink="http://www.w3.org/1999/xlink" x="0px" y="0px" width="130px" height="134px"
	 viewBox="0 0 130 134" enable-background="new 0 0 130 134" xml:space="preserve">
<title>stand-for-aggregate</title>
<desc>Created with Sketch.</desc>
<g sketch:type="MSShapeGroup">
	<path fill="#222222" d="M127.293,57.707c0.391,0.391,1.023,0.391,1.414,0s0.391-1.024,0-1.414c-0.391-0.391-1.023-0.391-1.414,0
		S126.902,57.317,127.293,57.707z M124,56h-11c-0.552,0-1,0.448-1,1s0.448,1,1,1h11c0.552,0,1-0.448,1-1S124.552,56,124,56z M9,56H6
		c-0.552,0-1,0.448-1,1s0.448,1,1,1h3c0.552,0,1-0.448,1-1S9.552,56,9,56z M3,56H2c-0.552,0-1,0.448-1,1s0.448,1,1,1h1
		c0.552,0,1-0.448,1-1S3.552,56,3,56z M109,56h-3c-0.552,0-1,0.448-1,1s0.448,1,1,1h3c0.552,0,1-0.448,1-1S109.552,56,109,56z
		 M22,56H12c-0.552,0-1,0.448-1,1s0.448,1,1,1h10c0.552,0,1-0.448,1-1S22.552,56,22,56z M66,2V1c0-0.552-0.448-1-1-1s-1,0.448-1,1v1
		c0,0.552,0.448,1,1,1S66,2.552,66,2z M64,5v9c0,0.552,0.448,1,1,1s1-0.448,1-1V5c0-0.552-0.448-1-1-1S64,4.448,64,5z
		 M13.293,107.293l-0.018,0.018l-0.982,0.982c-0.391,0.391-0.391,1.023,0,1.414s1.024,0.391,1.414,0l0.982-0.982l0.018-0.018
		c0.391-0.391,0.391-1.023,0-1.414S13.683,106.902,13.293,107.293z M24.832,95.754l-7.106,7.105l-2.433,2.434
		c-0.391,0.391-0.391,1.023,0,1.414s1.024,0.391,1.414,0l2.433-2.434l7.106-7.105c0.391-0.391,0.391-1.023,0-1.414
		S25.222,95.363,24.832,95.754z M26.785,93.801l-0.168,0.168c-0.391,0.391-0.391,1.024,0,1.414c0.391,0.391,1.024,0.391,1.414,0
		l0.168-0.168c0.391-0.391,0.391-1.023,0-1.414C27.808,93.41,27.175,93.41,26.785,93.801z M33.066,87.52l-4.202,4.203
		c-0.391,0.391-0.391,1.023,0,1.413c0.391,0.392,1.024,0.392,1.414,0l4.202-4.202c0.391-0.391,0.391-1.023,0-1.414
		S33.456,87.129,33.066,87.52z M112.293,8.293l-14.96,14.96c-0.392,0.391-0.392,1.024,0,1.414c0.392,0.391,1.024,0.391,1.414,0
		l14.96-14.96c0.391-0.391,0.391-1.024,0-1.414C113.316,7.902,112.684,7.902,112.293,8.293z M116.293,4.293l-0.52,0.52
		c-0.392,0.391-0.392,1.024,0,1.414c0.391,0.391,1.023,0.391,1.414,0l0.52-0.52c0.391-0.391,0.391-1.024,0-1.414
		C117.316,3.902,116.684,3.902,116.293,4.293z M102.848,96.261l13.445,13.446c0.391,0.391,1.023,0.391,1.414,0s0.391-1.023,0-1.414
		l-13.445-13.445c-0.392-0.392-1.025-0.392-1.414,0C102.456,95.238,102.456,95.871,102.848,96.261z M95.547,88.961l4.025,4.025
		c0.391,0.391,1.023,0.391,1.414,0c0.391-0.392,0.391-1.024,0-1.414l-4.025-4.025c-0.391-0.391-1.023-0.391-1.414,0
		S95.156,88.57,95.547,88.961z M19.124,12.538l7.2,7.2l9.646,9.646c0.391,0.391,1.024,0.391,1.414,0
		c0.391-0.391,0.391-1.024,0-1.414l-9.646-9.646l-7.2-7.2c-0.391-0.391-1.024-0.391-1.414,0
		C18.733,11.515,18.733,12.148,19.124,12.538z M15.878,9.292l1.618,1.618c0.391,0.391,1.024,0.391,1.414,0
		c0.391-0.391,0.391-1.024,0-1.414l-1.618-1.618c-0.391-0.391-1.024-0.391-1.414,0C15.487,8.269,15.487,8.902,15.878,9.292z
		 M12.293,5.707l0.294,0.294c0.391,0.391,1.024,0.391,1.414,0c0.391-0.391,0.391-1.024,0-1.414l-0.294-0.294
		c-0.391-0.391-1.024-0.391-1.414,0C11.902,4.684,11.902,5.317,12.293,5.707z"/>
	<path fill="#FFFFFF" d="M45.097,92.854C49.5,95.5,50,99,50,101v22.007c0,1.101,0.657,2.603,1.497,3.317
		c0,0,5.503,5.675,13.503,5.675s13.514-5.683,13.514-5.683c0.82-0.728,1.486-2.209,1.486-3.32v-21.997c0-2,0.5-5.5,4.443-7.894
		C96.939,85.518,106,72.607,106,56.999c0-22.644-18.355-41-41-41c-22.644,0-41,18.356-41,41c0,15.421,8.736,28.424,21.097,35.853
		V92.854z"/>
	<path fill="#40DE8E" d="M51,104h28v21c0,0-9.333,6-14,6s-14-6-14-6V104z"/>
	<path fill="#29AF68" d="M51,104h5v20l4,5h-2l-7-5V104z"/>
	<g>
		<path fill="#222222" d="M98.869,46.833c-1.127-3.582-2.793-6.897-4.895-9.86l1.817-2.364l-1.585-1.219l-1.482,1.927
			C86.152,27.114,76.07,22,65,22c-0.552,0-1,0.448-1,1s0.448,1,1,1c10.619,0,20.273,4.986,26.467,12.952h-0.001L74.729,58.71
			L55.481,48.123l-0.604-0.332l-0.525,0.447l-20,17l1.295,1.524l19.475-16.554l19.396,10.667l0.752,0.413l0.522-0.68l16.901-21.973
			c1.818,2.665,3.268,5.619,4.268,8.797c0.166,0.527,0.727,0.82,1.254,0.654S99.035,47.36,98.869,46.833z"/>
		<path fill="#222222" d="M65,16c-22.644,0-41,18.356-41,41c0,15.42,8.736,28.424,21.097,35.854C49.5,95.5,50,99,50,101v24
			c0,0,7,7,15,7s15-7,15-7v-2v-18.002v-2V101c0-2,0.5-5.5,4.443-7.895C96.938,85.518,106,72.607,106,57C106,34.356,87.645,16,65,16z
			 M52,104.999h19.666L52,107.841V104.999z M52,109.862l26-3.759v2.98l-26,3.758V109.862z M52,114.863l26-3.759v2.979l-26,3.758
			V114.863z M52,119.863l26-3.759v2.979l-26,3.758V119.863z M72.348,128H57.653c-0.695-0.356-1.389-0.749-2.079-1.188
			c-0.91-0.578-1.739-1.193-2.513-1.812h23.877c-0.774,0.619-1.604,1.234-2.513,1.812C73.736,127.251,73.042,127.644,72.348,128z
			 M64.891,123L64.891,123L78,121.104V123H64.891z M83.404,91.396C79.479,93.781,78,97.188,78,101v1.998h-4.92l2.917-37.923
			l-1.994-0.153l-2.929,38.077V103H59.923l-3.926-49.08l-1.994,0.159l3.914,48.92H52V101c0-3.861-1.588-7.286-5.873-9.861
			C33.719,83.682,26,71.04,26,57c0-21.539,17.461-39,39-39s39,17.461,39,39C104,71.074,96.134,83.667,83.404,91.396z"/>
		<path fill="#222222" d="M99.964,51.323c-0.095-0.544-0.614-0.908-1.157-0.812c-0.545,0.095-0.908,0.614-0.812,1.158
			c0.335,1.912,0.506,3.86,0.506,5.831c0,0.552,0.448,1,1,1s1-0.448,1-1C100.5,55.413,100.32,53.349,99.964,51.323z"/>
	</g>
	<path id="Shape" fill="#222222" d="M44.581,93.711C47.875,95.691,49,98.115,49,101v22.007c0,1.405,0.793,3.181,1.849,4.079
		c0.127,0.137,0.485,0.473,0.994,0.895c0.839,0.697,1.807,1.392,2.893,2.041C57.85,131.881,61.302,133,65,133
		s7.152-1.121,10.27-2.982c1.086-0.649,2.056-1.346,2.896-2.043c0.51-0.425,0.869-0.76,1.065-0.961
		c0.982-0.867,1.77-2.621,1.77-4.017V101c0-2.855,1.048-5.27,3.962-7.039C98.546,85.712,107,72.18,107,57c0-23.196-18.805-42-42-42
		c-23.196,0-42,18.804-42,42C23,72.133,31.302,85.729,44.581,93.711z M45.611,91.997c-12.699-7.632-20.612-20.592-20.612-34.996
		c0-22.091,17.909-40,40-40s40,17.909,40,40c0,14.442-8.062,27.349-21.076,35.251c-3.589,2.18-4.924,5.256-4.924,8.749v21.997
		c0,0.824-0.542,2.033-1.149,2.57l-0.272,0.263c-0.194,0.181-0.425,0.385-0.69,0.604c-0.764,0.635-1.65,1.271-2.644,1.865
		c-2.828,1.69-5.942,2.7-9.243,2.7c-3.302,0-6.413-1.009-9.239-2.696c-0.993-0.593-1.877-1.228-2.641-1.861
		c-0.265-0.221-0.495-0.424-0.689-0.604l-0.217-0.209c-0.672-0.578-1.215-1.794-1.215-2.621v-22.007
		C50.999,97.465,49.565,94.375,45.611,91.997L45.611,91.997z"/>
	<path fill="#40DE8E" d="M55,55c3.314,0,6-2.686,6-6s-2.686-6-6-6s-6,2.686-6,6S51.686,55,55,55z M95,40c3.314,0,6-2.686,6-6
		s-2.686-6-6-6s-6,2.686-6,6S91.686,40,95,40z"/>
	<path fill="#40DE8E" d="M35,72c3.314,0,6-2.686,6-6c0-3.314-2.686-6-6-6s-6,2.686-6,6C29,69.314,31.686,72,35,72z M75,66
		c3.314,0,6-2.686,6-6s-2.686-6-6-6s-6,2.686-6,6S71.686,66,75,66z"/>
	<path fill="#222222" d="M55,53c2.209,0,4-1.791,4-4s-1.791-4-4-4s-4,1.791-4,4S52.791,53,55,53z M55,55c-3.314,0-6-2.686-6-6
		s2.686-6,6-6s6,2.686,6,6S58.314,55,55,55z M95,38c2.209,0,4-1.791,4-4s-1.791-4-4-4s-4,1.791-4,4S92.791,38,95,38z M95,40
		c-3.314,0-6-2.686-6-6s2.686-6,6-6s6,2.686,6,6S98.314,40,95,40z M35,70c2.209,0,4-1.791,4-4s-1.791-4-4-4s-4,1.791-4,4
		S32.791,70,35,70z M35,72c-3.314,0-6-2.686-6-6c0-3.314,2.686-6,6-6s6,2.686,6,6C41,69.314,38.314,72,35,72z M75,64
		c2.209,0,4-1.791,4-4s-1.791-4-4-4s-4,1.791-4,4S72.791,64,75,64z M75,66c-3.314,0-6-2.686-6-6s2.686-6,6-6s6,2.686,6,6
		S78.314,66,75,66z"/>
</g>
</svg>
