<svg width="130" height="140" viewBox="0 0 130 140" xmlns="http://www.w3.org/2000/svg" xmlns:sketch="http://www.bohemiancoding.com/sketch/ns"><title>stand-for-files</title><desc>Created with Sketch.</desc><g sketch:type="MSLayerGroup" fill="none"><path d="M39 43v-27.004c0-6.072 4.925-10.996 10.994-10.996h42.416l.293.296 26.006 26.204.29.292v68.21700000000001c0 6.071-4.922 10.991-10.998 10.991h-41.002v13.003c0 6.074-4.924 10.997-10.999 10.997h-34.002c-6.074 0-10.999-4.925-10.999-10.997v-70.006c0-6.074 4.924-10.997 10.999-10.997h17.001z" id="Shape" fill="#222" sketch:type="MSShapeGroup"/><g sketch:type="MSShapeGroup"><path d="M41 17.001c0-5.523 4.481-10.001 9.999-10.001h40.996l25.006 25.204v66.796c0 5.523-4.47 10-9.994 10h-56.011c-5.52 0-9.994-4.481-9.994-10.001v-81.998z" fill="#fff"/><path d="M42 15.996v84.009c0 4.42 3.578 7.996 7.998 7.996h58.005c4.419 0 7.998-3.577 7.998-7.991v-67.805l.58 1.409-26.006-26.204 1.42.591h-42c-4.413 0-7.994 3.581-7.994 7.996zm-2 0c0-5.52 4.478-9.996 9.994-9.996h42l26.006 26.204v67.805c0 5.518-4.474 9.991-9.998 9.991h-58.005c-5.522 0-9.998-4.469-9.998-9.996v-84.009z" id="Shape" fill="#222"/><g><path d="M50 18.005c0-1.107.898-2.005 2.006-2.005h43.997l11.996 12v29.998c0 1.106-.888 2.002-1.996 2.002h-54.007c-1.103 0-1.996-.899-1.996-2.005v-39.99z" fill="#9169F3"/><path d="M50 18.005c0-1.107.898-2.005 2.006-2.005h43.997l11.996 12v29.998c0 1.106-.888 2.002-1.996 2.002h-54.007c-1.103 0-1.996-.899-1.996-2.005v-39.99zm2 39.99c0 .004 54.004.005 54.004.005l-.004-29-10.996-11h-42.997c-.004 0-.006 39.995-.006 39.995z" id="Shape" fill="#222"/></g><path d="M87.5 18h8.5l3 16h-8.137c-3.791 0-6.209-2.991-5.399-6.693l2.036-9.307z" id="Rectangle-5" fill="#6C46DC"/><path d="M90 8v8h-2l2-8z" fill="#E9E9EB"/><path d="M91 6l27 27h-17.004c-5.521 0-9.996-4.474-9.996-9.996v-17.004z" fill="#E9E9EB"/><path d="M90 6h2l26 26v2h-18.01c-5.517 0-9.99-4.468-9.99-9.99v-18.01zm2 18.01c0 4.416 3.575 7.99 7.99 7.99l15.262.08-23.191-23.191-.061 15.12z" id="Shape" fill="#222"/></g><g transform="translate(12 0)" sketch:type="MSShapeGroup"><rect fill="#E9E9EB" x="1" y="45" width="52" height="88" rx="10"/><path d="M0 123.22v-68.22l6-9h6s-6 2-6 8v69c0 8 6 9 6 9h-6l-6-8.78z" fill="#D3D3D8"/><path d="M2 53.997v70.006c0 4.415 3.582 7.997 7.999 7.997h34.002c4.418 0 7.999-3.58 7.999-7.997v-70.006c0-4.415-3.582-7.997-7.999-7.997h-34.002c-4.418 0-7.999 3.58-7.999 7.997zm-2 0c0-5.521 4.477-9.997 9.999-9.997h34.002c5.522 0 9.999 4.478 9.999 9.997v70.006c0 5.521-4.477 9.997-9.999 9.997h-34.002c-5.522 0-9.999-4.478-9.999-9.997v-70.006z" fill="#222"/><path fill="#9169F2" d="M2 55h50v62h-50z"/><path fill="#7C52E3" d="M2 56h4v60h-4z"/><path d="M1 54h52v2h-52v-2zm0 62h52v2h-52v-2zm18-66c0-.552.445-1 1.001-1h13.998c.553 0 1.001.444 1.001 1 0 .552-.445 1-1.001 1h-13.998c-.553 0-1.001-.444-1.001-1zm8 78c1.657 0 3-1.343 3-3s-1.343-3-3-3-3 1.343-3 3 1.343 3 3 3zm0 2c-2.761 0-5-2.239-5-5s2.239-5 5-5 5 2.239 5 5-2.239 5-5 5zm25-63c0-.552.45-1 1.002-1h41.997c.553 0 1.002.444 1.002 1 0 .552-.45 1-1.002 1h-41.997c-.553 0-1.002-.444-1.002-1zm0 7c0-.552.449-1 1.009-1h37.982c.557 0 1.009.444 1.009 1 0 .552-.449 1-1.009 1h-37.982c-.557 0-1.009-.444-1.009-1zm0 7c0-.552.45-1 1.002-1h41.997c.553 0 1.002.444 1.002 1 0 .552-.45 1-1.002 1h-41.997c-.553 0-1.002-.444-1.002-1zm0 7c0-.552.45-1 1.002-1h41.997c.553 0 1.002.444 1.002 1 0 .552-.45 1-1.002 1h-41.997c-.553 0-1.002-.444-1.002-1zm0 7c0-.552.455-1 1-1h15c.552 0 1 .444 1 1 0 .552-.455 1-1 1h-15c-.552 0-1-.444-1-1zm2-83v8c0 .115-.013.345-.054.649-.068.509-.19 1.017-.375 1.48-.485 1.213-1.275 1.871-2.572 1.871-1.296 0-2.086-.658-2.572-1.871-.185-.463-.307-.97-.375-1.48-.041-.304-.054-.534-.054-.649v-13c0-.144.017-.427.069-.8.087-.624.242-1.246.479-1.815.637-1.529 1.706-2.385 3.452-2.385 1.795 0 2.863.712 3.481 1.947.225.45.373.942.455 1.436.049.293.065.513.065.617h2c0-.766-.18-1.846-.731-2.947-.945-1.89-2.689-3.053-5.269-3.053-2.63 0-4.373 1.395-5.298 3.615-.529 1.27-.702 2.514-.702 3.385v13c0 .741.14 1.793.572 2.871.765 1.912 2.225 3.129 4.428 3.129 2.204 0 3.664-1.217 4.428-3.129.431-1.078.572-2.13.572-2.871v-8h-2z" fill="#222"/><path d="M21.5 92.086l9.793-9.793.707-.707.707.707 16 16-1.414 1.414-15.276-15.276-9.102 9.069 2.793 2.793-1.414 1.414-7.275-7.275-10.311 10.275-1.414-1.414 11-11 .707-.707.707.707 3.793 3.793zm41-50l9.793-9.793.707-.707.707.707 16 16-1.414 1.414-15.276-15.276-9.102 9.069 2.793 2.793-1.414 1.414-7.275-7.275-7.311 7.275-1.414-1.414 8-8 .707-.707.707.707 3.793 3.793zm-.5-7.086c3.314 0 6-2.686 6-6s-2.686-6-6-6-6 2.686-6 6 2.686 6 6 6zm-41 50c3.314 0 6-2.686 6-6s-2.686-6-6-6-6 2.686-6 6 2.686 6 6 6zm41-52c-2.209 0-4-1.791-4-4s1.791-4 4-4 4 1.791 4 4-1.791 4-4 4zm-41 50c-2.209 0-4-1.791-4-4s1.791-4 4-4 4 1.791 4 4-1.791 4-4 4z" fill="#222"/></g></g></svg>