<?xml version="1.0" encoding="UTF-8" standalone="no"?>
<svg width="106px" height="134px" viewBox="0 0 106 134" version="1.1" xmlns="http://www.w3.org/2000/svg" xmlns:xlink="http://www.w3.org/1999/xlink" xmlns:sketch="http://www.bohemiancoding.com/sketch/ns">
    <!-- Generator: Sketch 3.4.2 (15857) - http://www.bohemiancoding.com/sketch -->
    <title>files sync</title>
    <desc>Created with Sketch.</desc>
    <defs>
        <filter x="-50%" y="-50%" width="200%" height="200%" filterUnits="objectBoundingBox" id="filter-1">
            <feOffset dx="6" dy="0" in="SourceAlpha" result="shadowOffsetInner1"></feOffset>
            <feGaussianBlur stdDeviation="0" in="shadowOffsetInner1" result="shadowBlurInner1"></feGaussianBlur>
            <feComposite in="shadowBlurInner1" in2="SourceAlpha" operator="arithmetic" k2="-1" k3="1" result="shadowInnerInner1"></feComposite>
            <feColorMatrix values="0 0 0 0 0.82745098   0 0 0 0 0.82745098   0 0 0 0 0.847058824  0 0 0 0.7 0" in="shadowInnerInner1" type="matrix" result="shadowMatrixInner1"></feColorMatrix>
            <feOffset dx="-6" dy="0" in="SourceAlpha" result="shadowOffsetInner2"></feOffset>
            <feGaussianBlur stdDeviation="0" in="shadowOffsetInner2" result="shadowBlurInner2"></feGaussianBlur>
            <feComposite in="shadowBlurInner2" in2="SourceAlpha" operator="arithmetic" k2="-1" k3="1" result="shadowInnerInner2"></feComposite>
            <feColorMatrix values="0 0 0 0 1   0 0 0 0 1   0 0 0 0 1  0 0 0 0.35 0" in="shadowInnerInner2" type="matrix" result="shadowMatrixInner2"></feColorMatrix>
            <feMerge>
                <feMergeNode in="SourceGraphic"></feMergeNode>
                <feMergeNode in="shadowMatrixInner1"></feMergeNode>
                <feMergeNode in="shadowMatrixInner2"></feMergeNode>
            </feMerge>
        </filter>
        <filter x="-50%" y="-50%" width="200%" height="200%" filterUnits="objectBoundingBox" id="filter-2">
            <feOffset dx="4" dy="0" in="SourceAlpha" result="shadowOffsetInner1"></feOffset>
            <feGaussianBlur stdDeviation="0" in="shadowOffsetInner1" result="shadowBlurInner1"></feGaussianBlur>
            <feComposite in="shadowBlurInner1" in2="SourceAlpha" operator="arithmetic" k2="-1" k3="1" result="shadowInnerInner1"></feComposite>
            <feColorMatrix values="0 0 0 0 0.59931692   0 0 0 0 0.300506191   0 0 0 0 0.740858844  0 0 0 0.7 0" in="shadowInnerInner1" type="matrix" result="shadowMatrixInner1"></feColorMatrix>
            <feMerge>
                <feMergeNode in="SourceGraphic"></feMergeNode>
                <feMergeNode in="shadowMatrixInner1"></feMergeNode>
            </feMerge>
        </filter>
    </defs>
    <g id="Page-1" stroke="none" stroke-width="1" fill="none" fill-rule="evenodd" sketch:type="MSPage">
        <g id="Artboard-1" sketch:type="MSArtboardGroup" transform="translate(-1007.000000, -355.000000)">
            <g id="icons" sketch:type="MSLayerGroup" transform="translate(316.000000, 355.000000)">
                <g id="files-sync" transform="translate(691.000000, 0.000000)" sketch:type="MSShapeGroup">
                    <g id="files" transform="translate(28.000000, 6.000000)">
                        <path d="M0,9.99554691 C0,4.47515878 4.47801326,0 9.99426393,0 L51.9943848,0 L78,26.2036133 L78,94.0085874 C78,99.5266922 73.5262292,104 68.0023133,104 L9.99768668,104 C4.47611679,104 0,99.53125 0,94.0044531 L0,9.99554691 Z" id="Rectangle-4" stroke="#05486B" stroke-width="2" fill="#FFFFFF"></path>
                        <g id="picutre" transform="translate(10.000000, 10.000000)" stroke="#05486B" stroke-width="2" fill="#9169F3">
                            <path d="M0,2.00492334 C0,0.897634756 0.898310232,0 2.00629412,0 L46.0035087,0 L58,12 L58,41.9982567 C58,43.103789 57.1121679,44 56.0035087,44 L1.99649128,44 C0.893859594,44 0,43.1011449 0,41.9950767 L0,2.00492334 Z" id="Rectangle-6"></path>
                        </g>
                        <path d="M47.5000001,12 L56,12 L59,28 L50.8634744,28 C47.0728822,28 44.6542175,25.0092917 45.4640356,21.3072662 L47.5000001,12 Z" id="Rectangle-5" fill="#6C46DC"></path>
                        <path d="M50,2 L50,10 L48,10 L50,2 Z" id="Rectangle-109" fill="#E9E9EB"></path>
                        <path d="M50,0 L52,0 L78,26 L78,28 L59.9900582,28 C54.4727014,28 50,23.5323558 50,18.0099418 L50,0 Z" id="Rectangle-5" stroke="#05486B" stroke-width="2" fill="#E9E9EB"></path>
                    </g>
                    <g id="phone">
                        <rect id="Rectangle-14" stroke="#05486B" stroke-width="2" fill="#E9E9EB" filter="url(#filter-1)" x="0" y="44" width="54" height="90" rx="10"></rect>
                        <rect id="Rectangle-96" fill="#B46BD7" filter="url(#filter-2)" x="2" y="55" width="50" height="62"></rect>
                        <path d="M1,54 L53,54 L53,56 L1,56 L1,54 Z M1,116 L53,116 L53,118 L1,118 L1,116 Z M19,50 C19,49.4477153 19.4446309,49 20.0008717,49 L33.9991283,49 C34.5518945,49 35,49.4438648 35,50 C35,50.5522847 34.5553691,51 33.9991283,51 L20.0008717,51 C19.4481055,51 19,50.5561352 19,50 Z M27,128 C28.6568542,128 30,126.656854 30,125 C30,123.343146 28.6568542,122 27,122 C25.3431458,122 24,123.343146 24,125 C24,126.656854 25.3431458,128 27,128 Z M27,130 L27,130 C24.2385763,130 22,127.761424 22,125 C22,122.238576 24.2385763,120 27,120 C29.7614237,120 32,122.238576 32,125 C32,127.761424 29.7614237,130 27,130 L27,130 Z M52,67 C52,66.4477153 52.4498156,66 53.0016723,66 L94.9983277,66 C95.551536,66 96,66.4438648 96,67 C96,67.5522847 95.5501844,68 94.9983277,68 L53.0016723,68 C52.448464,68 52,67.5561352 52,67 Z M52,74 C52,73.4477153 52.4492188,73 53.0087752,73 L90.9912248,73 C91.548356,73 92,73.4438648 92,74 C92,74.5522847 91.5507812,75 90.9912248,75 L53.0087752,75 C52.451644,75 52,74.5561352 52,74 Z M52,81 C52,80.4477153 52.4498156,80 53.0016723,80 L94.9983277,80 C95.551536,80 96,80.4438648 96,81 C96,81.5522847 95.5501844,82 94.9983277,82 L53.0016723,82 C52.448464,82 52,81.5561352 52,81 Z M52,88 C52,87.4477153 52.4498156,87 53.0016723,87 L94.9983277,87 C95.551536,87 96,87.4438648 96,88 C96,88.5522847 95.5501844,89 94.9983277,89 L53.0016723,89 C52.448464,89 52,88.5561352 52,88 Z M52,95 C52,94.4477153 52.4547089,94 52.9999602,94 L68.0000398,94 C68.5523026,94 69,94.4438648 69,95 C69,95.5522847 68.5452911,96 68.0000398,96 L52.9999602,96 C52.4476974,96 52,95.5561352 52,95 Z M54,12 L54,20 C54,20.1146278 53.98685,20.3447514 53.9462721,20.6490863 C53.8783416,21.1585649 53.7565424,21.6660615 53.5715233,22.1286093 C53.086305,23.341655 52.296291,24 51,24 C49.703709,24 48.913695,23.341655 48.4284767,22.1286093 C48.2434576,21.6660615 48.1216584,21.1585649 48.0537279,20.6490863 C48.0131499,20.3447514 48,20.1146278 48,20 L48,7 C48,6.85584103 48.0168467,6.57281652 48.0686173,6.20006837 C48.1552756,5.57612825 48.3107692,4.95415388 48.5480769,4.38461538 C49.1852165,2.85548046 50.2545671,2 52,2 C53.7946737,2 54.8631121,2.71229226 55.4805728,3.9472136 C55.7055134,4.39709468 55.8531704,4.88928473 55.9354811,5.38314899 C55.9843258,5.67621732 56,5.89565614 56,6 L58,6 C58,5.23361275 57.8200798,4.15409166 57.2694272,3.0527864 C56.3243879,1.16270774 54.5803263,-6.66133815e-16 52,0 C49.3704329,6.66133815e-16 47.6272835,1.39451954 46.7019231,3.61538462 C46.1728426,4.88517772 46,6.12964455 46,7 L46,20 C46,20.741003 46.1403159,21.7933721 46.5715233,22.8713907 C47.3363051,24.783345 48.796291,26 51,26 C53.203709,26 54.6636949,24.783345 55.4284767,22.8713907 C55.8596841,21.7933721 56,20.741003 56,20 L56,12 L54,12 L54,12 Z" id="Rectangle-15" fill="#05486B"></path>
                        <path d="M21.5,92.0857864 L31.2928932,82.2928932 L32,81.5857864 L32.7071068,82.2928932 L48.7071068,98.2928932 L47.2928932,99.7071068 L32.0166786,84.4308922 L22.9145853,93.5003717 L25.7071068,96.2928932 L24.2928932,97.7071068 L17.0179298,90.4321434 L6.70710678,100.707107 L5.29289322,99.2928932 L16.2928932,88.2928932 L17,87.5857864 L17.7071068,88.2928932 L21.5,92.0857864 Z M62.5,42.0857864 L72.2928932,32.2928932 L73,31.5857864 L73.7071068,32.2928932 L89.7071068,48.2928932 L88.2928932,49.7071068 L73.0166786,34.4308922 L63.9145853,43.5003717 L66.7071068,46.2928932 L65.2928932,47.7071068 L58.0179298,40.4321434 L50.7071068,47.7071068 L49.2928932,46.2928932 L57.2928932,38.2928932 L58,37.5857864 L58.7071068,38.2928932 L62.5,42.0857864 Z M62,35 C65.3137085,35 68,32.3137085 68,29 C68,25.6862915 65.3137085,23 62,23 C58.6862915,23 56,25.6862915 56,29 C56,32.3137085 58.6862915,35 62,35 Z M21,85 C24.3137085,85 27,82.3137085 27,79 C27,75.6862915 24.3137085,73 21,73 C17.6862915,73 15,75.6862915 15,79 C15,82.3137085 17.6862915,85 21,85 Z M62,33 C59.790861,33 58,31.209139 58,29 C58,26.790861 59.790861,25 62,25 C64.209139,25 66,26.790861 66,29 C66,31.209139 64.209139,33 62,33 Z M21,83 C18.790861,83 17,81.209139 17,79 C17,76.790861 18.790861,75 21,75 C23.209139,75 25,76.790861 25,79 C25,81.209139 23.209139,83 21,83 Z" id="Path" fill="#05486B"></path>
                    </g>
                </g>
            </g>
        </g>
    </g>
</svg>