<?xml version="1.0" encoding="utf-8"?>
<!-- Generator: Adobe Illustrator 16.0.4, SVG Export Plug-In . SVG Version: 6.00 Build 0)  -->
<!DOCTYPE svg PUBLIC "-//W3C//DTD SVG 1.1//EN" "http://www.w3.org/Graphics/SVG/1.1/DTD/svg11.dtd">
<svg version="1.1" id="Layer_1" xmlns:sketch="http://www.bohemiancoding.com/sketch/ns"
	 xmlns="http://www.w3.org/2000/svg" xmlns:xlink="http://www.w3.org/1999/xlink" x="0px" y="0px" width="130px" height="130px"
	 viewBox="0 0 130 130" enable-background="new 0 0 130 130" xml:space="preserve">
<title>stand-for-tinkerers</title>
<desc>Created with Sketch.</desc>
<g transform="translate(-315 -360) translate(315 372)" sketch:type="MSLayerGroup">
	<path id="Shape" sketch:type="MSShapeGroup" fill="#222222" d="M124,7.195c3.562,1.818,6,5.522,6,9.798v74.014
		c0,6.069-4.926,10.993-10.991,10.993H10.99c-6.071,0-10.991-4.919-10.991-10.993V16.993c0-4.271,2.44-7.976,6-9.795V3.007
		C5.999,1.346,7.341,0,9.002,0H60c2.105,0,3.708,0.935,4.818,2.456c0.65,0.891-0.286,0.891,0.364,0C66.292,0.935,67.895,0,70,0
		h50.997C122.654,0,124,1.348,124,3.007V7.195L124,7.195z"/>
	<path sketch:type="MSShapeGroup" fill="#FFAE5F" d="M12,8h106c5.523,0,10,4.477,10,10v72c0,5.523-4.477,10-10,10H12
		c-5.523,0-10-4.477-10-10V18C2,12.477,6.477,8,12,8z"/>
	<path sketch:type="MSShapeGroup" fill="#EB8C2F" d="M2,93V17c0,0,1.101-3.801,2-5c1.101-1.467,4-3,4-3v86H3C3,95,2,93.408,2,93z"/>
	<path id="Shape_1_" sketch:type="MSShapeGroup" fill="#222222" d="M3,16.993v74.014C3,95.424,6.576,99,10.991,99H119.01
		c4.408,0,7.991-3.581,7.991-7.993V16.993c0-4.417-3.576-7.993-7.991-7.993H10.991C6.583,9,3,12.581,3,16.993z M1,16.993
		C1,11.474,5.481,7,10.991,7H119.01c5.518,0,9.991,4.471,9.991,9.993v74.014c0,5.519-4.481,9.993-9.991,9.993H10.991
		C5.473,101,1,96.529,1,91.007V16.993z"/>
	<path sketch:type="MSShapeGroup" fill="#FFFFFF" d="M8,5.009C8,3.347,9.337,2,10.997,2H60c4.028,0,5,4.091,5,4.091S65.973,2,70,2
		h49.003C120.658,2,122,3.336,122,5.009v85.983c0,1.662-1.338,3.009-3.001,3.009H70c0,0-0.973-5-5-5c-4.028,0-5,5-5,5H11.001
		C9.343,94.001,8,92.665,8,90.992V5.009L8,5.009z"/>
	<path sketch:type="MSShapeGroup" fill="#E9E9EB" d="M72,78V1h-1c-1.089,0-4,2-4,2l-2,4v71H8v16h51c0,0,2-5,6-5c0,0,2.885,0.45,4,2
		c1.041,1.447,2,4,2,4h1v-1h50V78H72z"/>
	<g>
		<path fill="#222222" d="M123.002,2.999L123,2.997V1h-1.997l-0.001-0.001V1H70c-1.832,0-3.032,0.846-3.796,1.769
			C66,3,65,5.091,65,5.091S64,3,63.796,2.769C63.032,1.846,61.832,1,60,1H9.001L9,1.001V1H7v91.993C7,94.1,7.894,95,8.997,95H60
			c0,0,0.972-5,5-5c4.027,0,5,5,5,5h51.003c1.099,0,1.997-0.898,1.997-2.007V2.999H123.002z M121.005,92.999h-49.59
			c0,0,0.013-0.354-0.687-1.524c-1.263-2.115-3.17-3.476-5.728-3.476c-2.558,0-4.465,1.36-5.728,3.476
			c-0.323,0.541-0.577,1.076-0.773,1.577C58.037,93,9,92.998,9,92.993V2.999h51.002c1.076,0,1.816,0.432,2.395,1.225
			c0.379,0.52,0.594,1.054,0.659,1.329l1.946,8.188l1.946-8.188c0.065-0.275,0.28-0.809,0.659-1.329
			c0.578-0.793,1.318-1.225,2.395-1.225h51C121.002,16.396,121,92.999,121.005,92.999z"/>
	</g>
	<g>
		<path fill="#222222" d="M44,27h15c0.545,0,1-0.448,1-1c0-0.556-0.448-1-1-1H44c-0.545,0-1,0.448-1,1C43,26.556,43.448,27,44,27z"
			/>
		<path fill="#222222" d="M44,23h15c0.545,0,1-0.448,1-1c0-0.556-0.448-1-1-1H44c-0.545,0-1,0.448-1,1C43,22.556,43.448,23,44,23z"
			/>
		<polygon fill="#222222" points="51.293,59.293 52.707,60.707 56.707,56.707 57.414,56 56.707,55.293 52.707,51.293 51.293,52.707 
			54.582,56.003 54.582,56.004 		"/>
		<path fill="#222222" d="M43.997,31h6.006C50.547,31,51,30.552,51,30c0-0.556-0.446-1-0.997-1h-6.006C43.453,29,43,29.448,43,30
			C43,30.556,43.446,31,43.997,31z"/>
		<path fill="#222222" d="M89.993,63H78.007C77.45,63,77,63.448,77,64c0,0.557,0.451,1,1.007,1h11.986C90.55,65,91,64.552,91,64
			C91,63.443,90.549,63,89.993,63z"/>
		<rect x="88" y="38.001" fill="#222222" width="14" height="2"/>
		<polygon fill="#222222" points="105,59.014 107,59.014 107,16.001 89,16.001 89,18.001 105,18.001 		"/>
		<path fill="#222222" d="M44.007,19h11.986C56.55,19,57,18.552,57,18c0-0.556-0.451-1-1.007-1H44.007C43.45,17,43,17.448,43,18
			C43,18.556,43.451,19,44.007,19z"/>
		
			<rect x="39.719" y="55.001" transform="matrix(-0.2747 0.9615 -0.9615 -0.2747 113.757 26.1935)" fill="#222222" width="14.561" height="2"/>
		<path fill="#222222" d="M73.993,61h16.013c0.549,0,0.993-0.448,0.993-1c0-0.557-0.444-1-0.993-1H73.993C73.445,59,73,59.448,73,60
			C73,60.557,73.443,61,73.993,61z"/>
		<path fill="#222222" d="M58.999,85.001H7V87h51.999c0.768,0,1.513,0.426,2.2,1.176c0.259,0.282,0.488,0.588,0.684,0.895
			l0.222,0.378l1.789-0.894c-0.226-0.451-0.632-1.088-1.22-1.729C61.643,85.7,60.419,85.001,58.999,85.001z"/>
		<path fill="#222222" d="M72.499,89c-1.272,0-2.224,0.68-2.856,1.736c-0.351,0.584-0.541,1.152-0.623,1.568l1.961,0.391
			c0.041-0.209,0.164-0.577,0.377-0.932C71.661,91.258,72.021,91,72.5,91h50.001v-2H122.5H72.499z"/>
		<path fill="#222222" d="M67.326,86.824c-0.588,0.641-0.994,1.277-1.221,1.729l1.789,0.895l0.223-0.379
			c0.195-0.305,0.425-0.611,0.684-0.894c0.688-0.75,1.432-1.176,2.2-1.176H123V85H71.001C69.581,85,68.357,85.699,67.326,86.824z"/>
		<path fill="#222222" d="M69,81c-1.122,0-2.121,0.438-3,1.175V79h56v-2H66V9h-2v68H7v2h57v3.175C63.121,81.438,62.122,81,61,81H7v2
			h54c0.768,0,1.513,0.426,2.2,1.176c0.259,0.282,0.488,0.588,0.684,0.895L64,85.258V89h2v-3.742l0.116-0.188
			c0.194-0.307,0.425-0.612,0.684-0.895C67.488,83.426,68.232,83,69,83h54v-2H69z"/>
		<path fill="#222222" d="M57.002,89H7.001v2h50c0.477,0,0.839,0.258,1.143,0.764c0.212,0.354,0.335,0.723,0.377,0.932l1.961-0.391
			c-0.083-0.416-0.273-0.986-0.623-1.568C59.225,89.68,58.274,89,57.002,89z"/>
		<path fill="#222222" d="M16.007,63h12.985c0.558,0,1.007-0.448,1.007-1c0-0.557-0.451-1-1.007-1H16.007C15.449,61,15,61.448,15,62
			C15,62.557,15.451,63,16.007,63z"/>
		<path fill="#222222" d="M15.997,51h6.006C22.547,51,23,50.552,23,50c0-0.556-0.446-1-0.997-1h-6.006C15.453,49,15,49.448,15,50
			C15,50.556,15.446,51,15.997,51z"/>
		<path fill="#222222" d="M16,55h15c0.545,0,1-0.448,1-1c0-0.556-0.448-1-1-1H16c-0.545,0-1,0.448-1,1C15,54.557,15.448,55,16,55z"
			/>
		<path fill="#222222" d="M16,59h15c0.545,0,1-0.448,1-1c0-0.557-0.448-1-1-1H16c-0.545,0-1,0.448-1,1C15,58.557,15.448,59,16,59z"
			/>
		<polygon fill="#222222" points="41.293,60.707 42.707,59.293 39.408,56.007 42.707,52.708 41.293,51.294 37.293,55.294 
			37.293,55.293 36.586,56 37.293,56.707 		"/>
	</g>
	<path sketch:type="MSShapeGroup" fill="#FFAE5F" d="M97,17c0-3.314,2.695-6,5.994-6h6.013c3.31,0,5.994,2.693,5.994,6
		c0,3.314-2.694,6-5.994,6h-6.013C99.684,23,97,20.307,97,17z M71,39c0-3.314,2.677-6,6.001-6H85c3.314,0,6.001,2.693,6.001,6
		c0,3.314-2.677,6-6.001,6h-7.999C73.688,45,71,42.307,71,39z"/>
	<path sketch:type="MSShapeGroup" fill="#FFAE5F" d="M99,39c0-3.866,3.143-7,7-7c3.866,0,7,3.142,7,7c0,3.866-3.143,7-7,7
		C102.134,46,99,42.858,99,39z M99,56.007C99,55.451,99.45,55,100.007,55h11.986c0.556,0,1.007,0.45,1.007,1.007v11.986
		c0,0.556-0.45,1.007-1.007,1.007h-11.986C99.451,69,99,68.55,99,67.993V56.007z M72,12.003c0-0.554,0.445-1.002,0.993-1.002h16.013
		c0.549,0,0.993,0.456,0.993,1.002v9.995c0,0.554-0.444,1.002-0.993,1.002H72.993C72.443,23,72,22.544,72,21.998V12.003z M15,14.003
		c0-0.554,0.451-1.002,1.003-1.002h23.993c0.554,0,1.003,0.439,1.003,1.002v19.995c0,0.554-0.451,1.002-1.003,1.002H16.003
		C15.449,35,15,34.561,15,33.998V14.003z"/>
	<path id="Shape_3_" sketch:type="MSShapeGroup" fill="#222222" d="M99,17c0,2.206,1.791,4,3.994,4h6.013
		c2.198,0,3.994-1.795,3.994-4c0-2.206-1.791-4-3.994-4h-6.013C100.796,13,99,14.795,99,17z M97,17c0-3.314,2.695-6,5.994-6h6.013
		c3.31,0,5.994,2.693,5.994,6c0,3.314-2.694,6-5.994,6h-6.013C99.684,23,97,20.307,97,17z M73,39c0,2.205,1.794,4,4.001,4H85
		c2.216,0,4.001-1.787,4.001-4c0-2.205-1.794-4-4.001-4h-7.999C74.785,35,73,36.787,73,39z M71,39c0-3.314,2.677-6,6.001-6H85
		c3.314,0,6.001,2.693,6.001,6c0,3.314-2.677,6-6.001,6h-7.999C73.688,45,71,42.307,71,39z"/>
	<g>
		<path fill="#222222" d="M106,46c3.857,0,7-3.134,7-7c0-3.858-3.134-7-7-7c-3.857,0-7,3.134-7,7C99,42.858,102.134,46,106,46z
			 M106,34c2.758,0,5,2.243,5,5c0,2.758-2.243,5-5,5c-2.758,0-5-2.243-5-5C101,36.242,103.243,34,106,34z"/>
		<path fill="#222222" d="M111.993,55h-11.986C99.45,55,99,55.451,99,56.007v11.986C99,68.55,99.451,69,100.007,69h11.986
			c0.557,0,1.007-0.451,1.007-1.007V56.007C113,55.45,112.549,55,111.993,55z M111,57v10h-10V57H111z"/>
		<path fill="#222222" d="M89.006,11.001H72.993c-0.548,0-0.993,0.448-0.993,1.002v9.995C72,22.544,72.443,23,72.993,23h16.013
			c0.549,0,0.993-0.448,0.993-1.002v-9.995C89.999,11.457,89.555,11.001,89.006,11.001z M87.999,13.001V21H74v-7.999H87.999z"/>
		<path fill="#222222" d="M39.996,13.001H16.003c-0.552,0-1.003,0.448-1.003,1.002v19.995C15,34.561,15.449,35,16.003,35h23.993
			c0.552,0,1.003-0.448,1.003-1.002V14.003C40.999,13.44,40.55,13.001,39.996,13.001z M38.999,15.001V33H17V15.001H38.999z"/>
	</g>
</g>
<g>
	<rect x="31" y="39" fill="#222222" width="6" height="2"/>
	<rect x="31" y="35" fill="#222222" width="6" height="2"/>
	<path fill="#222222" d="M19,43h10v-9H19V43z M21,36h6v5h-6V36z"/>
	<polygon fill="#222222" points="23.5,30 19.5,30 17,30 17,32 39,32 39,30 	"/>
	<circle fill="#222222" cx="19.5" cy="28.5" r="1.5"/>
	<circle fill="#222222" cx="23.5" cy="28.5" r="1.5"/>
</g>
</svg>
