<svg xmlns="http://www.w3.org/2000/svg" width="130" height="130" viewBox="0 0 130 130"><title>stand-for-synccontactscalendar</title><path d="M117.346 76.24H104.95v-.254c2.202-.064 4.968-1.232 6.503-2.77l6.62-6.64c1.58-1.586 2.776-4.48 2.776-6.717v-3.215c.903-.184 1.777-.455 2.58-.858 2.95-1.48 4.567-4.188 4.567-7.882s-1.617-6.403-4.564-7.882c-.342-.17-.7-.3-1.062-.43l5.07-29.75c.92-5.38-2.88-9.843-8.36-9.843h-4.74c-3.538 0-6.23 1.364-7.91 3.88C104.745 1.363 102.055 0 98.516 0H62.122c-5.595 0-8.867 4.542-7.067 9.82l10.323 30.29c-2.924 1.483-4.53 4.184-4.53 7.86 0 3.693 1.618 6.403 4.567 7.882.803.403 1.677.675 2.584.858v2.646C66.474 58.5 64.7 58 62.802 58H61v-4.007C61 51.243 58.755 49 56 49c-2.76 0-5 2.236-5 4.993V58H25v-4.007C25 51.243 22.755 49 20 49c-2.76 0-5 2.236-5 4.993V58h-1.804C7.574 58 3 62.288 3 67.618v52.764C3 125.707 7.58 130 13.196 130h49.607C68.426 130 73 125.713 73 120.382V111h52.213c.984 0 1.787-.795 1.787-1.78V85.812c0-5.29-4.324-9.572-9.654-9.572zM73 68.807l4.396 4.41c1.568 1.572 4.427 2.766 6.65 2.78v.243H73v-7.433z"/><path fill="#FF801C" d="M57.435 11.252c-1.782-5.228 1.245-9.465 6.774-9.465h34.306L102.668 3l2.416 2.584 1.343 4.073s0-7.87 7.912-7.87H120c3.865 0 6.475 3.082 5.824 6.9l-6.736 39.525H70.033l-12.598-36.96z"/><path fill="#EF710D" d="M56.494 10.238c-1.7-4.668.944-8.45 5.927-8.45h32.14v45.638H70.035l-13.54-37.188z"/><path d="M119.08 1h-4.74c-3.77 0-6.264 1.653-7.63 4.37-.103.204-.194.412-.28.622-.088-.21-.18-.418-.28-.623C104.782 2.65 102.29 1 98.517 1H62.122c-4.912 0-7.7 3.87-6.12 8.5l13.28 38.965c.11.32.41.534.75.534h49.055c.386 0 .716-.278.78-.656l6.59-38.67C127.27 4.91 123.945 1 119.08 1zm5.818 8.413l-6.48 38.013H70.602L57.5 8.994c-1.23-3.61.795-6.42 4.622-6.42h36.394c3.15 0 5.108 1.298 6.217 3.5.395.784.65 1.633.79 2.482.053.297.083.573.103.818.01.142.014.24.014.282 0 1.05 1.584 1.05 1.584 0 0-.043.002-.14.014-.282.018-.245.05-.52.1-.818.143-.85.396-1.698.792-2.482 1.106-2.2 3.063-3.5 6.216-3.5h4.74c3.88 0 6.46 3.033 5.812 6.84z"/><path d="M106.43 17.524c-.438 0-.793.896-.793 2v.722c0 1.104.355 2 .793 2s.79-.896.79-2v-.722c0-1.104-.357-2-.79-2z"/><path fill="#FFF" d="M63.788 88.02c0-5.52 4.476-10 9.994-10H85.84v-6.24h17.323v6.24h12.058c5.522 0 9.993 4.47 9.993 10v21.198H63.788V88.02z"/><path fill="#D3D3D8" d="M63.788 88.02c0-5.52 4.48-10 9.996-10h6.937c0 7.8 27.956 7.8 27.956 0h6.534c5.524 0 10.004 4.472 10.004 10v21.2H63.788v-21.2zM86.625 74.9h15.75v1.56h-15.75V74.9z"/><path d="M117.346 77.24H103.95v-5.46c0-.43-.353-.78-.788-.78H85.838c-.436 0-.788.35-.788.78v5.46H71.654c-1.44 0-2.797.354-3.99.973-.044.02-.09.04-.13.062l-.043.025C64.814 79.76 63 82.574 63 85.812v23.407c0 .43.353.78.788.78h61.425c.434 0 .787-.353.787-.78V85.81c0-4.734-3.875-8.572-8.654-8.572zm-30.72.78v-5.46h15.75v5.46c0 .434.353.78.786.78h4.57c-.922 2.525-6.265 4.29-13.035 4.29-6.773 0-12.114-1.765-13.035-4.29h4.176c.433 0 .787-.35.788-.78zm-6.616.78c.756 3.73 6.94 5.85 14.688 5.85 7.747 0 13.932-2.12 14.687-5.85h7.953c3.67 0 6.688 2.76 7.05 6.296.024.235.037.475.037.717v22.627h-9.616c.103-.34.165-.758.165-1.22v-6.14c0-1.104-.352-2-.787-2-.435 0-.787.896-.787 2v6.14c0 .462.065.88.17 1.22H75.433c.104-.34.166-.758.166-1.22v-6.14c0-1.104-.352-2-.787-2-.435 0-.787.896-.787 2v6.14c0 .462.063.88.168 1.22h-9.617V85.812c0-2.736 1.59-5.104 3.898-6.258.96-.48 2.045-.756 3.195-.756l8.34.002z"/><g><path fill="#FFF" d="M72.615 65.877c-1.56-1.563-2.82-4.63-2.82-6.828V35.95h24.63c11.917 0 11.917-11.156 11.917-11.156s.795 11.156 12.713 11.156V59.05c0 2.207-1.266 5.266-2.82 6.827l-5.48 5.496c-1.56 1.562-4.612 2.83-6.82 2.83H84.92c-2.21 0-5.266-1.27-6.82-2.83l-5.483-5.496zm53.59-17.97c0-7.173-7.15-7.173-7.15-7.173v14.344s7.15 0 7.15-7.172z"/><path fill="#FFF" d="M63.055 47.906c0-7.172 7.15-7.172 7.15-7.172v14.344s-7.15 0-7.15-7.172z"/><path d="M122.984 40.918c-.857-.43-1.77-.705-2.684-.857-.162-.025-.312-.046-.45-.063v-4.042c0-.44-.357-.797-.8-.797-4.93 0-8.175-1.94-10.145-5.195-.693-1.146-1.178-2.38-1.484-3.615-.104-.43-.187-.83-.235-1.187-.03-.207-.047-.35-.052-.42-.07-1.02-1.588-.967-1.588.06 0 .066-.005.21-.02.417-.028.355-.077.754-.154 1.184-.22 1.23-.61 2.46-1.223 3.6-1.727 3.23-4.812 5.158-9.728 5.158H69.794c-.44 0-.795.356-.795.796v4.105c-.143.016-.29.037-.453.064-.912.152-1.824.427-2.684.857-2.494 1.25-4.014 3.54-4.014 6.99s1.52 5.736 4.01 6.987c.862.43 1.772.705 2.686.857.163.03.31.05.453.066v3.98c0 1.97 1.09 4.61 2.482 6.008l6.62 6.64C79.5 73.908 82.13 75 84.1 75h20.657c1.966 0 4.6-1.095 5.99-2.49l6.62-6.642c1.394-1.397 2.484-4.037 2.484-6.01v-4.04c.14-.018.29-.04.45-.066.91-.152 1.824-.427 2.684-.857 2.496-1.252 4.016-3.538 4.016-6.99 0-3.452-1.52-5.736-4.016-6.987zM66.574 53.53c-1.974-.99-3.136-2.737-3.136-5.562 0-2.823 1.162-4.574 3.136-5.562.705-.354 1.47-.583 2.232-.71.07-.013.125-.015.19-.024v12.595c-.065-.01-.122-.012-.19-.023-.766-.13-1.53-.36-2.233-.714h.002zm51.686 6.33c0 1.548-.923 3.783-2.018 4.88l-6.62 6.642c-1.095 1.1-3.325 2.024-4.868 2.024H84.096c-1.545 0-3.77-.926-4.867-2.024l-6.622-6.64c-1.094-1.1-2.02-3.334-2.02-4.883V36.75h23.837c5.513 0 9.13-2.258 11.128-6 .38-.707.678-1.442.915-2.187.294.758.647 1.506 1.083 2.226 2.14 3.53 5.65 5.706 10.712 5.92v23.148l-.002.002zm4.015-6.39c-.705.354-1.47.582-2.234.71-.067.012-.123.014-.188.023V41.61c.065.01.12.01.19.022.767.128 1.528.358 2.233.71 1.975.99 3.137 2.74 3.137 5.563 0 2.823-1.16 4.574-3.135 5.562l-.002.003z"/><path d="M99.986 55.875c-.44 0-.795.357-.795.797 0 .222-.12.636-.497 1.07-.705.807-2.05 1.32-4.27 1.32-2.22 0-3.563-.513-4.27-1.32-.38-.434-.497-.848-.497-1.07 0-.44-.356-.797-.796-.797s-.795.357-.795.797c0 .575.23 1.356.894 2.12 1.032 1.183 2.814 1.865 5.463 1.865s4.432-.682 5.465-1.866c.666-.76.894-1.54.894-2.117 0-.44-.354-.797-.794-.797h-.002zm-7.01-12.272c.214-.286.645-.478 1.45-.478s1.235.192 1.45.478c.103.14.14.277.14.32h1.588c0-.357-.115-.82-.457-1.276-.528-.71-1.438-1.116-2.722-1.116-1.28 0-2.19.407-2.722 1.118-.342.457-.457.918-.457 1.275h1.59c0-.042.033-.178.14-.32z"/><path fill="#FFF" d="M82.507 53.484c5.267 0 9.534-4.28 9.534-9.562 0-5.282-4.267-9.56-9.532-9.56s-9.533 4.28-9.533 9.56 4.267 9.563 9.532 9.562zm23.835 0c5.266 0 9.535-4.28 9.535-9.562 0-5.282-4.27-9.56-9.535-9.56-5.265 0-9.533 4.28-9.533 9.56s4.265 9.563 9.532 9.562z"/><path d="M106.342 33.563c-5.703 0-10.328 4.637-10.328 10.358 0 5.722 4.625 10.36 10.328 10.36 5.705 0 10.33-4.636 10.33-10.357 0-5.72-4.625-10.36-10.33-10.36zm0 19.124c-4.826 0-8.74-3.923-8.74-8.765 0-4.842 3.914-8.766 8.74-8.766 4.828 0 8.74 3.924 8.74 8.766 0 4.842-3.912 8.766-8.74 8.765zM82.507 33.563c-5.704 0-10.33 4.637-10.33 10.358 0 5.722 4.626 10.36 10.33 10.36s10.33-4.636 10.33-10.357c0-5.72-4.626-10.36-10.33-10.36zm0 19.124c-4.827 0-8.74-3.923-8.74-8.765 0-4.842 3.913-8.766 8.74-8.766s8.74 3.924 8.74 8.766c0 4.842-3.913 8.766-8.74 8.765z"/><path d="M82.507 42.328c-1.354 0-2.294.628-2.796 1.636-.287.58-.38 1.14-.38 1.553 0 .44.355.796.794.796.44 0 .795-.357.795-.797 0-.185.055-.52.213-.838.242-.486.645-.755 1.375-.755s1.133.268 1.375.754c.158.318.215.654.215.84 0 .44.354.796.795.796.44 0 .795-.357.795-.797 0-.41-.094-.972-.383-1.55-.502-1.01-1.44-1.637-2.796-1.637l-.003-.002zm23.835 0c-1.354 0-2.293.628-2.795 1.636-.29.58-.383 1.14-.383 1.553 0 .44.355.796.795.796.437 0 .793-.357.793-.797 0-.185.056-.52.213-.838.243-.486.646-.755 1.375-.755s1.135.268 1.376.754c.16.318.216.654.216.84 0 .44.354.796.795.796.438 0 .793-.357.793-.797 0-.41-.092-.972-.38-1.55-.503-1.01-1.443-1.637-2.798-1.638z"/></g><g><path fill="#D3D3D8" d="M4 119.766C4 124.863 8.12 129 13.196 129h49.607c5.085 0 9.197-4.13 9.197-9.234V78.234C72 73.137 67.88 69 62.804 69H13.196C8.11 69 4 73.13 4 78.234v41.532z"/><path d="M4 120.382c0 4.76 4.12 8.618 9.196 8.618h49.607c5.085 0 9.197-3.855 9.197-8.618V67.618C72 62.86 67.88 59 62.804 59H13.196C8.11 59 4 62.856 4 67.618v52.764zM13.48 68h49.04c4.13 0 7.48 3.364 7.48 7.508v43.984c0 4.15-3.343 7.508-7.48 7.508H13.48C9.35 127 6 123.636 6 119.492V75.508C6 71.358 9.343 68 13.48 68z"/><path fill="#FFF" d="M15 68h46c5.523 0 10 4.477 10 10v37c0 5.523-4.477 10-10 10H15c-5.523 0-10-4.477-10-10V78c0-5.523 4.477-10 10-10z"/><path d="M4 116.01c0 4.965 4.117 8.99 9.196 8.99h49.607c5.085 0 9.197-4.02 9.197-8.99V67.99c0-4.964-4.117-8.99-9.196-8.99H13.196C8.11 59 4 63.022 4 67.99v48.02zM13.48 61h49.04c4.13 0 7.48 3.27 7.48 7.3v47.4c0 4.034-3.343 7.3-7.48 7.3H13.48C9.35 123 6 119.73 6 115.7V68.3c0-4.034 3.343-7.3 7.48-7.3z"/><path fill="#FF801C" d="M6 68s.332-7 7.48-7h49.04S70 60.492 70 68v11H6V68z"/><path fill="#E9E9EB" d="M48 101H27v22h22v-21h21V80H48v21zM6 80h21v22H6V80z"/><path d="M5 81h21v20H5v2h21v22h2v-22h20v21h2v-21h21v-2H50V81h21v-2H5v2zm23 0h20v20H28V81zM5 73h66v2H5v-2z"/><path fill="#FFF" d="M17 53.993C17 52.34 18.347 51 20 51c1.657 0 3 1.353 3 2.993v12.015C23 67.66 21.653 69 20 69c-1.657 0-3-1.354-3-2.992V53.993zm36 0C53 52.34 54.347 51 56 51c1.657 0 3 1.353 3 2.993v12.015C59 67.66 57.653 69 56 69c-1.657 0-3-1.354-3-2.992V53.993z"/><path d="M18 53.993c0-1.1.897-1.993 2-1.993 1.1 0 2 .9 2 1.993v12.015C22 67.105 21.103 68 20 68c-1.1 0-2-.9-2-1.992V53.993zm-2 0v12.015C16 68.203 17.795 70 20 70c2.206 0 4-1.788 4-3.992V53.993C24 51.796 22.205 50 20 50c-2.206 0-4 1.788-4 3.993zm38 0c0-1.1.897-1.993 2-1.993 1.1 0 2 .9 2 1.993v12.015C58 67.105 57.103 68 56 68c-1.1 0-2-.9-2-1.992V53.993zm-2 0v12.015C52 68.203 53.795 70 56 70c2.206 0 4-1.788 4-3.992V53.993C60 51.796 58.205 50 56 50c-2.206 0-4 1.788-4 3.993z"/><path fill="#FF801C" d="M38 97c3.313 0 6-2.688 6-6s-2.687-6-6-6-6 2.688-6 6 2.687 6 6 6zm17 11h10v10H55v-10zm-39 0l6 10H10l6-10zm44-13.5l-4.114 2.163.786-4.58-3.33-3.246 4.6-.67L60 84l2.057 4.168 4.6.67-3.33 3.244.787 4.58L60 94.5z"/><path d="M16.857 107.484c-.388-.646-1.327-.646-1.715 0l-6 10c-.4.668.08 1.516.858 1.516h12c.777 0 1.257-.848.857-1.516l-6-10zM20.234 117h-8.468L16 109.943 20.234 117zM65 107H55c-.552 0-1 .447-1 1v10c0 .553.448 1 1 1h10c.553 0 1-.447 1-1v-10c0-.553-.447-1-1-1zm-1 2v8h-8v-8h8zm2.8-21.152l-4.08-.594-1.823-3.695c-.367-.745-1.427-.745-1.794 0l-1.824 3.694-4.08.594c-.82.12-1.15 1.127-.556 1.705l2.952 2.88-.697 4.062c-.14.815.716 1.44 1.45 1.055L60 95.63l3.65 1.92c.733.384 1.59-.24 1.45-1.056l-.697-4.062 2.953-2.877c.595-.578.267-1.587-.555-1.705v-.002zm-7.265 5.767l-2.32 1.22.442-2.585c.056-.324-.052-.654-.288-.885l-1.88-1.83 2.595-.377c.326-.047.607-.252.753-.547L60 86.26l1.16 2.352c.147.297.428.5.754.55l2.595.375-1.88 1.83c-.235.23-.342.56-.287.885l.443 2.586-2.32-1.22c-.293-.156-.64-.156-.93-.003zM38 84c-3.866 0-7 3.134-7 7s3.134 7 7 7 7-3.134 7-7-3.134-7-7-7zm0 12c-2.76 0-5-2.238-5-5s2.24-5 5-5 5 2.238 5 5-2.24 5-5 5z"/></g></svg>