<?xml version="1.0" encoding="utf-8"?>
<!-- Generator: Adobe Illustrator 17.1.0, SVG Export Plug-In . SVG Version: 6.00 Build 0)  -->
<!DOCTYPE svg PUBLIC "-//W3C//DTD SVG 1.1//EN" "http://www.w3.org/Graphics/SVG/1.1/DTD/svg11.dtd">
<svg version="1.1" id="Calque_1" xmlns="http://www.w3.org/2000/svg" xmlns:xlink="http://www.w3.org/1999/xlink" x="0px" y="0px"
	 viewBox="0 0 401 82" enable-background="new 0 0 401 82" xml:space="preserve">
<path fill="#FFFFFF" d="M80.2,0h79.5c0,27.3,0,54.7,0,82H80.2C80.2,54.7,80.2,27.3,80.2,0 M100.6,12.3c0,3.4,0,6.7,0,10.1
	c4.6,0,9.1,0,13.7,0c0,12.4,0,24.8,0,37.2c-4.6,0-9.1,0-13.7,0c0,3.4,0,6.7,0,10.1c12.9,0,25.8,0,38.8,0c0-3.3,0-6.7,0-10.1
	c-4.6,0-9.1,0-13.7,0c0-12.4,0-24.8,0-37.2c4.6,0,9.1,0,13.7,0c0-3.4,0-6.7,0-10.1C126.5,12.3,113.5,12.3,100.6,12.3z"/>
<path fill="#FFFFFF" d="M240,0h79.8c0,27.3,0,54.7,0,82H240C240,54.7,240,27.3,240,0 M254.3,12.3c0,3.3,0,6.7,0,10
	c2.5,0,5.1,0,7.6,0c0,12.4,0,24.8,0,37.2c-2.5,0-5.1,0-7.6,0c0,3.3,0,6.7,0,10.1c16.1,0,32.1,0,48.2,0c0.1-6.6,0-13.3,0-19.9
	c-3.5,0-7,0-10.5,0c0,3.3,0,6.5,0,9.8c-6.4,0-12.7,0-19.1,0c-0.1-4.9,0-9.8,0-14.7c5,0,10,0,15,0c0-3.2,0-6.4,0-9.6c-5,0-10,0-15,0
	c0-4.3,0-8.6,0-12.9c6.2,0,12.4,0,18.6,0c0,2.9,0,5.7,0,8.6c3.4,0,6.9,0,10.3,0c0-6.2,0-12.4,0-18.7C286,12.3,270.2,12.3,254.3,12.3
	z"/>
<path fill="#FFFFFF" d="M5.9,12.9c3.7,0,7.3,0,11,0c2.3,15.2,4.9,30.3,7.6,45.4c0.4-1.1,0.8-2.3,1.1-3.5C28.2,42,31,29.2,33.7,16.4
	c0.3-1.3,0.7-3.3,2.4-3.4c3-0.2,5.9-0.2,8.9,0c2.4,1.1,2.1,4.3,2.8,6.6c2.9,12.9,5.1,26,8.5,38.9c3-15.1,5.1-30.4,7.8-45.5
	c3.4,0,6.7,0,10.1,0c-3.7,17.4-7,34.9-10.5,52.3c-0.4,1.4-0.4,3.1-1.8,3.9c-3.8,0.5-7.7,0.5-11.5,0c-1.3-0.8-1.4-2.5-1.8-3.9
	c-2.8-12.8-5.2-25.7-8.2-38.4c-0.5,1-0.9,2.1-1,3.2c-2.4,11.9-5,23.7-7.4,35.6c-0.4,1.4-0.8,3.7-2.7,3.7c-3.5,0.2-7.1,0.4-10.6-0.2
	c-1.9-1.3-1.5-4-2.2-6C12.7,46.3,9.5,29.5,5.9,12.9z"/>
<path fill="#FFFFFF" d="M177.9,12.9c11,0,22.1,0,33.1,0c3.4,0,7.5,0.4,9.7,3.4c2.7,3.6,2.6,8.3,2.7,12.6c0,3.7-0.2,7.7-2.6,10.7
	c-1.6,2.2-4.5,2.3-6.8,3.5c3,0.9,6.9,1.7,7.9,5.2c1.9,6.7,0.7,13.8,1.7,20.7c-3.5,0-7,0-10.6,0c-0.4-6.1-0.9-12.1-1.2-18.2
	c0.1-2.4-2.6-4-4.8-3.8c-6,0-12.1,0-18.1,0c0,7.3,0,14.7,0,22c-3.7,0-7.4,0-11.1,0C177.9,50.4,177.9,31.6,177.9,12.9 M189,22.1
	c0,5.4,0,10.9,0,16.3c6.6-0.1,13.3,0.2,20-0.1c3.6-0.2,3.6-4.5,3.8-7.2c-0.1-3,0.4-6.9-2.3-8.8C203.3,21.9,196.1,22.2,189,22.1z"/>
<path fill="#FFFFFF" d="M337.9,12.9c9.7,0,19.4-0.1,29.1,0.1c5.4,0.2,11.6,1.5,14.8,6.3c4.1,6.5,3.4,14.5,4.2,21.8
	c-0.7,7.3-0.1,15.2-4.2,21.7c-3.5,5.2-10.2,6.2-15.9,6.3c-9.4,0.1-18.7,0-28,0C337.9,50.4,337.9,31.6,337.9,12.9 M349,22.1
	c0,12.6,0,25.2,0,37.8c5.7,0,11.4,0,17.1,0c2.7,0,6-0.7,7.3-3.4c1.9-4.2,1.4-9,1.6-13.4c-0.2-5.6,0.6-11.5-1.3-16.9
	c-0.9-2.8-3.9-4.1-6.6-4C361.1,22.1,355,22.1,349,22.1z"/>
</svg>
