<?xml version="1.0" encoding="utf-8"?>
<!-- Generator: Adobe Illustrator 17.1.0, SVG Export Plug-In . SVG Version: 6.00 Build 0)  -->
<!DOCTYPE svg PUBLIC "-//W3C//DTD SVG 1.1//EN" "http://www.w3.org/Graphics/SVG/1.1/DTD/svg11.dtd">
<svg version="1.1" id="Calque_1" xmlns="http://www.w3.org/2000/svg" xmlns:xlink="http://www.w3.org/1999/xlink" x="0px" y="0px"
	 viewBox="0 0 260.8 62.4" enable-background="new 0 0 260.8 62.4" xml:space="preserve">
<path fill="#32363F" d="M52.2,4.5h51.7c0,17.8,0,35.6,0,53.3H52.2C52.2,40.1,52.2,22.3,52.2,4.5 M65.4,12.5c0,2.2,0,4.4,0,6.6
	c3,0,5.9,0,8.9,0c0,8.1,0,16.1,0,24.2c-3,0-5.9,0-8.9,0c0,2.2,0,4.4,0,6.6c8.4,0,16.8,0,25.2,0c0-2.1,0-4.4,0-6.6c-3,0-5.9,0-8.9,0
	c0-8.1,0-16.1,0-24.2c3,0,5.9,0,8.9,0c0-2.2,0-4.4,0-6.6C82.3,12.5,73.8,12.5,65.4,12.5z"/>
<path fill="#32363F" d="M156.1,4.5H208c0,17.8,0,35.6,0,53.3h-51.9C156.1,40.1,156.1,22.3,156.1,4.5 M165.4,12.5c0,2.1,0,4.4,0,6.5
	c1.6,0,3.3,0,4.9,0c0,8.1,0,16.1,0,24.2c-1.6,0-3.3,0-4.9,0c0,2.1,0,4.4,0,6.6c10.5,0,20.9,0,31.3,0c0.1-4.3,0-8.6,0-12.9
	c-2.3,0-4.6,0-6.8,0c0,2.1,0,4.2,0,6.4c-4.2,0-8.3,0-12.4,0c-0.1-3.2,0-6.4,0-9.6c3.3,0,6.5,0,9.8,0c0-2.1,0-4.2,0-6.2
	c-3.3,0-6.5,0-9.8,0c0-2.8,0-5.6,0-8.4c4,0,8.1,0,12.1,0c0,1.9,0,3.7,0,5.6c2.2,0,4.5,0,6.7,0c0-4,0-8.1,0-12.2
	C186,12.5,175.7,12.5,165.4,12.5z"/>
<path fill="#32363F" d="M3.8,12.9c2.4,0,4.7,0,7.2,0c1.5,9.9,3.2,19.7,4.9,29.5c0.3-0.7,0.5-1.5,0.7-2.3c1.7-8.3,3.5-16.6,5.3-25
	c0.2-0.8,0.5-2.1,1.6-2.2c2-0.1,3.8-0.1,5.8,0c1.6,0.7,1.4,2.8,1.8,4.3c1.9,8.4,3.3,16.9,5.5,25.3c2-9.8,3.3-19.8,5.1-29.6
	c2.2,0,4.4,0,6.6,0c-2.4,11.3-4.6,22.7-6.8,34c-0.3,0.9-0.3,2-1.2,2.5c-2.5,0.3-5,0.3-7.5,0c-0.8-0.5-0.9-1.6-1.2-2.5
	c-1.8-8.3-3.4-16.7-5.3-25c-0.3,0.7-0.6,1.4-0.7,2.1c-1.6,7.7-3.3,15.4-4.8,23.2c-0.3,0.9-0.5,2.4-1.8,2.4c-2.3,0.1-4.6,0.3-6.9-0.1
	c-1.2-0.8-1-2.6-1.4-3.9C8.3,34.6,6.2,23.7,3.8,12.9z"/>
<path fill="#32363F" d="M115.7,12.9c7.2,0,14.4,0,21.5,0c2.2,0,4.9,0.3,6.3,2.2c1.8,2.3,1.7,5.4,1.8,8.2c0,2.4-0.1,5-1.7,7
	c-1,1.4-2.9,1.5-4.4,2.3c2,0.6,4.5,1.1,5.1,3.4c1.2,4.4,0.5,9,1.1,13.5c-2.3,0-4.6,0-6.9,0c-0.3-4-0.6-7.9-0.8-11.8
	c0.1-1.6-1.7-2.6-3.1-2.5c-3.9,0-7.9,0-11.8,0c0,4.7,0,9.6,0,14.3c-2.4,0-4.8,0-7.2,0C115.7,37.3,115.7,25.1,115.7,12.9 M122.9,18.9
	c0,3.5,0,7.1,0,10.6c4.3-0.1,8.6,0.1,13-0.1c2.3-0.1,2.3-2.9,2.5-4.7c-0.1-2,0.3-4.5-1.5-5.7C132.2,18.8,127.5,19,122.9,18.9z"/>
<path fill="#32363F" d="M219.8,12.9c6.3,0,12.6-0.1,18.9,0.1c3.5,0.1,7.5,1,9.6,4.1c2.7,4.2,2.2,9.4,2.7,14.2
	c-0.5,4.7-0.1,9.9-2.7,14.1c-2.3,3.4-6.6,4-10.3,4.1c-6.1,0.1-12.2,0-18.2,0C219.8,37.3,219.8,25.1,219.8,12.9 M227,18.9
	c0,8.2,0,16.4,0,24.6c3.7,0,7.4,0,11.1,0c1.8,0,3.9-0.5,4.7-2.2c1.2-2.7,0.9-5.9,1-8.7c-0.1-3.6,0.4-7.5-0.8-11
	c-0.6-1.8-2.5-2.7-4.3-2.6C234.8,18.9,230.9,18.9,227,18.9z"/>
</svg>
