<svg xmlns="http://www.w3.org/2000/svg" width="48" height="48"><g fill="none" fill-rule="evenodd"><circle cx="24" cy="24" r="24" fill="#297EF2"/><path fill="#BAD8FF" fill-rule="nonzero" d="M9 13.375C9 34.043 17.08 37.67 23.998 41 30.916 37.67 39 34.043 39 13.375L23.998 7 9 13.375Z"/><path fill="#297EF2" d="M22.368 19v1.765h-4.06v2.308h3.11v1.698h-3.11v2.355h4.06v1.765H16V19h6.368Zm5.417 8.079c.308 0 .583-.051.825-.153a1.68 1.68 0 0 0 .615-.438c.167-.19.295-.422.383-.696.089-.274.133-.585.133-.933V19h2.294v5.859c0 .606-.098 1.163-.295 1.67a3.746 3.746 0 0 1-.845 1.31 3.814 3.814 0 0 1-1.338.856c-.525.203-1.115.305-1.772.305-.66 0-1.253-.102-1.778-.305a3.814 3.814 0 0 1-1.338-.856 3.707 3.707 0 0 1-.841-1.31 4.623 4.623 0 0 1-.292-1.67V19h2.294v5.852c0 .348.044.66.133.933.088.274.216.507.383.7.168.192.372.34.615.441.242.102.517.153.824.153Z"/></g></svg>