<svg xmlns="http://www.w3.org/2000/svg" viewBox="0 0 32 32"><g fill="none" fill-rule="evenodd"><path fill="#FDD5D5" d="M0 2a2 2 0 0 1 2-2h28a2 2 0 0 1 2 2v22a2 2 0 0 1-2 2H16L4 32v-6H2a2 2 0 0 1-2-2V2z"/><path fill="#F52D2D" d="M14.7 9.13v6.43c0 .73.58 1.29 1.3 1.29.72 0 1.29-.58 1.29-1.3V9.14a1.3 1.3 0 1 0-2.58 0zm0 10.3c0 .71.58 1.28 1.3 1.28a1.29 1.29 0 1 0 0-2.57c-.72 0-1.3.57-1.3 1.28zm.03-14.5c.7-1.24 1.84-1.23 2.54 0l8.43 14.84c.7 1.23.12 2.23-1.3 2.23H7.6c-1.43 0-2.01-1.01-1.32-2.23l8.44-14.85z"/></g></svg>