<svg xmlns="http://www.w3.org/2000/svg" xmlns:xlink="http://www.w3.org/1999/xlink" width="48" height="48"><defs><path id="a" d="M.898.975H10v16.58H.898z"/><path id="c" d="M0 .419h9.101V17H0z"/><path id="e" d="M.021.419h9.103V17H.02z"/><path id="g" d="M.273.792H2.48V3H.273z"/><path id="i" d="M.877.81H23v14.746H.877z"/></defs><g fill="none" fill-rule="evenodd"><path fill="#B2D3FF" d="M14.506 33.308c-1.76 1.76-3.08 2.64-4.4 4.4-1.762-1.76-2.487-2.484-3.522-3.52-1.036-1.035.88-.18.88-1.76 0-3.16.361-1.761 3.521-1.761s3.521-.52 3.521 2.64"/><path fill="#B2D3FF" d="M10.737 32.3c-3.859-.156-6.864-3.666-6.696-7.825.168-4.16 3.445-7.417 7.305-7.261 3.86.156 6.863 3.666 6.695 7.825-.167 4.16-3.445 7.417-7.304 7.26m26.181-3.437c-3.863 0-7.006-3.387-7.006-7.55 0-4.162 3.143-7.548 7.006-7.548 3.863 0 7.006 3.386 7.006 7.549 0 4.162-3.143 7.549-7.006 7.549m-.206 6.978a1.16 1.16 0 0 1-.811-.33l-2.04-1.993a1.16 1.16 0 0 1 1.617-1.657l1.24 1.211 3.62-3.477a1.16 1.16 0 0 1 1.606 1.675l-4.427 4.27c-.22.2-.508.308-.805.301"/><path fill="#B2D3FF" d="M27.036 43.07a1.16 1.16 0 0 1-1.159-1.158v-6.755a5.916 5.916 0 0 1 5.84-5.991h.012a5.13 5.13 0 0 0 .944-1.78l.07-.173a1.16 1.16 0 1 1 2.15.875l-.064.162c-.452 1.159-1.292 3.239-2.99 3.239h-.11a3.598 3.598 0 0 0-3.534 3.66v6.762a1.16 1.16 0 0 1-1.159 1.16"/><g transform="translate(38 25.515)"><mask id="b" fill="#fff"><use xlink:href="#a"/></mask><path fill="#B2D3FF" d="M7.682 16.397V9.634a3.598 3.598 0 0 0-3.534-3.66h-.11c-1.698 0-2.538-2.08-2.99-3.24l-.064-.161a1.16 1.16 0 0 1 2.15-.875l.069.174a5.11 5.11 0 0 0 .945 1.778A5.916 5.916 0 0 1 10 9.64v6.756a1.16 1.16 0 0 1-2.318 0" mask="url(#b)"/></g><path fill="#B2D3FF" d="M31.671 42.491a1.16 1.16 0 0 1-1.159-1.159v-4.055a1.16 1.16 0 0 1 2.318 0v4.055a1.16 1.16 0 0 1-1.159 1.16M9.636 38.983l-4.426-4.27a1.16 1.16 0 0 1 1.604-1.675l3.622 3.477 1.239-1.211a1.16 1.16 0 0 1 1.617 1.657l-2.04 1.993a1.152 1.152 0 0 1-.811.33 1.156 1.156 0 0 1-.805-.301"/><g transform="translate(0 29.515)"><mask id="d" fill="#fff"><use xlink:href="#c"/></mask><path fill="#B2D3FF" d="M1.16 17A1.16 1.16 0 0 1 0 15.841V9.086a5.916 5.916 0 0 1 5.84-5.991h.012a5.13 5.13 0 0 0 .944-1.779l.07-.174a1.16 1.16 0 1 1 2.15.875l-.064.162C8.5 3.338 7.66 5.418 5.962 5.418h-.11a3.598 3.598 0 0 0-3.534 3.661v6.762A1.16 1.16 0 0 1 1.16 17" mask="url(#d)"/></g><g transform="translate(13 29.515)"><mask id="f" fill="#fff"><use xlink:href="#e"/></mask><path fill="#B2D3FF" d="M6.805 15.841V9.078a3.598 3.598 0 0 0-3.534-3.66h-.11c-1.698 0-2.538-2.08-2.99-3.239l-.064-.162a1.16 1.16 0 0 1 2.15-.875l.07.174a5.11 5.11 0 0 0 .944 1.778l.012.001a5.916 5.916 0 0 1 5.84 5.99v6.756a1.16 1.16 0 0 1-2.318 0" mask="url(#f)"/></g><path fill="#B2D3FF" d="M5.794 45.936a1.16 1.16 0 0 1-1.159-1.16v-4.054a1.16 1.16 0 0 1 2.318 0v4.055a1.16 1.16 0 0 1-1.159 1.159m4.585-4.379a1.104 1.104 0 1 1 1.996.943 1.104 1.104 0 0 1-1.996-.943"/><g transform="translate(10 43.515)"><mask id="h" fill="#fff"><use xlink:href="#g"/></mask><path fill="#B2D3FF" d="M.379 1.425a1.104 1.104 0 1 1 1.996.943 1.104 1.104 0 0 1-1.996-.943" mask="url(#h)"/></g><path fill="#B2D3FF" d="M22.463 18.335c-3.863 0-7.006-3.387-7.006-7.549 0-4.163 3.143-7.549 7.006-7.549 3.863 0 7.006 3.386 7.006 7.55 0 4.161-3.143 7.548-7.006 7.548"/><path fill="#B2D3FF" d="m16.014 9.778 1.153-1.634c2.375-5.387 7.611-4.763 10.53.307l1.416 1.415c-4.649-1.907-9.148-2.543-13.099-.088m6.731 12.877c-2.257 0-3.006-.462-3.892-1.312.331-.323.606-.828.606-1.634l.006-.476-.006-.06v-2.706c.28 0 5.73-.064 6.006-.064l.002 2.014a1 1 0 0 0 .817.983l1.146.213v-.006a1.03 1.03 0 0 0-.017.191l.002.106c-1.242 2.48-3.471 2.738-4.22 2.75-.027-.002-.322.001-.425.001h-.024Z"/><path stroke="#B2D3FF" stroke-linecap="round" stroke-linejoin="round" stroke-width=".5" d="M22.745 22.655c-2.257 0-3.006-.462-3.892-1.312.331-.323.606-.828.606-1.634l.006-.476-.006-.06v-2.706c.28 0 5.73-.064 6.006-.064l.002 2.014a1 1 0 0 0 .817.983l1.146.213v-.006a1.03 1.03 0 0 0-.017.191l.002.106c-1.242 2.48-3.471 2.738-4.22 2.75-.027-.002-.322.001-.425.001h-.024Z"/><path fill="#197BFF" d="M17.79 7.298c-.491-1.027-1.801-1.154-2.646-.79a1.703 1.703 0 0 0-.933 2.122c.335 1.035 1.314 1.45 2.176 1.412.2-.008.334-.13.417-.287.319-.142.636-.28.87-.599.366-.492.384-1.298.116-1.859"/><path fill="#197BFF" d="M18.277 5.697c-.49-1.027-1.8-1.153-2.646-.79a1.703 1.703 0 0 0-.933 2.123c.335 1.035 1.314 1.45 2.176 1.412.2-.009.334-.13.417-.288.32-.14.636-.28.871-.598.365-.493.383-1.298.115-1.859"/><path fill="#197BFF" d="M17.99 6.092c-1.094.31-1.441 1.578-1.228 2.473a1.706 1.706 0 0 0 1.934 1.281c1.077-.155 1.653-1.049 1.762-1.905.025-.198-.071-.35-.213-.459-.085-.339-.17-.675-.441-.96-.424-.444-1.214-.599-1.813-.43"/><path fill="#197BFF" d="M21.532 5.47c-1.095.31-1.442 1.577-1.229 2.472a1.706 1.706 0 0 0 1.934 1.281C23.314 9.068 23.89 8.174 24 7.318c.025-.198-.07-.35-.213-.459-.085-.339-.169-.675-.44-.96-.425-.444-1.215-.599-1.814-.43"/><path fill="#197BFF" d="M23.873 5.73c-1.095.31-1.442 1.578-1.229 2.473a1.706 1.706 0 0 0 1.934 1.281c1.078-.155 1.654-1.049 1.762-1.905.026-.198-.07-.35-.212-.459-.085-.338-.17-.675-.442-.96-.424-.444-1.213-.599-1.813-.43"/><path fill="#197BFF" d="M24.873 4.73c-1.095.31-1.442 1.578-1.229 2.473a1.706 1.706 0 0 0 1.934 1.281c1.078-.155 1.654-1.049 1.762-1.905.026-.198-.07-.35-.212-.459-.085-.338-.17-.675-.442-.96-.424-.444-1.213-.599-1.813-.43"/><path fill="#197BFF" d="M26.876 6.508c-1.095.31-1.442 1.578-1.229 2.473a1.706 1.706 0 0 0 1.934 1.281c1.077-.155 1.653-1.049 1.762-1.905.025-.198-.071-.35-.213-.459-.085-.339-.169-.675-.441-.96-.424-.444-1.214-.599-1.813-.43m-7.559-2.672c-.491-1.027-1.802-1.153-2.646-.79a1.703 1.703 0 0 0-.933 2.123c.335 1.035 1.314 1.45 2.175 1.412.2-.009.334-.13.418-.288.319-.14.636-.28.87-.598.366-.493.383-1.298.116-1.859"/><path fill="#197BFF" d="M21.205 2.753c-.491-1.027-1.801-1.153-2.646-.79a1.703 1.703 0 0 0-.933 2.123c.335 1.035 1.314 1.45 2.176 1.412.2-.01.334-.13.417-.288.319-.141.636-.28.87-.598.366-.493.384-1.298.116-1.86"/><path fill="#197BFF" d="M23.132 1.975C22.64.948 21.33.822 20.486 1.185a1.703 1.703 0 0 0-.933 2.123c.335 1.035 1.314 1.45 2.176 1.412.2-.01.334-.13.417-.288.319-.141.636-.28.87-.598.366-.493.384-1.298.116-1.86"/><path fill="#197BFF" d="M25.058 1.975c-.49-1.027-1.8-1.153-2.646-.79a1.703 1.703 0 0 0-.933 2.123c.335 1.035 1.314 1.45 2.176 1.412.2-.01.334-.13.417-.288.32-.141.636-.28.871-.598.365-.493.383-1.298.115-1.86"/><path fill="#197BFF" d="M26.985 2.753c-.49-1.027-1.8-1.153-2.646-.79a1.703 1.703 0 0 0-.933 2.123c.335 1.035 1.314 1.45 2.176 1.412.2-.01.334-.13.417-.288.32-.141.636-.28.871-.598.365-.493.383-1.298.115-1.86"/><path fill="#197BFF" d="M28.45 3.836c-.492-1.027-1.802-1.153-2.647-.79a1.703 1.703 0 0 0-.933 2.123c.335 1.035 1.314 1.45 2.176 1.412.2-.009.334-.13.417-.288.32-.14.636-.28.871-.598.365-.493.383-1.298.115-1.859"/><path fill="#197BFF" d="M25.45 3.836c-.492-1.027-1.802-1.153-2.647-.79a1.703 1.703 0 0 0-.933 2.123c.335 1.035 1.314 1.45 2.176 1.412.2-.009.334-.13.417-.288.32-.14.636-.28.871-.598.365-.493.383-1.298.115-1.859"/><path fill="#197BFF" d="M23.45 4.836c-.492-1.027-1.802-1.153-2.647-.79a1.703 1.703 0 0 0-.933 2.123c.335 1.035 1.314 1.45 2.176 1.412.2-.009.334-.13.417-.288.32-.14.636-.28.871-.598.365-.493.383-1.298.115-1.859"/><path fill="#197BFF" d="M21.45 5.836c-.492-1.027-1.802-1.153-2.647-.79a1.703 1.703 0 0 0-.933 2.123c.335 1.035 1.314 1.45 2.176 1.412.2-.009.334-.13.417-.288.32-.14.636-.28.871-.598.365-.493.383-1.298.115-1.859m8.099-.622c-.491-1.027-1.801-1.153-2.646-.79a1.703 1.703 0 0 0-.933 2.123c.335 1.035 1.314 1.45 2.176 1.412.2-.01.334-.13.417-.288.319-.141.636-.28.871-.598.365-.493.383-1.298.115-1.86"/><path fill="#197BFF" d="M30.376 6.475c-.491-1.027-1.801-1.153-2.646-.79a1.703 1.703 0 0 0-.933 2.123c.335 1.035 1.314 1.45 2.176 1.412.2-.009.334-.13.417-.288.319-.14.636-.28.871-.598.365-.493.383-1.298.115-1.859"/><path fill="#197BFF" d="M30.839 8.092c-.491-1.027-1.801-1.153-2.646-.79a1.703 1.703 0 0 0-.933 2.123c.335 1.035 1.314 1.45 2.176 1.412.2-.01.334-.13.417-.288.319-.141.636-.28.871-.598.365-.493.383-1.298.115-1.86M17.39 8.98c-.491-1.028-1.801-1.154-2.646-.79a1.703 1.703 0 0 0-.933 2.123c.335 1.034 1.314 1.45 2.176 1.412.2-.01.334-.13.417-.288.319-.141.636-.28.87-.598.366-.494.384-1.299.116-1.86m25.603 11.118c.2-.116.388-.245.544-.401l.2-.09c-.536-2.485-2.212-4.503-4.4-5.375.287-.147.554-.328.78-.583.688-.777.723-2.045.217-2.928-.927-1.618-3.396-1.816-4.99-1.245-1.406.504-2.336 1.86-1.76 3.344a3.076 3.076 0 0 0 1.059 1.362c-2.748 1.02-4.73 3.829-4.73 7.132 0 .04.005.079.005.12l.55.182c.119.084.243.155.369.217.077.038.158.066.237.096.046.017.09.038.137.052.109.035.22.06.333.083l.043.009c.195.036.394.059.597.059 1.894 0 4.115-1.434 5.612-2.718.64.615 1.486 1.026 2.44 1.165a4.516 4.516 0 0 0 2.57-.372c.066-.034.125-.072.187-.11M17.314 23.61c.023-.016.044-.035.066-.052.107-.078.22-.15.312-.242l-.01-.009.185-.144c-.681-3.4-3.49-5.956-6.845-5.956-3.3 0-6.066 2.474-6.805 5.788l.356.234c.433.306.947.541 1.506.705 0-.003 0-.005.002-.007 1.768.525 4.019.301 5.8-.94.649.638 1.512 1.065 2.496 1.208.242.036.484.054.723.054.658 0 1.27-.148 1.79-.398l.06-.028c.128-.065.25-.134.364-.213"/><path fill="#B2D3FF" d="M40.714 30.728c-1.847 1.967-2.324 1.982-3.695 3.934l-3.934-3.695c-1.157-1.086.947-.225.894-1.937-.108-3.423.331-1.919 3.754-2.027 3.424-.107 2.874.302 2.981 3.725"/><g transform="translate(25 27.515)"><mask id="j" fill="#fff"><use xlink:href="#i"/></mask><path fill="#197BFF" d="M18.789 1.905a5.96 5.96 0 0 0-.722-.166l-.132-.022a5.985 5.985 0 0 0-.775-.066h-.012a5.162 5.162 0 0 1-.56-.841l-4.87 4.746L8.59 3.042l-1.816-1.46c-.017.022-.027.048-.045.069h-.012c-.375.005-.74.048-1.094.119l-.022.004c-.357.073-.7.18-1.03.314H4.57A5.914 5.914 0 0 0 .878 7.642v6.755c0 .64.518 1.159 1.158 1.159H21.84a1.16 1.16 0 0 0 1.16-1.16V7.643a5.915 5.915 0 0 0-4.211-5.737" mask="url(#j)"/></g></g></svg>