<svg xmlns="http://www.w3.org/2000/svg" width="17" height="16" fill="none"><path fill="#1D212A" fill-opacity=".72" fill-rule="evenodd" d="m11.487.209-.698 1.26c1.341.697 2.248 2.024 2.25 3.546H4.21c.002-1.522.908-2.849 2.25-3.547L5.763.208a.14.14 0 1 1 .246-.135l.706 1.273a4.7 4.7 0 0 1 1.91-.4c.684 0 1.332.143 1.91.4l.706-1.273a.141.141 0 0 1 .191-.055.14.14 0 0 1 .055.19ZM6.219 3.03a.37.37 0 1 0 .738 0 .37.37 0 0 0-.738 0Zm4.074 0a.37.37 0 1 0 .738 0 .37.37 0 0 0-.738 0Z" clip-rule="evenodd"/><path fill="#1D212A" fill-opacity=".72" d="M1.864 6.184a.99.99 0 0 1 1.979 0v4.122a.99.99 0 0 1-1.98 0V6.184Zm11.543 0a.99.99 0 0 1 1.979 0v4.122a.99.99 0 0 1-1.979 0V6.184Zm-9.196 5.577c0 .59.478 1.067 1.067 1.067h.708v2.183a.99.99 0 0 0 1.98 0v-2.183h1.318v2.183a.99.99 0 0 0 1.98 0v-2.183h.707c.59 0 1.067-.477 1.067-1.067V5.364H4.211v6.397Z"/></svg>