<svg xmlns="http://www.w3.org/2000/svg" viewBox="0 0 32 32"><g fill="none" fill-rule="evenodd"><path fill="#E6D5FF" d="M4 6h24a4 4 0 0 1 4 4v12a4 4 0 0 1-4 4H4a4 4 0 0 1-4-4V10a4 4 0 0 1 4-4z"/><path fill="#9C59FF" d="M25.5 3c.83 0 1.5.67 1.5 1.5v23a1.5 1.5 0 0 1-3 0v-23c0-.83.67-1.5 1.5-1.5zM9.91 12c.34 0 .65.12.93.36.29.23.43.51.43.83a1 1 0 0 1-.19.56l-.8 1.15 1.43-.1c.35-.01.61.1.8.33.19.24.28.53.28.86 0 .35-.09.64-.28.88a.87.87 0 0 1-.8.31l-1.44-.1.81 1.19c.13.18.19.36.19.54 0 .32-.15.6-.44.83-.3.24-.6.36-.94.36a.97.97 0 0 1-.5-.14.89.89 0 0 1-.36-.4l-.62-1.3-.65 1.3a.9.9 0 0 1-.86.54 1.4 1.4 0 0 1-.93-.37 1.09 1.09 0 0 1-.42-.84c0-.2.05-.37.16-.52l.82-1.2-1.44.11c-.35.01-.62-.1-.8-.32A1.3 1.3 0 0 1 4 16c0-.33.1-.62.3-.87a.9.9 0 0 1 .79-.34l1.42.1-.8-1.15a1.07 1.07 0 0 1-.19-.56c0-.3.15-.58.43-.81.29-.24.6-.36.93-.36.4 0 .7.18.88.54l.65 1.3.62-1.3a.91.91 0 0 1 .88-.56zm10 0c.34 0 .65.12.93.36.29.23.43.51.43.83a1 1 0 0 1-.19.56l-.8 1.15 1.43-.1c.35-.01.61.1.8.33.19.24.28.53.28.86 0 .35-.09.64-.28.88a.87.87 0 0 1-.8.31l-1.44-.1.81 1.19c.13.18.19.36.19.54 0 .32-.15.6-.44.83-.3.24-.6.36-.94.36a.97.97 0 0 1-.5-.14.89.89 0 0 1-.36-.4l-.62-1.3-.65 1.3a.9.9 0 0 1-.86.54 1.4 1.4 0 0 1-.93-.37 1.09 1.09 0 0 1-.42-.84c0-.2.05-.37.16-.52l.82-1.2-1.44.11c-.35.01-.62-.1-.8-.32A1.3 1.3 0 0 1 14 16c0-.33.1-.62.3-.87a.9.9 0 0 1 .79-.34l1.42.1-.8-1.15a1.07 1.07 0 0 1-.19-.56c0-.3.15-.58.43-.81.29-.24.6-.36.93-.36.4 0 .7.18.88.54l.65 1.3.62-1.3a.91.91 0 0 1 .88-.56z"/></g></svg>