<?xml version="1.0" encoding="UTF-8"?>
<svg width="48px" height="48px" viewBox="0 0 48 48" version="1.1" xmlns="http://www.w3.org/2000/svg" xmlns:xlink="http://www.w3.org/1999/xlink">
    <!-- Generator: Sketch 46.2 (44496) - http://www.bohemiancoding.com/sketch -->
    <title>icon-medal</title>
    <desc>Created with Sketch.</desc>
    <defs></defs>
    <g id="Page-1" stroke="none" stroke-width="1" fill="none" fill-rule="evenodd">
        <g id="icon-medal">
            <g id="Fill-124-+-Fill-125" transform="translate(5.000000, 5.000000)">
                <path d="M12.76275,22.511125 C12.445875,22.828 11.93075,22.828 11.613875,22.511125 C11.297,22.19425 11.297,21.679125 11.613875,21.36225 L14.863875,18.11225 C15.09625,17.87825 15.444,17.808375 15.7495,17.93675 C16.053375,18.061875 16.25,18.35925 16.25,18.6875 L16.25,30.875 L18.6875,30.875 C19.137625,30.875 19.5,31.237375 19.5,31.6875 C19.5,32.136 19.137625,32.5 18.6875,32.5 L12.1875,32.5 C11.740625,32.5 11.375,32.136 11.375,31.6875 C11.375,31.237375 11.740625,30.875 12.1875,30.875 L14.625,30.875 L14.625,20.648875 L12.76275,22.511125 Z M18.6875,18.6875 C18.6875,18.237375 19.053125,17.875 19.5,17.875 L27.625,17.875 C27.893125,17.875 28.143375,18.005 28.2945,18.22275 C28.444,18.442125 28.47975,18.721625 28.387125,18.9735 L26.36075,24.375 L26.8125,24.375 C27.262625,24.375 27.625,24.737375 27.625,25.1875 C27.625,25.636 27.262625,26 26.8125,26 L25.751375,26 L23.512125,31.9735 C23.388625,32.300125 23.0815,32.5 22.75,32.5 C22.65575,32.5 22.559875,32.48375 22.465625,32.448 C22.046375,32.290375 21.8335,31.822375 21.9895,31.4015 L24.0175,26 L21.9375,26 C21.490625,26 21.125,25.636 21.125,25.1875 C21.125,24.737375 21.490625,24.375 21.9375,24.375 L24.626875,24.375 L26.455,19.5 L20.3125,19.5 L20.3125,20.3125 C20.3125,20.761 19.950125,21.125 19.5,21.125 C19.053125,21.125 18.6875,20.761 18.6875,20.3125 L18.6875,18.6875 Z M0,38.1875 C0,38.636 0.365625,39 0.8125,39 L38.1875,39 C38.637625,39 39,38.636 39,38.1875 L39,13 L0,13 L0,38.1875 Z" id="Fill-124" fill="#4AACF6"></path>
                <path d="M30.875,6.28571429 L27.625,6.28571429 L27.625,1.57142857 L30.875,1.57142857 L30.875,6.28571429 Z M11.375,6.28571429 L8.125,6.28571429 L8.125,1.57142857 L11.375,1.57142857 L11.375,6.28571429 Z M38.1875,3.14285714 L32.5,3.14285714 L32.5,0.785714286 C32.5,0.352 32.136,0 31.6875,0 L26.8125,0 C26.365625,0 26,0.352 26,0.785714286 L26,3.14285714 L13,3.14285714 L13,0.785714286 C13,0.352 12.636,0 12.1875,0 L7.3125,0 C6.865625,0 6.5,0.352 6.5,0.785714286 L6.5,3.14285714 L0.8125,3.14285714 C0.365625,3.14285714 0,3.49485714 0,3.92857143 L0,11 L39,11 L39,3.92857143 C39,3.49485714 38.636,3.14285714 38.1875,3.14285714 L38.1875,3.14285714 Z" id="Fill-125" fill="#377EFA"></path>
            </g>
        </g>
    </g>
</svg>