<svg xmlns="http://www.w3.org/2000/svg" xmlns:xlink="http://www.w3.org/1999/xlink" width="48" height="48"><defs><path id="a" d="M1 48h47.076V0H1z"/></defs><g fill="none" fill-rule="evenodd"><path fill="#B2D3FF" d="M21.522 48H9V2a2 2 0 0 1 2-2h8.522a2 2 0 0 1 2 2v46Z"/><path fill="#197BFF" d="M34.522 48.304H22V17h10.522a2 2 0 0 1 2 2v29.304Z"/><path fill="#B2D3FF" d="M30.174 45H26a1 1 0 1 1 0-2h4.174a1 1 0 1 1 0 2"/><path fill="#197BFF" d="M15 30.131a1 1 0 0 1-1-1V7a1 1 0 1 1 2 0v22.131a1 1 0 0 1-1 1"/><mask id="b" fill="#fff"><use xlink:href="#a"/></mask><path fill="#197BFF" d="M14 42.347h2.174v-6.348H14v6.348Zm3.174 2H13a1 1 0 0 1-1-1V35a1 1 0 0 1 1-1h4.174a1 1 0 0 1 1 1v8.347a1 1 0 0 1-1 1Z" mask="url(#b)"/><path fill="#B2D3FF" d="M28 38.783a1 1 0 0 1-1-1V21a1 1 0 1 1 2 0v16.783a1 1 0 0 1-1 1" mask="url(#b)"/><path stroke="#000" stroke-linecap="round" stroke-linejoin="round" d="M5 13v29.217" mask="url(#b)"/><path fill="#197BFF" d="M1 47.739h8.348V6H3a2 2 0 0 0-2 2v39.739Z" mask="url(#b)"/><path fill="#B2D3FF" d="m47.28 46.196-6.061 1.565L31.032 8.315a1 1 0 0 1 .718-1.218l4.127-1.065a1 1 0 0 1 1.218.718L47.28 46.196Z" mask="url(#b)"/></g></svg>