<svg xmlns="http://www.w3.org/2000/svg" width="48" height="48" viewBox="0 0 48 48">
  <g fill="none" fill-rule="evenodd" transform="translate(0 1)">
    <path fill="#C2ADF4" d="M42,19.2412 L42,4 C42,2.8954305 41.1045695,2 40,2 L36,2 C34.8954305,2 34,2.8954305 34,4 L34,4 L34,11.2412 L24.001,1.2422 L6.001,19.2422 L6.001,46.0002 L20.001,46.0002 L20.001,32.0002 L28.001,32.0002 L28.001,46.0002 L42.001,46.0002 L42.001,19.2422 Z"/>
    <path fill="#855CEA" d="M47.7276,23.3242 C47.7196,23.3182 47.7156,23.3022 47.7076,23.2922 L24.7076,0.2922 C24.3256,-0.0918 23.6776,-0.0918 23.2936,0.2922 L0.2936,23.2922 C-0.0664,23.6542 -0.1204,24.2522 0.2716,24.6762 C0.7256,25.1282 1.3376,25.0622 1.6936,24.7142 C1.6976,24.7122 1.7036,24.7102 1.7076,24.7062 L24.0016,2.4122 L46.2936,24.7062 C46.2976,24.7102 46.3016,24.7122 46.3056,24.7142 C46.6876,25.0842 47.3156,25.0842 47.6936,24.7142 C47.6976,24.7122 47.7036,24.7102 47.7076,24.7062 C48.0716,24.3442 48.1196,23.7402 47.7276,23.3242"/>
  </g>
</svg>
