<svg xmlns="http://www.w3.org/2000/svg" width="48" height="48" viewBox="0 0 48 48">
  <g fill="none" fill-rule="evenodd" transform="translate(7 -1)">
    <path fill="#197BFF" d="M12.168,48.5196 C12.352,48.7956 12.664,48.9656 13,48.9656 L29,48.9656 C29.482,48.9656 29.896,48.6196 29.984,48.1456 L31.972,37.1896 C32.536,34.7516 31.742,31.8496 29.156,31.0176 L21,28.2476 L21,16.9656 C21,14.7596 19.204,12.9656 17,12.9656 C14.792,12.9656 13,14.7596 13,16.9656 L13,35.7636 C10.05,31.8196 8.12,30.9656 6,30.9656 C4.998,30.9656 4.2,31.4196 3.754,32.2476 C3.052,33.5416 3.442,35.4116 4.168,36.5196 L12.168,48.5196 Z"/>
    <path fill="#B2D3FF" d="M34,14.9648 C34,16.0688 33.104,16.9648 32,16.9648 L26,16.9648 C24.894,16.9648 24,16.0688 24,14.9648 C24,13.8608 24.894,12.9648 26,12.9648 L32,12.9648 C33.104,12.9648 34,13.8608 34,14.9648 Z M25.414,11.378 C25.024,11.77 24.512,11.964 24,11.964 C23.488,11.964 22.976,11.77 22.586,11.378 C21.804,10.598 21.804,9.332 22.586,8.55 L26.586,4.55 C27.366,3.77 28.632,3.77 29.414,4.55 C30.196,5.332 30.196,6.598 29.414,7.378 L25.414,11.378 Z M19,8.9648 C19,10.0688 18.104,10.9648 17,10.9648 C15.894,10.9648 15,10.0688 15,8.9648 L15,2.9648 C15,1.8608 15.894,0.9648 17,0.9648 C18.104,0.9648 19,1.8608 19,2.9648 L19,8.9648 Z M10,11.9648 C9.488,11.9648 8.976,11.7688 8.586,11.3788 L4.586,7.3788 C3.804,6.5968 3.804,5.3328 4.586,4.5488 C5.366,3.7688 6.632,3.7688 7.414,4.5488 L11.414,8.5488 C12.196,9.3328 12.196,10.5968 11.414,11.3788 C11.024,11.7688 10.512,11.9648 10,11.9648 Z M0,14.9648 C0,13.8608 0.894,12.9648 2,12.9648 L8,12.9648 C9.104,12.9648 10,13.8608 10,14.9648 C10,16.0688 9.104,16.9648 8,16.9648 L2,16.9648 C0.894,16.9648 0,16.0688 0,14.9648 Z"/>
  </g>
</svg>
