<svg width="16" height="16" viewBox="0 0 16 16" fill="none" xmlns="http://www.w3.org/2000/svg">
<g id="icons/16/icon-download">
<path id="Shape" fill-rule="evenodd" clip-rule="evenodd" d="M9 9.58579L10.2929 8.29289C10.6834 7.90237 11.3166 7.90237 11.7071 8.29289C12.0976 8.68342 12.0976 9.31658 11.7071 9.70711L8.70711 12.7071C8.31658 13.0976 7.68342 13.0976 7.29289 12.7071L4.29289 9.70711C3.90237 9.31658 3.90237 8.68342 4.29289 8.29289C4.68342 7.90237 5.31658 7.90237 5.70711 8.29289L7 9.58579V2C7 1.44772 7.44772 1 8 1C8.55228 1 9 1.44772 9 2V9.58579ZM1 14H15C15.5523 14 16 14.4477 16 15C16 15.5523 15.5523 16 15 16H1C0.447715 16 0 15.5523 0 15C0 14.4477 0.447715 14 1 14Z" fill="#1D212A" fill-opacity="0.72"/>
</g>
</svg>
