<svg xmlns="http://www.w3.org/2000/svg" viewBox="0 0 32 32"><g fill="none"><circle cx="16" cy="16" r="16" fill="#FFE2A1"/><path fill="#FF9A1A" d="M27.87 18.23a1 1 0 1 1-1.74 1l-.68-1.2a9.9 9.9 0 0 1-7.22 7.22 9.46 9.46 0 0 1-8.86-2.5 1 1 0 1 1 1.41-1.42 7.46 7.46 0 0 0 7 1.97 7.84 7.84 0 0 0 5.8-6.04L22.12 19a1 1 0 0 1-1.53-1.29l3.21-3.83a1 1 0 0 1 .86-.35 1 1 0 0 1 .65.32c.05.06.1.12.14.2l2.42 4.18zm-16.45-4.34a1 1 0 0 1 .12 1.41l-3.21 3.83A1 1 0 0 1 6.7 19l-2.56-4.26a1 1 0 0 1 1.72-1.03l.56.95a10 10 0 0 1 7.47-7.9 9.47 9.47 0 0 1 9.3 2.96 1 1 0 0 1-1.5 1.32 7.5 7.5 0 0 0-7.34-2.34 7.98 7.98 0 0 0-4.98 3.67 7.54 7.54 0 0 0-1.09 3.7l1.73-2.05a1 1 0 0 1 1.4-.13z"/></g></svg>