<?xml version="1.0" encoding="UTF-8"?>
<svg width="48px" height="48px" viewBox="0 0 48 48" version="1.1" xmlns="http://www.w3.org/2000/svg" xmlns:xlink="http://www.w3.org/1999/xlink">
    <!-- Generator: Sketch 50.2 (55047) - http://www.bohemiancoding.com/sketch -->
    <title>icon-code</title>
    <desc>Created with Sketch.</desc>
    <defs>
        <polygon id="path-1" points="0.0004 0.0017 48 0.0017 48 41.9997 0.0004 41.9997"></polygon>
    </defs>
    <g id="icon-code" stroke="none" stroke-width="1" fill="none" fill-rule="evenodd">
        <polygon id="Fill-1" fill="#B2D3FF" points="2 43.4300003 46 43.4300003 46 11 2 11"></polygon>
        <g id="Group-11" transform="translate(0.000000, 3.000000)">
            <g id="Group-4">
                <mask id="mask-2" fill="white">
                    <use xlink:href="#path-1"></use>
                </mask>
                <g id="Clip-3"></g>
                <path d="M44.9994,39.7147 L2.9994,39.7147 C2.4474,39.7147 1.9994,39.2667 1.9994,38.7147 L1.9994,8.2867 L45.9994,8.2867 L45.9994,38.7147 C45.9994,39.2667 45.5514,39.7147 44.9994,39.7147 M44.9974,0.0017 L3.0024,0.0017 C1.3334,0.0017 0.0004,1.3377 0.0004,2.9877 L0.0004,39.0137 C0.0004,40.6497 1.3444,41.9997 3.0024,41.9997 L44.9974,41.9997 C46.6654,41.9997 48.0004,40.6637 48.0004,39.0137 L48.0004,2.9877 C48.0004,1.3517 46.6564,0.0017 44.9974,0.0017" id="Fill-2" fill="#197BFF" mask="url(#mask-2)"></path>
            </g>
            <path d="M15.8034,29.4987 C15.5394,29.4987 15.2914,29.3967 15.1034,29.2137 L9.8004,24.0167 C9.6084,23.8277 9.5014,23.5757 9.5004,23.3067 C9.4984,23.0387 9.6024,22.7857 9.7924,22.5967 L15.0964,17.2937 C15.2854,17.1037 15.5364,17.0007 15.8034,17.0007 C16.0704,17.0007 16.3214,17.1047 16.5104,17.2937 C16.6994,17.4817 16.8034,17.7327 16.8034,17.9997 C16.8034,18.2677 16.6994,18.5187 16.5104,18.7077 L12.2534,22.9647 C12.1584,23.0597 12.1064,23.1877 12.1074,23.3217 C12.1084,23.4557 12.1634,23.5837 12.2594,23.6777 L16.5064,27.7877 C16.6944,27.9727 16.8014,28.2217 16.8034,28.4887 C16.8064,28.7557 16.7044,29.0077 16.5174,29.1977 C16.3274,29.3927 16.0744,29.4987 15.8034,29.4987" id="Fill-5" fill="#197BFF"></path>
            <path d="M31.5007,29.5007 C31.2297,29.5007 30.9757,29.3937 30.7847,29.1997 C30.5987,29.0107 30.4967,28.7607 30.4987,28.4947 C30.5007,28.2267 30.6077,27.9747 30.7997,27.7857 L34.9937,23.6777 C35.0877,23.5837 35.1427,23.4567 35.1437,23.3237 C35.1447,23.1907 35.0927,23.0637 34.9997,22.9687 L30.7947,18.7097 C30.6027,18.5197 30.4987,18.2687 30.4987,18.0017 C30.4987,17.7337 30.6037,17.4827 30.7927,17.2937 C30.9807,17.1047 31.2327,17.0007 31.4997,17.0007 C31.7657,17.0007 32.0177,17.1047 32.2067,17.2937 L37.5097,22.5977 C37.6997,22.7877 37.8037,23.0397 37.8027,23.3097 C37.8007,23.5777 37.6947,23.8307 37.5027,24.0197 L32.1987,29.2137 C32.0117,29.3987 31.7637,29.5007 31.5007,29.5007" id="Fill-7" fill="#197BFF"></path>
            <path d="M19.4982,35.4997 C19.3842,35.4997 19.2712,35.4797 19.1622,35.4407 C18.9112,35.3517 18.7092,35.1687 18.5952,34.9277 C18.4812,34.6877 18.4682,34.4157 18.5592,34.1637 L26.0592,13.1637 C26.2002,12.7667 26.5782,12.4997 26.9992,12.4997 C27.1142,12.4997 27.2272,12.5197 27.3352,12.5587 C27.8542,12.7447 28.1252,13.3177 27.9402,13.8367 L20.4402,34.8367 C20.2982,35.2327 19.9192,35.4997 19.4982,35.4997" id="Fill-9" fill="#197BFF"></path>
        </g>
    </g>
</svg>