<svg xmlns="http://www.w3.org/2000/svg" width="17" height="16" fill="none"><path fill="#1D212A" fill-opacity=".72" fill-rule="evenodd" d="M6.223 5.642C6.75 6.16 8.1 6.697 8.102 6.76c-.013.193-.694.859-.933.859-2.205 0-2.563 1.333-2.563 1.333.098 1.124.88 2.049 1.827 2.538.043.023.087.043.13.063.077.033.153.064.229.093.324.115.664.18 1.009.195 3.864.18 4.613-4.622 1.824-6.016a2.677 2.677 0 0 1 1.87.454 3.913 3.913 0 0 0-3.398-1.984c-.092 0-.182.007-.272.014l.003-.05c.077-1.055.728-3.072 2.578-4.206l.088-.052-.003.005.01-.005a.028.028 0 0 1 .014 0 .02.02 0 0 1 .018.02c.02.085.05.168.086.248l.03.06c.023.048.05.1.085.16.06.102.12.2.182.296 1.188 1.878 2.637 2.762 3.52 4.846l.058.14-.001-.013a8.053 8.053 0 0 0-.786-2.353c.536.276 1.22 1.152 1.556 1.962a7.974 7.974 0 0 1 .518 3.764l-.015.132c-.012.1-.022.2-.035.3A7.755 7.755 0 0 1 .335 8.373l-.001-.161a7.39 7.39 0 0 1 .126-1.07l.002-.016.01-.08C.49 6.93.52 6.735.535 6.66l.014-.07a6.55 6.55 0 0 1 .97-2.248l.07-.101c.218-.31.46-.6.726-.87.233-.238.486-.456.757-.65.082-.054.168-.1.26-.137l-.005.088c-.014.377-.01 1.431.248 1.82l.024.035h.004A5.743 5.743 0 0 1 5.47 3.084 3.595 3.595 0 0 0 5.49 4.98c.047.03.092.064.136.098l.064.053.04.035c.11.097.243.23.493.476Zm.103 5.795.056.03.056.027-.005-.004-.054-.026-.053-.027Z" clip-rule="evenodd"/></svg>