<svg xmlns="http://www.w3.org/2000/svg" width="48" height="48" viewBox="0 0 48 48">
  <g fill="none" fill-rule="evenodd" transform="translate(0 5)">
    <rect width="48" height="39" fill="#8EE39B" rx="2"/>
    <path fill="#1EC737" d="M0,30 L9.08578644,20.9142136 L9.08578644,20.9142136 C9.86683502,20.133165 11.133165,20.133165 11.9142136,20.9142136 L16.5,25.5 L28.5857864,13.4142136 L28.5857864,13.4142136 C29.366835,12.633165 30.633165,12.633165 31.4142136,13.4142136 L48,30 L48,36 L48,36 C48,37.6568542 46.6568542,39 45,39 L3,39 L3,39 C1.34314575,39 1.48578501e-14,37.6568542 1.46549439e-14,36 L0,30 Z"/>
    <circle cx="12" cy="10.5" r="4.5" fill="#FFFFFF"/>
    <path stroke="#8EE39B" stroke-width="2" d="M16.5,24 L8.25,32.25 L16.5,24 Z" stroke-linecap="round" stroke-linejoin="round"/>
  </g>
</svg>
