<svg xmlns="http://www.w3.org/2000/svg" width="40" height="40"><g fill="none" fill-rule="evenodd"><path fill="#FF9300" d="M27 27c-3.314 0-6-3.134-6-7s2.686-7 6-7 6 3.134 6 7-2.686 7-6 7Zm-12 7c0-1.5 3-6 6-6s1.5 1.5 6 1.5 3-1.5 6-1.5 6 4.5 6 6 0 3-1.5 3h-21C15 37 15 35.5 15 34Z"/><path fill="#FFD799" fill-rule="nonzero" d="M18.85 14.213a376.425 376.425 0 0 0-1.07 3.482c-.118.395-.237.751-.355 1.147.791-3.996-2.058-7.992-4.906-10.485-.238-.197-.436-.395-.673-.593-.396-.356-.752-.712-1.187-1.029C9.156 5.51 7.454 4.48 5.595 3.768 4.329 3.253 2.35 2.462 1.203 3.53c-.277.277-.237.554-.079.594.356.079 1.306.237 2.295.633 2.77.99 5.301 2.532 7.478 4.51a21.295 21.295 0 0 1 3.719 4.471c.95 1.504 1.78 3.126 2.097 4.867 0 .079.04.158.04.277-.871-1.306-1.781-2.533-2.612-3.878-.633-.989-1.662-.198-.95.831.515.752 1.029 1.543 1.583 2.255.791 1.346 1.78 2.572 2.77 3.799.158.197.553.197.751-.554.475-1.86 1.504-6.37 1.504-6.568.277-1.187-.752-1.187-.95-.554Z"/></g></svg>