<svg xmlns="http://www.w3.org/2000/svg" width="48" height="48"><g fill="none" fill-rule="evenodd"><path fill="#FFD799" d="M27.952 13.91c.754 0 1.517.206 2.074.606l4.106 3.762a45.303 45.303 0 0 1 3.564 2.921l3.729 3.466L48 17.045 37.782 7.263l-2.46 2.415s-.823-.187-1.395-.464L30.073 7.34c-.47-.23-1.046-.34-1.634-.34-.845 0-1.716.227-2.327.66l-5.962 4.18a2.251 2.251 0 0 0-.51 3.186l.354.478c.485.653 1.278 1.01 2.072 1.01.446 0 .89-.113 1.282-.349l2.828-1.806c.499-.302 1.134-.45 1.776-.45m-6.918 20.643-.433-.41a2.295 2.295 0 0 0-1.592-.635 2.3 2.3 0 0 0-1.67.712l-.008-.013a2.313 2.313 0 0 0-.078-3.262l-.43-.412a2.29 2.29 0 0 0-1.583-.63c-.576 0-1.15.213-1.596.633l.865-.906a2.313 2.313 0 0 0-.078-3.264l-.43-.411a2.29 2.29 0 0 0-1.586-.632c-.593 0-1.185.224-1.634.67a2.308 2.308 0 0 0-.214-3.086l-.429-.41a2.303 2.303 0 0 0-1.594-.634 2.3 2.3 0 0 0-1.67.712l-4.337 4.545a2.313 2.313 0 0 0 .08 3.263l.43.41c.441.42 1.01.63 1.578.63a2.33 2.33 0 0 0 1.472-.524l-1.142 1.197a2.319 2.319 0 0 0 .077 3.265l.433.41a2.297 2.297 0 0 0 1.592.635c.61 0 1.22-.24 1.671-.712l.892-.936a2.31 2.31 0 0 0 .15 3.17l.431.412a2.297 2.297 0 0 0 1.592.635c.611 0 1.22-.238 1.672-.713l1.433-1.481a2.313 2.313 0 0 0 .077 3.263l.432.41a2.295 2.295 0 0 0 1.591.636c.611 0 1.22-.238 1.672-.713l2.442-2.56a2.32 2.32 0 0 0-.078-3.264"/><path fill="#FF9300" d="m41.359 26.84-5.831-5.416a42.195 42.195 0 0 0-2.332-1.848l-.076-.054-.069-.064-4.021-3.683c-.265-.164-.67-.264-1.078-.264-.361 0-.709.078-.937.21l-2.807 1.794-.017.01-.018.01a4.078 4.078 0 0 1-2.108.58c-1.331 0-2.586-.62-3.356-1.657l-.354-.477a3.828 3.828 0 0 1-.712-2.91 3.823 3.823 0 0 1 1.588-2.54l2.358-1.654c-1.088-.5-2.855-.52-3.991-.034 0 0-1.26.553-1.662.724-.938.398-2.25.392-2.25.392l-3.08-2.87L0 17.626l4.788 4.816.927-.972a3.928 3.928 0 0 1 2.83-1.21c1.011 0 1.968.384 2.698 1.079l.429.409a3.891 3.891 0 0 1 1.121 1.99 3.887 3.887 0 0 1 2.315 1.059l.427.409a3.88 3.88 0 0 1 1.21 2.736c.006.217-.008.433-.036.643a3.89 3.89 0 0 1 1.219.79l.431.41a3.894 3.894 0 0 1 1.151 2.154 3.866 3.866 0 0 1 2.194 1.043l.436.413a3.915 3.915 0 0 1 .731 4.694l1.182 1.1c.929.866 2.397.81 3.262-.12l.404-.434a2.302 2.302 0 0 0-.073-3.2l2.992 2.775c.931.863 2.399.81 3.264-.122l.404-.434a2.314 2.314 0 0 0-.107-3.247l.769.716c.931.864 2.399.81 3.262-.121l.405-.434c.864-.931.81-2.4-.12-3.264l-.65-.603a2.312 2.312 0 0 0 3.209-.161l.406-.435c.863-.931.81-2.4-.121-3.264"/></g></svg>