<svg xmlns="http://www.w3.org/2000/svg" width="48" height="48"><g fill="none" fill-rule="evenodd"><path fill="#FCBABA" d="M10 3h28v42H10z"/><path fill="#F52D2D" d="M37 15a1 1 0 0 1-1 1H12a1 1 0 0 1-1-1V5a1 1 0 0 1 1-1h24a1 1 0 0 1 1 1v10Zm-3 9h-2a1 1 0 0 1 0-2h2a1 1 0 0 1 0 2Zm0 6h-2a1 1 0 0 1 0-2h2a1 1 0 0 1 0 2Zm0 6h-2a1 1 0 0 1 0-2h2a1 1 0 0 1 0 2Zm-8-2h2a1 1 0 0 1 0 2h-2a1 1 0 0 1 0-2Zm-1-11a1 1 0 0 1 1-1h2a1 1 0 0 1 0 2h-2a1 1 0 0 1-1-1Zm1 5h2a1 1 0 0 1 0 2h-2a1 1 0 0 1 0-2Zm8 14h-8a1 1 0 0 1 0-2h8a1 1 0 0 1 0 2ZM22 24h-2a1 1 0 0 1 0-2h2a1 1 0 0 1 0 2Zm0 6h-2a1 1 0 0 1 0-2h2a1 1 0 0 1 0 2Zm0 6h-2a1 1 0 0 1 0-2h2a1 1 0 0 1 0 2Zm0 6h-2a1 1 0 0 1 0-2h2a1 1 0 0 1 0 2Zm-6-18h-2a1 1 0 0 1 0-2h2a1 1 0 0 1 0 2Zm0 6h-2a1 1 0 0 1 0-2h2a1 1 0 0 1 0 2Zm0 6h-2a1 1 0 0 1 0-2h2a1 1 0 0 1 0 2Zm0 6h-2a1 1 0 0 1 0-2h2a1 1 0 0 1 0 2ZM38 0H10C8.346 0 7 1.346 7 3v42c0 1.656 1.346 3 3 3h28c1.654 0 3-1.344 3-3V3c0-1.654-1.346-3-3-3Z"/><path fill="#F52D2D" d="M32 8a1 1 0 0 0-1 1v2a1 1 0 0 0 2 0V9a1 1 0 0 0-1-1"/></g></svg>