<svg xmlns="http://www.w3.org/2000/svg" width="48" height="48"><g fill="none" fill-rule="evenodd"><circle cx="24" cy="24" r="24" fill="#FFE2A1"/><path fill="#FF9A1A" d="M41.8 27.341a1.499 1.499 0 0 1-1.3 2.252 1.5 1.5 0 0 1-1.298-.75l-1.034-1.788c-1.254 5.116-5.412 9.55-10.821 10.816a14.367 14.367 0 0 1-3.285.383c-3.704 0-7.286-1.448-10-4.133a1.5 1.5 0 1 1 2.108-2.133c2.778 2.745 6.698 3.855 10.491 2.963 4.476-1.049 7.874-4.81 8.704-9.06l-2.184 2.604a1.5 1.5 0 0 1-2.299-1.93l4.82-5.747a1.52 1.52 0 0 1 1.281-.53c.38.033.723.212.975.49.083.085.15.18.212.284l3.63 6.28Zm-24.677-6.504c.634.531.717 1.478.186 2.114l-4.818 5.748a1.502 1.502 0 0 1-1.268.532 1.498 1.498 0 0 1-1.167-.724l-3.842-6.392a1.502 1.502 0 0 1 .513-2.06 1.504 1.504 0 0 1 2.06.514l.849 1.416c.3-1.725.908-3.407 1.844-4.968 2.082-3.473 5.494-5.985 9.363-6.893a14.235 14.235 0 0 1 13.948 4.454 1.5 1.5 0 0 1-2.25 1.984 11.24 11.24 0 0 0-11.011-3.516c-3.086.722-5.81 2.732-7.476 5.513a11.317 11.317 0 0 0-1.628 5.547l2.585-3.083a1.499 1.499 0 0 1 2.112-.186Z"/></g></svg>