<svg xmlns="http://www.w3.org/2000/svg" viewBox="0 0 32 32"><g fill="none" fill-rule="evenodd"><path fill="#8EE39B" d="M20 16a3 3 0 0 1 3 3v8a3 3 0 0 1-6 0v-8a3 3 0 0 1 3-3zM4 20a3 3 0 0 1 3 3v4a3 3 0 0 1-6 0v-4a3 3 0 0 1 3-3zm24-8a3 3 0 0 1 3 3v12a3 3 0 0 1-6 0V15a3 3 0 0 1 3-3zm-16 2a3 3 0 0 1 3 3.01v9.98a3 3 0 1 1-6 0v-9.98A3 3 0 0 1 12 14z"/><path fill="#1EC737" d="M29.5 1h-6a1.5 1.5 0 1 0 0 3h2.38l-6.25 6.25-8.09-3.15a1.5 1.5 0 0 0-1.53.28l-8.5 7.5a1.5 1.5 0 1 0 1.98 2.24l7.82-6.9 8.15 3.18a1.5 1.5 0 0 0 1.6-.34L28 6.12V8.5a1.5 1.5 0 1 0 3 0v-6c0-.83-.67-1.5-1.5-1.5"/></g></svg>