<svg xmlns="http://www.w3.org/2000/svg" width="48" height="48"><g fill="none" fill-rule="evenodd"><path fill="#C2ADF4" d="M42 20.241V5a2 2 0 0 0-2-2h-4a2 2 0 0 0-2 2v7.241l-9.999-9.999-18 18V47h14V33h8v14h14V20.242Z"/><path fill="#855CEA" d="M47.728 24.324c-.008-.006-.012-.022-.02-.032l-23-23a1.012 1.012 0 0 0-1.414 0l-23 23a.989.989 0 0 0-.022 1.384c.454.452 1.066.386 1.422.038.004-.002.01-.004.014-.008L24.002 3.412l22.292 22.294a.042.042 0 0 0 .012.008c.382.37 1.01.37 1.388 0 .004-.002.01-.004.014-.008a.983.983 0 0 0 .02-1.382"/></g></svg>