<svg xmlns="http://www.w3.org/2000/svg" xmlns:xlink="http://www.w3.org/1999/xlink" width="48" height="48"><defs><path id="a" d="M0 .002h48V42H0z"/></defs><g fill="none" fill-rule="evenodd"><path fill="#B2D3FF" d="M2 43.43h44V11H2z"/><g transform="translate(0 3)"><mask id="b" fill="#fff"><use xlink:href="#a"/></mask><path fill="#197BFF" d="M45 39.715H3a1 1 0 0 1-1-1V8.287h44v30.428a1 1 0 0 1-1 1M44.996.002H3.002A2.986 2.986 0 0 0 0 2.988v36.026C0 40.65 1.344 42 3.002 42h41.995A2.988 2.988 0 0 0 48 39.014V2.988C48 1.352 46.656.002 44.997.002" mask="url(#b)"/></g><path fill="#197BFF" d="M15.803 32.499a.998.998 0 0 1-.7-.285L9.8 27.017a.995.995 0 0 1-.3-.71.985.985 0 0 1 .292-.71l5.304-5.303a.99.99 0 0 1 .707-.293c.267 0 .518.104.707.293a.99.99 0 0 1 .293.706.994.994 0 0 1-.293.708l-4.257 4.257a.498.498 0 0 0 .006.713l4.247 4.11a.989.989 0 0 1 .297.7.989.989 0 0 1-.286.71.987.987 0 0 1-.714.3M31.5 32.5a.998.998 0 0 1-.715-.3 1 1 0 0 1 .015-1.414l4.194-4.108a.502.502 0 0 0 .006-.709l-4.205-4.26a.995.995 0 0 1-.002-1.416.991.991 0 0 1 .707-.292c.266 0 .518.104.707.293l5.303 5.304a1.001 1.001 0 0 1-.007 1.422l-5.304 5.194a.987.987 0 0 1-.698.287M19.498 38.5a.995.995 0 0 1-.336-.06.99.99 0 0 1-.567-.512.988.988 0 0 1-.036-.764l7.5-21a1 1 0 0 1 1.276-.605c.52.186.79.759.605 1.278l-7.5 21a1.004 1.004 0 0 1-.942.663"/></g></svg>