<svg xmlns="http://www.w3.org/2000/svg" width="40" height="40"><g fill="none" fill-rule="evenodd"><path fill="#FFD799" d="M32 21c-2.21 0-4-2.015-4-4.5s1.79-4.5 4-4.5 4 2.015 4 4.5-1.79 4.5-4 4.5Zm-8 5c0-1 2-4 4-4s1 1 4 1 2-1 4-1 4 3 4 4 0 2-1 2H25c-1 0-1-1-1-2ZM8 21c-2.21 0-4-2.015-4-4.5S5.79 12 8 12s4 2.015 4 4.5S10.21 21 8 21Zm-8 5c0-1 2-4 4-4s1 1 4 1 2-1 4-1 4 3 4 4 0 2-1 2H1c-1 0-1-1-1-2Z"/><path fill="#FF9300" d="M20 22c-3.314 0-6-3.134-6-7s2.686-7 6-7 6 3.134 6 7-2.686 7-6 7ZM8 29c0-1.5 3-6 6-6s1.5 1.5 6 1.5 3-1.5 6-1.5 6 4.5 6 6 0 3-1.5 3h-21C8 32 8 30.5 8 29Z"/></g></svg>