<?xml version="1.0" encoding="UTF-8"?>
<svg width="48px" height="48px" viewBox="0 0 48 48" version="1.1" xmlns="http://www.w3.org/2000/svg" xmlns:xlink="http://www.w3.org/1999/xlink">
    <!-- Generator: Sketch 50.2 (55047) - http://www.bohemiancoding.com/sketch -->
    <title>icon-self-hosting</title>
    <desc>Created with Sketch.</desc>
    <defs>
        <polygon id="path-1" points="0 0.27 47.9996236 0.27 47.9996236 22.4054741 0 22.4054741"></polygon>
    </defs>
    <g id="icon-self-hosting" stroke="none" stroke-width="1" fill="none" fill-rule="evenodd">
        <path d="M41.4373,23.8582 L25.8623,11.1022 C24.7953,10.1712 23.2043,10.1712 22.1373,11.1022 L6.5693,23.8522 C5.8223,24.5042 5.3933,25.4482 5.3933,26.4412 L5.3933,44.2492 C5.3933,45.0642 6.0593,45.7302 6.8743,45.7302 L41.1253,45.7302 C41.9403,45.7302 42.6063,45.0642 42.6063,44.2492 L42.6063,26.4312 C42.6063,25.4452 42.1803,24.5072 41.4373,23.8582" id="Fill-1" fill="#B2D3FF"></path>
        <g id="Group-5" transform="translate(0.000000, 1.730300)">
            <mask id="mask-2" fill="white">
                <use xlink:href="#path-1"></use>
            </mask>
            <g id="Clip-4"></g>
            <path d="M47.2513,18.8783 L25.3103,0.7193 C24.9283,0.4033 24.4613,0.2583 24.0003,0.2703 C23.5383,0.2583 23.0713,0.4033 22.6903,0.7193 L14.6323,7.3883 C14.2583,7.6973 13.6933,7.4313 13.6933,6.9463 L13.6933,3.6243 C13.6933,2.8093 13.0263,2.1433 12.2113,2.1433 L8.2613,2.1433 C7.4473,2.1433 6.7803,2.8093 6.7803,3.6243 L6.7803,13.2433 C6.7803,13.6503 6.5993,14.0363 6.2853,14.2963 L0.7483,18.8783 C-0.0277,19.5203 -0.2417,20.6503 0.3033,21.4973 C0.9533,22.5073 2.3283,22.6973 3.2263,21.9543 L22.3833,6.1003 C23.3213,5.3243 24.6783,5.3243 25.6163,6.1003 L44.7733,21.9543 C45.6713,22.6973 47.0463,22.5073 47.6963,21.4973 C48.2413,20.6503 48.0273,19.5203 47.2513,18.8783" id="Fill-3" fill="#B2D3FF" mask="url(#mask-2)"></path>
        </g>
        <path d="M23.9998,24.0045 C19.5138,24.0045 15.9998,25.5855 15.9998,27.6045 C15.9998,28.8725 19.5688,30.4045 23.9998,30.4045 C27.6628,30.4045 30.8998,29.3955 31.9998,28.3425 L31.9998,27.6045 C31.9998,25.5855 28.4858,24.0045 23.9998,24.0045" id="Fill-6" fill="#197BFF"></path>
        <path d="M15.9998,29.0944 L15.9998,31.2044 C15.9998,32.4724 19.5678,34.0044 23.9998,34.0044 C27.6618,34.0044 30.8998,32.9954 31.9998,31.9414 L31.9998,29.3394 C30.2908,30.4894 27.0268,31.2044 23.9998,31.2044 C20.8278,31.2044 17.4898,30.3984 15.9998,29.0944" id="Fill-8" fill="#197BFF"></path>
        <path d="M15.9998,32.6944 L15.9998,34.8044 C15.9998,36.0724 19.5678,37.6044 23.9998,37.6044 C27.6618,37.6044 30.8998,36.5954 31.9998,35.5424 L31.9998,32.9394 C30.2908,34.0894 27.0258,34.8044 23.9998,34.8044 C20.8278,34.8044 17.4898,33.9984 15.9998,32.6944" id="Fill-10" fill="#197BFF"></path>
        <path d="M15.9998,36.2944 L15.9998,38.0044 C15.9998,40.0234 19.5138,41.6044 23.9998,41.6044 C28.4858,41.6044 31.9998,40.0234 31.9998,38.0044 L31.9998,36.5394 C30.2908,37.6894 27.0258,38.4044 23.9998,38.4044 C20.8278,38.4044 17.4898,37.5984 15.9998,36.2944" id="Fill-12" fill="#197BFF"></path>
    </g>
</svg>