<svg xmlns="http://www.w3.org/2000/svg" width="48" height="48"><g fill="none" fill-rule="evenodd"><path fill="#B5EDBD" d="M24 0C10.766 0 0 10.766 0 24c0 13.232 10.766 24 24 24 13.232 0 24-10.768 24-24C48 10.766 37.232 0 24 0Z"/><path fill="#1EC737" d="M26 22c.55 0 1 .448 1 1 0 .55-.45 1-1 1h-9c0 .71.046 1.37.122 2H24c.55 0 1 .448 1 1 0 .55-.45 1-1 1h-6.468c1.266 4.156 4.884 6 11.468 6 .55 0 1 .448 1 1 0 .55-.45 1-1 1-5.16 0-11.764-.936-13.534-8H13a1 1 0 0 1 0-2h2.106A19.06 19.06 0 0 1 15 24h-2a1 1 0 0 1 0-2h2.106c.942-8.91 8.278-10 13.894-10 .55 0 1 .448 1 1 0 .55-.45 1-1 1-7.558 0-11.212 2.424-11.878 8H26Z"/></g></svg>