<svg xmlns="http://www.w3.org/2000/svg" width="48" height="48"><g fill="none" fill-rule="evenodd"><path fill="#F62C2C" d="M21.698 19.502c8.81-8.845 13.485-13.538 14.027-14.078C38.108 3.038 46.42 1.6 47.359 1.44c.332-.057.672.054.91.294.238.236.347.574.293.91-.16.937-1.6 9.251-3.98 11.632L30.178 28.702c.06.131.091.276.091.427 0 .286.013.65.027 1.056.061 1.732.155 4.35-.496 6.296-.562 1.689-2.212 3.845-3.204 4.836l-7.377 7.377c-.2.2-.468.305-.737.305-.156 0-.31-.031-.455-.1-.4-.196-.634-.62-.584-1.06l1.043-9.13c.014-.118.047-.231.097-.335l-7.16-7.137c-.02-.02-.04-.041-.058-.062L2.2 32.553a1.043 1.043 0 0 1-1.087-.563 1.044 1.044 0 0 1 .191-1.207l7.378-7.377c1.01-1.01 3.113-2.711 4.775-3.268 2.084-.693 6.776-.73 7.694-.73.221 0 .401.035.547.094Z"/><path fill="#FA9696" d="M12.852 34.196c-1.728-1.728-4.483-1.42-6.64.738-2.18 2.18-4.452 11.295-4.704 12.326-.088.355.018.728.277.985a1.033 1.033 0 0 0 .987.278c1.03-.257 10.114-2.555 12.297-4.732 2.203-2.21 2.5-4.879.734-6.644l-2.95-2.951Z"/></g></svg>