<svg xmlns="http://www.w3.org/2000/svg" width="16" height="16" fill="none" viewBox="-3 0 16 16"><path fill="#95999D" fill-rule="evenodd" d="M8.667 16H1.333C.597 16 0 15.377 0 14.609V1.39C0 .623.597 0 1.333 0h7.334C9.403 0 10 .623 10 1.391V14.61c0 .767-.597 1.39-1.333 1.39Z" clip-rule="evenodd"/><path fill="#F5F6F7" d="M4 1a.25.25 0 0 1 0-.5h2A.25.25 0 1 1 6 1H4Z"/><path fill="#F5F6F7" fill-rule="evenodd" d="M5.75 14.75a.75.75 0 1 1-1.5 0 .75.75 0 0 1 1.5 0Z" clip-rule="evenodd"/><path fill="#32363F" d="M.5 1.5h9V14h-9z"/></svg>