<svg xmlns="http://www.w3.org/2000/svg" width="48" height="48"><g fill="#FFC730" fill-rule="evenodd" transform="translate(9 -1)"><ellipse cx="15.5" cy="34.404" stroke="#979797" opacity=".335" rx="12.4" ry="12.511"/><path d="m6.983 16.343 1.157 2.54a16.9 16.9 0 0 1 15.752.07l.951-2.572 4.045-9.007a.966.966 0 0 0 .09-.41V1.958c0-.552-.449-1-1.001-1h-5.048v13.01a1.001 1.001 0 0 1-2.002 0V.96h-4.004v13.01a1.001 1.001 0 0 1-2.002 0V.96h-4.004v13.01a1.001 1.001 0 0 1-2.002 0V.96H3.91a1 1 0 0 0-1.001 1v5.004c0 .14.028.28.086.409l3.988 8.971Zm18.57 15.422-4.485 3.583 1.822 6.365a.99.99 0 0 1-.362 1.08c-.18.121-.38.201-.6.201a.991.991 0 0 1-.52-.16l-5.487-3.423-5.466 3.423c-.36.22-.799.2-1.139-.04-.32-.26-.482-.68-.362-1.081l1.822-6.365-4.485-3.583c-.34-.28-.46-.721-.32-1.121s.522-.661.94-.661h5.386l2.745-5.465c.318-.68 1.44-.68 1.782 0l2.723 5.465h5.383c.42 0 .803.26.941.66.142.4.022.841-.318 1.122m-9.61-12.791c-8.28 0-15.016 6.733-15.016 15.012C.927 42.266 7.662 49 15.943 49c8.28 0 15.016-6.734 15.016-15.013s-6.735-15.012-15.016-15.012"/></g></svg>