<svg xmlns="http://www.w3.org/2000/svg" width="48" height="48"><g fill="none" fill-rule="evenodd"><path fill="#4AACF6" d="M17.763 27.511a.813.813 0 0 1-1.15-1.149l3.25-3.25a.811.811 0 0 1 1.386.575l.001 12.188h2.438a.812.812 0 1 1 0 1.625h-6.5a.813.813 0 0 1 0-1.625h2.437V25.649l-1.862 1.862Zm5.924-3.823c0-.45.366-.813.813-.813h8.125c.268 0 .518.13.67.348.149.22.185.499.092.75l-2.026 5.402h.451a.812.812 0 1 1 0 1.625h-1.06l-2.24 5.974a.812.812 0 0 1-1.046.474.815.815 0 0 1-.477-1.047L29.017 31h-2.08a.813.813 0 0 1 0-1.625h2.69l1.828-4.875h-6.142v.813a.812.812 0 1 1-1.625 0v-1.625ZM5 43.188c0 .448.366.812.813.812h37.374c.45 0 .813-.364.813-.813V18H5v25.188Z"/><path fill="#377EFA" d="M35.875 11.286h-3.25V6.57h3.25v4.715Zm-19.5 0h-3.25V6.57h3.25v4.715Zm26.813-3.143H37.5V5.786A.8.8 0 0 0 36.687 5h-4.874c-.447 0-.813.352-.813.786v2.357H18V5.786A.8.8 0 0 0 17.187 5h-4.875c-.446 0-.812.352-.812.786v2.357H5.812c-.446 0-.812.352-.812.786V16h39V8.929a.8.8 0 0 0-.813-.786Z"/></g></svg>