<?xml version="1.0" encoding="UTF-8"?>
<svg width="48px" height="48px" viewBox="0 0 48 48" version="1.1" xmlns="http://www.w3.org/2000/svg" xmlns:xlink="http://www.w3.org/1999/xlink">
    <!-- Generator: Sketch 44.1 (41455) - http://www.bohemiancoding.com/sketch -->
    <title>icon-rocket</title>
    <desc>Created with Sketch.</desc>
    <defs></defs>
    <g id="Page-1" stroke="none" stroke-width="1" fill="none" fill-rule="evenodd">
        <g id="icon-rocket">
            <g id="rocket" transform="translate(1.000000, 1.000000)">
                <path d="M20.6982026,18.5022791 C29.5074699,9.65711401 34.182956,4.964192 34.7246609,4.42351304 C37.1079652,2.03812174 45.420313,0.600208696 46.3594435,0.439513043 C46.6912696,0.383165217 47.0314435,0.493773913 47.2693565,0.733773913 C47.5072696,0.9696 47.6157913,1.30768696 47.5615304,1.64368696 C47.4029217,2.58073043 45.9629217,10.8951652 43.5817043,13.2763826 L29.178282,27.7016611 C29.2371862,27.8333979 29.2693565,27.9784519 29.2693565,28.1290435 C29.2693565,28.4149565 29.2818783,28.778087 29.296487,29.1850435 C29.3570087,30.9172174 29.4509217,33.5342609 28.7997913,35.4813913 C28.2384,37.1697391 26.5876174,39.3255652 25.596313,40.3168696 L18.2189217,47.6942609 C18.0185739,47.8946087 17.7514435,47.9989565 17.4822261,47.9989565 C17.3257043,47.9989565 17.1712696,47.9676522 17.0272696,47.8987826 C16.6265739,47.7026087 16.3928348,47.2789565 16.4429217,46.8386087 L17.4864,37.7081739 C17.4998438,37.5913165 17.5327602,37.4780462 17.582864,37.3736954 L10.4224842,30.2369806 C10.4022305,30.2167938 10.3830226,30.1959548 10.3648607,30.1745307 L1.19958261,31.553113 C1.1474087,31.5614609 1.09314783,31.5656348 1.04306087,31.5656348 C0.6528,31.5656348 0.289669565,31.3444174 0.112278261,30.9896348 C-0.0901565217,30.5868522 -0.0129391304,30.1026783 0.304278261,29.7833739 L7.68166957,22.4059826 C8.69175652,21.3958957 10.7954087,19.6950261 12.4566261,19.1378087 C14.5414957,18.4449391 19.2329739,18.4073739 20.1512348,18.4073739 C20.3724652,18.4073739 20.5521928,18.4434731 20.6982026,18.5022791 Z" id="Combined-Shape" fill="#F62C2C"></path>
                <path d="M11.8522435,33.1955478 C10.1242435,31.4675478 7.36946087,31.7764174 5.21154783,33.9343304 C3.03276522,36.113113 0.760069565,45.2289391 0.507547826,46.2598957 C0.419895652,46.6146783 0.526330435,46.9882435 0.785113043,47.2449391 C0.983373913,47.445287 1.24841739,47.5517217 1.5218087,47.5517217 C1.60528696,47.5517217 1.69085217,47.5433739 1.77224348,47.5225043 C2.80111304,47.2658087 11.8856348,44.9680696 14.0685913,42.7913739 C16.2724174,40.581287 16.5687652,37.9120696 14.8032,36.1465043 L11.8522435,33.1955478 Z" id="Fill-1481" fill="#FA9696"></path>
            </g>
        </g>
    </g>
</svg>