<svg xmlns="http://www.w3.org/2000/svg" width="48" height="48" viewBox="0 0 48 48">
    <g fill="none" fill-rule="evenodd">
        <g fill-rule="nonzero">
            <path fill="#FF9126" d="M30.334 43.666v.778c0 .13-.007.26-.02.386-.193 1.74-1.668 3.093-3.458 3.093h-5.334c-1.79 0-3.265-1.353-3.457-3.093-.014-.126-.02-.256-.02-.386v-.778c.46.205.97.319 1.506.319h9.276c.537 0 1.047-.114 1.507-.319zM32.537 39.275c0 1.512-.906 2.814-2.203 3.391-.46.205-.97.319-1.507.319H19.55c-.536 0-1.047-.114-1.507-.319-1.297-.577-2.203-1.88-2.203-3.391 0 0-.06-.129-.07-.27L32.5 39l.037.275zM32.5 38H15.804s-.023-3.854-.033-3.995L32.5 34v4z"/>
            <path fill="#FFD799" d="M24.03.058C15.076-.08 7.546 7.725 7.707 16.614c0 4.534 1.796 8.644 4.706 11.634 1.715 1.764 3.199 3.394 3.363 5.762l16.73.027c.094-2.437 1.479-4.083 3.205-5.886 2.855-2.98 4.613-7.05 4.613-11.537C40.324 7.475 33.03.066 24.03.058z"/>
        </g>
    </g>
</svg>
