<svg xmlns="http://www.w3.org/2000/svg" width="48" height="48"><g fill="none" fill-rule="evenodd"><path fill="#CEBEF7" d="m25.128 30-.272-.002-.492-.012c-.918-.036-1.454-.146-1.896-.322l-.215-.094a3.637 3.637 0 0 1-1.823-1.823l-.094-.215c-.176-.442-.286-.978-.322-1.896l-.012-.492V8.856l.012-.492c.036-.918.146-1.454.322-1.896l.094-.215a3.637 3.637 0 0 1 1.823-1.823l.215-.094c.442-.176.978-.286 1.896-.322l.492-.012h18.288l.492.012c.918.036 1.454.146 1.896.322l.215.094a3.637 3.637 0 0 1 1.823 1.823l.094.215c.176.442.286.978.322 1.896l.012.492.002.272v15.744l-.002.272-.012.492c-.036.918-.146 1.454-.322 1.896l-.094.215a3.637 3.637 0 0 1-1.823 1.823l-.215.094c-.442.176-.978.286-1.896.322l-.492.012-.272.002H36v5.171l5.414 5.415.117.127a2 2 0 0 1-2.818 2.818l-.127-.117-4.642-4.641-5.087 4.697a2 2 0 0 1-2.835-2.817l.121-.123L32 35.124V30h-6.872z"/><path fill="#855CEA" fill-rule="nonzero" d="M23.119 18.98c.52 0 .908.488.788.965l-.031.095-.909 2.422c-.134.27-.348.459-.643.462l-.114-.008h-7.267c-.81 0-1.53.63-1.608 1.466l-.865 17.915c-.048.857-.68 1.49-1.474 1.558l-.141.006H5.858c-.81 0-1.485-.63-1.6-1.423l-.015-.141-.605-10.347-.737-.076c-.714-.078-1.358-.163-1.888-.277C.401 31.456.01 30.963 0 30.364l.004-.13.707-6.51c.294-2.598 2.445-4.625 5.066-4.74l.233-.004h17.109zM41 22a1 1 0 0 1 0 2H31a1 1 0 0 1 0-2h10zm0-4a1 1 0 0 1 0 2H31a1 1 0 0 1 0-2h10zM8.331 6.615a5.45 5.45 0 1 1 0 10.902 5.45 5.45 0 0 1 0-10.902zM41 14a1 1 0 0 1 0 2H27a1 1 0 0 1 0-2h14zm0-4a1 1 0 0 1 0 2H27a1 1 0 0 1 0-2h14z"/></g></svg>