<svg xmlns="http://www.w3.org/2000/svg" width="48" height="48"><g fill="none" fill-rule="evenodd"><path fill="#C2ADF4" d="M0 24v-7h12v7c-.004 2.164-.674 3.458-2 3.864V36H2v-8.136C.672 27.46 0 26.166 0 24Zm36-7h12v7c-.004 2.164-.674 3.458-2 3.864V36h-8v-8.136c-1.328-.404-2-1.698-2-3.864v-7Zm6-2c-2.204 0-4-1.794-4-4s1.796-4 4-4c2.206 0 4 1.794 4 4s-1.794 4-4 4ZM6 15c-2.204 0-4-1.794-4-4s1.796-4 4-4c2.206 0 4 1.794 4 4s-1.794 4-4 4Z"/><path fill="#855CEA" d="M16 28V17h16v11a5.007 5.007 0 0 1-4 4.9V45h-8V32.9a5.007 5.007 0 0 1-4-4.9Zm8-13c-3.308 0-6-2.692-6-6s2.692-6 6-6 6 2.692 6 6-2.692 6-6 6Z"/></g></svg>