<svg xmlns="http://www.w3.org/2000/svg" width="48" height="48" viewBox="0 0 48 48">
  <g fill="none" fill-rule="evenodd" transform="translate(7)">
    <path fill="#FFE2A1" d="M8,12 C8,6.486 12.484,2 18,2 C23.514,2 28,6.486 28,12 L28,18 L8,18 L8,12 Z M0,48 L36,48 L36,18 L30,18 L30,12 C30,5.382 24.616,0 18,0 C11.382,0 6,5.382 6,12 L6,18 L0,18 L0,48 Z"/>
    <path fill="#FF9A1A" d="M16,30 C16,28.896 16.896,28 18,28 C19.102,28 20,28.896 20,30 C20,30.736 19.594,31.376 19,31.72 L19,37 C19,37.55 18.55,38 18,38 C17.448,38 17,37.55 17,37 L17,31.72 C16.404,31.376 16,30.736 16,30 L16,30 Z"/>
  </g>
</svg>
