<svg xmlns="http://www.w3.org/2000/svg" width="32" height="32" fill="none"><path fill="#32363F" fill-rule="evenodd" d="M2 25V5.995C2 4.893 2.9 4 3.991 4H28.01C29.109 4 30 4.902 30 5.995V25H2Z" clip-rule="evenodd"/><path fill="#5D6165" d="M4 6h24v16H4z"/><path fill="#95999D" fill-rule="evenodd" d="M19.008 24.412 19 24.5c0 .276-.233.5-.503.5h-5.994a.509.509 0 0 1-.495-.412L12 24.5c0-.276-.229-.5-.5-.5H.5c-.276 0-.5.215-.5.49V26c0 1.105.89 2 2.002 2h27.996A1.996 1.996 0 0 0 32 26v-1.51c0-.27-.226-.49-.494-.49H19.494a.502.502 0 0 0-.486.412Z" clip-rule="evenodd"/><rect width="12" height="18" x="20" y="12" fill="#32363F" rx="2"/><path fill="#5D6165" d="M22 14h8v14h-8z"/></svg>