<svg xmlns="http://www.w3.org/2000/svg" width="48" height="48"><g fill="none" fill-rule="evenodd"><path fill="#197BFF" d="M8.001 26A5.005 5.005 0 0 0 13 21c0-2.756-2.243-5-4.999-5A5.007 5.007 0 0 0 3 21c0 2.757 2.244 5 5.001 5M0 29c0 4.777.32 9.178 4 10.627V48h8v-8.373c3.68-1.449 4-5.85 4-10.627v-1H0v1Zm40.001-3A5.005 5.005 0 0 0 45 21c0-2.756-2.243-5-4.999-5A5.007 5.007 0 0 0 35 21c0 2.757 2.244 5 5.001 5M32 28v1c0 4.777.32 9.178 4 10.627V48h8v-8.373c3.68-1.449 4-5.85 4-10.627v-1H32Z"/><path fill="#B2D3FF" d="M24.001 10A5.005 5.005 0 0 0 29 5c0-2.756-2.243-5-4.999-5A5.007 5.007 0 0 0 19 5c0 2.757 2.244 5 5.001 5M32 12H16v1c0 4.777.32 9.178 4 10.627V32h8v-8.373c3.68-1.449 4-5.85 4-10.627v-1Z"/></g></svg>