<svg xmlns="http://www.w3.org/2000/svg" viewBox="0 0 32 32"><g fill="none"><path fill="#FEC267" d="M29.52 29.16a2.95 2.95 0 0 1-2.54 2.8c-2.7.06-1.42.09-5.74-.17l-1.08.16a21.15 21.15 0 0 1-13.55-3.81A10.48 10.48 0 0 1 2 19.43v-6.16c0-1.13.94-2.06 2.11-1.95 5.37.6 6.07 4.1 6.98 4.95l.2.12a8.4 8.4 0 0 1 5.4.32 7 7 0 0 1 4.06 4.21c.25.14.38.14.42.02.53-2.21 3.12-4.42 3.89-9.76.02-.05.15-.73 0-1.54-.06-.45-.3-1.17-.4-1.74-2.02-.79-1.85-.73-2.6-1.3a.5.5 0 0 0-.5-.06c-2.67 1.17-3.78-.17-3.78-.17-.73-1.04-1.08-2.1-1.44-3.92l.02-.18c.09-.51.44-.93.93-1.1 1.25-.4 3.37-.96 4.04-1.14a.86.86 0 0 1 .5.01c1.64.56 5.86 3.7 5.86 3.7.98.8 1.63 1.97 1.73 3.54.44 6.68.5 8.57.57 12.63.08 4.67-.46 6.74-.47 9.1v.15z"/><path fill="#FF962F" d="M10 20.38a1 1 0 0 1 1.38.3c1.83 2.9 3.62 2.82 6.82 2.93.55.02 1 .45 1 1a.99.99 0 0 1-1 1c-3.7-.11-6.29-.36-8.5-3.85a1 1 0 0 1 .3-1.38z"/></g></svg>