<svg xmlns="http://www.w3.org/2000/svg" width="32" height="32" fill="none"><path fill="#297EF2" fill-rule="evenodd" d="M23.333 32H8.667C7.193 32 6 30.753 6 29.217V2.783C6 1.247 7.193 0 8.667 0h14.666C24.805 0 26 1.247 26 2.783v26.434C26 30.753 24.805 32 23.333 32Z" clip-rule="evenodd"/><path fill="#B3D3FF" d="M8 3h16v26H8z"/><path fill="#297EF2" fill-rule="evenodd" d="M15 13.414V21a1 1 0 1 0 2 0v-7.586l1.293 1.293a1 1 0 0 0 1.414-1.414l-3-3a1 1 0 0 0-1.414 0l-3 3a1 1 0 0 0 1.414 1.414L15 13.414Z" clip-rule="evenodd"/></svg>