<svg xmlns="http://www.w3.org/2000/svg" width="48" height="48"><g fill="none" fill-rule="evenodd"><path fill="#197BFF" d="M19.168 47.52c.184.276.496.446.832.446h16c.482 0 .896-.346.984-.82l1.988-10.956c.564-2.438-.23-5.34-2.816-6.172L28 27.248V15.966c0-2.206-1.796-4-4-4-2.208 0-4 1.794-4 4v18.798c-2.95-3.944-4.88-4.798-7-4.798-1.002 0-1.8.454-2.246 1.282-.702 1.294-.312 3.164.414 4.272l8 12Z"/><path fill="#B2D3FF" d="M41 13.965a2 2 0 0 1-2 2h-6a2 2 0 1 1 0-4h6a2 2 0 0 1 2 2Zm-8.586-3.587c-.39.392-.902.586-1.414.586a1.998 1.998 0 0 1-1.414-3.414l4-4c.78-.78 2.046-.78 2.828 0a1.998 1.998 0 0 1 0 2.828l-4 4ZM26 7.965a2 2 0 0 1-4 0v-6a2 2 0 1 1 4 0v6Zm-9 3a1.995 1.995 0 0 1-1.414-.586l-4-4a2 2 0 1 1 2.828-2.83l4 4A2 2 0 0 1 17 10.965Zm-10 3a2 2 0 0 1 2-2h6a2 2 0 0 1 0 4H9a2 2 0 0 1-2-2Z"/></g></svg>