<svg xmlns="http://www.w3.org/2000/svg" width="17" height="16" fill="none"><path fill="#1D212A" fill-opacity=".72" fill-rule="evenodd" d="M12.756 8.5c.022 2.422 2.124 3.227 2.147 3.238-.018.056-.336 1.148-1.107 2.275-.667.975-1.36 1.946-2.45 1.966-1.07.02-1.415-.635-2.64-.635s-1.607.615-2.622.655c-1.052.04-1.853-1.054-2.526-2.025-1.374-1.987-2.424-5.613-1.014-8.062.7-1.215 1.952-1.985 3.31-2.005 1.034-.02 2.01.695 2.641.695.632 0 1.817-.86 3.063-.733.522.022 1.986.21 2.927 1.587-.076.047-1.748 1.02-1.73 3.044m-2.013-5.945c.559-.677.935-1.618.832-2.555-.805.032-1.779.537-2.357 1.213-.517.598-.97 1.556-.848 2.475.897.069 1.814-.457 2.373-1.133" clip-rule="evenodd"/></svg>