<?xml version="1.0" encoding="UTF-8"?>
<svg width="48px" height="48px" viewBox="0 0 48 48" version="1.1" xmlns="http://www.w3.org/2000/svg" xmlns:xlink="http://www.w3.org/1999/xlink">
    <!-- Generator: Sketch 48.2 (47327) - http://www.bohemiancoding.com/sketch -->
    <title>icon-privacy</title>
    <desc>Created with Sketch.</desc>
    <defs></defs>
    <g id="icon-site" stroke="none" stroke-width="1" fill="none" fill-rule="evenodd" transform="translate(-192.000000, -96.000000)">
        <g id="slices" transform="translate(96.000000, 96.000000)"></g>
        <g id="privacy" transform="translate(192.000000, 99.000000)">
            <path d="M0.0523,21.0492 C0.4543,21.8412 0.9213,22.5692 1.4613,23.2242 C2.1623,24.0742 2.9733,24.8082 3.9023,25.3932 L3.9023,40.4302 C3.9023,41.4882 3.0383,42.3512 1.9743,42.3512 C0.9153,42.3512 0.0523,41.4882 0.0523,40.4302 L0.0523,21.0492 Z M1.9743,0.0002 C3.0383,0.0002 3.9023,0.8642 3.9023,1.9282 L3.9023,2.2662 C2.3053,2.6682 0.9933,3.1812 0.0523,3.8182 L0.0523,1.9282 C0.0523,0.8642 0.9153,0.0002 1.9743,0.0002 Z" id="Fill-1" fill="#C2ADF4"></path>
            <path d="M23.9963,21.8672 C19.6593,21.8672 18.7513,25.4322 9.8753,25.4252 C3.2463,25.4252 0.0003,20.0492 0.0003,13.4202 L0.0003,6.4802 C0.0003,3.2792 11.9923,2.3052 23.9963,2.4032 C35.9953,2.3052 47.9993,3.2722 47.9993,6.4802 L47.9993,13.4202 C47.9993,20.0492 44.7533,25.4252 38.1243,25.4252 C29.2423,25.4252 28.3403,21.8672 23.9963,21.8672 Z M43.3573,10.8432 C39.2603,6.1292 32.4883,7.8822 28.2233,11.7262 C28.0933,11.8422 28.0353,12.0182 28.0543,12.2062 C28.0743,12.3882 28.1843,12.5372 28.3343,12.6152 C36.4033,16.5242 38.7543,16.1272 43.3373,11.6092 C43.4293,11.5052 43.4933,11.3812 43.4933,11.2322 C43.4933,11.0832 43.4483,10.9532 43.3573,10.8432 Z M4.6353,10.8432 C4.5443,10.9472 4.4933,11.0762 4.4993,11.2262 C4.5053,11.3752 4.5513,11.4982 4.6553,11.6022 C9.2393,16.1212 11.5953,16.5172 19.6533,12.6092 C19.8093,12.5372 19.9133,12.3882 19.9393,12.1992 C19.9583,12.0112 19.8993,11.8362 19.7633,11.7192 C15.5103,7.8822 8.7263,6.1292 4.6353,10.8432 Z" id="Combined-Shape" fill="#855CEA"></path>
        </g>
    </g>
</svg>