<svg xmlns="http://www.w3.org/2000/svg" width="48" height="48" viewBox="0 0 48 48">
  <g fill="none" fill-rule="evenodd">
    <path fill="#B5EDBD" d="M24,0 C10.766,0 0,10.766 0,24 C0,37.232 10.766,48 24,48 C37.232,48 48,37.232 48,24 C48,10.766 37.232,0 24,0 L24,0 Z"/>
    <path fill="#1EC737" d="M26,22 C26.55,22 27,22.448 27,23 C27,23.55 26.55,24 26,24 L17,24 C17,24.71 17.046,25.37 17.122,26 L24,26 C24.55,26 25,26.448 25,27 C25,27.55 24.55,28 24,28 L17.532,28 C18.798,32.156 22.416,34 29,34 C29.55,34 30,34.448 30,35 C30,35.55 29.55,36 29,36 C23.84,36 17.236,35.064 15.466,28 L13,28 C12.448,28 12,27.55 12,27 C12,26.448 12.448,26 13,26 L15.106,26 C15.04,25.372 15,24.708 15,24 L13,24 C12.448,24 12,23.55 12,23 C12,22.448 12.448,22 13,22 L15.106,22 C16.048,13.09 23.384,12 29,12 C29.55,12 30,12.448 30,13 C30,13.55 29.55,14 29,14 C21.442,14 17.788,16.424 17.122,22 L26,22 Z"/>
  </g>
</svg>
