<svg xmlns="http://www.w3.org/2000/svg" width="17" height="16" fill="none"><path fill="#1D212A" fill-opacity=".72" d="M8.954 11.514c-1.281.596-2.471.59-3.272.532-.954-.069-1.72-.33-2.058-.558a.454.454 0 1 0-.51.752c.542.367 1.502.64 2.503.712.17.012.356.02.557.02.872 0 1.979-.083 3.163-.634a.455.455 0 0 0-.383-.823Zm5.051-.673c.043-3.948.45-11.41-7.109-10.807-7.463.6-5.484 8.484-5.595 11.124C1.202 12.556.739 14.262.084 16h2.017c.207-.736.36-1.464.425-2.159.122.086.252.168.391.246.226.133.42.31.626.498.48.438 1.024.933 2.088.995.072.005.144.006.214.006 1.077 0 1.813-.47 2.405-.849.283-.181.528-.338.759-.414.655-.205 1.226-.536 1.654-.957a2.93 2.93 0 0 0 .187-.202c.238.873.565 1.856.927 2.836h4.307c-1.034-1.598-2.1-3.162-2.079-5.159ZM2.023 8.693C1.949 7.403 2.565 6.32 3.4 6.27c.834-.048 1.571.957 1.645 2.245v.001a4.1 4.1 0 0 1 .006.206A3.216 3.216 0 0 0 4.335 9l-.003-.029c-.071-.732-.462-1.284-.872-1.234-.41.05-.686.684-.614 1.415v.001c.031.319.123.603.25.82l-.225.166-.286.21c-.311-.408-.524-.994-.562-1.655Zm8.456 3.185c-.03.681-.921 1.322-1.744 1.579l-.004.002c-.342.11-.648.306-.971.513-.542.347-1.104.706-1.914.706a2.93 2.93 0 0 1-.162-.005c-.743-.043-1.09-.36-1.53-.76-.232-.212-.471-.43-.78-.611l-.007-.005c-.668-.376-1.082-.845-1.108-1.253-.013-.203.077-.378.268-.521.416-.313.695-.516.88-.652.205-.15.267-.194.313-.238l.106-.102c.382-.372 1.021-.994 2.002-.994.6 0 1.265.232 1.972.686.333.217.623.317.99.444.253.087.539.186.922.35l.006.003c.358.146.78.415.76.858Zm-.197-1.6a3.13 3.13 0 0 0-.215-.098 12.878 12.878 0 0 0-.852-.328c.127-.249.206-.558.213-.895.018-.819-.395-1.483-.922-1.484-.526-.001-.968.661-.985 1.48l-.001.08a4.62 4.62 0 0 0-.955-.325 5.483 5.483 0 0 1-.004-.092v-.001c-.031-1.491.884-2.725 2.043-2.757 1.158-.031 2.122 1.152 2.152 2.643v.001a3.184 3.184 0 0 1-.475 1.776Z"/></svg>