<svg xmlns="http://www.w3.org/2000/svg" width="32" height="32" fill="none"><mask id="a" width="22" height="18" x="5" y="7" maskUnits="userSpaceOnUse" style="mask-type:luminance"><path fill="#fff" fill-rule="evenodd" d="M26.667 7.333h-4v10.334a3 3 0 0 1-3 3H5.333v4h21.334V7.333Z" clip-rule="evenodd"/></mask><g mask="url(#a)"><rect width="21.333" height="17.333" x="5.333" y="7.333" fill="#8EE39B" rx="2"/><path fill="#1EC737" fill-rule="evenodd" d="m5.333 20.667 3.96-3.96a1 1 0 0 1 1.414 0l1.96 1.96 5.293-5.293a1 1 0 0 1 1.414 0l7.293 7.293v2a2 2 0 0 1-2 2H7.333a2 2 0 0 1-2-2v-2Z" clip-rule="evenodd"/></g><mask id="b" width="22" height="18" x="10" y="12" maskUnits="userSpaceOnUse" style="mask-type:luminance"><path fill="#fff" fill-rule="evenodd" d="M32 12.667h-4V23a3 3 0 0 1-3 3H10.667v4H32V12.667Z" clip-rule="evenodd"/></mask><g mask="url(#b)"><rect width="21.333" height="17.333" x="10.667" y="12.667" fill="#8EE39B" rx="2"/><path fill="#1EC737" fill-rule="evenodd" d="m10.667 26 3.96-3.96a1 1 0 0 1 1.413 0L18 24l5.293-5.293a1 1 0 0 1 1.414 0L32 26v2a2 2 0 0 1-2 2H12.667a2 2 0 0 1-2-2v-2Z" clip-rule="evenodd"/></g><rect width="21.333" height="17.333" y="2" fill="#8EE39B" rx="2"/><path fill="#1EC737" fill-rule="evenodd" d="m0 15.333 3.96-3.96a1 1 0 0 1 1.414 0l1.96 1.96 5.292-5.293a1 1 0 0 1 1.414 0l7.293 7.293v2a2 2 0 0 1-2 2H2a2 2 0 0 1-2-2v-2Z" clip-rule="evenodd"/><circle cx="5.333" cy="6.667" r="2" fill="#fff"/><path stroke="#8EE39B" stroke-linecap="round" stroke-linejoin="round" d="m7.333 12.667-3.666 3.666 3.666-3.666Z" clip-rule="evenodd"/></svg>