<?xml version="1.0" encoding="UTF-8"?>
<svg width="40px" height="40px" viewBox="0 0 40 40" version="1.1" xmlns="http://www.w3.org/2000/svg" xmlns:xlink="http://www.w3.org/1999/xlink">
    <!-- Generator: Sketch 50.2 (55047) - http://www.bohemiancoding.com/sketch -->
    <title>icon-services</title>
    <desc>Created with Sketch.</desc>
    <defs></defs>
    <g id="icon-services" stroke="none" stroke-width="1" fill="none" fill-rule="evenodd">
        <g id="categories" transform="translate(4.000000, 4.000000)" fill-rule="nonzero">
            <path d="M6.6889775,12.4452417 L1.38428598,9.98671863 C0.975915481,9.78252921 0.77379271,9.57627728 0.567544984,9.16789845 C0.161236964,8.14488886 0.567544984,7.32400616 1.38428598,6.91356481 L16.0711866,0.15468895 C16.4795571,-0.0515629834 16.8858651,-0.0515629834 17.2962981,0.15468895 L31.9811362,6.91356481 C32.593692,7.11775423 33,7.73444751 33,8.34907827 C33,8.96370903 32.593692,9.57627728 31.9811362,9.78252921 L26.4743219,12.4452417 L25.2492105,13.0598724 L17.2962981,16.9518464 C16.8136784,17.2426616 16.2733093,17.1704735 15.8670013,16.9518464 C15.4586308,16.7352819 7.91202651,13.0598724 7.91202651,13.0598724 L6.6889775,12.4452417 Z" id="Combined-Shape" fill="#FCD0D5"></path>
            <path d="M31.4991353,22.3599784 C33.1078676,23.1829236 32.8933699,25.1340669 31.3238247,25.9817623 L17.3691035,32.7942637 C16.8081097,33.0685788 16.1501794,33.0685788 15.5871231,32.7942637 L1.18071947,25.7610728 C0.774411453,25.5568833 0.568163727,25.3506314 0.363978478,24.9422526 C-0.0423295417,23.9171805 0.363978478,23.0983603 1.18071947,22.6879189 L3.01632424,21.8690988 L8.11476803,24.3276218 L15.5953731,27.8957803 C16.1563669,28.1618453 16.8060472,28.1597827 17.3629161,27.8854677 L25.0456439,24.1213699 L29.9399025,21.6649094 L31.4991353,22.3599784 Z" id="Combined-Shape" fill="#FCD0D5"></path>
            <path d="M32.5926607,15.7234099 C32.9989688,16.5422301 32.5926607,17.5673022 31.3675492,18.181933 L26.677476,20.4342041 L25.4523645,21.0508974 L17.0828317,25.2522492 C16.509463,25.5410019 15.8350329,25.5410019 15.2616642,25.2522492 L6.89213151,21.0508974 L5.66702001,20.4342041 L0.97694672,18.181933 C0.568576222,17.975681 0.364390973,17.7714916 0.160205725,17.3610503 C-0.248164773,16.3380407 0.160205725,15.517158 0.97694672,15.1087791 L3.62723,13.8795176 L8.11518052,15.9275993 L15.5937231,19.4957578 C16.1547169,19.7618228 16.8064597,19.7597602 17.3633286,19.4854452 L25.860735,15.3129686 L29.123574,13.6753282 L31.7759197,14.9045897 C32.1842902,15.1087791 32.3884755,15.3129686 32.5926607,15.7234099 Z" id="Combined-Shape" fill="#F1142D"></path>
        </g>
    </g>
</svg>