<svg xmlns="http://www.w3.org/2000/svg" width="48" height="48"><g fill="none" fill-rule="nonzero"><path fill="#FF9126" d="M30.334 43.666v.778a3.48 3.48 0 0 1-3.478 3.479h-5.334a3.48 3.48 0 0 1-3.477-3.479v-.778c.46.205.97.319 1.506.319h9.276c.537 0 1.047-.114 1.507-.319zm2.203-4.391a3.712 3.712 0 0 1-3.71 3.71H19.55a3.713 3.713 0 0 1-3.71-3.71s-.06-.129-.07-.27L32.5 39l.037.275zM32.5 38H15.804s-.023-3.854-.033-3.995L32.5 34v4z"/><path fill="#FFD799" d="M24.03.058C15.076-.08 7.546 7.725 7.707 16.614a16.63 16.63 0 0 0 4.706 11.634c1.715 1.764 3.199 3.394 3.363 5.762l16.73.027c.094-2.437 1.479-4.083 3.205-5.886a16.625 16.625 0 0 0 4.613-11.537C40.324 7.475 33.03.066 24.03.058z"/></g></svg>