<?xml version="1.0" encoding="UTF-8"?>
<svg width="48px" height="48px" viewBox="0 0 48 48" version="1.1" xmlns="http://www.w3.org/2000/svg" xmlns:xlink="http://www.w3.org/1999/xlink">
    <!-- Generator: Sketch 48.2 (47327) - http://www.bohemiancoding.com/sketch -->
    <title>icon-partners</title>
    <desc>Created with Sketch.</desc>
    <defs></defs>
    <g id="icon-site" stroke="none" stroke-width="1" fill="none" fill-rule="evenodd" transform="translate(-288.000000, -96.000000)">
        <g id="slices" transform="translate(96.000000, 96.000000)"></g>
        <g id="partners" transform="translate(288.000000, 103.000000)">
            <path d="M27.9518,6.9101 C28.7058,6.9101 29.4688,7.1161 30.0258,7.5161 L34.1318,11.2781 C35.1618,12.0211 36.7648,13.3351 37.6958,14.1991 L41.4248,17.6651 L47.9998,10.0451 L37.7818,0.2631 L35.3218,2.6781 C35.3218,2.6781 34.4988,2.4911 33.9268,2.2141 L30.0728,0.3391 C29.6038,0.1101 29.0268,0.0001 28.4388,0.0001 C27.5938,0.0001 26.7228,0.2271 26.1118,0.6591 L20.1498,4.8411 C19.1138,5.5731 18.8838,7.0071 19.6408,8.0271 L19.9938,8.5051 C20.4788,9.1581 21.2718,9.5141 22.0658,9.5141 C22.5118,9.5141 22.9568,9.4021 23.3478,9.1661 L26.1758,7.3601 C26.6748,7.0581 27.3098,6.9101 27.9518,6.9101" id="Fill-1" fill="#FFD799"></path>
            <path d="M21.0343,27.5517 L20.6013,27.1417 C20.1573,26.7167 19.5823,26.5067 19.0093,26.5067 C18.3983,26.5067 17.7903,26.7447 17.3383,27.2187 L17.3313,27.2057 C18.2073,26.2877 18.1723,24.8187 17.2533,23.9437 L16.8223,23.5317 C16.3793,23.1107 15.8093,22.9017 15.2403,22.9017 C14.6643,22.9017 14.0893,23.1147 13.6443,23.5347 L14.5093,22.6287 C15.3863,21.7097 15.3523,20.2397 14.4313,19.3647 L14.0013,18.9537 C13.5573,18.5307 12.9863,18.3217 12.4153,18.3217 C11.8223,18.3217 11.2303,18.5457 10.7813,18.9927 C11.5023,18.0717 11.4313,16.7307 10.5673,15.9057 L10.1383,15.4967 C9.6923,15.0717 9.1173,14.8617 8.5443,14.8617 C7.9333,14.8617 7.3253,15.0997 6.8733,15.5737 L2.5373,20.1187 C1.6613,21.0377 1.6963,22.5067 2.6173,23.3817 L3.0463,23.7917 C3.4883,24.2127 4.0573,24.4217 4.6253,24.4217 C5.1483,24.4217 5.6723,24.2447 6.0973,23.8977 L4.9553,25.0947 C4.0793,26.0137 4.1153,27.4827 5.0323,28.3597 L5.4653,28.7697 C5.9103,29.1947 6.4843,29.4047 7.0573,29.4047 C7.6673,29.4047 8.2773,29.1657 8.7283,28.6927 L9.6203,27.7567 C8.8273,28.6787 8.8793,30.0787 9.7693,30.9277 L10.2013,31.3387 C10.6463,31.7637 11.2203,31.9737 11.7933,31.9737 C12.4043,31.9737 13.0133,31.7357 13.4653,31.2607 L14.8983,29.7797 C14.0213,30.6977 14.0553,32.1657 14.9753,33.0427 L15.4073,33.4537 C15.8513,33.8787 16.4263,34.0887 16.9983,34.0887 C17.6093,34.0887 18.2183,33.8507 18.6703,33.3757 L21.1123,30.8167 C21.9873,29.8977 21.9513,28.4287 21.0343,27.5517" id="Fill-3" fill="#FFD799"></path>
            <path d="M41.359,19.8408 L35.528,14.4238 C34.737,13.7548 33.838,13.0378 33.196,12.5758 L33.12,12.5218 L33.051,12.4578 L29.03,8.7748 C28.765,8.6108 28.36,8.5108 27.952,8.5108 C27.591,8.5108 27.243,8.5888 27.015,8.7218 L24.208,10.5148 L24.191,10.5258 L24.173,10.5358 C23.547,10.9138 22.817,11.1148 22.065,11.1148 C20.734,11.1148 19.479,10.4948 18.709,9.4578 L18.355,8.9808 C17.73,8.1378 17.477,7.1048 17.643,6.0718 C17.808,5.0398 18.37,4.1398 19.231,3.5318 L21.589,1.8768 C20.501,1.3778 18.734,1.3568 17.598,1.8428 C17.598,1.8428 16.338,2.3958 15.936,2.5668 C14.998,2.9648 13.686,2.9588 13.686,2.9588 L10.606,0.0888 L0,10.6258 L4.788,15.4418 L5.715,14.4698 C6.448,13.7018 7.479,13.2608 8.545,13.2608 C9.556,13.2608 10.513,13.6438 11.243,14.3388 L11.672,14.7478 C12.257,15.3068 12.633,16.0028 12.793,16.7388 C13.66,16.8218 14.471,17.1908 15.108,17.7968 L15.535,18.2058 C16.29,18.9248 16.72,19.8958 16.745,20.9418 C16.751,21.1588 16.737,21.3748 16.709,21.5848 C17.157,21.7678 17.57,22.0328 17.928,22.3748 L18.359,22.7848 C18.987,23.3838 19.371,24.1438 19.51,24.9388 C20.334,25.0428 21.099,25.4038 21.704,25.9818 L22.14,26.3948 C23.443,27.6388 23.693,29.5758 22.871,31.0888 L24.053,32.1898 C24.982,33.0548 26.45,32.9998 27.315,32.0698 L27.719,31.6348 C28.566,30.7228 28.523,29.3038 27.646,28.4358 L30.638,31.2098 C31.569,32.0728 33.037,32.0198 33.902,31.0878 L34.306,30.6538 C35.165,29.7298 35.115,28.2748 34.199,27.4068 L34.968,28.1228 C35.899,28.9868 37.367,28.9328 38.23,28.0018 L38.635,27.5678 C39.499,26.6368 39.445,25.1678 38.515,24.3038 L37.865,23.7008 C38.798,24.5168 40.226,24.4538 41.074,23.5398 L41.48,23.1048 C42.343,22.1738 42.29,20.7048 41.359,19.8408" id="Fill-5" fill="#FF9300"></path>
        </g>
    </g>
</svg>