<svg xmlns="http://www.w3.org/2000/svg" width="32" height="32" fill="none"><path fill="#197BFF" fill-rule="evenodd" d="M12 20a6 6 0 1 1-12 0 6 6 0 0 1 12 0Zm-3 0a3 3 0 1 1-6 0 3 3 0 0 1 6 0ZM32 20a6 6 0 1 1-12 0 6 6 0 0 1 12 0Zm-3 0a3 3 0 1 1-6 0 3 3 0 0 1 6 0Z" clip-rule="evenodd"/><path fill="#B2D3FF" fill-rule="evenodd" d="M17.5 5a1.5 1.5 0 0 0-1.27 2.3l2.33 3.7h-6.21l-.022-.036A1.5 1.5 0 0 0 12 8H7a1.5 1.5 0 1 0 0 3h1.85l.882 1.47-4.935 6.635a1.5 1.5 0 0 0 2.407 1.79l4.198-5.643 3.312 5.52a1.5 1.5 0 0 0 2.572 0l3.624-6.04 3.82 6.067a1.5 1.5 0 1 0 2.54-1.598L20.216 8H24a.5.5 0 0 1 .5.5 1.5 1.5 0 0 0 3 0A3.5 3.5 0 0 0 24 5h-6.5Zm-3.35 9L16 17.084 17.85 14h-3.7Z" clip-rule="evenodd"/></svg>