<svg xmlns="http://www.w3.org/2000/svg" width="48" height="48" viewBox="0 0 48 48">
    <g fill="none" fill-rule="evenodd">
        <g>
            <path fill="#B2D3FF" d="M8 4h38c1.105 0 2 .895 2 2v32c0 3.314-2.686 6-6 6H3v-8.5h3V6c0-1.105.895-2 2-2z"/>
            <path fill="#197BFF" d="M6 10v31c0 1.657-1.343 3-3 3-1.598 0-2.904-1.249-2.995-2.824L0 41V12c0-1.105.895-2 2-2h4zm25 25c.552 0 1 .448 1 1s-.448 1-1 1H15c-.552 0-1-.448-1-1s.448-1 1-1h16zm8-4c.552 0 1 .448 1 1s-.448 1-1 1H15c-.552 0-1-.448-1-1s.448-1 1-1h24zm0-4c.552 0 1 .448 1 1s-.448 1-1 1H15c-.552 0-1-.448-1-1s.448-1 1-1h24zm0-4c.552 0 1 .448 1 1s-.448 1-1 1H15c-.552 0-1-.448-1-1s.448-1 1-1h24zm-1-12c1.105 0 2 .895 2 2v5c0 1.105-.895 2-2 2H16c-1.105 0-2-.895-2-2v-5c0-1.105.895-2 2-2h22z"/>
        </g>
    </g>
</svg>
