<svg xmlns="http://www.w3.org/2000/svg" width="32" height="32" fill="none"><path fill="#ACF5F7" d="M16 0c8.837 0 16 7.163 16 16s-7.163 16-16 16S0 24.837 0 16 7.163 0 16 0Z"/><path fill="#0DCBCF" fill-rule="evenodd" d="M16.688 7.003 16.433 7l-.256.004c-2.798.077-5.109 1.433-5.659 4.184-.111.556.306 1.076.857 1.14l.112.006h1.78l.132-.01c.342-.048.623-.283.766-.604l.106-.284c.346-.838 1.124-1.303 1.974-1.357l.17-.006.166.005c1.09.067 1.958.796 2.035 1.903l.005.162-.008.193c-.083 1.015-.818 1.73-1.78 2.365l-.183.118-.493.306c-1.052.654-1.698 1.19-1.85 3.778l-.014.286.002.119a.989.989 0 0 0 .87.901l.109.006h1.495l.115-.007a.989.989 0 0 0 .84-.778l.018-.114.03-.238c.193-1.302.782-1.857 1.819-2.5l.395-.241c1.504-.945 2.496-2.18 2.58-4.067l.005-.261-.004-.23c-.118-2.95-2.51-4.693-5.88-4.776Zm-.484 14.682-.15-.005-.154.005c-1.123.08-2.024 1.013-2.015 2.146a2.164 2.164 0 0 0 2.015 2.164l.154.005.15-.005a2.206 2.206 0 0 0 2.013-2.01l.007-.154-.007-.154c-.086-1.063-.97-1.916-2.013-1.992Z" clip-rule="evenodd"/></svg>