<svg xmlns="http://www.w3.org/2000/svg" width="48" height="48" viewBox="0 0 48 48">
    <g fill="none" fill-rule="evenodd">
        <g fill-rule="nonzero">
            <path fill="#0DCBCF" d="M29 10.6v19.9c-2.065-.659-4.288-1.152-6.632-1.372l-.642-.054v.013h-1.513l8.686 12.165c.041.058.075.12.102.183L29 42h.056c-.035.172-.118.336-.244.468l-.103.094-5.421 4.238c-.168.132-.379.203-.592.203-.043 0-.09-.003-.135-.01-.212-.03-.411-.135-.559-.291l-.082-.1L9.414 29.085H8.55c-4.632 0-8.401-3.68-8.546-8.278L0 20.552c.01-4.634 3.695-8.401 8.293-8.537l.257-.003h13.176v.012c2.58-.185 5.021-.706 7.275-1.425zm17.508-9.424c.848.345 1.417 1.136 1.485 2.037l.007.181v34.31c0 .975-.588 1.85-1.492 2.217-.846.345-1.808.176-2.485-.422L44 39.477V1.62l.023-.021C44.7 1 45.662.833 46.508 1.176z"/>
            <path fill="#ACF5F7" d="M43.999 1.622v37.854l-.435-.421-.332-.308-.306-.274-.36-.314-.415-.35-.226-.187-.491-.396-.542-.423c-1.039-.795-2.324-1.7-3.817-2.603-2.262-1.367-4.993-2.718-8.074-3.7V10.6c3.08-.983 5.812-2.335 8.074-3.703 1.222-.738 2.304-1.478 3.227-2.158l.59-.444.277-.214.756-.604.44-.366.561-.484.306-.274.25-.23.517-.501zM7.263 16.903c1.93 0 3.498 1.566 3.498 3.497 0 1.932-1.567 3.498-3.498 3.498-1.932 0-3.498-1.566-3.498-3.498 0-1.931 1.566-3.497 3.498-3.497z"/>
        </g>
    </g>
</svg>
