<svg xmlns="http://www.w3.org/2000/svg" width="17" height="16" fill="none"><path fill="#1D212A" fill-opacity=".72" fill-rule="evenodd" d="m4.453 6.978-2.29-3.966A7.985 7.985 0 0 1 8.417.001 7.996 7.996 0 0 1 15.3 3.922H8.773a4.101 4.101 0 0 0-4.32 3.055Zm6.828-1.9h4.585a8 8 0 0 1-7.359 10.92l3.273-5.665a4.081 4.081 0 0 0-.498-5.254Zm-5.77 2.923a2.91 2.91 0 0 1 2.906-2.907 2.91 2.91 0 0 1 2.906 2.907 2.91 2.91 0 0 1-2.906 2.906A2.91 2.91 0 0 1 5.511 8Zm4.003 3.944-2.29 3.967a8.002 8.002 0 0 1-5.78-11.834L4.71 9.735a4.099 4.099 0 0 0 4.804 2.21Z" clip-rule="evenodd"/></svg>