<svg xmlns="http://www.w3.org/2000/svg" width="48" height="48"><g fill="none" fill-rule="evenodd"><path fill="#B2D3FF" d="M8 4h38a2 2 0 0 1 2 2v32a6 6 0 0 1-6 6H3v-8.5h3V6a2 2 0 0 1 2-2z"/><path fill="#197BFF" d="M6 10v31a3 3 0 0 1-5.995.176L0 41V12a2 2 0 0 1 2-2h4zm25 25a1 1 0 0 1 0 2H15a1 1 0 0 1 0-2h16zm8-4a1 1 0 0 1 0 2H15a1 1 0 0 1 0-2h24zm0-4a1 1 0 0 1 0 2H15a1 1 0 0 1 0-2h24zm0-4a1 1 0 0 1 0 2H15a1 1 0 0 1 0-2h24zm-1-12a2 2 0 0 1 2 2v5a2 2 0 0 1-2 2H16a2 2 0 0 1-2-2v-5a2 2 0 0 1 2-2h22z"/></g></svg>