<svg width="32" height="32" viewBox="0 0 32 32" fill="none" xmlns="http://www.w3.org/2000/svg">
<path fill-rule="evenodd" clip-rule="evenodd" d="M13.6804 27.0866C12.7892 29.9279 10.1353 31.9893 7 31.9893C3.13401 31.9893 0 28.8553 0 24.9893C0 21.1233 3.13401 17.9893 7 17.9893C9.96693 17.9893 12.5027 19.8351 13.5217 22.441C14.292 22.1493 15.1274 21.9893 16 21.9893C16.8727 21.9893 17.708 22.1493 18.4783 22.441C19.4973 19.8351 22.0331 17.9893 25 17.9893C28.866 17.9893 32 21.1233 32 24.9893C32 28.8553 28.866 31.9893 25 31.9893C21.8646 31.9893 19.2107 29.9279 18.3196 27.0865C17.7666 26.4133 16.9331 25.9893 16 25.9893C15.0669 25.9893 14.2334 26.4133 13.6804 27.0866Z" fill="#855CEA"/>
<path d="M7 27.9893C8.65685 27.9893 10 26.6461 10 24.9893C10 23.3324 8.65685 21.9893 7 21.9893C5.34315 21.9893 4 23.3324 4 24.9893C4 26.6461 5.34315 27.9893 7 27.9893Z" fill="#CEBFF5"/>
<path d="M25 27.9893C26.6569 27.9893 28 26.6461 28 24.9893C28 23.3324 26.6569 21.9893 25 21.9893C23.3431 21.9893 22 23.3324 22 24.9893C22 26.6461 23.3431 27.9893 25 27.9893Z" fill="#CEBFF5"/>
<path d="M8.72039 2.46794L6 11.9893L2 11.9893C0.895431 11.9893 0 12.8847 0 13.9893C0 15.0939 0.895431 15.9893 2 15.9893H30C31.1046 15.9893 32 15.0939 32 13.9893C32 12.8847 31.1046 11.9893 30 11.9893L26 11.9893L23.2796 2.46795C22.6468 0.253086 20.0411 -0.704722 18.1244 0.573025L16 1.98932L13.8756 0.573024C11.9589 -0.704723 9.35321 0.253083 8.72039 2.46794Z" fill="#CEBFF5"/>
</svg>
