<svg xmlns="http://www.w3.org/2000/svg" width="48" height="48" viewBox="0 0 48 48">
  <g fill="none" fill-rule="evenodd" transform="translate(0 2)">
    <path fill="#FF8E8E" d="M4.61167918,23.6613356 C1.78506482,21.1868248 0,17.5518745 0,13.5 C0,6.04415588 6.04415588,0 13.5,0 C17.7408992,0 21.5250667,1.9555004 24,5.01399848 C26.4749333,1.9555004 30.2591008,0 34.5,0 C41.9558441,0 48,6.04415588 48,13.5 C48,17.4929669 46.2664617,21.0810443 43.5109411,23.5526761 L24.6757264,44.1124049 C24.302533,44.5197671 23.7031374,44.525571 23.3250769,44.1124049 L4.61167918,23.6613356 Z"/>
    <polyline stroke="#F62C2C" stroke-width="2" points="10.5 21 16.5 21 21 10.5 25.5 33 31.5 21 37.5 21" stroke-linecap="round" stroke-linejoin="round"/>
  </g>
</svg>
