<svg xmlns="http://www.w3.org/2000/svg" width="32" height="32" fill="none"><path fill="#855CEA" fill-rule="evenodd" d="M13.68 27.087a7 7 0 1 1-.159-4.646A6.984 6.984 0 0 1 16 21.989c.873 0 1.708.16 2.478.452A7.003 7.003 0 0 1 32 24.989a7 7 0 0 1-13.68 2.098A2.99 2.99 0 0 0 16 25.989a2.99 2.99 0 0 0-2.32 1.098Z" clip-rule="evenodd"/><path fill="#CEBFF5" d="M7 27.99a3 3 0 1 0 0-6 3 3 0 0 0 0 6ZM25 27.99a3 3 0 1 0 0-6 3 3 0 0 0 0 6ZM8.72 2.468 6 11.989H2a2 2 0 1 0 0 4h28a2 2 0 1 0 0-4h-4l-2.72-9.521C22.647.253 20.04-.705 18.124.573L16 1.989 13.876.573C11.959-.705 9.353.253 8.72 2.468Z"/></svg>