<svg xmlns="http://www.w3.org/2000/svg" width="48" height="48"><g fill="none" fill-rule="evenodd"><path fill="#C2ADF4" d="M.052 24.05c.402.791.87 1.52 1.41 2.174.7.85 1.511 1.584 2.44 2.17V43.43a1.925 1.925 0 0 1-3.85 0V24.05ZM1.974 3c1.064 0 1.928.864 1.928 1.928v.338c-1.597.402-2.909.915-3.85 1.552v-1.89C.052 3.864.915 3 1.974 3Z"/><path fill="#855CEA" d="M23.996 24.867c-4.337 0-5.245 3.565-14.12 3.558C3.245 28.425 0 23.05 0 16.42V9.48c0-3.2 11.992-4.175 23.996-4.077C35.996 5.305 48 6.273 48 9.48v6.94c0 6.63-3.246 12.005-9.875 12.005-8.882 0-9.784-3.558-14.128-3.558Zm19.361-11.024c-4.097-4.714-10.869-2.96-15.134.883a.555.555 0 0 0-.169.48c.02.182.13.331.28.41 8.07 3.908 10.42 3.511 15.003-1.007a.562.562 0 0 0 .156-.377.592.592 0 0 0-.136-.389Zm-38.722 0a.535.535 0 0 0-.136.383.533.533 0 0 0 .156.376c4.584 4.52 6.94 4.915 14.998 1.007a.512.512 0 0 0 .286-.41.544.544 0 0 0-.176-.48c-4.253-3.837-11.037-5.59-15.128-.876Z"/></g></svg>