<svg xmlns="http://www.w3.org/2000/svg" width="40" height="40"><g fill="none"><path fill="#FCD0D5" d="m10.689 16.445-5.305-2.458c-.408-.204-.61-.41-.816-.82-.407-1.022 0-1.843.816-2.253l14.687-6.76a1.29 1.29 0 0 1 1.225 0l14.685 6.76c.613.204 1.019.82 1.019 1.435 0 .615-.406 1.227-1.019 1.434l-5.507 2.662-1.225.615-7.953 3.892c-.482.29-1.023.218-1.429 0-.408-.217-7.955-3.892-7.955-3.892l-1.223-.615ZM35.5 26.36c1.608.823 1.393 2.774-.176 3.622l-13.955 6.812a2.032 2.032 0 0 1-1.782 0L5.181 29.761c-.407-.204-.613-.41-.817-.819-.406-1.025 0-1.844.817-2.254l1.835-.819 5.099 2.459 7.48 3.568a2.03 2.03 0 0 0 1.768-.01l7.683-3.765 4.894-2.456 1.56.695Z"/><path fill="#F1142D" d="M36.593 19.723c.406.82 0 1.844-1.225 2.459l-4.69 2.252-1.226.617-8.37 4.201a2.023 2.023 0 0 1-1.82 0l-8.37-4.201-1.225-.617-4.69-2.252c-.408-.206-.613-.41-.817-.82-.408-1.024 0-1.845.817-2.253l2.65-1.23 4.488 2.049 7.479 3.568a2.033 2.033 0 0 0 1.77-.01l8.497-4.173 3.263-1.638 2.652 1.23c.408.204.612.408.817.818Z"/></g></svg>