<svg xmlns="http://www.w3.org/2000/svg" xmlns:xlink="http://www.w3.org/1999/xlink" width="48" height="48"><defs><path id="a" d="M0 .27h48v22.135H0z"/></defs><g fill="none" fill-rule="evenodd"><path fill="#B2D3FF" d="M41.437 23.858 25.862 11.102a2.833 2.833 0 0 0-3.725 0L6.57 23.852a3.436 3.436 0 0 0-1.176 2.59v17.807c0 .815.666 1.481 1.481 1.481h34.251c.815 0 1.481-.666 1.481-1.48V26.43c0-.986-.426-1.924-1.169-2.573"/><g transform="translate(0 1.73)"><mask id="b" fill="#fff"><use xlink:href="#a"/></mask><path fill="#B2D3FF" d="M47.251 18.878 25.311.72A1.966 1.966 0 0 0 24 .27a1.962 1.962 0 0 0-1.31.45l-8.059 6.668a.574.574 0 0 1-.939-.442V3.624c0-.815-.667-1.48-1.482-1.48H8.26c-.814 0-1.48.665-1.48 1.48v9.62c0 .406-.182.792-.496 1.052L.748 18.878c-.776.642-.99 1.772-.445 2.62a1.98 1.98 0 0 0 2.923.456L22.383 6.1a2.536 2.536 0 0 1 3.233 0l19.157 15.854a1.98 1.98 0 0 0 2.923-.457c.545-.847.331-1.977-.445-2.619" mask="url(#b)"/></g><path fill="#197BFF" d="M24 24.005c-4.486 0-8 1.58-8 3.6 0 1.267 3.569 2.8 8 2.8 3.663 0 6.9-1.01 8-2.063v-.737c0-2.02-3.514-3.6-8-3.6"/><path fill="#197BFF" d="M16 29.094v2.11c0 1.268 3.568 2.8 8 2.8 3.662 0 6.9-1.009 8-2.063V29.34c-1.71 1.15-4.973 1.865-8 1.865-3.172 0-6.51-.806-8-2.11"/><path fill="#197BFF" d="M16 32.694v2.11c0 1.268 3.568 2.8 8 2.8 3.662 0 6.9-1.009 8-2.062V32.94c-1.71 1.15-4.974 1.865-8 1.865-3.172 0-6.51-.806-8-2.11"/><path fill="#197BFF" d="M16 36.294v1.71c0 2.02 3.514 3.6 8 3.6 4.486 0 8-1.58 8-3.6V36.54c-1.71 1.15-4.974 1.865-8 1.865-3.172 0-6.51-.806-8-2.11"/></g></svg>