<svg xmlns="http://www.w3.org/2000/svg" width="48" height="48" viewBox="0 0 48 48">
  <g fill="none" fill-rule="evenodd" transform="translate(7)">
    <rect width="28" height="42" x="3" y="3" fill="#FCBABA"/>
    <path fill="#F52D2D" d="M30,15 C30,15.552 29.552,16 29,16 L5,16 C4.448,16 4,15.552 4,15 L4,5 C4,4.448 4.448,4 5,4 L29,4 C29.552,4 30,4.448 30,5 L30,15 Z M27,24 L25,24 C24.448,24 24,23.552 24,23 C24,22.448 24.448,22 25,22 L27,22 C27.552,22 28,22.448 28,23 C28,23.552 27.552,24 27,24 L27,24 Z M27,30 L25,30 C24.448,30 24,29.552 24,29 C24,28.448 24.448,28 25,28 L27,28 C27.552,28 28,28.448 28,29 C28,29.552 27.552,30 27,30 L27,30 Z M27,36 L25,36 C24.448,36 24,35.552 24,35 C24,34.448 24.448,34 25,34 L27,34 C27.552,34 28,34.448 28,35 C28,35.552 27.552,36 27,36 L27,36 Z M19,34 L21,34 C21.552,34 22,34.448 22,35 C22,35.552 21.552,36 21,36 L19,36 C18.448,36 18,35.552 18,35 C18,34.448 18.448,34 19,34 L19,34 Z M18,23 C18,22.448 18.448,22 19,22 L21,22 C21.552,22 22,22.448 22,23 C22,23.552 21.552,24 21,24 L19,24 C18.448,24 18,23.552 18,23 L18,23 Z M19,28 L21,28 C21.552,28 22,28.448 22,29 C22,29.552 21.552,30 21,30 L19,30 C18.448,30 18,29.552 18,29 C18,28.448 18.448,28 19,28 L19,28 Z M27,42 L19,42 C18.448,42 18,41.552 18,41 C18,40.448 18.448,40 19,40 L27,40 C27.552,40 28,40.448 28,41 C28,41.552 27.552,42 27,42 L27,42 Z M15,24 L13,24 C12.448,24 12,23.552 12,23 C12,22.448 12.448,22 13,22 L15,22 C15.552,22 16,22.448 16,23 C16,23.552 15.552,24 15,24 L15,24 Z M15,30 L13,30 C12.448,30 12,29.552 12,29 C12,28.448 12.448,28 13,28 L15,28 C15.552,28 16,28.448 16,29 C16,29.552 15.552,30 15,30 L15,30 Z M15,36 L13,36 C12.448,36 12,35.552 12,35 C12,34.448 12.448,34 13,34 L15,34 C15.552,34 16,34.448 16,35 C16,35.552 15.552,36 15,36 L15,36 Z M15,42 L13,42 C12.448,42 12,41.552 12,41 C12,40.448 12.448,40 13,40 L15,40 C15.552,40 16,40.448 16,41 C16,41.552 15.552,42 15,42 L15,42 Z M9,24 L7,24 C6.448,24 6,23.552 6,23 C6,22.448 6.448,22 7,22 L9,22 C9.552,22 10,22.448 10,23 C10,23.552 9.552,24 9,24 L9,24 Z M9,30 L7,30 C6.448,30 6,29.552 6,29 C6,28.448 6.448,28 7,28 L9,28 C9.552,28 10,28.448 10,29 C10,29.552 9.552,30 9,30 L9,30 Z M9,36 L7,36 C6.448,36 6,35.552 6,35 C6,34.448 6.448,34 7,34 L9,34 C9.552,34 10,34.448 10,35 C10,35.552 9.552,36 9,36 L9,36 Z M9,42 L7,42 C6.448,42 6,41.552 6,41 C6,40.448 6.448,40 7,40 L9,40 C9.552,40 10,40.448 10,41 C10,41.552 9.552,42 9,42 L9,42 Z M31,0 L3,0 C1.346,0 0,1.346 0,3 L0,45 C0,46.656 1.346,48 3,48 L31,48 C32.654,48 34,46.656 34,45 L34,3 C34,1.346 32.654,0 31,0 L31,0 Z"/>
    <path fill="#F52D2D" d="M25,8 C24.448,8 24,8.448 24,9 L24,11 C24,11.552 24.448,12 25,12 C25.552,12 26,11.552 26,11 L26,9 C26,8.448 25.552,8 25,8"/>
  </g>
</svg>
