<svg xmlns="http://www.w3.org/2000/svg" width="48" height="48" viewBox="0 0 48 48">
  <g fill="none" fill-rule="evenodd" transform="translate(0 3)">
    <path fill="#C2ADF4" d="M0,21 L0,14 L12,14 L12,21 C11.996,23.164 11.326,24.458 10,24.864 L10,33 L2,33 L2,24.864 C0.672,24.46 0,23.166 0,21 Z M36,14 L48,14 L48,21 C47.996,23.164 47.326,24.458 46,24.864 L46,33 L38,33 L38,24.864 C36.672,24.46 36,23.166 36,21 L36,14 Z M42,12 C39.796,12 38,10.206 38,8 C38,5.794 39.796,4 42,4 C44.206,4 46,5.794 46,8 C46,10.206 44.206,12 42,12 Z M6,12 C3.796,12 2,10.206 2,8 C2,5.794 3.796,4 6,4 C8.206,4 10,5.794 10,8 C10,10.206 8.206,12 6,12 Z"/>
    <path fill="#855CEA" d="M16,25 L16,14 L32,14 L32,25 C32,27.416 30.28,29.436 28,29.9 L28,42 L20,42 L20,29.9 C17.72,29.436 16,27.416 16,25 Z M24,12 C20.692,12 18,9.308 18,6 C18,2.692 20.692,0 24,0 C27.308,0 30,2.692 30,6 C30,9.308 27.308,12 24,12 Z"/>
  </g>
</svg>
