<svg xmlns="http://www.w3.org/2000/svg" xmlns:xlink="http://www.w3.org/1999/xlink" width="433" height="478" version="1.0"><defs><linearGradient id="b"><stop offset="0" style="stop-color:#ffba00;stop-opacity:1"/><stop offset="1" style="stop-color:#ffffba;stop-opacity:1"/></linearGradient><linearGradient id="a"><stop offset="0" style="stop-color:#000;stop-opacity:1"/><stop offset="1" style="stop-color:#fff;stop-opacity:1"/></linearGradient><linearGradient id="c"><stop offset="0" style="stop-color:#000;stop-opacity:.71951222"/><stop offset="1" style="stop-color:#fff;stop-opacity:0"/></linearGradient><linearGradient xlink:href="#a" id="e" x1="263.61" x2="358.502" y1="435.385" y2="314.54" gradientUnits="userSpaceOnUse" spreadMethod="reflect"/><linearGradient xlink:href="#a" id="g" x1="283.116" x2="450.774" y1="420.784" y2="341.97" gradientUnits="userSpaceOnUse"/><linearGradient xlink:href="#a" id="r" x1="353.828" x2="370.982" y1="353.78" y2="331.954" gradientUnits="userSpaceOnUse"/><linearGradient xlink:href="#a" id="s" x1="353.828" x2="370.982" y1="353.78" y2="331.954" gradientUnits="userSpaceOnUse"/><linearGradient xlink:href="#b" id="t" x1="278.782" x2="300.019" y1="598.482" y2="538.18" gradientUnits="userSpaceOnUse"/><linearGradient xlink:href="#b" id="u" x1="278.782" x2="300.019" y1="598.482" y2="538.18" gradientUnits="userSpaceOnUse"/><linearGradient xlink:href="#a" id="q" x1="416.037" x2="416.674" y1="314.992" y2="287.509" gradientTransform="translate(-162.397 383.19)" gradientUnits="userSpaceOnUse"/><linearGradient xlink:href="#a" id="p" x1="333.627" x2="338.832" y1="305.531" y2="276.245" gradientTransform="translate(-162.397 383.19)" gradientUnits="userSpaceOnUse"/><linearGradient xlink:href="#a" id="o" x1="379.113" x2="383.809" y1="378.88" y2="225.323" gradientTransform="translate(-162.397 383.19)" gradientUnits="userSpaceOnUse" spreadMethod="repeat"/><linearGradient xlink:href="#a" id="n" x1="267.005" x2="195.341" y1="450.158" y2="423.268" gradientTransform="translate(-162.397 383.19)" gradientUnits="userSpaceOnUse"/><linearGradient xlink:href="#c" id="m" x1="375.171" x2="375.171" y1="481.127" y2="627.552" gradientTransform="translate(-162.397 383.19)" gradientUnits="userSpaceOnUse"/><linearGradient xlink:href="#b" id="l" x1="346.896" x2="406.499" y1="409.873" y2="371.665" gradientTransform="translate(-162.397 383.19)" gradientUnits="userSpaceOnUse"/><linearGradient xlink:href="#a" id="j" x1="228.8" x2="361.57" y1="401.767" y2="343.166" gradientTransform="translate(-162.397 383.19)" gradientUnits="userSpaceOnUse"/><linearGradient xlink:href="#a" id="i" x1="335.762" x2="432.982" y1="383.675" y2="334.342" gradientTransform="translate(-162.397 383.19)" gradientUnits="userSpaceOnUse"/><linearGradient xlink:href="#a" id="h" x1="584.447" x2="411.609" y1="496.834" y2="312.987" gradientTransform="translate(-162.397 383.19)" gradientUnits="userSpaceOnUse"/><linearGradient xlink:href="#c" id="f" x1="533.033" x2="547.334" y1="446.524" y2="428.583" gradientTransform="translate(-162.397 383.19)" gradientUnits="userSpaceOnUse"/><filter id="d" width="1.118" height="1.217" x="-.059" y="-.108" color-interpolation-filters="sRGB"><feGaussianBlur stdDeviation="3.034"/></filter><filter id="k" width="1.15" height="1.543" x="-.075" y="-.272" color-interpolation-filters="sRGB"><feGaussianBlur stdDeviation="6.092"/></filter></defs><g style="display:inline"><path d="M122.346 925.538s-5.406-8.11-6.307-9.912c-.901-1.802-15.77-58.57-12.165-77.493 3.604-18.923 4.956-33.34 8.11-37.395 3.154-4.055 21.175-26.582 23.428-27.934 2.253-1.351 11.714-16.67 17.571-16.67 5.857 0 47.758 18.923 53.164 18.022 5.407-.901 28.835-.901 30.637-2.253 1.802-1.351 8.56-6.758 8.56-6.758l6.308-3.604s14.417-1.352 17.12-1.352c2.704 0 19.825 9.912 24.33 14.868 4.505 4.956 32.89 37.395 32.44 54.516-.451 17.12 0 30.637-1.803 35.593-1.802 4.956-6.758 22.527-8.11 27.483-1.351 4.956-4.055 15.318-4.505 19.373-.45 4.055-5.407 8.11-7.209 9.912-1.802 1.802-25.23 5.407-29.736 7.209-4.505 1.802-18.472 11.714-22.527 13.516-4.055 1.802-13.066 8.11-13.066 8.11s-12.615 12.615-15.318 13.967c-2.703 1.351-25.681 5.857-33.79.9-8.11-4.955-17.122-13.516-21.176-18.472-4.055-4.956-13.066-14.417-16.22-17.12-3.154-2.703-29.736-3.605-29.736-4.506z" style="fill:#f2f2f2;fill-opacity:1;fill-rule:evenodd;stroke:none" transform="translate(0 -574.362)"/><path d="m318.083 382.63 4.956 1.802 8.335 4.055 5.632 2.027h13.967l37.62-3.153 5.857-1.352 6.533-3.38 10.588-4.054 5.181-.901 4.28.45 2.704-.45 2.027 2.253 2.929 5.406 3.604 8.56s-36.043 50.912-53.164 50.01c-17.12-.9-48.601-30.67-46.631-27.257 1.97 3.412-22.978-27.708-22.978-27.708l8.56-6.308z" style="opacity:.1372549;fill:#000;fill-opacity:1;fill-rule:evenodd;stroke:#000;stroke-width:1px;stroke-linecap:butt;stroke-linejoin:miter;stroke-opacity:1;filter:url(#d)" transform="matrix(1.02355 0 0 1.05045 -174.597 -229.587)"/><path d="M372.836 338.83a34.832 48.884 0 1 1-69.663 0 34.832 48.884 0 1 1 69.663 0z" style="fill:url(#e);fill-opacity:1;stroke:none" transform="matrix(1.04292 0 0 .9847 -178.399 -185.243)"/><path d="M124.352 923.389s-9.567-27.507-9.866-49.632c-.3-22.125-1.495-34.981 2.69-51.725 4.186-16.743 4.186-18.836 4.186-18.836l-21.527 41.26s-3.289 18.239-3.588 20.032c-.298 1.794 2.691 34.683 2.691 34.683l3.29 11.361 7.175 11.362 4.186 3.887 10.763-2.392zm176.68.598s9.568-27.507 9.867-49.632c.299-22.125 1.495-34.981-2.69-51.725-4.187-16.743-4.187-18.836-4.187-18.836l21.527 41.26s3.29 18.238 3.588 20.032c.3 1.794-2.69 34.683-2.69 34.683l-3.29 11.361-7.175 11.362-4.186 3.887-10.764-2.392z" style="fill:#ccc;fill-opacity:1;fill-rule:evenodd;stroke:none" transform="translate(0 -574.362)"/><path d="m339.174 785.252 1.3 5.2 54.344 55.384 5.2 4.42 2.08-1.04-2.34-6.76-7.54-10.66-9.621-10.401-16.121-13.781-10.4-8.32-8.841-8.061-3.64-3.64-1.56-1.3-2.86-1.04z" style="fill:url(#f);fill-opacity:1;fill-rule:evenodd;stroke:none" transform="translate(0 -574.362)"/><path d="M450.274 341.97a33.785 27.806 0 1 1-67.571 0 33.785 27.806 0 1 1 67.571 0z" style="fill:url(#g);fill-opacity:1;stroke:none" transform="matrix(1.11725 0 0 1.19623 -215.265 -258.723)"/><path d="M264.556 744.595s8.073-.598 11.66-2.093c3.588-1.495 8.671-5.083 8.671-5.083s7.774-14.351-3.588-31.095c-11.361-16.743-39.765-13.454-39.765-13.454l-3.588 2.093 26.61 49.632z" style="fill:url(#h);fill-opacity:1;fill-rule:evenodd;stroke:none" transform="translate(0 -574.362)"/><path d="M239.74 694.963s16.743 2.99 26.61 22.125c9.866 19.135-.598 27.806-.598 27.806s-19.733 3.887-31.693-2.392-17.64-27.208-17.64-27.208.598-6.877 9.568-12.856c8.97-5.98 14.052-7.176 13.753-7.475z" style="fill:url(#i);fill-opacity:1;fill-rule:evenodd;stroke:none" transform="translate(0 -574.362)"/><path d="M149.745 688.983s-2.99 26.909 9.269 43.054c12.258 16.146 33.486 22.723 33.486 22.723s6.279-29.898-5.382-45.147c-11.66-15.248-37.373-20.63-37.373-20.63z" style="fill:url(#j);fill-opacity:1;fill-rule:evenodd;stroke:none" transform="translate(0 -574.362)"/><path d="M119.812 934.527s15.016-5.006 36.944 2.622c21.928 7.627 31.7 15.254 32.654 15.73.954.478 18.83 10.965 18.83 10.965s6.674 3.575 16.446.238c9.773-3.337 28.126-15.73 31.224-18.353 3.099-2.622 20.737-9.534 24.074-10.01 3.337-.477 10.01-1.907 15.254-1.907s10.488.238 10.488.238l3.814-8.58 1.668-10.011s-7.627-5.96-27.887-2.86c-20.26 3.098-42.427 12.632-56.966 17.637-14.54 5.006-9.058 4.767-13.825 5.483-4.767.715-21.69-11.203-30.509-14.302-8.819-3.098-25.98-8.58-36.706-8.819-10.726-.238-17.876-.715-21.213.954-3.337 1.668-7.627 5.005-7.627 5.005l3.337 15.97z" style="opacity:.21568627;fill:#000;fill-opacity:1;fill-rule:evenodd;stroke:none;filter:url(#k)" transform="translate(0 -574.362)"/><path d="M179.53 758.679c-.458.114-1.488 3.203-1.488 3.203s-.457 1.601-.229 2.745c.23 1.144 0 2.174.572 3.089s27.112 30.314 27.112 30.314 1.716 2.746 4.804 2.403c3.09-.343 4.119-.687 5.034-1.259.915-.572 23.222-22.993 23.222-22.993l7.893-10.067s.572-2.402.343-4.576c-.228-2.173-3.775-5.72-3.775-5.72s-3.431-2.287-4.347-2.63c-.915-.344-14.528-6.178-23.222-6.406-8.694-.23-22.421 3.317-22.421 3.317l-13.499 8.58z" style="fill:url(#l);fill-opacity:1;fill-rule:evenodd;stroke:none" transform="translate(0 -574.362)"/><path d="M70.053 971.11s-16.93 7.321-16.93 12.355c0 5.033 1.83 20.59 77.788 29.742 75.959 9.152 59.943-12.812 76.874-12.812 16.93 0 14.642 4.118 16.93 5.949 2.288 1.83 32.03 13.27 72.755 7.778 40.725-5.49 70.925-16.015 74.586-26.997 3.66-10.982-21.049-15.558-21.049-15.558l-280.954-.457z" style="opacity:.21176471;fill:#000;fill-opacity:1;fill-rule:evenodd;stroke:url(#m);stroke-width:1px;stroke-linecap:butt;stroke-linejoin:miter;stroke-opacity:1;filter:url(#filter6160)" transform="translate(0 -574.362)"/><path d="M80.544 983.594c-8.697-3.1-12.068-8.844-11.451-19.508.888-15.348 10.65-26.536 31.536-36.146 12.77-5.875 20.586-7.217 38.717-6.644 12.818.405 16.3.88 23.543 3.207 16.135 5.186 29.621 14.927 35.422 25.584 3.03 5.569 4.398 14.78 3.167 21.341-.87 4.639-4.98 9.444-10.048 11.745-3.755 1.706-7.684 1.835-55.541 1.814-41.042-.017-52.281-.3-55.345-1.393zm55.743-11.646c21.645-1.082 22.158-1.158 24.834-3.67 9.308-8.74 6.214-24.167-6.603-32.916-8.055-5.499-16.806-7.606-29.418-7.085-17.255.714-29.067 6.826-34.583 17.894-4.4 8.83-2.72 18.26 4.306 24.173 3.84 3.231 6.701 3.342 41.464 1.604zm97.102 11.905c-1.65-.573-4.643-2.61-6.65-4.526-13.443-12.832-1.97-38.511 22.412-50.167 12.488-5.97 23.63-8.358 38.711-8.3 15.401.06 20.9 1.107 32.946 6.272 11.825 5.07 18.659 9.585 24.98 16.502 8.086 8.846 11.394 21.995 7.737 30.748-1.74 4.162-6.65 8.303-11.417 9.627-5.071 1.408-104.628 1.265-108.72-.156zm103.565-13.509c13.337-11.222 6.185-31.612-13.813-39.38-8.06-3.13-24.011-3.814-32.895-1.41-21.48 5.815-31.733 25.389-20.003 38.188l3.233 3.529 14.456.737c7.951.405 21.51.806 30.13.891l15.673.154 3.22-2.709zM207.228 800.768c-1.189-.668-8.497-8.415-16.24-17.215-12.832-14.582-14.08-16.338-14.09-19.816-.005-2.098.458-4.688 1.028-5.754 1.29-2.41 10.05-6.869 20.073-10.218 12.926-4.317 25.643-2.433 43.035 6.376 2.005 1.015 4.368 2.568 5.25 3.45 1.957 1.957 2.085 6.424.255 8.925-1.224 1.675-1.308 1.566-.906-1.176.622-4.236-2.115-8.926-6.515-11.164-10.103-5.14-25.22-7.896-33.98-6.194-7.293 1.416-16.75 5.315-16.75 6.906 0 .73 2.92 2.345 6.5 3.599 12.917 4.52 23.723 11.377 30.608 19.42 1.952 2.28 4.059 4.146 4.683 4.146.624 0 3.123-1.912 5.554-4.25 6.754-6.494 3.37-1.467-7.019 10.427-11.463 13.124-15.868 15.695-21.486 12.538zm7.883-3.558c1.108-1.076-33.73-36.579-35.077-35.747-.63.39-1.145 2.025-1.145 3.635 0 2.356 2.641 5.839 13.563 17.88 7.46 8.224 14.322 15.162 15.25 15.417 1.96.539 6.359-.165 7.41-1.185z" style="fill:#cda809" transform="translate(0 -574.362)"/><path d="M81.316 786.077s-16.788 15.65-21.625 19.919c-4.837 4.268-11.524 8.678-19.35 16.36-7.824 7.684-14.796 16.505-15.222 17.358-.427.854-2.846 4.41-2.704 6.545.143 2.134-.569 4.98.996 4.41 1.565-.569 32.865-29.877 35-32.296 2.134-2.418 17.357-17.784 20.487-21.056 3.13-3.272 4.98-6.972 4.98-6.972l.995-3.272.143-.996h-3.7z" style="fill:url(#n);fill-opacity:1;fill-rule:evenodd;stroke:none" transform="translate(0 -574.362)"/><path d="M197.59 978.754c3.747-4.284 4.747-8.523 4.052-17.183-.344-4.289-1.404-7.943-3.331-11.484-3.305-6.071-12.013-14.466-19.587-18.88-2.934-1.71-4.951-3.12-4.482-3.132 1.828-.047 15.502 7.747 22.639 12.903 4.13 2.984 9.083 5.98 11.008 6.658 4.511 1.59 6.826.635 18-7.418 4.675-3.37 12.55-7.89 17.5-10.044 12.508-5.446 15.643-6.073 5.747-1.151-24.271 12.07-35.34 36.253-22.879 49.98l3.132 3.449-3.875-2.846c-3.425-2.515-4.932-2.898-13-3.302-9.04-.453-9.167-.427-13.625 2.825l-4.5 3.282 3.2-3.657zm-97.559-64.622C86.012 892.97 78.607 871.46 77.04 847.347c-.365-5.613-1.138-10.681-1.719-11.261-1.962-1.963-12.727 2.502-29.932 12.416-16.743 9.648-17.713 10.037-21.058 8.44-2.448-1.169-3.032-2.16-3.477-5.897-.65-5.453 1.106-9.504 7.67-17.705 7.618-9.518 12.259-14.024 24.865-24.14 35.925-28.829 44.975-45.454 47.5-87.262 1.034-17.112 1.688-21.142 5.173-31.885 11.068-34.125 41.673-62.598 77.32-71.935 39.255-10.282 80.39 1.36 108.75 30.781 20.496 21.264 28.94 41.596 30.793 74.154 2.328 40.883 11.554 57.514 48.173 86.837 19.183 15.361 31.862 30.977 32.066 39.493.12 5.019-1.163 7.174-4.813 8.09-2.797.702-6.183-.867-24.429-11.32-13.83-7.924-23.593-11.71-25.694-9.966-.851.706-1.34 3.344-1.343 7.238-.005 8.132-2.331 22.1-5.52 33.158-4.212 14.598-11.219 28.205-24.6 47.766-.363.531-1.5.44-2.73-.217-2.084-1.116-2.07-1.181 1.25-5.854 1.846-2.599 4.099-6.187 5.006-7.975 1.479-2.914 1.487-3.25.083-3.25-1.19 0-1.542-1.017-1.465-4.25.055-2.337-.06-14.6-.256-27.25-.303-19.614-.694-24.464-2.656-32.943-7.229-31.238-21.411-56.196-40.619-71.479-10.18-8.1-14.175-9.676-21.47-8.47l-5.854.969-.41-2.789c-.382-2.606-.175-2.789 3.168-2.8 8.928-.03 21.71-5.626 27.51-12.045 4.787-5.299 7.934-14.016 7.922-21.943-.023-15.89-13.95-29.16-32.213-30.691-5.676-.476-8.381-.161-13.918 1.619-7.666 2.465-15.472 7.838-19.027 13.096l-2.35 3.476-4.148 13.176c1.83.34 10.238-11.88 9.55-11.808-1.97.208-1.453 3.365 1.07 6.517 2.016 2.521 2.584 2.737 4.494 1.715 2.712-1.451 2.72-2.1.08-5.715-1.574-2.154-1.213-1.96 1.423.768 7.955 8.227-3.532 16.492-5.337 26.971-.06.346-6.629-3.166-6.293-2.622.397.642.661 5.523-4.793 5.062-4.616-.39-2.754-14.757-4.633-14.75-8.647.035-20.7 7.303-20.737-4.814-.02-6.142.399-8.179 2.308-11.25 2.176-3.5 5.169-5.068 5.169-2.71 0 .573 1.01 2.485 2.246 4.25 1.236 1.766 2.34 3.377 2.454 3.58.598 1.071 5.3-1.143 5.3-2.496 0-1.062.544-1.38 1.642-.958 2.889 1.109 1.032-9.667-3.11-18.048-10.286-20.813-30.963-28.05-48.032-16.813-10.803 7.11-19.466 25.334-19.466 40.945 0 7.395 2.554 18.188 5.93 25.064 4.314 8.786 13.958 17.776 21.385 19.935 3.124.909 7.244 1.517 9.155 1.352 3.342-.288 3.996.294 17.07 15.175 7.479 8.51 14.734 16.077 16.123 16.814 4.271 2.267 8.597.69 14.058-5.121 2.697-2.87 7.014-7.469 9.593-10.219 3.997-4.262 4.538-4.584 3.67-2.183-4.542 12.551-14.345 21.683-23.278 21.683-6.01 0-10.692-3.549-21.1-15.994-8.572-10.251-12.822-14.06-17.859-16.004-1.805-.697-6.313-2.621-10.018-4.276l-6.736-3.01-3.764 2.501c-16.493 10.961-31.487 33.145-40.203 59.48-5.589 16.888-7.288 28.473-7.01 47.803.322 22.502-.285 31.5-2.126 31.5-1.386 0 .871 4.977 4.629 10.207 3.967 5.522 4.155 6.375 1.554 7.055-1.504.393-3.343-1.696-8.965-10.183zm227.858-9.079c.588-1.1.845-2 .57-2s-.982.9-1.57 2c-.589 1.1-.846 2-.57 2 .274 0 .981-.9 1.57-2zm11.472-25.533c3.18-9.295 5.534-21.942 6.186-33.236.85-14.73 1.154-15.13 9.428-12.344 3.527 1.188 9.114 3.64 12.414 5.452 14.966 8.212 24.763 14.183 25.218 15.37.582 1.515 6.88 1.751 7.782.291.34-.55.024-1-.702-1s-4.465-3.672-8.309-8.16c-3.844-4.487-11.94-12.529-17.99-17.87-6.05-5.34-15.724-14.606-21.5-20.59-9.445-9.787-10.777-11.633-13.267-18.38-1.521-4.125-2.759-8.73-2.75-10.235.01-1.504-1.29-4.88-2.887-7.5-5.896-9.674-9.872-26.766-11.111-47.765-1.273-21.578-3.922-32.56-11.496-47.666-13.629-27.18-39.436-48.121-69.488-56.385-11.78-3.239-34.5-4.444-46.757-2.48-35.887 5.749-67.87 29.944-82.863 62.686-5.624 12.283-8.337 24.548-9.368 42.363-1.303 22.497-5.07 38.348-11.984 50.432-1.681 2.939-2.78 6.032-2.45 6.894.624 1.625-2.188 10.042-5.496 16.452-1.924 3.727-20.618 22.526-35.702 35.903-4.465 3.96-10.976 10.597-14.469 14.75-3.493 4.153-6.953 7.551-7.69 7.551-.737 0-1.061.45-.721 1 1.005 1.626 5.709 1.143 7.935-.816 2.541-2.236 18.93-11.877 27.065-15.922 8.889-4.42 16.445-6.717 17.762-5.4.596.596 1.454 6.582 1.907 13.303.945 14.015 4.349 29.351 8.945 40.3 3.3 7.86 5.112 10.068 2.219 2.702-.905-2.304-1.375-4.458-1.046-4.788.33-.33 3.576 1.925 7.213 5.01 3.638 3.086 6.925 5.611 7.307 5.611.38 0 .701-8.662.711-19.25.014-14.31.474-21.56 1.791-28.25 6.514-33.083 21.35-59.821 43.663-78.69l5.472-4.628-4.638-4.958c-17.17-18.356-18.01-50.605-1.851-71.048 5.04-6.377 12.098-10.759 21.142-13.127l7.403-1.939-5-.04c-6.78-.055-15.725 2.175-23.525 5.864-8.267 3.91-9.096 2.34-2.14-4.057 7.651-7.035 14.258-9.306 27.186-9.345 9.88-.03 10.922.166 17.122 3.218 6.553 3.226 16.363 12.248 14.128 12.993-.612.204-3.286-.718-5.942-2.05-4.922-2.466-9.462-4.034-14.83-5.12-1.836-.372-.48.63 3.5 2.583 12.072 5.925 21.434 18.55 24.347 32.828.662 3.245 1.47 6.165 1.795 6.49.325.326 1.786-1.849 3.246-4.832 6.91-14.126 24.944-22.77 41.242-19.766 12.63 2.327 23.079 9.757 28.1 19.983 3.663 7.458 3.917 19.077.576 26.358-3.212 7.002-10.596 14.342-17.966 17.86-3.487 1.664-6.34 3.164-6.34 3.333 0 .169 2.588 2.018 5.75 4.109 19.027 12.58 35.658 35.405 44.632 61.253 6.165 17.757 8.071 29.939 8.054 51.478-.008 10.313.312 18.75.711 18.75.4 0 3.564-2.475 7.033-5.5 9-7.85 9.627-7.44 4.82 3.16-1.65 3.64-2.96 6.892-2.913 7.228.145 1.033 7.582-15.146 9.386-20.421zM287.21 691.19c-5.163-4.673-14.875-9.932-21.69-11.747-7.691-2.048-20.217-1.762-27.992.64-3.614 1.116-9.571 4.041-13.238 6.5-3.666 2.458-6.98 4.47-7.365 4.47-.385 0-2.132-2.211-3.884-4.914-9.67-14.922-28.987-24.587-45.117-22.571-11.336 1.416-25.57 9.074-31.627 17.016-3.363 4.41-4.408 4.377-4.408-.137 0-11.47 7.163-26.432 18.144-37.894 17.065-17.814 40.407-26.428 68.356-25.225 41.181 1.773 74.076 29.54 76.258 64.371.559 8.912-.121 13.377-2.027 13.313-.677-.023-3.112-1.743-5.41-3.823zm-54.821-11.709c6.494-2.65 7.974-2.859 20.5-2.878 12.92-.02 13.843.118 21.5 3.21 5.097 2.059 9.723 3.233 12.75 3.235l4.75.005v-4.894c0-19.97-18.714-43.09-42.975-53.095-12.128-5.001-20.915-6.522-37.025-6.408-17.162.121-25.462 1.98-39.5 8.844-19.983 9.77-33.988 26.781-37.492 45.539-.464 2.482-.708 4.648-.543 4.813.164.165 3.165-1.864 6.667-4.51 10.384-7.84 17.64-10.613 29.063-11.102 7.829-.335 11.004-.013 16.5 1.67 7.934 2.431 16.94 8.09 23.305 14.641 4.443 4.574 4.57 4.627 10 4.21 3.025-.232 8.65-1.708 12.5-3.28zm-7.28 10.411c.665-1.993 9.997-6.68 16.746-8.409 12.848-3.291 30.335-.354 37.52 6.303l2.987 2.767-2.64.307c-1.45.169-6.332-.394-10.846-1.25-10.376-1.968-24.54-1.992-34.65-.057-9.418 1.802-9.607 1.81-9.117.34zm53.458-.743c-1.795-.822-8.997-7.016-24.904-7.456-11.726-.322-19.842 4.72-21.637 5.54-2.707 1.24 8.777-1.329 21.863-1.329 13.085 0 27.385 4.484 24.678 3.245zM82.455 789.853c2.608-4.911 1.513-4.33-6.316 3.35-4.263 4.18-13.15 11.87-19.75 17.085-18.554 14.663-32.46 30.609-32.49 37.258-.011 2.241 56.071-53.015 58.556-57.693zm317.434 57.668c0-1.929-3.59-8.377-7.37-13.239-5.975-7.684-15.224-16.445-26.13-24.754-4.95-3.77-12.938-10.677-17.75-15.346-8.621-8.366-9.827-9.125-7.645-4.813 1.238 2.447 56.952 58.684 58.138 58.684.416 0 .757-.24.757-.532zm-182.37-105.218c-.781-1.512-1.95-4.72-2.598-7.127-.73-2.71-1.533-4.022-2.111-3.444-1.2 1.2-3.9 11.547-3.277 12.555.26.421 2.484.766 4.94.766h4.467l-1.42-2.75zm-9.603-6.5c1.951-4.3 2.59-12.23 1.167-14.47-.607-.955-1.624-.96-4.661-.029-2.552.784-4.001.845-4.223.18-.925-2.774-4.128-7.87-5.165-8.216-1.697-.566-4.145 5.991-4.145 11.103 0 7.048 7.411 15.45 13.799 15.643.714.021 2.167-1.873 3.228-4.211zm24.094 1.024c1.835-3.43 2.814-8.845 2.176-12.036-.586-2.929-1.569-3.106-6.576-1.185-.98.377-2.345-.941-4.135-3.995-1.469-2.507-3.125-4.558-3.68-4.558-1.577 0-3.906 6.516-3.906 10.928 0 3.385.62 4.567 4.085 7.782 6.265 5.813 10.05 6.776 12.036 3.064zm-31.743-58.077c-5.028-3.677-11.395-12.6-31.686-11.597-10.404.509-22.03 9.195-22.434 9.358-1.468.596 16.785-4.95 26.382-4.938 14.491.016 29.203 8.248 27.738 7.177zm57.893 245.699c.332-.332 1.194-.368 1.916-.079.798.32.561.556-.604.604-1.054.044-1.645-.193-1.312-.525z" style="fill:#636363" transform="translate(0 -574.362)"/><path d="m127.831 683.7 2.23 3.504 5.416.637s9.876-4.46 11.788-5.416c1.911-.956 20.389-7.009 20.389-7.009l8.92-.955 23.257 7.327 17.203 14.655 12.743-2.868 19.753-3.185 21.345.955 20.07 5.735s7.965 0 8.283-1.274c.319-1.275 2.549-15.93 1.593-19.434-.955-3.504-5.734-17.522-8.283-20.39-2.549-2.866-14.655-14.654-15.929-15.928-1.274-1.275-14.655-10.832-16.885-12.106-2.23-1.275-17.522-7.01-17.522-7.01l-31.54-4.14-14.017.636-19.115 4.46-27.717 17.204-13.38 16.248-6.372 12.424-2.23 15.93z" style="fill:url(#o);fill-opacity:1;fill-rule:evenodd;stroke:none" transform="translate(0 -574.362)"/><path d="m139.805 683.259-.113-2.59 2.59-4.168 5.858-4.844s5.97-3.266 6.42-3.379c.45-.112 6.646-3.154 9.01-3.154 2.366 0 10.814-.337 10.814-.337s6.645.112 7.209.225c.563.112 4.843 1.577 4.843 1.577l8.898 3.717 10.25 8.56s1.464 2.59 1.239 3.154c-.225.563-1.126 1.577-1.126 1.577s-3.605-.676-4.731-1.127c-1.126-.45-4.618-1.577-5.069-1.802-.45-.225-5.18-2.703-6.082-2.816-.901-.112-6.645-1.915-6.645-1.915l-4.731-1.013-4.28-.789-5.52.226-17.458 4.505-6.42 2.929-3.605 1.239-1.351.225z" style="fill:url(#p);fill-opacity:1;fill-rule:evenodd;stroke:none" transform="translate(0 -574.362)"/><path d="M221.69 694.184s7.66-.788 9.913-1.576c2.253-.789 13.404-2.14 14.192-2.253.788-.113 12.277-.676 15.544 0 3.266.676 15.43 2.59 16.332 2.59.901 0 5.744-.225 5.744-.225s1.24-2.253.676-2.928c-.563-.676-1.802-1.352-2.59-1.802-.789-.451-6.083-3.38-6.984-4.055-.901-.676-10.475-3.943-11.038-3.943-.563 0-10.363-.563-12.953-.563s-9.35.789-10.363 1.24c-1.014.45-7.096 2.702-8.11 3.153-1.013.45-4.054 1.69-5.18 2.816-1.127 1.126-2.479 2.816-2.704 3.266-.225.45-2.14 4.28-2.478 4.28z" style="fill:url(#q);fill-opacity:1;fill-rule:evenodd;stroke:none" transform="translate(0 -574.362)"/><path d="m212.542 730.06-3.109 7.772-3.108 8.117s3.108-.519 6.562-.346c3.454.173 8.808 1.036 8.808 1.036l-1.727-2.417-1.381-2.418s-1.555-2.073-2.246-4.145c-.69-2.073-1.554-5.009-1.554-5.009l-1.209-2.245-1.036-.345z" style="fill:#636363;fill-rule:evenodd;stroke:none" transform="translate(0 -574.362)"/><path d="M326.889 905.053c.588-1.1 1.295-2 1.57-2 .275 0 .018.9-.57 2-.589 1.1-1.296 2-1.57 2-.276 0-.019-.9.57-2zm3.086-5.112c-.048-.336 1.264-3.589 2.914-7.228 4.806-10.6 4.18-11.01-4.821-3.16-3.469 3.025-6.634 5.5-7.033 5.5-.4 0-.72-8.437-.711-18.75.017-21.54-1.889-33.721-8.054-51.478-8.974-25.848-25.605-48.673-44.631-61.253-3.163-2.091-5.75-3.94-5.75-4.11 0-.168 2.852-1.668 6.339-3.332 7.37-3.518 14.754-10.858 17.966-17.86 3.341-7.28 3.087-18.9-.576-26.358-5.021-10.226-15.47-17.656-28.1-19.983-16.298-3.003-34.331 5.64-41.242 19.766-1.46 2.983-2.92 5.158-3.246 4.833-.326-.326-1.133-3.246-1.795-6.49-2.913-14.28-12.275-26.904-24.346-32.83-3.98-1.953-8.829-3.292-6.992-2.92 5.367 1.086 13.4 2.992 18.32 5.459 2.657 1.33 5.33 2.253 5.943 2.049 2.235-.745-7.575-9.767-14.128-12.993-6.2-3.052-7.241-3.248-17.122-3.218-12.928.039-19.535 2.31-27.186 9.345-6.956 6.396-6.127 7.967 2.14 4.057 7.8-3.689 16.745-5.919 23.525-5.864l8.83 1.167-11.233.812c-9.044 2.368-16.101 6.75-21.142 13.127-16.16 20.443-15.32 52.692 1.85 71.048l4.639 4.958-5.472 4.628c-22.313 18.869-37.15 45.607-43.663 78.69-1.317 6.69-1.777 13.94-1.79 28.25-.01 10.588-.331 19.25-.712 19.25-.382 0-3.67-2.525-7.307-5.61-3.637-3.086-6.883-5.34-7.213-5.011-.33.33.141 2.484 1.046 4.788 2.893 7.366 1.08 5.159-2.219-2.702-4.596-10.95-8-26.285-8.945-40.3-.453-6.721-1.311-12.707-1.907-13.302-1.317-1.318-8.873.979-17.762 5.399-8.135 4.045-24.524 13.686-27.065 15.922-2.226 1.959-6.93 2.442-7.935.816-.34-.55-.016-1 .721-1s4.197-3.398 7.69-7.55c3.493-4.154 10.004-10.791 14.469-14.75 15.084-13.378 33.778-32.177 35.702-35.904 3.308-6.41 6.12-14.827 5.496-16.452-.33-.862.769-3.955 2.45-6.894 6.914-12.084 10.68-27.935 11.984-50.432 1.031-17.815 3.744-30.08 9.368-42.363 14.993-32.742 46.976-56.937 82.863-62.687 12.256-1.963 34.977-.758 46.757 2.481 30.052 8.264 55.86 29.204 69.488 56.385 7.574 15.106 10.223 26.088 11.496 47.666 1.239 21 5.215 38.091 11.111 47.765 1.598 2.62 2.897 5.996 2.887 7.5-.009 1.504 1.229 6.11 2.75 10.235 2.49 6.747 3.822 8.593 13.268 18.38 5.775 5.984 15.45 15.25 21.5 20.59 6.05 5.341 14.145 13.383 17.99 17.87 3.843 4.488 7.582 8.16 8.308 8.16s1.042.45.702 1c-.903 1.46-7.2 1.224-7.782-.292-.455-1.186-10.252-7.157-25.218-15.37-3.3-1.81-8.887-4.263-12.414-5.45-8.274-2.786-8.579-2.387-9.428 12.343-.652 11.294-3.006 23.94-6.186 33.236-1.804 5.275-9.24 21.454-9.386 20.421zm-35.47-207.492c.359-1.432.423-6.27.142-10.75-2.182-34.83-35.077-62.598-76.258-64.37-27.949-1.204-51.29 7.41-68.356 25.224-10.98 11.462-18.144 26.424-18.144 37.894 0 4.514 1.045 4.547 4.408.137 6.058-7.942 20.29-15.6 31.627-17.016 16.13-2.015 35.448 7.649 45.117 22.57 1.752 2.704 3.5 4.915 3.884 4.915.384 0 3.699-2.012 7.365-4.47 3.667-2.459 9.624-5.384 13.238-6.5 7.775-2.402 20.301-2.688 27.992-.64 6.815 1.815 16.527 7.074 21.69 11.746 4.967 4.495 6.42 4.746 7.294 1.26zm-60.278-2.896c10.109-1.935 24.273-1.911 34.649.057 4.514.856 9.395 1.419 10.847 1.25l2.64-.307-2.988-2.767c-7.185-6.657-24.672-9.594-37.52-6.303-6.749 1.73-16.081 6.416-16.746 8.41-.49 1.47-.3 1.462 9.118-.34zM20.24 848.943c.492-.188.063-.043.058-.023-.086.356.134-.69-.105.555-.24 1.243-.042-.142.047-.532zm380.75 1.984c-.02-1.65 1.009-1.998 1.283-1.32.274.676.515.98.261 1.953-.253.973-1.524 1.017-1.544-.633zM207.858 744.689c-.624-1.008 3.35-12.4 4.952-12.957 1.662-.578 1.382.734 2.11 3.444.648 2.407 1.818 5.615 2.6 7.127l2.866 3.835-5.913-1.085c-2.456 0-6.355.058-6.615-.364zm-7.66-6.102c-4.877-2.12-9.31-8.89-9.31-14.216 0-5.112 2.449-11.669 4.146-11.103 1.037.346 4.24 5.442 5.165 8.216.222.665 1.67.604 4.223-.18 4.723-1.45 5.439-.692 5.43 5.75-.008 5.055-3.181 13.02-5.164 12.96-.715-.022-2.735-.664-4.49-1.427zm25.526-.354c-.916-.374-3.503-2.386-5.75-4.47-3.465-3.215-4.085-4.397-4.085-7.782 0-4.412 2.33-10.928 3.907-10.928.554 0 2.21 2.051 3.68 4.558 1.79 3.054 3.153 4.372 4.134 3.995 5.007-1.921 5.99-1.744 6.576 1.185.638 3.19-.34 8.606-2.176 12.036-1.195 2.232-3.177 2.675-6.286 1.406z" style="fill:#070707" transform="translate(0 -574.362)"/><path d="M373.434 343.016a9.568 17.192 0 1 1-19.135 0 9.568 17.192 0 1 1 19.135 0z" style="fill:url(#r);fill-opacity:1;stroke:#000;stroke-opacity:1" transform="matrix(1.125 0 0 1 -209.076 -191.171)"/><path d="M195.697 711.722c-1.795 2.855-2.938 7.024-2.938 11.656 0 8.6 3.915 15.563 8.719 15.563 4.804 0 8.687-6.963 8.687-15.563 0-1.556-.106-3.081-.343-4.5l-.594.313-7.75 2.969s-.911-3.876-2.406-5.97c-.594-.83-1.966-2.63-3.375-4.468z" style="fill:#000;fill-opacity:1;stroke:#000;stroke-width:.93565798;stroke-opacity:1" transform="translate(0 -574.362)"/><path d="M373.434 343.016a9.568 17.192 0 1 1-19.135 0 9.568 17.192 0 1 1 19.135 0z" style="fill:url(#s);fill-opacity:1;stroke:#000;stroke-opacity:1" transform="matrix(1.00587 0 0 .86503 -141.4 -143.86)"/><path d="M358.094 328.531c-1.795 2.855-2.938 7.024-2.938 11.656 0 8.6 3.915 15.563 8.719 15.563 4.804 0 8.688-6.963 8.688-15.563 0-1.556-.107-3.081-.344-4.5l-.594.313-7.75 2.969s-.911-3.876-2.406-5.969c-.594-.831-1.966-2.632-3.375-4.469z" style="fill:#000;fill-opacity:1;stroke:#000;stroke-width:.93565798;stroke-opacity:1" transform="matrix(.8941 0 0 .86503 -99.663 -143.86)"/><path d="m175.398 674.473 6.533 1.577 6.194 2.028 2.253.45-4.055-2.253-5.294-1.577-1.802-.563h-3.04l-.79.338z" style="fill:#000;fill-opacity:1;fill-rule:evenodd;stroke:none" transform="translate(0 -574.362)"/><path d="M327.257 577.446a36.587 23.24 0 1 1-73.174 0 36.587 23.24 0 1 1 73.174 0z" style="fill:url(#t);fill-opacity:1;stroke:none" transform="matrix(1.09006 0 0 1.18791 -189.604 -305.102)"/><path d="M327.257 577.446a36.587 23.24 0 1 1-73.174 0 36.587 23.24 0 1 1 73.174 0z" style="fill:url(#u);fill-opacity:1;stroke:none" transform="matrix(1.09006 0 0 1.18791 -12.941 -305.102)"/><path d="m238.644 775.252 6.9-8.488.55.184-7.572 9.28.122-.976z" style="fill:#cda809;fill-rule:evenodd;stroke:none" transform="translate(0 -574.362)"/></g></svg>