<svg xmlns="http://www.w3.org/2000/svg" width="48" height="48"><g fill="none" fill-rule="evenodd"><path fill="#855CEA" d="M-.272 24.324c-.008-.006-.012-.022-.02-.032l-23-23a1.012 1.012 0 0 0-1.414 0l-23 23a.989.989 0 0 0-.022 1.384c.454.452 1.066.386 1.422.038.004-.002.01-.004.014-.008l22.294-22.294 22.292 22.294a.042.042 0 0 0 .012.008c.382.37 1.01.37 1.388 0 .004-.002.01-.004.014-.008a.983.983 0 0 0 .02-1.382"/><path fill="#F52D2D" d="M18 4c7.718 0 14 6.28 14 14 0 7.718-6.282 14-14 14-7.72 0-14-6.282-14-14 0-7.72 6.28-14 14-14m0 32a17.91 17.91 0 0 0 11.266-3.984l15.316 15.396a1.998 1.998 0 0 0 2.828.004 2 2 0 0 0 .008-2.828L32.082 29.176A17.887 17.887 0 0 0 36 18c0-9.926-8.074-18-18-18S0 8.074 0 18c0 9.924 8.074 18 18 18"/></g></svg>