<svg xmlns="http://www.w3.org/2000/svg" width="480" height="48" viewBox="0 0 480 48">
  <g fill="none" fill-rule="evenodd">
    <g transform="translate(288 3)">
      <path fill="#C2ADF4" d="M0,21 L0,14 L12,14 L12,21 C11.996,23.164 11.326,24.458 10,24.864 L10,33 L2,33 L2,24.864 C0.672,24.46 0,23.166 0,21 Z M36,14 L48,14 L48,21 C47.996,23.164 47.326,24.458 46,24.864 L46,33 L38,33 L38,24.864 C36.672,24.46 36,23.166 36,21 L36,14 Z M42,12 C39.796,12 38,10.206 38,8 C38,5.794 39.796,4 42,4 C44.206,4 46,5.794 46,8 C46,10.206 44.206,12 42,12 Z M6,12 C3.796,12 2,10.206 2,8 C2,5.794 3.796,4 6,4 C8.206,4 10,5.794 10,8 C10,10.206 8.206,12 6,12 Z"/>
      <path fill="#855CEA" d="M16,25 L16,14 L32,14 L32,25 C32,27.416 30.28,29.436 28,29.9 L28,42 L20,42 L20,29.9 C17.72,29.436 16,27.416 16,25 Z M24,12 C20.692,12 18,9.308 18,6 C18,2.692 20.692,0 24,0 C27.308,0 30,2.692 30,6 C30,9.308 27.308,12 24,12 Z"/>
    </g>
    <g transform="translate(439 -1)">
      <path fill="#197BFF" d="M12.168,48.5196 C12.352,48.7956 12.664,48.9656 13,48.9656 L29,48.9656 C29.482,48.9656 29.896,48.6196 29.984,48.1456 L31.972,37.1896 C32.536,34.7516 31.742,31.8496 29.156,31.0176 L21,28.2476 L21,16.9656 C21,14.7596 19.204,12.9656 17,12.9656 C14.792,12.9656 13,14.7596 13,16.9656 L13,35.7636 C10.05,31.8196 8.12,30.9656 6,30.9656 C4.998,30.9656 4.2,31.4196 3.754,32.2476 C3.052,33.5416 3.442,35.4116 4.168,36.5196 L12.168,48.5196 Z"/>
      <path fill="#B2D3FF" d="M34,14.9648 C34,16.0688 33.104,16.9648 32,16.9648 L26,16.9648 C24.894,16.9648 24,16.0688 24,14.9648 C24,13.8608 24.894,12.9648 26,12.9648 L32,12.9648 C33.104,12.9648 34,13.8608 34,14.9648 Z M25.414,11.378 C25.024,11.77 24.512,11.964 24,11.964 C23.488,11.964 22.976,11.77 22.586,11.378 C21.804,10.598 21.804,9.332 22.586,8.55 L26.586,4.55 C27.366,3.77 28.632,3.77 29.414,4.55 C30.196,5.332 30.196,6.598 29.414,7.378 L25.414,11.378 Z M19,8.9648 C19,10.0688 18.104,10.9648 17,10.9648 C15.894,10.9648 15,10.0688 15,8.9648 L15,2.9648 C15,1.8608 15.894,0.9648 17,0.9648 C18.104,0.9648 19,1.8608 19,2.9648 L19,8.9648 Z M10,11.9648 C9.488,11.9648 8.976,11.7688 8.586,11.3788 L4.586,7.3788 C3.804,6.5968 3.804,5.3328 4.586,4.5488 C5.366,3.7688 6.632,3.7688 7.414,4.5488 L11.414,8.5488 C12.196,9.3328 12.196,10.5968 11.414,11.3788 C11.024,11.7688 10.512,11.9648 10,11.9648 Z M0,14.9648 C0,13.8608 0.894,12.9648 2,12.9648 L8,12.9648 C9.104,12.9648 10,13.8608 10,14.9648 C10,16.0688 9.104,16.9648 8,16.9648 L2,16.9648 C0.894,16.9648 0,16.0688 0,14.9648 Z"/>
    </g>
    <g transform="translate(247)">
      <path fill="#FFE2A1" d="M8,12 C8,6.486 12.484,2 18,2 C23.514,2 28,6.486 28,12 L28,18 L8,18 L8,12 Z M0,48 L36,48 L36,18 L30,18 L30,12 C30,5.382 24.616,0 18,0 C11.382,0 6,5.382 6,12 L6,18 L0,18 L0,48 Z"/>
      <path fill="#FF9A1A" d="M16,30 C16,28.896 16.896,28 18,28 C19.102,28 20,28.896 20,30 C20,30.736 19.594,31.376 19,31.72 L19,37 C19,37.55 18.55,38 18,38 C17.448,38 17,37.55 17,37 L17,31.72 C16.404,31.376 16,30.736 16,30 L16,30 Z"/>
    </g>
    <g transform="translate(48)">
      <path fill="#B5EDBD" d="M24,0 C10.766,0 0,10.766 0,24 C0,37.232 10.766,48 24,48 C37.232,48 48,37.232 48,24 C48,10.766 37.232,0 24,0 L24,0 Z"/>
      <path fill="#1EC737" d="M26,22 C26.55,22 27,22.448 27,23 C27,23.55 26.55,24 26,24 L17,24 C17,24.71 17.046,25.37 17.122,26 L24,26 C24.55,26 25,26.448 25,27 C25,27.55 24.55,28 24,28 L17.532,28 C18.798,32.156 22.416,34 29,34 C29.55,34 30,34.448 30,35 C30,35.55 29.55,36 29,36 C23.84,36 17.236,35.064 15.466,28 L13,28 C12.448,28 12,27.55 12,27 C12,26.448 12.448,26 13,26 L15.106,26 C15.04,25.372 15,24.708 15,24 L13,24 C12.448,24 12,23.55 12,23 C12,22.448 12.448,22 13,22 L15.106,22 C16.048,13.09 23.384,12 29,12 C29.55,12 30,12.448 30,13 C30,13.55 29.55,14 29,14 C21.442,14 17.788,16.424 17.122,22 L26,22 Z"/>
    </g>
    <g transform="translate(7)">
      <rect width="28" height="42" x="3" y="3" fill="#FCBABA"/>
      <path fill="#F52D2D" d="M30,15 C30,15.552 29.552,16 29,16 L5,16 C4.448,16 4,15.552 4,15 L4,5 C4,4.448 4.448,4 5,4 L29,4 C29.552,4 30,4.448 30,5 L30,15 Z M27,24 L25,24 C24.448,24 24,23.552 24,23 C24,22.448 24.448,22 25,22 L27,22 C27.552,22 28,22.448 28,23 C28,23.552 27.552,24 27,24 L27,24 Z M27,30 L25,30 C24.448,30 24,29.552 24,29 C24,28.448 24.448,28 25,28 L27,28 C27.552,28 28,28.448 28,29 C28,29.552 27.552,30 27,30 L27,30 Z M27,36 L25,36 C24.448,36 24,35.552 24,35 C24,34.448 24.448,34 25,34 L27,34 C27.552,34 28,34.448 28,35 C28,35.552 27.552,36 27,36 L27,36 Z M19,34 L21,34 C21.552,34 22,34.448 22,35 C22,35.552 21.552,36 21,36 L19,36 C18.448,36 18,35.552 18,35 C18,34.448 18.448,34 19,34 L19,34 Z M18,23 C18,22.448 18.448,22 19,22 L21,22 C21.552,22 22,22.448 22,23 C22,23.552 21.552,24 21,24 L19,24 C18.448,24 18,23.552 18,23 L18,23 Z M19,28 L21,28 C21.552,28 22,28.448 22,29 C22,29.552 21.552,30 21,30 L19,30 C18.448,30 18,29.552 18,29 C18,28.448 18.448,28 19,28 L19,28 Z M27,42 L19,42 C18.448,42 18,41.552 18,41 C18,40.448 18.448,40 19,40 L27,40 C27.552,40 28,40.448 28,41 C28,41.552 27.552,42 27,42 L27,42 Z M15,24 L13,24 C12.448,24 12,23.552 12,23 C12,22.448 12.448,22 13,22 L15,22 C15.552,22 16,22.448 16,23 C16,23.552 15.552,24 15,24 L15,24 Z M15,30 L13,30 C12.448,30 12,29.552 12,29 C12,28.448 12.448,28 13,28 L15,28 C15.552,28 16,28.448 16,29 C16,29.552 15.552,30 15,30 L15,30 Z M15,36 L13,36 C12.448,36 12,35.552 12,35 C12,34.448 12.448,34 13,34 L15,34 C15.552,34 16,34.448 16,35 C16,35.552 15.552,36 15,36 L15,36 Z M15,42 L13,42 C12.448,42 12,41.552 12,41 C12,40.448 12.448,40 13,40 L15,40 C15.552,40 16,40.448 16,41 C16,41.552 15.552,42 15,42 L15,42 Z M9,24 L7,24 C6.448,24 6,23.552 6,23 C6,22.448 6.448,22 7,22 L9,22 C9.552,22 10,22.448 10,23 C10,23.552 9.552,24 9,24 L9,24 Z M9,30 L7,30 C6.448,30 6,29.552 6,29 C6,28.448 6.448,28 7,28 L9,28 C9.552,28 10,28.448 10,29 C10,29.552 9.552,30 9,30 L9,30 Z M9,36 L7,36 C6.448,36 6,35.552 6,35 C6,34.448 6.448,34 7,34 L9,34 C9.552,34 10,34.448 10,35 C10,35.552 9.552,36 9,36 L9,36 Z M9,42 L7,42 C6.448,42 6,41.552 6,41 C6,40.448 6.448,40 7,40 L9,40 C9.552,40 10,40.448 10,41 C10,41.552 9.552,42 9,42 L9,42 Z M31,0 L3,0 C1.346,0 0,1.346 0,3 L0,45 C0,46.656 1.346,48 3,48 L31,48 C32.654,48 34,46.656 34,45 L34,3 C34,1.346 32.654,0 31,0 L31,0 Z"/>
      <path fill="#F52D2D" d="M25,8 C24.448,8 24,8.448 24,9 L24,11 C24,11.552 24.448,12 25,12 C25.552,12 26,11.552 26,11 L26,9 C26,8.448 25.552,8 25,8"/>
    </g>
    <g transform="translate(384 1)">
      <rect width="40" height="40" y="5" fill="#B5EDBD" rx="2"/>
      <path fill="#1EC737" d="M45.2558,0.4462 C44.3958,-0.2498 43.1358,-0.1138 42.4438,0.7462 L18.8398,30.0142 L10.4138,21.5882 C9.6338,20.8062 8.3658,20.8062 7.5858,21.5882 C6.8038,22.3702 6.8038,23.6362 7.5858,24.4142 L17.5858,34.4162 C17.9618,34.7902 18.4718,35.0022 18.9998,35.0022 C19.5838,35.0022 20.1658,34.7422 20.5558,34.2582 L45.5558,3.2582 C46.2498,2.3982 46.1158,1.1382 45.2558,0.4462"/>
    </g>
    <g transform="translate(336)">
      <circle cx="24" cy="24" r="24" fill="#FFE2A1"/>
      <path fill="#FF9A1A" d="M41.7995755,27.3411454 C42.213579,28.0596515 41.9690769,28.9761593 41.2505708,29.3901628 C41.0165688,29.528164 40.7570666,29.5926645 40.5005644,29.5926645 C39.9845601,29.5926645 39.4805558,29.3241623 39.2015534,28.8426582 L38.1680446,27.054643 C36.914034,32.1711865 32.7559986,36.6052242 27.3469526,37.8712349 C26.2549434,38.1277371 25.152434,38.2537382 24.0619247,38.2537382 C20.3583932,38.2537382 16.7763628,36.8062259 14.0613397,34.121203 C13.4718347,33.5376981 13.4658347,32.58819 14.0493396,31.998685 C14.6313446,31.40918 15.5808526,31.4046799 16.1703576,31.9881849 C18.9483813,34.7332082 22.8679146,35.8432177 26.6614468,34.9507101 C31.1374849,33.9022012 34.5350137,30.1401692 35.3645208,25.8906331 L33.1805022,28.4946552 C32.6494977,29.1276606 31.7014897,29.2116613 31.0684843,28.6791568 C30.4324789,28.1466523 30.3499782,27.2001442 30.8824827,26.5656388 L35.7020237,20.81759 C36.0185263,20.4440868 36.4940304,20.2505851 36.9830345,20.2880855 C37.3625378,20.3210857 37.7060407,20.4995873 37.9580428,20.7770896 C38.0405435,20.8625903 38.1080441,20.9585912 38.1695446,21.062092 L41.7995755,27.3411454 Z M17.1225657,20.8372401 C17.7570711,21.3682446 17.8395718,22.3147527 17.3085673,22.9507581 L12.4905264,28.6988069 C12.2040239,29.0408099 11.7810203,29.2358115 11.3415166,29.2358115 C11.3010163,29.2358115 11.2620159,29.2343115 11.2230156,29.2313115 C10.7400115,29.1923111 10.3050078,28.9238089 10.0560057,28.5068053 L6.21447302,22.115251 C5.78696939,21.4042449 6.01947136,20.4832371 6.72747738,20.0557335 C7.43848342,19.6297299 8.35949125,19.8607318 8.78699488,20.5687378 L9.6360021,21.9847499 C9.93600465,20.2597352 10.5435098,18.5782209 11.4795178,17.0167077 C13.5615355,13.5441781 16.9740645,11.0316568 20.8425974,10.1241491 C25.9636409,8.92113884 31.3081863,10.6296534 34.7912159,14.5776869 C35.3387206,15.2001922 35.2802201,16.1482003 34.6577148,16.6957049 C34.0352095,17.2432096 33.0887014,17.1832091 32.5411968,16.5622038 C29.7901734,13.4451773 25.5706375,12.0966658 21.5296032,13.0461739 C18.444077,13.76768 15.7200538,15.7776971 14.0535396,18.5587208 C13.0200309,20.2822354 12.4755262,22.1812516 12.4260258,24.1057679 L15.0105478,21.0232417 C15.5415523,20.3872363 16.4865603,20.3062356 17.1225657,20.8372401 Z"/>
    </g>
    <g transform="translate(144 2)">
      <path fill="#FF8E8E" d="M4.61167918,23.6613356 C1.78506482,21.1868248 0,17.5518745 0,13.5 C0,6.04415588 6.04415588,0 13.5,0 C17.7408992,0 21.5250667,1.9555004 24,5.01399848 C26.4749333,1.9555004 30.2591008,0 34.5,0 C41.9558441,0 48,6.04415588 48,13.5 C48,17.4929669 46.2664617,21.0810443 43.5109411,23.5526761 L24.6757264,44.1124049 C24.302533,44.5197671 23.7031374,44.525571 23.3250769,44.1124049 L4.61167918,23.6613356 Z"/>
      <polyline stroke="#F62C2C" stroke-width="2" points="10.5 21 16.5 21 21 10.5 25.5 33 31.5 21 37.5 21" stroke-linecap="round" stroke-linejoin="round"/>
    </g>
    <g transform="translate(192 5)">
      <rect width="48" height="39" fill="#8EE39B" rx="2"/>
      <path fill="#1EC737" d="M0,30 L9.08578644,20.9142136 L9.08578644,20.9142136 C9.86683502,20.133165 11.133165,20.133165 11.9142136,20.9142136 L16.5,25.5 L28.5857864,13.4142136 L28.5857864,13.4142136 C29.366835,12.633165 30.633165,12.633165 31.4142136,13.4142136 L48,30 L48,36 L48,36 C48,37.6568542 46.6568542,39 45,39 L3,39 L3,39 C1.34314575,39 1.48578501e-14,37.6568542 1.46549439e-14,36 L0,30 Z"/>
      <circle cx="12" cy="10.5" r="4.5" fill="#FFFFFF"/>
      <path stroke="#8EE39B" stroke-width="2" d="M16.5,24 L8.25,32.25 L16.5,24 Z" stroke-linecap="round" stroke-linejoin="round"/>
    </g>
    <g transform="translate(96 3)">
      <rect width="48" height="39" y="3" fill="#B2D3FF" rx="2"/>
      <path fill="#197BFF" d="M2,0 L20.1715729,0 L20.1715729,-8.8817842e-16 C20.7020059,-9.85617377e-16 21.2107137,0.210713681 21.5857864,0.585786438 L23.4142136,2.41421356 L23.4142136,2.41421356 C23.7892863,2.78928632 24.2979941,3 24.8284271,3 L45,3 L45,3 C46.6568542,3 48,4.34314575 48,6 L48,6 L24.8284271,6 L24.8284271,6 C24.2979941,6 23.7892863,6.21071368 23.4142136,6.58578644 L21.5857864,8.41421356 L21.5857864,8.41421356 C21.2107137,8.78928632 20.7020059,9 20.1715729,9 L2,9 L2,9 C0.8954305,9 1.3527075e-16,8.1045695 0,7 L0,2 L0,2 C-1.3527075e-16,0.8954305 0.8954305,2.02906125e-16 2,0 Z"/>
    </g>
  </g>
</svg>
