<svg xmlns="http://www.w3.org/2000/svg" width="480" height="48"><g fill="none" fill-rule="evenodd"><path fill="#C2ADF4" d="M288 24v-7h12v7c-.004 2.164-.674 3.458-2 3.864V36h-8v-8.136c-1.328-.404-2-1.698-2-3.864Zm36-7h12v7c-.004 2.164-.674 3.458-2 3.864V36h-8v-8.136c-1.328-.404-2-1.698-2-3.864v-7Zm6-2c-2.204 0-4-1.794-4-4s1.796-4 4-4c2.206 0 4 1.794 4 4s-1.794 4-4 4Zm-36 0c-2.204 0-4-1.794-4-4s1.796-4 4-4c2.206 0 4 1.794 4 4s-1.794 4-4 4Z"/><path fill="#855CEA" d="M304 28V17h16v11a5.007 5.007 0 0 1-4 4.9V45h-8V32.9a5.007 5.007 0 0 1-4-4.9Zm8-13c-3.308 0-6-2.692-6-6s2.692-6 6-6 6 2.692 6 6-2.692 6-6 6Z"/><path fill="#197BFF" d="M451.168 47.52c.184.276.496.446.832.446h16c.482 0 .896-.346.984-.82l1.988-10.956c.564-2.438-.23-5.34-2.816-6.172L460 27.248V15.966c0-2.206-1.796-4-4-4-2.208 0-4 1.794-4 4v18.798c-2.95-3.944-4.88-4.798-7-4.798-1.002 0-1.8.454-2.246 1.282-.702 1.294-.312 3.164.414 4.272l8 12Z"/><path fill="#B2D3FF" d="M473 13.965a2 2 0 0 1-2 2h-6a2 2 0 1 1 0-4h6a2 2 0 0 1 2 2Zm-8.586-3.587c-.39.392-.902.586-1.414.586a1.998 1.998 0 0 1-1.414-3.414l4-4c.78-.78 2.046-.78 2.828 0a1.998 1.998 0 0 1 0 2.828l-4 4ZM458 7.965a2 2 0 0 1-4 0v-6a2 2 0 1 1 4 0v6Zm-9 3a1.995 1.995 0 0 1-1.414-.586l-4-4a2 2 0 1 1 2.828-2.83l4 4A2 2 0 0 1 449 10.965Zm-10 3a2 2 0 0 1 2-2h6a2 2 0 0 1 0 4h-6a2 2 0 0 1-2-2Z"/><path fill="#FFE2A1" d="M255 12c0-5.514 4.484-10 10-10 5.514 0 10 4.486 10 10v6h-20v-6Zm-8 36h36V18h-6v-6c0-6.618-5.384-12-12-12-6.618 0-12 5.382-12 12v6h-6v30Z"/><path fill="#FF9A1A" d="M263 30a2 2 0 0 1 4 0 1.99 1.99 0 0 1-1 1.72V37c0 .55-.45 1-1 1-.552 0-1-.45-1-1v-5.28c-.596-.344-1-.984-1-1.72Z"/><path fill="#B5EDBD" d="M72 0C58.766 0 48 10.766 48 24c0 13.232 10.766 24 24 24 13.232 0 24-10.768 24-24C96 10.766 85.232 0 72 0Z"/><path fill="#1EC737" d="M74 22c.55 0 1 .448 1 1 0 .55-.45 1-1 1h-9c0 .71.046 1.37.122 2H72c.55 0 1 .448 1 1 0 .55-.45 1-1 1h-6.468c1.266 4.156 4.884 6 11.468 6 .55 0 1 .448 1 1 0 .55-.45 1-1 1-5.16 0-11.764-.936-13.534-8H61a1 1 0 0 1 0-2h2.106A19.06 19.06 0 0 1 63 24h-2a1 1 0 0 1 0-2h2.106c.942-8.91 8.278-10 13.894-10 .55 0 1 .448 1 1 0 .55-.45 1-1 1-7.558 0-11.212 2.424-11.878 8H74Z"/><path fill="#FCBABA" d="M10 3h28v42H10z"/><path fill="#F52D2D" d="M37 15a1 1 0 0 1-1 1H12a1 1 0 0 1-1-1V5a1 1 0 0 1 1-1h24a1 1 0 0 1 1 1v10Zm-3 9h-2a1 1 0 0 1 0-2h2a1 1 0 0 1 0 2Zm0 6h-2a1 1 0 0 1 0-2h2a1 1 0 0 1 0 2Zm0 6h-2a1 1 0 0 1 0-2h2a1 1 0 0 1 0 2Zm-8-2h2a1 1 0 0 1 0 2h-2a1 1 0 0 1 0-2Zm-1-11a1 1 0 0 1 1-1h2a1 1 0 0 1 0 2h-2a1 1 0 0 1-1-1Zm1 5h2a1 1 0 0 1 0 2h-2a1 1 0 0 1 0-2Zm8 14h-8a1 1 0 0 1 0-2h8a1 1 0 0 1 0 2ZM22 24h-2a1 1 0 0 1 0-2h2a1 1 0 0 1 0 2Zm0 6h-2a1 1 0 0 1 0-2h2a1 1 0 0 1 0 2Zm0 6h-2a1 1 0 0 1 0-2h2a1 1 0 0 1 0 2Zm0 6h-2a1 1 0 0 1 0-2h2a1 1 0 0 1 0 2Zm-6-18h-2a1 1 0 0 1 0-2h2a1 1 0 0 1 0 2Zm0 6h-2a1 1 0 0 1 0-2h2a1 1 0 0 1 0 2Zm0 6h-2a1 1 0 0 1 0-2h2a1 1 0 0 1 0 2Zm0 6h-2a1 1 0 0 1 0-2h2a1 1 0 0 1 0 2ZM38 0H10C8.346 0 7 1.346 7 3v42c0 1.656 1.346 3 3 3h28c1.654 0 3-1.344 3-3V3c0-1.654-1.346-3-3-3Z"/><path fill="#F52D2D" d="M32 8a1 1 0 0 0-1 1v2a1 1 0 0 0 2 0V9a1 1 0 0 0-1-1"/><g transform="translate(384 1)"><rect width="40" height="40" y="5" fill="#B5EDBD" rx="2"/><path fill="#1EC737" d="M45.256.446a1.997 1.997 0 0 0-2.812.3L18.84 30.014l-8.426-8.426a1.998 1.998 0 0 0-2.828 0 1.995 1.995 0 0 0 0 2.826l10 10.002a2.003 2.003 0 0 0 2.97-.158l25-31c.694-.86.56-2.12-.3-2.812"/></g><g transform="translate(336)"><circle cx="24" cy="24" r="24" fill="#FFE2A1"/><path fill="#FF9A1A" d="M41.8 27.341a1.499 1.499 0 0 1-1.3 2.252 1.5 1.5 0 0 1-1.298-.75l-1.034-1.788c-1.254 5.116-5.412 9.55-10.821 10.816a14.367 14.367 0 0 1-3.285.383c-3.704 0-7.286-1.448-10-4.133a1.5 1.5 0 1 1 2.108-2.133c2.778 2.745 6.698 3.855 10.491 2.963 4.476-1.049 7.874-4.81 8.704-9.06l-2.184 2.604a1.5 1.5 0 0 1-2.299-1.93l4.82-5.747a1.52 1.52 0 0 1 1.281-.53c.38.033.723.212.975.49.083.085.15.18.212.284l3.63 6.28Zm-24.677-6.504c.634.531.717 1.478.186 2.114l-4.818 5.748a1.502 1.502 0 0 1-1.268.532 1.498 1.498 0 0 1-1.167-.724l-3.842-6.392a1.502 1.502 0 0 1 .513-2.06 1.504 1.504 0 0 1 2.06.514l.849 1.416c.3-1.725.908-3.407 1.844-4.968 2.082-3.473 5.494-5.985 9.363-6.893a14.235 14.235 0 0 1 13.948 4.454 1.5 1.5 0 0 1-2.25 1.984 11.24 11.24 0 0 0-11.011-3.516c-3.086.722-5.81 2.732-7.476 5.513a11.317 11.317 0 0 0-1.628 5.547l2.585-3.083a1.499 1.499 0 0 1 2.112-.186Z"/></g><path fill="#FF8E8E" d="M148.612 25.661A13.468 13.468 0 0 1 144 15.5C144 8.044 150.044 2 157.5 2c4.24 0 8.025 1.956 10.5 5.014A13.474 13.474 0 0 1 178.5 2c7.456 0 13.5 6.044 13.5 13.5 0 3.993-1.734 7.581-4.49 10.053l-18.834 20.56a.895.895 0 0 1-1.35 0L148.611 25.66Z"/><path stroke="#F62C2C" stroke-linecap="round" stroke-linejoin="round" stroke-width="2" d="M154.5 23h6l4.5-10.5 4.5 22.5 6-12h6"/><g transform="translate(192 5)"><rect width="48" height="39" fill="#8EE39B" rx="2"/><path fill="#1EC737" d="m0 30 9.086-9.086a2 2 0 0 1 2.828 0L16.5 25.5l12.086-12.086a2 2 0 0 1 2.828 0L48 30v6a3 3 0 0 1-3 3H3a3 3 0 0 1-3-3v-6Z"/><circle cx="12" cy="10.5" r="4.5" fill="#FFF"/><path stroke="#8EE39B" stroke-linecap="round" stroke-linejoin="round" stroke-width="2" d="m16.5 24-8.25 8.25L16.5 24Z"/></g><g transform="translate(96 3)"><rect width="48" height="39" y="3" fill="#B2D3FF" rx="2"/><path fill="#197BFF" d="M2 0h18.172a2 2 0 0 1 1.414.586l1.828 1.828A2 2 0 0 0 24.828 3H45a3 3 0 0 1 3 3H24.828a2 2 0 0 0-1.414.586l-1.828 1.828A2 2 0 0 1 20.172 9H2a2 2 0 0 1-2-2V2a2 2 0 0 1 2-2Z"/></g></g></svg>