<svg width="32" height="41" viewBox="0 0 32 41" xmlns="http://www.w3.org/2000/svg" xmlns:xlink="http://www.w3.org/1999/xlink"><defs><path id="a" d="M0 .032h31.967V41H0V.032z"/></defs><g fill="none" fill-rule="evenodd"><g><mask id="b" fill="#fff"><use xlink:href="#a"/></mask><rect stroke="#FFF" stroke-width="2" mask="url(#b)" width="32" height="41" rx="6"/></g><path d="M9.844 32.633l.505-1.124.504 1.123h-1.01zm1.27-2.55a.77.77 0 0 0-.73-.46h-.072a.77.77 0 0 0-.73.465L7.695 34.2a.707.707 0 0 0-.06.29c0 .096.03.24.175.388.27.268.9.255 1.107-.192l.396-.88h2.074l.396.882c.11.24.323.376.584.376.277 0 .436-.102.522-.187a.544.544 0 0 0 .175-.387.7.7 0 0 0-.064-.292l-1.885-4.114zM15.294 30.85h.95c.238 0 .432.023.575.067.323.1.46.267.46.558 0 .18-.05.31-.163.41-.162.143-.456.215-.874.215h-.95v-1.25zm1.016-1.194h-1.684a.67.67 0 0 0-.473.186.587.587 0 0 0-.188.432v4.18a.58.58 0 0 0 .193.432.677.677 0 0 0 .468.178c.178 0 .34-.06.468-.174.13-.117.2-.268.2-.437v-1.158h1.016c.775 0 1.373-.196 1.776-.58.35-.322.525-.74.525-1.24s-.175-.917-.52-1.235c-.408-.387-1.007-.584-1.78-.584zM20.893 30.85h.95c.237 0 .43.023.575.067.324.1.462.267.462.558 0 .18-.052.31-.165.41-.162.143-.455.215-.873.215h-.95v-1.25zm1.016-1.194h-1.685a.668.668 0 0 0-.473.186.587.587 0 0 0-.188.432v4.18c0 .166.067.316.192.43a.675.675 0 0 0 .47.18c.177 0 .34-.06.466-.175.132-.117.2-.268.2-.438v-1.158h1.017c.773 0 1.372-.196 1.776-.58.348-.322.524-.738.524-1.24 0-.5-.176-.916-.52-1.235-.41-.387-1.008-.584-1.78-.584zM22.455 18.09a.762.762 0 0 0-.915 0l-5.125 4.13V11.406c0-.29-.29-.522-.648-.522-.358 0-.648.233-.648.522V22.22l-5.126-4.13a.762.762 0 0 0-.915 0c-.254.205-.254.535 0 .74l6.19 4.987a.732.732 0 0 0 .494.186h.004a.732.732 0 0 0 .494-.186l6.192-4.988c.254-.205.254-.535 0-.74" fill="#FFF"/></g></svg>