<svg width="16" height="8" viewBox="0 0 16 8" xmlns="http://www.w3.org/2000/svg" xmlns:xlink="http://www.w3.org/1999/xlink"><title>Group 6</title><defs><path id="a" d="M0 .99h15.984V17H0"/></defs><g transform="translate(0 -9)" fill="none" fill-rule="evenodd"><mask id="b" fill="#fff"><use xlink:href="#a"/></mask><path d="M14.985 9.006a1 1 0 0 0-1 1v1a.98.98 0 0 1-.998.977H3.41L4.703 10.7a.993.993 0 0 0 0-1.407 1 1 0 0 0-1.413.003l-2.998 3a1 1 0 0 0 0 1.413l2.997 2.993a.996.996 0 0 0 1.41 0c.39-.39.39-1.033 0-1.423l-1.29-1.3h9.574a2.983 2.983 0 0 0 2.997-2.977v-1a1 1 0 0 0-1-1" fill="#FFF" mask="url(#b)"/></g></svg>