<svg width="35" height="29" viewBox="0 0 35 29" xmlns="http://www.w3.org/2000/svg"><g fill="none" fill-rule="evenodd"><rect stroke="#FFF" stroke-width="2" y=".501" width="35" height="28.499" rx="5"/><path d="M1.03 6.757h32.94" stroke="#FFF" stroke-width="2" stroke-linecap="square"/><ellipse fill="#FFF" cx="30.26" cy="4.09" rx="1.094" ry="1.115"/><rect fill="#FFF" x="13.125" y="23.051" width="13.854" height="1.487" rx="5"/><path d="M8.458 23.435c-.156.156-.35.156-.506 0l-.544-.545c-.155-.156-.155-.35 0-.507l4.276-4.286-4.276-4.287c-.155-.156-.155-.35 0-.507l.544-.545c.156-.156.35-.156.506 0l5.053 5.066c.157.156.157.35 0 .506L8.46 23.435z" fill="#FFF"/></g></svg>