<svg width="16" height="16" viewBox="0 0 16 16" xmlns="http://www.w3.org/2000/svg" xmlns:xlink="http://www.w3.org/1999/xlink"><title>storage</title><defs><path id="a" d="M0 0h16v16H0V0z"/></defs><g fill-rule="evenodd"><path d="M6 8h4a1 1 0 0 0 0-2H6a1 1 0 0 0 0 2M6 5h4a1 1 0 0 0 0-2H6a1 1 0 0 0 0 2"/><g><mask id="b"><use xlink:href="#a"/></mask><path d="M14 14H2v-3h3a2 2 0 0 0 2 2h2a2 2 0 0 0 2-2h3v3zM3 2h10v7h-2a2 2 0 0 0-2 2H7a2 2 0 0 0-2-2H3V2zm12 7V1a1 1 0 0 0-1-1H2a1 1 0 0 0-1 1v8a1 1 0 0 0-1 1v5a1 1 0 0 0 1 1h14a1 1 0 0 0 1-1v-5a1 1 0 0 0-1-1z" mask="url(#b)"/></g></g></svg>