<svg width="20" height="36" viewBox="0 0 20 36" xmlns="http://www.w3.org/2000/svg" xmlns:xlink="http://www.w3.org/1999/xlink"><defs><path id="a" d="M0 .06h19.96v35.19H0V.06z"/></defs><g fill="none" fill-rule="evenodd"><mask id="b" fill="#fff"><use xlink:href="#a"/></mask><rect stroke="#FFF" stroke-width="2" mask="url(#b)" width="20" height="35.25" rx="4"/><path d="M15.727 12.776c0-.38-.306-.69-.683-.69h-2.5c-.02 0-.035.003-.054.005l-.046.006a.686.686 0 0 0-.583.68v2.53c0 .38.307.69.684.69a.686.686 0 0 0 .682-.69v-.727c.31.565.483 1.204.483 1.864 0 2.13-1.715 3.863-3.82 3.863a3.85 3.85 0 0 1-.184-.005.69.69 0 0 0-.714.66.687.687 0 0 0 .65.72c.083.004.166.006.25.006 2.857 0 5.184-2.352 5.184-5.243 0-1.073-.335-2.11-.926-2.978h.897c.376 0 .682-.31.682-.69m-8.31 4.236a.686.686 0 0 0-.683.69v.92a3.88 3.88 0 0 1-.67-2.18c0-2.13 1.714-3.864 3.822-3.864.142 0 .287.007.43.024a.684.684 0 0 0 .755-.61.686.686 0 0 0-.602-.76 5.068 5.068 0 0 0-.586-.035c-2.86 0-5.185 2.35-5.185 5.243 0 1.133.36 2.212 1.003 3.1h-.79a.686.686 0 0 0-.68.69c0 .38.304.69.68.69H7.29c.043.007.084.017.126.017a.68.68 0 0 0 .682-.68l.002-.027v-2.53c0-.38-.307-.69-.682-.69" fill="#FFF" mask="url(#b)"/><ellipse fill="#FFF" mask="url(#b)" cx="10.37" cy="30" rx="1.481" ry="1.5"/></g></svg>