<svg width="16" height="16" viewBox="0 0 16 16" xmlns="http://www.w3.org/2000/svg" xmlns:xlink="http://www.w3.org/1999/xlink"><title>write</title><defs><path id="a" d="M0 0h16v16H0"/></defs><g fill-rule="evenodd"><path d="M15 0a1 1 0 1 0 0 2 1 1 0 0 0 0-2"/><g><mask id="b"><use xlink:href="#a"/></mask><path d="M12.293 2.207l-8.336 8.336a1 1 0 1 0 1.414 1.414L11 6.327V14H2V4h5a1 1 0 0 0 0-2H1.083C.485 2 0 2.485 0 3.083v11.834C0 15.515.485 16 1.083 16h10.834c.598 0 1.083-.485 1.083-1.083V4.327l.707-.706a1 1 0 1 0-1.414-1.413" mask="url(#b)"/></g></g></svg>