<svg width="40" height="29" viewBox="0 0 40 29" xmlns="http://www.w3.org/2000/svg" xmlns:xlink="http://www.w3.org/1999/xlink"><defs><path id="a" d="M0 .062h39.942V31.2H0"/></defs><g fill="none" fill-rule="evenodd"><rect stroke="#FFF" stroke-width="2" width="39.184" height="25.74" rx="4"/><path d="M27.72 27.3H11.446c-.48 0-.914.167-.914.39v.78c0 .204.393.39.915.39h16.32c.478 0 .913-.167.913-.39v-.78c-.044-.204-.435-.39-.957-.39M6.375 14.278v4.448c0 .734.61 1.33 1.36 1.33.75 0 1.358-.596 1.358-1.33v-4.448c0-.734-.61-1.33-1.36-1.33-.75 0-1.358.596-1.358 1.33M10.92 12.49v6.236c0 .734.61 1.33 1.36 1.33.75 0 1.36-.596 1.36-1.33V12.49c0-.734-.61-1.33-1.36-1.33-.75 0-1.36.596-1.36 1.33M15.468 10.7v8.026c0 .734.61 1.33 1.36 1.33.75 0 1.358-.596 1.358-1.33V10.7c0-.733-.61-1.33-1.36-1.33-.75 0-1.358.597-1.358 1.33" fill="#FFF"/><mask id="b" fill="#fff"><use xlink:href="#a"/></mask><path d="M32.744 19.277c-1.17 1.146-2.765 1.788-4.453 1.788-1.686 0-3.28-.642-4.45-1.788a6.072 6.072 0 0 1-1.83-4.357c0-1.65.657-3.21 1.83-4.356 1.17-1.147 2.764-1.79 4.45-1.79 1.69 0 3.283.643 4.454 1.79a6.07 6.07 0 0 1 1.828 4.356c0 1.65-.656 3.21-1.828 4.357zm2.53 1.375c-.186-.183-.42-.23-.655-.23l-.376-.366a7.66 7.66 0 0 0 1.97-5.136c0-2.063-.845-4.035-2.345-5.503a8.038 8.038 0 0 0-5.625-2.293c-2.11 0-4.125.826-5.625 2.293-1.5 1.468-2.344 3.394-2.344 5.503 0 2.11.844 4.036 2.344 5.503a7.956 7.956 0 0 0 5.625 2.293 8.03 8.03 0 0 0 5.25-1.926l.374.367c-.048.23.046.46.234.642l2.718 2.66c.14.136.375.228.563.228a.875.875 0 0 0 .562-.23.79.79 0 0 0 0-1.146l-2.672-2.66z" fill="#FFF" mask="url(#b)"/></g></svg>