<svg width="16" height="16" viewBox="0 0 16 16" xmlns="http://www.w3.org/2000/svg" xmlns:xlink="http://www.w3.org/1999/xlink"><defs><path id="a" d="M0 .136h15.83V16H0"/><path id="c" d="M0 .136h15.83V16H0"/></defs><g fill="none" fill-rule="evenodd"><path d="M4.486 4.498a.977.977 0 0 0-1.4 0L.29 7.354a1.027 1.027 0 0 0 0 1.428l2.797 2.856a.977.977 0 0 0 1.4 0 1.027 1.027 0 0 0 0-1.428l-2.1-2.142 2.1-2.142a1.027 1.027 0 0 0 0-1.428" fill="#FFF"/><mask id="b" fill="#fff"><use xlink:href="#a"/></mask><path d="M15.54 7.354l-2.797-2.856a.977.977 0 0 0-1.4 0 1.027 1.027 0 0 0 0 1.428l2.098 2.142-2.095 2.142a1.027 1.027 0 0 0 0 1.428.977.977 0 0 0 1.4 0l2.796-2.856a1.027 1.027 0 0 0 0-1.428" fill="#FFF" mask="url(#b)"/><g><mask id="d" fill="#fff"><use xlink:href="#c"/></mask><path d="M9.06.15L9.027.145a.978.978 0 0 0-1.102.833L5.932 14.87a.985.985 0 0 0 .824 1.115l.032.005a.978.978 0 0 0 1.103-.832L9.885 1.264A.985.985 0 0 0 9.06.15" fill="#FFF" mask="url(#d)"/></g></g></svg>