<svg width="16" height="16" viewBox="0 0 16 16" xmlns="http://www.w3.org/2000/svg" xmlns:xlink="http://www.w3.org/1999/xlink"><defs><path id="a" d="M0 .008h16V16H0V.008z"/></defs><g fill="none" fill-rule="evenodd"><mask id="b" fill="#fff"><use xlink:href="#a"/></mask><path d="M14 11.667l-5 1.88V4.345l5-1.883v9.207zM2 2.46l5 1.884v9.204l-5-1.88V2.46zM15 .008a1 1 0 0 0-.35.065L8 2.577 1.35.072A1 1 0 0 0 1 .007c-.53 0-1 .43-1 1.005v11.35c0 .42.26.794.65.94l7 2.634a.986.986 0 0 0 .7 0l7-2.633c.39-.147.65-.522.65-.94V1.013c0-.576-.47-1.006-1-1.006z" fill="#FFF" mask="url(#b)"/></g></svg>