<svg width="16" height="16" viewBox="0 0 16 16" xmlns="http://www.w3.org/2000/svg" xmlns:xlink="http://www.w3.org/1999/xlink"><defs><path id="a" d="M0 .998h15.988V17H0V.998z"/></defs><g transform="translate(0 -1)" fill="none" fill-rule="evenodd"><mask id="b" fill="#fff"><use xlink:href="#a"/></mask><path d="M3.83 4.938l4.173-1.785 4.165 1.865L8.01 6.734 3.83 4.938zm11.523 3.278L12.727 7.04l2.59-1.07c.88-.36.9-1.428.036-1.814L8.56 1.113a1.356 1.356 0 0 0-1.072-.008L.655 4.027c-.872.374-.873 1.443 0 1.817L7.47 8.772c.327.14.71.143 1.04.007l1.555-.643 2.1.94-4.156 1.716-4.18-1.796 2.085-.892L3.27 6.97.655 8.087c-.872.373-.873 1.442 0 1.816l6.817 2.93c.327.14.71.14 1.04.005l1.555-.642 2.1.94-4.156 1.716-4.18-1.795 2.087-.894L3.27 11.03.655 12.148c-.872.373-.873 1.442 0 1.817l6.817 2.928c.327.14.71.143 1.04.007l6.807-2.81c.875-.36.895-1.427.032-1.814L12.727 11.1l2.592-1.07c.875-.36.895-1.427.032-1.814z" fill="#FFF" mask="url(#b)"/></g></svg>