<svg width="16" height="16" viewBox="0 0 16 16" xmlns="http://www.w3.org/2000/svg" xmlns:xlink="http://www.w3.org/1999/xlink"><defs><path id="a" d="M0 0h16v16H0V0z"/></defs><g fill-rule="evenodd"><path d="M7 9.234V6.766L9.057 8 7 9.234zm4.515-2.09l-5-3A1 1 0 0 0 5 5v6a1 1 0 0 0 1.515.858l5-3a1 1 0 0 0 0-1.715z"/><g><mask id="b"><use xlink:href="#a"/></mask><path d="M14 12c0 1.103-.897 2-2 2H4c-1.103 0-2-.897-2-2V4c0-1.103.897-2 2-2h8c1.103 0 2 .897 2 2v8zM12 0H4a4 4 0 0 0-4 4v8a4 4 0 0 0 4 4h8a4 4 0 0 0 4-4V4a4 4 0 0 0-4-4z" mask="url(#b)"/></g></g></svg>