<svg width="41" height="41" viewBox="0 0 41 41" xmlns="http://www.w3.org/2000/svg" xmlns:xlink="http://www.w3.org/1999/xlink"><defs><path id="a" d="M0 .02h40.98V41H0V.02z"/></defs><g fill-rule="evenodd"><g><mask id="b"><use xlink:href="#a"/></mask><path d="M38.86 24.152H2V3.555c0-.904.63-1.536 1.528-1.536h33.76c.943 0 1.528.63 1.528 1.535v20.597h.045zm.3 4.225c0 .84-.638 1.24-1.55 1.24H3.37c-.91 0-1.55-.4-1.55-1.24V26.02h37.34v2.357zm-10.473 9.936c.728.365 1.138.638 1.184.73v.136H11.93c-.5 0-.73.044-.865 0v-.092c.09-.092.5-.41 1.23-.775 2.822-.956 3.824-2.732 4.598-6.83h7.15c.82 4.053 1.82 5.83 4.644 6.83zM37.61.02H3.37A3.362 3.362 0 0 0 0 3.387v24.817c0 1.867 1.503 3.233 3.37 3.233h11.793c-.774 3.643-1.594 4.644-3.506 5.282-1.73.865-2.277 1.32-2.277 2.595 0 .774.455 1.685 2.55 1.685h17.12c2.14 0 2.55-.91 2.55-1.685 0-1.23-.5-1.685-2.23-2.55l-.046-.045c-1.912-.638-2.732-1.64-3.506-5.282H37.61c1.868 0 3.37-1.32 3.37-3.233V3.388a3.362 3.362 0 0 0-3.37-3.37z" mask="url(#b)"/></g><path d="M20.08 26.52a1.275 1.275 0 1 1 0 2.55 1.275 1.275 0 0 1 0-2.55"/></g></svg>