<svg width="16" height="16" viewBox="0 0 16 16" xmlns="http://www.w3.org/2000/svg" xmlns:xlink="http://www.w3.org/1999/xlink"><defs><path id="a" d="M0 0h15.997v16H0"/></defs><g fill="none" fill-rule="evenodd"><path d="M2 12a1 1 0 0 0-1 1v2a1 1 0 0 0 2 0v-2a1 1 0 0 0-1-1m4-1a1 1 0 0 0-1 1v3a1 1 0 0 0 2 0v-3a1 1 0 0 0-1-1m7.998-3a1 1 0 0 0-1 1v6a1 1 0 0 0 2 0V9a1 1 0 0 0-1-1" fill="#5AA885"/><mask id="b" fill="#fff"><use xlink:href="#a"/></mask><path d="M14.998 0h-4a1 1 0 0 0 0 2h1.753C8.13 7.91 1.14 8 1.007 8H1a1 1 0 0 0-.005 2h.014c.485 0 7.81-.108 12.987-6.358V5a1 1 0 0 0 2 0V1a1 1 0 0 0-1-1" fill="#5AA885" mask="url(#b)"/><path d="M9.998 9a1 1 0 0 0-1 1v5a1 1 0 0 0 2 0v-5a1 1 0 0 0-1-1" fill="#5AA885"/></g></svg>