<svg width="17" height="18" viewBox="0 0 17 18" xmlns="http://www.w3.org/2000/svg"><path d="M1.213 2.83C.543 2.83 0 3.376 0 4.045v12.743C0 17.458.542 18 1.213 18h14.562c.67 0 1.214-.544 1.214-1.213V4.044c0-.67-.545-1.213-1.216-1.213H14.56v.61s-.02 1.84-1.82 1.84c0 0-1.82-.02-1.82-1.82l-.02-.628H6.05v.608s.017 1.84-1.803 1.84c0 0-1.84.018-1.84-1.82v-.63H1.214zm1.715 1.563A.928.928 0 0 0 2 5.32v9.752c0 .512.415.928.928.928H14.07a.93.93 0 0 0 .93-.928v-9.75a.93.93 0 0 0-.93-.93h-.928v.466s-.014 1.407-1.393 1.407c0 0-1.394-.014-1.394-1.393l-.015-.48H6.63v.466s.014 1.407-1.38 1.407c0 0-1.406.014-1.406-1.393v-.48h-.914zM8.493 9.71h2.145c-.486.6-.84 1.07-1.062 1.6-.225.527-.39 1.268-.494 2.048h1.325c.043-.56.127-1.133.253-1.544.16-.528.204-.818.48-1.247.224-.355.65-.627.988-.93V8.492H8.493V9.71zM5.596 8.492c-.142.3-.34.457-.588.66-.25.207-.31.267-.76.526v1.088c.343-.207.473-.293.473-.293s.516-.236.73-.4v3.27h1.2v-4.85H5.596zM12.536 0c.672 0 1.216.544 1.216 1.213v1.215a1.214 1.214 0 0 1-2.428 0V1.213c0-.67.544-1.213 1.213-1.213zm-8.49 0c.67 0 1.214.544 1.214 1.213v1.215a1.214 1.214 0 0 1-2.43 0V1.213C2.83.543 3.376 0 4.045 0z" fill="none"/></svg>