<svg width="50" height="35" viewBox="0 0 50 35" xmlns="http://www.w3.org/2000/svg" xmlns:xlink="http://www.w3.org/1999/xlink"><defs><path id="a" d="M0 .072h14.845V15.96H0V.07z"/><path id="c" d="M0 .07h16.908V19H0"/></defs><g fill="none" fill-rule="evenodd"><rect stroke="#FFF" stroke-width="2" y="6" width="41" height="29" rx="5"/><path d="M21.422 13.725c-1.96 0-3.552 1.6-3.552 3.572s1.59 3.572 3.552 3.572 3.553-1.6 3.553-3.573c0-1.973-1.59-3.572-3.553-3.572m0 8.69c-2.81 0-5.142-2.293-5.142-5.17 0-2.88 2.28-5.173 5.142-5.173 2.81 0 5.143 2.293 5.143 5.172 0 2.878-2.333 5.17-5.143 5.17" fill="#FFF"/><g transform="translate(14 12)"><mask id="b" fill="#fff"><use xlink:href="#a"/></mask><path d="M1.644 14.36h11.504c-.477-2.186-2.863-3.84-5.78-3.84-2.81 0-5.247 1.707-5.724 3.84zm13.2 1.6H0v-.8C0 11.693 3.34 8.92 7.422 8.92c4.083 0 7.423 2.826 7.423 6.237v.8z" fill="#FFF" mask="url(#b)"/></g><g><path d="M34.11 19a1.09 1.09 0 0 1-1.093-1.27C35.262 4.87 48.806 6.45 48.942 6.466c.607.078 1.034.624.955 1.22a1.1 1.1 0 0 1-1.24.937c-.472-.057-11.573-1.312-13.458 9.472a1.1 1.1 0 0 1-1.09.904" fill="#FFF"/><g transform="translate(33)"><mask id="d" fill="#fff"><use xlink:href="#c"/></mask><path d="M15.8 8.633c-.317 0-.632-.133-.852-.392L9.532 1.853a1.074 1.074 0 0 1 .142-1.53c.47-.386 1.17-.322 1.56.14l5.417 6.387c.392.46.328 1.147-.142 1.53-.206.17-.458.253-.707.253" fill="#FFF" mask="url(#d)"/></g><path d="M43.383 15.02c-.25 0-.5-.082-.708-.25a1.073 1.073 0 0 1-.143-1.532L47.95 6.85a1.122 1.122 0 0 1 1.56-.14c.47.384.533 1.07.142 1.53l-5.417 6.39c-.22.257-.535.39-.852.39" fill="#FFF"/></g></g></svg>