<svg width="43" height="39" viewBox="0 0 43 39" xmlns="http://www.w3.org/2000/svg" xmlns:xlink="http://www.w3.org/1999/xlink"><defs><path id="a" d="M0 .002h42.948V39H0"/></defs><g fill="none" fill-rule="evenodd"><path d="M42.216 9.326c-.404 0-.733.374-.733.836v23.69c0 .145-.036 3.475-3.04 3.475H4.504c-.125 0-3.036-.042-3.036-3.475v-23.69c0-.462-.334-.836-.738-.836-.404 0-.732.374-.732.836v23.69C0 37.928 2.947 39 4.505 39h33.937c3.562 0 4.506-3.366 4.506-5.148v-23.69c0-.462-.328-.836-.732-.836" fill="#FFF"/><rect stroke="#FFF" stroke-width="2" y="4.239" width="43" height="34.761" rx="5"/><path d="M1.265 11.87h40.47" stroke="#FFF" stroke-width="2" stroke-linecap="square"/><path d="M15.084 27.006c0 .407.328.734.732.734h3.773a.73.73 0 0 0 0-1.462h-2.763c.323-.502.88-1.056 1.397-1.57 1.03-1.028 2.097-2.09 2.097-3.332 0-1.914-1.566-2.607-2.618-2.607-1.05 0-2.62.692-2.62 2.606a.735.735 0 0 0 1.47 0c0-1.015.81-1.14 1.15-1.145.194 0 1.15.056 1.15 1.146 0 .635-.885 1.52-1.666 2.3-1.033 1.028-2.102 2.092-2.102 3.33M13.198 30.763c0 .402.328.728.732.728h15.083c.41 0 .738-.325.738-.727 0-.403-.328-.73-.737-.73H13.93a.73.73 0 0 0-.732.73M25.245 20.23c1.02 0 1.145.807 1.154 1.142-.01.344-.136 1.153-1.155 1.153-1.02 0-1.146-.81-1.155-1.14.01-.348.135-1.154 1.155-1.154m0 6.048c-1.02 0-1.146-.805-1.155-1.14.01-.345.135-1.154 1.155-1.154s1.145.81 1.154 1.14c-.01.35-.136 1.154-1.155 1.154m0 1.462c1.923 0 2.62-1.56 2.62-2.607 0-.588-.22-1.336-.75-1.88.53-.543.75-1.29.75-1.877 0-1.046-.697-2.607-2.62-2.607s-2.62 1.56-2.62 2.606c0 .586.22 1.333.75 1.878-.53.543-.75 1.29-.75 1.88.002 1.045.697 2.606 2.62 2.606" fill="#FFF"/><mask id="b" fill="#fff"><use xlink:href="#a"/></mask><path d="M38.442 3.753H35.37c-.112-1.292-.592-3.75-2.583-3.75-1.99 0-2.47 2.458-2.583 3.75h-2.376c-.113-1.292-.592-3.75-2.583-3.75-1.99 0-2.47 2.458-2.583 3.75h-2.376c-.112-1.292-.593-3.75-2.584-3.75-1.99 0-2.47 2.458-2.582 3.75h-2.376C12.63 2.46 12.15.003 10.16.003c-1.99 0-2.47 2.458-2.582 3.75H4.505C2.947 3.753 0 4.693 0 8.238v1.88a.734.734 0 0 0 1.47 0v-1.88c0-2.915 2.726-3.022 3.035-3.022h3.77a.73.73 0 0 0 .73-.73c.006-1.055.347-3.027 1.156-3.027.81 0 1.15 1.97 1.156 3.022 0 .402.327.734.732.734h3.77a.738.738 0 0 0 .735-.73c0-1.055.34-3.027 1.15-3.027.808 0 1.15 1.97 1.15 3.022a.74.74 0 0 0 .736.734h3.768a.73.73 0 0 0 .732-.73c.006-1.055.347-3.027 1.155-3.027.81 0 1.15 1.97 1.154 3.022 0 .402.327.734.732.734H30.9a.738.738 0 0 0 .736-.73c0-1.055.342-3.027 1.15-3.027.81 0 1.15 1.97 1.15 3.022a.74.74 0 0 0 .737.734h3.77c.125 0 3.04.03 3.04 3.022v1.88c0 .4.33.727.732.727a.73.73 0 0 0 .733-.728v-1.88c0-3.545-2.946-4.484-4.506-4.484" fill="#FFF" mask="url(#b)"/></g></svg>