<svg width="18" height="16" viewBox="0 0 18 16" xmlns="http://www.w3.org/2000/svg"><g fill-rule="evenodd"><path d="M11.25 13.714c0-1.26 1.01-2.285 2.25-2.285s2.25 1.024 2.25 2.284h-4.5zm-9 0c0-1.89 1.514-3.428 3.375-3.428 1.86 0 3.375 1.538 3.375 3.428H2.25zM5.625 2.286c1.24 0 2.25 1.025 2.25 2.285 0 1.26-1.01 2.287-2.25 2.287S3.375 5.83 3.375 4.57s1.01-2.284 2.25-2.284zm8.73 6.938c-1.59-.303-3.067.263-4.068 1.304A5.696 5.696 0 0 0 7.9 8.494a4.572 4.572 0 0 0 2.225-3.923c0-2.52-2.018-4.57-4.5-4.57s-4.5 2.05-4.5 4.57c0 1.683.908 3.14 2.24 3.932C1.34 9.43 0 11.572 0 13.915 0 15.065.92 16 2.052 16h13.896C17.08 16 18 15.066 18 13.915v-.017c0-2.228-1.49-4.263-3.646-4.674z"/><path d="M13.5 9.143c1.242 0 2.25-1.023 2.25-2.286 0-1.263-1.008-2.286-2.25-2.286-1.243 0-2.25 1.024-2.25 2.287s1.007 2.286 2.25 2.286"/></g></svg>