<svg width="35" height="28" viewBox="0 0 35 28" xmlns="http://www.w3.org/2000/svg" xmlns:xlink="http://www.w3.org/1999/xlink"><defs><path id="a" d="M.59.212H36V29H.59V.212z"/></defs><g transform="translate(0 -1)" fill="none" fill-rule="evenodd"><mask id="b" fill="#fff"><use xlink:href="#a"/></mask><path d="M30.798 5.72l-.63-.605c-.212.2-.422.403-.633.604-.18.17-.458-.095-.278-.267l.63-.605-.63-.604c-.18-.172.098-.438.278-.266l.632.604.63-.604c.18-.172.46.094.28.266l-.632.604.63.605c.18.172-.098.438-.277.266zm1.983 1.115v.072H2.2V5.85c0-1.442 1.203-2.622 2.75-2.746.286-.023.58-.006.867-.006H29.82c1.624.043 2.96 1.216 2.96 2.742v.995zm0 5.886V24.3c0 .628-.047 1.207-.37 1.785-.527.94-1.606 1.427-2.703 1.427H6.62c-1.49 0-2.947.072-3.912-1.27-.71-.99-.47-2.547-.47-3.684V8.434H32.78v4.287zm.73-9.564c-.8-1.006-2.027-1.537-3.332-1.573H7.128c-1.03 0-2.093-.07-3.115.072-1.628.226-2.9 1.538-3.307 3.006C.57 5.153.59 5.666.59 6.168V24.962c0 1.526.92 2.893 2.32 3.595 1.115.56 2.46.428 3.682.428h23.542c2.426 0 4.25-1.89 4.25-4.167V7.322c.002-1.472.124-2.91-.874-4.167zM12.863 4.848c0 .512-.433.927-.968.927-.535 0-.968-.415-.968-.927 0-.51.433-.926.968-.926.535 0 .968.415.968.926zm18.213.604c.18.173-.1.44-.278.267l-.63-.605c-.212.2-.422.403-.633.604-.18.17-.458-.095-.278-.268l.63-.604-.63-.604c-.18-.172.098-.44.278-.267.21.202.42.403.632.604.21-.2.42-.4.63-.603.18-.172.46.095.28.267-.212.2-.422.402-.632.604l.63.604zM6.36 4.848c0 .512-.433.927-.968.927-.535 0-.968-.415-.968-.927 0-.51.433-.926.968-.926.535 0 .967.415.967.926zm2.283-.926c-.534 0-.968.415-.968.926 0 .512.434.927.968.927.535 0 .968-.415.968-.927 0-.51-.432-.926-.967-.926z" fill="#FFF" mask="url(#b)"/><path d="M21.054 13.53a.203.203 0 0 0 .07.278c1.003.73 1.672 1.91 1.672 3.23 0 .104 0 .225-.018.33-.018.103.07.208.176.225l1.74.33c.125.017.248-.052.248-.174.035-.227.035-.47.035-.713 0-2.117-1.073-3.975-2.727-5.086-.105-.068-.246-.034-.3.07l-.896 1.51zM19.334 21.53c-.545.19-1.143.26-1.76.208-1.952-.19-3.517-1.806-3.623-3.75-.14-2.31 1.725-4.218 4.047-4.218.51 0 .985.086 1.443.26.105.035.21 0 .264-.087l.897-1.51c.07-.104.018-.243-.087-.295a6.514 6.514 0 0 0-2.973-.504c-3.08.21-5.56 2.656-5.77 5.694-.246 3.594 2.64 6.597 6.227 6.597a6.45 6.45 0 0 0 2.393-.47.213.213 0 0 0 .105-.294l-.88-1.526c-.07-.087-.175-.14-.28-.105" fill="#FFF" mask="url(#b)"/><path d="M21.797 19.134c-.28.78-.827 1.44-1.495 1.91-.088.07-.123.19-.07.277l.88 1.51c.052.105.192.14.298.07a6.26 6.26 0 0 0 2.55-3.315c.036-.12-.034-.243-.158-.26l-1.76-.33c-.104-.017-.192.035-.245.14" fill="#FFF" mask="url(#b)"/></g></svg>