<svg width="37" height="37" viewBox="0 0 37 37" xmlns="http://www.w3.org/2000/svg" xmlns:xlink="http://www.w3.org/1999/xlink"><defs><path id="a" d="M0 .044h36.952V37H0V.044z"/></defs><g fill-rule="evenodd"><g><mask id="b"><use xlink:href="#a"/></mask><path d="M34.963 28.763a1.47 1.47 0 0 1-1.463 1.47h-2.092V8.32a2.9 2.9 0 0 0-2.887-2.905H6.935v-1.9c0-.81.656-1.47 1.463-1.47H33.5c.807 0 1.463.66 1.463 1.47v25.248zm-6.217 6.514h-25.9a1.26 1.26 0 0 1-1.254-1.26v-6.06l6.872-5.913 13.542 9.037a.835.835 0 0 0 1.16-.236.844.844 0 0 0-.236-1.165l-2.026-1.353 4.92-3.756 3.91 2.623a.814.814 0 0 0 .266.114v6.71a1.26 1.26 0 0 1-1.254 1.26zM2.906 7.044H28.46c.682 0 1.237.558 1.237 1.244v17.15l-3.694-2.477a.82.82 0 0 0-.956.03l-5.74 4.382c-.013.01-.023.023-.036.034l-10.428-6.96a.823.823 0 0 0-.992.06l-6.18 5.32V8.288c0-.686.554-1.244 1.236-1.244zm30.898-7H8.414c-1.736 0-3.15 1.42-3.15 3.167v1.922H2.92A2.932 2.932 0 0 0 0 8.07v25.993C0 35.683 1.31 37 2.92 37h25.847c1.61 0 2.92-1.318 2.92-2.937v-2.15h2.117c1.736 0 3.148-1.42 3.148-3.167V3.21c0-1.746-1.412-3.166-3.148-3.166z" mask="url(#b)"/></g><path d="M19.855 12.577A2.958 2.958 0 0 1 22.8 15.54a2.957 2.957 0 0 1-2.945 2.962 2.957 2.957 0 0 1-2.946-2.963 2.958 2.958 0 0 1 2.945-2.963m0 7.603c2.545 0 4.614-2.082 4.614-4.64 0-2.56-2.07-4.642-4.615-4.642-2.544 0-4.615 2.082-4.615 4.64 0 2.56 2.07 4.642 4.615 4.642" /></g></svg>