<svg width="14" height="16" viewBox="0 0 14 16" xmlns="http://www.w3.org/2000/svg"><path d="M2.013 14.004c-.024-.02-.012-.04-.005-.053C3.148 11.997 4.826 11 6.995 11c2.178 0 3.855.993 4.977 3l-9.96.004zM6.995 2a3.002 3.002 0 0 1 2.998 3c0 1.654-1.345 3-2.998 3a3.002 3.002 0 0 1-2.998-3c0-1.655 1.345-3 2.998-3zm6.717 10.95c-.95-1.643-2.37-2.98-4.32-3.59 1.543-.85 2.6-2.473 2.6-4.36a4.998 4.998 0 0 0-9.994 0c0 1.89 1.06 3.513 2.604 4.363-1.936.61-3.366 1.94-4.32 3.58C-.51 14.3.45 16 2.016 16h9.955c1.566 0 2.525-1.696 1.74-3.05z" fill-rule="evenodd"/></svg>