<svg width="35" height="30" viewBox="0 0 35 30" xmlns="http://www.w3.org/2000/svg" xmlns:xlink="http://www.w3.org/1999/xlink"><defs><path id="a" d="M0 .05h34.713V30H0V.05z"/></defs><g fill="none" fill-rule="evenodd"><mask id="b" fill="#fff"><use xlink:href="#a"/></mask><path d="M33.352 22.615c0 3.18-2.722 5.77-6.067 5.77H7.735c-3.347 0-6.068-2.59-6.068-5.77V20.05h31.685v2.565zM7.734 1.717h19.55c3.346 0 6.068 2.33 6.068 5.193v2.308H1.667V6.91c0-2.863 2.72-5.193 6.067-5.193zm-6.067 9.225h31.685v7.5H1.667v-7.5zM27.227.052H7.486C3.357.05 0 3.41 0 7.537v14.975C0 26.64 3.358 30 7.487 30h19.74c4.127 0 7.486-3.36 7.486-7.487V7.538c0-4.128-3.36-7.487-7.487-7.487z" fill="#FFF" mask="url(#b)"/><path d="M5.92 5.27a.773.773 0 0 1 0 1.544.773.773 0 0 1 0-1.544m0 2.224a1.453 1.453 0 1 0 0-2.905 1.453 1.453 0 0 0 0 2.904M9.324 7.494a1.452 1.452 0 1 0 0-2.905 1.452 1.452 0 0 0 0 2.904M12.727 7.494a1.452 1.452 0 1 0 0-2.905 1.452 1.452 0 0 0 0 2.904M5.92 15.663a.772.772 0 1 1 0-1.543.772.772 0 0 1 0 1.543m0-2.225a1.453 1.453 0 1 0 0 2.906 1.453 1.453 0 0 0 0-2.906M9.324 15.663a.772.772 0 1 1 0-1.543.772.772 0 0 1 0 1.543m0-2.225a1.453 1.453 0 1 0 0 2.906 1.453 1.453 0 0 0 0-2.906M12.727 15.663a.772.772 0 1 1 0-1.543.772.772 0 0 1 0 1.543m0-2.225a1.453 1.453 0 1 0 0 2.906 1.453 1.453 0 0 0 0-2.906M5.92 22.967a.773.773 0 0 1 0 1.543.772.772 0 0 1 0-1.543m0 2.224a1.453 1.453 0 1 0 0-2.905 1.453 1.453 0 0 0 0 2.906M9.324 25.191a1.453 1.453 0 1 0-.002-2.904 1.453 1.453 0 0 0 .002 2.905M12.727 25.191a1.453 1.453 0 1 0-.002-2.904 1.453 1.453 0 0 0 .002 2.905" fill="#FFF" mask="url(#b)"/></g></svg>