<svg width="16" height="16" viewBox="0 0 16 16" xmlns="http://www.w3.org/2000/svg" xmlns:xlink="http://www.w3.org/1999/xlink"><defs><path id="a" d="M0 0h16v16H0V0z"/></defs><g fill-rule="evenodd"><mask id="b" fill="#fff"><use xlink:href="#a"/></mask><path d="M2 14V7h2.14C4.06 7.32 4 7.653 4 8a4 4 0 0 0 8 0c0-.347-.058-.68-.14-1H14v7H2zm6-8c1.103 0 2 .897 2 2s-.897 2-2 2-2-.897-2-2 .897-2 2-2zm6-4v3h-3.38A3.965 3.965 0 0 0 8 4a3.968 3.968 0 0 0-2.62 1H2V2h12zm0-2H2a2 2 0 0 0-2 2v12a2 2 0 0 0 2 2h12a2 2 0 0 0 2-2V2a2 2 0 0 0-2-2z" fill="#FA915D" mask="url(#b)"/></g></svg>