<svg width="16" height="16" viewBox="0 0 16 16" xmlns="http://www.w3.org/2000/svg" xmlns:xlink="http://www.w3.org/1999/xlink"><defs><path id="a" d="M0 .99h15.984V17H0"/><path id="c" d="M0 .99h15.984V17H0"/></defs><g fill="none" fill-rule="evenodd"><g transform="translate(0 -1)"><mask id="b" fill="#fff"><use xlink:href="#a"/></mask><path d="M1 8.985a1 1 0 0 0 .998-1v-1a1 1 0 0 1 1-.998h9.575l-1.29 1.292a1 1 0 0 0 1.41 1.41l3-3a1 1 0 0 0 0-1.412l-3-2.998a.998.998 0 0 0-1.41 1.413l1.29 1.292H2.997a3 3 0 0 0-2.997 3v1a1 1 0 0 0 1 1" fill="#FFF" mask="url(#b)"/></g><g transform="translate(0 -1)"><mask id="d" fill="#fff"><use xlink:href="#c"/></mask><path d="M14.985 9.006a1 1 0 0 0-1 1v1a.98.98 0 0 1-.998.977H3.41L4.703 10.7a.993.993 0 0 0 0-1.407 1 1 0 0 0-1.413.003l-2.998 3a1 1 0 0 0 0 1.413l2.997 2.994a.996.996 0 0 0 1.41 0c.39-.39.39-1.033 0-1.423l-1.29-1.3h9.575a2.983 2.983 0 0 0 2.997-2.977v-1a1 1 0 0 0-1-1" fill="#FFF" mask="url(#d)"/></g></g></svg>