<svg width="35" height="35" viewBox="0 0 35 35" xmlns="http://www.w3.org/2000/svg" xmlns:xlink="http://www.w3.org/1999/xlink"><defs><path id="a" d="M0 .003h34.958V35H0"/></defs><g fill="none" fill-rule="evenodd"><path d="M1.628 34.1a.726.726 0 0 1-.563-.268.725.725 0 0 1 .1-1.023l15.85-13.02a.73.73 0 0 1 .926 0l15.794 12.956a.73.73 0 0 1-.927 1.124L17.48 21.296 2.09 33.936a.723.723 0 0 1-.462.164z" fill="#FFF"/><path d="M1.457 11.322v20.035c0 1.203.98 2.185 2.184 2.185h27.677a2.188 2.188 0 0 0 2.185-2.185V11.322l-10.37-8.06c-1.494-1.162-3.503-1.8-5.65-1.8-2.15 0-4.155.638-5.65 1.8L1.457 11.32zM31.317 35H3.64A3.647 3.647 0 0 1 0 31.36V10.966c0-.225.103-.437.28-.577l10.656-8.28C12.686.75 15.008.003 17.48.003c2.468 0 4.792.75 6.542 2.106l10.653 8.278c.175.14.278.35.278.577v20.392A3.64 3.64 0 0 1 31.316 35z" fill="#FFF"/><path d="M13.99 23.95a.73.73 0 0 1-.493-.193L.234 11.5a.73.73 0 0 1 .99-1.07l13.262 12.255a.73.73 0 0 1-.496 1.265z" fill="#FFF"/><mask id="b" fill="#fff"><use xlink:href="#a"/></mask><path d="M20.972 23.948a.728.728 0 0 1-.495-1.263L33.733 10.43a.73.73 0 0 1 .99 1.07L21.468 23.754a.716.716 0 0 1-.495.194" fill="#FFF" mask="url(#b)"/><path d="M26.947 18.25a.73.73 0 0 1-.73-.73V8.783H8.74v8.74a.73.73 0 0 1-1.457-.002V8.053a.73.73 0 0 1 .728-.728H26.95c.4 0 .728.326.728.728v9.468a.73.73 0 0 1-.728.73" fill="#FFF" mask="url(#b)"/><path d="M23.305 13.15H11.653a.73.73 0 0 1 0-1.457h11.652a.73.73 0 0 1 0 1.457m0 4.37H11.653a.73.73 0 0 1 0-1.457h11.652a.73.73 0 0 1 0 1.457" fill="#FFF" mask="url(#b)"/></g></svg>