<svg width="37" height="28" viewBox="0 0 37 28" xmlns="http://www.w3.org/2000/svg" xmlns:xlink="http://www.w3.org/1999/xlink"><defs><path id="a" d="M0 .048h36.983V30H0"/></defs><g fill="none" fill-rule="evenodd"><mask id="b" fill="#fff"><use xlink:href="#a"/></mask><rect stroke="#FFF" stroke-width="2" mask="url(#b)" width="37" height="24.75" rx="4"/><path d="M26.176 26.25h-15.37c-.45 0-.862.16-.862.375v.75c0 .196.37.375.863.375h15.41c.452 0 .863-.16.863-.375v-.75c-.04-.196-.41-.375-.904-.375M23.546 18.108c-.165.16-.37.16-.534 0l-.576-.565c-.164-.16-.164-.362 0-.524l4.52-4.435-4.52-4.434c-.164-.16-.164-.362 0-.523l.576-.565c.164-.16.37-.16.534 0l5.342 5.24c.164.162.164.364 0 .525l-5.342 5.28zm-6.493 1.935a.33.33 0 0 1-.452.242l-.697-.202c-.206-.04-.33-.242-.247-.443L19.93 5.127a.33.33 0 0 1 .452-.242l.698.202c.206.04.288.242.247.443l-4.274 14.513zm-3.082-1.935c-.163.16-.37.16-.533 0l-5.342-5.24c-.164-.162-.164-.364 0-.525l5.342-5.24c.164-.162.37-.162.534 0l.577.564c.164.16.164.363 0 .524l-4.52 4.435 4.52 4.435c.164.16.164.363 0 .524l-.576.524z" fill="#FFF" mask="url(#b)"/></g></svg>