<svg width="46" height="36" viewBox="0 0 46 36" xmlns="http://www.w3.org/2000/svg"><title>video</title><path d="M20.602 23.727a.987.987 0 0 1-.62.234c-.553 0-1-.445-1-.996V13c0-.55.447-.998 1-.998.212 0 .4.082.562.195l7.764 4.856a.987.987 0 0 1 .665.928c0 .325-.164.6-.404.782L20.6 23.727zm1.104-3.124a.492.492 0 0 1-.31.116.496.496 0 0 1-.497-.497V15.26c0-.274.222-.496.497-.496.106 0 .2.04.28.097l3.867 2.42a.49.49 0 0 1 .33.46c0 .163-.08.3-.2.39l-3.968 2.473zM43.96 29.94h-8.992v3.987H32.97V29.94h-8.992v3.987H21.98V29.94h-8.992v3.987H10.99V29.94H1.998v1.993c0 1.1.895 1.994 1.998 1.994H41.96a1.996 1.996 0 0 0 2-1.994V29.94zm0-21.924H1.998v19.93H43.96V8.017zm0-3.986c0-1.1-.895-1.993-2-1.993H34.97v3.986h8.992V4.03zM32.97 2.037h-8.992v3.986h8.992V2.037zm-10.99 0h-8.992v3.986h8.992V2.037zm-10.99 0H3.996A1.996 1.996 0 0 0 1.998 4.03v1.993h8.992V2.037zM41.96 35.92H3.997A3.99 3.99 0 0 1 0 31.933V4.03C0 1.828 1.79.043 3.996.043H41.96A3.992 3.992 0 0 1 45.96 4.03v27.903a3.99 3.99 0 0 1-3.997 3.987z" fill="none" fill-rule="evenodd"/></svg>