<svg width="16" height="16" viewBox="0 0 16 16" xmlns="http://www.w3.org/2000/svg" xmlns:xlink="http://www.w3.org/1999/xlink"><defs><path id="a" d="M0 0h16v16H0"/></defs><g fill="none" fill-rule="evenodd"><mask id="b"><use xlink:href="#a"/></mask><path d="M2 4c0-1.103.897-2 2-2s2 .897 2 2-.897 2-2 2-2-.897-2-2m11-3a2.99 2.99 0 0 0-2.816 2H7.858A3.99 3.99 0 0 0 4 0a4 4 0 0 0 0 8c.143 0 .278-.027.418-.042l2.154 3.292A2.98 2.98 0 0 0 6 13a3 3 0 1 0 3-3c-.27 0-.53.048-.78.115l-1.885-2.88A3.984 3.984 0 0 0 7.858 5h2.326A2.99 2.99 0 0 0 13 7a3 3 0 0 0 0-6" mask="url(#b)"/></g></svg>