<svg width="24" height="44" viewBox="0 0 24 44" xmlns="http://www.w3.org/2000/svg" xmlns:xlink="http://www.w3.org/1999/xlink"><defs><path id="a" d="M0 .055h23.97V44H0V.055z"/></defs><g fill="none" fill-rule="evenodd"><g><mask id="b"><use xlink:href="#a"/></mask><path d="M3.193 1.898h17.584c.664 0 1.203.5 1.203 1.116v2.474H1.99V3.014c0-.615.54-1.116 1.203-1.116zM21.98 35.366H1.99V7.33h19.99v28.036zM1.99 37.21h19.99v3.83c0 .616-.54 1.117-1.203 1.117H3.193c-.664 0-1.204-.5-1.204-1.116v-3.83zM20.776.054H3.193C1.433.055 0 1.382 0 3.015V41.04C0 42.673 1.432 44 3.193 44h17.584c1.76 0 3.192-1.327 3.192-2.96V3.015c0-1.63-1.433-2.96-3.193-2.96z" mask="url(#b)"/><ellipse mask="url(#b)" cx="12" cy="39.707" rx="1.091" ry="1.073"/></g><path d="M9.787 4.615h4.396c.585 0 .993-.38.993-.922 0-.543-.408-.922-.993-.922H9.787c-.585 0-.994.38-.994.923s.41.922.994.922"/></g></svg>