<svg width="16" height="14" viewBox="0 0 16 14" xmlns="http://www.w3.org/2000/svg" xmlns:xlink="http://www.w3.org/1999/xlink"><defs><path id="a" d="M0 0h15.765v14H0"/></defs><g fill="none" fill-rule="evenodd"><mask id="b" fill="#fff"><use xlink:href="#a"/></mask><path d="M14.78 4.253c-.2 0-.4-.06-.575-.19A10.66 10.66 0 0 0 7.882 2a10.64 10.64 0 0 0-6.32 2.064.98.98 0 0 1-1.377-.228A1.012 1.012 0 0 1 .41 2.44 12.596 12.596 0 0 1 7.882 0c2.702 0 5.286.844 7.473 2.44.442.324.542.95.224 1.397a.98.98 0 0 1-.8.416" fill="#FFF" mask="url(#b)"/><path d="M12.81 7.758a.978.978 0 0 1-.618-.222 6.055 6.055 0 0 0-.286-.22C9.55 5.596 6.213 5.593 3.86 7.313c-.095.068-.187.14-.277.212A.974.974 0 0 1 2.2 7.37c-.34-.43-.273-1.06.153-1.405A8.72 8.72 0 0 1 7.883 4a8.716 8.716 0 0 1 5.547 1.98c.424.347.49.977.148 1.406a.978.978 0 0 1-.767.372" fill="#FFF"/><path d="M10.18 10.75a.974.974 0 0 1-.632-.233c-.984-.84-2.344-.84-3.33 0a.976.976 0 0 1-1.39-.124 1.01 1.01 0 0 1 .123-1.41 4.494 4.494 0 0 1 5.866.002c.417.355.47.986.12 1.41a.978.978 0 0 1-.754.356M7.882 12a.993.993 0 0 0-.984 1c0 .552.44 1 .985 1a.993.993 0 0 0 .985-1c0-.552-.44-1-.985-1" fill="#FFF"/></g></svg>