<svg width="32" height="36" viewBox="0 0 32 36" xmlns="http://www.w3.org/2000/svg" xmlns:xlink="http://www.w3.org/1999/xlink"><defs><path id="a" d="M12.364 11.812H23.95v12.433H12.364V11.812z"/></defs><g fill="none" fill-rule="evenodd"><path d="M7.147 35.88c-2.004 0-3.63-1.642-3.63-3.674V4.29c0-2.03 1.63-3.675 3.63-3.675h20.615c2.004 0 3.63 1.642 3.63 3.674v27.915c0 2.03-1.63 3.674-3.63 3.674H7.147z" stroke="#FFF" stroke-width="2"/><rect fill="#FFF" x=".296" y="10.286" width="7.704" height="1.469" rx="8"/><rect fill="#FFF" x=".296" y="15.429" width="7.704" height="1.469" rx="8"/><rect fill="#FFF" x=".296" y="20.571" width="7.704" height="1.469" rx="8"/><rect fill="#FFF" x=".296" y="25.714" width="7.704" height="1.469" rx="8"/><path d="M18.157 13.105c-1.53 0-2.773 1.252-2.773 2.795 0 1.544 1.242 2.796 2.773 2.796 1.53 0 2.772-1.252 2.772-2.796 0-1.543-1.243-2.795-2.774-2.795m0 6.8c-2.193 0-4.014-1.793-4.014-4.046 0-2.255 1.78-4.05 4.014-4.05 2.193 0 4.014 1.795 4.014 4.048 0 2.252-1.82 4.046-4.013 4.046" fill="#FFF"/><mask id="b" fill="#fff"><use xlink:href="#a"/></mask><path d="M13.646 22.993h8.98c-.373-1.71-2.235-3.004-4.51-3.004-2.194 0-4.097 1.333-4.47 3.002zm10.304 1.252H12.364v-.626c0-2.714 2.607-4.883 5.793-4.883s5.793 2.21 5.793 4.88v.627z" fill="#FFF" mask="url(#b)"/></g></svg>