<svg xmlns="http://www.w3.org/2000/svg" width="96" height="96" viewBox="0 0 96 96">
    <g fill="none" fill-rule="evenodd">
        <path fill="#BBD9FD" d="M31.695 94.553c1.39.493 4.956.918 7.83 1.09 7.848.465 18.814.213 23.463-.645 4.684-.864 4.892-2.171-7.015-2.818-10.137-.552-21.972.235-24.5 1.403-.68.315-.644.664.222.97"/>
        <circle cx="48" cy="48" r="32" fill="#288AFC"/>
        <path fill="#BBD9FD" d="M52.531 49.944S52.73 45 57.091 45c4.362 0 7.534 1.099 7.534 1.099-2.38 6.042-12.094 3.845-12.094 3.845m-20.156-3.845S35.547 45 39.909 45c4.361 0 4.56 4.944 4.56 4.944s-9.715 2.197-12.094-3.845M57.649 37c-7.32 0-9.149 6.165-9.149 6.165S46.67 37 39.351 37c-4.803 0-7.09 3.743-12.351 3.743C27 57.477 37.521 61 41.18 61c3.66 0 5.033-3.523 7.32-3.523S52.16 61 55.82 61C59.478 61 70 57.477 70 40.743c-5.26 0-7.548-3.743-12.351-3.743"/>
    </g>
</svg>
