<svg xmlns="http://www.w3.org/2000/svg" width="96" height="96" viewBox="0 0 96 96">
    <g fill="none" fill-rule="evenodd">
        <path fill="#FFDEC1" d="M85.153 9.65c-.003-.01 0-.017 0-.026-.115-.543-.343-1.082-.317-1.647.019-.39-.482-.509-.65-.255a3.552 3.552 0 0 0-.56.408 2.795 2.795 0 0 1-.1-.805c.018-.391-.482-.51-.652-.256-.34.192-.624.458-.918.715-.106-.39-.22-.78-.2-1.185.019-.39-.483-.509-.652-.256-.332.187-.61.445-.893.696-.105-.378-.21-.76-.193-1.152.02-.39-.482-.509-.65-.256-.333.187-.61.446-.894.696-.105-.38-.21-.76-.193-1.152.02-.39-.482-.51-.65-.254-.351.196-.64.474-.943.737-.11-.402-.231-.806-.21-1.223.017-.39-.482-.509-.652-.255-.328.184-.601.438-.881.684-.103-.372-.205-.747-.187-1.132.018-.392-.482-.51-.651-.257-.342.192-.626.46-.918.717-.108-.39-.22-.781-.202-1.185.02-.393-.48-.51-.651-.256-.331.187-.608.444-.894.695-.104-.38-.209-.76-.192-1.153.02-.39-.481-.509-.651-.256-.332.189-.609.446-.894.697-.104-.38-.209-.76-.191-1.153.02-.39-.482-.508-.651-.254-.353.198-.642.474-.944.737-.109-.402-.23-.805-.209-1.221.018-.392-.483-.51-.652-.257-.448.253-.8.63-1.2.95-.034.021-.067.05-.1.078l-.033.029c-.034.024-.053.052-.075.08-.02.022-.041.037-.062.061a46.75 46.75 0 0 1-1.051 3.624 73.911 73.911 0 0 1-1.962 5.797 94.943 94.943 0 0 1-2.908 7.622c-.851 1.966-1.762 4.048-2.755 6.048-.417.84-.904 1.227-.814 1.677.06.551.239 1.11.156 1.669-.054.387.433.554.626.318.3-.132.564-.322.828-.513l.165.081c.056.331.1.664.052.996-.056.387.431.555.624.319.312-.138.586-.336.86-.535.05.025.1.05.15.077.058.344.108.69.058 1.034-.055.388.431.554.624.319.319-.14.595-.343.875-.545l.1.053c.06.348.112.7.062 1.052-.056.387.432.554.625.319.32-.142.6-.347.88-.55l.093.048c.062.353.115.707.064 1.062-.056.387.431.553.623.318.323-.142.602-.347.883-.553l.155.081c.061.354.116.711.065 1.066-.056.387.43.555.623.318.322-.142.603-.348.886-.553.023.013.048.024.07.037.061.355.116.712.065 1.068-.056.387.43.554.624.319.324-.144.605-.35.888-.557l.116.06c.06.357.116.715.064 1.073-.055.387.43.554.624.318.327-.144.61-.353.896-.561l.075.04c.061.36.118.72.066 1.082-.056.386.432.554.625.317.33-.146.618-.36.909-.57.02.01.039.019.057.031.064.364.123.733.071 1.1-.057.387.431.555.623.318.342-.15.637-.373.937-.59.03.014.06.03.088.045.067.378.132.76.077 1.14-.056.387.43.555.624.319.524-.23.936-.633 1.428-.921a.33.33 0 0 0 .136-.155l.008-.01c.358-.717 1.624-3.71 1.868-4.378 2.425-6.61 4.846-13.224 7.268-19.839.024-.042.053-.08.07-.132.17-.51.627-1.557.705-2.093a.593.593 0 0 0-.004-.244"/>
        <path fill="#FF9300" d="M67.106 8.574c3.927 1.751 4.356 1.903 8.292 3.634.843.372 1.417-.954.573-1.325-3.935-1.73-4.365-1.883-8.292-3.634-.842-.375-1.416.95-.573 1.325M65.059 13.932c3.894 1.821 4.32 1.982 8.223 3.784.837.386 1.433-.928.596-1.315-3.903-1.801-4.33-1.962-8.223-3.783-.835-.39-1.431.923-.596 1.314M63.01 19.29c3.862 1.892 4.286 2.06 8.156 3.933.83.4 1.449-.901.62-1.303-3.872-1.873-4.293-2.041-8.155-3.933-.829-.406-1.448.898-.62 1.303M60.963 24.648c3.828 1.962 4.249 2.139 8.086 4.082.823.416 1.467-.875.643-1.292-3.837-1.944-4.258-2.119-8.086-4.081-.82-.421-1.463.87-.643 1.291M78.517 13.53c.606.27.768.347 1.214.544.844.37 1.417-.954.573-1.326-.553-.243-.607-.268-1.215-.544-.839-.384-1.415.949-.572 1.325M76.536 19.107c.603.28.764.36 1.207.564.837.385 1.43-.932.594-1.316a79.31 79.31 0 0 1-1.208-.563c-.832-.396-1.428.927-.593 1.315M74.556 24.686c.598.29.757.372 1.198.582.831.398 1.447-.908.613-1.306-.545-.26-.598-.286-1.196-.582-.828-.41-1.445.904-.615 1.306M72.577 30.265c.593.298.751.383 1.188.6.826.412 1.461-.884.634-1.296-.54-.269-.594-.295-1.188-.6-.82-.423-1.458.88-.634 1.296"/>
        <path fill="#FFF" d="M61.612 24.473c-7.014-.78-14.213-1.61-20.58-4.898a122.678 122.678 0 0 0 4.13-14.728A42.77 42.77 0 0 0 64.598 8.68a117.555 117.555 0 0 1-2.986 15.793"/>
        <path fill="#2BD1D4" d="M59.495 24.922c-2.582-1.73-4.597-4.124-6.585-6.494-.942-1.124-1.872-2.28-2.908-3.317-.497-.498-1.01-.661-1.687-.441-.81.263-1.595.682-2.37 1.039a96.577 96.577 0 0 0-5.179 2.587c-.036-.046-.115-.058-.149.011-.16.334-.321.669-.48 1.005-.102.216-.222.45-.2.698.047.478.64.664 1.014.805 1.328.508 2.803.694 4.187.994a520.697 520.697 0 0 1 14.105 3.26.076.076 0 0 0 .09-.046c.016.01.033.023.048.034.093.063.208-.073.114-.135"/>
        <path fill="#2BD1D4" d="M63.495 17.913c-.097-.322-.391-.53-.639-.732-.632-.517-1.318-.966-2.014-1.39-.346-.21-.694-.415-1.043-.618-.3-.175-.605-.352-.965-.328-.347.022-.69.2-1.006.334-.449.192-.89.399-1.326.616-1.755.872-3.466 1.862-5.149 2.87-1.629.975-3.203 2.046-4.59 3.357-.051.048-.02.11.028.134-.272.247-.664.179-.947.393-.198.149-.266.37-.303.606-.11.684-.006 1.485.327 2.096.334.612.999.693 1.62.832.872.194 1.755.338 2.641.449 1.781.222 3.574.311 5.364.425.897.056 1.793.118 2.686.205.812.078 1.661.274 2.477.183.401-.044.788-.167 1.164-.31.284-.107.602-.217.804-.46.194-.231.256-.557.331-.843.123-.468.225-.943.307-1.42.146-.851.224-1.714.239-2.577.016-.97-.139-1.95-.042-2.917.028-.298.124-.608.036-.905"/>
        <path fill="#BBD9FD" d="M61.612 24.473c-7.014-.78-14.213-1.61-20.58-4.898a122.678 122.678 0 0 0 4.13-14.728A42.77 42.77 0 0 0 64.598 8.68a117.555 117.555 0 0 1-2.986 15.793m3.661-17.095a.648.648 0 0 0-.197-.02A41.383 41.383 0 0 1 45.26 3.468a.6.6 0 0 0-.425-.044c-.32-.075-.698.064-.784.484a120.307 120.307 0 0 1-5.467 18.633c-.079.208-.635 1.72-.552 1.81a.87.87 0 0 0 .353.366c1.456.994 2.935 1.615 4.453 2.145a61.575 61.575 0 0 0 6.183 1.807 60.65 60.65 0 0 0 10.85 1.52c.15.009 1.43.057 1.528.06l.503.011a.59.59 0 0 0 .29-.066.59.59 0 0 0 .406-.474 361.475 361.475 0 0 0 3.515-21.606c.071-.542-.445-.833-.84-.735"/>
        <path fill="#FD9E2A" d="M57.698 10.654c-.592-.663-1.572-.757-2.292-.29-.004.002-.007.002-.01.005a1.514 1.514 0 0 0-.65.796c-.334.516-.239 1.253.197 1.761.665.777 1.85.815 2.632.193.776-.614.758-1.753.123-2.465"/>
        <path fill="#2BD1D4" d="M42.177 4.922c-.272-1.106-.629-2.163-1.21-2.994C39.94.455 38.288.446 36.54.902c-.801.185-1.586.498-2.268.753C30.918 2.9 18.915 7.206 18.545 7.39c-1.793.893-1.796 2.32-1.283 3.909.055.26 6.884 22.319 7.329 23.476.602 1.573 1.51 2.964 3.035 3.02 1.525.059 19.614-6.358 20.451-6.725 1.02-.446 1.45-1.084 1.513-1.816.135-.4.043-.834-.076-1.38-.312-1.443-6.176-20.447-7.337-22.952"/>
        <path fill="#B7F6F7" d="M43.73 5.034c-.365-1.076-.813-2.1-1.462-2.874-1.149-1.376-2.795-1.242-4.5-.631-.782.253-1.536.637-2.194.948-3.232 1.538-14.822 6.887-15.173 7.103-1.708 1.048-1.59 2.47-.942 4.007.077.255 8.778 21.628 9.319 22.74.737 1.514 1.76 2.82 3.284 2.742 1.523-.078 18.993-8.069 19.796-8.507.977-.535 1.35-1.208 1.35-1.943.1-.41-.028-.835-.194-1.37-.434-1.407-7.912-19.821-9.283-22.215"/>
        <path fill="#FF8E8E" d="M41.68 9.753c-2.888-2.237-6.836-.203-7.576 3.007-2.686-1.86-6.952-.658-7.59 2.97-.442 2.507.914 4.978 2.881 6.417 2.735 1.998 6.043.795 8.781 2.433.178.106.342.1.473.03.144-.04.27-.146.329-.348.929-3.08 4.17-4.458 4.854-7.804.49-2.408-.155-5.16-2.151-6.705"/>
        <path fill="#F52D2D" d="M39.26 16.2l-1.472.578c-.245.097-.35.28-.374.534-.06.644-.118 1.289-.176 1.932-.806-1.28-1.613-2.558-2.418-3.838-.298-.47-.964-.202-.982.312-.028.883-.06 1.768-.088 2.651-.37.146-.741.293-1.112.438-.636.251-.321 1.284.32 1.03l1.47-.578a.565.565 0 0 0 .374-.535l.043-1.27 2.326 3.694c.311.492.936.184.981-.311l.29-3.16c.38-.15.757-.299 1.136-.447.635-.251.322-1.283-.318-1.03"/>
        <path fill="#BBD9FD" d="M37.88 31.91a100.277 100.277 0 0 1-4.247-7.517 78.65 78.65 0 0 1-2.967-5.759 50.4 50.4 0 0 1-1.672-3.628c-.18-.169-.371-.28-.571-.293a.89.89 0 0 0-.451.108c-.023.008-.046.003-.068.018-.054.037-.101.07-.156.106-.075.046-.15.092-.229.131-.019.01-.026.038-.04.053-3.643 2.487-12.89 7.632-16.765 10.302-.188.144-.398.263-.524.507-.19.295-.265.702-.097 1.257.166.55.477 1.043.735 1.549.027.052.063.088.094.128 3.938 7.2 7.878 14.398 11.819 21.595.03.056.064.091.096.135a12.31 12.31 0 0 0 .293.547c.248.472.518.908.834 1.207.106.125.215.24.333.332.553.435 1.156.197 1.604-.163 3.765-2.6 12.094-8.94 15.774-11.498.402-.21.803-.547.873-1.155.048-.429-.062-.87-.24-1.308-1.677-2.081-3.064-4.47-4.429-6.654"/>
        <path fill="#3281EE" d="M35.306 37.762c-1.96 1.301.665-.416-1.314.857-.822.529.099 1.748.917 1.222 1.979-1.275-.647.442 1.315-.859.814-.539-.104-1.76-.918-1.22M24.732 29.897c-1.886 1.43-3.995 2.68-5.944 4.04-.802.56.075 1.811.879 1.249 1.949-1.36 4.057-2.61 5.944-4.04.778-.59-.096-1.842-.88-1.249M29.659 34.606c-2.813 1.767-3.733 2.15-8.332 5.438-.79.564.029 1.823.842 1.275 4.919-3.314 5.52-3.672 8.333-5.438.826-.52-.015-1.796-.843-1.275M31.477 40.633c-3.29 2.192-3.941 2.669-6.574 4.59-.784.572.05 1.823.856 1.266 4.882-3.368 3.402-2.396 6.574-4.592.805-.557-.041-1.807-.856-1.264M23.08 27.345c-2.786 1.81-1.044.55-5.593 3.907-.781.575.057 1.822.862 1.26 4.866-3.389 2.807-2.095 5.594-3.906.819-.532-.043-1.794-.862-1.26M27.246 20.929c-3.776 2.568-7.556 5.131-11.32 7.719-.806.555.038 1.828.845 1.273 3.764-2.588 7.544-5.15 11.32-7.719.81-.552-.034-1.825-.845-1.273M34.539 34.613c-3.777 2.568-7.558 5.13-11.321 7.719-.807.555.038 1.828.845 1.273 3.764-2.589 7.544-5.151 11.32-7.72.81-.55-.035-1.824-.844-1.272"/>
        <path fill="#B7F6F7" d="M66.39 15.308a1.342 1.342 0 0 1 1.867-.406l14.824 9.71c.626.412.804 1.263.4 1.894l-9.58 15.025a1.345 1.345 0 0 1-1.87.407l-14.823-9.713a1.383 1.383 0 0 1-.4-1.893l9.582-15.024z"/>
        <path fill="#2BD1D4" d="M64.148 25.82a1.584 1.584 0 0 0-2.254-.236 1.641 1.641 0 0 0-.233 2.284l.506.631a2.385 2.385 0 0 0 3.38.355l4.775-3.933a.499.499 0 0 1 .623.001l3.742 3.214c.168.145.17.374-.012.524l-3.407 2.807a.395.395 0 0 1-.564-.048l-.763-.951a1.59 1.59 0 0 0-2.252-.238l.11-.092a1.64 1.64 0 0 0-.231 2.282l.507.632a2.383 2.383 0 0 0 3.377.357l7.35-6.055c.344-.283.348-.753.018-1.038l-5.595-4.858c-.334-.29-.887-.291-1.228-.011l-6.527 5.377a.39.39 0 0 1-.558-.053l-.764-.95z"/>
        <path fill="#BBD9FD" d="M31.095 94.2c1.39.494 4.955.92 7.83 1.09 7.847.466 18.814.214 23.462-.644 4.684-.864 4.893-2.17-7.014-2.818-10.138-.551-21.972.236-24.501 1.404-.68.315-.643.664.223.969"/>
        <path fill="#BBD9FD" d="M74.91 35.722c-4.595-2.189-9.082-3.888-13.459-5.092-4.97-1.37-9.242-2.028-13.565-2.028-4.268 0-8.592.658-13.512 2.028-4.431 1.204-8.916 2.903-13.455 5.092a2.675 2.675 0 0 0-1.732 2.52c0 13.585 1.784 24.157 6.108 32.922 4.324 8.82 11.133 15.776 21.186 22.184.865.55 2 .55 2.862 0 10.055-6.408 16.865-13.364 21.188-22.184 4.322-8.765 6.053-19.337 6.053-32.922 0-1.149-.704-2.135-1.674-2.52"/>
        <path fill="#288AFC" d="M66.934 56.934c-.669 3.988-1.735 7.522-3.302 10.701-3.006 6.12-7.74 10.948-14.725 15.394-.601.38-1.39.38-1.987 0-6.853-4.36-11.531-9.09-14.546-15.045a37.303 37.303 0 0 1-2.652-8.01c-.934-4.395-1.103-9.51.58-13.808 1.114-2.842 3.184-4.309 3.808-4.773 1.309-.881 2.789-1.412 4.394-1.888 3.403-1.005 6.425-1.404 9.392-1.404 3.002 0 6.02.283 9.424 1.404 2.443.805 4.399 1.704 6.903 4.336a9.871 9.871 0 0 1 2.09 4.003c.885 3.346.956 6.1.621 9.09m7.975-21.212c-4.594-2.19-9.081-3.887-13.457-5.093-4.971-1.37-9.243-2.027-13.567-2.027-4.267 0-8.592.657-13.512 2.027-4.43 1.206-8.916 2.904-13.455 5.093a2.675 2.675 0 0 0-1.73 2.52c0 13.586 1.783 24.157 6.106 32.922 4.325 8.82 11.133 15.776 21.186 22.185a2.7 2.7 0 0 0 2.864 0c10.054-6.41 16.865-13.366 21.187-22.185 4.321-8.765 6.053-19.336 6.053-32.921 0-1.15-.703-2.136-1.675-2.521"/>
        <path fill="#288AFC" d="M48.03 70.172c-6.354 0-8.023-4.892-8.447-6.995a1.481 1.481 0 0 1 1.142-1.746c.789-.162 13.821-.162 14.613 0 .79.163 1.3.945 1.14 1.746-.423 2.103-2.091 6.995-8.447 6.995M34.542 53.42c.14.56.542 1.062.879 1.275.92.58 2.254.384 2.865-.535.613-.924.713-2.378-.681-3.192-1.19-.693-2.662.09-3.035 1.372a2.13 2.13 0 0 0-.028 1.08M57.114 53.957c.138.559.542 1.062.88 1.275.917.579 2.254.383 2.864-.535.612-.924.713-2.379-.682-3.193-1.189-.693-2.66.09-3.032 1.373a2.091 2.091 0 0 0-.03 1.08"/>
        <path fill="#FEDBA7" d="M23.226 40.662c.077.313.302.596.493.713.515.326 1.264.216 1.607-.298.344-.519.403-1.336-.383-1.793-.666-.387-1.493.052-1.7.771-.06.194-.065.412-.017.607M28.802 38.011c.076.313.302.596.491.714.517.326 1.266.216 1.608-.299.344-.519.402-1.335-.382-1.792-.666-.387-1.49.052-1.702.771-.057.193-.063.41-.015.606M34.575 35.847c.076.314.302.596.493.715.517.323 1.265.216 1.607-.3.344-.519.403-1.334-.383-1.792-.666-.388-1.489.052-1.7.771-.058.194-.065.41-.017.606M40.575 34.459c.076.313.303.596.493.714.515.325 1.266.216 1.608-.299.345-.518.402-1.335-.384-1.792-.665-.389-1.485.053-1.7.771-.058.193-.065.41-.017.606M46.73 34.262c.078.313.304.596.492.715.517.325 1.267.215 1.609-.3.345-.518.401-1.334-.383-1.791-.665-.389-1.492.05-1.7.77-.059.193-.065.41-.017.606M72.513 40.055c-.21-.719-1.036-1.158-1.704-.77-.78.456-.726 1.273-.38 1.792.342.515 1.091.624 1.608.298.19-.117.415-.4.493-.713.047-.195.04-.412-.017-.607M66.938 37.405c-.21-.72-1.035-1.159-1.703-.771-.781.457-.728 1.273-.382 1.793.343.514 1.09.623 1.608.3.19-.12.415-.403.493-.716.05-.195.04-.412-.016-.606M61.164 35.24c-.21-.719-1.036-1.158-1.704-.77-.78.458-.726 1.273-.38 1.791.342.516 1.091.625 1.608.3.19-.118.413-.401.492-.715a1.175 1.175 0 0 0-.016-.606M55.164 33.853c-.21-.72-1.037-1.159-1.704-.77-.783.457-.726 1.273-.38 1.792.342.514 1.091.624 1.608.299.188-.12.412-.403.49-.716a1.188 1.188 0 0 0-.014-.605"/>
        <path fill="#FEDBA7" d="M49.009 33.656c-.21-.72-1.036-1.159-1.703-.77-.785.457-.728 1.273-.382 1.79.343.516 1.092.626 1.608.301.19-.12.415-.402.492-.715.05-.196.042-.413-.015-.606M49.022 87.82c-.208-.72-1.033-1.158-1.702-.77-.782.456-.725 1.272-.381 1.791.342.514 1.092.625 1.608.3.19-.119.415-.401.493-.715.05-.195.04-.413-.018-.606M54.5 84.776c-.214-.72-1.033-1.16-1.702-.772-.783.458-.727 1.274-.382 1.793.342.514 1.091.623 1.608.3.19-.119.416-.401.494-.715a1.175 1.175 0 0 0-.019-.606M59.183 80.582c-.21-.72-1.035-1.159-1.704-.772-.782.458-.725 1.274-.381 1.793.342.514 1.092.625 1.609.299.189-.118.414-.4.493-.715.048-.195.04-.412-.017-.605M63.553 76.067c-.213-.72-1.035-1.16-1.703-.773-.781.458-.726 1.275-.381 1.794.342.514 1.09.624 1.609.299.189-.118.415-.4.493-.713a1.18 1.18 0 0 0-.018-.607M67.03 70.825c-.213-.719-1.035-1.159-1.703-.772-.781.458-.725 1.275-.381 1.793.344.515 1.09.623 1.61.299.188-.118.413-.4.492-.713.05-.197.04-.414-.019-.607M69.589 65.057c-.21-.72-1.035-1.159-1.703-.771-.781.457-.726 1.274-.381 1.792.343.514 1.09.622 1.609.299.189-.118.415-.4.493-.714.047-.196.039-.413-.018-.606M71.28 58.98c-.209-.72-1.035-1.16-1.702-.771-.782.456-.728 1.274-.382 1.793.343.514 1.09.622 1.608.3.19-.119.416-.402.493-.715a1.18 1.18 0 0 0-.016-.607M72.15 52.712c-.21-.72-1.037-1.16-1.704-.772-.782.457-.726 1.274-.38 1.794.342.514 1.09.622 1.608.298.19-.118.416-.4.493-.713.048-.196.04-.414-.017-.607M72.513 46.391c-.212-.72-1.037-1.16-1.703-.772-.783.456-.727 1.274-.383 1.793.344.514 1.093.623 1.61.3.188-.119.415-.401.493-.714.049-.197.04-.414-.017-.607M72.513 40.055c-.21-.719-1.036-1.158-1.704-.77-.78.456-.726 1.273-.38 1.792.342.515 1.091.624 1.608.298.19-.117.415-.4.493-.713.047-.195.04-.412-.017-.607"/>
        <path fill="#FEDBA7" d="M46.703 88.427c.075.313.302.596.491.714.517.325 1.267.215 1.608-.3.344-.518.401-1.335-.382-1.793-.668-.387-1.493.052-1.7.773-.058.192-.067.41-.017.606M41.226 85.383c.077.313.302.596.493.715.517.323 1.267.214 1.606-.3.345-.519.401-1.335-.382-1.793-.668-.388-1.49.052-1.7.772-.058.192-.066.41-.017.606M36.543 81.19c.078.312.303.595.492.714.517.324 1.267.214 1.608-.3.344-.519.4-1.334-.383-1.793-.668-.387-1.49.053-1.7.772-.057.192-.065.41-.017.606M32.174 76.674c.077.312.303.595.493.714.516.324 1.265.216 1.606-.3.344-.519.402-1.336-.382-1.793-.667-.388-1.489.053-1.7.772a1.18 1.18 0 0 0-.017.607M28.696 71.432c.076.313.303.595.493.713.516.324 1.267.216 1.607-.299.344-.518.4-1.335-.382-1.792-.668-.388-1.49.052-1.7.771a1.18 1.18 0 0 0-.018.607M26.135 65.664c.078.313.304.595.493.715.516.322 1.266.215 1.606-.3.346-.519.403-1.337-.38-1.793-.669-.389-1.49.053-1.702.772-.057.194-.066.41-.017.606M24.445 59.588c.076.312.304.595.494.714.515.322 1.265.215 1.606-.299.344-.519.402-1.337-.382-1.793-.667-.389-1.49.053-1.7.77a1.18 1.18 0 0 0-.018.608M23.576 53.32c.077.312.304.594.494.712.517.324 1.266.216 1.606-.298.344-.52.403-1.337-.38-1.793-.667-.389-1.493.052-1.702.771a1.18 1.18 0 0 0-.018.607M23.213 46.998c.078.311.305.594.494.713.516.322 1.266.216 1.607-.3.344-.518.402-1.336-.383-1.792-.666-.389-1.49.054-1.7.772a1.18 1.18 0 0 0-.018.607M23.212 40.662c.077.313.304.596.494.713.515.326 1.266.216 1.606-.298.344-.519.402-1.336-.38-1.793-.669-.387-1.495.052-1.702.771a1.167 1.167 0 0 0-.018.607"/>
    </g>
</svg>
