<svg xmlns="http://www.w3.org/2000/svg" width="96" height="96" viewBox="0 0 96 96">
    <g fill="none" fill-rule="evenodd">
        <path fill="#BBD9FD" d="M28.695 94.553c1.39.493 4.956.918 7.83 1.09 7.848.465 18.814.213 23.463-.645 4.684-.864 4.892-2.171-7.015-2.818-10.137-.552-21.972.235-24.5 1.403-.68.315-.644.664.222.97"/>
        <path fill="#F52D2D" d="M45.998 24.234s-9.53-8.14-2.272-16.157C50.984.06 56.703 9.828 54.305 13.438c0 0 6.827-5.833 9.594 1.18 0 0 2.276-.96 4.564-.098 2.018.762 2.05 3.666.092 4.58-1.069.5-2.021 1.258-2.196 2.397-.43 2.804 5.939 5.819 0 10.503l-20.361-7.766z"/>
        <path fill="#288AFC" d="M23.729 79.172c.448-3.634.372-9.452-1.18-18.731-1.24-7.415-.4-15.084 2.709-21.925 4.2-9.246 12.92-18.42 30.975-14.442 0 0 4.195-.107 10.256 6.225 0 0-10.004 15.713-5.964 25.385 2.13 5.1 3.98 11.096 4.846 16.627.565 3.614-3.817 5.747-6.336 3.104-2.246-2.356-4.97-3.695-7.853-1.701-5.034 3.482-5.772 5.289-7.465 2.786-1.46-2.161-4.597-2.1-5.945.135-1.431 2.374-3.594 4.767-6.79 5.943-.788.29-1.516.546-2.188.774-2.716.92-5.417-1.326-5.065-4.18"/>
        <path fill="#F52D2D" d="M64.935 27.989c-4.632-3.205-14.862-8.464-19.771 3.284-.622 1.487.613 3.135 2.265 2.948 2.141-.244 4.433.455 4.33 4.615C51.568 46.573 55.008 55 64.182 55s5.288-10.638 3.122-12.848c-1.47-1.5-.945-6.648-.456-9.802.261-1.683-.479-3.369-1.913-4.361"/>
        <path fill="#FF9300" d="M67.508 32.003s9.383-.36 12.41 7.12c.33.815-.387 1.663-1.237 1.433-2.68-.726-7.686-1.37-11.173 2.444 0 0-3.394-4.592 0-10.997"/>
        <path fill="#FEFEFE" d="M61 33a4 4 0 1 1-8 0 4 4 0 0 1 8 0"/>
        <path fill="#22385E" d="M59 33a1 1 0 1 1-2 0 1 1 0 0 1 2 0"/>
    </g>
</svg>
