<svg xmlns="http://www.w3.org/2000/svg" xmlns:xlink="http://www.w3.org/1999/xlink" width="511" height="428"
	 viewBox="0 0 511 428" style="enable-background:new 0 0 511 428;" xml:space="preserve">
<style type="text/css">
	.st0{opacity:0.922;fill:#FFFFFF;enable-background:new    ;}
	.st1{opacity:0.318;fill-rule:evenodd;clip-rule:evenodd;fill:#288AFC;enable-background:new    ;}
	.st2{fill-rule:evenodd;clip-rule:evenodd;fill:#FFFFFF;}
	.st3{fill-rule:evenodd;clip-rule:evenodd;fill:#814829;}
	.st4{fill-rule:evenodd;clip-rule:evenodd;fill:#2C1B28;}
	.st5{fill-rule:evenodd;clip-rule:evenodd;fill:#E49C74;}
	.st6{fill-rule:evenodd;clip-rule:evenodd;fill:#1E68BD;}
	.st7{fill-rule:evenodd;clip-rule:evenodd;fill:#BBD9FD;}
	.st8{fill-rule:evenodd;clip-rule:evenodd;fill:#BCD7F1;}
	.st9{fill-rule:evenodd;clip-rule:evenodd;fill:url(#SVGID_1_);}
	.st10{fill-rule:evenodd;clip-rule:evenodd;fill:#2BD1D4;}
	.st11{fill-rule:evenodd;clip-rule:evenodd;fill:#209D9F;}
	.st12{fill-rule:evenodd;clip-rule:evenodd;fill:#B7F6F7;}
	.st13{fill-rule:evenodd;clip-rule:evenodd;fill:url(#SVGID_2_);}
	.st14{fill:#288AFC;}
	.st15{fill-rule:evenodd;clip-rule:evenodd;fill:#288AFC;}
	.st16{fill-rule:evenodd;clip-rule:evenodd;fill:#CB7544;}
	.st17{fill-rule:evenodd;clip-rule:evenodd;fill:#FD9E2A;}
	.st18{fill-rule:evenodd;clip-rule:evenodd;fill:#80492A;}
	.st19{fill-rule:evenodd;clip-rule:evenodd;fill:#C9B8F4;}
	.st20{fill-rule:evenodd;clip-rule:evenodd;fill:#FEE2CA;}
	.st21{fill-rule:evenodd;clip-rule:evenodd;fill:#906CEA;}
	.st22{fill:#80492A;}
	.st23{fill-rule:evenodd;clip-rule:evenodd;fill:url(#SVGID_3_);}
	.st24{fill-rule:evenodd;clip-rule:evenodd;fill:url(#SVGID_4_);}
	.st25{fill:#1E68BD;}
	.st26{fill-rule:evenodd;clip-rule:evenodd;fill:#FEDBA7;}
	.st27{fill-rule:evenodd;clip-rule:evenodd;fill:url(#SVGID_5_);}
	.st28{fill-rule:evenodd;clip-rule:evenodd;fill:#961D01;}
	.st29{fill-rule:evenodd;clip-rule:evenodd;fill:url(#SVGID_6_);}
	.st30{fill-rule:evenodd;clip-rule:evenodd;fill:#F4383C;}
	.st31{fill-rule:evenodd;clip-rule:evenodd;fill:#FFFFFF;stroke:#71D17F;}
	.st32{fill-rule:evenodd;clip-rule:evenodd;fill:#2BBA40;}
	.st33{fill-rule:evenodd;clip-rule:evenodd;fill:#FF9433;}
	.st34{fill-rule:evenodd;clip-rule:evenodd;fill:#8EE39B;}
	.st35{fill-rule:evenodd;clip-rule:evenodd;fill:#1EC737;}
	.st36{fill:none;stroke:#8EE39B;stroke-linecap:round;stroke-linejoin:round;}
	.st37{fill-rule:evenodd;clip-rule:evenodd;fill:#FFFFFF;stroke:#FF7E7E;}
	.st38{fill-rule:evenodd;clip-rule:evenodd;fill:#FF7E7E;stroke:#FF7E7E;}
	.st39{fill-rule:evenodd;clip-rule:evenodd;fill:#FF3F3F;}
	.st40{fill-rule:evenodd;clip-rule:evenodd;fill:#FCD0D5;}
	.st41{fill-rule:evenodd;clip-rule:evenodd;fill:#65A6FF;stroke:#65A6FF;}
	.st42{fill-rule:evenodd;clip-rule:evenodd;fill:#F1142D;}
	.st43{fill-rule:evenodd;clip-rule:evenodd;fill:#FFFFFF;stroke:#FF8194;}
	.st44{fill-rule:evenodd;clip-rule:evenodd;fill:#FF405D;}
	.st45{fill-rule:evenodd;clip-rule:evenodd;fill:#FF8194;}
	.st46{fill-rule:evenodd;clip-rule:evenodd;fill:#FFC5CE;}
	.st47{opacity:0.5;}
	.st48{fill-rule:evenodd;clip-rule:evenodd;fill:#F9C723;}
	.st49{fill-rule:evenodd;clip-rule:evenodd;fill:#F57B2A;}
	.st50{fill-rule:evenodd;clip-rule:evenodd;fill:#F14633;}
	.st51{fill-rule:evenodd;clip-rule:evenodd;fill:#F89A26;}
	.st52{fill:#019BC5;}
	.st53{fill-rule:evenodd;clip-rule:evenodd;fill:#E86026;}
	.st54{fill-rule:evenodd;clip-rule:evenodd;fill:#005B9A;}
	.st55{fill-rule:evenodd;clip-rule:evenodd;fill:#019BC5;}
	.st56{fill-rule:evenodd;clip-rule:evenodd;fill:#3C5A99;}
	.st57{fill-rule:evenodd;clip-rule:evenodd;fill:#3E82F1;}
	.st58{fill-rule:evenodd;clip-rule:evenodd;fill:#32A753;}
	.st59{fill-rule:evenodd;clip-rule:evenodd;fill:#F9BB00;}
	.st60{fill-rule:evenodd;clip-rule:evenodd;fill:#E74133;}
	.st61{fill:#0062AE;}
	.st62{fill:#CD1E25;}
	.st63{fill-rule:evenodd;clip-rule:evenodd;fill:#77BC1F;}
	.st64{fill:#FFFFFF;}
	.st65{fill-rule:evenodd;clip-rule:evenodd;fill:#006A4E;}
	.st66{fill-rule:evenodd;clip-rule:evenodd;fill:#ED1B2F;}
	.st67{fill-rule:evenodd;clip-rule:evenodd;fill:#009597;}
	.st68{fill:#FC0D1A;}
</style>
<g>
	<path class="st0" d="M255.5,426.7c141.1,0,255.5,16.9,255.5-123.1S396.6,50,255.5,50S0,163.5,0,303.6
		C0,443.6,114.4,426.7,255.5,426.7z"/>
	<path class="st1" d="M107.6,372.7c-12.7-3.5-25.5-2-38.2-0.1h-0.1c-0.4-0.1-1-0.1-1.4-0.2c-1.3-0.2-2.6,2.1-2.6,4.2
		c0,2.4,1.2,4,2.6,4.2c13,2.1,26.1,2.1,39.1,0.2c1.2-0.2,2.3-1.4,2.6-3.6C109.5,375.4,108.8,373.1,107.6,372.7L107.6,372.7z
		 M326.3,356.6c-31.2-3.5-41.3-11.7-72.6-9.9c-0.1,0-21.5,9.8-21.6,9.8c-1.1-0.1-2.3-0.1-3.4-0.2c-3.3-0.2-6.2,2.1-6.2,4.2
		c0,2.4,2.9,4,6.2,4.2c32,2.1,64.2,2.1,96.1,0.2c3.1-0.2,5.8-1.4,6.1-3.6C331,359.3,329.4,356.9,326.3,356.6L326.3,356.6z
		 M460,354.6c-31.2-3.5-62.6-2-93.9-0.1h-0.3c-1.1-0.1-2.3-0.1-3.4-0.2c-3.3-0.2-6.2,2.1-6.2,4.2c0,2.4,2.9,4,6.2,4.2
		c32,2.1,64.2,2.1,96.1,0.2c3.1-0.2,5.8-1.4,6.1-3.6C464.8,357.4,463.1,354.9,460,354.6L460,354.6z"/>
	<path class="st2" d="M75,213.8c-0.9,0-1.8,0.2-2.7,0.4c-4.4,1.2-7.7,5-8.1,9.5c0,0.4-0.4,0.9-0.9,0.9c-2.4,0.2-5,1.7-6.9,3.7
		c-1.7,1.9-2.7,4-2.8,6.2c-0.1,0.8,0,1.5,0.1,2.3c0.1,1,0.7,2.6,1.3,3.9c1.7,2.8,4.3,4.3,9,5.1c2.1,0.3,4.2,0.6,10.9,0.6h0.2v1v-1
		h0.2c6.7,0,8.7-0.3,10.9-0.7c4.7-0.9,7.3-2.4,9-5.2c0.7-1.2,1.2-2.9,1.3-3.9c0.1-0.8,0.2-1.5,0.1-2.3c-0.2-2.2-1.2-4.3-2.9-6.1
		c-1.9-2.1-4.6-3.4-7-3.6c-0.4,0-0.9-0.4-0.9-0.9c-0.6-4.5-3.8-8.1-8.3-9.4C76.6,214,75.8,213.8,75,213.8L75,213.8z M133.6,82.1
		c-1.4,0.1-2.8,0.3-4.1,0.7c-7.1,2-12.1,7.8-13,15c-0.1,0.8-0.7,1.3-1.4,1.4c-3.9,0.4-8,2.6-11,5.9c-2.7,2.9-4.2,6.3-4.4,9.7
		c-0.1,1.2,0,2.4,0.2,3.7v0.1c0.2,1.5,1,4.2,2.2,6.1c2.7,4.4,6.9,6.8,14.3,8c3.4,0.6,6.7,1,17.2,0.9h0.3v1.7v-1.7h0.3
		c10.5-0.1,13.8-0.6,17.2-1.1c7.4-1.3,11.7-3.9,14.2-8.3c1.1-2,1.9-4.5,2.1-6.2V118c0.2-1.2,0.3-2.5,0.2-3.7
		c-0.3-3.5-1.9-6.8-4.6-9.7c-3.1-3.2-7.2-5.4-11-5.7c-0.8-0.1-1.4-0.7-1.4-1.4c-0.9-7.2-6.1-13-13.2-14.9
		C136.5,82.3,135,82.1,133.6,82.1z M265.4,120.7c-1.4,0.1-2.8,0.3-4.1,0.7c-7.1,2-12.1,7.8-13,15c-0.1,0.8-0.7,1.3-1.4,1.4
		c-3.9,0.4-8,2.6-11,5.9c-2.7,2.9-4.2,6.3-4.4,9.7c-0.1,1.2,0,2.4,0.2,3.7v0.1c0.2,1.5,1,4.2,2.2,6.1c2.7,4.4,6.9,6.8,14.3,8
		c3.4,0.6,6.7,1,17.2,0.9h0.3v1.7v-1.7h0.3c10.5-0.1,13.8-0.6,17.2-1.1c7.4-1.3,11.7-3.9,14.2-8.3c1.1-2,1.9-4.5,2.1-6.2v-0.1
		c0.2-1.2,0.3-2.5,0.2-3.7c-0.3-3.5-1.9-6.8-4.6-9.7c-3.1-3.2-7.2-5.4-11-5.7c-0.8-0.1-1.4-0.7-1.4-1.4c-0.9-7.2-6.1-13-13.2-14.9
		C268.2,121,266.9,120.7,265.4,120.7L265.4,120.7z M416.8,86.4c-1.4,0.1-2.8,0.3-4.1,0.7c-7.1,2-12.1,7.8-13,15
		c-0.1,0.8-0.7,1.3-1.4,1.4c-3.9,0.4-8,2.6-11,5.9c-2.7,2.9-4.2,6.3-4.4,9.7c-0.1,1.2,0,2.4,0.2,3.7v0.1c0.2,1.5,1,4.2,2.2,6.1
		c2.7,4.4,6.9,6.8,14.3,8c3.4,0.6,6.7,1,17.2,0.9h0.3v1.6v-1.6h0.3c10.5-0.1,13.8-0.6,17.2-1.1c7.4-1.3,11.7-3.9,14.2-8.3
		c1.1-2,1.9-4.5,2.1-6.2v-0.1c0.2-1.2,0.3-2.5,0.2-3.7c-0.3-3.5-1.9-6.8-4.6-9.7c-3.1-3.2-7.2-5.4-11-5.7c-0.8-0.1-1.4-0.7-1.4-1.4
		c-0.9-7.2-6.1-13-13.2-14.9C419.6,86.6,418.3,86.5,416.8,86.4L416.8,86.4z"/>
	<path class="st3" d="M281,361.6c-1.6-1-8.5-2.1-9,0.9c-0.2,0-0.4,0.2-0.4,0.4c-0.1,1.9-0.4,3.4-1.1,5.2c-0.3,0.9-0.1,1.9,0.3,2.6
		c2.1,3.2,1,5.7,1,9.1c0,1,0.9,1.9,1.9,1.5c2.7-0.8,4.3-3,5.7-5.3c1.4-2.5,2.8-5.5,3-8.5C282.4,366.2,282.4,362.6,281,361.6
		L281,361.6z"/>
	<path class="st4" d="M290,260c0.3-2.8-1.2-5.4-3.4-6.6c2-1.1,4.9-2.8,3.7-5.5c-0.4-1.1-1.8-1.9-3.1-2.2c0.6-0.6,0.8-1.3,0.1-2.2
		c-1.6-2-3.9-2.8-6.2-2.3c0.7-1,1.4-2.1,0.4-3c-1.2-1.1-2.9-0.7-4.4-0.3c0.3-1.1,0.4-2.6-0.7-3.1c-1.4-0.6-2.8-0.3-4.1,0.3
		c-0.4-1.7-1.6-2.8-3.4-3c-2-0.2-3.1,0.9-3.7,2.5c-1.2-1.2-2.7-1.8-4.4-1.3c-2.3,0.6-2.6,2.6-3.1,4.5c-1.1-1.3-2.7-2.6-4.3-1.1
		c-0.9,0.8-1.4,2-1.7,3.3c-0.6-0.6-1.3-0.8-2.3-0.2c-1.1,0.7-1.6,2.6-1.8,3.7c0,0.1-0.1,0.3-0.1,0.4h-0.1c-1.8-0.2-3.4,0.1-4.7,1.5
		c-1,1.2,0,3.2,0.7,4.4c-0.8,0.3-1.4,0.9-2,1.3c-2,1.8-0.8,4,0.7,5.4c-2.1,0.2-4.1,1.8-4.1,4.1c0,2,1.8,3.4,3.6,4.4
		c-0.4,0.8-0.8,1.7-0.9,2.5c-0.1,0.5,0,1.1,0.1,1.5c-0.1,0.9,0.1,1.8,0.6,2.6c0.8,1.6,3.6,3.1,5.9,3.2c-0.6,2,0.2,4.1,2.4,4.6
		c3.2,0.8,5.6-0.1,8.3-1.3c0,2.3,2.3,3,4.7,3.2c1.4,0.1,8.5-1.3,8.4-3.9c0.1,1,1.9,1.9,2.6,2.2c1.4,0.8,2.9,1,4.6,0.5
		c2-0.7,3.7-2.6,3.8-4.8c2.2,1.2,4.7-2.8,4.9-5.5c3,1.4,4.2-5.2,2.3-8C289.6,261.5,289.9,260.6,290,260L290,260z"/>
	<path class="st5" d="M469.7,223.4c0.6-1.2,1-2.5,0.7-3.6c-0.1-0.2-0.3-0.3-0.6-0.3h-0.3c-0.2,0-0.4,0.1-0.4,0.2l-0.3,0.7
		c0.3-0.7,0.3-1.3,0.2-2c-0.1-0.6-0.9-0.7-1.2-0.2c-0.7,0.8-1.3,1.5-2.1,2.2c0.1-0.9,0.3-2.4-0.7-2.3c-0.9,0.1-1.6,0.7-2,1.3
		c-0.9,1.3-1.7,2.8-2.8,3.9H460c0.2-2.2,0.2-4.4-1.1-6.2c-0.7-1-2.6-2.1-2.9-0.2c-0.3,1.3,0,2.8,0.1,4.1c0.1,1.3-0.3,4.8-1.9,5.4
		c-0.3,0.1-0.2,0.6,0,0.7v0.2c0.2,0.7,0.7,1.1,1.1,1.5c-0.1,0.7,0,1.2,0.3,1.8c0.1,0.1,0.2,0.1,0.3,0.1c0,0,0,0.1,0.1,0.1
		c1.1,0.9,1.6,4.1,3.4,3.5c1.3-0.3,2.8-1,4-1.9c3.1-1.8,7.2-5.1,6.7-8.3C470,223.5,469.8,223.4,469.7,223.4L469.7,223.4z"/>
	<path class="st6" d="M469.6,219.5c0.2-0.7,0.4-1.3,0.7-2.1c0-0.1,0.1-0.3,0.1-0.4c0.4-1,0.8-2,1.2-2.9V214c0-0.1,0.1-0.2,0.1-0.3
		v-0.3c0.1-0.3,0.1-0.6-0.1-0.8c-0.9-1.2-2.1-2.1-3.2-3.1c-0.9-0.8-1.7-1.6-2.7-2.2c-0.4-0.3-1-0.6-1.6-0.4c-0.1-0.1-0.3,0-0.4,0
		s-0.2,0.1-0.3,0.2l-0.1,0.2v0.1l-0.1,0.1c-1.3,5.4-4.1,10.6-5.2,16.1c0,0.2,0,0.3,0.1,0.4c0.1,0.3,0.2,0.7,0.6,1
		c1.3,1.4,2.7,3.5,4.3,4.5c0.1,0,0.1,0.1,0.2,0.1c0.2,0.2,0.4,0.2,0.7,0.3c0.1,0,0.2,0.1,0.3,0c1.8-0.4,2.2-3.2,2.9-4.6
		C468,223.3,468.8,221.4,469.6,219.5L469.6,219.5z"/>
	<path class="st7" d="M469.9,214.1v-0.2v-0.6c-0.6-0.8-1.4-1.4-2.1-2.1c-0.6-0.6-1.1-1.1-1.8-1.5c-0.7-0.4-1.2-1-1.3-0.8
		c-0.2,0.4-2.7,8-3.9,11.7c0,0.1,0,0.2,0.1,0.2c0,0.2,2.1,3.1,3.2,3.7c0,0,0.1,0,0.1,0.1c0.1,0.1,0.3,0.2,0.4,0.2h0.2
		c1.2-0.2,1.6-2.1,1.9-3.1C467.3,220.6,469.9,214.1,469.9,214.1L469.9,214.1z"/>
	<path class="st8" d="M461.2,223.9h0.3c0.7,0.2,0.8,1,0.4,1.4c-0.1,0.1-0.1,0.1-0.2,0.1c-0.1,0.1-0.2,0.1-0.4,0.1
		c-0.8-0.1-0.8-1.1-0.3-1.5C461,223.9,461.1,223.9,461.2,223.9z"/>
	<path class="st5" d="M459.2,227.2c0,0,0.6-4.2,0.4-4.2c0.2-2.2,0.2-4.4-1.1-6.2c-0.7-1-2.6-2.1-2.9-0.2c-0.3,1.3,0,2.8,0.1,4.1
		s-0.3,4.8-1.9,5.4c-0.3,0.1-0.2,0.6,0,0.7v0.2c0.2,0.7,0.7,1.1,1.1,1.5c-0.1,0.7,0,1.2,0.3,1.8c0.1,0.1,0.2,0.1,0.3,0.1
		c0,0,0,0.1,0.1,0.1c1.1,0.9,1.6,4.1,3.4,3.5c1.3-0.3,2.8-1,4-1.9L459.2,227.2L459.2,227.2z"/>

		<linearGradient id="SVGID_1_" gradientUnits="userSpaceOnUse" x1="-161.2527" y1="508.8842" x2="-160.2567" y2="508.873" gradientTransform="matrix(44.0119 0 0 -28.5865 7514.8057 14787.8193)">
		<stop  offset="1.640000e-03" style="stop-color:#209D9F"/>
		<stop  offset="0.4213" style="stop-color:#24B0B3"/>
		<stop  offset="1" style="stop-color:#2BD1D4"/>
	</linearGradient>
	<path class="st9" d="M460.6,231.8c-0.8-1.1-1.8-2.1-2.9-3c-0.6-0.4-1-0.8-1.7-1.1c-0.6-0.3-1-0.3-1-0.9c0-0.3-0.3-0.3-0.4-0.2
		c-0.1-0.1-0.3-0.1-0.4,0c-0.1,0.1-0.1,0.2-0.2,0.3c-0.3-0.3-0.8,0.1-0.4,0.4l0.1,0.1c-1.2,1.4-4.4,6.2-5.8,7.6
		c-0.7,0.8-8,8.5-12.2,6.6c-2.3-1.1-7.3-3.7-9.5-5.4c-4.3-3-2.4-0.2-7.7-0.3c-0.1-0.2-0.6-0.2-0.6,0.2v0.2c0,0.7,0.3,1.4,0.6,2
		c0.2,1.2,0.3,2.4,0.4,3.6c0.2,2.2,0.1,4.5,0.1,6.7c0,0.2-0.1,0.3-0.1,0.6c0,0.1,0,0.2,0.1,0.3c0,0.1,0.1,0.3,0.3,0.3h0.2
		c0.2,0,0.3,0.1,0.6,0.1c2.1,0.3,4.1,1,6.1,1.5c2.4,0.8,4.9,1.3,7.4,1.9c2.1,0.4,4.8,1.8,7,1.3c0,0.4,0.7,0.4,0.7,0
		c0,0,0.2-0.1,0.3-0.1c0.1-0.1,0.1-0.2,0.2-0.2c0.4-0.2,0.8-0.6,1.1-1c0.1-0.1,0.1-0.2,0-0.3c0.3-0.3,0.8-0.7,1.1-1.1
		c1.6-1.4,3.2-2.8,4.9-4.2c3.2-2.8,6.2-5.8,9.5-8.5c0.9-0.8,2.6-1.3,3.2-2.4c0.1-0.2,0.1-0.4,0.1-0.6
		C462,234.9,461.6,233.2,460.6,231.8L460.6,231.8z"/>
	<path class="st5" d="M361,350.2c-0.8-2.6-0.7-5.4-0.1-8c0.2-1.2,1-2.6,0.8-4c-0.2-1.3-1.2-2.2-2.2-3.1c-1.2-1.2-1.9-2.9-3.1-4
		c-2-2-4-0.4-6,0.8c-0.1,0.1-0.2,0.2-0.2,0.3c-0.1,0-0.2,0.1-0.2,0.2c-1.6,0.8-3.1,1.7-3.6,3.4c-0.2,1.1,0.9,3,1.2,4.1
		c0.8,2,1.6,3.9,2.3,5.8c1.2,3.2,2.7,6.2,5.1,8.5c1.3,1.3,4.6,3.1,6.5,2C363.7,354.9,361.6,351.6,361,350.2L361,350.2z M417.1,354.9
		c-2.9-1.3-5.9-1.9-7.5-4.1c-0.6-1-0.6-2-1.1-3c0,0,0-0.1-0.1-0.1v-0.4c0-0.3-0.3-0.5-0.7-0.5h-0.3c-2.2,0.5-4.3,1.2-6.5,1.8
		c-0.2,0.1-0.3,0.2-0.3,0.4l-0.3,0.3c-0.3,1.7-0.7,3.3-1.4,5c-0.4,1-0.9,2-1,3.1c-0.1,1.9,1.8,2.6,3.2,3.2c2.8,1,6,0.9,8.9,1
		c3.4,0.1,6.5-0.1,9.8-1.3c0.1,0,0.1-0.1,0.2-0.1c0.2,0,0.3-0.2,0.4-0.4C420.5,357.1,419.2,355.8,417.1,354.9L417.1,354.9z"/>
	<path class="st10" d="M407.8,294.1c0.2-0.2,0.1-0.7-0.1-0.9c-1-0.7-2.2-1-3.3-1.4c-2.6-1.1-5.1-2.1-7.7-3.3c-2.3-1.1-4.7-2.5-6.8-4
		c-1.8-1.3-3.2-3.3-5.2-4.3c-0.2-0.4-0.9-0.4-1.1,0.1c-0.7,1.9-2,3.6-2.7,5.5c-0.9,2.6-1.7,5.3-2.3,7.9c-1.6,5.6-3.4,11-6.4,16
		c-2.7,4.5-6.3,8.5-10,12.3c-1.9,2-3.7,3.7-5.9,5.3c-1.3,1-2.7,2-3.6,3.4c-0.2,0.3,0.1,0.9,0.6,0.9c0.6,0,1.8,1.4,2.1,1.8l3,2.6
		c1.7,1.4,3.7,2.6,5.1,4.2c0,0.3,0.1,0.7,0.6,0.5c2.1-0.2,3.7-1.5,5.4-2.6c2.9-1.8,5.9-3.4,8.7-5.3c5.1-3.4,10-7.5,14.3-11.7
		c4.2-4.1,7.5-8.6,10.5-13.5c2.3-4,5.5-8.1,5.4-13C408.5,294.2,408.2,294.1,407.8,294.1L407.8,294.1z"/>
	<path class="st10" d="M426.1,294.3v0.3c-4,1.4-8,2.8-12.3,3.1c-1.1,0.1-10,0.4-10,0.9c0-0.2-0.1-0.4-0.3-0.5
		c0.1-0.7-0.9-0.9-1.1-0.2c0,0.1,0,0.2-0.1,0.3c-0.2,0.1-0.2,0.4-0.2,0.7c-1.1,4.2-1.4,8.6-2,12.9c-0.7,5.2-1.2,10.2-1.8,15.4
		c-0.6,4.7-0.9,9.6-0.9,14.3c0,3.2-0.3,6.7,1,9.8c0.1,0.2,0.3,0.3,0.4,0.3c0,0.1,0.1,0.1,0.1,0.2c0,0,0,0.1-0.1,0.1v0.3
		c0,0.2,0.1,0.3,0.3,0.3c2.3,1.3,6.4-0.7,8.4-1.8c0.1-0.1,0.2-0.2,0.2-0.3c0.2-0.1,0.3-0.2,0.3-0.4c0.3-5.3,3.1-10.6,5.5-15.1
		c2.3-4.5,4.9-8.9,6.9-13.6c3.8-8.5,6.4-17.6,6.5-27C427.3,293.6,426.1,293.6,426.1,294.3L426.1,294.3z"/>
	<path class="st11" d="M436,287.4c0-5.7-0.6-11.6-1.2-17.3c-0.6-5.1-1.3-10.1-2.3-15.1c-1-5.4-1.4-11-2.9-16.3
		c-0.7-2.5-1.4-5-2.2-7.4c-0.6-1.7-1-3.1-0.8-4.8c0.1-0.6,0.6-1.2,0.3-1.8c-0.4-1.4-1.6-1.3-3-1.5c-2.1-0.4-5.7-1.4-6.9-3.3
		c-0.1-0.2-0.4-0.3-0.7-0.2c-0.2,0-0.4,0-0.7,0.2c-1.3,2.1-2.4,3.1-2.8,5.7c-0.4,2.8-0.4,5.6-0.6,8.5c-0.3,6.7-0.8,13.3-1.6,19.9
		c-0.9,7-1.1,14.1-2.2,21c-1,6.2-2.6,12.3-3.2,18.5c0,0.2,0.2,0.5,0.4,0.5c2.3,0.5,4.4,1.4,6.9,1.8c2.6,0.4,5.2,0.4,7.8,0.5
		c4.4,0.1,9.3,0.3,13.8-0.8C437.3,294.7,436,289.8,436,287.4L436,287.4z"/>
	<path class="st5" d="M423.8,216.8c0-0.4-0.6-0.9-1-0.4c-0.3,0.4-4.6,0.2-5.1,0.3c-2.2,0.2-6.4-1.3-8.4-2.5
		c-0.4-0.2,0.4,2.3,0.4,2.6l-1.3-2c0.1,2.2-1.2,5.8-1.9,7.9c-0.1,0.4,1.9,1.2,2.3,1.2v0.3c1,2.2,4.3,2.8,6.4,3.3
		c1.9,0.6,4.7,1.2,6.5,0.1c0.2-0.1,0.3-0.4,0.2-0.7v-0.1c0-0.9,0-1.8,0.2-2.5v-0.3c0.6-2.3,1-4.6,1.6-7L423.8,216.8L423.8,216.8z"/>
	<path class="st12" d="M429.3,276c0-9-0.3-18-1.2-27c-0.7-6.9-2.4-13.9-4.4-20.6c-0.6-1.7-1.3-2.9-3.1-3.1c-2.2-0.2-4.1-0.3-6.2-0.9
		c-0.7-0.2-5.4-1.4-5.2-2.2c0.2-0.8-1-1-1.1-0.3v0.2c-2.3,6.7-4.1,13.6-6.4,20.5c-2.4,7-4.9,14.2-7.4,21.2c-2.6,7.3-6.2,14-9.3,21
		c-0.4,1-1.4,2.4-0.2,3.4c1.2,0.9,2.9,2,4.3,2.5c0.3,0.1,0.4,0,0.7-0.2c1,0.6,2,1.3,3,1.9c1.4,0.8,3,1.3,4.4,2
		c3.2,1.3,6.5,2.3,9.9,3c6.9,1.5,14.1,2.2,21.1,2.3c0.2,0,0.3-0.1,0.4-0.2c0.1-0.1,0.1-0.2,0.1-0.3c0.1-3.5,0.6-6.9,0.8-10.5
		C429.4,284.5,429.3,280.2,429.3,276z"/>
	<path class="st5" d="M431,198.1c-0.4-0.9-1-1.6-1.7-2.2c-1.7-2.1-3.9-3.5-6.8-4.3c-0.7-0.2-1.2-0.3-1.9-0.3c-0.2-0.1-0.5-0.1-0.7,0
		h-0.7c-1.4,0.1-3,0.6-4.4,1.4c-5.4,1.7-8,5.6-9.2,11c-0.7,2.6-0.6,5.4,0.2,8c0.7,2,1.7,3.6,2.8,5.2c-0.4,0.3-0.2,1.1,0.4,1.1
		c0.1,0,0.3,0,0.4,0.1c0.4,0.7,1,1.2,1.4,2c0.3,0.6,1,0.2,1.1-0.2c1.3,0.9,2.8,1.5,4.7,1.6c1.3,0.1,2.7-0.2,3.9-0.9
		c1.2-0.2,2.3-0.7,3.3-1.2c3.6-2,6.2-4.8,7.5-8.3c0.3-0.8,0.7-1.5,0.9-2.4C433.3,204.9,432.7,201.3,431,198.1L431,198.1z"/>
	<path class="st11" d="M418.5,229.9c-0.6-1.8-1.4-3.4-1.6-5.2c0-0.8-0.4-1.5-1.1-2c-1.7-1.1-3.8-1.5-5.5-2.3
		c-1.9-0.8-3.8-1.6-5.7-2.4c-0.3-0.1-0.8,0.2-0.8,0.6c0.1,2.3-0.4,4.3-1.7,6.3c-0.6,0.9-2,1.4-2.6,2.3c-0.1,0.1-0.2,0.2-0.2,0.4v0.2
		c0,0.1,0,0.2,0.1,0.3c-0.8,0.9-1.1,1.9-1.3,3.1c-0.7,2.9-1.2,5.8-2,8.7c-1.8,6.3-3.9,12.5-6.1,18.7c-2.1,6.1-5,11.6-8.8,16.8
		c-1.9,2.6-4,4.8-6.2,7.2c-2.1,2.2-4.8,3.7-6.8,6.1c-0.3,0.3-0.2,0.9,0.2,1c3.4,1.1,6.8,2.2,9.8,4.1c3.4,2,6.2,4.8,9.2,7.4
		c3,2.5,6.1,4.4,9.7,5.9c2.1,1,10.3,5.1,13.1,2.9c0.1,0,0.2-0.1,0.3-0.2c0.1-0.1,0.1-0.2,0.1-0.2c0.3-0.2,0.7-0.5,0.9-0.9
		c0.1,0,0.3-0.1,0.3-0.3c3.7-7.7,6.3-15.6,7.7-24c1.4-9.1,1.8-18.4,1.8-27.6C421.7,247.5,421.1,238.6,418.5,229.9L418.5,229.9z"/>

		<linearGradient id="SVGID_2_" gradientUnits="userSpaceOnUse" x1="-158.8356" y1="510.2393" x2="-157.8387" y2="510.2393" gradientTransform="matrix(26.7776 0 0 -53.8718 4637.2749 27738.6758)">
		<stop  offset="0" style="stop-color:#2BD1D4"/>
		<stop  offset="0.5787" style="stop-color:#24B0B3"/>
		<stop  offset="0.9984" style="stop-color:#209D9F"/>
	</linearGradient>
	<path class="st13" d="M410.7,269.6c-0.6-1.6-1.8-2.8-3.2-3.7c-1.9-1.4-7.7-4.4-6.8-7.5c0.9-3.2,2.9-6.3,4.3-9.1
		c1.6-3.2,3.1-6.4,4.1-9.7v-0.3c0.6-1.9,0.9-3.8,1-5.7c0.1-1.5-0.2-3.1-0.7-4.5c-0.4-1.7-2-2.6-2.3-4.3c-0.1-0.3-0.3-0.4-0.7-0.4
		c-0.1,0-0.2-0.1-0.3,0c-1.6,0.6-3.8,0.2-5.2,1.3c-2.1,1.7-3.2,4.4-4,6.8c-2.6,7-4.8,14.3-7.8,21.2c-0.8,1.9-1.4,3.9-2.4,5.6
		c-0.8,1.3-1.7,2.5-2.3,3.9c-0.8,1.7-0.6,3.1,0.7,4.4c0.6,0.7,1.6,1.1,2.3,1.4c2,0.8,3.8,2,5.7,3c3,1.6,6.2,3.1,9,5.2
		c0.3,0.3,0.7,0.5,1,0.7c0.1,0.2,0.3,0.3,0.6,0.3c1.6,0.1,2.6-1.6,3.2-2.8c0.9-1.5,1.7-4.1,3.2-5.1
		C410.4,270.4,410.8,270.1,410.7,269.6L410.7,269.6z"/>
	<path class="st10" d="M414.4,266c0-0.1-0.1-0.2-0.2-0.3c-0.3-0.3-3.1-2.3-3.2-2.6c-0.1-0.4-0.8-0.4-0.9,0c-1.2,3.2-2.6,6.2-4.6,9
		c-1.9,2.8-3.8,5.7-6.1,8.1c0,0,0,0.1-0.1,0.1c-0.1,0.1-0.2,0.2-0.2,0.3s0,0.2,0.1,0.3c0.3,0.8,1.3,1.2,2,1.7c1,0.8,2.1,1.3,3.2,2
		c0.1,0.3,0.6,0.3,0.9,0v-0.1c0.1-0.1,0.1-0.2,0.1-0.3c0.3-0.8,1.7-2,2.1-2.6c1.2-1.8,2.3-3.6,3.4-5.5
		C412.8,272.9,414.3,269.6,414.4,266C414.4,266.1,414.4,266,414.4,266L414.4,266z"/>
	<g>
		<path class="st14" d="M133.9,135.4h-0.3c-9.4,0-13.2-0.3-17.1-1c-5.4-1-12.1-2.9-16-9.4c-1.4-2.4-2.2-5.3-2.4-6.9
			c-0.2-1.4-0.3-3-0.2-4.4c0.3-4.1,2.1-7.9,5.2-11.2c3.2-3.4,7.2-5.7,11.3-6.4c1.3-7.6,7-13.8,14.8-15.8c1.6-0.4,3.1-0.7,4.7-0.7
			h0.4c1.6,0.1,3.1,0.3,4.7,0.7c7.7,2.1,13.3,8.1,14.7,15.8c4.1,0.8,8.2,3,11.3,6.4c3,3.3,4.9,7.2,5.2,11.2c0.1,1.4,0,2.9-0.2,4.4
			c-0.2,1.8-1,4.6-2.4,6.9c-3.8,6.5-10.5,8.4-16,9.4c-3.9,0.7-7.7,1-17.1,1H133.9L133.9,135.4z M133.9,82.8c-1.3,0-2.7,0.2-4,0.6
			c-6.8,1.8-11.8,7.5-12.5,14.3c-0.1,0.8-0.7,1.3-1.4,1.4c-3.7,0.3-7.7,2.4-10.5,5.6c-2.6,2.8-4.1,5.9-4.3,9.4
			c-0.1,1.2,0,2.3,0.2,3.5v0.1c0.2,1.5,1,4,2.1,5.8c2.4,4.3,6.5,6.6,13.8,7.8c3.3,0.6,6.4,1,16.5,1h0.3v1.5v-1.5h0.3
			c10.2,0,13.3-0.4,16.5-1c7.1-1.2,11.2-3.5,13.8-7.8c1.1-1.9,1.9-4.4,2.1-5.8v-0.1c0.2-1.2,0.3-2.4,0.2-3.5
			c-0.3-3.3-1.8-6.6-4.3-9.4c-2.9-3.2-6.9-5.3-10.5-5.6c-0.8-0.1-1.3-0.7-1.4-1.4c-0.8-6.9-5.8-12.5-12.5-14.3
			C136.6,83,135.2,82.8,133.9,82.8L133.9,82.8z"/>
		<path class="st15" d="M146,114.7c-0.7-0.6-1.6-1.5-1.6-2.1c0-0.6-0.2-1-0.7-1.3c-0.4-0.3-1.1-0.3-1.6-0.1s-0.8,0.8-0.8,1.2
			c0,0.8,0.2,1.4,0.6,2c-5,2.6-11.5,2.5-16.2-0.3c0.3-0.7,0.4-1.3,0.3-2.2c-0.1-0.9-1-1.4-1.8-1.3s-1.3,0.8-1.2,1.5
			c0.1,0.9-0.7,1.5-1.7,2.3c-0.4,0.3-0.7,0.9-0.6,1.3c0.1,0.6,0.4,1,0.9,1.2c0.2,0.1,0.3,0.1,0.6,0.1c0.3,0,0.6-0.1,0.8-0.3
			s0.6-0.4,0.8-0.7c3,1.8,6.5,2.6,10.1,2.6c3.3,0,6.7-0.8,9.5-2.3c0.2,0.2,0.4,0.4,0.7,0.6c0.2,0.2,0.6,0.3,0.9,0.3
			c0.4,0,0.9-0.2,1.1-0.6C146.8,116.2,146.8,115.2,146,114.7"/>
	</g>
	<g>
		<path class="st14" d="M75.2,247.1H75c-5.9,0-8.1-0.2-10.5-0.7c-3.3-0.6-7.4-1.8-9.8-5.7c-0.9-1.4-1.3-3.2-1.6-4.3
			c-0.2-0.9-0.2-1.8-0.1-2.6c0.2-2.5,1.3-4.8,3.2-6.9c2-2.1,4.4-3.5,7-4c0.9-4.7,4.3-8.5,9.1-9.7c0.9-0.2,1.9-0.4,2.9-0.4h0.2
			c1,0,1.9,0.2,2.9,0.4c4.7,1.2,8.2,5.1,9.1,9.7c2.6,0.4,5,1.9,7,4c1.9,2,3,4.4,3.2,6.9c0.1,0.9,0,1.8-0.1,2.6
			c-0.1,1.1-0.7,2.9-1.6,4.3c-2.3,4-6.4,5.2-9.8,5.7c-2.4,0.4-4.7,0.7-10.5,0.7L75.2,247.1L75.2,247.1z M75.2,214.7
			c-0.9,0-1.7,0.1-2.4,0.3c-4.1,1.1-7.2,4.6-7.8,8.8c0,0.4-0.4,0.8-0.9,0.9c-2.3,0.2-4.7,1.5-6.5,3.4c-1.6,1.7-2.6,3.6-2.7,5.7
			c-0.1,0.8,0,1.4,0.1,2.2c0.1,0.9,0.6,2.4,1.2,3.6c1.6,2.6,4.1,4.1,8.4,4.8c2,0.3,3.9,0.6,10.2,0.6h0.2v1v-1h0.2
			c6.2,0,8.2-0.2,10.2-0.6c4.4-0.8,6.9-2.2,8.4-4.8c0.7-1.2,1.1-2.6,1.2-3.6c0.1-0.8,0.2-1.4,0.1-2.2c-0.2-2.1-1.1-4.1-2.7-5.7
			c-1.8-2-4.2-3.2-6.5-3.4c-0.4,0-0.8-0.4-0.9-0.9c-0.6-4.3-3.6-7.7-7.8-8.8C76.8,214.8,76,214.7,75.2,214.7z"/>
		<path class="st15" d="M82.6,234.3c-0.4-0.3-1-1-0.9-1.3c0-0.3-0.1-0.7-0.3-0.8c-0.3-0.2-0.7-0.2-1,0c-0.3,0.1-0.4,0.4-0.6,0.8
			c0,0.4,0.1,0.9,0.3,1.2c-3.1,1.7-7.1,1.5-10-0.2c0.2-0.3,0.3-0.8,0.2-1.3s-0.7-0.9-1.1-0.8c-0.4,0.1-0.8,0.4-0.8,0.9
			c0.1,0.6-0.4,1-1,1.4c-0.2,0.2-0.4,0.6-0.3,0.9c0,0.3,0.2,0.7,0.6,0.8c0.1,0,0.2,0.1,0.3,0.1c0.2,0,0.3-0.1,0.6-0.2
			c0.1-0.1,0.3-0.2,0.6-0.4c1.8,1.1,4,1.6,6.2,1.6c2.1,0,4.1-0.4,5.9-1.4c0.1,0.1,0.2,0.2,0.4,0.3c0.1,0.1,0.3,0.2,0.6,0.2
			s0.6-0.1,0.7-0.3C83.1,235.3,83.1,234.8,82.6,234.3"/>
	</g>
	<g>
		<path class="st14" d="M417.3,140.1h-0.3c-9.4,0.1-13.2-0.2-17.1-0.9c-5.4-0.9-12.2-2.8-16-9.2c-1.4-2.4-2.2-5.3-2.4-6.9
			c-0.3-1.4-0.3-3-0.2-4.4c0.3-4.1,2.1-7.9,5.1-11.2c3.1-3.4,7.2-5.7,11.3-6.5c1.3-7.6,7-13.8,14.7-15.8c1.6-0.4,3.1-0.7,4.7-0.8
			h0.4c1.6,0,3.1,0.2,4.7,0.7c7.7,2,13.4,8,14.8,15.7c4.1,0.7,8.2,3,11.4,6.4c3.1,3.3,4.9,7.2,5.2,11.1c0.1,1.4,0.1,2.9-0.2,4.4
			c-0.2,1.8-1,4.6-2.4,7c-3.8,6.5-10.4,8.5-15.9,9.5c-3.9,0.7-7.7,1.1-17.1,1.1L417.3,140.1L417.3,140.1z M416.8,87.5
			c-1.3,0.1-2.7,0.2-4,0.7c-6.8,1.9-11.7,7.5-12.4,14.4c-0.1,0.8-0.7,1.3-1.4,1.4c-3.7,0.4-7.7,2.5-10.5,5.6c-2.6,2.8-4,6.1-4.3,9.4
			c-0.1,1.2,0,2.3,0.2,3.5v0.1c0.2,1.5,1,4,2.1,5.8c2.6,4.2,6.7,6.5,13.8,7.7c3.3,0.6,6.4,0.9,16.5,0.9h0.3v1.5V137h0.3
			c10.2-0.1,13.3-0.4,16.5-1.1c7.1-1.3,11.2-3.6,13.7-7.9c1.1-1.9,1.8-4.4,2-5.9v-0.1c0.2-1.2,0.2-2.4,0.2-3.5
			c-0.3-3.3-1.9-6.6-4.4-9.2c-2.9-3.1-6.9-5.2-10.7-5.5c-0.8-0.1-1.3-0.7-1.4-1.4c-0.9-6.9-5.9-12.4-12.7-14.2
			C419.5,87.7,418.2,87.5,416.8,87.5L416.8,87.5z"/>
		<path class="st15" d="M429.2,119.3c-0.7-0.6-1.6-1.5-1.6-2.1c0-0.6-0.2-1-0.7-1.3s-1.1-0.3-1.6-0.1s-0.8,0.8-0.8,1.3
			c0,0.8,0.2,1.4,0.6,2c-5,2.6-11.5,2.5-16.2-0.2c0.3-0.7,0.4-1.3,0.3-2.2c-0.1-0.9-1-1.4-1.8-1.3s-1.2,0.8-1.2,1.5
			c0.1,0.9-0.7,1.5-1.7,2.3c-0.4,0.3-0.7,0.9-0.6,1.4c0.1,0.6,0.4,1,0.9,1.2c0.1,0.1,0.3,0.1,0.6,0.1c0.3,0,0.6-0.1,0.8-0.3
			c0.2-0.2,0.6-0.4,0.8-0.7c3,1.8,6.5,2.6,10.2,2.6c3.3,0,6.7-0.9,9.5-2.4c0.2,0.2,0.4,0.3,0.7,0.6s0.6,0.3,0.9,0.3
			c0.4,0,0.9-0.2,1.1-0.6C429.9,120.8,429.9,119.9,429.2,119.3"/>
	</g>
	<g>
		<path class="st14" d="M265.5,174.7h-0.3c-9.4,0-13.2-0.3-17.1-1c-5.4-1-12.1-2.9-16-9.4c-1.4-2.4-2.2-5.3-2.4-6.9
			c-0.2-1.4-0.3-3-0.2-4.4c0.3-4.1,2.1-7.9,5.2-11.2c3.2-3.4,7.2-5.7,11.3-6.4c1.3-7.6,7-13.8,14.8-15.8c1.6-0.5,3.2-0.7,4.9-0.7
			h0.2c1.6,0.1,3.1,0.3,4.7,0.7c7.7,2.1,13.3,8.1,14.7,15.8c4.1,0.8,8.2,3,11.3,6.4c3,3.3,4.9,7.2,5.2,11.2c0.1,1.4,0,2.9-0.2,4.4
			c-0.2,1.8-1,4.6-2.4,6.9c-3.8,6.5-10.5,8.4-16,9.4c-3.9,0.7-7.7,1-17.1,1H265.5z M265.5,122.1c-1.3,0-2.7,0.2-4,0.6
			c-6.8,1.8-11.8,7.5-12.5,14.3c-0.1,0.8-0.7,1.3-1.4,1.4c-3.7,0.3-7.7,2.4-10.5,5.6c-2.6,2.8-4.1,5.9-4.3,9.4
			c-0.1,1.2,0,2.3,0.2,3.5v0.1c0.2,1.5,1,4,2.1,5.8c2.4,4.3,6.5,6.6,13.8,7.8c3.3,0.6,6.4,1,16.5,1h0.3v1.5v-1.5h0.3
			c10.2,0,13.3-0.4,16.5-1c7.1-1.2,11.2-3.5,13.8-7.8c1.1-1.9,1.9-4.4,2.1-5.8v-0.1c0.2-1.2,0.3-2.4,0.2-3.5
			c-0.3-3.3-1.8-6.6-4.3-9.4c-2.9-3.2-6.9-5.3-10.5-5.6c-0.8-0.1-1.3-0.7-1.4-1.4c-0.8-6.9-5.8-12.5-12.5-14.3
			C268.2,122.3,266.9,122.1,265.5,122.1L265.5,122.1z"/>
		<path class="st15" d="M277.6,154c-0.7-0.6-1.6-1.5-1.6-2.1c0-0.6-0.2-1-0.7-1.3s-1.1-0.3-1.6-0.1s-0.8,0.8-0.8,1.2
			c0,0.8,0.2,1.4,0.6,2c-5,2.6-11.5,2.5-16.2-0.3c0.3-0.7,0.4-1.3,0.3-2.2c-0.1-0.9-1-1.4-1.8-1.3c-0.8,0.1-1.3,0.8-1.2,1.5
			c0.1,0.9-0.7,1.5-1.7,2.3c-0.4,0.3-0.7,0.9-0.6,1.3c0.1,0.6,0.4,1,0.9,1.2c0.1,0.1,0.3,0.1,0.6,0.1c0.3,0,0.6-0.1,0.8-0.3
			s0.6-0.4,0.8-0.7c3,1.8,6.5,2.6,10.1,2.6c3.3,0,6.7-0.8,9.5-2.3c0.2,0.2,0.4,0.4,0.7,0.6c0.2,0.2,0.6,0.3,0.9,0.3
			c0.4,0,0.9-0.2,1.1-0.6C278.4,155.5,278.4,154.5,277.6,154"/>
	</g>
	<path class="st1" d="M197.3,354.5c-21.1-3.5-42.4-2-63.7-0.1h-0.2c-0.8-0.1-1.6-0.1-2.3-0.2c-2.3-0.2-4.2,2.1-4.2,4.2
		c0,2.4,2,4,4.2,4.2c21.6,2.1,43.5,2.1,65.2,0.2c2.1-0.2,3.9-1.4,4.2-3.6C200.6,357.2,199.4,354.9,197.3,354.5L197.3,354.5z"/>
	<path class="st16" d="M183.6,355c-1.9-0.9-3.3-2.4-4.7-4.2c-0.6-0.8-1-2-1.8-2.5c-0.9-0.5-1.9-0.4-2.9-0.4
		c-1.3,0.1-2.6-0.4-3.9-0.3c-2.1,0.1-2.3,2-2.7,3.7c0,0.1,0,0.2,0.1,0.3v0.2c-0.3,1.2-0.7,2.6,0.1,3.7c0.6,0.8,2.1,1.1,3,1.4
		c1.4,0.7,3,1.1,4.4,1.8c2.4,1,4.9,1.8,7.4,1.5c1.4-0.1,4.2-0.9,4.6-2.6C187.6,356,184.6,355.6,183.6,355L183.6,355z M123.4,355.6
		c0.1,1.8,2.7,3,4,3.3c2.6,0.5,5.1,0.2,7.7-0.3l4.7-1c0.9-0.2,2.6-0.3,3.1-1c1-1,0.9-2.4,0.7-3.6v-0.2c0.1-0.1,0.1-0.1,0.1-0.3
		c0-1.8,0.1-3.7-2-4.1c-1.2-0.2-2.6,0-3.9-0.2c-1-0.2-1.9-0.4-2.9,0c-0.9,0.4-1.6,1.5-2.2,2.2c-1.6,1.4-3.2,2.8-5.2,3.3
		C126.4,353.8,123.4,353.8,123.4,355.6L123.4,355.6z"/>
	<path class="st11" d="M177.5,347.3c-0.7-6.2-0.2-12.8,0-18.9c0.2-6.5-0.3-13.1-0.6-19.6c-0.3-12.9-0.9-26.6-3.9-39.1
		c-0.1-0.4-0.7-0.7-1.1-0.8c-5.9-0.2-11.2,1.3-16.9,2.5v22.7c1.4,7.4,3.4,14.6,5.4,21.7c3.2,11.1,4,23.1,8.1,33.9
		c0.1,0.3,0.4,0.7,0.8,0.7c2.9,0.3,8.1,1.6,8.3-2.3C178,347.7,177.7,347.5,177.5,347.3L177.5,347.3z"/>
	<path class="st11" d="M134.3,347.2c0.6-6.2,0-12.8-0.3-18.9c-0.4-6.5,0.1-13.1,0.1-19.6c0-12.9,0.3-26.6,3-39.2
		c0.1-0.4,0.7-0.8,1-0.8c5.9-0.3,11.2,1.1,16.9,2.1l0.4,22.7c-4.7,5.9-5.3,16-6.3,23.2c-1.7,11.8-2.2,21.8-6.1,32.7
		c-0.1,0.3-0.4,0.7-0.8,0.7c-2.9,0.4-8,1.9-8.4-2.2C134,347.7,134.1,347.3,134.3,347.2L134.3,347.2z"/>
	<path class="st16" d="M110.8,281.7c-0.3-1.1-0.2-6.6-2.3-6.3c-1.8,0.3-3.6,0.9-5.3,1.5c-1.3,0.4-3,0.4-3.8,1.7
		c-0.3,0.4-0.1,0.9,0.4,1c-0.9,0.3-1.9,0.7-2.4,1.6c-0.2,0.3,0.1,0.8,0.4,0.9c0.2,0,0.4,0,0.7-0.1c-1,0.7-1.9,1.4-1.6,2.5
		c0.3,0.8,1,0.8,1.8,0.5c-0.8,1-1.3,2.2-0.2,2.6c0.9,0.4,2.4-0.7,3.2-1c1.1-0.5,1.9-1.4,2.9-2.2c-0.7,1.4-1.4,3.4,0.1,3.7
		c0.8,0.1,1.3-0.7,1.9-1.1c1.4-1.5,2.9-3.1,4.3-4.7C111.1,282.3,111,282,110.8,281.7L110.8,281.7z"/>
	<path class="st17" d="M132.9,242.6c0.4-1.1,1-2.1,1.7-2.9c1-1.1-0.8-2.4-1.7-1.4c-2.1,2.3-2.8,6.7-3.8,9.7
		c-1.3,4.2-2.6,8.1-4.9,11.9c-3.3,5.5,4.6,6.4,8.1,6.4c1.7,0,3.8,0.4,4.7-1.6c2.1-4.5,3.3-8.7,4.3-13.6
		C142.4,245.9,136.8,243.1,132.9,242.6L132.9,242.6z"/>
	<path class="st17" d="M136.5,264.4c-0.8-1.8-3.1-1.4-4.6-1.2c-1.6,0.2-2.9,0-4.3-0.7c-0.6-0.2-0.9-0.3-1.1-0.3
		c0.3-0.1,0.6-0.3,0.7-0.7c0.1-0.5-0.4-1.1-0.9-1.1H126h-0.4c-0.4-0.1-1,0-1.3,0.4c-2.9,4.2-6.3,7.4-10.1,10.8
		c-0.9,0.8-1.8,1.5-2.6,2.3l-0.3-0.3c-0.4-0.3-1-0.4-1.6-0.2h-0.1c-0.3,0-0.6,0.2-0.8,0.5c-0.3,0.5-0.4,1-0.2,1.4
		c0,0.1,0.1,0.3,0.2,0.4v0.1c0.6,1.1,1.1,2,1.3,3.3c0.2,1.4-0.1,3.1,0.7,4.4c0.8,1.2,2.1,0.2,2.4-0.7c0-0.1,0.1-0.3,0.1-0.5
		c0.9-0.4,1.9-0.8,2.9-1.1c3.4-0.4,7.2-2.5,9.4-3.6c3.4-1.6,6.5-3.6,8.8-6.7C135.3,269.6,137.2,266.1,136.5,264.4L136.5,264.4z"/>
	<path class="st18" d="M151.9,221.3c2.7-3.3,3.3-7,1.6-10.9c-0.4-1-1.1-1.8-1.6-2.8c-0.6-1.2,0.2-2.8,0.7-4c0.2-0.7,0.6-1.5,0.4-2.3
		c-0.2-0.9-0.6-1.8-0.8-2.6v-0.1c0-0.3-0.1-0.6-0.2-0.8v-0.1c0-0.1,0-0.1-0.1-0.2c-0.9-2.2-3.4-2.8-5.8-2.5
		c-1.6,0.1-3.1,0.6-4.3,1.3c-2,1.2-1,3.5-2.7,5c-0.9,0.8-2.1,1.2-3,1.7c-0.8,0.4-1.4,1.1-2.1,1.8c-1.4,1.5-2.4,3.4-3.1,5.3
		c-0.6,1.5-0.9,3.5-0.1,5c1,1.9,3.7,3.4,3.2,5.7c-0.2,1.4-1.8,1.3-2.6,2.1c-0.7,0.7-1.6,1.2-2.1,2c-0.6,0.9-1.7,2.4-0.7,3.4
		c0.2,0.2,0.2,0.2,0.6,0.4c0.8,0.6,0.4,1.5,0,2.2c-0.6,0.8-0.9,1.3-1.2,2.3c-0.6,1.5-0.4,3.6,0.2,5.1c1.9,3.5,7,4.7,10.7,5.4
		c2.1,0.3,4.3,0.4,6.5,0.2c1.7-0.1,2.6-0.7,3.3-2.2c0.2-0.6,0.4-2.4,0-2.8c-1-1,0.6-1.5,1.1-2c0.6-0.4,0.9-1.3,1.2-2
		c0.9-1.9,1.2-4.1,1-6.2C152.1,226.2,150.3,223.3,151.9,221.3L151.9,221.3z"/>
	<path class="st18" d="M156.2,224.2c-0.2,2.1,0.1,4.2,1,6.2c0.3,0.7,0.7,1.5,1.2,2s2.1,1.1,1.1,2c-0.4,0.4-0.3,2.3,0,2.8
		c0.8,1.5,1.7,2.1,3.3,2.2c2.2,0.2,4.3,0.2,6.5-0.2c3.7-0.7,8.8-1.9,10.7-5.4c0.8-1.4,0.8-3.5,0.2-5.1c-0.3-0.9-0.8-1.5-1.2-2.3
		c-0.4-0.7-0.8-1.8,0-2.2c0.2-0.1,0.3-0.2,0.6-0.4c1-1,0-2.6-0.7-3.4c-0.6-0.8-1.4-1.3-2.1-2c-0.9-0.8-2.3-0.7-2.6-2.1
		c-0.4-2.3,2.3-3.9,3.2-5.7c0.8-1.4,0.4-3.4-0.1-5c-0.7-1.9-1.7-3.7-3.1-5.3c-0.7-0.7-1.3-1.3-2.1-1.8c-1-0.6-2.2-1-3-1.7
		c-1.6-1.4-0.7-3.6-2.7-5c-1.3-0.8-2.9-1.2-4.3-1.3c-2.3-0.1-5,0.4-5.8,2.5c0,0-0.1,0.1-0.1,0.2v0.1c-0.1,0.2-0.1,0.6-0.2,0.8v0.1
		c-0.2,0.9-0.6,1.8-0.8,2.6c-0.1,0.7,0.2,1.6,0.4,2.3c0.4,1.2,1.2,2.8,0.7,4c-0.4,1-1.1,1.8-1.6,2.8c-1.8,3.9-1.1,7.6,1.6,10.9
		C158.2,219,156.3,221.9,156.2,224.2L156.2,224.2z"/>
	<path class="st17" d="M177.3,242.2c0-0.3-1.2-4.6-1.3-5.2c-0.6-1.8-1.1-3.4-2.6-4.7c-2.6-2.3-6.5-2.9-9.9-3.2
		c-4.9-0.6-10-0.6-14.9,0c-3.9,0.4-8.2,0.4-11.5,2.4c-0.3,0.2-2.4,1.8-2.8,2.1c-1,1.2-1.6,2.9-2.2,4.4c-0.1,0.2-0.4,1.2-0.6,1.9
		c-0.2,1-0.4,2.2-0.4,2.5c0.1,0.9,0.3,1.8,0.9,2.4c0.2,0.2,0.4,0.4,0.7,0.6c2.2,2,6,2.4,8.8,3c4.2,0.9,8.8,0.8,13.1,0.8
		c4.4,0.1,8.8,0.2,13.2,0c1.9-0.1,6.7,0.3,7.9-1.8c0.3-0.2,0.7-0.7,1-1.1C177.6,244.9,177.5,243.6,177.3,242.2z"/>
	<path class="st16" d="M170.4,205.1c-3.3-5.9-12-9.5-18.8-7.7c0.6-0.3,0-1.1-0.6-0.8c-3.6,2.1-7.2,4.2-9.5,7.6
		c-2.4,3.6-2.1,8.6-0.7,12.5c1.7,4.6,5.2,7.7,9.4,9c0.2,1,0.1,0.3,0.2,1.3c0,1.2-0.6,2.3-0.4,2.6c0.1,0.4,0.3,0.9,1.7,1.6
		c2.2,1.1,5.8,1.2,8.7-0.2c0.7-0.3,1.3-0.8,1.2-1.8c-0.2-0.9-0.6-0.7-0.3-3.6c0.4-0.1,0.8-0.2,1.2-0.4
		C170.1,222.3,174.6,212.6,170.4,205.1L170.4,205.1z"/>
	<path class="st19" d="M159.1,220.8c0-0.3-0.2-0.4-0.4-0.3c-1.2,0.2-2.4,0.1-3.7,0.1c-0.8,0-1.6-0.1-2.3-0.1h-0.1
		c-0.1,0-0.2,0.1-0.3,0.2c0,0-0.1,0.1,0,0.3c0,0.3,0.3,0.8,0.3,0.8c0.1,0.3,0.3,0.4,0.6,0.7c0.6,0.6,1.4,0.8,2.2,0.8
		c1.1,0.1,2.4-0.4,3.2-1.3C158.8,221.7,159.1,221.2,159.1,220.8L159.1,220.8z"/>
	<path class="st20" d="M161.5,229.4c0.2,1.1-0.6,1.4-1.2,1.8c-1.6,0.8-3.2,1.1-4.8,1.1c-1.4,0-2.8-0.3-3.9-0.9
		c-1.4-0.8-1.7-1.2-1.7-1.7c0-0.2,0.1-0.6,0.2-1c-0.3,0-0.8,0.1-1.1,0.1c-0.1,0.3-0.2,0.7-0.1,1c0.1,1,0.8,1.6,2.2,2.4
		c1.2,0.7,2.8,1,4.4,1c1.9,0,3.7-0.4,5.2-1.2c0.7-0.3,2.1-1.1,1.8-3c0-0.1,0-0.2-0.1-0.3c-0.4,0-0.8-0.1-1.2-0.1
		C161.4,229,161.5,229.1,161.5,229.4L161.5,229.4z M167.5,207.6c-1.7-0.3-3.4-0.4-5.1-0.3c-0.3,0-0.7,0.1-0.9,0.2
		c-1,0.1-1.9,0.3-2.8,1.1c-0.9,0.9-1.4,2.3-1.3,4.2c0.1,2.8,2,4.6,4.8,4.6c0.2,0,0.6,0,0.9-0.1c1.3-0.2,2.8-1.1,3.7-2.3
		c0.3-0.4,0.6-1,0.8-1.4c0.4-1,0.8-2.1,0.9-3.4C168.5,209.2,168.9,207.8,167.5,207.6L167.5,207.6z"/>
	<path class="st21" d="M167,211.4c-0.3-1.9-2.4-3.4-4.3-3.2c0,0-0.1-0.1-0.2-0.1c-1.2,0-2.3,0.2-3.3,1c-1,0.9-1.2,2.4-1.1,3.6
		c0.1,2.6,2.2,4.3,4.9,4C165.3,216.4,167.4,213.8,167,211.4L167,211.4z"/>
	<path class="st20" d="M143.2,210.2c0.2,1.3,0.4,2.3,0.9,3.4c0.2,0.6,0.4,1,0.8,1.4c0.9,1.2,2.3,2.1,3.7,2.3c0.3,0,0.6,0.1,0.9,0.1
		c2.7,0,4.7-1.9,4.8-4.6c0.1-1.9-0.4-3.3-1.3-4.2c-0.9-0.8-1.8-1-2.8-1.1c-0.3-0.1-0.7-0.1-0.9-0.2c-1.7-0.1-3.6,0-5.1,0.3
		C142.7,207.8,143.1,209.2,143.2,210.2L143.2,210.2z"/>
	<path class="st21" d="M148.6,216.7c2.7,0.3,4.8-1.2,4.9-4c0-1.2-0.1-2.8-1.1-3.6c-0.9-0.9-2.1-1-3.3-1c-0.1,0-0.1,0-0.2,0.1
		c-1.9-0.2-4,1.3-4.3,3.2C144.1,213.8,146.2,216.4,148.6,216.7L148.6,216.7z"/>
	<path class="st20" d="M158.1,211.7c-0.6-0.8-1.1-1.4-2.1-1.4c-0.8-0.1-2.1,0.7-2.4,1.3c-0.2,0.4,0.4,0.7,0.7,0.3
		c0.2-0.4,0.9-0.7,1.3-0.9c0.9-0.3,1.6,0.4,2,1.1C157.7,212.4,158.3,212.1,158.1,211.7L158.1,211.7z M149.7,215.2
		c-1.8,0.1-3.4-1.9-3.4-3.5c0-0.4-0.8-0.4-0.8,0c0.1,2.1,2,4.3,4.2,4.2C150.1,215.7,150.1,215.1,149.7,215.2L149.7,215.2z
		 M163.9,215.1c-2,0-3.9-0.9-4-3.1c0-0.4-0.8-0.4-0.8,0c0.1,2.5,2.3,3.6,4.7,3.6C164.3,215.7,164.3,215.1,163.9,215.1L163.9,215.1z"
		/>
	<path class="st22" d="M174.3,205.6c-0.3-0.7-0.8-1.3-1.2-1.9c-1.1-1.2-1.8-2.2-2.2-3.6c-1.2-3.7-4.7-6.6-8.3-7.9
		c-1-0.3-2-0.7-3.1-0.9c-0.2,0-0.3,0-0.6-0.1c-4-3.7-11.7-2-16.1-0.2c-3.2,1.3-5.8,3.2-7.9,5.8c-2.1,2.8-2.7,6.4-3.2,9.7
		c-0.3,1.6-0.7,3.2-1.6,4.6c-1,1.4-2.8,1.9-4.1,2.6c-2.1,1.1-2.8,3.6-1.7,5.7c0.7,1.2,1.7,2.3,2.6,3.3c0.7,0.8,1.6,1.9,0,2.4
		c-0.6,0.2-1.1,0.2-1.7,0.3c-1.1,0.2-1.6,0.6-2.3,1.4c-1,1.2-0.2,2.1,0,3.3c-0.1,0.1-0.2,0.2-0.1,0.3c1.9,5.2,8.1,5,12.4,3.3
		c4.9-1.8,9.1-6.3,9.7-11.6c0.3-3.1-0.6-5.9-2.3-8.5c-2.6-3.7-1.7-7.8,2.2-10.2c1.6-1,3.4-1.2,5.2-1.8c1.4-0.4,2.8-1.2,3.9-2.2
		c0.6-0.4,1.1-1,1.6-1.6c1,2.4,3,4.7,5.2,5.9c3.2,1.7,8,2.6,9.9,5.9c0,0.2,0.1,0.4,0.1,0.7c0,0,0,0.1-0.1,0.1
		c-0.6,1.1-1.4,1.9-1.4,3.1c0,0.6,0.1,1,0.2,1.5c0.3,1.3-0.3,2.1-1.2,3c-0.7,0.7-1.6,1.3-2,2.2c-0.9,1.9-0.2,3.9,1.8,4.7
		c1.4,0.7,3.3,0,3.9-1.4c0.1-0.4-0.6-0.6-0.7-0.2c-0.8,1.9-3.3,1.1-4.2,0c-1.1-1.4,0-3.2,1.1-4.3c0.1-0.1,0.3-0.2,0.4-0.3
		c-0.9,1.3-1.9,3-0.6,4.2c0.2,0.1,0.4,0.1,0.6,0c0.2,0,0.6-0.2,0.3-0.4s3.2-4,3.4-4.2c1.4-2,2.4-4.3,3-6.7
		C175.4,209.9,175.2,207.6,174.3,205.6L174.3,205.6z M160.2,201.6c0.6,0.4,1.2,0.8,1.9,1.1l-1.7-0.7c-1-0.4-1.9-1.2-2.7-2.1
		c-0.3-0.3-0.7-0.8-1-1.2c0.1,0,0.1,0.1,0.2,0.1C158.2,200.1,159.8,201.2,160.2,201.6L160.2,201.6z M166.1,205.9
		c-2.1-0.9-4.6-1.8-6.4-3.1c-0.8-0.6-1.4-1.3-2.1-2.2c1,1.2,2.6,1.9,4,2.4c2.8,1.1,5.9,2.4,8.1,4.5c0.1,0.2,0.2,0.4,0.2,0.7
		C168.9,207.3,167.6,206.6,166.1,205.9z"/>
	<path class="st17" d="M174.5,276.8c0.1-1.2-0.3-2.9-0.9-4.5c0.2-3.1-0.6-6.1-1.3-9.1c-1.6-6.3-2-12.5-1.3-19c0.1-1-0.8-1.3-1.4-1.1
		c-1.1-2-2.7-2.8-5.1-2.3c-8.5,1.6-17.1,4.1-25.6,1.5c-1-0.3-1.7,1-1.2,1.8c-0.3,0.2-0.6,0.4-0.4,1c0.1,2.9,0.7,5.3,1.4,7.9
		c1.4,5.5-0.7,11.7-1.9,16.9c-0.2,0.8-0.2,1.5-0.2,2.3c-0.3,1.2-0.4,2.4-0.6,3.6c-0.1,0.3-0.1,0.8-0.1,1.1v0.5
		c0.4,2.3,3.4,3.6,7,4.4c4.9,2,12,1.8,17.5,1.4c1,0,2.1,0,3.1-0.2c0.4,0,0.9-0.1,1.3-0.1c2.8-0.2,6.7-1.4,9.2-2.8
		C174.7,279.5,174.7,278.2,174.5,276.8z"/>
	<path class="st21" d="M196.1,226.9c-0.1-0.1-0.1-0.1-0.2-0.1s-0.1-0.1-0.2-0.1c-0.3-0.3-0.9-0.2-1.3,0c-0.3,0.1-0.6,0.3-0.6,0.7
		c0-0.1,0-0.1,0,0c-0.1,0.1-0.1,0.2-0.2,0.3c-0.1,0.2-0.2,0.6-0.1,0.8c0.1,0.6,0.6,0.8,1.1,0.8c0.3,0.1,0.8,0,1,0
		c0.3,0,0.7-0.2,0.8-0.4c0.2-0.1,0.3-0.3,0.3-0.6C196.7,227.7,196.4,227.3,196.1,226.9z"/>

		<linearGradient id="SVGID_3_" gradientUnits="userSpaceOnUse" x1="-155.4221" y1="508.5213" x2="-154.8057" y2="508.1675" gradientTransform="matrix(17.5745 0 0 -24.0489 2900.97 12478.8613)">
		<stop  offset="0.1089" style="stop-color:#FD9E2A"/>
		<stop  offset="0.238" style="stop-color:#FDA130"/>
		<stop  offset="0.4155" style="stop-color:#FDAA42"/>
		<stop  offset="0.6211" style="stop-color:#FDB85F"/>
		<stop  offset="0.8461" style="stop-color:#FECB87"/>
		<stop  offset="1" style="stop-color:#FEDBA7"/>
	</linearGradient>
	<path class="st23" d="M180.9,253c-1.4-3.4-2.3-6.8-3.4-10.3c-0.1-0.4-0.7-0.7-1-0.6c-1.2,0.3-2.2,0.8-3.3,1.3
		c-0.3,0.1-4.1,1.9-4.9,1.4c-0.6-0.3-1.2,0.1-1.4,0.5c-0.3,0.1-0.7,0.6-0.6,1c1.1,6.1,3.4,11.6,5.7,17.3c1.4,3.9,5,2.2,7.8,1.4
		c2-0.5,4.3-2.8,4.1-5.2C183.3,258,181.6,255,180.9,253L180.9,253z"/>
	<path class="st18" d="M188,224c-0.4-0.1-0.8,0-1,0.2c-0.4,0-0.8,0.3-0.9,0.9c-0.1,1.4-0.1,2.8-0.3,4.2c-0.1,0.4,0,4.4,0.1,4.8
		c0.2,1.1,0-4.3-2.8-8.5c-1.1-1.7-2.2,0.1-2,0.6c0.7,1.8,2.8,9.1,2.8,10.9v0.2c0,0.2-0.1,0.3,0.1,0.4c-0.1,0.4,0.3,0.9,0.9,1
		l0.3,0.1h0.6c0.8,0.1,1.6,0.4,2.3,0.7c1.4,0.4,2.7,1.3,4,1.6h0.2c0.4,0.2,0.9,0.1,1.1-0.3c1.9-3.2,2-8.9,0.9-12.4
		c-0.7-2.2-2.1-2.8-3.3-1.9c-0.2-0.7-0.4-1.2-0.9-1.8c-0.3-0.4-0.9-0.4-1.3-0.2C188.5,224.2,188.2,224.1,188,224L188,224z"/>

		<linearGradient id="SVGID_4_" gradientUnits="userSpaceOnUse" x1="-157.7085" y1="509.3116" x2="-157.3163" y2="509.1685" gradientTransform="matrix(23.5836 0 0 -32.3303 3897.0227 16716.5566)">
		<stop  offset="0.2277" style="stop-color:#FD9E2A"/>
		<stop  offset="0.995" style="stop-color:#FEDBA7"/>
	</linearGradient>
	<path class="st24" d="M193.6,243.6c0.2-0.9,1.1-3.3,0.4-4.4c-1.3-2.1-6.1-1.8-8.2-1.8c-2.6,0.1-2.7,1.8-2.9,3.5
		c-0.4,0.7-0.8,1.5-0.9,2.9c-0.8,8.5-10,8.6-11.3,16.5c-0.1,0.3,0.1,0.7,0.2,0.9c0,2.3,2.2,5.7,2.3,5.8c2.1,3.3,6.5,3.5,9.1,1
		c0.1-0.1,0.2-0.2,0.3-0.4c2.1-1.9,3.8-4.4,5-6.6c0.9-1.5,1.7-3.4,2.3-5.3c0.4-1,0.8-2,1.1-2.9C192.3,249.8,192.8,246.6,193.6,243.6
		z"/>
	<path class="st18" d="M196.6,230.6c-0.7-0.1-1.4,0.2-1.9,0.7c-0.3,0.2-0.2,0.8,0.1,1v0.1c-0.1,0.1-0.3,0.1-0.4,0.2
		c-0.2,0.1-0.4,0.3-0.7,0.6c-0.1,0.1-0.1,0.2-0.1,0.3v0.1h-0.1c-0.1,0.2-0.2,0.3-0.2,0.6c0,0.7,1,0.7,1.3,0.3
		c0.1-0.1,0.1-0.2,0.2-0.3c0.2-0.2,0.4-0.3,0.7-0.4c0.8-0.3,1.7-0.7,1.9-1.4C197.9,231.3,197.4,230.7,196.6,230.6L196.6,230.6z
		 M194.6,223.5c-0.7-0.1-1.4,0.2-1.9,0.7c-0.3,0.2-0.2,0.8,0.1,1v0.1c-0.1,0.1-0.3,0.1-0.4,0.2c-0.2,0.1-0.4,0.3-0.7,0.6
		c-0.1,0.1-0.1,0.2-0.1,0.3v0.1h-0.1c-0.1,0.2-0.2,0.3-0.2,0.6c0,0.7,1,0.7,1.3,0.3c0.1-0.1,0.1-0.2,0.2-0.3
		c0.2-0.2,0.4-0.3,0.7-0.4c0.8-0.3,1.7-0.7,1.9-1.4C195.9,224.4,195.4,223.7,194.6,223.5L194.6,223.5z M193.9,217.8
		c-0.8-0.2-1.4,0.2-2,0.7c-0.1,0.1-0.3,0.2-0.4,0.3l-0.2,0.1c-0.1,0.1-0.3,0.1,0,0c-0.8,0.1-1.6,0.9-0.9,1.5
		c0.2,0.3,0.6,0.4,0.8,0.4c0,0,0,0.1,0.1,0.1h0.1c0.1,0.2,0.2,0.3,0.4,0.3c0.1,0.1,0.2,0.2,0.4,0.3c0.6,0.2,1.1-0.1,1.4-0.6
		c-0.1,0.2,0.1-0.1,0.1-0.1l0.3-0.3c0.1-0.1,0.1-0.2,0.2-0.3c0.4-0.4,0.8-1,0.8-1.6C195.1,218.2,194.5,217.8,193.9,217.8
		L193.9,217.8z"/>
	<path class="st7" d="M190.5,216.3l-7.2,1.5c-1.1,0.2-1.8,1.2-1.6,2.3l3,14.4c0.2,1.1,1.2,1.8,2.3,1.5l7.2-1.5
		c1.1-0.2,1.8-1.2,1.6-2.3l-3-14.4C192.6,216.8,191.6,216,190.5,216.3"/>
	<path class="st25" d="M190.5,216.3l-7.2,1.5c-1.1,0.2-1.8,1.2-1.6,2.3l3,14.4c0.2,1.1,1.2,1.8,2.3,1.5l7.2-1.5
		c1.1-0.2,1.8-1.2,1.6-2.3l-3-14.4C192.6,216.8,191.6,216,190.5,216.3L190.5,216.3z M191,233.3c-0.2,0.3-0.7,0.4-1,0.2
		c-0.1-0.1-0.2-0.3-0.3-0.4c0-0.2,0-0.4,0.1-0.6c0.2-0.3,0.7-0.4,1-0.2C191.1,232.4,191.2,233,191,233.3z M193.9,229.9l-8.2,1.6
		l-2.3-11.1l8.2-1.6L193.9,229.9z"/>
	<path class="st18" d="M196.2,226.9c-0.1-0.1-0.1-0.1-0.1-0.2l-0.1-0.1c-0.2-0.3-0.7-0.3-1,0c-0.2,0.1-0.3,0.3-0.3,0.7
		c0-0.1,0-0.1,0,0s-0.1,0.2-0.1,0.3c-0.1,0.2-0.1,0.6-0.1,0.8c0.1,0.6,0.4,0.8,0.8,0.9c0.2,0.1,0.6,0.1,0.8,0c0.2,0,0.4-0.2,0.6-0.4
		c0.1-0.2,0.2-0.3,0.2-0.6C196.7,227.7,196.5,227.3,196.2,226.9L196.2,226.9z"/>
	<path class="st26" d="M67.2,368.8c0-0.5-0.7-0.7-1-0.3h-0.1c-1.3,0.1-2.7,0.4-4.1,0.7c-1.1,0.1-2.2,0.2-3.3,0.2
		c-0.2-0.2-0.7-0.2-0.8,0c-0.1,0-0.2,0.1-0.2,0.3c-0.3,2-1.1,3.7-1.6,5.6c-0.3,1.1-0.1,2.1,0.8,2.9c1,0.8,2.8,0.7,4,0.7
		c2.3,0,4.8-0.3,7.1-0.7c2-0.3,6.4-1.2,6.4-4C74.3,371.2,67.4,372.4,67.2,368.8z M104.6,351.5c-2.8-2.8-6,1.1-8.5,2.1
		c-0.2,0.1-0.2,0.2-0.3,0.3c-0.1,0-0.3,0-0.4,0.1c-0.8,0.7-0.4,1.5-0.6,2.4c-0.2,1.3-1.4,2.2-2.3,3c-0.1,0.1-0.1,0.2-0.1,0.3
		c-0.2,0.2-0.2,0.6,0,0.8c0,0,0.1,0,0.1,0.1c1,0.7,0.6,2.4,1.1,3.3c0.7,0.9,1.4,1,2.4,1c2.8-0.1,5.7-3,7.1-5.1
		c1.1-1.5,1.4-3.5,1.8-5.4C105,353.6,105.5,352.3,104.6,351.5L104.6,351.5z"/>
	<path class="st11" d="M77.8,329c0-0.3-0.3-0.7-0.7-0.5c-2.6,0.8-5.2,0.3-7.9,0.3c-1.7,0-4.1-0.4-5.8,0.4c-0.3,0.1-0.3,0.4-0.2,0.7
		c0,0,0,0.1-0.1,0.1c-0.8,4.6-2.2,9.1-3.4,13.8c-1.2,4.7-1.7,9.7-2.3,14.5c-0.3,2.4-0.6,5-0.9,7.4c-0.2,1.1-0.3,2.9,0,4
		c0.6,2.1,4.8,2,6.4,2.1c2,0.1,4.4,0.4,4.6-2.1c0.2-4.5,3.8-8.8,5.6-12.9C76.8,348.1,78.7,338.2,77.8,329L77.8,329z"/>

		<linearGradient id="SVGID_5_" gradientUnits="userSpaceOnUse" x1="-159.5771" y1="509.355" x2="-158.5732" y2="509.355" gradientTransform="matrix(30.4145 0 0 -34.227 4926.9883 17777.7949)">
		<stop  offset="1.485000e-02" style="stop-color:#209D9F"/>
		<stop  offset="0.8911" style="stop-color:#2BD1D4"/>
	</linearGradient>
	<path class="st27" d="M101.5,335.6c-1.4-2-4.1-3.3-6.2-4.5c-2.3-1.2-4.9-2.5-7.3-3.6c-0.1-0.2-0.3-0.4-0.7-0.4h-0.1
		c-0.1,0-0.3,0.2-0.3,0.3v0.1c-2.1,0.7-4.7,0.7-6.9,0.7c-1.3,0-4.4-0.1-5.4,1c-1.3,1.5-0.9,4.2-0.7,6.1c0.2,2.9-0.1,5.5-0.1,8.3v0.1
		c0,0.4,0.6,0.7,0.9,0.4c1.3,0.8,3.2,0.7,4.6,0.4c2.1-0.3,4-1,6.1-1c2.3,0,3.1,1.4,4.4,2.8c0.4,0.9,1.2,2.1,1.6,3
		c0.7,1.8,0.2,4,0.2,5.8s0.4,3.6,0.9,5.4c0,0.3,0.1,0.6,0.3,0.7h0.2c0.1,0.1,0.2,0.2,0.4,0.2c1.8,0,3.3-0.3,4.7-1.1
		c0.6-0.2,1-0.7,1.3-1.1l0.1-0.1c0.1-0.1,0.1-0.2,0.1-0.3c0.1-0.1,0.1-0.3,0.2-0.4c0.1-0.1,0.1-0.2,0.1-0.3c0.3-0.9,0.3-1.9,0.2-2.8
		c0-0.2-0.2-0.3-0.3-0.3c0,0,0-0.1-0.1-0.1c-0.1-0.2-0.2-0.3-0.2-0.5c0.2-1.7,0.8-3.4,1-4.4c0.4-2,1.3-3.7,2.2-5.5
		c0.4-0.9,1.1-1.7,1.1-2.6C104.7,340.1,102.3,336.6,101.5,335.6z"/>
	<path class="st26" d="M55.2,298.7c0-1.6,0.1-4-1.3-5.3c-0.6-0.5-1.9-1.4-2.2-0.2c-1,3.7-3.2,0.7-5.4,0.4c-1-0.1-2.7,0.8-2.4,2.1
		c0.2,1.7,0.6,3.6,1.1,5.2c0.2,0.5,0.7,1.1,1.1,1.4c0.4,0.2,1.4,0.4,1.9,0.7l0.9,0.9v0.3c0,0.2,0.2,0.4,0.4,0.6
		c1.3,0.4,2.6-0.5,3.4-1.3c0.9-0.9,1.9-1.8,2.7-2.8C55.5,300.1,55.2,299.1,55.2,298.7z M125.5,301.1c-0.2-0.2,0.2-0.9,0.3-1.1
		c0-0.2,0-0.4-0.1-0.5c-1.2-1-2.9-0.5-4.3-0.5c-2.1,0-0.7-2.4-2.1-3.2c-1.2-0.7-2.6,0.5-3.2,1.3c-1.8,2-4,5-6.8,5.8h-0.3
		c-0.2,0.1-0.3,0.2-0.4,0.3c-0.1,0.2-0.1,0.4,0.1,0.7v0.2c0,0.9,0.4,1.9,0.8,2.8c0.2,0.5,0.7,2,1.4,1.9h0.1c0.1,0.1,0.2,0.1,0.4,0.1
		c2.4-0.3,4.9-0.4,7.2-1.3c1.9-0.7,3.8-1.7,5.6-2.4c0.8-0.3,1.8-2.1,1.8-3C125.8,301.6,125.8,301.4,125.5,301.1L125.5,301.1z"/>
	<path class="st12" d="M83.7,327.1c-3.8-0.4-7.5,0-11.3-0.3c-3.6-0.2-5.9,0.2-9.1,1.5c-0.2,0.1-0.3,0.3-0.2,0.5
		c-0.1,0.1-0.2,0.2-0.2,0.4c0,1.3-0.1,2.5-0.2,3.9c-0.2,1.4-0.9,2.9-1.1,4.3c-0.3,2,2.2,2.5,3.7,2.6c6.5,0.5,14-2.3,19-6.4
		C86.6,331.6,88.5,327.6,83.7,327.1L83.7,327.1z M65.3,303.1c-0.8-0.4-2,0-2.8,0.2c-0.7,0.2-1.4,0.4-2.1,0.7
		c-1.8,0.4-2.2-1.4-2.8-2.5c-0.7-1.5-1.4-3.4-3.3-2.3c-1.2,0.7-2.1,1.9-3.1,2.9c-0.6,0.5-2.4,1.8-2.4,1.8c-0.3,0-0.4,0.3-0.3,0.5
		c0,0.1-0.1,0.2,0,0.3c0.6,1.4,1.1,3.1,1.9,4.3c0.6,0.9,1,1.8,1.6,2.8c0.7,1.4,0.7,2.9,0.9,4.4c0.3,2.9,3.4,4.3,6,4.4
		c1.8,0.1,5.7-1.2,6.2-3.2c0.3-1.5,0.3-3.2,0.7-4.7c0.3-1.5,0.8-3.1,1.1-4.6C67,306.4,67.2,304,65.3,303.1z M114.1,306.5
		c-0.8-1.8-2.3-3.5-3.7-4.6c-0.3-0.2-0.7-0.1-0.8,0.1c-0.1,0-0.2,0-0.3,0.1c-2.2,1.6-6.5,1.8-9.1,1.3c-1.6-0.2-2.8-1-4.2-1.4
		c-1.3-0.3-2.6-0.8-3.9-1.3c0-0.4-0.6-0.7-0.9-0.3c-1.4,1.4-2.3,3.1-3.1,5c-0.3,1-0.6,2-0.8,3c-0.1,0.7-0.1,2.2-0.7,2.6
		c-0.3,0.3-0.1,0.7,0.2,0.9c0.1,0.2,0.2,0.3,0.4,0.3h0.1c0.1,0.1,0.2,0.2,0.3,0.2c2.7,1.1,5.3,2,8.2,2.4c3.7,0.4,7.7-0.8,11-2.2
		c1.9-0.8,3.7-1.9,5.6-2.6c0.9-0.3,2-0.9,2.3-1.9C114.9,307.3,114.6,306.8,114.1,306.5L114.1,306.5z"/>
	<path class="st10" d="M94.4,301c-0.7-2.1-1.7-2.5-3.7-2.5c-2.6,0-4.8-0.7-7.1-1.8c-1.2-0.5-2.6-1.3-3.9-1.3c-3.3-0.2-6.1,2-8.8,3.7
		c-1.7,1.1-3.4,2.1-5.2,2.8c-0.9,0.3-1.9,0.4-2.6,1.1c-0.2,0.2-0.2,0.4-0.1,0.7c-0.8,1.2,0,0,0,0c-1.7,2.3-1.4,4.3-1,7.2
		c0.7,4.5-0.6,9-0.3,13.5c0.1,2.1,0.1,5,1.2,6.7c1.2,2.1,5,1.3,6.9,1.1c4.3-0.3,8.8,0.9,13,0.9c2.1,0,6.1,0,7.2-2.2
		c0,0,0.1,0,0.1-0.1c1.8-1.8,2.6-3.5,2.8-5.9c0.3-3.7,0-6.9,0-10.7c0-0.2-0.1-0.4-0.4-0.5c-1.7-0.4-2.3-2.8-2.4-4.4
		c0.1-0.7,0.2-1.2,0.2-1.9c0-0.3,0-0.8,0.1-1.1c0.1-0.4,0.2-0.9,0.1-1.3c0.2-1.8,0.9-3.2,3.2-3.4C94.3,301.7,94.5,301.3,94.4,301
		L94.4,301z"/>
	<path class="st26" d="M79.3,273.5c-0.3,0-0.6,0-0.8,0.1c-0.4,0-1,0-1.4,0.1c-3.4,1-4,4.5-4.4,7.5c-0.6,3.7,0,7.4,1.6,10.8
		c1,2.2,3.2,4,5.6,3.7c0.4,0.2,1,0.3,1.6,0.2C91.5,294.1,89.5,274,79.3,273.5z"/>
	<path class="st28" d="M84.6,289.5c0-4.2-0.7-7.5-3.2-10.9c-0.3-0.5-1.2-0.1-1,0.4c-2.2-0.5-5,3-6.8,3.9c-2.2,1.2-4.9,0.9-7.1,2.3
		c-1.9,1.2-0.7,4.3-1.1,6.1v0.2c-0.8,1.8-2.1,3-3.9,4c-2.1,1.1-3.1,2.6-2.3,5.1c0.8,2.2,3.3,2.9,5.3,2.2s3.7-2,5.4,0.1
		c0.7,0.8,1.8,0.7,2.6,0.4c1.4-0.3,1.4-2.2,3.6-1.5c0.8,0.2,1.7,0,2.2-0.5c0.6-0.6,0.7-1.5,0.8-2.3c0.2-1.6,0.6-3,2.9-3
		c0.3,0,0.9-0.1,1.1-0.3C84.9,294.1,84.6,291.4,84.6,289.5L84.6,289.5z"/>

		<linearGradient id="SVGID_6_" gradientUnits="userSpaceOnUse" x1="-156.1216" y1="506.8429" x2="-155.1216" y2="506.8429" gradientTransform="matrix(18.5819 0 0 -16.8114 2975.6807 8794.3193)">
		<stop  offset="0" style="stop-color:#209D9F"/>
		<stop  offset="9.758000e-02" style="stop-color:#22A5A8"/>
		<stop  offset="0.4349" style="stop-color:#27BDC0"/>
		<stop  offset="0.7449" style="stop-color:#2ACCCF"/>
		<stop  offset="1" style="stop-color:#2BD1D4"/>
	</linearGradient>
	<path class="st29" d="M92.4,269.4c-0.7-0.9-2-1.4-3-1.9c-1.7-0.8-3-1.8-4.8-2.3c-1.2-0.3-2.4,0.4-3.4,1c-1.9,1.1-4.1,2.6-6.1,3.3
		c-0.7,0.2-0.4,1.1,0.2,1c0.2,1,1.6,2.2,2.1,2.8c1.7,2,3.6,3.6,4.9,5.9c0.4,0.8,1.9,3.7,3.1,2.4c0,0,0.1-0.1,0.1-0.2
		c2-0.4,4.3-3.2,5.5-4.5C92.7,275,94.3,272,92.4,269.4z"/>
	<path class="st11" d="M84.7,271.4c-1.1-1.3-2.8-2.1-4.4-2.6c-2.1-0.7-4-1.8-6.1-2.2c-3.2-0.7-6.3,2.1-8.3,4.2
		c-2.8,3.1-4.8,6.8-6.2,10.7c-1.3,3.5-1.1,5.7,2.2,7.8c2.4,1.5,7,3.1,9.8,2.3c0.2,0,0.3-0.2,0.3-0.3c2.8-0.7,5-2.6,7.3-4.2
		c2.6-1.7,6-3.5,7.1-6.6C87.8,277.1,86.9,274,84.7,271.4z"/>
	<path class="st26" d="M126.4,299.2c-0.2-0.9-1-0.9-1.9-0.7c-0.2-0.1-0.3-0.2-0.6-0.2c0.1-0.2,0.1-0.4,0.1-0.7l0.2-0.2
		c0.3-0.3,0.8-1,0.2-1.4c-1-0.9-3.3,0.7-4.9,1.9c-0.7,0.2-1.6,0.7-2.2,1.2c-3.2,0.3-1.9-1.6-2-1.6c-1.1,1.2-2,5.6,0.7,7.5
		c1.8,1.2,7.1,0.3,7.9,0.1c0.8-0.3,1.8-2.1,1.8-3c0-0.5,0-0.5-0.3-1c-0.1-0.1,0-0.2,0-0.4C126,300.3,126.6,299.9,126.4,299.2
		L126.4,299.2z"/>
	<path class="st5" d="M434.5,206.2c-0.3-0.9-1.1-1.5-1.8-2.2c-0.8-0.7-1.7-1.3-2.6-2c-0.8-0.6-1.8,0.4-1.2,1.1
		c-0.1,0.2-0.1,0.3,0,0.6c0.6,1.4,1.4,2.8,2.1,4.2c0.2,0.3,0.4,0.4,0.8,0.4c0.1,0.1,0.2,0.1,0.3,0.2
		C433.4,208.9,434.9,207.5,434.5,206.2z"/>
	<path class="st28" d="M430.3,203.7c0,0-0.1,0-0.1-0.1c-0.4-0.3-1-0.4-1.6-0.4c-1.1-0.1-2.2,0.2-2.9,1.2c-0.3,0.6,0.4,0.9,0.9,0.6
		c0,0,0.1,0,0.1-0.1h0.2c0.3-0.1,0.7-0.3,1.1-0.6c0.6-0.1,1,0,1.4,0.1h0.3C430.2,204.6,430.8,204,430.3,203.7L430.3,203.7z"/>
	<g>
		<path class="st15" d="M125.9,167.7c-2,2,0.7,4.7,2.8,2.9C130.7,168.6,127.9,165.7,125.9,167.7z M120.7,181.6c-2,2,0.7,4.7,2.8,2.9
			C125.5,182.6,122.7,179.7,120.7,181.6z M112,194.8l0.7,0.7c1.8,1.9,5-1.2,3.2-3.1l-0.7-0.7C113.5,189.8,110.3,192.9,112,194.8z
			 M101.3,205.4l0.6,0.6c1.8,1.9,5-1.2,3.2-3.1l-0.6-0.6C102.7,200.5,99.5,203.5,101.3,205.4z M90.5,210.4c-2,2,0.7,4.7,2.8,2.9
			C95.3,211.3,92.5,208.4,90.5,210.4z M132.5,154c-2.8,0.1-2.6,4.1,0.2,4C135.5,157.7,135.2,153.9,132.5,154z M131.2,141.9v0.6
			c0,2.5,4.4,2.5,4.4,0v-0.6C135.7,139.3,131.2,139.3,131.2,141.9z"/>
	</g>
	<g>
		<path class="st15" d="M186.4,202.5l0.2,0.7c0.7,2.4,5,1.3,4.3-1.2l-0.2-0.7C190,198.9,185.7,200,186.4,202.5z M194.5,192.9
			l-0.7,0.2c-1.1,0.3-1.9,1.3-1.6,2.5c0.3,1.1,1.6,1.5,2.7,1.3l0.7-0.2c1.1-0.3,1.9-1.3,1.6-2.5C196.8,193,195.5,192.6,194.5,192.9
			L194.5,192.9z M196.5,180.9c-2.7,0.8-1.7,4.5,1.1,3.7C200.3,183.9,199.2,180.2,196.5,180.9z M194.7,170.1
			c-2.8,0.8-1.7,4.5,1.1,3.7C198.5,173.1,197.4,169.4,194.7,170.1z M185.3,161.3l0.1,0.6c0.7,2.4,5,1.3,4.3-1.2l-0.1-0.6
			C188.8,157.7,184.6,158.9,185.3,161.3z M176.1,153.1l0.1,0.6c0.7,2.4,5,1.3,4.3-1.2l-0.1-0.6C179.6,149.5,175.3,150.6,176.1,153.1
			z M167.4,144.8c-2.7,0.8-1.7,4.5,1.1,3.7C171.2,147.9,170.1,144.1,167.4,144.8z M157.7,138.3c-2.8,0-2.8,4,0,4
			S160.4,138.3,157.7,138.3z"/>
	</g>
	<g>
		<path class="st15" d="M458.5,204c-2.8,0-2.8,4,0,4S461.2,204,458.5,204z M448.8,195.9h-0.7c-1.1,0-2.2,0.8-2.2,2s1.1,2,2.2,2h0.8
			c1.1,0,2.2-0.8,2.2-2C451,196.8,449.9,195.9,448.8,195.9L448.8,195.9z M442.1,188.4v1c0,2.5,4.4,2.5,4.4,0v-1
			C446.6,185.8,442.1,185.8,442.1,188.4z M443.7,173.2h-0.8c-1.1,0-2.2,0.8-2.2,2s1.1,2,2.2,2h0.8c1.1,0,2.2-0.8,2.2-2
			C445.9,174,444.8,173.2,443.7,173.2L443.7,173.2z M443.7,160.2v1c0,2.5,4.4,2.5,4.4,0v-1C448.1,157.7,443.7,157.7,443.7,160.2z
			 M441,145.3h-0.7c-1.1,0-2.2,0.8-2.2,2c0,1.2,1.1,2,2.2,2h0.8c1.1,0,2.2-0.8,2.2-2C443.3,146.2,442.1,145.3,441,145.3L441,145.3z"
			/>
	</g>
	<path class="st3" d="M314.2,322.7c3-2.6,3.2-7,4.9-10.7c0.1-0.3,0.3-0.7,0.4-0.9c0.2-0.5,0.6-1.1,1-1.5c0.7-0.5,1.4-0.8,2.2-0.9
		c0.3-0.1,0.8-0.1,1.1,0c0.3,0.1,0.6,0.4,0.6,0.9c0,0.3-0.2,0.7-0.4,0.9c-0.2,0.1-0.6,0.2-0.8,0.2c-0.8,0.2-1.4,0.8-1.8,1.5
		c-0.1,0.2-0.1,0.5-0.1,0.8v0.2c0.3,1.4,2,2.4,3.4,2.1c0.8-0.2,1.4-0.9,1.7-1.7c0-0.2,0.1-0.3,0.1-0.5c-0.2-0.5-0.6-1-1-1.2
		c-0.2-0.1-0.4-0.2-0.7-0.4s-0.3-0.7-0.2-1c0.1-0.3,0.4-0.6,0.8-0.7c0.3-0.1,0.8,0.1,1.1,0.3c0.8,0.3,1.4,0.9,1.9,1.5
		c0.6,0.8,0.7,1.8,0.4,2.8c0,0.1,0,0.2-0.1,0.2c0.8-1.3,1.2-2.9,1.7-4.3c0.2-0.8,0.8-1.8,1.7-1.5c0.3,0.1,0.6,0.3,0.7,0.5
		c1.1,1.6,0,3.2-0.3,5.2c-0.2,1.3-0.6,2.8-1.1,4c-0.6,1.2-1.6,2.4-2.9,2.9c-0.6,0.2-1.1,0.2-1.8,0.3c-3.7,0.4-6.1,2.4-9.1,4.5
		c-0.2,0.1-0.6,0.3-0.8,0.2c-0.2,0-0.3-0.1-0.4-0.3C315.4,325.1,314.6,324,314.2,322.7L314.2,322.7z"/>
	<path class="st21" d="M315.3,316c-5,3.6-8,4.6-9,4.8l-0.2-0.1l-1,0.2c-0.2-0.1-0.7-0.3-1-0.8c-1-1.1-1.8-3-2.7-4.8l-0.3-0.7
		c-3.2-7.2-7-14.2-11.4-20.7c-1.3-1.9-3.8-9.8-13-11.3c-2.2-0.3-4.6,0-6.8,0l-0.1-1.2l-13.8,1.1c-0.2,0-0.4,0-0.8,0.1
		c-0.8,0-1.7,0-2.4,0.3c-1.6,0.2-3.3,0.7-5,1.5c-0.1,0-0.2,0.1-0.2,0.1v26.9l0.3-0.7c0,2.5-0.1,5-0.2,7.4c-0.2,4.3-0.9,8.6-2.8,12.1
		l21.1-1.8l21.1,1.8c-1.8-3.5-2.4-7.8-2.8-12.1c-0.1-2.4-0.2-4.8-0.2-7.2c1.6,2.9,3.1,5.9,4.4,9l0.3,0.7c1.2,2.8,2.4,5.7,4.9,8.5
		c3.1,3.4,7.2,5.4,11.3,5.4c0.8,0,1.6-0.1,2.3-0.2c2.3-0.2,7.8-1.5,15.9-7.5L315.3,316L315.3,316z"/>
	<path class="st3" d="M280.2,266.2c0,8-6.7,14.6-14.8,14.6s-14.8-6.6-14.8-14.6s6.7-14.6,14.8-14.6
		C273.6,251.6,280.2,258.1,280.2,266.2z"/>
	<path class="st3" d="M270.3,275.4c-3.2,0.9-6.7,1.3-10,1.3c0,2.3,0.2,3.7,0.2,6.2c1.1,1.2,3.6,2.3,5.1,2.3c2,0,3.4-0.8,5.2-2.5
		C270.5,279.8,270.5,278.1,270.3,275.4z"/>
	<path class="st30" d="M284.1,326.6h-36c0,0-29.2,8-29.2,29.4c0,19.8,41.5-1.4,47.2-4.4c5.7,3,47.2,24.2,47.2,4.4
		C313.4,334.7,284.1,326.7,284.1,326.6L284.1,326.6z"/>
	<path class="st30" d="M277.2,364.2c-1.8-5.2-4.4-6.4-9.7-7.4c-3.9-0.7-7.7-0.9-11.5-2c-3.2-1-6.3-2.6-9.7-3.4
		c-0.3-0.4-0.9-0.7-1.7-0.8c-1.3-0.1-14.7-3.3-17.2-4.3c0-1.1-1.1-2.4-2.8-2.2c-0.1,0-0.3,0-0.4,0.1c-0.4,0.1-0.8,0.2-1,0.5
		c-1.2-0.2-3.9,6.1-4,7.5c-0.4,5-0.7,7.5,0.9,9.7c2.4,3.6,6.4,4.2,11.3,5.8c10.9,3.5,23.1,4.7,34.6,5
		C270.2,376.7,279.3,370,277.2,364.2L277.2,364.2z"/>
	<path class="st21" d="M251.4,293.3c-0.4-2.1-1.2-4.1-1.9-6.1c-0.3-1-0.2-2-1.2-2.5h-0.1c-0.1-0.3-0.6-0.5-0.9-0.2
		c-0.7,0.7-1.8,0.8-2.4,1.4c-0.8,0.9-1.4,1.8-2.1,2.8c-1.7,2.5-2.7,5.5-3.7,8.4c-2.4,6.9-5.1,13.6-7.1,20.7
		c-0.8,2.6-2.3,5.6-2.4,8.4c0,2.3,1,4.1,2.7,5.6c1.8,1.7,3.3,4.1,5.8,4.5c1.3,0.2,2.8,0,4-0.1c0.9-0.1,1.8,0.2,2.6-0.3
		c0.3-0.2,0.3-0.5,0.1-0.8c0-1.8-0.4-3.2-1.3-4.7c-1.2-2.1-2.7-3.3-2.1-6.1c0.3-2,1.6-3.9,2.6-5.5c1.7-2.8,3-5.5,4.3-8.4
		c1.2-2.5,3.1-4.7,4.2-7.2c0.1,0,0.3-0.1,0.3-0.3C254,299.9,252,296.3,251.4,293.3L251.4,293.3z"/>
	<path class="st15" d="M289.4,338.2c-0.8-1.4-2.2-1.4-3.8-1.4c-2.9,0-5.8-0.1-8.8,0c-12.3,0.3-23.4-0.3-35.7-0.4
		c-0.1-0.2-2.4,0.1-2.7,0.1c-1.4,0-3.3,1.6-2,3.2c0.8,1,1.3,1.2,2.7,1.1c2.8-0.1,39.7-0.1,45.7-0.1
		C287.7,340.7,291.2,341.6,289.4,338.2z"/>
	<path class="st6" d="M288.6,310.7c0.2-6.5,0.9-7.6-3.8-7.7c-2.2-0.1-43.3-0.2-44.3,0.5c-1.1,0.9-1.1,2.4-1.1,3.7
		c0,3.1-0.4,28.4,0.3,30c0.1,0.2,0.6,0.4,1,0.5c0.1,0.1,0.2,0.2,0.4,0.2h44c0.6,0.1,2.3,0.1,2.3-0.1c0.3-1.2,0.1-2.6,0-3.9
		C287.4,331.4,288.4,317,288.6,310.7L288.6,310.7z"/>
	<path class="st7" d="M264.1,315.8c-9.7,0-9.7,13.4,0,13.4C273.8,329.2,273.8,315.8,264.1,315.8z"/>
	<path class="st4" d="M280.6,250.3c-1.1-3.2-4.7-6.2-8-5.2c-1.7-0.6-3.3-1-5.1-0.8c-1.9,0.3-6.3,2.9-5.4,5.2
		c0.4,1.2-0.3,2.2,0.1,3.4c0.3,1.1,1.6,2.1,2.6,2.5c1.2,0.7,2.3,0.1,3-0.8c0.1,0.2,0.1,0.4,0.2,0.7c0.7,1.4,2.1,1.3,3.3,1
		c-0.1,1.1-0.3,2.6,0.8,3.3c0.9,0.5,1.7,0.5,2.3,0.2c-0.1,1,0,2.2,0.3,3.1c0.3,0.9,0.9,1.7,1.7,2c0.9,0.7,2.2,0.4,3-0.3
		C283.2,261.4,282,254.3,280.6,250.3L280.6,250.3z"/>
	<path class="st4" d="M269.8,249.6c-2.4-2.3-5.1-4.3-8.4-5c-3.2-0.7-6.1,1-8.7,2.8c-3,2.1-4.7,5.2-6.4,8.3c-1,1.9-1.8,3.9-2,5.9
		c-0.1,1.1-0.2,2.1-0.3,3.2c0,0.7,0.3,1.2,0.1,1.9c-0.1,0.3,0.2,0.4,0.6,0.4c0.1,1,0.6,1.8,1.7,2c2.3,0.3,3.8-2.8,4.6-5.1
		c0.4,1.2,1.1,2.2,2.6,1.2c1.7-1.2,2.4-3.1,2.6-5.1c0.7,0.8,1.8,1,3.1,0.4c1.4-0.7,1.9-2.4,1.8-4.1c0.8,0.4,1.9,0.5,2.9,0.4
		c2.2-0.2,2.7-1.8,2.3-3.3c1.3,0.6,3.1,0.3,4-1.1c0.4-0.7,0.2-1.5-0.2-2.3C269.9,250.2,270,249.8,269.8,249.6L269.8,249.6z
		 M261.7,268.3c-1.1,0.3-2.9,0.8-3.7-0.3c-0.3-0.5-1.3,0-1,0.4c1.1,1.5,3.3,1.3,4.9,0.8C262.7,269.1,262.3,268.1,261.7,268.3
		L261.7,268.3z M273,267.8c-0.6,0.7-2.7,1-3.3,0.2c-0.4-0.4-1.4,0-1,0.4c1.1,1.3,3.9,1.1,5,0C274.2,268,273.4,267.3,273,267.8
		L273,267.8z"/>
	<g>
		<path class="st15" d="M298,286c-2.8,0.4-2.1,4.3,0.7,3.9C301.4,289.5,300.7,285.6,298,286L298,286z M305.6,278.1l0.1,0.3
			c0.4,2.5,4.8,1.8,4.3-0.8l-0.1-0.3C309.6,274.9,305.2,275.6,305.6,278.1z M310.1,262c-2.8,0.4-2.1,4.3,0.7,3.9
			S312.8,261.6,310.1,262z M302.8,248.4c-2.8,0.4-2.1,4.3,0.7,3.9C306.3,251.8,305.6,248,302.8,248.4z M295.2,234.4l-0.3,0.1
			c-1.1,0.2-2.1,1.1-1.9,2.3c0.2,1.1,1.4,1.8,2.6,1.5l0.3-0.1c1.1-0.2,2.1-1.1,1.9-2.3C297.5,234.9,296.3,234.2,295.2,234.4
			L295.2,234.4z M290.9,218c-2.8,0.4-2.1,4.3,0.7,3.9S293.6,217.6,290.9,218z M292.6,199.5c-2.8,0.4-2.1,4.3,0.7,3.9
			C296.1,202.8,295.4,199,292.6,199.5z M286.4,184.8c-2.8,0.4-2.1,4.3,0.7,3.9S289.2,184.2,286.4,184.8z"/>
	</g>
	<g transform="translate(33 71.537)">
		<ellipse class="st2" cx="16.8" cy="15.8" rx="15.1" ry="14"/>
		<path class="st14" d="M16.8,2.9c18.6,0,18.6,25.9,0,25.9S-1.9,2.9,16.8,2.9z M16.8,0.7c-4.9,0-9.1,1.6-12.1,4.7
			C2,8.1,0.6,11.9,0.6,15.8S2,23.4,4.7,26.3c3,3.1,7.1,4.7,12.1,4.7c4.9,0,9.1-1.6,12.1-4.7c2.7-2.8,4.1-6.5,4.1-10.5
			s-1.4-7.6-4.1-10.5C25.9,2.3,21.8,0.7,16.8,0.7L16.8,0.7z"/>
	</g>
	<g>
		<g transform="translate(40 78.875)">
			<path class="st31" d="M2.5,0.5h15c1.1,0,2,0.9,2,2v11.2c0,1.1-0.9,2-2,2h-15c-1.1,0-2-0.9-2-2V2.5C0.5,1.4,1.4,0.5,2.5,0.5z"/>
			<path class="st32" d="M2.5,10l1.2-1.2c0.4-0.4,1-0.4,1.4,0c0,0,0,0,0,0l1.1,1.1c0.4,0.4,1,0.4,1.4,0c0,0,0,0,0,0l4.2-4.2
				c0.4-0.4,1-0.4,1.4,0c0,0,0,0,0,0l4.3,4.3v3.8h-15V10z"/>
			<circle class="st33" cx="4.1" cy="4.7" r="1.6"/>
		</g>
		<g transform="translate(40 78.875)">
			<path class="st34" d="M2,0h16c1.1,0,2,0.9,2,2v12.2c0,1.1-0.9,2-2,2H2c-1.1,0-2-0.9-2-2V2C0,0.9,0.9,0,2,0z"/>
			<path class="st35" d="M0,12.5l3.7-3.7c0.4-0.4,1-0.4,1.4,0c0,0,0,0,0,0l1.8,1.8l4.9-4.9c0.4-0.4,1-0.4,1.4,0l6.8,6.8v1.7
				c0,1.1-0.9,2-2,2H2c-1.1,0-2-0.9-2-2V12.5z"/>
			<circle class="st2" cx="5" cy="4.4" r="1.9"/>
			<path class="st36" d="M6.9,10l-3.4,3.4L6.9,10L6.9,10z"/>
		</g>
	</g>
	<g transform="translate(54.09 12.106)">
		<ellipse class="st2" cx="16.5" cy="15.5" rx="15.1" ry="14"/>
		<path class="st14" d="M16.5,2.5c18.6,0,18.6,25.9,0,25.9S-2.1,2.5,16.5,2.5z M16.5,0.3C11.7,0.3,7.4,2,4.4,5.1
			c-2.7,2.8-4.1,6.5-4.1,10.5S1.8,23.1,4.4,26c3,3.1,7.1,4.7,12.1,4.7c4.9,0,9.1-1.6,12.1-4.7c2.7-2.8,4.1-6.5,4.1-10.5
			s-1.4-7.6-4.1-10.5C25.6,2,21.5,0.3,16.5,0.3L16.5,0.3z"/>
	</g>
	<g transform="translate(114.03 20.91)">
		<ellipse class="st2" cx="16.9" cy="16.1" rx="15.1" ry="14"/>
		<path class="st14" d="M16.9,3.1c18.6,0,18.6,25.9,0,25.9C-1.7,28.9-1.7,3.1,16.9,3.1z M16.9,0.9C12,0.9,7.8,2.5,4.8,5.6
			c-2.7,2.8-4.1,6.5-4.1,10.5s1.4,7.6,4.1,10.5c3,3.1,7.1,4.7,12.1,4.7c4.9,0,9.1-1.6,12.1-4.7c2.7-2.8,4.1-6.5,4.1-10.5
			S31.6,8.5,29,5.6C26.1,2.5,21.9,0.9,16.9,0.9z"/>
	</g>
	<g transform="translate(168.42)">
		<ellipse class="st2" cx="16.9" cy="15.8" rx="15.1" ry="14"/>
		<path class="st14" d="M16.9,3c18.6,0,18.6,25.9,0,25.9C-1.8,28.7-1.8,3,16.9,3z M16.9,0.8C12,0.8,7.8,2.4,4.8,5.5
			C2.1,8.3,0.7,12,0.7,16s1.4,7.6,4.1,10.5c3,3.1,7.1,4.7,12.1,4.7c4.9,0,9.1-1.6,12.1-4.7c2.7-2.8,4.1-6.5,4.1-10.5
			S31.6,8.4,29,5.5C26,2.3,21.8,0.8,16.9,0.8z"/>
	</g>
	<g>
		<path class="st2" d="M270.7,88.9c-10.2-0.2-14.9-7.5-14.8-14.2c0.1-9.1,7.5-13.9,15-13.9h0.4c10.2,0.2,14.9,7.5,14.8,14.2
			c-0.1,9.1-7.5,13.9-14.9,13.9H270.7z"/>
		<path class="st14" d="M270.9,62h0.4c18.4,0.4,18.1,25.9-0.1,25.9h-0.4C252.2,87.4,252.7,62,270.9,62z M270.9,59.8
			c-4.9,0-9,1.7-11.9,4.6c-2.7,2.8-4.1,6.4-4.1,10.2c0,4,1.3,7.6,3.9,10.3c2.9,3.1,7,4.8,11.9,5h0.4c4.9,0,9-1.7,11.9-4.6
			c2.7-2.8,4.1-6.4,4.1-10.2c0-4-1.3-7.6-3.9-10.3c-2.9-3.1-7-4.8-11.9-5L270.9,59.8L270.9,59.8z"/>
	</g>
	<g>
		<g>
			<path class="st37" d="M277.8,69.1l-3.6-3.6h-8.5c-0.8,0-1.5,0.7-1.5,1.5v14c0,0.8,0.7,1.5,1.5,1.5h10.6c0.8,0,1.5-0.7,1.5-1.5
				L277.8,69.1L277.8,69.1z"/>
			<path class="st38" d="M274.1,65.3v3.9h3.9"/>
		</g>
		<path class="st39" d="M267.1,71.2h7.9v1.1h-7.9V71.2z M267.1,73.4h6.8v1.1h-6.8V73.4z M267.1,76.1h1.1c0.2,0,0.3,0,0.4,0
			c0.1,0,0.3,0.1,0.4,0.2c0.1,0.1,0.2,0.2,0.2,0.3c0.1,0.1,0.1,0.3,0.1,0.4c0,0.2,0,0.3-0.1,0.4c-0.1,0.1-0.1,0.2-0.2,0.3
			c-0.1,0.1-0.2,0.1-0.4,0.2c-0.1,0-0.3,0.1-0.4,0.1h-0.4v1h-0.7L267.1,76.1L267.1,76.1z M268.1,77.5c0.4,0,0.5-0.2,0.5-0.5
			c0-0.2,0-0.3-0.1-0.3c-0.1-0.1-0.2-0.1-0.4-0.1h-0.4v0.9H268.1L268.1,77.5z M269.8,76.1h0.8c0.2,0,0.4,0,0.6,0.1s0.3,0.1,0.5,0.3
			c0.1,0.1,0.2,0.3,0.3,0.5c0.1,0.2,0.1,0.4,0.1,0.7s0,0.5-0.1,0.7c-0.1,0.2-0.2,0.3-0.3,0.5c-0.1,0.1-0.3,0.2-0.5,0.3
			c-0.2,0.1-0.4,0.1-0.6,0.1h-0.9L269.8,76.1L269.8,76.1z M270.6,78.5c0.1,0,0.2,0,0.3-0.1c0.1,0,0.2-0.1,0.3-0.2
			c0.1-0.1,0.1-0.2,0.2-0.3c0-0.1,0.1-0.3,0.1-0.4c0-0.2,0-0.3-0.1-0.4c0-0.1-0.1-0.2-0.2-0.3c-0.1-0.1-0.2-0.1-0.3-0.2
			c-0.1,0-0.2,0-0.3,0h-0.1v1.9C270.5,78.5,270.6,78.5,270.6,78.5z M272.7,76.1h1.9v0.6h-1.2v0.7h1v0.6h-1v1.1h-0.7L272.7,76.1
			L272.7,76.1z"/>
		<g>
			<path class="st40" d="M263.7,67c0-1.1,0.9-2,2-2h8.7l3.9,3.9V81c0,1.1-0.9,2-2,2h-10.6c-1.1,0-2-0.9-2-2
				C263.7,81,263.7,67,263.7,67z"/>
			<path class="st41" d="M274.4,65.6c-0.2-0.2-0.4-0.1-0.4,0.2v3.4h3.4c0.3,0,0.3-0.2,0.1-0.3L274.4,65.6L274.4,65.6z"/>
			<path class="st42" d="M274.3,65c-0.3,0-0.5,0.2-0.5,0.5c0,0,0,0,0,0v4h4c0.3,0,0.5-0.2,0.5-0.5v-0.1L274.3,65L274.3,65z
				 M267.1,71.2h7.9v1.1h-7.9V71.2z M267.1,73.4h6.8v1.1h-6.8V73.4z M267.1,76.1h1.1c0.2,0,0.3,0,0.4,0c0.1,0,0.3,0.1,0.4,0.2
				c0.1,0.1,0.2,0.2,0.2,0.3c0.1,0.1,0.1,0.3,0.1,0.4c0,0.2,0,0.3-0.1,0.4c-0.1,0.1-0.1,0.2-0.2,0.3c-0.1,0.1-0.2,0.1-0.4,0.2
				c-0.1,0-0.3,0.1-0.4,0.1h-0.4v1h-0.7L267.1,76.1L267.1,76.1z M268.1,77.5c0.4,0,0.5-0.2,0.5-0.5c0-0.2,0-0.3-0.1-0.3
				c-0.1-0.1-0.2-0.1-0.4-0.1h-0.4v0.9H268.1L268.1,77.5z M269.8,76.1h0.8c0.2,0,0.4,0,0.6,0.1s0.3,0.1,0.5,0.3
				c0.1,0.1,0.2,0.3,0.3,0.5c0.1,0.2,0.1,0.4,0.1,0.7s0,0.5-0.1,0.7c-0.1,0.2-0.2,0.3-0.3,0.5c-0.1,0.1-0.3,0.2-0.5,0.3
				c-0.2,0.1-0.4,0.1-0.6,0.1h-0.9L269.8,76.1L269.8,76.1z M270.6,78.5c0.1,0,0.2,0,0.3-0.1c0.1,0,0.2-0.1,0.3-0.2
				c0.1-0.1,0.1-0.2,0.2-0.3c0-0.1,0.1-0.3,0.1-0.4c0-0.2,0-0.3-0.1-0.4c0-0.1-0.1-0.2-0.2-0.3c-0.1-0.1-0.2-0.1-0.3-0.2
				c-0.1,0-0.2,0-0.3,0h-0.1v1.9C270.5,78.5,270.6,78.5,270.6,78.5z M272.7,76.1h1.9v0.6h-1.2v0.7h1v0.6h-1v1.1h-0.7L272.7,76.1
				L272.7,76.1z"/>
		</g>
	</g>
	<g>
		<path class="st2" d="M322.6,55.2h-1.2c-10.1-0.5-14.5-7.9-14.4-14.5c0.2-6.6,4.9-13.6,14.9-13.6h1.2c10.1,0.5,14.5,7.9,14.4,14.5
			C337.3,48.2,332.6,55.2,322.6,55.2z"/>
		<path class="st14" d="M321.9,28.2h1.1c18.4,1.1,17.3,26.1-0.4,26.1h-1.1C303.2,53,304.2,28.2,321.9,28.2z M321.9,26
			c-4.8,0-8.8,1.5-11.7,4.6c-2.7,2.6-4.1,6.3-4.2,10.1c-0.2,7.2,4.6,15.1,15.4,15.6h1.2c4.8,0,8.8-1.5,11.7-4.6
			c2.7-2.6,4.1-6.3,4.2-10.1c0.2-7.2-4.6-15.1-15.4-15.6C323.2,26,321.9,26,321.9,26z"/>
	</g>
	<g transform="translate(206.16 31.917)">
		<ellipse class="st2" cx="16.9" cy="15.6" rx="15.1" ry="14"/>
		<path class="st14" d="M16.9,2.6c18.6,0,18.6,25.9,0,25.9S-1.8,2.6,16.9,2.6z M16.9,0.4C12,0.4,7.8,2.1,4.8,5.2
			c-2.7,2.8-4.1,6.5-4.1,10.5s1.4,7.6,4.1,10.5c3,3.1,7.1,4.7,12.1,4.7c4.9,0,9.1-1.6,12.1-4.7c2.7-2.8,4.1-6.5,4.1-10.5
			S31.6,8,29,5.2C26,2.1,21.8,0.4,16.9,0.4L16.9,0.4z"/>
	</g>
	<g transform="translate(331.59 62.733)">
		<ellipse class="st2" cx="16.8" cy="15.8" rx="15.1" ry="14"/>
		<path class="st14" d="M16.8,2.9c18.6,0,18.6,25.9,0,25.9S-1.9,2.9,16.8,2.9z M16.8,0.7c-4.9,0-9.1,1.6-12.1,4.7
			C2,8.1,0.6,11.9,0.6,15.8S2,23.4,4.7,26.3c3,3.1,7.1,4.7,12.1,4.7c4.9,0,9.1-1.6,12.1-4.7c2.7-2.8,4.1-6.5,4.1-10.5
			s-1.4-7.6-4.1-10.5C25.9,2.3,21.6,0.7,16.8,0.7L16.8,0.7z"/>
	</g>
	<g transform="translate(443.7 9.905)">
		<ellipse class="st2" cx="16.3" cy="15.6" rx="15.1" ry="14"/>
		<path class="st14" d="M16.3,2.6c18.6,0,18.6,25.9,0,25.9S-2.3,2.6,16.3,2.6z M16.3,0.4c-4.9,0-9.1,1.7-12.1,4.7
			c-2.7,2.8-4.1,6.5-4.1,10.5s1.4,7.6,4.1,10.5c3,3.1,7.1,4.7,12.1,4.7c4.9,0,9.1-1.6,12.1-4.7c2.7-2.8,4.1-6.5,4.1-10.5
			S31.1,8,28.4,5.2C25.4,2.1,21.2,0.4,16.3,0.4L16.3,0.4z"/>
	</g>
	<g transform="translate(388.2 27.514)">
		<ellipse class="st2" cx="16.5" cy="15.8" rx="15.1" ry="14"/>
		<path class="st14" d="M16.5,2.9c18.6,0,18.6,25.9,0,25.9C-2,28.7-2,2.9,16.5,2.9z M16.5,0.7c-4.9,0-9.1,1.6-12.1,4.7
			c-2.7,2.8-4.1,6.5-4.1,10.5s1.4,7.6,4.1,10.5c3,3.1,7.1,4.7,12.1,4.7s9.1-1.6,12.1-4.7c2.7-2.8,4.1-6.5,4.1-10.5
			s-1.4-7.6-4.1-10.5C25.8,2.3,21.5,0.7,16.5,0.7L16.5,0.7z"/>
	</g>
	<g transform="translate(348.24 5.503)">
		<ellipse class="st2" cx="17.2" cy="15.1" rx="15.1" ry="14"/>
		<path class="st14" d="M17.2,2.2c18.6,0,18.6,25.9,0,25.9C-1.3,28-1.3,2.2,17.2,2.2z M17.2,0C12.3,0,8.1,1.6,5.1,4.7
			C2.4,7.5,1,11.2,1,15.2s1.4,7.6,4.1,10.5c3,3.1,7.1,4.7,12.1,4.7s9.1-1.7,12.1-4.7c2.7-2.8,4.1-6.5,4.1-10.5S32,7.6,29.3,4.7
			C26.3,1.5,22.2,0,17.2,0z"/>
	</g>
	<g>
		<g transform="translate(357.531 12.531)">
			<path class="st43" d="M2.5,0.5h10.9c1.1,0,2,0.9,2,2v10.9c0,1.1-0.9,2-2,2H2.5c-1.1,0-2-0.9-2-2V2.5C0.5,1.4,1.4,0.5,2.5,0.5z"/>
			<path class="st44" d="M5.8,5.6c0-0.6,0.4-0.8,0.9-0.5l3.6,2.2c0.5,0.3,0.5,0.7,0,1l-3.6,2.2c-0.5,0.3-0.9,0.1-0.9-0.5
				C5.8,10,5.8,5.6,5.8,5.6z"/>
			<path class="st45" d="M2.7,3.2V0.5h0.5v14.9H2.7v-2.7H0.5v-0.5h2.1V9.6H0.5V9h2.1V6.9H0.5V6.4h2.1V3.7H0.5V3.2
				C0.5,3.2,2.7,3.2,2.7,3.2z M13.3,3.7v2.7h2.1v0.5h-2.1V9h2.1v0.5h-2.1v2.7h2.1v0.5h-2.1v2.7h-0.5V0.5h0.5v2.7h2.1v0.5
				C15.4,3.7,13.3,3.7,13.3,3.7z"/>
		</g>
		<path class="st46" d="M357.5,14.5c0-1.1,0.9-2,2-2h11.9c1.1,0,2,0.9,2,2v11.9c0,1.1-0.9,2-2,2h-11.9c-1.1,0-2-0.9-2-2V14.5z
			 M358.1,20.4v0.1c0,0.5,0.4,1,1,1h0.1c0.5,0,1-0.4,1-1v-0.1c0-0.5-0.4-1-1-1h-0.1C358.5,19.4,358.1,19.9,358.1,20.4L358.1,20.4z
			 M370.8,20.4v0.1c0,0.5,0.4,1,1,1h0.1c0.5,0,1-0.4,1-1v-0.1c0-0.5-0.4-1-1-1h-0.1C371.3,19.4,370.8,19.9,370.8,20.4L370.8,20.4z
			 M358.1,17.3v0.6c0,0.5,0.4,1,1,1c0,0,0,0,0,0h0.1c0.5,0,1-0.5,1-1v-0.6c0-0.5-0.4-1-1-1c0,0,0,0,0,0h-0.1
			C358.5,16.2,358.1,16.7,358.1,17.3L358.1,17.3z M370.8,17.3v0.6c0,0.5,0.4,1,1,1c0,0,0,0,0,0h0.1c0.5,0,1-0.5,1-1v-0.6
			c0-0.5-0.4-1-1-1c0,0,0,0,0,0h-0.1C371.3,16.2,370.8,16.7,370.8,17.3L370.8,17.3z M358.1,26.3v0.6c0,0.5,0.4,1,1,1c0,0,0,0,0,0
			h0.1c0.5,0,1-0.5,1-1v-0.6c0-0.5-0.4-1-1-1c0,0,0,0,0,0h-0.1C358.5,25.3,358.1,25.7,358.1,26.3L358.1,26.3z M370.8,26.3v0.6
			c0,0.5,0.4,1,1,1c0,0,0,0,0,0h0.1c0.5,0,1-0.5,1-1v-0.6c0-0.5-0.4-1-1-1c0,0,0,0,0,0h-0.1C371.3,25.3,370.8,25.7,370.8,26.3
			L370.8,26.3z M358.1,14.1v0.6c0,0.5,0.4,1,1,1c0,0,0,0,0,0h0.1c0.5,0,1-0.4,1-1v-0.6c0-0.5-0.4-1-1-1c0,0,0,0,0,0h-0.1
			C358.5,13.1,358.1,13.5,358.1,14.1L358.1,14.1z M370.8,14.1v0.6c0,0.5,0.4,1,1,1c0,0,0,0,0,0h0.1c0.5,0,1-0.4,1-1v-0.6
			c0-0.5-0.4-1-1-1c0,0,0,0,0,0h-0.1C371.3,13.1,370.8,13.5,370.8,14.1L370.8,14.1z M358.1,23.1v0.6c0,0.5,0.4,1,1,1c0,0,0,0,0,0
			h0.1c0.5,0,1-0.5,1-1v-0.6c0-0.5-0.4-1-1-1c0,0,0,0,0,0h-0.1C358.5,22.1,358.1,22.5,358.1,23.1L358.1,23.1z M370.8,23.1v0.6
			c0,0.5,0.4,1,1,1c0,0,0,0,0,0h0.1c0.5,0,1-0.5,1-1v-0.6c0-0.5-0.4-1-1-1c0,0,0,0,0,0h-0.1C371.3,22.1,370.8,22.5,370.8,23.1
			L370.8,23.1z"/>
		<path class="st44" d="M363.4,18.1c0-0.5,0.4-0.8,0.9-0.5l3.6,2.2c0.5,0.3,0.5,0.7,0,1l-3.6,2.2c-0.5,0.3-0.9,0.1-0.9-0.5
			C363.4,22.5,363.4,18.1,363.4,18.1z"/>
	</g>
	<g transform="translate(185.07 93.549)">
		<ellipse class="st2" cx="16.5" cy="16" rx="15.1" ry="14"/>
		<path class="st14" d="M16.5,3.1c18.6,0,18.6,25.9,0,25.9C-2,28.9-2,3.1,16.5,3.1z M16.5,0.9c-4.9,0-9.1,1.7-12.1,4.7
			c-2.7,2.8-4.1,6.5-4.1,10.5s1.4,7.6,4.1,10.5c3,3.1,7.1,4.7,12.1,4.7c4.9,0,9.1-1.6,12.1-4.7c2.7-2.8,4.1-6.5,4.1-10.5
			s-1.4-7.6-4.1-10.5C25.8,2.5,21.5,0.9,16.5,0.9z"/>
	</g>
	<g class="st47">
		<path class="st4" d="M262.3,274.5c0.2-0.4-0.6-0.5-0.7-0.2c-0.1,0.2-0.3,0.5-0.3,0.9v0.7c0,0.4,0.1,0.9,0.4,1.2s0.8-0.1,0.6-0.4
			c-0.2-0.2-0.2-0.7-0.2-0.9C261.9,275.3,262.1,274.9,262.3,274.5L262.3,274.5z M269,274.5c-0.2-0.4,0.6-0.5,0.7-0.2
			c0.1,0.2,0.3,0.5,0.3,0.9v0.7c0,0.4-0.1,0.9-0.4,1.2s-0.8-0.1-0.6-0.4c0.2-0.2,0.2-0.7,0.2-0.9C269.4,275.3,269.2,274.9,269,274.5
			L269,274.5z M277.8,267c-0.2-0.1-0.4-0.1-0.6-0.1H277h-0.1c-0.1-0.1-0.3-0.1-0.4,0c-0.2,0.1-0.3,0.3-0.2,0.5
			c0.1,0.2,0.4,0.2,0.7,0.2h0.4C277.8,268,278.3,267.3,277.8,267L277.8,267z M276.9,268.5c-0.2,0-0.4,0-0.6-0.1
			c-0.2-0.1-0.6-0.1-0.7,0.1c-0.1,0.2,0,0.4,0.2,0.5c0.3,0.1,0.7,0.2,1,0.2c0.2,0,0.4-0.2,0.4-0.4S277.1,268.5,276.9,268.5z"/>
		<g>
			<path class="st4" d="M254.1,266.8c-0.3,0-0.8-0.1-1.1-0.1c-0.6,0-0.6,0.9,0,0.9c0.3,0,0.8,0.1,1.1,0.1
				C254.8,267.7,254.8,266.8,254.1,266.8z M254.2,268.3h-0.3c-0.2-0.1-0.8,0-0.8,0.3v0.1c0,0.2,0.2,0.4,0.4,0.4h0.6
				c0.2,0,0.4-0.2,0.4-0.4C254.7,268.4,254.4,268.3,254.2,268.3L254.2,268.3z"/>
		</g>
	</g>
	<path class="st4" d="M267.2,274.9c-0.1-0.2-0.1-0.3-0.3-0.3h-2.3c-0.1,0-0.2,0.1-0.2,0.2v0.1c-0.2,0.9,0.3,1.8,1,2.1
		c0.1,0.1,0.3,0.1,0.4,0.1c0.2,0,0.3-0.1,0.4-0.1C266.9,276.7,267.4,275.8,267.2,274.9z"/>
	<path class="st28" d="M432.4,192.3c-0.7,0-1.4,0.2-2.1,0.3c0.7-0.7,1.4-1,1.6-2.2c0-0.4-0.6-0.6-0.9-0.4c-0.7,0.3-1.4,0.8-2.2,1
		c0.3-0.4,0.7-0.9,0.9-1.3c0.3-0.4-0.3-0.9-0.8-0.7c-1,0.4-2,0.9-3,1.2h-0.1c-2.2-0.3-4.6-0.2-6.7-1.9c-2-1.5-3.4,26.7-2.2,26
		c0.2-0.1,0.4-0.2,0.4-0.4c0.3-0.7,0.4-1.4,0-2.2c-0.2-0.4-0.4-0.9-0.8-1.2c-1.2-1.5-1.6-4.7,1.6-4.3c0.8,0.1,1.4,0.3,2.2,0.3
		c1.2,0.1,1.9-0.8,1.7-1.9c-0.1-1-1.1-2-1.6-2.9c-0.6-0.9-0.4-1.5,0-2c0.7,0.2,1.3,0.3,2.1,0.3c0.3,0,0.8-0.3,0.4-0.8
		c-0.1-0.1-0.2-0.3-0.3-0.4c0.2,0,0.4-0.1,0.6-0.1c0.8,0.3,1.6,0.7,2.4,0.6c0.3,0,0.8-0.3,0.4-0.8c-0.7-1.1-1-2.1-1-3.3
		c2.9,1,6.4,0.6,7.5-2.6C433,192.6,432.7,192.3,432.4,192.3L432.4,192.3z"/>
	<path class="st28" d="M419.8,192.4c0.4-1.6,0.8-3.9-1.4-4h-0.1h-0.1c-1.4-0.1-2.9-0.7-4.3-0.3c-1.7,0.3-4.3,2-4.3-0.6
		c0-0.6-0.9-0.7-1.1-0.1c-0.2,0.7-0.3,1.3-0.4,2.1l-0.2-0.2c-0.3-0.4-1-0.2-1,0.2c-0.1,0.8,0.3,1.6-0.4,2.2
		c-0.7,0.6-1.4,1.1-1.9,1.8c-1.1,1.6-2,3.2-2.3,5.2c0,0.3,0.3,0.6,0.7,0.4c-0.3,1.9-1.3,3.5-1.2,5.4c0,0.4,0.4,0.6,0.8,0.4v0.2
		c-0.4,0.9-1.1,1.7-1.8,2.4c-0.3,0.3-0.1,0.9,0.4,0.9c0.4,0,0.9-0.1,1.1-0.3c-0.4,1-1.2,1.5-1.6,2.6c-0.1,0.3,0.2,0.7,0.6,0.7
		s0.7-0.1,0.9-0.2c-0.1,0.6-0.3,1-0.4,1.5c-0.1,0.4,0.3,0.7,0.7,0.6h0.1c0,0.3,0,0.6-0.1,0.9c-0.1,0.2-0.2,0.3-0.4,0.6
		c-0.4,0.4,0.3,0.8,0.8,0.7c0.3-0.1,0.7-0.3,1-0.6c0,0.3,0,0.8,0.1,1.1l-0.3,0.7c-0.2,0.4,0.2,0.8,0.7,0.7c0.2,0.1,0.4,0.2,0.7,0.1
		l0.1-0.1c0.2,0.9,0.9,0.9,1.7,0.6c-0.2,0.4,0.3,0.9,0.8,0.7c3.7-1.9,4.1-6.1,5.9-9.5c1.1-2.1,3.6-2.1,4.7-3.7c0.2-0.3,0-0.7,0-1
		c-0.2-1.3,0.1-2.2,0.7-3.3c0.8-1.6-0.4-3.2,0.1-5.1C418.9,194.7,419.5,193.6,419.8,192.4L419.8,192.4z"/>
	<path class="st12" d="M419.8,208.2c0.1-1.8-0.2-3.6-1.4-4.8c-1.7-1.6-3.6-2.1-5.5-0.7c-0.1,0.1-0.1,0.1-0.1,0.2
		c-1.7,0.7-1.7,6.1-1.7,7c0.1,2.6,2.2,6.9,5.5,5.4C419.2,214.1,420.2,210.9,419.8,208.2z"/>
	<path class="st28" d="M411.7,210.2c0,0.8-0.3,1.5-0.4,2.3v0.4c-0.2-0.4-0.9-0.4-1.1,0c0,0.1,0,0.2-0.1,0.2s-0.3,0.1-0.3,0.3
		c-0.2,0.6-0.4,1.2-0.6,1.8c-0.1-0.1-0.2-0.1-0.3-0.1h-0.1c-0.6,0-0.7,0.7-0.2,0.9c0.3,0.7,0.7,1.3,1.2,1.9c0.3,0.6,1.3,0.1,1-0.4
		c0,0,0-0.1-0.1-0.1c0-0.6,0-1.1,0.1-1.7c0-0.2,0.1-0.4,0.1-0.7c0.1,0.3,0.2,0.8,0.4,1.1c0.2,0.4,1,0.2,1-0.2c0-2,0.4-3.7,0.6-5.6
		C412.8,209.5,411.7,209.5,411.7,210.2L411.7,210.2z"/>
	<path class="st11" d="M424.3,189.6c-2.1-3.2-6.4-1.8-8.9,0c-1.8,1.3-2.8,3.5-3.3,5.6c-0.3,1.1-0.3,2.3-0.3,3.5
		c0,0.8,0.6,2.6,0.2,3.2c-0.1,0.2,0,0.4,0.1,0.6c0,0.1,0.1,0.2,0.2,0.2c1.7,0.7,2.4,2,4.4,2.2c0.4,0,0.8-0.2,0.7-0.6
		c-0.4-2.4,0.3-5.1,0.8-7.5c0.2-1.5,1-2.9,1.7-4.2c1-1.8,2.1-2.2,4.1-2.4C424.2,190.3,424.5,190,424.3,189.6L424.3,189.6z"/>
	<path class="st11" d="M418.1,208.2c0.1-1.8-0.2-3.6-1.4-4.8c-1.7-1.6-3.6-2.1-5.5-0.7c-0.1,0.1-0.1,0.1-0.1,0.2
		c-1.7,0.7-1.8,6.1-1.7,7c0.1,2.6,2.2,6.9,5.5,5.4C417.4,214.1,418.4,210.9,418.1,208.2z"/>
	<path class="st15" d="M67.9,101.8c-0.1,0-1.4,0-1.4-1.1v-0.6c0-1.1,1.3-1.1,1.4-1.1s1.4,0,1.4,1.1v0.6
		C69.3,101.8,68,101.8,67.9,101.8z M78.4,104.1c-1,0-1.3-0.7-1.3-1.2c0-0.3,0.1-0.6,0.3-0.8c0.2-0.2,0.6-0.3,1-0.3
		c1,0,1.3,0.7,1.3,1.2c0,0.3-0.1,0.6-0.3,0.8C79.2,103.9,78.8,104.1,78.4,104.1z M89.5,105.8c-0.7,0-1.4-0.4-1.4-1.2
		c0-0.4,0.3-0.8,0.4-0.9l0.1-0.1c0.2-0.4,0.8-0.7,1.3-0.7c0.4,0,0.9,0.1,1.1,0.4c0.2,0.2,0.3,0.4,0.3,0.8
		C91.5,105.4,90.3,105.8,89.5,105.8z M80.6,45.8c-1,0-1.3-0.7-1.3-1.2c0-0.3,0.1-0.6,0.3-0.8s0.6-0.3,1-0.3c1,0,1.3,0.7,1.3,1.2
		c0,0.3-0.1,0.5-0.3,0.8C81.4,45.6,81.1,45.8,80.6,45.8L80.6,45.8z M85.6,55.1c-1,0-1.3-0.7-1.3-1.2c0-0.3,0.1-0.6,0.3-0.8
		s0.6-0.3,1-0.3c1,0,1.3,0.7,1.3,1.2c0,0.3-0.1,0.5-0.3,0.8C86.4,54.9,86.1,55.1,85.6,55.1L85.6,55.1z M91.2,65.6
		c-1,0-1.3-0.7-1.3-1.2c0-0.3,0.1-0.5,0.3-0.8s0.6-0.3,1-0.3c1,0,1.3,0.7,1.3,1.2c0,0.3-0.1,0.6-0.3,0.8
		C91.9,65.4,91.6,65.6,91.2,65.6z M98.4,77.7c-0.8,0-2-0.2-2-1.8c0-0.3,0.1-0.6,0.3-0.8c0.2-0.2,0.7-0.4,1.1-0.4
		c0.6,0,1.1,0.2,1.3,0.6l0.1,0.1c0.2,0.2,0.6,0.4,0.6,0.9c0,0.3-0.1,0.6-0.4,0.8C99.2,77.5,98.7,77.7,98.4,77.7z M108.4,89.1
		c-0.1,0-1.4,0-1.4-1.1v-0.6c0-1.1,1.3-1.1,1.4-1.1s1.4,0,1.4,1.1V88C109.8,89.1,108.5,89.1,108.4,89.1L108.4,89.1z"/>
	<g>
		<path class="st15" d="M132.9,74.9c-0.4,0-0.8-0.1-1.1-0.3c-0.2-0.2-0.3-0.4-0.3-0.8s0.1-0.7,0.4-0.9l0.6-0.6
			c0.2-0.2,0.6-0.3,1-0.3s0.8,0.1,1.1,0.3c0.2,0.2,0.3,0.4,0.3,0.8s-0.1,0.7-0.4,0.9l-0.6,0.6C133.6,74.7,133.2,74.9,132.9,74.9
			L132.9,74.9z M132.2,65.6c-1,0-1.3-0.7-1.3-1.2c0-0.3,0.1-0.5,0.3-0.8s0.6-0.3,1-0.3c1,0,1.3,0.7,1.3,1.2c0,0.3-0.1,0.6-0.3,0.8
			C133,65.4,132.7,65.6,132.2,65.6z M132.2,55.7c-1,0-1.3-0.7-1.3-1.2c0-0.3,0.1-0.5,0.3-0.8s0.6-0.3,1-0.3c1,0,1.3,0.7,1.3,1.2
			c0,0.3-0.1,0.5-0.3,0.8C133,55.5,132.7,55.7,132.2,55.7L132.2,55.7z"/>
	</g>
	<g>
		<path class="st15" d="M156.1,84.6c-0.7,0-1.4-0.4-1.4-1.2s0.8-1.2,1.4-1.2h0.4c0.7,0,1.4,0.4,1.4,1.2c0,0.8-0.8,1.2-1.4,1.2H156.1
			z M166.2,76.9c-0.4,0-0.9-0.1-1.1-0.4c-0.2-0.2-0.3-0.4-0.3-0.8c0-1.1,0.9-1.5,1.8-1.5c0.7,0,1.4,0.4,1.4,1.2
			c0,0.4-0.2,0.7-0.4,0.8l-0.1,0.1l-0.1,0.1C167.2,76.7,166.8,76.9,166.2,76.9L166.2,76.9z M176.5,65.9c-0.7,0-1.4-0.4-1.4-1.2
			s0.8-1.2,1.4-1.2h0.3c0.7,0,1.4,0.4,1.4,1.2c0,0.8-0.8,1.2-1.4,1.2H176.5z M182.5,54.6c-1,0-1.3-0.7-1.3-1.2
			c0-0.3,0.1-0.5,0.3-0.8s0.6-0.3,1-0.3c1,0,1.3,0.7,1.3,1.2c0,0.3-0.1,0.5-0.3,0.8C183.3,54.4,183,54.6,182.5,54.6L182.5,54.6z
			 M186.5,41.4c-1,0-1.3-0.7-1.3-1.2c0-0.3,0.1-0.5,0.3-0.8s0.6-0.3,1-0.3c1,0,1.3,0.7,1.3,1.2c0,0.3-0.1,0.5-0.3,0.8
			C187.4,41.2,187,41.4,186.5,41.4L186.5,41.4z"/>
	</g>
	<g>
		<path class="st15" d="M211.3,127.8c-0.7,0-1.4-0.4-1.4-1.2c0-0.7,0.8-1.2,1.4-1.2h0.2c0.7,0,1.4,0.4,1.4,1.2
			c0,0.7-0.8,1.2-1.4,1.2L211.3,127.8L211.3,127.8z M217.4,134.6c-1,0-1.3-0.7-1.3-1.2c0-0.3,0.1-0.6,0.3-0.8s0.6-0.3,1-0.3
			c1,0,1.3,0.7,1.3,1.2c0,0.3-0.1,0.6-0.3,0.8S217.8,134.6,217.4,134.6z M227.4,139.2c-0.6,0-1.4-0.2-1.4-1.1v-0.2
			c0-0.9,0.9-1.1,1.4-1.1s1.4,0.2,1.4,1.1v0.2C228.8,139,227.8,139.2,227.4,139.2L227.4,139.2z"/>
	</g>
	<g>
		<path class="st15" d="M227.8,69.4c-0.7,0-1.4-0.4-1.4-1.2c0-0.7,0.8-1.2,1.4-1.2h0.4c0.7,0,1.4,0.4,1.4,1.2c0,0.7-0.8,1.2-1.4,1.2
			H227.8z M230.1,80c-1,0-1.3-0.7-1.3-1.2c0-0.3,0.1-0.6,0.3-0.8s0.6-0.3,1-0.3c1,0,1.3,0.7,1.3,1.2c0,0.3-0.1,0.6-0.3,0.8
			C230.9,79.9,230.6,80,230.1,80L230.1,80z M233,88.8c-1,0-1.3-0.7-1.3-1.2c0-0.3,0.1-0.6,0.3-0.8c0.2-0.2,0.6-0.3,1-0.3
			c1,0,1.3,0.7,1.3,1.2c0,0.3-0.1,0.6-0.3,0.8C233.8,88.7,233.5,88.8,233,88.8z M237.9,99.2c-1,0-1.3-0.7-1.3-1.2
			c0-0.3,0.1-0.6,0.3-0.8s0.6-0.3,1-0.3c1,0,1.3,0.7,1.3,1.2c0,0.3-0.1,0.6-0.3,0.8C238.7,98.9,238.4,99.2,237.9,99.2L237.9,99.2z
			 M242.3,108.6c-1,0-1.3-0.7-1.3-1.2c0-0.3,0.1-0.6,0.3-0.8s0.6-0.3,1-0.3c1,0,1.3,0.7,1.3,1.2c0,0.3-0.1,0.6-0.3,0.8
			C243.1,108.5,242.8,108.6,242.3,108.6L242.3,108.6z M247.1,117.1c-0.6,0-1.4-0.2-1.4-1.1v-0.4c0-0.9,0.9-1.1,1.4-1.1
			s1.4,0.2,1.4,1.1v0.3C248.6,116.8,247.7,117.1,247.1,117.1z"/>
	</g>
	<g>
		<path class="st15" d="M273.4,96.1c-1,0-1.3-0.7-1.3-1.2c0-0.3,0.1-0.6,0.3-0.8c0.2-0.2,0.6-0.3,1-0.3c1,0,1.3,0.7,1.3,1.2
			c0,0.3-0.1,0.6-0.3,0.8C274.2,96,273.9,96.1,273.4,96.1z M273.4,105.8c-1,0-1.3-0.7-1.3-1.2c0-0.3,0.1-0.6,0.3-0.8
			c0.2-0.2,0.6-0.3,1-0.3c1,0,1.3,0.7,1.3,1.2c0,0.3-0.1,0.6-0.3,0.8C274.2,105.5,273.9,105.8,273.4,105.8z M272.3,114.5
			c-0.6,0-1.4-0.2-1.4-1.1V113c0-0.9,0.9-1.1,1.4-1.1s1.4,0.2,1.4,1.1v0.3C273.8,114.2,272.8,114.5,272.3,114.5L272.3,114.5z"/>
	</g>
	<g>
		<path class="st15" d="M293.7,133.6c-0.2,0-0.4,0-0.7-0.2l-0.1-0.1l-0.1-0.1c-0.1,0-0.2-0.1-0.3-0.2c-0.4-0.7-0.4-1.3,0.1-1.8
			c0.3-0.2,0.8-0.4,1.2-0.4c0.2,0,0.4,0,0.7,0.2l0.1,0.1l0.1,0.1c0.1,0,0.2,0.1,0.3,0.2c0.4,0.7,0.4,1.3-0.1,1.8
			C294.6,133.4,294.2,133.6,293.7,133.6L293.7,133.6z M301,124.4c-1,0-1.3-0.7-1.3-1.2c0-0.3,0.1-0.6,0.3-0.8c0.2-0.2,0.6-0.3,1-0.3
			c1,0,1.3,0.7,1.3,1.2c0,0.3-0.1,0.6-0.3,0.8C301.7,124.3,301.4,124.4,301,124.4L301,124.4z M306.3,115c-1,0-1.3-0.7-1.3-1.2
			c0-0.3,0.1-0.6,0.3-0.8c0.2-0.2,0.6-0.3,1-0.3c1,0,1.3,0.7,1.3,1.2c0,0.3-0.1,0.6-0.3,0.8C307.1,114.9,306.6,115,306.3,115z
			 M310.2,105.1c-1,0-1.3-0.7-1.3-1.2c0-0.3,0.1-0.6,0.3-0.8c0.2-0.2,0.6-0.3,1-0.3c1,0,1.3,0.7,1.3,1.2c0,0.3-0.1,0.6-0.3,0.8
			C310.9,105,310.5,105.1,310.2,105.1L310.2,105.1z M314.1,94.3c-1,0-1.3-0.7-1.3-1.2c0-0.3,0.1-0.6,0.3-0.8c0.2-0.2,0.6-0.3,1-0.3
			c1,0,1.3,0.7,1.3,1.2c0,0.3-0.1,0.6-0.3,0.8C314.8,94.2,314.4,94.3,314.1,94.3L314.1,94.3z M317,83.9c-1,0-1.3-0.7-1.3-1.2
			c0-0.3,0.1-0.6,0.3-0.8c0.2-0.2,0.6-0.3,1-0.3c1,0,1.3,0.7,1.3,1.2c0,0.3-0.1,0.6-0.3,0.8C317.8,83.8,317.5,83.9,317,83.9
			L317,83.9z M319,74c-1,0-1.3-0.7-1.3-1.2c0-0.3,0.1-0.6,0.3-0.8c0.2-0.2,0.6-0.3,1-0.3c1,0,1.3,0.7,1.3,1.2c0,0.3-0.1,0.6-0.3,0.8
			C319.8,73.8,319.4,74,319,74L319,74z M321.6,63.3c-1,0-1.3-0.7-1.3-1.2c0-0.3,0.1-0.7,0.3-0.8c0.2-0.2,0.6-0.3,1-0.3
			c1,0,1.3,0.7,1.3,1.2c0,0.3-0.1,0.7-0.3,0.8C322.5,63.2,322,63.3,321.6,63.3z"/>
	</g>
	<g>
		<path class="st15" d="M358.3,97.6c-0.1,0-0.3,0-0.6-0.1c-1-0.3-1-1.1-1-1.3c0.1-0.6,0.4-1,1.1-1c0.1,0,0.3,0,0.6,0.1
			c1,0.3,1,1.1,1,1.3C359.5,97.1,359,97.6,358.3,97.6z M366.9,105.9c-0.6,0-1.1-0.2-1.4-0.7c-0.2-0.2-0.2-0.6-0.1-0.9l0.1-0.6
			c0.2-0.7,0.8-0.8,1.1-0.8c0.6,0,1.1,0.2,1.4,0.7c0.2,0.2,0.2,0.6,0.1,0.9l-0.1,0.6C367.9,105.8,367.3,105.9,366.9,105.9z
			 M376.4,111.7c-0.1,0-0.3,0-0.6-0.1c-1-0.3-1-1.1-1-1.3c0.1-0.6,0.4-1,1.1-1c0.1,0,0.3,0,0.6,0.1c1,0.3,1,1.1,1,1.3
			C377.4,111.2,377.1,111.7,376.4,111.7z"/>
	</g>
	<g>
		<path class="st15" d="M366.3,42.2c-1,0-1.3-0.7-1.3-1.2c0-0.3,0.1-0.5,0.3-0.8c0.2-0.2,0.6-0.3,1-0.3c1,0,1.3,0.7,1.3,1.2
			c0,0.3-0.1,0.5-0.3,0.8C367.1,42,366.8,42.2,366.3,42.2z M366.9,51.5c-1,0-1.3-0.7-1.3-1.2c0-0.3,0.1-0.6,0.3-0.8
			c0.2-0.2,0.6-0.3,1-0.3c1,0,1.3,0.7,1.3,1.2c0,0.3-0.1,0.5-0.3,0.8C367.7,51.4,367.3,51.5,366.9,51.5L366.9,51.5z M370.2,61.4
			c-1,0-1.3-0.7-1.3-1.2c0-0.3,0.1-0.5,0.3-0.8c0.2-0.2,0.6-0.3,1-0.3c1,0,1.3,0.7,1.3,1.2c0,0.3-0.1,0.5-0.3,0.8
			C371,61.3,370.7,61.4,370.2,61.4z M376.9,71.3c-1,0-1.3-0.7-1.3-1.2c0-0.3,0.1-0.6,0.3-0.8c0.2-0.2,0.6-0.3,1-0.3
			c1,0,1.3,0.7,1.3,1.2c0,0.3-0.1,0.6-0.3,0.8C377.7,71.2,377.3,71.3,376.9,71.3z M384.1,81.8c-1,0-1.3-0.7-1.3-1.2
			c0-0.3,0.1-0.6,0.3-0.8c0.2-0.2,0.6-0.3,1-0.3c1,0,1.3,0.7,1.3,1.2c0,0.3-0.1,0.6-0.3,0.8C384.9,81.7,384.5,81.8,384.1,81.8
			L384.1,81.8z M393,90c-0.7,0-1.4-0.4-1.4-1.2c0-0.7,0.8-1.2,1.4-1.2h0.6c0.7,0,1.4,0.4,1.4,1.2c0,0.7-0.8,1.2-1.4,1.2H393z"/>
	</g>
	<g>
		<path class="st15" d="M411.6,64.5c-1,0-1.3-0.7-1.3-1.2c0-0.3,0.1-0.5,0.3-0.8c0.2-0.2,0.6-0.3,1-0.3c1,0,1.3,0.7,1.3,1.2
			c0,0.3-0.1,0.5-0.3,0.8C412.4,64.3,412.1,64.5,411.6,64.5L411.6,64.5z M413.8,72.4c-0.7,0-1.4-0.4-1.4-1.2c0-0.7,0.8-1.2,1.4-1.2
			h0.6c0.7,0,1.4,0.4,1.4,1.2c0,0.7-0.8,1.2-1.4,1.2L413.8,72.4L413.8,72.4z M415.5,80.7c-0.7,0-1.4-0.4-1.4-1.2
			c0-0.7,0.8-1.2,1.4-1.2h0.6c0.7,0,1.4,0.4,1.4,1.2c0,0.7-0.8,1.2-1.4,1.2H415.5z"/>
	</g>
	<g>
		<path class="st15" d="M458.4,47c-1,0-1.3-0.7-1.3-1.2c0-0.3,0.1-0.5,0.3-0.8c0.2-0.2,0.6-0.3,1-0.3c1,0,1.3,0.7,1.3,1.2
			c0,0.3-0.1,0.5-0.3,0.8C459.1,46.9,458.8,47,458.4,47L458.4,47z M457.2,58c-1,0-1.3-0.7-1.3-1.2c0-0.3,0.1-0.5,0.3-0.8
			c0.2-0.2,0.6-0.3,1-0.3c1,0,1.3,0.7,1.3,1.2c0,0.3-0.1,0.5-0.3,0.8C458,57.9,457.7,58,457.2,58z M455.5,67.9
			c-0.6,0-1.4-0.2-1.4-1.1v-0.6c0-0.9,0.9-1.1,1.4-1.1s1.4,0.2,1.4,1.1v0.6C456.8,67.7,455.9,67.9,455.5,67.9z M453,77.8
			c-0.6,0-1.4-0.2-1.4-1.1v-0.6c0-0.9,0.9-1.1,1.4-1.1s1.4,0.2,1.4,1.1v0.6C454.5,77.6,453.6,77.8,453,77.8z M448.6,88.2
			c-1,0-1.3-0.7-1.3-1.2c0-0.3,0.1-0.6,0.3-0.8c0.2-0.2,0.6-0.3,1-0.3c1,0,1.3,0.7,1.3,1.2c0,0.3-0.1,0.6-0.3,0.8
			C449.4,87.9,449,88.2,448.6,88.2z M443,97c-1,0-1.3-0.7-1.3-1.2c0-0.3,0.1-0.6,0.3-0.8c0.2-0.2,0.6-0.3,1-0.3c1,0,1.3,0.7,1.3,1.2
			c0,0.3-0.1,0.6-0.3,0.8C443.8,96.7,443.5,97,443,97z"/>
	</g>
	<g>
		<path class="st48" d="M188.3,7.6c-1-0.3-2-0.4-3-0.4h-2.8l-0.2,0.1l-0.2,0.1H182l-0.2,0.1c-0.1,0.1-0.3,0.1-0.4,0.2l-0.2,0.1V8
			l-0.2,0.1c-0.8,0.4-1.6,1-2.2,1.7c-1.8,1.8-2.7,4.1-2.8,6.5c0.2-0.2,0.4-0.6,0.6-0.8c1.5-2,3.6-3.5,5.9-4.5
			c0.3-0.2,0.8-0.3,1.1-0.4c0.4-0.1,0.8-0.3,1.2-0.4l0.2-0.1l0.2-0.1h2l0.6-0.1h0.1c0.6,0,1-0.1,1.6-0.1h0.1c0.8,0,1.6,0.1,2.4,0.2
			C190.7,8.8,189.5,8,188.3,7.6L188.3,7.6z"/>
		<path class="st49" d="M181.7,21.7c-1.1-0.8-2-1.9-2.4-3.1c-0.4,0.4-0.8,0.9-1,1.4c-0.3,0.5-0.7,1.1-0.9,1.7
			c0.1,0.2,0.3,0.4,0.4,0.7h5.2C182.6,22.2,182.2,21.9,181.7,21.7 M191.1,18.9c-0.2,0.4-0.6,1-0.8,1.4c-0.8,1-1.7,1.7-2.8,2.1h5.1
			c0.4-0.5,0.9-1.2,1.2-1.9c-0.6-0.2-1.1-0.4-1.7-0.8C191.8,19.4,191.4,19.1,191.1,18.9"/>
		<path class="st50" d="M193.8,12.5l-0.1-0.1v-0.1c-0.7-0.1-1.3-0.2-2-0.2c-0.7-0.1-1.4-0.1-2.1-0.1c0.2,0.1,0.3,0.3,0.4,0.6l0.7,1
			c0.8,1.5,1,3.2,0.6,4.8c-0.1,0.2-0.1,0.4-0.2,0.7c0.8,0.7,1.8,1.2,2.8,1.5c0.4-1,0.8-2.1,0.9-3.1v-0.8
			C194.7,15.1,194.4,13.8,193.8,12.5"/>
		<path class="st51" d="M175.9,16.3v0.2c0,1.9,0.6,3.6,1.6,5.2c0.6-1.1,1.2-2.1,1.9-3.1c-1.1-2.9,0.2-6.2,2.9-7.6
			C179.7,12.2,177.5,14,175.9,16.3 M191.7,9.7c-0.8-0.1-1.6-0.2-2.4-0.2h-0.1c-0.6,0-1,0-1.6,0.1c-1.4,0.1-2.9,0.4-4.3,1
			c2.2-0.7,4.6-0.1,6.2,1.4c1.3,0,2.8,0.1,4.1,0.3C193.2,11.3,192.5,10.5,191.7,9.7"/>
	</g>
	<g>
		<path class="st52" d="M314.3,45.3c-0.2-0.2-0.6-0.3-0.9-0.3c-0.2,0-0.4,0.1-0.7,0.2v-1.3c0-0.1-0.1-0.2-0.2-0.2s-0.2,0.1-0.2,0.2
			v3.6c0,0.1,0.1,0.2,0.1,0.2c0.3,0.1,0.7,0.2,1,0.2s0.7-0.1,0.9-0.3c0.2-0.3,0.3-0.7,0.3-1.1S314.5,45.7,314.3,45.3L314.3,45.3z
			 M313.9,47.2c-0.1,0.2-0.3,0.2-0.6,0.2s-0.4,0-0.7-0.1v-1.5c0-0.1,0-0.2,0.1-0.3s0.3-0.1,0.6-0.1s0.4,0.1,0.6,0.2
			c0.1,0.2,0.2,0.5,0.1,0.8C314.2,46.8,314.1,47,313.9,47.2z M316.9,45.3c-0.2-0.2-0.6-0.4-0.9-0.3c-0.3,0-0.7,0.1-0.9,0.3
			c-0.2,0.3-0.3,0.7-0.3,1.1s0.1,0.8,0.3,1.1c0.2,0.2,0.6,0.3,0.9,0.3s0.7-0.1,0.9-0.3c0.2-0.3,0.3-0.7,0.3-1.1
			C317.3,46.1,317.2,45.7,316.9,45.3z M316.6,47.2c-0.1,0.2-0.3,0.2-0.6,0.2c-0.2,0-0.4-0.1-0.6-0.2c-0.1-0.2-0.2-0.5-0.1-0.8
			c0-0.2,0-0.5,0.1-0.8s0.3-0.2,0.6-0.2s0.4,0.1,0.6,0.2c0.1,0.2,0.2,0.4,0.2,0.8S316.8,47,316.6,47.2z M319.7,45.3
			c0-0.1-0.1-0.2-0.2-0.2s-0.2,0.1-0.2,0.2v2.1c-0.2,0-0.3,0.1-0.6,0.1c-0.2,0-0.4-0.1-0.6-0.2c-0.1-0.2-0.2-0.5-0.1-0.9v-1.1
			c0-0.1-0.1-0.2-0.2-0.2s-0.2,0.1-0.2,0.2v1.1c0,0.4,0.1,0.8,0.3,1.1c0.2,0.2,0.6,0.3,0.9,0.3s0.7,0,0.9-0.1c0.1,0,0.1-0.1,0.1-0.2
			v-2.2L319.7,45.3L319.7,45.3z M321.4,47.2C321.3,47.2,321.3,47.2,321.4,47.2h-0.1c-0.1-0.1-0.7-1.7-0.8-2c0-0.1-0.1-0.2-0.2-0.1
			c-0.1,0-0.2,0.1-0.1,0.2l0.7,1.9c0,0.2,0.2,0.3,0.3,0.4l-0.4,1.1c0,0.1,0,0.2,0.1,0.3c0.1,0,0.2,0,0.3-0.1l1.3-3.6
			c0-0.1,0-0.2-0.1-0.3c-0.1,0-0.2,0-0.3,0.1L321.4,47.2L321.4,47.2z M324.8,45.5c0-0.1,0-0.2-0.1-0.2c-0.3-0.1-0.7-0.2-1-0.2
			s-0.7,0.1-0.9,0.3c-0.2,0.3-0.3,0.7-0.3,1.1c0,0.3,0.1,0.8,0.3,1c0.2,0.2,0.6,0.4,0.9,0.3c0.2,0,0.4-0.1,0.7-0.2v0.3
			c0,0.2,0,0.3-0.1,0.4c-0.1,0.1-0.2,0.2-0.4,0.2h-0.3c-0.1,0-0.2-0.1-0.4-0.1c-0.1,0-0.2,0-0.2,0.1c-0.1,0.1,0,0.2,0.1,0.3
			s0.3,0.1,0.4,0.2c0.1,0,0.3,0.1,0.4,0.1s0.3,0,0.4-0.1c0.1,0,0.2-0.1,0.3-0.2c0.1-0.1,0.1-0.2,0.2-0.3c0-0.1,0.1-0.2,0.1-0.4
			C324.9,48.1,324.8,45.5,324.8,45.5z M324.4,47c0,0.1,0,0.2-0.1,0.3s-0.3,0.2-0.6,0.1c-0.2,0-0.4-0.1-0.6-0.2
			c-0.1-0.2-0.2-0.4-0.1-0.8c0-0.3,0-0.5,0.1-0.9c0.1-0.2,0.3-0.2,0.6-0.2s0.4,0,0.7,0.1c0,0,0.1,0,0.1,0.1L324.4,47z M327.4,45.3
			c0-0.1-0.1-0.2-0.2-0.2s-0.2,0.1-0.2,0.2v2.1c0,0,0,0.1-0.1,0.1c-0.2,0-0.3,0.1-0.6,0.1c-0.2,0-0.4-0.1-0.6-0.2
			c-0.1-0.2-0.2-0.5-0.1-0.9v-1.1c0-0.1-0.1-0.2-0.2-0.2s-0.2,0.1-0.2,0.2v1.1c0,0.4,0.1,0.8,0.3,1.1c0.2,0.2,0.6,0.3,0.9,0.3
			s0.7,0,0.9-0.1c0.1,0,0.1-0.1,0.1-0.2L327.4,45.3L327.4,45.3z M329.9,45.5c-0.2-0.2-0.6-0.3-0.9-0.3s-0.7,0.1-0.9,0.3
			c-0.1,0.2-0.2,0.3-0.2,0.5c0,0.2-0.1,0.4,0,0.5c0,0.3,0.1,0.8,0.3,1.1c0.2,0.2,0.6,0.3,0.9,0.3s0.7,0,1-0.2l0.1-0.1v-0.1
			c0-0.1-0.1-0.2-0.2-0.2h-0.2c-0.2,0.1-0.4,0.2-0.8,0.1c-0.2,0-0.4-0.1-0.6-0.2c-0.1-0.2-0.2-0.4-0.1-0.8h1.8
			c0.1,0,0.2-0.1,0.2-0.2C330.1,46,330,45.7,329.9,45.5L329.9,45.5z M328.3,46.1c0-0.2,0.1-0.4,0.2-0.5s0.3-0.1,0.4-0.1
			c0.2,0,0.3,0,0.4,0.1c0.2,0.1,0.2,0.3,0.2,0.5H328.3L328.3,46.1z M331.9,45.6c-0.2-0.1-0.4-0.1-0.7-0.1H331h-0.1l-0.1,0.1v0.1
			c0,0.2,0.2,0.3,0.6,0.4c0.4,0.1,0.9,0.3,0.9,0.9c0,0.1,0,0.2-0.1,0.3c0,0.1-0.1,0.2-0.2,0.2c-0.1,0.1-0.2,0.1-0.3,0.2
			c-0.1,0-0.3,0.1-0.4,0.1c-0.3,0-0.6-0.1-0.8-0.2l-0.1-0.1v-0.1c0-0.1,0.1-0.2,0.2-0.2h0.1c0.2,0.1,0.3,0.1,0.6,0.1s0.3,0,0.4-0.1
			s0.1-0.2,0.1-0.3c0-0.2-0.3-0.3-0.6-0.4c-0.7-0.1-0.9-0.4-0.9-0.9c0-0.2,0.1-0.4,0.2-0.5c0.2-0.1,0.4-0.2,0.7-0.2s0.6,0,0.8,0.2
			c0.1,0,0.1,0.1,0.1,0.2C332.3,45.6,332.1,45.6,331.9,45.6z M325.5,49.1C325.4,49.1,325.4,49.1,325.5,49.1l-0.1-0.5h-0.2v-0.1h0.4
			h-0.2L325.5,49.1L325.5,49.1z M326.7,49.1h-0.4v-0.7h0.4h-0.3v0.2h0.2h-0.2v0.2h0.3C326.7,49,326.8,49,326.7,49.1
			C326.8,49,326.8,49,326.7,49.1C326.8,49.1,326.7,49.1,326.7,49.1z M327.8,49.1h-0.4v-0.7V49h0.3C327.8,49,327.8,49,327.8,49.1z
			 M328.8,49.1h-0.4v-0.7h0.4h-0.3v0.2h0.2h-0.2v0.2h0.3V49.1C328.8,49,328.8,49,328.8,49.1z M329.9,48.9V49c-0.1,0-0.1,0.1-0.2,0.1
			s-0.1,0-0.2-0.1s-0.1-0.1-0.1-0.2s0-0.2,0.1-0.2s0.1-0.1,0.2-0.1s0.1,0,0.2,0.1c0,0,0,0.1,0.1,0.1v-0.1h-0.1h-0.1
			c0,0-0.1,0.1-0.1,0.2s0,0.2,0.1,0.2C329.7,49,329.8,49,329.9,48.9C329.8,49,329.8,48.9,329.9,48.9z M330.9,48.4
			c0.1,0.1,0.1,0.1,0.1,0.2s0,0.2-0.1,0.2c0,0-0.1,0.1-0.2,0.1s-0.1,0-0.2-0.1s-0.1-0.1-0.1-0.2s0-0.2,0.1-0.2s0.1-0.1,0.2-0.1
			C330.8,48.4,330.9,48.4,330.9,48.4z M330.9,49v-0.2v-0.2h-0.2V49L330.9,49C330.8,49,330.8,49,330.9,49z M332.1,49.1l-0.1-0.3
			l-0.1,0.3l-0.1-0.3v0.3v-0.7l0.2,0.4l0.2-0.4L332.1,49.1z"/>
		<path class="st53" d="M323.4,42.9c0.9,0.7,2.7-0.4,4-2.2c1.3-1.9,1.7-3.9,0.7-4.5c-0.9-0.7-2.7,0.3-3.9,2.2
			C322.8,40.3,322.5,42.4,323.4,42.9L323.4,42.9z"/>
		<path class="st54" d="M321.2,42.9c-0.9,0.7-2.7-0.4-4-2.2c-1.3-1.9-1.7-3.9-0.7-4.5c0.9-0.7,2.7,0.3,3.9,2.2S322,42.4,321.2,42.9
			L321.2,42.9z"/>
		<path class="st55" d="M322.3,32.8c2.2,0,4.1,0.9,4.1,2c0,1.1-1.9,2-4.1,2s-4.1-0.9-4.1-2C318.2,33.7,320,32.8,322.3,32.8z"/>
	</g>
	<g>
		<path class="st56" d="M353.7,76.4v1.5h2.3l-0.3,2.3h-2v6.1h1.6c0.4,0,0.9-0.4,0.9-0.9V75.3h-1.2C353.9,75.3,353.7,75.7,353.7,76.4
			L353.7,76.4z"/>
		<path class="st56" d="M355.3,70.8h-14c-0.4,0-0.9,0.4-0.9,0.9v13.9c0,0.4,0.4,0.9,0.9,0.9h10v-6.1h-2V78h2.1v-1.8
			c0-2,1.2-3.1,3.1-3.1c0.6,0,1.2,0,1.8,0.1v-1.5C356.1,71.1,355.8,70.8,355.3,70.8L355.3,70.8z"/>
	</g>
	<g>
		<path class="st57" d="M414.1,41.6H405v3.7h5.2c-0.2,1.2-0.9,2.2-1.9,2.9l3.1,2.4c1.1-1,1.9-2.3,2.3-3.7
			C414.3,45.1,414.4,43.4,414.1,41.6L414.1,41.6z"/>
		<path class="st58" d="M408.3,48.2c-1,0.7-2.1,1-3.2,0.9c-1.8,0-3.4-0.9-4.4-2.3c-0.4-0.5-0.7-1-0.9-1.5v-0.1l-2.2,1.7l-1,0.8
			c0.8,1.4,1.9,2.8,3.2,3.6c1.6,1.1,3.4,1.7,5.3,1.7c2.3,0.1,4.6-0.7,6.3-2.3L408.3,48.2z"/>
		<path class="st59" d="M399.6,41.5l-2.2-1.7l-1-0.8c-0.1,0.2-0.2,0.5-0.3,0.8c-0.9,2.2-0.9,4.7,0,6.9c0.1,0.2,0.2,0.5,0.3,0.8
			l1-0.8l2.2-1.7C399.2,44,399.2,42.7,399.6,41.5z"/>
		<path class="st60" d="M405,33.8c-3.7,0-7,2.1-8.7,5.3l1,0.8l2.2,1.7v-0.1c0.2-0.5,0.4-1.1,0.9-1.5c1-1.4,2.7-2.2,4.4-2.3
			c1.3,0,2.7,0.4,3.7,1.4l2.8-2.8C409.6,34.7,407.4,33.8,405,33.8z"/>
	</g>
	<path class="st61" d="M139.7,34.2c0.6-0.9,0.7-0.9,0.7-1.3c0-0.3-0.7-0.7-1.1-0.9c-0.3-0.2-0.7-0.3-1.1-0.4c-0.2,0-0.4,0-0.4-0.1
		c0.2-0.8-0.2-0.9-0.3-1V30h-0.1v-0.1h-7c-0.3-0.1-0.8-0.2-1.2-0.2c-0.2,0-0.6,0.2-0.7,0.2c-0.1,0-0.2-0.1-0.3-0.1
		c-0.1-0.1-0.2-0.3-0.8-0.2c-0.2,0-0.3,0.1-0.4,0.3h-3.1V30h-0.1v4.1c-0.1,0-0.2,0-0.3,0.1c0,0-0.2,0.1-0.2,0.2
		c-0.1,0.1-0.1,0.3-0.1,0.3s-0.1,0.3,0.1,0.3c0.1,0.1,0.1,0.3,0,0.4h-0.1c-0.3,0.1-0.7,0.2-0.9,0.3c-1.6,0.8-0.1,1.1,0.1,1.1
		c0.3,0,0.4,0.1,0.3,0.4c-0.1,0.3-0.1,0.7,0,0.9c-0.3,0-0.3,0.3-0.3,0.5c-0.2,0.7,0.4,0.5,0.6,0.2c0.6,0.2,0.8-0.5,0.8-0.5v0.5
		c-0.1,0.1-0.1,0.2-0.2,0.3c-0.2,0.5,0,0.3,0,0.5c0,0.2,0,0.4,0.2,0.4v3.2h0.1v0.1h2.3c0,0,0.1,0,0.1,0.1c0.2,0.1,0.3,0.1,0.3,0
		v-0.1h10.8v-0.1h0.1v-4c0.6,0,0.3-0.1,0.4-0.5c0-0.4,0.1-1.2,0.1-1.1c0.1,0.4,0.2,1.3,0.2,1.4l-0.3,0.3c-0.2,0.1-0.2,0.2-0.2,0.2
		s0,0.1,0.3,0.1c0.2,0,0.6-0.1,0.8-0.2c0.1-0.1,0.2,0,0.3-0.2v-0.5c0.1-0.5,0.1-1.1,0.1-1.7c0.3-0.7,0.2-2.2,0.2-2.2
		C139.6,34.7,139.7,34.7,139.7,34.2L139.7,34.2z M126.6,43.1c0.2-0.3,0.6-0.5,0.9-0.7s1.2-0.4,1.7-0.6v1.9h-2.6V43.1L126.6,43.1z
		 M137.1,34.8c-0.1,0.2-0.1,0.5-0.1,0.8h-1.3c0.2-0.2,0.4-0.3,0.7-0.5c0.3-0.1,0.2-0.3,0.1-0.4c-0.1-0.1-0.3-0.1-0.4,0
		c-0.4,0-0.1,0.2-0.1,0.2c-0.1,0.1-0.7,0.4-0.9,0.5h-0.1V33c0.7,0.3,1.8,0.1,2,0.3C137,33.8,137.1,34.3,137.1,34.8L137.1,34.8z
		 M136.9,36.1c-0.1,1,0.2,1.8,0.3,2.2h-2.4v-2.2c0.2-0.1,0.4-0.2,0.7-0.4h1.4L136.9,36.1L136.9,36.1z M124.6,37.4
		c0-0.2,0-0.5,0.1-0.8l0.7-0.3c0.3-0.1,0.7-0.2,1-0.4v1.8h-0.1c-0.2,0-0.3,0-0.2,0.1c0,0.1,0,0-0.2,0c-0.4,0-0.3,0.2-0.1,0.3
		s0.4,0.1,0.7,0.1v0.2h-1.7C124.8,37.7,124.6,37.6,124.6,37.4z M127,33.8c0-0.1-0.1-0.3,0-0.4c0.1-0.1,0.2-0.2,0.3-0.4h1.9v2.5H127
		c0.1,0,0.1-0.1,0.1-0.1c0.1-0.1,0-0.3-0.1-0.3c-0.2,0.1-0.1,0-0.2,0l-0.1,0.1v-0.9C126.8,34.1,126.9,34,127,33.8z M129.7,31.7
		c0-0.1,0.1-0.2,0.1-0.3s0.2-0.3,0.2-0.4h0.9c0.1,0,0.4,0.1,0.6,0.1h0.3v1.9h-2.6c0.1-0.1,0.2-0.3,0.3-0.4
		C129.7,32.1,129.7,31.9,129.7,31.7L129.7,31.7z M134.6,33v2.4h-0.1l-0.4-0.2l-0.4-0.1c-0.3-0.2-0.7-0.3-1-0.2c-0.3,0-0.4,0.1-0.4,0
		s0.2-0.2,0.2-0.2c0.2-0.1,0.1-0.2,0.1-0.3s0-0.2-0.1-0.3c0.1-0.1-0.1-0.2-0.2-0.3c0-0.1-0.1-0.2-0.2-0.4V33L134.6,33L134.6,33z
		 M126.6,35.8h2.6v0.5c-0.3,0.2-0.6,0.4-0.9,0.7c-0.4,0.2-0.9,0.4-1.4,0.7c0,0-0.1,0.1-0.2,0V35.8z M129.3,35.8h0.9l-0.9,0.5V35.8z
		 M131.9,33.1c-0.1-0.1-0.3-0.1-0.6,0c-0.4,0.1-0.8,0.3-1,0.7c-0.1,0.1-0.2,0.1-0.2,0.3c0,0.1,0.1,0.2,0,0.4c-0.1,0.1-0.1,0.3,0,0.4
		c0,0,0,0.2,0.2,0.3c0.4,0,0.2,0.1,0.4,0.1c-0.1,0.1-0.2,0.2-0.4,0.3h-1.1V33L131.9,33.1L131.9,33.1z M126.6,38.2
		c0-0.1,0.1-0.1,0.4-0.1c0.9,0,1.7-0.5,2.1-0.8v1h-2.6C126.6,38.3,126.6,38.2,126.6,38.2z M129.3,37.3c0.3-0.2,1.2-0.7,1.3-0.5
		c0.3,0.2,0.4,0.7,0.6,1c-0.1,0.2-0.3,0.4-0.4,0.7h-1.6v-1.1L129.3,37.3L129.3,37.3z M130.8,38.5c-0.2,0.8,0.1,0.7,0,1.1
		c0,0.1-0.7,0.6-1.1,1l-0.3,0.3v-2.4L130.8,38.5L130.8,38.5z M131.9,40.7v0.3h-0.3L131.9,40.7z M132,40.6c0.1-0.2,0.3-0.3,0.4-0.5
		c0.1,0,0.2,0,0.7,0.2c1,0.4,1.1,0.2,1.2,0.4c0,0.1,0.1,0.2,0.1,0.3H132L132,40.6L132,40.6z M134.6,39.4c-0.3-0.2-0.9-0.5-1.2-0.9
		h1.2V39.4z M133.2,38.3c-0.1-0.2-0.1-0.5,0-0.7c0-0.3,0-0.7,0.2-1c0.2-0.1,0.1-0.4,0.2-0.7h1v2.2L133.2,38.3z M133.6,32.5
		c0,0-0.2,0-0.1,0.1c0.1,0.2,0.6,0.1,0.7,0.1l0.3,0.2h-2.2V31h0.3c0.1,0,0.7,0.3,0.7,0.3c0.1,0-0.1-0.1,0-0.2c0,0,0.4,0,0.6-0.1
		c0-0.1-0.3-0.2-0.4-0.3c-0.1,0-0.4,0-0.6-0.1c-0.1,0-0.3-0.1-0.4-0.2v-0.2h2.6v2.2c-0.2,0-0.3-0.1-0.6-0.2
		c-0.2-0.2-0.4-0.2-0.7-0.2c0,0-0.3,0-0.3,0.2C133.2,32.2,133.3,32.4,133.6,32.5z M131.9,30.5h-0.1c-0.1,0-0.6-0.1-0.6-0.1h-0.1h0.9
		v0.1H131.9L131.9,30.5z M127.5,32.8c0-0.1,0-0.2,0.1-0.3c0,0,0.2,0.1,0.6,0.3H127.5z M126.5,32.5c0,0.1,0,0.2-0.1,0.3h-2.6v-2.5
		h2.6L126.5,32.5z M126.4,33c0,0.2-0.1,0.4-0.2,0.7c0,0-0.2,0.3-0.2,0.4c-0.1,0.1-0.2,0.1-0.2,0.2c-0.1,0.1,0,0.2,0.1,0.2
		s0.3-0.1,0.3-0.1s0,0.1,0.1,0.1s0.2,0,0.2-0.1v0.9c0,0.1,0,0-0.1,0.1c-0.2,0.1-0.6,0.1-0.8,0.1h-1.3v-0.1c0.2-0.3,0.1-0.3,0.2-0.4
		v-0.4c0-0.1,0-0.2-0.1-0.3c-0.1,0-0.1-0.1-0.2-0.1c-0.1,0.1-0.1,0-0.2,0V33L126.4,33L126.4,33z M124.2,40.5c0-0.1-0.2-0.4-0.1-0.7
		s0.7-0.7,0.7-1v-0.4h1.7v2.5h-2.6v-0.4C124.1,40.6,124.2,40.6,124.2,40.5z M126.6,38.5h2.6v2.4c-0.1,0-0.2,0.1-0.2,0.1h-2.3
		C126.6,41.1,126.6,38.5,126.6,38.5z M128.3,41.2c-0.3,0.1-0.8,0.7-1.6,1l-0.1,0.1v-1.1L128.3,41.2L128.3,41.2z M129.3,41.9
		c0.9-0.1,0.8-0.2,1.1-0.3c0.3-0.1,0.7-0.2,0.9-0.4h0.6v2.5h-2.7L129.3,41.9L129.3,41.9z M132.1,41.2h2.4c0,0.1,0.1,0.1,0.1,0.2v2.4
		h-2.6V41.2L132.1,41.2z M134.8,41.6c0.1,0.2,0.2,0.4,0.4,0.7c0.2,0.2,0.4,0.5,0.4,0.9s-0.2,0.5,0.3,0.7h-1.3v-2.2L134.8,41.6
		L134.8,41.6z M137.3,43.6c-0.1-0.1-0.2-0.1-0.3-0.2c-0.4-0.1-0.6-0.4-0.8-0.8c-0.2-0.5-0.4-0.9-0.6-1.4h1.7L137.3,43.6L137.3,43.6z
		 M135.6,41.1c-0.1-0.2-0.1-0.4-0.1-0.5c0-0.4-0.3-0.8-0.7-1v-1h2.4c0,0.4,0,0.5-0.6,0.9c-0.6,0.2,0.1,0.2,0.1,0.2h0.7v1.4H135.6
		L135.6,41.1z M136.8,30.7c-0.3,0.1-0.2,0.3-0.2,0.4s-0.2,0.1-0.2,0.2s0.1,0.1,0.1,0.1v0.3c0,0.1,0.2,0.1,0.1,0.1
		c0,0-0.3,0.1-0.6,0.2c-0.2,0.1-0.3,0.2-0.6,0.2h-0.9v-2.2h2.8v0.3C137.2,30.6,137,30.6,136.8,30.7z M126.8,30.7
		c0,0.3,0.2,0.5,0.6,0.7c0.2,0,0.1,0,0.3-0.1h0.2c0.1,0,0,0,0.1-0.1c0.1,0,0.2,0,0.3-0.1c0-0.1,0.1-0.1,0.1-0.1
		c-0.1,0.7-0.2,0.7-0.2,0.7c-0.8-0.2-1.3-0.1-1.4-0.1s-0.1,0.1-0.1,0.2v-1.4h0.3C126.9,30.4,126.8,30.6,126.8,30.7L126.8,30.7z
		 M123.9,43.8v-2.5h2.6v1.1c-0.3,0.1-0.6,0.2-0.9,0.3c-0.4,0.1-0.2,0.4-0.1,0.4c0.1,0.2,0.1,0.3,0.2,0.4c0,0.1,0.1,0.1,0.2,0.2
		L123.9,43.8L123.9,43.8z"/>
	<path class="st62" d="M66.3,23.7c-0.6,0-1.1,0.1-1.7,0.3s-1.1,0.5-1.4,1c-0.3,0.3-0.6,0.7-0.8,1.1h-1.2h-0.1L61,26.4v0.1h1.3
		l-2.2,4.6v0.1h0.1l0.9-0.1h0.1l2.4-4.6h1.7l0.2-0.3v-0.1H64l0.4-0.9c0.1-0.2,0.2-0.4,0.4-0.7c0.1-0.1,0.2-0.1,0.3-0.2
		c0.2-0.1,0.3-0.1,0.6-0.1c0.1,0,0.3,0,0.4,0.1c0.1,0,0.3,0.1,0.4,0.1h0.2c0.1,0,0.1-0.1,0.2-0.2v-0.1V24v-0.1L67,23.8
		c-0.1,0-0.2-0.1-0.2-0.1L66.3,23.7L66.3,23.7z M74.2,25.6c-1,0-2.1,0.3-3,0.9c-0.3,0.2-0.7,0.6-1,0.9c-0.2,0.2-0.3,0.7-0.3,1
		c0,0.1,0,0.3,0.1,0.4c0.1,0.2,0.3,0.4,0.6,0.5c0.3,0.1,0.8,0.2,1.2,0.2c1.2,0,2.3-0.3,3.4-1v-0.1v-0.1L75,28.3h-0.1
		c-0.8,0.4-1.7,0.7-2.6,0.7c-0.3,0-0.6,0-0.8-0.1c-0.1,0-0.1-0.1-0.2-0.1c0,0-0.1-0.1-0.1-0.2c0-0.2,0-0.3,0.1-0.4
		c0.9,0,1.9-0.1,2.8-0.3c0.4-0.1,0.8-0.2,1.2-0.4l0.3-0.3c0.1-0.1,0.1-0.2,0.1-0.4v-0.2c-0.1-0.1-0.1-0.2-0.2-0.2
		C75.3,26,75.2,26,75,25.9C74.6,25.6,74.4,25.6,74.2,25.6L74.2,25.6z M79.8,25.6c-1,0-2.1,0.3-3,0.9c-0.3,0.2-0.7,0.6-1,0.9
		c-0.2,0.2-0.3,0.7-0.3,1c0,0.1,0,0.3,0.1,0.4c0.1,0.2,0.3,0.4,0.6,0.5c0.3,0.1,0.8,0.2,1.2,0.2c1.2,0,2.3-0.3,3.4-1v-0.1v-0.1
		l-0.2-0.1h-0.1c-0.8,0.4-1.7,0.7-2.6,0.7c-0.3,0-0.6,0-0.8-0.1c-0.1,0-0.1-0.1-0.2-0.1c0,0-0.1-0.1-0.1-0.2c0-0.2,0-0.3,0.1-0.4
		c0.9,0,1.9-0.1,2.8-0.3c0.4-0.1,0.8-0.2,1.2-0.4l0.3-0.3c0.1-0.1,0.1-0.2,0.1-0.4v-0.2c-0.1-0.1-0.1-0.2-0.2-0.2
		C81,26,80.8,26,80.6,25.9C80.3,25.6,80.1,25.6,79.8,25.6L79.8,25.6z M67.6,25.8c-0.2,0-0.4,0-0.7,0.1c-0.3,0.1-0.7,0.2-1,0.4
		c-0.2,0.1-0.4,0.3-0.7,0.4V27l0.2,0.1h0.1c0.2-0.1,0.3-0.2,0.6-0.3c0.1,0,0.2-0.1,0.3-0.1H67v0.2c0,0.1-0.1,0.2-0.1,0.3l-1.1,2.1
		v0.3H67l0.2-0.4c0.3-0.5,0.7-1,1.1-1.4c0.2-0.2,0.4-0.4,0.7-0.5c0.2-0.1,0.4-0.2,0.7-0.2h0.6c0.1,0,0.2,0,0.3-0.1
		c0.1-0.1,0.2-0.1,0.3-0.3c0,0,0-0.1,0.1-0.1v-0.1v-0.1c0,0,0-0.1-0.1-0.1S70.7,26,70.6,26h-0.2c-0.3,0-0.6,0.1-0.8,0.2
		c-0.4,0.2-0.8,0.4-1.2,0.8c-0.1,0.1-0.3,0.2-0.4,0.3l0.3-0.5c0-0.1,0.1-0.2,0.1-0.2v-0.1v-0.1c0-0.1,0-0.1-0.1-0.2L68.2,26
		c-0.1,0-0.1-0.1-0.2-0.1C67.9,25.8,67.7,25.8,67.6,25.8L67.6,25.8z M73.8,26.1c0.1,0,0.2,0,0.4,0.1c0,0,0.1,0,0.1,0.1v0.1
		c0,0.1,0,0.2-0.1,0.2c-0.1,0.1-0.2,0.3-0.4,0.3c-0.3,0.2-0.8,0.3-1.2,0.3c-0.4,0.1-0.8,0.1-1.2,0.1c0.1-0.1,0.1-0.2,0.2-0.3
		c0.2-0.3,0.6-0.5,0.9-0.8C73,26.2,73.4,26.1,73.8,26.1L73.8,26.1z M79.5,26.1c0.1,0,0.2,0,0.4,0.1c0,0,0.1,0,0.1,0.1v0.1
		c0,0.1,0,0.2-0.1,0.2c-0.1,0.1-0.2,0.3-0.4,0.3c-0.3,0.2-0.8,0.3-1.2,0.3c-0.4,0.1-0.8,0.1-1.2,0.1c0.1-0.1,0.1-0.2,0.2-0.3
		c0.2-0.3,0.6-0.5,1-0.8C78.6,26.2,79,26.1,79.5,26.1L79.5,26.1z"/>
	<g>
		<path class="st63" d="M468.5,32.9h-16.2v-4.8h0.1v-3.2h-0.1v-8.1h16.2V32.9z"/>
		<path class="st2" d="M467.1,23.7l-0.3-0.7c0.1-0.1,0.1-0.3,0.2-0.4c-0.2,0-0.3,0-0.6,0.1l-0.4-0.4v0.5l-0.7,0.3
			c0.2,0.1,0.4,0.1,0.8,0.2c0,0.2,0,0.4,0.1,0.9c0.2-0.2,0.3-0.4,0.4-0.8C466.7,23.6,466.9,23.6,467.1,23.7 M455.7,24.9
			c-0.3,0-0.7,0.2-1,0.5c-0.2-0.3-0.6-0.5-0.9-0.5s-0.6,0.1-0.9,0.4V25h-0.7v3.1h0.7v-2.2l0.3-0.3c0.1,0,0.2-0.1,0.3-0.1
			c0.2,0,0.3,0.1,0.4,0.2c0.1,0.1,0.1,0.3,0.1,0.7v1.8h0.7v-2.2c0.2-0.2,0.4-0.3,0.7-0.3s0.3,0.1,0.4,0.2c0.1,0.1,0.1,0.3,0.1,0.5
			v1.9h0.7v-1.9c0-0.4-0.1-0.8-0.3-1C456.2,25,456,24.9,455.7,24.9"/>
		<path class="st64" d="M460.7,26.1c0-0.2,0.1-0.4,0.2-0.5c0.2-0.1,0.3-0.2,0.6-0.2c0.2,0,0.3,0.1,0.6,0.2c0.1,0.1,0.2,0.3,0.2,0.5
			H460.7L460.7,26.1z M461.5,24.9c-0.4,0-0.8,0.1-1.1,0.4c-0.2,0.3-0.4,0.7-0.4,1.2c0,0.3,0.1,0.7,0.2,0.9c0.1,0.2,0.3,0.4,0.6,0.5
			c0.2,0.1,0.6,0.2,0.9,0.2c0.2,0,0.4,0,0.7-0.1c0.2,0,0.3-0.1,0.6-0.2v-0.7c-0.3,0.2-0.7,0.3-1.1,0.3c-0.3,0-0.6-0.1-0.7-0.2
			c-0.2-0.1-0.2-0.3-0.3-0.7h2.2v-0.1c0-0.4-0.1-0.9-0.3-1.2C462.2,25,461.9,24.9,461.5,24.9z"/>
		<path class="st2" d="M465.3,25c-0.1-0.1-0.3-0.1-0.6-0.1c-0.3,0-0.7,0.1-0.9,0.4V25h-0.7v3.1h0.7v-2.2c0.2-0.2,0.4-0.4,0.7-0.4
			s0.3,0.1,0.4,0.2c0.1,0.1,0.1,0.3,0.1,0.7v1.8h0.7v-1.8c0-0.3,0-0.7-0.1-0.9C465.7,25.2,465.6,25.1,465.3,25"/>
		<path class="st64" d="M458.4,29c-0.3,0-0.8-0.2-0.7-0.5c0-0.3,0.4-0.5,1-0.4c0.2,0,0.7,0.1,0.7,0.5C459.3,29,458.7,29.1,458.4,29
			 M457.9,25.7c0.1-0.1,0.2-0.2,0.4-0.2s0.3,0.1,0.4,0.2c0.1,0.1,0.2,0.2,0.2,0.4s-0.1,0.3-0.2,0.4s-0.2,0.2-0.4,0.2s-0.3,0-0.4-0.1
			s-0.2-0.2-0.2-0.4C457.7,25.9,457.8,25.8,457.9,25.7 M458.9,27.4h-0.8v-0.3h0.2c0.3,0,0.7-0.1,0.8-0.1c0.1-0.1,0.3-0.2,0.3-0.3
			c0.1-0.1,0.1-0.3,0.1-0.5c0-0.1,0-0.2-0.1-0.3c0-0.1-0.1-0.2-0.2-0.3h0.4v-0.5h-1.2c-0.4,0-0.8,0.1-1.1,0.3
			c-0.2,0.2-0.3,0.4-0.3,0.9s0.1,0.7,0.4,0.9v0.7c-0.3,0.2-0.6,0.4-0.6,0.8c-0.1,0.8,0.7,1.1,1.2,1.1c0.7,0,1.8-0.1,1.9-1
			C460.1,27.8,459.3,27.6,458.9,27.4"/>
	</g>
	<g>
		<path class="st65" d="M213.7,52.5h17.4V54h-17.4V52.5z"/>
		<path class="st66" d="M232.5,42.8c0,0-2.8,1.5-3.4,1.8c-0.6,0.2-0.8-0.1-0.9-0.2c-0.1-0.1-0.4-1.1-0.4-1.1h0.6
			c0.4-0.1,4.2-2.2,4.2-2.2S232.5,42.8,232.5,42.8z"/>
		<path class="st65" d="M224.8,44.1l1.2,3l2.1-1.1l-1.8-4h-2.6l-3.7,6.8c0,0,1.8,0,3-1C223.3,47.8,224,45.6,224.8,44.1L224.8,44.1z"
			/>
		<path class="st67" d="M228,46l-2.1,1.1c-1.8,0.9-3.4,1.7-4.3,2c-2.4,0.7-5.3,1.1-6.3,0.1c-1-0.9,1.3-4.5,5.6-5.3
			c0.7-0.1,1.1-0.1,1.1-0.1s-0.3-1.2-0.6-1.5c-0.3-0.4-0.7-0.4-1.1-0.4c-1,0.1-4.9,1.1-6.4,4.4c-0.9,1.9,0.3,3.9,1.1,4.3
			c0.2,0.2,2.6,2.2,7.8,0.2c5.1-2,9.8-5.1,9.8-5.1v-2.1C232.5,43.6,230.4,44.7,228,46L228,46z"/>
		<path class="st65" d="M226.7,49c0.2,0.4,0.8,1.8,0.9,2.1c0.1,0.3,0.4,0.4,0.7,0.4h2.4l-1.8-3.6C228.1,48.2,227.5,48.5,226.7,49
			L226.7,49z"/>
	</g>
	<g>
		<path class="st68" d="M211.9,117.3l-6.5-17.9L189.1,114L211.9,117.3z"/>
		<path class="st64" d="M204,108.3h1.3v4.5H204V108.3L204,108.3z M201.1,111h0.8l-0.4-1.4L201.1,111L201.1,111z M200.8,108.3h1.4
			l1.6,4.5h-1.5l-0.2-0.7h-1.3l-0.2,0.7h-1.5L200.8,108.3z M193.9,112.8v-4.5h1.6l1,2.2l1-2.2h1.5v4.5h-1.3v-2.5l-0.9,1.8H196
			l-0.9-1.8v2.5H193.9z M205.8,108.3h3.4l-0.2,1.1h-1.9v0.6h1.8l-0.2,1.1h-1.6v1.7h-1.3L205.8,108.3L205.8,108.3z"/>
	</g>
</g>
</svg>
