<svg xmlns="http://www.w3.org/2000/svg" width="32" height="32" viewBox="0 0 32 32">
    <g fill="none" fill-rule="nonzero">
        <path fill="#FC0D1A" d="M30.941 27.258L22.112 3 0 22.91z"/>
        <path fill="#FFF" d="M20.247 15.13h1.763v6.064h-1.763v-6.065zm-3.94 3.658h1.059l-.534-1.923-.526 1.923zm-.424-3.659h1.907l2.18 6.065h-1.965l-.32-.999h-1.697l-.32.999h-1.965l2.18-6.065zM6.54 21.194v-6.065h2.1l1.367 2.959 1.364-2.959h2.053v6.065h-1.711V17.78l-1.173 2.499H9.425l-1.172-2.5v3.415H6.54zm16.138-6.065h4.606l-.234 1.44h-2.61v.856h2.46l-.238 1.44H24.44v2.329H22.68v-6.065z"/>
    </g>
</svg>
