<svg xmlns="http://www.w3.org/2000/svg" width="163" height="32" viewBox="0 0 163 32">
    <g fill="none" fill-rule="evenodd">
        <path fill="#FFF" d="M25.65 3.55A9.43 9.43 0 0 0 19 .8a9.61 9.61 0 0 0-9.53 8.51 9.65 9.65 0 0 0 1.13 19.23h17a9.66 9.66 0 0 0 .87-19.27 9.76 9.76 0 0 0-2.82-5.72z"/>
        <path fill="#297EF2" d="M28.13 27.45H10A8.23 8.23 0 0 1 9.8 11a1.09 1.09 0 0 0 1-1.07 8.2 8.2 0 0 1 8.1-8 8.2 8.2 0 0 1 8.1 8A1.08 1.08 0 0 0 28.12 11h.08a8.23 8.23 0 0 1 0 16.45h-.07zM26 2.9A10 10 0 0 0 19 0 10.16 10.16 0 0 0 9 9a10.21 10.21 0 0 0 1.2 20.34h18A10.22 10.22 0 0 0 29 9a10.3 10.3 0 0 0-3-6.05V2.9z"/>
        <path fill="#297EF2" d="M25 18.4a1.49 1.49 0 0 1-.53-1v-.21a.77.77 0 1 0-1.51.25 2.9 2.9 0 0 0 .14.77 5.9 5.9 0 0 1-8 0c.09-.261.14-.534.15-.81a.76.76 0 0 0-.78-.76.74.74 0 0 0-.49.18.78.78 0 0 0-.26.55 1.48 1.48 0 0 1-.57 1.06.78.78 0 0 0-.15 1.02.76.76 0 0 0 1 .22 1.89 1.89 0 0 0 .27-.2 7.42 7.42 0 0 0 9.62 0l.28.2a.73.73 0 0 0 .57.12.79.79 0 0 0 .5-.34.78.78 0 0 0-.24-1.05zm25.13 7.93a6.47 6.47 0 0 1-3.33-.86A5.74 5.74 0 0 1 44.59 23a8.11 8.11 0 0 1-.8-3.66 8.16 8.16 0 0 1 .82-3.7 6 6 0 0 1 5.66-3.38 7.33 7.33 0 0 1 3.89 1.14c.278.167.52.388.71.65.135.212.205.459.2.71a1 1 0 0 1-.2.64.66.66 0 0 1-.54.25.87.87 0 0 1-.41-.11 2.88 2.88 0 0 1-.38-.22 8.44 8.44 0 0 0-1.54-.86 4.06 4.06 0 0 0-1.58-.28 3.83 3.83 0 0 0-3.14 1.37 5.87 5.87 0 0 0-1.12 3.82 5.69 5.69 0 0 0 1.12 3.77 3.88 3.88 0 0 0 3.14 1.33 4.33 4.33 0 0 0 1.58-.28 6.64 6.64 0 0 0 1.37-.75 6 6 0 0 1 .58-.33 1 1 0 0 1 .47-.14c.2-.004.39.09.51.25a1 1 0 0 1 .21.64 1.07 1.07 0 0 1-.2.65 2.42 2.42 0 0 1-.71.65 7.87 7.87 0 0 1-4.06 1.16l-.04.01zm13.07 0a6.47 6.47 0 0 1-3.35-.86A5.64 5.64 0 0 1 57.64 23a8.28 8.28 0 0 1-.8-3.7 8.19 8.19 0 0 1 .8-3.7 5.79 5.79 0 0 1 2.24-2.46 6.47 6.47 0 0 1 3.35-.86 6.68 6.68 0 0 1 3.38.86 5.69 5.69 0 0 1 2.25 2.46 8.33 8.33 0 0 1 .79 3.7 8.33 8.33 0 0 1-.79 3.7 5.69 5.69 0 0 1-2.25 2.46 6.58 6.58 0 0 1-3.38.86l-.03.01zm0-1.86a3.7 3.7 0 0 0 3.06-1.32 6.06 6.06 0 0 0 1.06-3.84 6 6 0 0 0-1.07-3.81 4.11 4.11 0 0 0-6.09 0 6 6 0 0 0-1.07 3.81 6 6 0 0 0 1.06 3.83 3.66 3.66 0 0 0 3.08 1.33h-.03zm19.16-.11a1 1 0 0 1 .72.23 1 1 0 0 1 0 1.31 1 1 0 0 1-.72.23h-9.64a1.12 1.12 0 0 1-.78-.29 1 1 0 0 1-.3-.7 1.35 1.35 0 0 1 .33-.86l8.18-9.88h-7.57a1.08 1.08 0 0 1-.73-.23.79.79 0 0 1-.26-.63.85.85 0 0 1 .26-.66 1 1 0 0 1 .73-.25H82a1.12 1.12 0 0 1 .8.29 1 1 0 0 1 .3.7 1.38 1.38 0 0 1-.32.87l-8.21 9.87h7.79zM95.75 13a1 1 0 0 1 1-.66c.27 0 .533.096.74.27a.89.89 0 0 1 .33.7.92.92 0 0 1-.1.44l-7.77 16.8a1.06 1.06 0 0 1-1.39.56.88.88 0 0 1-.29-.18.86.86 0 0 1-.31-.68 1 1 0 0 1 .1-.44L90 25.66 84.5 13.8a.84.84 0 0 1-.11-.41.91.91 0 0 1 .37-.73c.23-.193.52-.3.82-.3a1 1 0 0 1 .94.64l4.61 10.4 4.62-10.35V13zm10.76 13.29a6.41 6.41 0 0 1-3.34-.86 5.77 5.77 0 0 1-2.23-2.43 8.11 8.11 0 0 1-.8-3.66 8.16 8.16 0 0 1 .82-3.7 6 6 0 0 1 5.66-3.38 7.33 7.33 0 0 1 3.89 1.14c.278.164.516.385.7.65.145.208.222.456.22.71a1 1 0 0 1-.21.64.66.66 0 0 1-.54.25.88.88 0 0 1-.42-.11 2.77 2.77 0 0 1-.37-.22 8.44 8.44 0 0 0-1.58-.89 4.06 4.06 0 0 0-1.58-.28 3.83 3.83 0 0 0-3.14 1.37 5.87 5.87 0 0 0-1.12 3.82 5.69 5.69 0 0 0 1.12 3.77 3.88 3.88 0 0 0 3.14 1.33 4.33 4.33 0 0 0 1.61-.28 7.3 7.3 0 0 0 1.37-.75 6 6 0 0 1 .58-.33 1 1 0 0 1 .47-.14c.2-.004.39.09.51.25a1 1 0 0 1 .21.64 1.07 1.07 0 0 1-.2.65 2.42 2.42 0 0 1-.71.65 7.87 7.87 0 0 1-4.06 1.16zm8.62-.06a1.16 1.16 0 0 1-.81-.29 1.08 1.08 0 0 1-.32-.82V7.56a1 1 0 0 1 .32-.83 1.15 1.15 0 0 1 .81-.29 1.05 1.05 0 0 1 1.1 1v17.72a1.06 1.06 0 0 1-.31.82 1.09 1.09 0 0 1-.79.3v-.05zm10.68.06a6.46 6.46 0 0 1-3.36-.86A5.72 5.72 0 0 1 120.2 23a8.17 8.17 0 0 1-.79-3.7 8.19 8.19 0 0 1 .79-3.7 5.79 5.79 0 0 1 2.24-2.46 6.48 6.48 0 0 1 3.36-.86 6.65 6.65 0 0 1 3.37.86 5.69 5.69 0 0 1 2.25 2.46 8.14 8.14 0 0 1 .79 3.7 8.14 8.14 0 0 1-.79 3.7 5.69 5.69 0 0 1-2.25 2.46 6.57 6.57 0 0 1-3.37.86l.01-.03zm0-1.86a3.68 3.68 0 0 0 3.05-1.32 6 6 0 0 0 1.06-3.84 6 6 0 0 0-1.07-3.81 4.11 4.11 0 0 0-6.09 0 6 6 0 0 0-1.07 3.81 6 6 0 0 0 1.06 3.83 3.68 3.68 0 0 0 3.06 1.33zm19.8-12.12a1.06 1.06 0 0 1 .8.3 1.1 1.1 0 0 1 .3.8V25.2c.008.29-.1.57-.3.78a1.06 1.06 0 0 1-.8.3 1.11 1.11 0 0 1-.8-.29 1 1 0 0 1-.29-.76v-1.39a4.37 4.37 0 0 1-1.78 1.86 5.32 5.32 0 0 1-2.59.64 4.64 4.64 0 0 1-3.62-1.34 5.81 5.81 0 0 1-1.21-4v-7.53a1.09 1.09 0 0 1 .3-.8 1.13 1.13 0 0 1 .83-.31 1.1 1.1 0 0 1 .82.3c.196.22.3.506.29.8V21a4.05 4.05 0 0 0 .72 2.65 2.8 2.8 0 0 0 2.26.84 3.72 3.72 0 0 0 2.85-1.15 4.28 4.28 0 0 0 1.08-3v-6.8a1.1 1.1 0 0 1 .3-.8 1.13 1.13 0 0 1 .83-.3l.01-.13zm15.89-5.9a1.14 1.14 0 0 1 .83.3 1 1 0 0 1 .3.77v17.68a1.07 1.07 0 0 1-.3.8 1.27 1.27 0 0 1-1.65 0 1.08 1.08 0 0 1-.29-.8v-1.5a4.4 4.4 0 0 1-1.78 2 5.23 5.23 0 0 1-2.75.7 5.57 5.57 0 0 1-5.23-3.36 8.57 8.57 0 0 1-.74-3.7 8.62 8.62 0 0 1 .74-3.67 5.66 5.66 0 0 1 2.1-2.44 5.77 5.77 0 0 1 3.13-.86 5.33 5.33 0 0 1 2.75.7 4.47 4.47 0 0 1 1.78 2V7.52a1 1 0 0 1 .3-.79 1.09 1.09 0 0 1 .8-.29l.01-.03zm-5.2 18a3.63 3.63 0 0 0 3-1.35 6 6 0 0 0 1.06-3.8 5.93 5.93 0 0 0-1.06-3.8 3.65 3.65 0 0 0-3-1.34 3.71 3.71 0 0 0-3.05 1.33 5.76 5.76 0 0 0-1.1 3.75 6 6 0 0 0 1.1 3.84 3.67 3.67 0 0 0 3.05 1.43v-.06z"/>
    </g>
</svg>
