<svg xmlns="http://www.w3.org/2000/svg" width="36" height="36" viewBox="0 0 36 36">
    <g fill="none" fill-rule="evenodd">
        <path fill="#0D5933" d="M0 0h36v36H0z"/>
        <path fill="#CC2229" d="M32.108 28.216H4.865L18.486 2.92z"/>
        <path fill="#FFF" fill-rule="nonzero" d="M17.117 23.076v-1.41h.953l-.953-2.309v-1.843h1.7l3.084 6.81h-2.827l-.535-1.248h-1.422zm5.27 1.248v-6.81h1.801v6.81h-1.8zm4.01 0v-6.81h6.684v1.41H28.62v1.414h3.932v1.41h-3.932v2.576h-2.222zm-23.478 0v-6.81h3.07l1.153 3.315a17.354 17.354 0 0 1 .496 1.66c.073-.276.16-.57.256-.872.1-.33.208-.657.326-.98l1.083-3.123h3.07v6.81H9.907v-3.022c0-.21.009-.508.022-.894a77.5 77.5 0 0 1 .06-1.33l-1.678 5.246H6.098l-1.64-5.247c.026.605.048 1.152.066 1.634.013.482.021.858.021 1.13v2.483H2.92zm14.198-6.81v1.843l-.017-.043-.935 2.352h.952v1.41H15.63l-.496 1.248h-1.891l3.14-6.81h.734z"/>
    </g>
</svg>
