<svg width="128" height="128" viewBox="0 0 96 96" fill="none" xmlns="http://www.w3.org/2000/svg">
<path fill-rule="evenodd" clip-rule="evenodd" d="M55.4518 6C76.1037 6 92.8457 20.8068 92.8457 39.0719C92.8457 46.2458 90.2614 52.8857 85.8735 58.3052C85.5188 60.8124 85.296 65.3438 87.3348 69.3178C88.2686 71.1375 85.4906 72.8126 83.0432 71.8738C79.7549 70.612 76.9209 69.1025 74.5569 67.5046C68.9652 70.4494 62.4327 72.1431 55.4518 72.1431C34.7998 72.1431 18.0579 57.3367 18.0579 39.0719C18.0579 20.8068 34.7998 6 55.4518 6" fill="#906CEA"/>
<path fill-rule="evenodd" clip-rule="evenodd" d="M41.8939 12.1614C21.2419 12.1614 4.5 26.9678 4.5 45.2329C4.5 52.4071 7.0843 59.0467 11.4722 64.4662C11.8269 66.9734 12.0496 71.5048 10.0112 75.4787C9.07707 77.2985 11.8551 78.9735 14.3025 78.0348C17.5907 76.7729 20.4247 75.2638 22.7888 73.6656C28.3805 76.6103 34.9134 78.304 41.8939 78.304C62.5459 78.304 79.2878 63.4976 79.2878 45.2329C79.2878 26.9678 62.5459 12.1614 41.8939 12.1614" fill="#C9B8F4"/>
<path fill-rule="evenodd" clip-rule="evenodd" d="M33.7571 42.8678C33.7571 40.3536 31.7187 38.3152 29.2045 38.3152C26.6907 38.3152 24.6523 40.3536 24.6523 42.8678C24.6523 45.382 26.6907 47.42 29.2045 47.42C31.7187 47.42 33.7571 45.382 33.7571 42.8678ZM59.6269 44.011C59.3114 43.8819 59.1123 43.8005 58.9055 43.7502C58.5515 43.664 58.1752 43.6692 57.1548 43.6832C56.6752 43.6898 56.0534 43.6983 55.2248 43.7002C55.7658 43.483 56.1455 43.325 56.4547 43.1964L56.4548 43.1964L56.4548 43.1964C57.2814 42.8526 57.604 42.7184 59.1572 42.2206C60.0287 41.9414 60.5087 41.0089 60.2295 40.1374C59.9503 39.2667 59.0174 38.7851 58.1467 39.0651C58.1369 39.0683 58.1254 39.0717 58.1109 39.0762L58.1108 39.0762C57.9473 39.1258 57.4035 39.2907 54.6262 40.3747C48.7781 42.6566 47.5727 43.8591 47.1408 44.8194C46.9065 45.3404 46.9571 45.9456 47.2757 46.4206C47.5926 46.8952 48.1123 47.1718 48.7043 47.1544C51.5243 47.0653 53.4099 46.9782 54.7133 46.9181C56.804 46.8215 57.3966 46.7942 57.944 46.9383C58.1605 46.9953 58.3699 47.0791 58.6622 47.1961C58.746 47.2296 58.8366 47.2659 58.9361 47.305C59.1356 47.383 59.3406 47.4199 59.5417 47.4199C60.2029 47.4199 60.8281 47.0217 61.0844 46.3692C61.4188 45.5176 60.9998 44.5556 60.1482 44.2208C59.9418 44.1398 59.7721 44.0703 59.6269 44.011ZM50.5519 55.2659C51.0455 55.2659 51.3732 55.6484 51.2985 56.1208C51.2985 56.1208 50.5539 64.8805 41.7827 64.8805C33.0118 64.8805 32.2697 56.137 32.2697 56.137C32.1851 55.6558 32.5282 55.2659 33.0135 55.2659H50.5519Z" fill="#906CEA"/>
<path fill-rule="evenodd" clip-rule="evenodd" d="M23.5135 93.9544C25.5398 94.7191 30.7402 95.3772 34.9318 95.6427C46.3762 96.3644 62.3681 95.9736 69.1469 94.6443C75.9777 93.3057 76.2816 91.2808 58.9179 90.2787C44.1346 89.4243 26.8768 90.6433 23.1888 92.4531C22.1973 92.9411 22.2512 93.4814 23.5135 93.9544" fill="#BBD9FD"/>
</svg>
