<svg width="32" height="32" viewBox="0 0 32 32" fill="none" xmlns="http://www.w3.org/2000/svg">
<rect width="32" height="32" rx="6" fill="#173BA2"/>
<path fill-rule="evenodd" clip-rule="evenodd" d="M7.53243 12.5744H5.84595V10.8527H7.63784C8.30541 10.8527 8.62162 11.1338 8.62162 11.696C8.65676 12.3635 8.12973 12.5744 7.53243 12.5744ZM5.84595 7.69056H7.35676C7.95405 7.69056 8.34054 7.86624 8.34054 8.323C8.34054 8.9203 7.95405 9.09597 7.35676 9.09597H5.84595V7.69056ZM24.9243 5.47705L23.5892 10.923H23.5541L22.2541 5.47705H11.327V10.923C11.0459 10.2203 10.4838 9.83381 9.88649 9.623C10.5892 9.23651 11.0459 8.74462 11.0459 7.79597C11.0459 6.84732 10.5189 5.47705 8.09459 5.47705H3V14.7527H8.27027C9.60541 14.7527 10.8703 14.1203 11.327 12.8906V14.7527H14.173V11.2041H16.773V9.06084H14.173V7.65543H18.1784V14.7176H20.8838V8.81489H20.9189L22.5351 14.7527H24.6784L26.2946 8.81489H26.3297V14.7527H29V5.47705H24.9243ZM21.3757 15.8068L19.6541 22.3419H19.619L17.8622 15.8068H6.90007V18.5473H9.60547V26.523H12.9082V18.5473H15.3325L17.7217 26.523H21.446L24.7839 15.8068H21.3757ZM27.4189 23.3959H24.2919V26.5229H27.4189V23.3959Z" fill="white"/>
</svg>
