<?xml version="1.0" encoding="utf-8"?>
<!-- Generator: Adobe Illustrator 17.1.0, SVG Export Plug-In . SVG Version: 6.00 Build 0)  -->
<!DOCTYPE svg PUBLIC "-//W3C//DTD SVG 1.1//EN" "http://www.w3.org/Graphics/SVG/1.1/DTD/svg11.dtd">
<svg version="1.1" id="Calque_1" xmlns="http://www.w3.org/2000/svg" xmlns:xlink="http://www.w3.org/1999/xlink" x="0px" y="0px"
	 viewBox="0 0 257 257" enable-background="new 0 0 257 257" xml:space="preserve">
<g>
	<path fill="#297EF1" d="M168.4,158.5H87.7c-25.1,0-45.5-20.5-45.5-45.8c0-12,4.6-23.4,13-32c7.3-7.5,16.8-12.2,27.1-13.4
		C83.5,57,88.1,47.4,95.6,40c8.5-8.4,19.8-13,31.8-13c12,0,23.2,4.6,31.8,13c7.5,7.3,12.1,16.8,13.3,27.1
		c23.2,2.1,41.4,21.7,41.4,45.6C213.9,137.9,193.5,158.5,168.4,158.5L168.4,158.5z M168.6,150h0.3c20.1,0,36.4-16.5,36.4-36.8
		c0-20.3-16.3-36.8-36.4-36.8h-0.4c-2.6,0-4.8-2.1-4.8-4.8c-0.5-19.8-16.8-36-36.4-36S91.5,51.7,91,71.5c-0.1,2.6-2.1,4.7-4.7,4.8
		c-19.6,0.5-35.5,17-35.5,36.8c0,20.3,16.3,36.8,36.4,36.8h0.3l0.1,0c0.1,0,0.2,0,0.3,0L168.6,150L168.6,150z M150.7,109.8
		L150.7,109.8c0.8,0.5,1,1.6,0.5,2.3c-0.3,0.5-0.9,0.8-1.4,0.8c-0.3,0-0.6-0.1-0.9-0.3c-0.8-0.5-1.4-1.1-1.9-1.7
		c-5.7,5.2-12.9,7.7-20.1,7.7c-7.2,0-14.4-2.6-20.1-7.7c-0.5,0.6-1.1,1.1-1.9,1.6c-0.3,0.2-0.6,0.3-0.9,0.3c-0.6,0-1.1-0.3-1.4-0.8
		c-0.5-0.8-0.3-1.8,0.5-2.4c2.9-1.9,3-5.3,3-5.5c0-0.9,0.8-1.7,1.7-1.7c0.9,0,1.7,0.8,1.7,1.7c0,0.1-0.1,1.8-0.8,3.7
		c10.2,9.7,26.3,9.7,36.5-0.1c-0.8-1.9-0.8-3.5-0.8-3.7c0-0.9,0.7-1.7,1.7-1.7c0.9,0,1.7,0.7,1.7,1.7
		C147.7,104.5,147.8,107.9,150.7,109.8z M48.6,189.7c-0.2,0.3-0.4,0.5-0.6,0.7c-0.2,0.2-0.5,0.2-0.9,0.2c-0.4,0-0.8-0.2-1.2-0.5
		c-0.4-0.3-1-0.7-1.7-1.1c-0.7-0.4-1.5-0.7-2.5-1.1c-1-0.3-2.2-0.5-3.6-0.5c-1.9,0-3.6,0.3-5,1s-2.7,1.7-3.7,2.9s-1.7,2.8-2.2,4.6
		c-0.5,1.8-0.7,3.9-0.7,6.1c0,2.4,0.3,4.4,0.8,6.3c0.5,1.8,1.3,3.4,2.3,4.6c1,1.2,2.2,2.2,3.6,2.8c1.4,0.7,3,1,4.7,1
		c1.7,0,3-0.2,4.1-0.6c1.1-0.4,2-0.8,2.7-1.3c0.7-0.5,1.3-0.9,1.8-1.3c0.5-0.4,0.9-0.6,1.4-0.6c0.6,0,1,0.2,1.3,0.7l1.9,2.5
		c-1.7,2.1-3.8,3.6-6.3,4.6c-2.5,1-5.2,1.4-8,1.4c-2.4,0-4.7-0.4-6.8-1.3c-2.1-0.9-3.9-2.2-5.4-3.9s-2.7-3.8-3.6-6.3
		c-0.9-2.5-1.3-5.3-1.3-8.5c0-2.9,0.4-5.6,1.2-8s2-4.6,3.5-6.4c1.5-1.8,3.5-3.2,5.7-4.2c2.3-1,4.9-1.5,7.8-1.5
		c2.7,0,5.1,0.4,7.2,1.3s4,2.1,5.6,3.7L48.6,189.7z M73.2,182.2c2.8,0,5.4,0.5,7.7,1.4c2.3,0.9,4.2,2.3,5.8,4
		c1.6,1.7,2.8,3.8,3.7,6.3s1.3,5.2,1.3,8.3c0,3.1-0.4,5.8-1.3,8.3s-2.1,4.6-3.7,6.3c-1.6,1.7-3.5,3.1-5.8,4
		c-2.3,0.9-4.9,1.4-7.7,1.4c-2.8,0-5.4-0.5-7.7-1.4c-2.3-0.9-4.2-2.3-5.9-4c-1.6-1.7-2.9-3.8-3.7-6.3s-1.3-5.2-1.3-8.3
		c0-3,0.4-5.8,1.3-8.3s2.1-4.6,3.7-6.3c1.6-1.7,3.6-3.1,5.9-4C67.8,182.7,70.4,182.2,73.2,182.2z M73.2,216.9c3.8,0,6.7-1.3,8.6-3.9
		c1.9-2.6,2.8-6.2,2.8-10.8c0-4.6-0.9-8.2-2.8-10.8c-1.9-2.6-4.8-3.9-8.6-3.9c-1.9,0-3.6,0.3-5.1,1c-1.4,0.7-2.6,1.6-3.6,2.9
		c-1,1.3-1.7,2.8-2.2,4.6c-0.5,1.8-0.7,3.9-0.7,6.2c0,2.3,0.2,4.4,0.7,6.2c0.5,1.8,1.2,3.3,2.2,4.6s2.2,2.2,3.6,2.9
		C69.6,216.6,71.3,216.9,73.2,216.9z M126.9,185.7c0,0.5-0.1,1-0.3,1.4c-0.2,0.4-0.4,0.9-0.7,1.2l-21,28h21.2v5.3H96.8v-2.8
		c0-0.3,0.1-0.7,0.2-1.2s0.4-0.9,0.7-1.3l21.2-28.2H98v-5.4h28.9V185.7z M146.1,233.2c-0.2,0.5-0.5,0.9-0.9,1.2s-0.9,0.5-1.6,0.5
		h-5.1l7.1-15.4l-16.1-36.6h5.9c0.6,0,1,0.1,1.4,0.4c0.3,0.3,0.6,0.6,0.7,1l10.4,24.5c0.2,0.6,0.4,1.1,0.6,1.7
		c0.2,0.6,0.3,1.1,0.4,1.7c0.2-0.6,0.4-1.2,0.5-1.7c0.2-0.6,0.4-1.1,0.6-1.7l10.1-24.5c0.2-0.4,0.4-0.7,0.8-1
		c0.4-0.3,0.8-0.4,1.2-0.4h5.5L146.1,233.2z M166.3,217.5c0-0.7,0.1-1.3,0.4-1.9c0.2-0.6,0.6-1.1,1-1.5c0.4-0.4,0.9-0.8,1.5-1
		c0.6-0.3,1.2-0.4,1.9-0.4c0.7,0,1.3,0.1,1.9,0.4c0.6,0.3,1.1,0.6,1.5,1c0.4,0.4,0.8,0.9,1,1.5c0.2,0.6,0.4,1.2,0.4,1.9
		c0,0.7-0.1,1.3-0.4,1.9c-0.2,0.6-0.6,1.1-1,1.5c-0.4,0.4-0.9,0.8-1.5,1c-0.6,0.2-1.2,0.4-1.9,0.4c-0.7,0-1.3-0.1-1.9-0.4
		c-0.6-0.2-1.1-0.6-1.5-1c-0.4-0.4-0.8-0.9-1-1.5C166.4,218.8,166.3,218.2,166.3,217.5z M191.9,182.8v38.9h-6.8v-38.9H191.9z
		 M193.4,170.6c0,0.7-0.1,1.3-0.4,1.9c-0.3,0.6-0.6,1.1-1.1,1.5c-0.4,0.4-1,0.8-1.6,1.1c-0.6,0.3-1.2,0.4-1.9,0.4
		c-0.7,0-1.3-0.1-1.9-0.4c-0.6-0.3-1.1-0.6-1.5-1.1c-0.4-0.4-0.8-1-1.1-1.5c-0.3-0.6-0.4-1.2-0.4-1.9s0.1-1.3,0.4-1.9
		s0.6-1.1,1.1-1.6c0.4-0.4,1-0.8,1.5-1.1c0.6-0.3,1.2-0.4,1.9-0.4c0.7,0,1.3,0.1,1.9,0.4c0.6,0.3,1.1,0.6,1.6,1.1
		c0.4,0.4,0.8,1,1.1,1.6C193.3,169.3,193.4,169.9,193.4,170.6z M219.2,182.2c2.8,0,5.4,0.5,7.7,1.4c2.3,0.9,4.2,2.3,5.8,4
		c1.6,1.7,2.8,3.8,3.7,6.3s1.3,5.2,1.3,8.3c0,3.1-0.4,5.8-1.3,8.3s-2.1,4.6-3.7,6.3c-1.6,1.7-3.5,3.1-5.8,4
		c-2.3,0.9-4.9,1.4-7.7,1.4s-5.4-0.5-7.7-1.4c-2.3-0.9-4.2-2.3-5.9-4c-1.6-1.7-2.9-3.8-3.7-6.3c-0.9-2.5-1.3-5.2-1.3-8.3
		c0-3,0.4-5.8,1.3-8.3c0.9-2.5,2.1-4.6,3.7-6.3c1.6-1.7,3.6-3.1,5.9-4C213.8,182.7,216.4,182.2,219.2,182.2z M219.2,216.9
		c3.8,0,6.7-1.3,8.6-3.9s2.8-6.2,2.8-10.8c0-4.6-0.9-8.2-2.8-10.8s-4.8-3.9-8.6-3.9c-1.9,0-3.6,0.3-5.1,1c-1.4,0.7-2.6,1.6-3.6,2.9
		c-1,1.3-1.7,2.8-2.2,4.6c-0.5,1.8-0.7,3.9-0.7,6.2c0,2.3,0.2,4.4,0.7,6.2c0.5,1.8,1.2,3.3,2.2,4.6c1,1.2,2.2,2.2,3.6,2.9
		C215.6,216.6,217.3,216.9,219.2,216.9z"/>
</g>
</svg>
