<svg xmlns="http://www.w3.org/2000/svg" width="48" height="48" viewBox="0 0 48 48">
    <g fill="none" fill-rule="nonzero">
        <path fill="#004278" d="M0 0h48v48H0V0z"/>
        <path fill="#EE8C21" d="M43 37.02L38 37v5h5z"/>
        <path fill="#FFF" d="M18.466 42l.036-13.3h4.1L26.697 42h6.505L39 24h-5.98l-2.96 10.64L27.025 24H8v4.7h4.614l.042 13.3h5.81zM10.87 21.968c1.505-.111 2.908-.825 3.873-1.699.454-.445.79-.965 1.094-1.644v3.305h4.967l.079-6.012h4.572v-3.723h-4.572V9.91h6.95l.02 12.02h4.825v-9.712l2.91 9.713h3.752l2.902-9.682v9.682H47V6h-7.235l-2.3 9.088L35.111 6H15.837v8.996c-.643-1.002-1.519-1.674-2.372-1.88 0-.008.127-.095.282-.196 1.132-.73 1.628-1.705 1.57-3.09-.045-1.06-.414-1.91-1.109-2.556-.652-.606-1.454-.973-2.588-1.184 0 0-.212-.05-.31-.059-.099-.009-.275-.031-.275-.031H1v15.93c.089.063 9.024.1 9.87.038zM6 17.973V15h1.755c1.014 0 1.872.019 2.032.044.539.085.936.348 1.123.744.075.16.09.27.09.67 0 .417-.013.51-.102.7-.215.467-.675.724-1.437.803-.428.044-3.418.055-3.461.012zM6 10h1.458c1.633 0 1.844.022 2.171.222.267.164.372.36.371.69-.001.34-.09.582-.276.744-.355.312-.563.343-2.316.343L6 12v-2z"/>
    </g>
</svg>
