<?xml version="1.0" encoding="UTF-8"?>
<svg width="170px" height="170px" viewBox="0 0 170 170" version="1.1" xmlns="http://www.w3.org/2000/svg" xmlns:xlink="http://www.w3.org/1999/xlink">
    <!-- Generator: Sketch 46.2 (44496) - http://www.bohemiancoding.com/sketch -->
    <title>Photos Site</title>
    <desc>Created with Sketch.</desc>
    <defs></defs>
    <g id="Page-1" stroke="none" stroke-width="1" fill="none" fill-rule="evenodd">
        <g id="Photos-Site">
            <g id="nirvana_cozy" transform="translate(6.000000, 5.000000)">
                <g id="circles" transform="translate(7.000000, 8.000000)" stroke="#C2ADF4" stroke-width="9">
                    <path d="M72,0.218181818 C111.654545,0.218181818 143.781818,32.3454545 143.781818,72 C143.781818,111.654545 111.654545,143.781818 72,143.781818 C32.3454545,143.781818 0.218181818,111.6 0.218181818,72 C0.218181818,32.3454545 32.3454545,0.218181818 72,0.218181818 Z" id="Shape"></path>
                </g>
                <g id="chart" transform="translate(124.000000, 17.000000)" fill-rule="nonzero">
                    <g id="_x31_6px_9_" transform="translate(0.000000, 5.966102)">
                        <g id="graph_9_">
                            <path d="M13.1196429,24.7322034 C7.14107143,24.7322034 2.04821429,20.3389831 1.27321429,14.5898305 C0.3875,8.18983051 4.98214286,2.22372881 11.5142857,1.3559322 L12.3446429,1.24745763 L13.8392857,12.0949153 L24.9107143,10.6305085 L25.0214286,11.4440678 C25.4642857,14.5355932 24.6339286,17.6271186 22.6964286,20.1220339 C20.7589286,22.6169492 17.9357143,24.2440678 14.7803571,24.6779661 C14.2267857,24.7322034 13.6732143,24.7322034 13.1196429,24.7322034 Z" id="Shape" fill="#288AFC"></path>
                            <path d="M11.625,2.16949153 L13.1196429,13.0169492 L24.1910714,11.5525424 C25.0214286,17.5186441 20.7589286,23.0508475 14.6142857,23.8644068 C14.1160714,23.9186441 13.5625,23.9728814 13.0642857,23.9728814 C7.58392857,23.9728814 2.76785714,20.0135593 1.99285714,14.5355932 C1.21785714,8.46101695 5.53571429,2.98305085 11.625,2.16949153 L11.625,2.16949153 Z M13.0642857,0.325423729 L11.4035714,0.542372881 C4.37321429,1.46440678 -0.553571429,7.81016949 0.442857143,14.6983051 C1.32857143,20.8813559 6.75357143,25.5457627 13.1196429,25.5457627 C13.7285714,25.5457627 14.2821429,25.4915254 14.8910714,25.4372881 C18.2678571,25.0033898 21.3125,23.2677966 23.3607143,20.6101695 C25.4089286,17.9525424 26.2946429,14.6440678 25.8517857,11.2813559 L25.6303571,9.65423729 L23.9696429,9.87118644 L14.5589286,11.1186441 L13.2857143,1.89830508 L13.0642857,0.325423729 L13.0642857,0.325423729 Z" id="Shape" fill="#FFFFFF"></path>
                        </g>
                    </g>
                    <g id="Group" transform="translate(14.392857, 0.000000)">
                        <path d="M1.27321429,1.19322034 L2.10357143,1.08474576 C2.65714286,1.03050847 3.21071429,0.976271186 3.76428571,0.976271186 C9.74285714,0.976271186 14.8357143,5.36949153 15.6660714,11.1186441 L15.7767857,11.9322034 L3.04464286,13.6135593 L1.27321429,1.19322034 Z" id="Shape" fill="#BBD9FD"></path>
                        <path d="M3.70892857,1.78983051 C9.18928571,1.78983051 14.0053571,5.74915254 14.7803571,11.2271186 C11.625,11.6610169 3.70892857,12.6915254 3.70892857,12.6915254 L2.21428571,1.8440678 C2.7125,1.78983051 3.21071429,1.78983051 3.70892857,1.78983051 L3.70892857,1.78983051 Z M3.70892857,0.162711864 L3.70892857,0.162711864 C3.1,0.162711864 2.54642857,0.216949153 1.9375,0.271186441 L0.276785714,0.488135593 L0.498214286,2.11525424 L1.99285714,12.9627119 L2.21428571,14.5898305 L3.875,14.3728814 L14.9464286,12.9084746 L16.6071429,12.6915254 L16.3857143,11.0644068 C15.5553571,4.82711864 10.075,0.162711864 3.70892857,0.162711864 L3.70892857,0.162711864 Z" id="Shape" fill="#FFFFFF"></path>
                    </g>
                </g>
                <g id="w" transform="translate(26.000000, 33.000000)" fill-rule="nonzero">
                    <path d="M49.6670103,19.1825581 C50.2134021,19.6197674 50.7597938,20.0023256 51.3608247,20.3848837 C52.1257732,20.9313953 52.9453608,21.4232558 53.5463918,22.1337209 C56.6061856,25.7953488 52.6175258,32.2988372 55.7865979,35.8511628 C56.7154639,36.8895349 58.1360825,37.4360465 59.1742268,38.4197674 C61.2505155,40.277907 61.5783505,43.3383721 62.0154639,46.0709302 C62.5072165,48.8034884 63.6,51.9186047 66.2226804,52.8476744 C67.3154639,53.2302326 68.5175258,53.1755814 69.6649485,52.9569767 C72.3969072,52.5197674 75.0195876,51.2627907 76.7134021,49.0767442 C78.4072165,46.8906977 78.8989691,43.7209302 77.5876289,41.3162791 C76.5494845,39.4581395 74.5824742,38.3104651 73.5989691,36.4523256 C72.4515464,34.4302326 72.6154639,31.9162791 71.8505155,29.6755814 C70.0474227,24.4290698 63.8731959,22.1337209 60.7587629,17.5430233 C57.6443299,12.8430233 57.6443299,5.68372093 52.6175258,3.11511628 L49.6670103,19.1825581 Z" id="Shape" fill="#F4383C"></path>
                    <path d="M86.7123711,40.605814 C85.6742268,38.7476744 83.7072165,37.6 82.7237113,35.7418605 C81.5762887,33.7197674 81.7402062,31.205814 80.9752577,28.9651163 C79.1721649,23.7186047 72.9979381,21.4232558 69.8835052,16.8325581 C66.7690722,12.1325581 66.7690722,4.97325581 61.742268,2.40465116 C58.0814433,0.546511628 53.6556701,2.24069767 49.6123711,1.63953488 C48.5742268,1.4755814 47.2082474,1.4755814 46.9896907,2.45930233 C46.9350515,2.84186047 47.0443299,3.2244186 47.2082474,3.55232558 C47.8092784,4.97325581 48.4649485,6.28488372 49.2298969,7.59651163 C42.0175258,9.72790698 42.8371134,19.127907 42.8371134,19.127907 C45.1865979,18.1988372 47.5360825,15.3569767 49.2845361,12.6244186 C51.3061856,15.7395349 55.7319588,17.4883721 58.7917526,18.3627907 C59.3381443,18.8 59.8845361,19.1825581 60.485567,19.5651163 C61.2505155,20.1116279 62.0701031,20.6034884 62.671134,21.3139535 C65.7309278,24.9755814 61.742268,31.4790698 64.9113402,35.0313953 C65.8402062,36.0697674 67.2608247,36.6162791 68.2989691,37.6 C70.3752577,39.4581395 70.7030928,42.5186047 71.1402062,45.2511628 C71.6319588,47.9837209 72.7247423,51.0988372 75.3474227,52.027907 C76.4402062,52.4104651 77.642268,52.355814 78.7896907,52.1372093 C81.5216495,51.7 84.1443299,50.4430233 85.8381443,48.2569767 C87.5319588,46.1802326 88.0783505,43.0104651 86.7123711,40.605814 Z" id="Shape" fill="#21385E"></path>
                    <path d="M90.5917526,61.5918605 C92.8865979,59.5151163 93.1597938,56.0174419 94.4164948,53.1209302 C94.5257732,52.8476744 94.6350515,52.6290698 94.7989691,52.355814 C94.9628866,51.9186047 95.1814433,51.4813953 95.5639175,51.1534884 C96.0556701,50.7162791 96.7113402,50.5523256 97.3123711,50.4430233 C97.585567,50.3883721 97.9134021,50.3337209 98.1865979,50.4430233 C98.4597938,50.5523256 98.6237113,50.8255814 98.6237113,51.0988372 C98.6237113,51.372093 98.4597938,51.6453488 98.2412371,51.8093023 C98.0773196,51.9186047 97.8587629,51.9186047 97.6402062,52.027907 C97.0391753,52.1918605 96.4927835,52.6290698 96.2742268,53.2302326 C96.2195876,53.4488372 96.1649485,53.6127907 96.1649485,53.8313953 C96.1649485,53.8860465 96.1649485,53.9406977 96.2195876,53.9953488 C96.4927835,55.1430233 97.8041237,55.9627907 98.9515464,55.6348837 C99.5525773,55.4709302 100.098969,54.9790698 100.262887,54.377907 C100.317526,54.2139535 100.317526,54.1046512 100.317526,53.9406977 C100.153608,53.5581395 99.8804124,53.1755814 99.4979381,52.9569767 C99.3340206,52.8476744 99.1154639,52.7383721 98.9515464,52.5744186 C98.7876289,52.355814 98.6783505,52.0825581 98.7876289,51.8093023 C98.8969072,51.5360465 99.1154639,51.3174419 99.3886598,51.3174419 C99.7164948,51.2627907 99.9896907,51.4267442 100.262887,51.5360465 C100.809278,51.8639535 101.410309,52.1918605 101.738144,52.7383721 C102.175258,53.3395349 102.229897,54.1593023 102.065979,54.9244186 C102.065979,54.9790698 102.01134,55.0337209 102.01134,55.1430233 C102.66701,54.1046512 102.994845,52.9023256 103.32268,51.7546512 C103.486598,51.1534884 103.978351,50.3337209 104.579381,50.5523256 C104.797938,50.6069767 104.961856,50.8255814 105.125773,51.044186 C106.054639,52.355814 105.125773,53.5581395 104.907216,55.1430233 C104.743299,56.2360465 104.470103,57.2744186 104.03299,58.2581395 C103.541237,59.2418605 102.830928,60.1709302 101.792784,60.4988372 C101.35567,60.6627907 100.863918,60.6627907 100.426804,60.7174419 C97.5309278,61.0453488 95.6731959,62.6302326 93.2690722,64.3244186 C93.1051546,64.4337209 92.8865979,64.5976744 92.6680412,64.5430233 C92.5587629,64.4883721 92.4494845,64.4337209 92.3402062,64.3244186 C91.5752577,63.5046512 90.9742268,62.5755814 90.5917526,61.5918605 Z" id="Shape" fill="#FF8E8E"></path>
                    <path d="M15.0804124,61.5918605 C12.785567,59.5151163 12.5123711,56.0174419 11.2556701,53.1209302 C11.1463918,52.8476744 11.0371134,52.6290698 10.8731959,52.355814 C10.7092784,51.9186047 10.4907216,51.4813953 10.1082474,51.1534884 C9.61649485,50.7162791 8.96082474,50.5523256 8.35979381,50.4430233 C8.03195876,50.3883721 7.75876289,50.3337209 7.43092784,50.4430233 C7.15773196,50.5523256 6.99381443,50.8255814 6.99381443,51.0988372 C6.99381443,51.372093 7.15773196,51.6453488 7.37628866,51.8093023 C7.54020619,51.9186047 7.75876289,51.9186047 7.97731959,52.027907 C8.57835052,52.1918605 9.12474227,52.6290698 9.34329897,53.2302326 C9.39793814,53.4488372 9.45257732,53.6127907 9.45257732,53.8313953 C9.45257732,53.8860465 9.45257732,53.9406977 9.39793814,53.9953488 C9.12474227,55.1430233 7.81340206,55.9627907 6.66597938,55.6348837 C6.06494845,55.4709302 5.5185567,54.9790698 5.35463918,54.377907 C5.3,54.2139535 5.3,54.1046512 5.3,53.9406977 C5.46391753,53.5581395 5.7371134,53.1755814 6.11958763,52.9569767 C6.28350515,52.8476744 6.50206186,52.7383721 6.66597938,52.5744186 C6.82989691,52.355814 6.93917526,52.0825581 6.82989691,51.8093023 C6.72061856,51.5360465 6.50206186,51.3174419 6.22886598,51.3174419 C5.90103093,51.2627907 5.62783505,51.4267442 5.35463918,51.5360465 C4.80824742,51.8639535 4.20721649,52.1918605 3.87938144,52.7383721 C3.44226804,53.3395349 3.38762887,54.1593023 3.55154639,54.9244186 C3.55154639,54.9790698 3.60618557,55.0337209 3.60618557,55.1430233 C2.95051546,54.1046512 2.62268041,52.9023256 2.29484536,51.7546512 C2.13092784,51.1534884 1.63917526,50.3337209 1.03814433,50.5523256 C0.819587629,50.6069767 0.655670103,50.8255814 0.491752577,51.044186 C-0.437113402,52.355814 0.491752577,53.5581395 0.710309278,55.1430233 C0.874226804,56.2360465 1.14742268,57.2744186 1.58453608,58.2581395 C2.07628866,59.2418605 2.78659794,60.1709302 3.82474227,60.4988372 C4.26185567,60.6627907 4.75360825,60.6627907 5.19072165,60.7174419 C8.08659794,61.0453488 9.9443299,62.6302326 12.3484536,64.3244186 C12.5123711,64.4337209 12.7309278,64.5976744 12.9494845,64.5430233 C13.0587629,64.4883721 13.1680412,64.4337209 13.2773196,64.3244186 C14.042268,63.5046512 14.643299,62.5755814 15.0804124,61.5918605 Z" id="Shape" fill="#FF8E8E"></path>
                    <path d="M91.4659794,56.1813953 C87.5319588,59.077907 85.1824742,59.8430233 84.4721649,60.0069767 L84.3082474,59.9523256 L83.543299,60.1162791 C83.3793814,60.0616279 83.0515464,59.8430233 82.7237113,59.5151163 C81.9587629,58.6406977 81.3030928,57.1651163 80.6474227,55.6348837 L80.428866,55.0883721 C77.9701031,49.4046512 74.9649485,43.8848837 71.4680412,38.7476744 C70.4298969,37.272093 68.5721649,34.4848837 65.457732,32.9 C65.1845361,32.0802326 64.9113402,31.2604651 64.3649485,30.6593023 C63.5453608,29.7848837 62.3979381,29.7302326 61.3597938,29.7302326 C59.6113402,29.7302326 57.8082474,29.7302326 56.0597938,29.7302326 L56.0051546,28.8011628 L45.1865979,29.6755814 C45.0226804,29.6755814 44.8041237,29.7302326 44.585567,29.7302326 C43.9298969,29.7302326 43.2742268,29.7302326 42.6731959,29.9488372 C41.4164948,30.1674419 40.0505155,30.4953488 38.7391753,31.1511628 C35.5701031,32.7360465 33.2206186,36.8348837 32.1824742,38.3104651 C28.685567,43.4476744 27.8659794,49.35 25.4072165,55.0337209 L25.1886598,55.5802326 C24.5329897,57.1104651 23.9319588,58.5860465 23.1123711,59.4604651 C22.8391753,59.7883721 22.5659794,59.9523256 22.4020619,60.0069767 L22.1835052,59.7883721 L21.3639175,59.8976744 C20.7082474,59.7337209 18.3041237,59.0232558 14.3154639,56.072093 L7.97731959,64.6523256 C14.3154639,69.3523256 18.5773196,70.3360465 20.4350515,70.5546512 C21.0360825,70.6639535 21.6371134,70.7186047 22.2927835,70.7186047 C25.5164948,70.7186047 28.7402062,69.1883721 31.1443299,66.455814 C33.056701,64.2697674 34.0948454,61.8651163 35.0237113,59.7337209 L35.242268,59.1872093 C36.3350515,56.6732558 37.5371134,54.2686047 38.7938144,51.8639535 C38.7938144,53.8313953 38.7391753,55.7988372 38.6298969,57.7116279 C38.4113402,61.0453488 37.9195876,64.5430233 36.4989691,67.2755814 L53,65.9093023 L69.5010309,67.2755814 C68.0804124,64.5430233 67.5886598,61.0453488 67.3701031,57.7116279 C67.2608247,55.8534884 67.2061856,53.9406977 67.2061856,52.027907 C68.4628866,54.377907 69.6649485,56.727907 70.7030928,59.1872093 L70.9216495,59.7337209 C71.8505155,61.8651163 72.8886598,64.2697674 74.8010309,66.455814 C77.2051546,69.1883721 80.428866,70.7186047 83.6525773,70.7186047 C84.2536082,70.7186047 84.9092784,70.6639535 85.5103093,70.5546512 C87.3680412,70.3360465 91.6298969,69.3523256 97.9680412,64.6523256 L91.4659794,56.1813953 Z" id="Shape" fill="#2BD1D4"></path>
                    <path d="M42.6731959,19.0186047 C40.5969072,16.8872093 39.6134021,13.8267442 40.1051546,10.8755814 C40.7061856,7.37790698 43.1649485,4.53604651 45.8969072,2.18604651 C46.3886598,1.74883721 47.5907216,0.655813953 48.9020619,0.437209302 C53.3824742,-0.273255814 65.1845361,-0.109302326 64.9659794,7.21395349 C64.9113402,9.4 64.3649485,12.9523256 64.4742268,15.1383721 C64.528866,16.2313953 64.6381443,17.3790698 64.2556701,18.4174419 C63.8185567,19.455814 62.671134,20.2755814 61.6329897,19.9476744" id="Shape" fill="#F4383C"></path>
                    <ellipse id="Oval" fill="#FF8E8E" cx="52.3989691" cy="19.1825581" rx="9.56185567" ry="9.56395349"></ellipse>
                    <path d="M56.2783505,24.1011628 C53.7649485,24.8116279 51.0876289,25.1395349 48.4103093,25.0848837 C48.4103093,26.9430233 48.5742268,28.0906977 48.5195876,29.894186 C49.3391753,30.8232558 51.3061856,31.7523256 52.5082474,31.7523256 C54.0927835,31.7523256 55.185567,31.1511628 56.5515464,29.7302326 C56.3876289,27.5988372 56.3876289,26.2872093 56.2783505,24.1011628 Z" id="Shape" fill="#FF8E8E"></path>
                    <path d="M55.0216495,23.3906977 C55.3494845,23.3906977 55.5680412,23.6639535 55.5134021,23.9918605 C55.2402062,25.3034884 54.0927835,26.2325581 52.7268041,26.2325581 C51.3608247,26.2325581 50.2134021,25.2488372 49.9402062,23.9918605 C49.885567,23.6639535 50.1041237,23.3906977 50.4319588,23.3906977 L55.0216495,23.3906977 Z" id="Shape" fill="#FFFFFF"></path>
                    <path d="M86.7123711,40.605814 C85.6742268,38.7476744 83.7072165,37.6 82.7237113,35.7418605 C81.5762887,33.7197674 81.7402062,31.205814 80.9752577,28.9651163 C79.1721649,23.7186047 72.9979381,21.4232558 69.8835052,16.8325581 C66.7690722,12.1325581 66.7690722,4.97325581 61.742268,2.40465116 C58.0814433,0.546511628 53.6556701,2.24069767 49.6123711,1.63953488 C48.5742268,1.4755814 47.2082474,1.4755814 46.9896907,2.45930233 C46.9350515,2.84186047 47.0443299,3.2244186 47.2082474,3.55232558 C47.8092784,4.97325581 48.4649485,6.28488372 49.2298969,7.59651163 C42.0175258,9.72790698 42.8371134,19.127907 42.8371134,19.127907 C45.1865979,18.1988372 47.5360825,15.3569767 49.2845361,12.6244186 C51.3061856,15.7395349 55.7319588,17.4883721 58.7917526,18.3627907 C59.3381443,18.8 59.8845361,19.1825581 60.485567,19.5651163 C61.2505155,20.1116279 62.0701031,20.6034884 62.671134,21.3139535 C65.7309278,24.9755814 61.742268,31.4790698 64.9113402,35.0313953 C65.8402062,36.0697674 67.2608247,36.6162791 68.2989691,37.6 C70.3752577,39.4581395 70.7030928,42.5186047 71.1402062,45.2511628 C71.6319588,47.9837209 72.7247423,51.0988372 75.3474227,52.027907 C76.4402062,52.4104651 77.642268,52.355814 78.7896907,52.1372093 C81.5216495,51.7 84.1443299,50.4430233 85.8381443,48.2569767 C87.5319588,46.1802326 88.0783505,43.0104651 86.7123711,40.605814 Z" id="Shape" fill="#F4383C"></path>
                    <path d="M66.8237113,63.9965116 L53.2731959,63.9965116 L52.2350515,63.9965116 L38.6845361,63.9965116 C38.6845361,63.9965116 15.7360825,70.3360465 15.7360825,87.2232558 C15.7360825,102.90814 48.2463918,86.1302326 52.7268041,83.7255814 C57.2072165,86.1302326 89.7175258,102.90814 89.7175258,87.2232558 C89.7721649,70.3906977 66.8237113,63.9965116 66.8237113,63.9965116 Z" id="Shape" fill="#BBD9FD"></path>
                </g>
                <g id="health" transform="translate(7.000000, 17.000000)">
                    <path d="M30.7280702,24.7870968 C30.4561404,23.5258065 25.1807018,6.90967742 24.1473684,4.71612903 C23.8754386,3.72903226 23.6035088,2.79677419 23.0596491,2.08387097 C22.5701754,1.42580645 21.9719298,1.09677419 21.2649123,0.987096774 C20.4491228,0.383870968 19.3070175,0.329032258 18.1649123,0.548387097 C17.4578947,0.658064516 16.7508772,0.877419355 16.0982456,1.04193548 C13.0526316,1.97419355 2.1754386,4.88064516 1.84912281,4.99032258 C0.21754386,5.6483871 0.10877193,6.90967742 0.435087719,8.33548387 C0.489473684,8.55483871 4.94912281,28.3516129 5.22105263,29.3935484 C5.65614035,30.8193548 6.36315789,32.0806452 7.66842105,32.2451613 C7.88596491,32.2451613 8.42982456,32.1903226 9.24561404,32.0258065 C9.78947368,32.9580645 10.4964912,33.616129 11.4754386,33.6709677 C12.8350877,33.7258065 28.7157895,27.9677419 29.477193,27.6387097 C30.3473684,27.2548387 30.7280702,26.7064516 30.7824561,26.0483871 C30.945614,25.6645161 30.8368421,25.2806452 30.7280702,24.7870968 Z" id="Shape" stroke="#FFFFFF" stroke-width="7"></path>
                    <g id="Group" fill-rule="nonzero">
                        <path d="M22.7877193,4.5516129 C22.6245614,3.56451613 22.4070175,2.63225806 21.9175439,1.86451613 C21.1017544,0.493548387 19.6877193,0.383870968 18.1105263,0.658064516 C17.4035088,0.767741935 16.6964912,0.987096774 16.0438596,1.1516129 C13.0526316,1.97419355 2.1754386,4.88064516 1.84912281,4.99032258 C0.21754386,5.6483871 0.10877193,6.90967742 0.435087719,8.33548387 C0.489473684,8.55483871 4.94912281,28.3516129 5.22105263,29.3935484 C5.65614035,30.8193548 6.36315789,32.0806452 7.66842105,32.2451613 C9.02807018,32.4096774 25.3438596,28.0774194 26.1052632,27.8032258 C27.0298246,27.4741935 27.4649123,26.9806452 27.5736842,26.3225806 C27.7368421,25.9935484 27.6824561,25.6096774 27.6280702,25.116129 C27.4649123,23.8 23.6035088,6.8 22.7877193,4.5516129" id="Shape" fill="#2BD1D4"></path>
                        <path d="M24.1473684,4.71612903 C23.8754386,3.72903226 23.6035088,2.79677419 23.0596491,2.08387097 C22.1350877,0.822580645 20.6666667,0.822580645 19.1438596,1.20645161 C18.4368421,1.37096774 17.7298246,1.64516129 17.1315789,1.86451613 C14.1947368,2.96129032 3.64385965,6.85483871 3.31754386,7.01935484 C1.74035088,7.78709677 1.74035088,9.0483871 2.22982456,10.4741935 C2.28421053,10.6935484 8.42982456,29.9967742 8.81052632,30.983871 C9.35438596,32.3548387 10.1701754,33.5612903 11.5298246,33.616129 C12.8894737,33.6709677 28.7701754,27.9129032 29.5315789,27.583871 C30.4017544,27.2 30.7824561,26.6516129 30.8368421,25.9935484 C30.945614,25.6645161 30.8912281,25.2806452 30.7824561,24.7870968 C30.4561404,23.5258065 25.1807018,6.90967742 24.1473684,4.71612903" id="Shape" fill="#B7F6F7"></path>
                        <path d="M22.0807018,11.4064516 C19.6877193,9.26774194 16.0982456,10.7483871 15.2280702,13.4903226 C12.9982456,11.6806452 9.19122807,12.3935484 8.3754386,15.5741935 C7.83157895,17.7129032 8.81052632,19.9612903 10.4421053,21.3870968 C12.7263158,23.3064516 15.7175439,22.5387097 18.0017544,24.1290323 C18.1649123,24.2387097 18.2736842,24.2387097 18.4368421,24.183871 C18.545614,24.183871 18.7087719,24.0741935 18.7631579,23.9096774 C19.7964912,21.2774194 22.7333333,20.2903226 23.5491228,17.4387097 C24.0929825,15.3548387 23.7122807,12.8870968 22.0807018,11.4064516" id="Shape" fill="#FF8E8E"></path>
                        <path d="M19.5245614,16.8354839 C19.0894737,16.9451613 18.654386,17.1096774 18.1649123,17.2193548 C17.9473684,17.2741935 17.8385965,17.4387097 17.7842105,17.6580645 C17.6754386,18.2064516 17.5666667,18.7548387 17.5122807,19.3580645 C16.9140351,18.2064516 16.2614035,17 15.6631579,15.8483871 C15.445614,15.4096774 14.8473684,15.6290323 14.7929825,16.0677419 C14.6842105,16.8354839 14.6298246,17.6032258 14.5210526,18.3709677 C14.1947368,18.4806452 13.8684211,18.5903226 13.4877193,18.7 C12.8894737,18.8645161 13.1070175,19.7967742 13.7052632,19.6322581 C14.1403509,19.5225806 14.5754386,19.3580645 15.0105263,19.2483871 C15.2280702,19.1935484 15.3368421,19.0290323 15.3912281,18.8096774 C15.445614,18.4258065 15.5,18.0967742 15.5,17.7129032 L17.2947368,21.1129032 C17.5122807,21.5516129 18.1105263,21.3322581 18.1649123,20.8935484 C18.3280702,19.9612903 18.4912281,19.083871 18.654386,18.1516129 C18.9807018,18.0419355 19.3614035,17.9322581 19.6877193,17.8225806 C20.2859649,17.6032258 20.0684211,16.6709677 19.5245614,16.8354839" id="Shape" fill="#F52D2D"></path>
                    </g>
                </g>
                <g id="photo" transform="translate(70.000000, 0.000000)">
                    <path d="M22.7454545,3.59512195 C22.6909091,3.59512195 22.6363636,3.59512195 22.5818182,3.59512195 C17.0181818,3.86341463 11.4545455,2.84390244 6.38181818,0.536585366 C6.27272727,0.482926829 6.16363636,0.482926829 6.05454545,0.482926829 C5.78181818,0.429268293 5.50909091,0.536585366 5.4,0.858536585 C4.30909091,5.90243902 2.83636364,10.8390244 0.927272727,15.6146341 C0.872727273,15.7756098 0.436363636,16.9560976 0.490909091,17.0634146 C0.545454545,17.1707317 0.654545455,17.2780488 0.763636364,17.3317073 C1.96363636,18.1365854 3.16363636,18.6195122 4.41818182,19.0487805 C6.05454545,19.5853659 7.74545455,20.0682927 9.49090909,20.497561 C12.3818182,21.1414634 15.3818182,21.5707317 18.3272727,21.6780488 C18.4363636,21.6780488 19.4727273,21.7317073 19.5818182,21.7317073 C19.7454545,21.7317073 19.8545455,21.7317073 20.0181818,21.7317073 C20.1272727,21.7317073 20.1818182,21.7317073 20.2363636,21.6780488 C20.4,21.6243902 20.5090909,21.5170732 20.5636364,21.302439 C21.7090909,15.6146341 22.6363636,9.92682927 23.4545455,4.18536585 C23.5090909,3.70243902 23.0727273,3.48780488 22.7454545,3.59512195 Z" id="Shape" stroke="#FEFEFE" stroke-width="6"></path>
                    <g id="Group" fill-rule="nonzero">
                        <path d="M19.7454545,17.1170732 C14.0181818,16.4731707 8.12727273,15.8292683 2.94545455,13.2536585 C4.30909091,9.44390244 5.45454545,5.52682927 6.32727273,1.6097561 C11.2909091,3.8097561 16.7454545,4.82926829 22.2,4.66829268 C21.7090909,8.85365854 20.8909091,12.9853659 19.7454545,17.1170732" id="Shape" fill="#FFFFFF"></path>
                        <path d="M18.0545455,17.4926829 C15.9272727,16.097561 14.2909091,14.2195122 12.6545455,12.3414634 C11.8909091,11.4292683 11.1272727,10.5170732 10.2545455,9.71219512 C9.87272727,9.33658537 9.43636364,9.17560976 8.89090909,9.3902439 C8.23636364,9.60487805 7.58181818,9.92682927 6.98181818,10.195122 C5.56363636,10.8390244 4.14545455,11.5365854 2.72727273,12.2341463 C2.67272727,12.1804878 2.61818182,12.1804878 2.61818182,12.2341463 C2.50909091,12.502439 2.34545455,12.7707317 2.23636364,13.0390244 C2.12727273,13.2 2.07272727,13.4146341 2.07272727,13.5756098 C2.12727273,13.9512195 2.61818182,14.1121951 2.89090909,14.2195122 C3.98181818,14.595122 5.18181818,14.7560976 6.32727273,15.0243902 C8.78181818,15.5609756 11.2363636,16.097561 13.6909091,16.6341463 C15.1090909,16.9560976 16.4727273,17.2780488 17.8363636,17.6 C17.8909091,17.6 17.8909091,17.6 17.8909091,17.5463415 C17.8909091,17.5463415 17.8909091,17.5463415 17.9454545,17.6 C18,17.6536585 18.1090909,17.5463415 18.0545455,17.4926829" id="Shape" fill="#2BD1D4"></path>
                        <path d="M21.3272727,11.9121951 C21.2727273,11.6439024 21,11.4829268 20.7818182,11.3219512 C20.2909091,10.8926829 19.6909091,10.5707317 19.1454545,10.195122 C18.8727273,10.0341463 18.6,9.87317073 18.2727273,9.71219512 C18.0545455,9.55121951 17.7818182,9.44390244 17.5090909,9.44390244 C17.2363636,9.44390244 16.9636364,9.60487805 16.6909091,9.71219512 C16.3090909,9.87317073 15.9818182,10.0341463 15.6,10.195122 C14.1818182,10.8926829 12.7636364,11.6439024 11.4,12.4487805 C10.0909091,13.2 8.78181818,14.0585366 7.63636364,15.1317073 C7.58181818,15.1853659 7.63636364,15.2390244 7.63636364,15.2390244 C7.41818182,15.4536585 7.09090909,15.4 6.87272727,15.5609756 C6.70909091,15.6682927 6.65454545,15.8292683 6.6,16.0439024 C6.49090909,16.5804878 6.6,17.2243902 6.87272727,17.7073171 C7.14545455,18.1902439 7.69090909,18.2439024 8.18181818,18.3512195 C8.89090909,18.5121951 9.6,18.6195122 10.3636364,18.7268293 C11.8363636,18.8878049 13.3090909,18.995122 14.7272727,19.0487805 C15.4363636,19.102439 16.2,19.1560976 16.9090909,19.2097561 C17.5636364,19.2634146 18.2727273,19.4243902 18.9272727,19.3707317 C19.2545455,19.3170732 19.5818182,19.2634146 19.8545455,19.102439 C20.0727273,18.995122 20.3454545,18.9414634 20.5090909,18.7268293 C20.6727273,18.5658537 20.7272727,18.297561 20.7818182,18.0829268 C20.8909091,17.7073171 20.9454545,17.3317073 21.0545455,16.9560976 C21.1636364,16.2585366 21.2181818,15.6146341 21.2727273,14.9170732 C21.2727273,14.1658537 21.1636364,13.3609756 21.2181818,12.6097561 C21.2727273,12.395122 21.3818182,12.1804878 21.3272727,11.9121951" id="Shape" fill="#2BD1D4"></path>
                        <path d="M22.7454545,3.59512195 C22.6909091,3.59512195 22.6363636,3.59512195 22.5818182,3.59512195 C17.0181818,3.86341463 11.4545455,2.84390244 6.38181818,0.536585366 C6.27272727,0.482926829 6.16363636,0.482926829 6.05454545,0.482926829 C5.78181818,0.429268293 5.50909091,0.536585366 5.4,0.858536585 C4.30909091,5.90243902 2.83636364,10.8390244 0.927272727,15.6146341 C0.872727273,15.7756098 0.436363636,16.9560976 0.490909091,17.0634146 C0.545454545,17.1707317 0.654545455,17.2780488 0.763636364,17.3317073 C1.96363636,18.1365854 3.16363636,18.6195122 4.41818182,19.0487805 C6.05454545,19.5853659 7.74545455,20.0682927 9.49090909,20.497561 C12.3818182,21.1414634 15.3818182,21.5707317 18.3272727,21.6780488 C18.4363636,21.6780488 19.4727273,21.7317073 19.5818182,21.7317073 C19.7454545,21.7317073 19.8545455,21.7317073 20.0181818,21.7317073 C20.1272727,21.7317073 20.1818182,21.7317073 20.2363636,21.6780488 C20.4,21.6243902 20.5090909,21.5170732 20.5636364,21.302439 C21.7090909,15.6146341 22.6363636,9.92682927 23.4545455,4.18536585 C23.5090909,3.70243902 23.0727273,3.48780488 22.7454545,3.59512195 M19.7454545,17.1170732 C14.0181818,16.4731707 8.12727273,15.8292683 2.94545455,13.2536585 C4.30909091,9.44390244 5.45454545,5.52682927 6.32727273,1.6097561 C11.2909091,3.8097561 16.7454545,4.82926829 22.2,4.66829268 C21.7090909,8.85365854 20.8909091,12.9853659 19.7454545,17.1170732" id="Shape" fill="#BBD9FD"></path>
                        <path d="M16.5818182,6.17073171 C16.0909091,5.63414634 15.2727273,5.5804878 14.7272727,5.95609756 C14.7272727,5.95609756 14.7272727,5.95609756 14.7272727,5.95609756 C14.4545455,6.11707317 14.2909091,6.33170732 14.1818182,6.6 C13.9090909,7.02926829 13.9636364,7.6195122 14.3454545,7.99512195 C14.8909091,8.58536585 15.8727273,8.63902439 16.4727273,8.15609756 C17.1272727,7.6195122 17.0727273,6.76097561 16.5818182,6.17073171" id="Shape" fill="#FD9E2A"></path>
                    </g>
                </g>
                <g id="g_x5F_recipes" transform="translate(62.000000, 127.000000)" fill-rule="nonzero">
                    <g id="Group" transform="translate(1.632353, 1.619048)">
                        <g id="_x33_2px_10_" fill="#0DCBCF">
                            <g id="icons_10_">
                                <g id="analytics-02_10_">
                                    <path d="M15.2352941,0.755555556 L29.7088235,17.3777778 C30.3073529,18.0793651 30.4161765,19.0507937 29.8720588,19.4825397 L17.4661765,30.1142857 C16.9220588,30.5460317 15.9970588,30.3301587 15.3985294,29.6285714 L0.925,13.0063492 C0.326470588,12.3047619 0.217647059,11.3333333 0.761764706,10.9015873 L13.1676471,0.323809524 C13.7117647,-0.161904762 14.6367647,0.053968254 15.2352941,0.755555556 Z" id="Rectangle-4_10_"></path>
                                </g>
                            </g>
                        </g>
                        <g id="_x33_2px_9_" transform="translate(3.264706, 0.000000)">
                            <g id="icons_9_">
                                <g id="analytics-02_9_">
                                    <path d="M15.2897059,0.80952381 L29.7632353,17.431746 C30.3617647,18.1333333 30.4705882,19.1047619 29.9264706,19.5365079 L17.5205882,30.168254 C16.9764706,30.6 16.0514706,30.384127 15.4529412,29.6825397 L0.979411765,13.0603175 C0.380882353,12.3587302 0.272058824,11.4412698 0.816176471,10.9555556 L13.2220588,0.323809524 C13.7661765,-0.107936508 14.6911765,0.107936508 15.2897059,0.80952381 Z" id="Rectangle-4_9_" fill="#ACF5F7"></path>
                                    <path d="M6.31176471,9.60634921 C6.85588235,9.17460317 7.61764706,9.22857143 8.10735294,9.71428571 C8.54264706,10.2539683 8.48823529,11.0095238 7.99852941,11.4952381 L6.09411765,13.1142857 C5.55,13.5460317 4.78823529,13.4920635 4.29852941,13.0063492 C3.86323529,12.4666667 3.91764706,11.7111111 4.40735294,11.2253968 L6.31176471,9.60634921 Z M19.425,13.2222222 C19.9691176,12.7904762 20.7308824,12.8444444 21.2205882,13.3301587 C21.6558824,13.8698413 21.6014706,14.6253968 21.1117647,15.1111111 L13.4397059,21.6412698 C12.8955882,22.0730159 12.1338235,22.0190476 11.6441176,21.5333333 C11.2088235,20.9936508 11.2632353,20.2380952 11.7529412,19.752381 L19.425,13.2222222 Z M13.1132353,13.6539683 C13.6573529,13.2222222 14.4191176,13.2761905 14.9088235,13.7619048 C15.3441176,14.3015873 15.2897059,15.0571429 14.8,15.5428571 L10.9911765,18.7809524 C10.4470588,19.2126984 9.68529412,19.1587302 9.19558824,18.6730159 C8.76029412,18.1333333 8.81470588,17.3777778 9.30441176,16.8920635 L13.1132353,13.6539683 Z M12.5691176,9.17460317 C13.1132353,8.74285714 13.875,8.7968254 14.3647059,9.28253968 C14.8,9.82222222 14.7455882,10.5777778 14.2558824,11.0634921 L8.54264706,15.9746032 C7.99852941,16.4063492 7.23676471,16.352381 6.74705882,15.8666667 C6.31176471,15.3269841 6.36617647,14.5714286 6.85588235,14.0857143 L12.5691176,9.17460317 Z" id="Combined-Shape_9_" fill="#0DCBCF"></path>
                                </g>
                            </g>
                        </g>
                    </g>
                    <path d="M15.5073529,1.67301587 C15.9970588,1.67301587 16.4867647,1.94285714 16.8676471,2.37460317 L17.1941176,2.75238095 L18.1191176,1.94285714 C18.2823529,1.78095238 18.5544118,1.72698413 18.8264706,1.72698413 C19.3161765,1.72698413 19.8058824,1.9968254 20.1867647,2.42857143 L34.6602941,19.0507937 C35.2588235,19.752381 35.3676471,20.7238095 34.8235294,21.1555556 L22.4176471,31.7333333 C22.2544118,31.8952381 21.9823529,31.9492063 21.7102941,31.9492063 C21.2205882,31.9492063 20.7308824,31.6793651 20.35,31.247619 L20.0235294,30.8698413 L19.0985294,31.6793651 C18.9352941,31.8412698 18.6632353,31.8952381 18.3911765,31.8952381 C17.9014706,31.8952381 17.4117647,31.6253968 17.0308824,31.1936508 L2.55735294,14.5714286 C1.95882353,13.8698413 1.85,12.952381 2.39411765,12.4666667 L14.8,1.88888889 C14.9632353,1.78095238 15.2352941,1.67301587 15.5073529,1.67301587 L15.5073529,1.67301587 Z M15.5073529,0.053968254 L15.5073529,0.053968254 C14.8544118,0.053968254 14.2014706,0.26984127 13.7661765,0.701587302 L1.36029412,11.2793651 C0.108823529,12.3587302 0.108823529,14.247619 1.36029412,15.6507937 L15.8338235,32.2730159 C16.5411765,33.0825397 17.5205882,33.5142857 18.4455882,33.5142857 C19.0441176,33.5142857 19.5882353,33.352381 20.0235294,33.0285714 C20.5676471,33.352381 21.1661765,33.568254 21.8191176,33.568254 C22.4720588,33.568254 23.0705882,33.352381 23.5602941,32.9206349 L35.9661765,22.2888889 C36.5102941,21.8571429 36.8367647,21.1555556 36.8911765,20.4539683 C36.9455882,19.5904762 36.6191176,18.6730159 35.9661765,17.9174603 L21.4926471,1.2952381 C20.7852941,0.485714286 19.8058824,0.053968254 18.8808824,0.053968254 C18.2823529,0.053968254 17.7382353,0.215873016 17.3029412,0.53968254 C16.7044118,0.26984127 16.1058824,0.053968254 15.5073529,0.053968254 L15.5073529,0.053968254 L15.5073529,0.053968254 Z" id="Shape" fill="#FFFFFF"></path>
                </g>
                <g id="y_x5F_recipes" transform="translate(126.000000, 90.000000)">
                    <path d="M31.620339,6 C31.620339,6.76031746 31.620339,5.5 31.2949153,4.85714286 C31.2949153,4.53333333 30.8067797,4.47936508 30.6983051,4.6952381 C30.5355932,4.8031746 30.3728814,4.96507937 30.2644068,5.07301587 C30.2101695,4.85714286 30.1016949,4.64126984 30.1016949,4.42539683 C30.1016949,4.1015873 29.6135593,4.04761905 29.5050847,4.26349206 C29.2338983,4.47936508 29.0169492,4.6952381 28.8,4.96507937 C28.6915254,4.64126984 28.5288136,4.31746032 28.5288136,3.99365079 C28.5288136,3.66984127 28.040678,3.61587302 27.9322034,3.83174603 C27.6610169,4.04761905 27.4440678,4.26349206 27.2271186,4.53333333 C27.1186441,4.20952381 26.9559322,3.88571429 26.9559322,3.56190476 C26.9559322,3.23809524 26.4677966,3.18412698 26.359322,3.4 C26.0881356,3.61587302 25.8711864,3.83174603 25.6542373,4.04761905 C25.5457627,3.72380952 25.3830508,3.4 25.3830508,3.07619048 C25.3830508,2.75238095 24.8949153,2.6984127 24.7864407,2.91428571 C24.5152542,3.13015873 24.2983051,3.4 24.0271186,3.61587302 C23.9186441,3.29206349 23.7559322,2.96825397 23.7559322,2.59047619 C23.7559322,2.26666667 23.2677966,2.21269841 23.159322,2.42857143 C22.8881356,2.64444444 22.6711864,2.86031746 22.4542373,3.07619048 C22.3457627,2.75238095 22.1830508,2.48253968 22.1830508,2.15873016 C22.1830508,1.83492063 21.6949153,1.78095238 21.5864407,1.9968254 C21.3152542,2.21269841 21.0983051,2.42857143 20.8813559,2.6984127 C20.7728814,2.37460317 20.6101695,2.05079365 20.6101695,1.72698413 C20.6101695,1.4031746 20.1220339,1.34920635 20.0135593,1.56507937 C19.7423729,1.78095238 19.5254237,1.9968254 19.3084746,2.21269841 C19.2,1.88888889 19.0372881,1.56507937 19.0372881,1.24126984 C19.0372881,0.917460317 18.5491525,0.863492063 18.440678,1.07936508 C18.1694915,1.2952381 17.9525424,1.51111111 17.7355932,1.78095238 C17.6271186,1.45714286 17.4644068,1.13333333 17.4644068,0.80952381 C17.4644068,0.485714286 16.9762712,0.431746032 16.8677966,0.647619048 C16.5966102,0.863492063 16.379661,1.13333333 16.1084746,1.34920635 C16,1.02539683 15.8372881,0.701587302 15.8372881,0.323809524 C15.8372881,-7.81319454e-14 15.3491525,-0.053968254 15.240678,0.161904762 C14.8610169,0.431746032 14.5898305,0.755555556 14.3186441,1.07936508 C14.2644068,1.13333333 14.2644068,1.13333333 14.2644068,1.18730159 C14.2101695,1.24126984 14.1559322,1.2952381 14.1559322,1.2952381 C14.1559322,1.51111111 14.1016949,1.67301587 14.0474576,1.88888889 C13.8847458,2.05079365 13.7220339,2.15873016 13.559322,2.32063492 C13.4508475,1.9968254 13.2881356,1.67301587 13.2881356,1.2952381 C13.2881356,0.971428571 12.8542373,0.863492063 12.6915254,1.13333333 C12.3118644,1.34920635 12.040678,1.72698413 11.7152542,1.9968254 C11.6067797,2.05079365 11.6067797,2.1047619 11.6067797,2.1047619 C11.4983051,2.42857143 11.4440678,2.6984127 11.3898305,2.91428571 C11.1728814,3.07619048 11.0101695,3.23809524 10.7932203,3.4 C10.6847458,3.07619048 10.5762712,2.6984127 10.6305085,2.37460317 C10.6305085,2.05079365 10.1966102,1.94285714 10.0881356,2.15873016 C9.70847458,2.37460317 9.38305085,2.6984127 9.05762712,2.96825397 C9.00338983,2.96825397 9.00338983,3.02222222 8.94915254,3.02222222 C8.84067797,3.02222222 8.84067797,3.07619048 8.84067797,3.07619048 C8.51525424,4.15555556 8.18983051,5.23492063 7.86440678,6.20634921 C7.37627119,7.87936508 6.77966102,9.55238095 6.18305085,11.1714286 C5.42372881,13.384127 4.61016949,15.5428571 3.63389831,17.7015873 C2.87457627,19.3746032 2.11525424,21.1555556 1.24745763,22.8825397 C0.86779661,23.584127 0.488135593,23.9079365 0.542372881,24.2857143 C0.596610169,24.7714286 0.759322034,25.2571429 0.705084746,25.6888889 C0.650847458,26.0126984 1.08474576,26.1746032 1.24745763,25.9587302 C1.51864407,25.8507937 1.73559322,25.6888889 1.95254237,25.5269841 C2.00677966,25.5269841 2.06101695,25.5809524 2.11525424,25.5809524 C2.16949153,25.8507937 2.22372881,26.1206349 2.16949153,26.4444444 C2.11525424,26.768254 2.54915254,26.9301587 2.71186441,26.7142857 C2.98305085,26.6063492 3.2,26.4444444 3.47118644,26.2825397 C3.52542373,26.2825397 3.57966102,26.3365079 3.57966102,26.3365079 C3.63389831,26.6063492 3.68813559,26.9301587 3.63389831,27.2 C3.57966102,27.5238095 4.01355932,27.6857143 4.17627119,27.4698413 C4.44745763,27.3619048 4.71864407,27.2 4.93559322,26.984127 L5.0440678,27.0380952 C5.09830508,27.3619048 5.15254237,27.631746 5.09830508,27.9555556 C5.0440678,28.2793651 5.4779661,28.4412698 5.64067797,28.2253968 C5.91186441,28.1174603 6.18305085,27.9015873 6.4,27.7396825 C6.50847458,28.1174603 6.56271186,28.3873016 6.50847458,28.7111111 C6.45423729,29.0349206 6.88813559,29.1968254 7.05084746,28.9809524 C7.3220339,28.8730159 7.59322034,28.6571429 7.81016949,28.4952381 C7.86440678,28.4952381 7.91864407,28.5492063 7.91864407,28.5492063 C7.97288136,28.8730159 8.02711864,29.1428571 7.97288136,29.4666667 C7.91864407,29.7904762 8.35254237,29.952381 8.51525424,29.7365079 C8.78644068,29.6285714 9.05762712,29.4126984 9.27457627,29.2507937 C9.38305085,29.6285714 9.43728814,29.8984127 9.38305085,30.2222222 C9.32881356,30.5460317 9.76271186,30.7079365 9.92542373,30.4920635 C10.1966102,30.384127 10.4677966,30.168254 10.6847458,30.0063492 C10.7389831,30.0063492 10.7389831,30.0603175 10.7932203,30.0603175 C10.8474576,30.384127 10.9016949,30.6539683 10.8474576,30.9777778 C10.7932203,31.3015873 11.2271186,31.4634921 11.3898305,31.247619 C11.6610169,31.1396825 11.9322034,30.9238095 12.1491525,30.7619048 C12.2576271,31.1396825 12.3118644,31.4095238 12.2576271,31.7333333 C12.2033898,32.0571429 12.6372881,32.2190476 12.8,32.0031746 C13.0711864,31.8952381 13.3423729,31.6793651 13.6135593,31.5174603 C13.7220339,31.8412698 13.7762712,32.1650794 13.7220339,32.4349206 C13.6677966,32.7587302 14.1016949,32.9206349 14.2644068,32.7047619 C14.5898305,32.5968254 14.8067797,32.3809524 15.0779661,32.2190476 C15.1864407,32.5968254 15.240678,32.9206349 15.1864407,33.2444444 C15.1322034,33.568254 15.5661017,33.7301587 15.7288136,33.5142857 C16.1627119,33.2984127 16.5423729,32.9746032 16.9762712,32.7047619 C17.0305085,32.6507937 17.0847458,32.5968254 17.0847458,32.5968254 C17.3016949,32.2190476 17.7898305,31.0857143 18.1694915,30.168254 C18.2237288,30.1142857 18.2779661,30.1142857 18.2779661,30.1142857 C18.3322034,30.4380952 18.440678,30.7079365 18.3864407,31.031746 C18.3322034,31.3555556 18.7661017,31.4634921 18.9288136,31.247619 C19.2,31.0857143 19.4711864,30.8698413 19.6881356,30.7079365 C19.7966102,31.0857143 19.9050847,31.4095238 19.8508475,31.7333333 C19.7966102,32.0571429 20.2305085,32.1650794 20.3932203,31.9492063 C20.8271186,31.7333333 21.1525424,31.3555556 21.5864407,31.0857143 C21.640678,31.031746 21.6949153,30.9777778 21.6949153,30.9238095 C21.8033898,30.7079365 21.9661017,30.2761905 22.1288136,29.7365079 C22.1288136,30.1142857 22.5627119,30.2222222 22.6711864,30.0063492 C22.9423729,29.8444444 23.2135593,29.6285714 23.4305085,29.4126984 C23.5932203,29.7904762 23.6474576,30.1142857 23.6474576,30.4380952 C23.6474576,30.7619048 24.0813559,30.8698413 24.2440678,30.6539683 C24.6779661,30.384127 25.0033898,30.0063492 25.3830508,29.7365079 C25.4372881,29.6825397 25.4915254,29.6285714 25.4915254,29.5746032 C25.7084746,28.9269841 26.5220339,26.2825397 26.6847458,25.6888889 C28.1491525,19.8603175 29.6135593,14.031746 31.1322034,8.14920635 C31.1322034,8.0952381 31.1864407,8.0952381 31.1864407,8.04126984 C31.2949153,7.60952381 31.620339,5.23968254 31.620339,6 Z" id="Shape" stroke="#FFFFFF" stroke-width="7"></path>
                    <g id="Group" transform="translate(0.542373, 0.000000)" fill-rule="nonzero">
                        <path d="M31.1864407,6.26031746 C31.1864407,6.20634921 31.1864407,6.20634921 31.1864407,6.26031746 C31.0237288,5.77460317 30.8067797,5.34285714 30.7525424,4.85714286 C30.7525424,4.53333333 30.2644068,4.47936508 30.1559322,4.6952381 C29.9932203,4.8031746 29.8305085,4.96507937 29.7220339,5.07301587 C29.6677966,4.85714286 29.559322,4.64126984 29.559322,4.42539683 C29.559322,4.1015873 29.0711864,4.04761905 28.9627119,4.26349206 C28.6915254,4.47936508 28.4745763,4.6952381 28.2576271,4.96507937 C28.1491525,4.64126984 27.9864407,4.31746032 27.9864407,3.99365079 C27.9864407,3.66984127 27.4983051,3.61587302 27.3898305,3.83174603 C27.1186441,4.04761905 26.9016949,4.26349206 26.6847458,4.53333333 C26.5762712,4.20952381 26.4135593,3.88571429 26.4135593,3.56190476 C26.4135593,3.23809524 25.9254237,3.18412698 25.8169492,3.4 C25.5457627,3.61587302 25.3288136,3.83174603 25.1118644,4.04761905 C25.0033898,3.72380952 24.840678,3.4 24.840678,3.07619048 C24.840678,2.75238095 24.3525424,2.6984127 24.2440678,2.91428571 C23.9728814,3.13015873 23.7559322,3.4 23.4847458,3.61587302 C23.3762712,3.29206349 23.2135593,2.96825397 23.2135593,2.59047619 C23.2135593,2.26666667 22.7254237,2.21269841 22.6169492,2.42857143 C22.3457627,2.64444444 22.1288136,2.86031746 21.9118644,3.07619048 C21.8033898,2.75238095 21.640678,2.48253968 21.640678,2.15873016 C21.640678,1.83492063 21.1525424,1.78095238 21.0440678,1.9968254 C20.7728814,2.21269841 20.5559322,2.42857143 20.3389831,2.6984127 C20.2305085,2.37460317 20.0677966,2.05079365 20.0677966,1.72698413 C20.0677966,1.4031746 19.579661,1.34920635 19.4711864,1.56507937 C19.2,1.78095238 18.9830508,1.9968254 18.7661017,2.21269841 C18.6576271,1.88888889 18.4949153,1.56507937 18.4949153,1.24126984 C18.4949153,0.917460317 18.0067797,0.863492063 17.8983051,1.07936508 C17.6271186,1.2952381 17.4101695,1.51111111 17.1932203,1.78095238 C17.0847458,1.45714286 16.9220339,1.13333333 16.9220339,0.80952381 C16.9220339,0.485714286 16.4338983,0.431746032 16.3254237,0.647619048 C16.0542373,0.863492063 15.8372881,1.13333333 15.5661017,1.34920635 C15.4576271,1.02539683 15.2949153,0.701587302 15.2949153,0.323809524 C15.2949153,-7.81319454e-14 14.8067797,-0.053968254 14.6983051,0.161904762 C14.3186441,0.431746032 14.0474576,0.755555556 13.7762712,1.07936508 C13.7762712,1.07936508 13.7220339,1.13333333 13.7220339,1.13333333 C13.7220339,1.13333333 13.7220339,1.13333333 13.7220339,1.18730159 C13.6677966,1.18730159 13.6677966,1.24126984 13.6677966,1.24126984 C13.6677966,1.24126984 13.6135593,1.2952381 13.6135593,1.2952381 C13.4508475,2.37460317 13.2881356,3.4 13.0169492,4.47936508 C12.6915254,6.20634921 12.3118644,7.87936508 11.8779661,9.60634921 C11.3898305,11.8730159 10.7932203,14.1396825 10.0881356,16.352381 C9.54576271,18.0793651 8.94915254,19.968254 8.29830508,21.7492063 C8.02711864,22.5047619 7.64745763,22.8825397 7.7559322,23.2603175 C7.86440678,23.7460317 8.08135593,24.1777778 8.02711864,24.6634921 C8.02711864,24.9873016 8.46101695,25.0952381 8.62372881,24.8793651 C8.89491525,24.7174603 9.05762712,24.5555556 9.27457627,24.3396825 C9.32881356,24.3396825 9.38305085,24.3936508 9.43728814,24.3936508 C9.49152542,24.6634921 9.6,24.9333333 9.6,25.2571429 C9.6,25.5809524 10.0338983,25.6888889 10.1423729,25.4730159 C10.4135593,25.3111111 10.6305085,25.1492063 10.8474576,24.9333333 C10.9016949,24.9333333 10.9559322,24.9873016 11.0101695,24.9873016 C11.0644068,25.2571429 11.1728814,25.5809524 11.1728814,25.8507937 C11.1728814,26.1746032 11.6067797,26.2825397 11.7694915,26.0666667 C12.040678,25.9047619 12.2576271,25.7428571 12.4745763,25.5269841 L12.5830508,25.5809524 C12.6915254,25.8507937 12.7457627,26.1746032 12.7457627,26.4444444 C12.7457627,26.768254 13.179661,26.8761905 13.3423729,26.6603175 C13.6135593,26.4984127 13.8305085,26.3365079 14.0474576,26.1206349 C14.1016949,26.1206349 14.1016949,26.1206349 14.1559322,26.1746032 C14.2644068,26.4444444 14.3186441,26.768254 14.3186441,27.0920635 C14.3186441,27.415873 14.7525424,27.5238095 14.8610169,27.3079365 C15.1322034,27.1460317 15.3491525,26.9301587 15.5661017,26.768254 C15.620339,26.768254 15.6745763,26.8222222 15.7288136,26.8222222 C15.8372881,27.0920635 15.8915254,27.415873 15.8915254,27.7396825 C15.8915254,28.0634921 16.3254237,28.1714286 16.4881356,27.9555556 C16.759322,27.7936508 16.9762712,27.5777778 17.1932203,27.415873 C17.1932203,27.415873 17.2474576,27.415873 17.2474576,27.415873 C17.3559322,27.6857143 17.4101695,28.0095238 17.4101695,28.3333333 C17.4101695,28.6571429 17.8440678,28.7650794 17.9525424,28.5492063 C18.2237288,28.3873016 18.440678,28.1714286 18.6576271,28.0095238 C18.7118644,28.0095238 18.7118644,28.0634921 18.7661017,28.0634921 C18.8745763,28.3333333 18.9288136,28.6571429 18.9288136,28.9809524 C18.9288136,29.3047619 19.3627119,29.4126984 19.5254237,29.1968254 C19.7966102,29.0349206 20.0135593,28.8190476 20.2305085,28.6571429 C20.2305085,28.6571429 20.2847458,28.6571429 20.2847458,28.7111111 C20.3932203,29.0349206 20.4474576,29.3047619 20.4474576,29.6285714 C20.4474576,29.952381 20.8813559,30.0603175 21.0440678,29.8444444 C21.3152542,29.6825397 21.5322034,29.4666667 21.7491525,29.2507937 C21.7491525,29.2507937 21.8033898,29.2507937 21.8033898,29.2507937 C21.9118644,29.5746032 21.9661017,29.8444444 21.9661017,30.168254 C21.9661017,30.4920635 22.4,30.6 22.5084746,30.384127 C22.779661,30.2222222 23.0508475,30.0063492 23.2677966,29.7904762 C23.2677966,29.7904762 23.3220339,29.7904762 23.3220339,29.8444444 C23.4305085,30.168254 23.4847458,30.4920635 23.4847458,30.815873 C23.4847458,31.1396825 23.9186441,31.247619 24.0813559,31.031746 C24.5152542,30.7619048 24.840678,30.384127 25.220339,30.1142857 C25.2745763,30.0603175 25.3288136,30.0063492 25.3288136,29.952381 C25.3288136,29.952381 25.3288136,29.952381 25.3288136,29.952381 C25.5457627,29.3047619 26.359322,26.6603175 26.5220339,26.0666667 C27.9864407,20.2380952 29.4508475,14.4095238 30.9694915,8.52698413 C30.9694915,8.47301587 31.0237288,8.47301587 31.0237288,8.41904762 C31.1322034,7.98730159 31.4033898,7.01587302 31.4576271,6.58412698 C31.1864407,6.36825397 31.1864407,6.26031746 31.1864407,6.26031746" id="Shape" fill="#FFDEC1"></path>
                        <path d="M28.3118644,7.87936508 C28.3118644,7.87936508 28.3118644,7.87936508 28.3118644,7.87936508 C28.2033898,7.39365079 27.9322034,6.96190476 27.9322034,6.47619048 C27.9322034,6.15238095 27.4983051,6.04444444 27.3355932,6.31428571 C27.1728814,6.42222222 27.0101695,6.53015873 26.8474576,6.69206349 C26.7932203,6.47619048 26.7389831,6.26031746 26.7389831,5.99047619 C26.7389831,5.66666667 26.3050847,5.55873016 26.1423729,5.82857143 C25.8711864,5.99047619 25.6542373,6.26031746 25.3830508,6.47619048 C25.2745763,6.15238095 25.1661017,5.82857143 25.1661017,5.45079365 C25.1661017,5.12698413 24.7322034,5.01904762 24.5694915,5.28888889 C24.2983051,5.45079365 24.0813559,5.72063492 23.8101695,5.93650794 C23.7016949,5.61269841 23.5932203,5.28888889 23.5932203,4.96507937 C23.5932203,4.64126984 23.159322,4.53333333 22.9966102,4.8031746 C22.7254237,4.96507937 22.5084746,5.23492063 22.2372881,5.45079365 C22.1288136,5.12698413 22.020339,4.8031746 22.020339,4.47936508 C22.020339,4.15555556 21.5864407,4.04761905 21.4237288,4.31746032 C21.1525424,4.47936508 20.8813559,4.74920635 20.6644068,5.01904762 C20.5559322,4.6952381 20.3932203,4.37142857 20.3932203,3.99365079 C20.3932203,3.66984127 19.959322,3.56190476 19.7966102,3.83174603 C19.5254237,3.99365079 19.3084746,4.26349206 19.0915254,4.47936508 C18.9830508,4.15555556 18.8745763,3.83174603 18.8745763,3.50793651 C18.8745763,3.18412698 18.440678,3.07619048 18.2779661,3.34603175 C18.0067797,3.50793651 17.7898305,3.77777778 17.5186441,3.99365079 C17.4101695,3.66984127 17.3016949,3.34603175 17.3016949,2.96825397 C17.3016949,2.64444444 16.8677966,2.53650794 16.7050847,2.80634921 C16.4338983,2.96825397 16.2169492,3.23809524 15.9457627,3.45396825 C15.8372881,3.13015873 15.7288136,2.80634921 15.7288136,2.48253968 C15.7288136,2.15873016 15.2949153,2.05079365 15.1322034,2.32063492 C14.8610169,2.48253968 14.6440678,2.75238095 14.3728814,2.96825397 C14.2644068,2.64444444 14.1559322,2.32063492 14.1559322,1.9968254 C14.1559322,1.67301587 13.7220339,1.56507937 13.559322,1.83492063 C13.2881356,2.05079365 13.0169492,2.26666667 12.8,2.53650794 C12.6915254,2.21269841 12.5288136,1.88888889 12.5288136,1.51111111 C12.5288136,1.18730159 12.0949153,1.07936508 11.9322034,1.34920635 C11.5525424,1.56507937 11.2813559,1.94285714 10.9559322,2.21269841 C10.9016949,2.21269841 10.9016949,2.26666667 10.9016949,2.26666667 C10.9016949,2.26666667 10.9016949,2.26666667 10.9016949,2.26666667 C10.8474576,2.26666667 10.8474576,2.32063492 10.8474576,2.32063492 C10.8474576,2.32063492 10.7932203,2.37460317 10.7932203,2.37460317 C10.5762712,3.45396825 10.359322,4.47936508 10.0881356,5.5047619 C9.70847458,7.23174603 9.22033898,8.9047619 8.73220339,10.5777778 C8.13559322,12.8444444 7.43050847,15.0571429 6.67118644,17.215873 C6.02033898,18.9428571 5.36949153,20.7777778 4.61016949,22.5047619 C4.28474576,23.2603175 3.90508475,23.584127 4.01355932,23.9619048 C4.1220339,24.447619 4.28474576,24.8793651 4.23050847,25.3650794 C4.23050847,25.6888889 4.66440678,25.7968254 4.77288136,25.5809524 C5.0440678,25.4730159 5.26101695,25.2571429 5.4779661,25.0952381 C5.53220339,25.0952381 5.58644068,25.1492063 5.64067797,25.1492063 C5.69491525,25.4190476 5.74915254,25.6888889 5.74915254,26.0126984 C5.69491525,26.3365079 6.12881356,26.4444444 6.29152542,26.2285714 C6.56271186,26.1206349 6.77966102,25.9047619 6.99661017,25.7428571 C7.05084746,25.7428571 7.10508475,25.7968254 7.10508475,25.7968254 C7.15932203,26.0666667 7.21355932,26.3904762 7.21355932,26.6603175 C7.21355932,26.984127 7.64745763,27.0920635 7.7559322,26.8761905 C8.02711864,26.7142857 8.2440678,26.552381 8.46101695,26.3365079 L8.56949153,26.3904762 C8.62372881,26.6603175 8.73220339,26.984127 8.6779661,27.3079365 C8.6779661,27.631746 9.11186441,27.7396825 9.22033898,27.5238095 C9.49152542,27.3619048 9.70847458,27.2 9.97966102,26.984127 C10.0338983,26.984127 10.0338983,26.984127 10.0881356,27.0380952 C10.1423729,27.3619048 10.2508475,27.631746 10.1966102,27.9555556 C10.1423729,28.2793651 10.5762712,28.3873016 10.7389831,28.1714286 C11.0101695,28.0095238 11.2271186,27.847619 11.4983051,27.631746 C11.5525424,27.631746 11.6067797,27.6857143 11.6610169,27.6857143 C11.7152542,28.0095238 11.8237288,28.2793651 11.7694915,28.6031746 C11.7152542,28.9269841 12.1491525,29.0349206 12.3118644,28.8190476 C12.5830508,28.6571429 12.8,28.4952381 13.0711864,28.2793651 C13.0711864,28.2793651 13.1254237,28.2793651 13.1254237,28.3333333 C13.179661,28.6571429 13.2881356,28.9269841 13.2338983,29.2507937 C13.179661,29.5746032 13.6135593,29.6825397 13.7762712,29.4666667 C14.0474576,29.3047619 14.2644068,29.1428571 14.5355932,28.9269841 C14.5898305,28.9269841 14.5898305,28.9809524 14.6440678,28.9809524 C14.6983051,29.3047619 14.8067797,29.5746032 14.7525424,29.8984127 C14.7525424,30.2222222 15.1864407,30.3301587 15.2949153,30.1142857 C15.5661017,29.952381 15.7830508,29.7904762 16.0542373,29.5746032 C16.0542373,29.5746032 16.1084746,29.5746032 16.1084746,29.6285714 C16.1627119,29.952381 16.2711864,30.2222222 16.2169492,30.5460317 C16.1627119,30.8698413 16.6508475,30.9777778 16.759322,30.7619048 C17.0305085,30.6 17.2474576,30.4380952 17.5186441,30.2222222 C17.5186441,30.2222222 17.5728814,30.2222222 17.5728814,30.2222222 C17.6271186,30.5460317 17.7355932,30.815873 17.6813559,31.1396825 C17.6271186,31.4634921 18.0610169,31.5714286 18.2237288,31.3555556 C18.4949153,31.1936508 18.7661017,30.9777778 18.9830508,30.815873 C18.9830508,30.815873 19.0372881,30.815873 19.0372881,30.8698413 C19.0915254,31.1936508 19.2,31.5174603 19.1457627,31.8412698 C19.0915254,32.1650794 19.5254237,32.2730159 19.6881356,32.0571429 C20.1220339,31.8412698 20.4474576,31.4634921 20.8813559,31.1936508 C20.9355932,31.1396825 20.9898305,31.0857143 20.9898305,31.031746 C20.9898305,31.031746 20.9898305,31.031746 20.9898305,31.031746 C21.2610169,30.384127 22.1830508,27.7936508 22.3457627,27.2 C24.0813559,21.4253968 25.8169492,15.6507937 27.4983051,9.87619048 C27.4983051,9.82222222 27.5525424,9.82222222 27.5525424,9.76825397 C27.6610169,9.33650794 27.9864407,8.41904762 28.040678,7.93333333 C28.3661017,8.04126984 28.3661017,7.93333333 28.3118644,7.87936508" id="Shape" fill="#FF9300"></path>
                        <path d="M25.1661017,10.0380952 C25.1661017,10.0380952 25.1661017,10.0380952 25.1661017,10.0380952 C25.0576271,9.55238095 24.840678,9.06666667 24.8949153,8.63492063 C24.8949153,8.31111111 24.4610169,8.2031746 24.3525424,8.41904762 C24.1898305,8.52698413 24.0271186,8.63492063 23.8644068,8.74285714 C23.8101695,8.52698413 23.7559322,8.31111111 23.7559322,8.04126984 C23.7559322,7.71746032 23.3220339,7.60952381 23.2135593,7.82539683 C22.9423729,7.98730159 22.6711864,8.2031746 22.4,8.41904762 C22.2915254,8.0952381 22.1830508,7.77142857 22.2372881,7.39365079 C22.2372881,7.06984127 21.8033898,6.96190476 21.6949153,7.17777778 C21.4237288,7.33968254 21.1525424,7.55555556 20.9355932,7.77142857 C20.8271186,7.44761905 20.7728814,7.12380952 20.7728814,6.8 C20.7728814,6.47619048 20.3389831,6.36825397 20.2305085,6.58412698 C19.959322,6.74603175 19.6881356,6.96190476 19.4711864,7.17777778 C19.3627119,6.85396825 19.3084746,6.53015873 19.3084746,6.20634921 C19.3084746,5.88253968 18.8745763,5.77460317 18.7661017,5.99047619 C18.440678,6.15238095 18.2237288,6.42222222 17.9525424,6.63809524 C17.8440678,6.31428571 17.7355932,5.93650794 17.7898305,5.61269841 C17.7898305,5.28888889 17.3559322,5.18095238 17.2474576,5.3968254 C16.9762712,5.55873016 16.7050847,5.77460317 16.4881356,5.99047619 C16.379661,5.66666667 16.3254237,5.34285714 16.3254237,5.01904762 C16.3254237,4.6952381 15.8915254,4.58730159 15.7830508,4.8031746 C15.5118644,4.96507937 15.240678,5.18095238 14.9694915,5.3968254 C14.8610169,5.07301587 14.7525424,4.74920635 14.8067797,4.37142857 C14.8067797,4.04761905 14.3728814,3.93968254 14.2644068,4.15555556 C13.9932203,4.31746032 13.7220339,4.53333333 13.5050847,4.74920635 C13.3966102,4.42539683 13.3423729,4.1015873 13.3423729,3.77777778 C13.3423729,3.45396825 12.9084746,3.34603175 12.8,3.56190476 C12.5288136,3.72380952 12.2576271,3.93968254 12.040678,4.15555556 C11.9322034,3.83174603 11.8779661,3.50793651 11.8779661,3.18412698 C11.8779661,2.86031746 11.4440678,2.75238095 11.3355932,2.96825397 C11.0101695,3.13015873 10.7932203,3.4 10.5220339,3.61587302 C10.4135593,3.29206349 10.3050847,2.91428571 10.359322,2.59047619 C10.359322,2.26666667 9.92542373,2.15873016 9.81694915,2.37460317 C9.43728814,2.59047619 9.11186441,2.91428571 8.78644068,3.18412698 C8.73220339,3.18412698 8.73220339,3.23809524 8.6779661,3.23809524 C8.6779661,3.23809524 8.6779661,3.23809524 8.62372881,3.23809524 C8.56949153,3.23809524 8.56949153,3.29206349 8.56949153,3.29206349 C8.56949153,3.29206349 8.51525424,3.34603175 8.51525424,3.34603175 C8.2440678,4.37142857 7.91864407,5.45079365 7.59322034,6.42222222 C7.10508475,8.0952381 6.50847458,9.76825397 5.91186441,11.3873016 C5.15254237,13.6 4.33898305,15.7587302 3.36271186,17.9174603 C2.60338983,19.5904762 1.8440678,21.3714286 0.976271186,23.0984127 C0.596610169,23.8 0.216949153,24.1238095 0.271186441,24.5015873 C0.325423729,24.9873016 0.488135593,25.4730159 0.433898305,25.9047619 C0.379661017,26.2285714 0.813559322,26.3904762 0.976271186,26.1746032 C1.24745763,26.0666667 1.46440678,25.9047619 1.68135593,25.7428571 C1.73559322,25.7428571 1.78983051,25.7968254 1.8440678,25.7968254 C1.89830508,26.0666667 1.95254237,26.3365079 1.89830508,26.6603175 C1.8440678,26.984127 2.2779661,27.1460317 2.44067797,26.9301587 C2.71186441,26.8222222 2.92881356,26.6603175 3.2,26.4984127 C3.25423729,26.4984127 3.30847458,26.552381 3.30847458,26.552381 C3.36271186,26.8222222 3.41694915,27.1460317 3.36271186,27.415873 C3.30847458,27.7396825 3.74237288,27.9015873 3.90508475,27.6857143 C4.17627119,27.5777778 4.44745763,27.415873 4.66440678,27.2 L4.77288136,27.2539683 C4.82711864,27.5777778 4.88135593,27.847619 4.82711864,28.1714286 C4.77288136,28.4952381 5.20677966,28.6571429 5.36949153,28.4412698 C5.64067797,28.3333333 5.91186441,28.1174603 6.12881356,27.9555556 C6.18305085,27.9555556 6.18305085,28.0095238 6.18305085,28.0095238 C6.23728814,28.3333333 6.29152542,28.6031746 6.23728814,28.9269841 C6.18305085,29.2507937 6.61694915,29.4126984 6.77966102,29.1968254 C7.05084746,29.0888889 7.3220339,28.8730159 7.53898305,28.7111111 C7.59322034,28.7111111 7.64745763,28.7650794 7.64745763,28.7650794 C7.70169492,29.0888889 7.7559322,29.3587302 7.70169492,29.6825397 C7.64745763,30.0063492 8.08135593,30.168254 8.2440678,29.952381 C8.51525424,29.8444444 8.78644068,29.6285714 9.00338983,29.4666667 C9.00338983,29.4666667 9.05762712,29.4666667 9.05762712,29.5206349 C9.11186441,29.8444444 9.16610169,30.1142857 9.11186441,30.4380952 C9.05762712,30.7619048 9.49152542,30.9238095 9.65423729,30.7079365 C9.92542373,30.6 10.1966102,30.384127 10.4135593,30.2222222 C10.4677966,30.2222222 10.4677966,30.2761905 10.5220339,30.2761905 C10.5762712,30.6 10.6305085,30.8698413 10.5762712,31.1936508 C10.5220339,31.5174603 10.9559322,31.6793651 11.1186441,31.4634921 C11.3898305,31.3555556 11.6610169,31.1396825 11.8779661,30.9777778 C11.8779661,30.9777778 11.9322034,30.9777778 11.9322034,31.031746 C11.9864407,31.3555556 12.040678,31.6253968 11.9864407,31.9492063 C11.9322034,32.2730159 12.3661017,32.4349206 12.5288136,32.2190476 C12.8,32.1111111 13.0711864,31.8952381 13.3423729,31.7333333 C13.3423729,31.7333333 13.3966102,31.7333333 13.3966102,31.7333333 C13.4508475,32.0571429 13.5050847,32.3809524 13.4508475,32.6507937 C13.3966102,32.9746032 13.8305085,33.1365079 13.9932203,32.9206349 C14.3186441,32.8126984 14.5355932,32.5968254 14.8067797,32.4349206 C14.8067797,32.4349206 14.8610169,32.4349206 14.8610169,32.4888889 C14.9152542,32.8126984 14.9694915,33.1365079 14.9152542,33.4603175 C14.8610169,33.784127 15.2949153,33.9460317 15.4576271,33.7301587 C15.8915254,33.5142857 16.2711864,33.1904762 16.7050847,32.9206349 C16.759322,32.8666667 16.8135593,32.8126984 16.8135593,32.8126984 C16.8135593,32.8126984 16.8135593,32.8126984 16.8135593,32.8126984 C17.1389831,32.2190476 18.2237288,29.6285714 18.440678,29.0888889 C20.5559322,23.4222222 22.6711864,17.8095238 24.7864407,12.1428571 C24.7864407,12.0888889 24.840678,12.0888889 24.840678,12.0349206 C25.0033898,11.6031746 25.3830508,10.6857143 25.4372881,10.2539683 C25.1661017,10.1460317 25.1661017,10.0920635 25.1661017,10.0380952" id="Shape" fill="#FFDEC1"></path>
                        <path d="M9.43728814,9.12063492 C12.8542373,10.631746 13.2338983,10.7396825 16.6508475,12.1968254 C17.4101695,12.5206349 17.8983051,11.3873016 17.1389831,11.0634921 C13.7220339,9.60634921 13.3423729,9.44444444 9.92542373,7.98730159 C9.22033898,7.66349206 8.73220339,8.7968254 9.43728814,9.12063492" id="Shape" fill="#FF9300"></path>
                        <path d="M7.70169492,13.7079365 C11.0644068,15.2730159 11.4440678,15.3809524 14.8610169,16.9460317 C15.5661017,17.2698413 16.1084746,16.1365079 15.4033898,15.8126984 C11.9864407,14.247619 11.6610169,14.1396825 8.2440678,12.5746032 C7.48474576,12.2507937 6.94237288,13.384127 7.70169492,13.7079365" id="Shape" fill="#FF9300"></path>
                        <path d="M5.91186441,18.2952381 C9.27457627,19.9142857 9.65423729,20.0761905 13.0169492,21.6412698 C13.7220339,21.9650794 14.2644068,20.8857143 13.559322,20.5079365 C10.1966102,18.8888889 9.81694915,18.7809524 6.45423729,17.1619048 C5.69491525,16.8380952 5.20677966,17.9174603 5.91186441,18.2952381" id="Shape" fill="#FF9300"></path>
                        <path d="M4.1220339,22.8285714 C7.43050847,24.5015873 7.81016949,24.6634921 11.1728814,26.3365079 C11.8779661,26.7142857 12.4745763,25.5809524 11.7152542,25.2571429 C8.35254237,23.584127 8.02711864,23.4222222 4.66440678,21.7492063 C3.95932203,21.3714286 3.41694915,22.5047619 4.1220339,22.8285714" id="Shape" fill="#FF9300"></path>
                        <path d="M19.4169492,13.384127 C19.959322,13.6 20.0677966,13.7079365 20.4474576,13.8698413 C21.2067797,14.1936508 21.6949153,13.0603175 20.9355932,12.7365079 C20.4474576,12.5206349 20.3932203,12.5206349 19.9050847,12.2507937 C19.1457627,11.9269841 18.6576271,13.0603175 19.4169492,13.384127" id="Shape" fill="#FF9300"></path>
                        <path d="M17.6813559,18.1333333 C18.2237288,18.3492063 18.3322034,18.4571429 18.7118644,18.6190476 C19.4169492,18.9428571 19.959322,17.8095238 19.2542373,17.4857143 C18.7661017,17.2698413 18.7118644,17.2698413 18.2237288,17 C17.4644068,16.6761905 16.9220339,17.8095238 17.6813559,18.1333333" id="Shape" fill="#FF9300"></path>
                        <path d="M15.9457627,22.8825397 C16.4881356,23.152381 16.5966102,23.2063492 16.9762712,23.368254 C17.6813559,23.6920635 18.2237288,22.6126984 17.5186441,22.2349206 C17.0305085,22.0190476 16.9762712,22.0190476 16.4881356,21.7492063 C15.7830508,21.4253968 15.240678,22.5587302 15.9457627,22.8825397" id="Shape" fill="#FF9300"></path>
                        <path d="M14.2101695,27.631746 C14.6983051,27.9015873 14.8610169,27.9555556 15.240678,28.1714286 C15.9457627,28.4952381 16.4881356,27.415873 15.7830508,27.0380952 C15.2949153,26.8222222 15.240678,26.768254 14.7525424,26.552381 C14.0474576,26.1746032 13.5050847,27.3079365 14.2101695,27.631746" id="Shape" fill="#FF9300"></path>
                    </g>
                </g>
                <g id="b_x5F_recipes" transform="translate(0.000000, 100.000000)">
                    <path d="M33.7258065,26.0181818 C32.5741935,23.8363636 31.7516129,21.3818182 30.8741935,19.1454545 C29.9419355,16.6363636 29.1193548,14.0727273 28.4064516,11.5090909 C27.8032258,9.6 27.2,7.69090909 26.7612903,5.72727273 C26.4322581,4.52727273 26.1580645,3.32727273 25.883871,2.12727273 C25.7741935,1.96363636 25.6096774,1.8 25.3903226,1.74545455 C25.2258065,1.69090909 25.116129,1.74545455 24.9516129,1.74545455 C24.9516129,1.74545455 24.8967742,1.74545455 24.8967742,1.74545455 C24.8419355,1.74545455 24.7870968,1.8 24.7322581,1.8 C24.6774194,1.85454545 24.5677419,1.85454545 24.5129032,1.85454545 C24.5129032,1.85454545 24.4580645,1.90909091 24.4580645,1.90909091 C24.183871,2.01818182 23.9096774,2.12727273 23.6354839,2.23636364 C23.5806452,1.90909091 23.4709677,1.58181818 23.416129,1.25454545 C23.3064516,1.09090909 23.1419355,0.927272727 22.9225806,0.872727273 C22.7580645,0.818181818 22.6483871,0.872727273 22.483871,0.872727273 C22.483871,0.872727273 22.4290323,0.872727273 22.4290323,0.872727273 C22.3741935,0.872727273 22.3193548,0.927272727 22.2645161,0.927272727 C22.2096774,0.981818182 22.1,0.981818182 22.0451613,0.981818182 C22.0451613,0.981818182 21.9903226,1.03636364 21.9903226,1.03636364 C21.5516129,1.2 21.0032258,1.41818182 20.3451613,1.63636364 C20.2354839,1.25454545 20.1806452,0.872727273 20.1258065,0.490909091 C20.016129,0.327272727 19.8516129,0.163636364 19.6322581,0.109090909 C19.4677419,0.0545454545 19.3580645,0.109090909 19.1935484,0.109090909 C19.1935484,0.109090909 19.1387097,0.109090909 19.1387097,0.109090909 C19.083871,0.109090909 19.0290323,0.163636364 18.9741935,0.163636364 C18.9193548,0.218181818 18.8096774,0.218181818 18.7548387,0.218181818 C18.7548387,0.218181818 18.7,0.272727273 18.7,0.272727273 C14.8612903,1.85454545 5.31935484,4.74545455 1.26129032,6.38181818 C1.04193548,6.49090909 0.822580645,6.54545455 0.658064516,6.76363636 C0.438709677,6.98181818 0.274193548,7.36363636 0.329032258,7.90909091 C0.383870968,8.45454545 0.548387097,8.94545455 0.712903226,9.43636364 C0.712903226,9.49090909 0.767741935,9.54545455 0.767741935,9.54545455 C3.01612903,16.8545455 5.31935484,24.1090909 7.56774194,31.3636364 C7.56774194,31.4181818 7.62258065,31.4727273 7.62258065,31.5272727 L7.62258065,31.5272727 C7.67741935,31.6909091 7.73225806,31.9090909 7.78709677,32.0727273 C7.9516129,32.5636364 8.11612903,33 8.33548387,33.3272727 C8.39032258,33.4363636 8.5,33.6 8.55483871,33.7090909 C8.99354839,34.2 9.59677419,34.0909091 10.0903226,33.8727273 C10.4193548,33.7090909 10.8580645,33.5454545 11.2967742,33.3818182 C11.4064516,33.6545455 11.516129,33.8727273 11.6258065,34.0363636 C11.6806452,34.1454545 11.7903226,34.3090909 11.8451613,34.4181818 C12.283871,34.9090909 12.8870968,34.8 13.3806452,34.5818182 C13.5451613,34.5272727 13.6548387,34.4727273 13.8193548,34.4181818 C13.8741935,34.5818182 13.983871,34.7454545 14.0935484,34.9090909 C14.1483871,35.0181818 14.2580645,35.1818182 14.3129032,35.2909091 C14.7516129,35.7818182 15.3548387,35.6727273 15.8483871,35.4545455 C19.7967742,33.8181818 28.7354839,29.6727273 32.6290323,28.0363636 C33.0129032,27.9272727 33.4516129,27.7090909 33.6709677,27.1636364 C33.8354839,26.8909091 33.8354839,26.4545455 33.7258065,26.0181818 Z" id="Shape" stroke="#FFFFFF" stroke-width="6"></path>
                    <g id="Group" fill-rule="nonzero">
                        <path d="M25.1709677,17.6727273 C24.2387097,15.1636364 23.416129,12.6 22.7032258,10.0363636 C22.1,8.12727273 21.4967742,6.21818182 21.0580645,4.25454545 C20.7290323,3.05454545 20.4548387,1.85454545 20.1806452,0.654545455 C20.0709677,0.490909091 19.9064516,0.327272727 19.6870968,0.272727273 C19.5225806,0.218181818 19.4129032,0.272727273 19.2483871,0.272727273 C19.2483871,0.272727273 19.1935484,0.272727273 19.1935484,0.272727273 C19.1387097,0.272727273 19.083871,0.327272727 19.0290323,0.327272727 C18.9741935,0.381818182 18.8645161,0.381818182 18.8096774,0.381818182 C18.8096774,0.381818182 18.7548387,0.436363636 18.7548387,0.436363636 C14.916129,2.01818182 5.37419355,4.90909091 1.31612903,6.54545455 C1.09677419,6.65454545 0.877419355,6.70909091 0.712903226,6.92727273 C0.493548387,7.14545455 0.329032258,7.52727273 0.383870968,8.07272727 C0.438709677,8.61818182 0.603225806,9.10909091 0.767741935,9.6 C0.767741935,9.65454545 0.822580645,9.70909091 0.822580645,9.70909091 C3.07096774,17.0181818 5.37419355,24.2727273 7.62258065,31.5272727 C7.62258065,31.5818182 7.67741935,31.6363636 7.67741935,31.6909091 L7.67741935,31.6909091 C7.73225806,31.8545455 7.78709677,32.0727273 7.84193548,32.2363636 C8.00645161,32.7272727 8.17096774,33.1636364 8.39032258,33.4909091 C8.44516129,33.6 8.55483871,33.7636364 8.60967742,33.8727273 C9.0483871,34.3636364 9.6516129,34.2545455 10.1451613,34.0363636 C14.0935484,32.4 23.0322581,28.2545455 26.9258065,26.6181818 C27.3096774,26.5090909 27.7483871,26.2909091 27.9677419,25.7454545 C28.0774194,25.3636364 28.0774194,24.9272727 27.9677419,24.4909091 C26.816129,22.3090909 25.9935484,19.9090909 25.1709677,17.6727273" id="Shape" fill="#BBD9FD"></path>
                        <path d="M28.4612903,18.3272727 C27.5290323,15.8181818 26.7064516,13.2545455 25.9935484,10.6909091 C25.3903226,8.78181818 24.7870968,6.87272727 24.3483871,4.90909091 C24.0193548,3.70909091 23.7451613,2.50909091 23.4709677,1.30909091 C23.3612903,1.14545455 23.1967742,0.981818182 22.9774194,0.927272727 C22.8129032,0.872727273 22.7032258,0.927272727 22.5387097,0.927272727 C22.5387097,0.927272727 22.483871,0.927272727 22.483871,0.927272727 C22.4290323,0.927272727 22.3741935,0.981818182 22.3193548,0.981818182 C22.2645161,1.03636364 22.1548387,1.03636364 22.1,1.03636364 C22.1,1.03636364 22.0451613,1.09090909 22.0451613,1.09090909 C18.2064516,2.67272727 8.66451613,5.56363636 4.60645161,7.2 C4.38709677,7.30909091 4.16774194,7.36363636 4.00322581,7.58181818 C3.78387097,7.8 3.61935484,8.18181818 3.67419355,8.72727273 C3.72903226,9.27272727 3.89354839,9.76363636 4.05806452,10.2545455 C4.05806452,10.3090909 4.11290323,10.3636364 4.11290323,10.3636364 C6.36129032,17.6727273 8.66451613,24.9272727 10.9129032,32.1818182 C10.9129032,32.2363636 10.9677419,32.2909091 10.9677419,32.3454545 L10.9677419,32.3454545 C11.0225806,32.5090909 11.0774194,32.7272727 11.1322581,32.8909091 C11.2967742,33.3818182 11.4612903,33.8181818 11.6806452,34.1454545 C11.7354839,34.2545455 11.8451613,34.4181818 11.9,34.5272727 C12.3387097,35.0181818 12.9419355,34.9090909 13.4354839,34.6909091 C17.383871,33.0545455 26.3225806,28.9090909 30.216129,27.2727273 C30.6,27.1636364 31.0387097,26.9454545 31.2580645,26.4 C31.3677419,26.0181818 31.3677419,25.5818182 31.2580645,25.1454545 C30.1064516,23.0181818 29.283871,20.5636364 28.4612903,18.3272727" id="Shape" fill="#3281EE"></path>
                        <path d="M30.9290323,19.1454545 C29.9967742,16.6363636 29.1741935,14.0727273 28.4612903,11.5090909 C27.8580645,9.6 27.2548387,7.69090909 26.816129,5.72727273 C26.4870968,4.52727273 26.2129032,3.32727273 25.9387097,2.12727273 C25.8290323,1.96363636 25.6645161,1.8 25.4451613,1.74545455 C25.2806452,1.69090909 25.1709677,1.74545455 25.0064516,1.74545455 C25.0064516,1.74545455 24.9516129,1.74545455 24.9516129,1.74545455 C24.8967742,1.74545455 24.8419355,1.8 24.7870968,1.8 C24.7322581,1.85454545 24.6225806,1.85454545 24.5677419,1.85454545 C24.5677419,1.85454545 24.5129032,1.90909091 24.5129032,1.90909091 C20.6741935,3.49090909 11.1322581,6.38181818 7.07419355,8.01818182 C6.85483871,8.12727273 6.63548387,8.18181818 6.47096774,8.4 C6.2516129,8.61818182 6.08709677,9 6.14193548,9.54545455 C6.19677419,10.0909091 6.36129032,10.5818182 6.52580645,11.0727273 C6.52580645,11.1272727 6.58064516,11.1818182 6.58064516,11.1818182 C8.82903226,18.4909091 11.1322581,25.7454545 13.3806452,33 C13.3806452,33.0545455 13.4354839,33.1090909 13.4354839,33.1636364 L13.4354839,33.1636364 C13.4903226,33.3272727 13.5451613,33.5454545 13.6,33.7090909 C13.7645161,34.2 13.9290323,34.6363636 14.1483871,34.9636364 C14.2032258,35.0727273 14.3129032,35.2363636 14.3677419,35.3454545 C14.8064516,35.8363636 15.4096774,35.7272727 15.9032258,35.5090909 C19.8516129,33.8727273 28.7903226,29.7272727 32.683871,28.0909091 C33.0677419,27.9818182 33.5064516,27.7636364 33.7258065,27.2181818 C33.8354839,26.8363636 33.8354839,26.4 33.7258065,25.9636364 C32.5741935,23.8363636 31.7516129,21.3818182 30.9290323,19.1454545" id="Shape" fill="#BBD9FD"></path>
                        <path d="M19.1387097,14.8363636 C17.1096774,15.7636364 14.916129,16.5272727 12.8870968,17.3454545 C12.0645161,17.6727273 12.6129032,18.9818182 13.4354839,18.6545455 C15.5193548,17.7818182 17.6580645,17.0727273 19.6870968,16.1454545 C20.5645161,15.7090909 20.016129,14.4 19.1387097,14.8363636" id="Shape" fill="#3281EE"></path>
                        <path d="M22.8129032,20.0181818 C19.9064516,21.0545455 18.9741935,21.2727273 14.0935484,23.3454545 C13.2709677,23.7272727 13.7645161,24.9818182 14.6419355,24.6545455 C19.7967742,22.5818182 20.4548387,22.3636364 23.3612903,21.3272727 C24.2387097,21 23.6903226,19.6909091 22.8129032,20.0181818" id="Shape" fill="#3281EE"></path>
                        <path d="M23.3612903,25.8545455 C19.9064516,27.2181818 19.1935484,27.5454545 16.3967742,28.7454545 C15.5741935,29.1272727 16.1225806,30.3818182 16.9451613,30.0545455 C22.1,27.9272727 20.5645161,28.5272727 23.9096774,27.1636364 C24.7322581,26.7818182 24.183871,25.4727273 23.3612903,25.8545455" id="Shape" fill="#3281EE"></path>
                        <path d="M18.0967742,12.1636364 C15.1903226,13.2545455 17.0548387,12.4363636 12.1741935,14.6181818 C11.3516129,15 11.9,16.2545455 12.7225806,15.9272727 C17.8774194,13.8 15.7387097,14.5636364 18.6451613,13.4727273 C19.5225806,13.1454545 18.9741935,11.8363636 18.0967742,12.1636364" id="Shape" fill="#3281EE"></path>
                        <path d="M23.1967742,7.14545455 C19.1935484,8.72727273 15.2451613,10.3636364 11.2967742,12 C10.4193548,12.3272727 10.9677419,13.6909091 11.8451613,13.3090909 C15.7935484,11.6727273 19.7967742,10.0909091 23.7451613,8.45454545 C24.5677419,8.12727273 24.0193548,6.81818182 23.1967742,7.14545455" id="Shape" fill="#3281EE"></path>
                        <path d="M27.3096774,20.9454545 C23.3064516,22.5272727 19.3580645,24.1636364 15.4096774,25.8 C14.5322581,26.1272727 15.0806452,27.4363636 15.9580645,27.1090909 C19.9064516,25.4727273 23.9096774,23.8909091 27.8580645,22.2545455 C28.7354839,21.9272727 28.1870968,20.6181818 27.3096774,20.9454545" id="Shape" fill="#3281EE"></path>
                    </g>
                </g>
            </g>
        </g>
    </g>
</svg>