<?xml version="1.0" encoding="utf-8"?>
<!-- Generator: Adobe Illustrator 17.1.0, SVG Export Plug-In . SVG Version: 6.00 Build 0)  -->
<!DOCTYPE svg PUBLIC "-//W3C//DTD SVG 1.1//EN" "http://www.w3.org/Graphics/SVG/1.1/DTD/svg11.dtd">
<svg version="1.1" id="Calque_1" xmlns="http://www.w3.org/2000/svg" xmlns:xlink="http://www.w3.org/1999/xlink" x="0px" y="0px"
	 viewBox="0 0 960 560" enable-background="new 0 0 960 560" xml:space="preserve">
<g>
	<defs>
		<rect id="SVGID_1_" x="146.6" y="21.4" width="666.7" height="516.7"/>
	</defs>
	<clipPath id="SVGID_2_">
		<use xlink:href="#SVGID_1_"  overflow="visible"/>
	</clipPath>
	<path clip-path="url(#SVGID_2_)" fill="#1F2B50" d="M420.8,405.5v44.3c-1-1.4-2-2.8-2.8-4.3v-40c0-0.3,0-0.6,0-0.9
		c-1.4-43-36.2-77.9-79.4-77.9c-43.6,0-79.4,35.4-79.4,79c0,41.7,32.5,76,73.5,78.8c0,0,0.1,0,0.2,0c1.8,0.1,3.6,0.2,5.6,0.2v2.8
		c-2,0-3.8-0.1-5.6-0.2c0,0-0.1,0-0.1,0c-42.5-2.9-76.3-38.4-76.3-81.6c0-45.1,37.1-81.8,82.2-81.8c43.3,0,79.4,33.9,82.1,76.5
		C420.7,402.1,420.8,403.8,420.8,405.5"/>
	<path clip-path="url(#SVGID_2_)" fill="#1F2B50" d="M338.2,491.8c3.1,0,5.7-2.6,5.7-5.7c0-3.1-2.6-5.7-5.7-5.7
		c-3.1,0-5.7,2.5-5.7,5.7C332.5,489.2,335.1,491.8,338.2,491.8"/>
	<path clip-path="url(#SVGID_2_)" fill="#146CB0" d="M350.7,486.1c0,8.2-2.6,15.9-7,22.1c-1.3,1.8-2.7,3.6-4.3,5.1
		c-2.5,2.5-5.3,4.6-8.4,6.3c-1.2,0.7-2.4,1.2-3.6,1.8c-4.6,2-9.8,3.1-15.1,3.1c-4,0-7.8-0.6-11.4-1.7c-1.2-0.4-2.4-0.8-3.6-1.3
		c-3.7-1.6-7.2-3.7-10.2-6.4c-0.9-0.8-1.8-1.6-2.6-2.5c-1.1-1.2-2.1-2.4-3.1-3.7c-0.9-1.3-1.8-2.6-2.6-4c-3.2-5.6-5-12.1-5-18.9
		c0-3.2,0.4-6.4,1.2-9.4c0.2-1,0.5-1.9,0.8-2.9c0.8-2.3,1.8-4.5,3-6.6c0.7-1.3,1.6-2.6,2.5-3.8c1-1.4,2.1-2.7,3.3-3.9
		c0.8-0.9,1.7-1.7,2.6-2.5c6.7-5.9,15.6-9.4,25.2-9.4c10.6,0,20.2,4.3,27.2,11.2c1.6,1.6,3,3.3,4.3,5.1c0.1,0.2,0.2,0.4,0.4,0.5
		c0.6,0.9,1.1,1.7,1.6,2.6C348.9,472.7,350.7,479.2,350.7,486.1"/>
	<path clip-path="url(#SVGID_2_)" fill="#1F2B50" d="M442.6,394c-0.4,0-0.7-0.3-0.7-0.7c-0.1-0.6-0.1-1.2-0.2-1.7
		c0-0.4,0.3-0.8,0.7-0.8c0.4,0,0.8,0.3,0.8,0.7c0.1,0.6,0.1,1.2,0.2,1.7C443.4,393.6,443.1,394,442.6,394
		C442.7,394,442.7,394,442.6,394"/>
	<path clip-path="url(#SVGID_2_)" fill="#1F2B50" d="M442.2,388.8c-0.4,0-0.7-0.3-0.8-0.7c-0.1-1.1-0.1-2.3-0.2-3.5
		c0-0.4,0.3-0.8,0.7-0.8c0.4,0,0.8,0.3,0.8,0.7c0.1,1.2,0.1,2.3,0.2,3.4C442.9,388.4,442.6,388.8,442.2,388.8
		C442.2,388.8,442.2,388.8,442.2,388.8 M441.9,381.9c-0.4,0-0.7-0.3-0.8-0.7c0-1.1,0-2.2,0-3.5c0-0.4,0.3-0.8,0.7-0.8h0
		c0.4,0,0.8,0.3,0.8,0.8c0,1.2,0,2.4,0,3.5C442.6,381.6,442.3,381.9,441.9,381.9L441.9,381.9 M441.8,375L441.8,375
		c-0.4,0-0.8-0.3-0.8-0.8c0-1.2,0-2.4,0-3.5c0-0.4,0.3-0.8,0.8-0.8h0c0.4,0,0.8,0.3,0.7,0.8c0,1,0,2.2,0,3.5
		C442.6,374.7,442.2,375,441.8,375 M441.8,368.1L441.8,368.1c-0.4,0-0.8-0.3-0.8-0.8c0-1.4,0-2.5,0-3.5c0-0.4,0.3-0.8,0.8-0.8
		c0.4,0,0.8,0.3,0.8,0.8c0,1,0,2.1,0,3.5C442.6,367.7,442.3,368.1,441.8,368.1 M441.9,361.1c-0.4,0-0.8-0.3-0.8-0.7
		c0-1.2,0-2.4-0.1-3.5c0-0.4,0.3-0.8,0.7-0.8c0.4,0,0.8,0.3,0.8,0.7c0,1.1,0,2.2,0.1,3.5C442.6,360.8,442.3,361.1,441.9,361.1
		L441.9,361.1z M441.7,354.2c-0.4,0-0.7-0.3-0.8-0.7c-0.1-1.2-0.1-2.3-0.2-3.4c0-0.4,0.3-0.8,0.7-0.8c0.4,0,0.8,0.3,0.8,0.7
		c0.1,1.1,0.2,2.3,0.2,3.5C442.4,353.8,442.1,354.2,441.7,354.2C441.7,354.2,441.7,354.2,441.7,354.2 M441.2,347.3
		c-0.4,0-0.7-0.3-0.8-0.7c-0.1-0.6-0.1-1.2-0.2-1.8c-0.1-0.5-0.1-1.1-0.2-1.6c0-0.4,0.3-0.8,0.7-0.8c0.4,0,0.8,0.3,0.8,0.7
		c0.1,0.6,0.1,1.1,0.2,1.6c0.1,0.6,0.1,1.3,0.2,1.8C442,346.9,441.7,347.3,441.2,347.3C441.2,347.3,441.2,347.3,441.2,347.3
		 M440.5,340.4c-0.4,0-0.7-0.3-0.8-0.7c-0.1-1.3-0.2-2.4-0.2-3.5c0-0.4,0.3-0.8,0.7-0.8c0.4,0,0.8,0.3,0.8,0.7
		c0,1.1,0.1,2.2,0.2,3.4C441.2,340,440.9,340.4,440.5,340.4C440.5,340.4,440.5,340.4,440.5,340.4 M440.2,333.5L440.2,333.5
		c-0.4,0-0.8-0.4-0.8-0.8c0-1.3,0.1-2.4,0.2-3.5c0-0.4,0.4-0.7,0.8-0.7c0.4,0,0.7,0.4,0.7,0.8c-0.1,1-0.2,2.2-0.2,3.4
		C440.9,333.2,440.6,333.5,440.2,333.5 M441,326.6c-0.1,0-0.1,0-0.2,0c-0.4-0.1-0.6-0.5-0.5-0.9c0.3-1.3,0.8-2.4,1.4-3.4
		c0.2-0.4,0.7-0.5,1-0.3c0.4,0.2,0.5,0.7,0.3,1c-0.5,0.9-0.9,1.9-1.2,3C441.7,326.4,441.4,326.6,441,326.6 M444.4,320.7
		c-0.2,0-0.4-0.1-0.5-0.2c-0.3-0.3-0.3-0.8,0-1.1c0.9-0.8,1.8-1.5,3-2.1c0.4-0.2,0.8,0,1,0.3c0.2,0.4,0,0.8-0.3,1
		c-1,0.5-1.9,1.1-2.7,1.9C444.8,320.6,444.6,320.7,444.4,320.7 M450.5,317.4c-0.3,0-0.6-0.2-0.7-0.5c-0.1-0.4,0.1-0.8,0.5-1
		c0.5-0.2,1-0.3,1.5-0.5c0.6-0.2,1.2-0.4,1.8-0.6c0.4-0.1,0.8,0.1,1,0.5c0.1,0.4-0.1,0.8-0.5,1c-0.6,0.2-1.2,0.4-1.8,0.6
		c-0.5,0.2-1,0.3-1.5,0.5C450.6,317.4,450.5,317.4,450.5,317.4 M456.9,315c-0.3,0-0.5-0.1-0.7-0.4c-0.2-0.4-0.1-0.8,0.3-1
		c0.8-0.4,1.6-0.9,2.2-1.5c0.2-0.1,0.3-0.3,0.5-0.4c0.3-0.3,0.8-0.3,1.1,0.1c0.3,0.3,0.3,0.8-0.1,1.1c-0.2,0.1-0.3,0.3-0.5,0.4
		c-0.7,0.6-1.6,1.2-2.5,1.6C457.2,315,457.1,315,456.9,315 M462,310.4c-0.1,0-0.3,0-0.4-0.1c-0.3-0.2-0.4-0.7-0.2-1
		c0.6-0.9,1.1-1.9,1.5-2.9c0.1-0.4,0.6-0.6,1-0.5c0.4,0.1,0.6,0.6,0.5,1c-0.4,1.2-1,2.3-1.6,3.3C462.5,310.3,462.3,310.4,462,310.4
		 M464.3,304C464.3,304,464.3,304,464.3,304c-0.5-0.1-0.8-0.4-0.8-0.8c0.1-0.8,0.2-1.7,0.2-2.6c0-0.2,0-0.5,0-0.7
		c0-0.4,0.3-0.8,0.7-0.8c0.4,0,0.8,0.3,0.8,0.7c0,0.3,0,0.5,0,0.7c0,1-0.1,1.9-0.2,2.8C465,303.7,464.7,304,464.3,304 M464.2,297.1
		c-0.4,0-0.7-0.3-0.7-0.7c-0.1-1-0.3-2.1-0.5-3.4c-0.1-0.4,0.2-0.8,0.6-0.9c0.4-0.1,0.8,0.2,0.9,0.6c0.2,1.3,0.4,2.4,0.5,3.5
		C465,296.6,464.7,297,464.2,297.1C464.3,297,464.3,297.1,464.2,297.1"/>
	<path clip-path="url(#SVGID_2_)" fill="#1F2B50" d="M463.1,290.2c-0.4,0-0.7-0.3-0.7-0.6c-0.1-0.5-0.2-1.1-0.3-1.7
		c-0.1-0.4,0.2-0.8,0.6-0.9c0.4-0.1,0.8,0.2,0.9,0.6c0.1,0.6,0.2,1.2,0.3,1.7c0.1,0.4-0.2,0.8-0.6,0.9
		C463.2,290.2,463.1,290.2,463.1,290.2"/>
	<path clip-path="url(#SVGID_2_)" fill="#1F2B50" d="M462.2,283.5c1,1.9,2.7,4.2,4.2,5.5l-3.5-0.7l-3.2,1.7
		C460.8,288.2,461.7,285.6,462.2,283.5"/>
	<path clip-path="url(#SVGID_2_)" fill="#1F2B50" d="M424.5,413.8c-0.1,0-0.1,0-0.2,0c-0.4-0.1-0.6-0.5-0.5-0.9
		c0.3-1.1,0.6-2.2,0.8-3.3c0.1-0.4,0.5-0.7,0.9-0.6c0.4,0.1,0.7,0.5,0.6,0.9c-0.2,1.2-0.5,2.4-0.8,3.5
		C425.2,413.6,424.9,413.8,424.5,413.8 M425.6,407L425.6,407c-0.4,0-0.8-0.4-0.8-0.8c0-0.2,0-0.4,0-0.6c0-0.9-0.1-1.9-0.1-2.8
		c0-0.4,0.3-0.8,0.7-0.8c0.4,0,0.8,0.3,0.8,0.7c0.1,1,0.2,2,0.2,3c0,0.2,0,0.4,0,0.6C426.4,406.6,426,407,425.6,407 M424.9,400
		c-0.3,0-0.7-0.2-0.7-0.6c-0.2-1.1-0.6-2.2-0.9-3.3c-0.1-0.4,0.1-0.8,0.5-1c0.4-0.1,0.8,0.1,1,0.5c0.4,1.1,0.7,2.3,1,3.4
		c0.1,0.4-0.2,0.8-0.6,0.9C425,400,425,400,424.9,400 M422.7,393.4c-0.3,0-0.6-0.2-0.7-0.4c-0.5-1-1-2-1.6-3c-0.2-0.4-0.1-0.8,0.3-1
		c0.4-0.2,0.8-0.1,1,0.3c0.6,1,1.2,2.1,1.7,3.1c0.2,0.4,0,0.8-0.4,1C422.9,393.4,422.8,393.4,422.7,393.4 M419.1,387.5
		c-0.2,0-0.5-0.1-0.6-0.3c-0.4-0.5-0.7-0.9-1.1-1.4c-0.4-0.4-0.7-0.8-1.1-1.3c-0.3-0.3-0.3-0.8,0-1.1c0.3-0.3,0.8-0.3,1.1,0
		c0.4,0.4,0.8,0.9,1.1,1.3c0.4,0.5,0.8,0.9,1.1,1.4c0.3,0.3,0.2,0.8-0.2,1.1C419.4,387.4,419.2,387.5,419.1,387.5 M414.4,382.3
		c-0.2,0-0.4-0.1-0.5-0.2c-0.8-0.8-1.7-1.5-2.6-2.2c-0.3-0.3-0.4-0.7-0.1-1.1c0.3-0.3,0.7-0.4,1.1-0.1c0.9,0.7,1.9,1.5,2.7,2.3
		c0.3,0.3,0.3,0.8,0.1,1.1C414.8,382.2,414.6,382.3,414.4,382.3 M408.8,378.1c-0.1,0-0.3,0-0.4-0.1c-0.9-0.6-1.9-1.2-2.9-1.8
		c-0.4-0.2-0.5-0.7-0.3-1c0.2-0.4,0.7-0.5,1-0.3c1,0.6,2.1,1.2,3,1.8c0.4,0.2,0.4,0.7,0.2,1C409.3,378,409.1,378.1,408.8,378.1
		 M402.7,374.7c-0.1,0-0.2,0-0.3-0.1c-1-0.5-2.1-0.9-3.2-1.4c-0.4-0.2-0.6-0.6-0.4-1c0.2-0.4,0.6-0.6,1-0.4c1.1,0.4,2.2,0.9,3.2,1.4
		c0.4,0.2,0.5,0.6,0.4,1C403.3,374.6,403,374.7,402.7,374.7 M396.2,372.2c-0.1,0-0.2,0-0.2,0c-1.1-0.4-2.2-0.7-3.3-1
		c-0.4-0.1-0.6-0.5-0.5-0.9c0.1-0.4,0.5-0.6,0.9-0.5c1.1,0.3,2.3,0.6,3.4,1c0.4,0.1,0.6,0.6,0.5,1
		C396.9,372,396.6,372.2,396.2,372.2 M389.5,370.4c-0.1,0-0.1,0-0.2,0c-1.1-0.2-2.2-0.5-3.4-0.7c-0.4-0.1-0.7-0.5-0.6-0.9
		c0.1-0.4,0.5-0.7,0.9-0.6c1.2,0.2,2.3,0.4,3.5,0.7c0.4,0.1,0.7,0.5,0.6,0.9C390.2,370.1,389.9,370.4,389.5,370.4 M382.6,369.2
		c0,0-0.1,0-0.1,0c-1.1-0.2-2.3-0.3-3.4-0.4c-0.4,0-0.7-0.4-0.7-0.8c0-0.4,0.4-0.7,0.8-0.7c1.2,0.1,2.4,0.3,3.5,0.4
		c0.4,0.1,0.7,0.4,0.6,0.9C383.3,368.9,383,369.2,382.6,369.2 M375.7,368.4C375.7,368.4,375.7,368.4,375.7,368.4
		c-1.2-0.1-2.3-0.2-3.5-0.2c-0.4,0-0.7-0.4-0.7-0.8c0-0.4,0.4-0.7,0.8-0.7c1.2,0.1,2.4,0.1,3.5,0.2c0.4,0,0.7,0.4,0.7,0.8
		C376.4,368.1,376.1,368.4,375.7,368.4 M368.7,368L368.7,368c-1.1,0-2.2-0.1-3.5-0.1c-0.4,0-0.7-0.4-0.7-0.8c0-0.4,0.4-0.7,0.8-0.7
		c1.3,0,2.4,0.1,3.5,0.1c0.4,0,0.7,0.4,0.7,0.8C369.5,367.7,369.1,368,368.7,368 M361.8,367.8L361.8,367.8c-1.4,0-2.5-0.1-3.5-0.2
		c-0.4,0-0.7-0.4-0.7-0.8c0-0.4,0.4-0.7,0.8-0.7c1,0.1,2.1,0.1,3.5,0.2c0.4,0,0.7,0.4,0.7,0.8C362.5,367.5,362.2,367.8,361.8,367.8
		 M354.8,367.4C354.8,367.4,354.7,367.3,354.8,367.4c-1.4-0.2-2.5-0.4-3.6-0.6c-0.4-0.1-0.7-0.5-0.6-0.9c0.1-0.4,0.5-0.7,0.9-0.6
		c1,0.2,2.2,0.4,3.4,0.6c0.4,0.1,0.7,0.4,0.7,0.8C355.5,367.1,355.2,367.4,354.8,367.4 M348,365.8c-0.1,0-0.2,0-0.3,0
		c-1.2-0.4-2.3-1-3.3-1.6c-0.4-0.2-0.5-0.7-0.3-1c0.2-0.4,0.7-0.5,1-0.3c0.9,0.5,1.9,1,3,1.4c0.4,0.1,0.6,0.6,0.4,1
		C348.6,365.6,348.3,365.8,348,365.8 M342.1,362.2c-0.2,0-0.4-0.1-0.5-0.2c-0.2-0.2-0.4-0.4-0.6-0.6c-0.6-0.7-1.2-1.4-1.7-2.2
		c-0.2-0.3-0.1-0.8,0.2-1c0.3-0.2,0.8-0.1,1,0.2c0.5,0.7,1,1.4,1.5,2c0.2,0.2,0.4,0.4,0.6,0.6c0.3,0.3,0.3,0.8,0,1.1
		C342.5,362.1,342.3,362.2,342.1,362.2 M338.2,356.5c-0.3,0-0.6-0.2-0.7-0.5c-0.4-1-0.8-2.2-1.1-3.4c-0.1-0.4,0.1-0.8,0.5-0.9
		c0.4-0.1,0.8,0.1,0.9,0.5c0.3,1.2,0.7,2.2,1.1,3.2c0.2,0.4,0,0.8-0.4,1C338.4,356.4,338.3,356.5,338.2,356.5 M336.4,349.7
		c-0.4,0-0.7-0.3-0.7-0.6c-0.2-1.1-0.3-2.2-0.4-3.5c0-0.4,0.3-0.8,0.7-0.8c0.4,0,0.8,0.3,0.8,0.7c0.1,1.3,0.3,2.4,0.4,3.4
		c0.1,0.4-0.2,0.8-0.6,0.9C336.5,349.7,336.5,349.7,336.4,349.7 M335.7,342.8c-0.4,0-0.7-0.3-0.8-0.7c-0.1-1.2-0.2-2.3-0.2-3.5
		c0-0.4,0.3-0.8,0.7-0.8c0.4,0,0.8,0.3,0.8,0.7c0.1,1.2,0.2,2.3,0.2,3.5C336.5,342.4,336.2,342.8,335.7,342.8
		C335.8,342.8,335.8,342.8,335.7,342.8 M335.3,335.8c-0.4,0-0.7-0.3-0.8-0.7c-0.1-1.2-0.1-2.3-0.2-3.5c0-0.4,0.3-0.8,0.7-0.8
		c0.4,0,0.8,0.3,0.8,0.7c0.1,1.2,0.1,2.3,0.2,3.5C336.1,335.4,335.8,335.8,335.3,335.8C335.3,335.8,335.3,335.8,335.3,335.8
		 M335,328.8c-0.4,0-0.7-0.3-0.8-0.7c0-1.2-0.1-2.3-0.1-3.5c0-0.4,0.3-0.8,0.7-0.8c0.4,0,0.8,0.3,0.8,0.7c0,1.2,0.1,2.3,0.1,3.5
		C335.8,328.5,335.4,328.8,335,328.8C335,328.8,335,328.8,335,328.8 M334.8,321.9c-0.4,0-0.7-0.3-0.8-0.7c0-1.2,0-2.3-0.1-3.5
		c0-0.4,0.3-0.8,0.7-0.8h0c0.4,0,0.8,0.3,0.8,0.7c0,1.2,0,2.3,0.1,3.5C335.5,321.5,335.2,321.9,334.8,321.9
		C334.8,321.9,334.8,321.9,334.8,321.9 M334.7,314.9c-0.4,0-0.8-0.3-0.8-0.8c0-0.6,0-1.2,0-1.8c0-0.6,0-1.1,0-1.7
		c0-0.4,0.3-0.8,0.8-0.8c0.4,0,0.8,0.3,0.8,0.8c0,0.6,0,1.1,0,1.7c0,0.6,0,1.2,0,1.8C335.5,314.6,335.1,314.9,334.7,314.9
		L334.7,314.9z"/>
	<path clip-path="url(#SVGID_2_)" fill="#1F2B50" d="M334.9,300.7c1.5,4.3,4.2,9.7,7,13l-7.1-2.7l-7.2,2.5
		C330.4,310.3,333.2,305,334.9,300.7"/>
	<path clip-path="url(#SVGID_2_)" fill="#1F2B50" d="M487.6,452.2c-0.3-1.1-0.6-2.3-0.8-3.5c-0.1-0.4,0.2-0.8,0.6-0.9
		c0.4-0.1,0.8,0.2,0.9,0.6c0.2,1.1,0.4,2.2,0.8,3.3c0.1,0.4-0.1,0.8-0.5,0.9c-0.1,0-0.1,0-0.2,0C488,452.8,487.7,452.6,487.6,452.2
		 M486.5,445.2c0-0.2,0-0.4,0-0.6c0-1,0.1-2,0.2-3c0-0.4,0.4-0.7,0.8-0.7c0.4,0,0.7,0.4,0.7,0.8c-0.1,0.9-0.2,1.9-0.2,2.8
		c0,0.2,0,0.4,0,0.6c0,0.4-0.3,0.8-0.7,0.8h0C486.9,445.9,486.5,445.6,486.5,445.2 M487.8,439c-0.4-0.1-0.7-0.5-0.6-0.9
		c0.3-1.1,0.6-2.3,1-3.4c0.1-0.4,0.6-0.6,1-0.5c0.4,0.1,0.6,0.6,0.5,1c-0.4,1.1-0.7,2.2-0.9,3.3c-0.1,0.4-0.4,0.6-0.7,0.6
		C487.9,439,487.9,439,487.8,439 M489.9,432.3c-0.4-0.2-0.5-0.6-0.4-1c0.5-1.1,1.1-2.1,1.7-3.1c0.2-0.4,0.7-0.5,1-0.3
		c0.4,0.2,0.5,0.7,0.3,1c-0.6,1-1.1,2-1.6,3c-0.1,0.3-0.4,0.4-0.7,0.4C490.1,432.4,490,432.4,489.9,432.3 M493.4,426.3
		c-0.3-0.3-0.4-0.7-0.2-1.1c0.4-0.5,0.7-1,1.1-1.4c0.4-0.4,0.8-0.9,1.1-1.3c0.3-0.3,0.8-0.3,1.1,0c0.3,0.3,0.3,0.8,0,1.1
		c-0.4,0.4-0.7,0.8-1.1,1.3c-0.4,0.4-0.7,0.9-1.1,1.4c-0.1,0.2-0.4,0.3-0.6,0.3C493.7,426.4,493.5,426.4,493.4,426.3 M498,421
		c-0.3-0.3-0.3-0.8,0.1-1.1c0.9-0.8,1.8-1.6,2.7-2.3c0.3-0.3,0.8-0.2,1.1,0.1c0.3,0.3,0.2,0.8-0.1,1.1c-0.9,0.7-1.8,1.4-2.6,2.2
		c-0.1,0.1-0.3,0.2-0.5,0.2C498.3,421.3,498.1,421.2,498,421 M503.4,416.7c-0.2-0.4-0.1-0.8,0.2-1c1-0.6,2-1.2,3-1.8
		c0.4-0.2,0.8-0.1,1,0.3c0.2,0.4,0.1,0.8-0.3,1c-1,0.6-2,1.2-2.9,1.8c-0.1,0.1-0.3,0.1-0.4,0.1C503.8,417,503.6,416.9,503.4,416.7
		 M509.5,413.2c-0.2-0.4,0-0.8,0.4-1c1.1-0.5,2.1-1,3.3-1.4c0.4-0.2,0.8,0,1,0.4c0.2,0.4,0,0.8-0.4,1c-1.1,0.4-2.1,0.9-3.2,1.4
		c-0.1,0-0.2,0.1-0.3,0.1C509.9,413.7,509.6,413.5,509.5,413.2 M515.9,410.6c-0.1-0.4,0.1-0.8,0.5-1c1.1-0.4,2.2-0.7,3.4-1
		c0.4-0.1,0.8,0.1,0.9,0.5c0.1,0.4-0.1,0.8-0.5,0.9c-1.1,0.3-2.2,0.6-3.3,1c-0.1,0-0.2,0-0.2,0C516.3,411.1,516,410.9,515.9,410.6
		 M522.6,408.7c-0.1-0.4,0.2-0.8,0.6-0.9c1.1-0.2,2.3-0.5,3.5-0.7c0.4-0.1,0.8,0.2,0.9,0.6c0.1,0.4-0.2,0.8-0.6,0.9
		c-1.2,0.2-2.3,0.4-3.4,0.7c-0.1,0-0.1,0-0.2,0C523,409.3,522.7,409,522.6,408.7 M529.5,407.4c-0.1-0.4,0.2-0.8,0.6-0.9
		c1.1-0.2,2.3-0.3,3.5-0.4c0.4,0,0.8,0.3,0.8,0.7c0,0.4-0.3,0.8-0.7,0.8c-1.2,0.1-2.3,0.3-3.4,0.4c0,0-0.1,0-0.1,0
		C529.9,408.1,529.6,407.8,529.5,407.4 M536.4,406.7c0-0.4,0.3-0.8,0.7-0.8c1.1-0.1,2.3-0.2,3.5-0.2c0.4,0,0.8,0.3,0.8,0.7
		c0,0.4-0.3,0.8-0.7,0.8c-1.2,0.1-2.4,0.1-3.5,0.2c0,0,0,0-0.1,0C536.8,407.4,536.5,407.1,536.4,406.7 M543.4,406.2
		c0-0.4,0.3-0.8,0.7-0.8c1.1,0,2.2-0.1,3.5-0.1c0.4,0,0.8,0.3,0.8,0.7c0,0.4-0.3,0.8-0.7,0.8c-1.3,0-2.4,0.1-3.5,0.1h0
		C543.8,407,543.4,406.7,543.4,406.2 M550.4,406c0-0.4,0.3-0.8,0.7-0.8c1.3,0,2.4-0.1,3.5-0.2c0.4,0,0.8,0.3,0.8,0.7
		c0,0.4-0.3,0.8-0.7,0.8c-1,0.1-2.2,0.1-3.5,0.2h0C550.7,406.8,550.4,406.4,550.4,406 M557.3,405.6c-0.1-0.4,0.2-0.8,0.7-0.8
		c1.2-0.2,2.3-0.3,3.4-0.6c0.4-0.1,0.8,0.2,0.9,0.6c0.1,0.4-0.2,0.8-0.6,0.9c-1.1,0.2-2.2,0.4-3.5,0.6c0,0-0.1,0-0.1,0
		C557.7,406.3,557.4,406,557.3,405.6 M564.2,404.2c-0.1-0.4,0.1-0.8,0.4-1c1.1-0.4,2.1-0.9,3-1.4c0.4-0.2,0.8-0.1,1,0.3
		c0.2,0.4,0.1,0.8-0.3,1c-1,0.6-2.1,1.1-3.3,1.6c-0.1,0-0.2,0-0.3,0C564.6,404.7,564.3,404.5,564.2,404.2 M570.3,400.9
		c-0.3-0.3-0.3-0.8,0-1.1c0.2-0.2,0.4-0.4,0.6-0.6c0.6-0.6,1.1-1.3,1.5-2c0.2-0.3,0.7-0.4,1-0.2c0.3,0.2,0.4,0.7,0.2,1
		c-0.5,0.8-1.1,1.5-1.7,2.2c-0.2,0.2-0.4,0.4-0.6,0.6c-0.1,0.1-0.3,0.2-0.5,0.2C570.6,401.1,570.4,401.1,570.3,400.9 M574.4,395.3
		c-0.4-0.2-0.6-0.6-0.4-1c0.4-1,0.8-2.1,1.1-3.2c0.1-0.4,0.5-0.6,0.9-0.5c0.4,0.1,0.6,0.5,0.5,0.9c-0.3,1.2-0.7,2.4-1.1,3.4
		c-0.1,0.3-0.4,0.5-0.7,0.5C574.6,395.4,574.5,395.4,574.4,395.3 M576.3,388.7c-0.4-0.1-0.7-0.5-0.6-0.9c0.2-1,0.3-2.2,0.4-3.4
		c0-0.4,0.4-0.7,0.8-0.7c0.4,0,0.7,0.4,0.7,0.8c-0.1,1.3-0.3,2.4-0.4,3.5c-0.1,0.4-0.4,0.6-0.7,0.6
		C576.4,388.7,576.4,388.7,576.3,388.7 M577.1,381.7c-0.4,0-0.7-0.4-0.7-0.8c0.1-1.2,0.2-2.3,0.2-3.5c0-0.4,0.4-0.7,0.8-0.7
		c0.4,0,0.7,0.4,0.7,0.8c-0.1,1.2-0.2,2.3-0.2,3.5C577.9,381.4,577.5,381.7,577.1,381.7C577.1,381.7,577.1,381.7,577.1,381.7
		 M577.5,374.8c-0.4,0-0.7-0.4-0.7-0.8c0.1-1.2,0.1-2.3,0.2-3.5c0-0.4,0.4-0.7,0.8-0.7c0.4,0,0.7,0.4,0.7,0.8
		c-0.1,1.2-0.1,2.3-0.2,3.5C578.3,374.4,578,374.8,577.5,374.8C577.6,374.8,577.6,374.8,577.5,374.8 M577.9,367.8
		c-0.4,0-0.7-0.4-0.7-0.8c0-1.2,0.1-2.3,0.1-3.5c0-0.4,0.4-0.7,0.8-0.7c0.4,0,0.7,0.4,0.7,0.8c0,1.2-0.1,2.3-0.1,3.5
		C578.6,367.5,578.3,367.8,577.9,367.8C577.9,367.8,577.9,367.8,577.9,367.8 M578.1,360.8c-0.4,0-0.7-0.4-0.7-0.8
		c0-1.2,0-2.3,0.1-3.5c0-0.4,0.3-0.7,0.8-0.7h0c0.4,0,0.8,0.3,0.7,0.8c0,1.2,0,2.3-0.1,3.5C578.9,360.5,578.5,360.8,578.1,360.8
		C578.1,360.8,578.1,360.8,578.1,360.8 M578.2,353.8c-0.4,0-0.8-0.3-0.8-0.8c0-0.6,0-1.2,0-1.8c0-0.6,0-1.1,0-1.7
		c0-0.4,0.3-0.8,0.8-0.8c0.4,0,0.8,0.3,0.8,0.8c0,0.6,0,1.1,0,1.7c0,0.6,0,1.2,0,1.8C578.9,353.5,578.6,353.8,578.2,353.8
		L578.2,353.8z"/>
	<path clip-path="url(#SVGID_2_)" fill="#1F2B50" d="M578,339.6c-1.5,4.3-4.2,9.7-7,13l7.1-2.7l7.2,2.5
		C582.5,349.2,579.7,343.9,578,339.6"/>
	<path clip-path="url(#SVGID_2_)" fill="#FFFFFF" d="M330.1,476.2c0,0.1-0.2,0.3-0.3,0.3h-39.6c-0.1,0-0.3-0.2-0.3-0.3V467
		c0,0,0-0.1,0.1-0.2c0.1-0.1,0.2-0.1,0.3-0.1h39.5c0.1,0,0.3,0.2,0.3,0.3V476.2z"/>
	<path clip-path="url(#SVGID_2_)" fill="#71C6DA" d="M295.6,469.8c-0.9,0-1.7,0.8-1.7,1.7c0,1,0.8,1.7,1.7,1.7c1,0,1.7-0.8,1.7-1.7
		C297.3,470.6,296.6,469.8,295.6,469.8"/>
	<path clip-path="url(#SVGID_2_)" fill="#FFFFFF" d="M329.4,467.1h-38.5c-0.1,0-0.2,0-0.3,0.1c-0.1,0.1-0.1,0.2-0.1,0.2v8.8
		c0,0.1,0.1,0.3,0.3,0.3h38.6c0.1,0,0.3-0.2,0.3-0.3v-8.8C329.7,467.2,329.5,467.1,329.4,467.1"/>
	<path clip-path="url(#SVGID_2_)" d="M295.6,468.7c-1.6,0-2.8,1.2-2.8,2.8c0,1.6,1.3,2.8,2.8,2.8c1.6,0,2.8-1.2,2.8-2.8
		C298.4,469.9,297.2,468.7,295.6,468.7 M295.6,473.6c-1.2,0-2.1-0.9-2.1-2.1c0-1.1,0.9-2.1,2.1-2.1c1.2,0,2.1,0.9,2.1,2.1
		C297.6,472.7,296.7,473.6,295.6,473.6"/>
	<path clip-path="url(#SVGID_2_)" fill="#1D1D1B" d="M295.6,469.6c-1,0-1.9,0.9-1.9,1.9s0.8,1.9,1.9,1.9c1,0,1.9-0.8,1.9-1.9
		C297.5,470.5,296.7,469.6,295.6,469.6 M295.6,473.3c-1,0-1.7-0.8-1.7-1.7c0-0.9,0.8-1.7,1.7-1.7c1,0,1.7,0.8,1.7,1.7
		S296.6,473.3,295.6,473.3"/>
	<path clip-path="url(#SVGID_2_)" fill="#1D1D1B" d="M295.6,474.4c-1.6,0-2.8-1.3-2.8-2.8c0-1.6,1.2-2.8,2.8-2.8
		c1.6,0,2.8,1.2,2.8,2.8C298.4,473.1,297.2,474.4,295.6,474.4"/>
	<path clip-path="url(#SVGID_2_)" fill="#E95C45" d="M295.6,469.5c-1.1,0-2.1,0.9-2.1,2.1c0,1.2,0.9,2.1,2.1,2.1
		c1.2,0,2.1-0.9,2.1-2.1C297.6,470.4,296.7,469.5,295.6,469.5"/>
	<path clip-path="url(#SVGID_2_)" fill="#1D1D1B" d="M301.5,474.2c-0.9,0-1.7-0.7-1.7-1.7c0-0.9,0.7-1.7,1.7-1.7
		c0.9,0,1.7,0.7,1.7,1.7C303.2,473.5,302.5,474.2,301.5,474.2"/>
	<path clip-path="url(#SVGID_2_)" fill="#1D1D1B" d="M301.5,474.5c-1.1,0-2-0.9-2-2c0-1.1,0.9-2,2-2c1.1,0,2,0.9,2,2
		C303.5,473.6,302.6,474.5,301.5,474.5 M301.5,471.2c-0.8,0-1.4,0.6-1.4,1.4c0,0.8,0.6,1.4,1.4,1.4c0.8,0,1.4-0.6,1.4-1.4
		S302.3,471.2,301.5,471.2"/>
	<path clip-path="url(#SVGID_2_)" fill="#E95C45" d="M301.5,471.3c-0.7,0-1.2,0.6-1.2,1.2c0,0.7,0.5,1.2,1.2,1.2
		c0.7,0,1.2-0.5,1.2-1.2C302.7,471.9,302.2,471.3,301.5,471.3"/>
	<path clip-path="url(#SVGID_2_)" d="M329.4,466h-38.6c-0.8,0-1.4,0.6-1.4,1.4v8.4c0,0.7,0.8,1.2,1.6,1.2l38.4,0
		c0.8,0,1.4-0.6,1.4-1.4v-8.3C330.8,466.6,330.2,466,329.4,466 M330,475.7c0,0.3-0.3,0.6-0.6,0.6h-38.6c-0.3,0-0.6-0.3-0.6-0.6v-8.3
		c0,0,0-0.2,0.1-0.4c0.1-0.1,0.3-0.2,0.5-0.2h38.5c0.3,0,0.6,0.3,0.6,0.6V475.7z"/>
	<path clip-path="url(#SVGID_2_)" d="M326.7,472.7h-18.2c-0.2,0-0.3,0.1-0.3,0.3c0,0.2,0.1,0.3,0.3,0.3h18.2c0.2,0,0.3-0.1,0.3-0.3
		C327,472.9,326.9,472.7,326.7,472.7"/>
	<path clip-path="url(#SVGID_2_)" fill="#1D1D1B" d="M326.7,473.6h-18.2c-0.3,0-0.5-0.2-0.5-0.5c0-0.3,0.2-0.5,0.5-0.5h18.2
		c0.3,0,0.5,0.2,0.5,0.5C327.2,473.4,327,473.6,326.7,473.6"/>
	<path clip-path="url(#SVGID_2_)" fill="#1D1D1B" d="M326.7,472.6h-18.2c-0.3,0-0.5,0.2-0.5,0.5s0.2,0.5,0.5,0.5h18.2
		c0.3,0,0.5-0.2,0.5-0.5S327,472.6,326.7,472.6 M326.7,473.4h-18.2c-0.2,0-0.3-0.1-0.3-0.3c0-0.2,0.1-0.3,0.3-0.3h18.2
		c0.2,0,0.3,0.1,0.3,0.3C327,473.3,326.9,473.4,326.7,473.4"/>
	<path clip-path="url(#SVGID_2_)" d="M326.7,469.7h-13.9c-0.2,0-0.3,0.1-0.3,0.3c0,0.2,0.1,0.3,0.3,0.3h13.9c0.2,0,0.3-0.1,0.3-0.3
		C327,469.8,326.9,469.7,326.7,469.7"/>
	<path clip-path="url(#SVGID_2_)" fill="#1D1D1B" d="M326.7,470.5h-13.9c-0.3,0-0.5-0.2-0.5-0.5c0-0.3,0.2-0.5,0.5-0.5h13.9
		c0.3,0,0.5,0.2,0.5,0.5C327.2,470.3,327,470.5,326.7,470.5"/>
	<path clip-path="url(#SVGID_2_)" fill="#1D1D1B" d="M326.7,469.5h-13.9c-0.3,0-0.5,0.2-0.5,0.5s0.2,0.5,0.5,0.5h13.9
		c0.3,0,0.5-0.2,0.5-0.5S327,469.5,326.7,469.5 M326.7,470.3h-13.9c-0.2,0-0.3-0.1-0.3-0.3c0-0.2,0.1-0.3,0.3-0.3h13.9
		c0.2,0,0.3,0.1,0.3,0.3C327,470.2,326.9,470.3,326.7,470.3"/>
	<path clip-path="url(#SVGID_2_)" fill="#FFFFFF" d="M330.1,490.4c0,0.1-0.2,0.3-0.3,0.3h-39.6c-0.1,0-0.3-0.2-0.3-0.3v-9.2
		c0,0,0-0.1,0.1-0.2c0.1-0.1,0.2-0.1,0.3-0.1h39.5c0.1,0,0.3,0.2,0.3,0.3V490.4z"/>
	<path clip-path="url(#SVGID_2_)" fill="#71C6DA" d="M295.6,484.1c-0.9,0-1.7,0.8-1.7,1.7c0,1,0.8,1.7,1.7,1.7c1,0,1.7-0.8,1.7-1.7
		S296.6,484.1,295.6,484.1"/>
	<path clip-path="url(#SVGID_2_)" fill="#FFFFFF" d="M329.4,481.4h-38.5c-0.1,0-0.2,0-0.3,0.1c-0.1,0.1-0.1,0.2-0.1,0.2v8.8
		c0,0.1,0.1,0.3,0.3,0.3h38.6c0.1,0,0.3-0.2,0.3-0.3v-8.8C329.7,481.5,329.5,481.4,329.4,481.4"/>
	<path clip-path="url(#SVGID_2_)" d="M295.6,483c-1.6,0-2.8,1.2-2.8,2.8c0,1.6,1.3,2.8,2.8,2.8c1.6,0,2.8-1.2,2.8-2.8
		C298.4,484.2,297.2,483,295.6,483 M295.6,487.9c-1.2,0-2.1-0.9-2.1-2.1c0-1.1,0.9-2.1,2.1-2.1c1.2,0,2.1,0.9,2.1,2.1
		C297.6,487,296.7,487.9,295.6,487.9"/>
	<path clip-path="url(#SVGID_2_)" fill="#1D1D1B" d="M295.6,483.9c-1,0-1.9,0.9-1.9,1.9s0.8,1.9,1.9,1.9c1,0,1.9-0.8,1.9-1.9
		C297.5,484.8,296.7,483.9,295.6,483.9 M295.6,487.5c-1,0-1.7-0.8-1.7-1.7c0-0.9,0.8-1.7,1.7-1.7c1,0,1.7,0.8,1.7,1.7
		S296.6,487.5,295.6,487.5"/>
	<path clip-path="url(#SVGID_2_)" fill="#1D1D1B" d="M295.6,488.6c-1.6,0-2.8-1.3-2.8-2.8c0-1.6,1.2-2.8,2.8-2.8
		c1.6,0,2.8,1.2,2.8,2.8S297.2,488.6,295.6,488.6"/>
	<path clip-path="url(#SVGID_2_)" fill="#E95C45" d="M295.6,483.7c-1.1,0-2.1,0.9-2.1,2.1c0,1.2,0.9,2.1,2.1,2.1
		c1.2,0,2.1-0.9,2.1-2.1C297.6,484.6,296.7,483.7,295.6,483.7"/>
	<path clip-path="url(#SVGID_2_)" fill="#1D1D1B" d="M301.5,488.5c-0.9,0-1.7-0.7-1.7-1.7c0-0.9,0.7-1.7,1.7-1.7
		c0.9,0,1.7,0.7,1.7,1.7C303.2,487.7,302.5,488.5,301.5,488.5"/>
	<path clip-path="url(#SVGID_2_)" fill="#1D1D1B" d="M301.5,488.8c-1.1,0-2-0.9-2-2c0-1.1,0.9-2,2-2c1.1,0,2,0.9,2,2
		C303.5,487.9,302.6,488.8,301.5,488.8 M301.5,485.4c-0.8,0-1.4,0.6-1.4,1.4c0,0.8,0.6,1.4,1.4,1.4c0.8,0,1.4-0.6,1.4-1.4
		C302.9,486,302.3,485.4,301.5,485.4"/>
	<path clip-path="url(#SVGID_2_)" fill="#E95C45" d="M301.5,485.6c-0.7,0-1.2,0.6-1.2,1.2c0,0.7,0.5,1.2,1.2,1.2
		c0.7,0,1.2-0.5,1.2-1.2C302.7,486.1,302.2,485.6,301.5,485.6"/>
	<path clip-path="url(#SVGID_2_)" d="M329.4,480.3h-38.6c-0.8,0-1.4,0.6-1.4,1.4v8.4c0,0.7,0.8,1.2,1.6,1.2l38.4,0
		c0.8,0,1.4-0.6,1.4-1.4v-8.3C330.8,480.9,330.2,480.3,329.4,480.3 M330,490c0,0.3-0.3,0.6-0.6,0.6h-38.6c-0.3,0-0.6-0.3-0.6-0.6
		v-8.3c0,0,0-0.2,0.1-0.4c0.1-0.1,0.3-0.2,0.5-0.2h38.5c0.3,0,0.6,0.3,0.6,0.6V490z"/>
	<path clip-path="url(#SVGID_2_)" d="M326.7,487h-18.2c-0.2,0-0.3,0.1-0.3,0.3c0,0.2,0.1,0.3,0.3,0.3h18.2c0.2,0,0.3-0.1,0.3-0.3
		C327,487.1,326.9,487,326.7,487"/>
	<path clip-path="url(#SVGID_2_)" fill="#1D1D1B" d="M326.7,487.8h-18.2c-0.3,0-0.5-0.2-0.5-0.5c0-0.3,0.2-0.5,0.5-0.5h18.2
		c0.3,0,0.5,0.2,0.5,0.5C327.2,487.6,327,487.8,326.7,487.8"/>
	<path clip-path="url(#SVGID_2_)" fill="#1D1D1B" d="M326.7,486.8h-18.2c-0.3,0-0.5,0.2-0.5,0.5c0,0.3,0.2,0.5,0.5,0.5h18.2
		c0.3,0,0.5-0.2,0.5-0.5C327.2,487,327,486.8,326.7,486.8 M326.7,487.7h-18.2c-0.2,0-0.3-0.1-0.3-0.3c0-0.2,0.1-0.3,0.3-0.3h18.2
		c0.2,0,0.3,0.1,0.3,0.3C327,487.5,326.9,487.7,326.7,487.7"/>
	<path clip-path="url(#SVGID_2_)" d="M326.7,483.9h-13.9c-0.2,0-0.3,0.1-0.3,0.3c0,0.2,0.1,0.3,0.3,0.3h13.9c0.2,0,0.3-0.1,0.3-0.3
		C327,484.1,326.9,483.9,326.7,483.9"/>
	<path clip-path="url(#SVGID_2_)" fill="#1D1D1B" d="M326.7,484.8h-13.9c-0.3,0-0.5-0.2-0.5-0.5c0-0.3,0.2-0.5,0.5-0.5h13.9
		c0.3,0,0.5,0.2,0.5,0.5C327.2,484.6,327,484.8,326.7,484.8"/>
	<path clip-path="url(#SVGID_2_)" fill="#1D1D1B" d="M326.7,483.7h-13.9c-0.3,0-0.5,0.2-0.5,0.5s0.2,0.5,0.5,0.5h13.9
		c0.3,0,0.5-0.2,0.5-0.5S327,483.7,326.7,483.7 M326.7,484.6h-13.9c-0.2,0-0.3-0.1-0.3-0.3c0-0.2,0.1-0.3,0.3-0.3h13.9
		c0.2,0,0.3,0.1,0.3,0.3C327,484.5,326.9,484.6,326.7,484.6"/>
	<path clip-path="url(#SVGID_2_)" fill="#FFFFFF" d="M330.1,504.7c0,0.1-0.2,0.3-0.3,0.3h-39.6c-0.1,0-0.3-0.2-0.3-0.3v-9.2
		c0,0,0-0.1,0.1-0.2c0.1-0.1,0.2-0.1,0.3-0.1h39.5c0.1,0,0.3,0.2,0.3,0.3V504.7z"/>
	<path clip-path="url(#SVGID_2_)" fill="#71C6DA" d="M295.6,498.3c-0.9,0-1.7,0.8-1.7,1.7c0,1,0.8,1.7,1.7,1.7c1,0,1.7-0.8,1.7-1.7
		C297.3,499.1,296.6,498.3,295.6,498.3"/>
	<path clip-path="url(#SVGID_2_)" fill="#FFFFFF" d="M329.4,495.6h-38.5c-0.1,0-0.2,0-0.3,0.1c-0.1,0.1-0.1,0.2-0.1,0.2v8.8
		c0,0.1,0.1,0.3,0.3,0.3h38.6c0.1,0,0.3-0.2,0.3-0.3v-8.8C329.7,495.8,329.5,495.6,329.4,495.6"/>
	<path clip-path="url(#SVGID_2_)" d="M295.6,497.2c-1.6,0-2.8,1.2-2.8,2.8c0,1.6,1.3,2.8,2.8,2.8c1.6,0,2.8-1.2,2.8-2.8
		C298.4,498.5,297.2,497.2,295.6,497.2 M295.6,502.1c-1.2,0-2.1-0.9-2.1-2.1c0-1.1,0.9-2.1,2.1-2.1c1.2,0,2.1,0.9,2.1,2.1
		C297.6,501.2,296.7,502.1,295.6,502.1"/>
	<path clip-path="url(#SVGID_2_)" fill="#1D1D1B" d="M295.6,498.2c-1,0-1.9,0.9-1.9,1.9s0.8,1.9,1.9,1.9c1,0,1.9-0.8,1.9-1.9
		C297.5,499,296.7,498.2,295.6,498.2 M295.6,501.8c-1,0-1.7-0.8-1.7-1.7c0-0.9,0.8-1.7,1.7-1.7c1,0,1.7,0.8,1.7,1.7
		C297.3,501,296.6,501.8,295.6,501.8"/>
	<path clip-path="url(#SVGID_2_)" fill="#1D1D1B" d="M295.6,502.9c-1.6,0-2.8-1.3-2.8-2.8c0-1.6,1.2-2.8,2.8-2.8
		c1.6,0,2.8,1.2,2.8,2.8C298.4,501.6,297.2,502.9,295.6,502.9"/>
	<path clip-path="url(#SVGID_2_)" fill="#E95C45" d="M295.6,498c-1.1,0-2.1,0.9-2.1,2.1c0,1.2,0.9,2.1,2.1,2.1
		c1.2,0,2.1-0.9,2.1-2.1C297.6,498.9,296.7,498,295.6,498"/>
	<path clip-path="url(#SVGID_2_)" fill="#1D1D1B" d="M301.5,502.7c-0.9,0-1.7-0.7-1.7-1.7c0-0.9,0.7-1.7,1.7-1.7
		c0.9,0,1.7,0.7,1.7,1.7S302.5,502.7,301.5,502.7"/>
	<path clip-path="url(#SVGID_2_)" fill="#1D1D1B" d="M301.5,503c-1.1,0-2-0.9-2-2c0-1.1,0.9-2,2-2c1.1,0,2,0.9,2,2
		C303.5,502.2,302.6,503,301.5,503 M301.5,499.7c-0.8,0-1.4,0.6-1.4,1.4c0,0.8,0.6,1.4,1.4,1.4c0.8,0,1.4-0.6,1.4-1.4
		S302.3,499.7,301.5,499.7"/>
	<path clip-path="url(#SVGID_2_)" fill="#E95C45" d="M301.5,499.8c-0.7,0-1.2,0.6-1.2,1.2c0,0.7,0.5,1.2,1.2,1.2
		c0.7,0,1.2-0.5,1.2-1.2C302.7,500.4,302.2,499.8,301.5,499.8"/>
	<path clip-path="url(#SVGID_2_)" d="M329.4,494.5h-38.6c-0.8,0-1.4,0.6-1.4,1.4v8.4c0,0.7,0.8,1.2,1.6,1.2l38.4,0
		c0.8,0,1.4-0.6,1.4-1.4v-8.3C330.8,495.1,330.2,494.5,329.4,494.5 M330,504.2c0,0.3-0.3,0.6-0.6,0.6h-38.6c-0.3,0-0.6-0.3-0.6-0.6
		v-8.3c0,0,0-0.2,0.1-0.4c0.1-0.1,0.3-0.2,0.5-0.2h38.5c0.3,0,0.6,0.3,0.6,0.6V504.2z"/>
	<path clip-path="url(#SVGID_2_)" d="M326.7,501.2h-18.2c-0.2,0-0.3,0.1-0.3,0.3c0,0.2,0.1,0.3,0.3,0.3h18.2c0.2,0,0.3-0.1,0.3-0.3
		C327,501.4,326.9,501.2,326.7,501.2"/>
	<path clip-path="url(#SVGID_2_)" fill="#1D1D1B" d="M326.7,502.1h-18.2c-0.3,0-0.5-0.2-0.5-0.5c0-0.3,0.2-0.5,0.5-0.5h18.2
		c0.3,0,0.5,0.2,0.5,0.5C327.2,501.9,327,502.1,326.7,502.1"/>
	<path clip-path="url(#SVGID_2_)" fill="#1D1D1B" d="M326.7,501.1h-18.2c-0.3,0-0.5,0.2-0.5,0.5s0.2,0.5,0.5,0.5h18.2
		c0.3,0,0.5-0.2,0.5-0.5S327,501.1,326.7,501.1 M326.7,501.9h-18.2c-0.2,0-0.3-0.1-0.3-0.3c0-0.2,0.1-0.3,0.3-0.3h18.2
		c0.2,0,0.3,0.1,0.3,0.3C327,501.8,326.9,501.9,326.7,501.9"/>
	<path clip-path="url(#SVGID_2_)" d="M326.7,498.2h-13.9c-0.2,0-0.3,0.1-0.3,0.3s0.1,0.3,0.3,0.3h13.9c0.2,0,0.3-0.1,0.3-0.3
		S326.9,498.2,326.7,498.2"/>
	<path clip-path="url(#SVGID_2_)" fill="#1D1D1B" d="M326.7,499h-13.9c-0.3,0-0.5-0.2-0.5-0.5c0-0.3,0.2-0.5,0.5-0.5h13.9
		c0.3,0,0.5,0.2,0.5,0.5C327.2,498.8,327,499,326.7,499"/>
	<path clip-path="url(#SVGID_2_)" fill="#1D1D1B" d="M326.7,498h-13.9c-0.3,0-0.5,0.2-0.5,0.5s0.2,0.5,0.5,0.5h13.9
		c0.3,0,0.5-0.2,0.5-0.5S327,498,326.7,498 M326.7,498.9h-13.9c-0.2,0-0.3-0.1-0.3-0.3s0.1-0.3,0.3-0.3h13.9c0.2,0,0.3,0.1,0.3,0.3
		S326.9,498.9,326.7,498.9"/>
	<g opacity="0.5" clip-path="url(#SVGID_2_)">
		<g>
			<defs>
				<rect id="SVGID_3_" x="278.6" y="221" width="12.3" height="12.3"/>
			</defs>
			<clipPath id="SVGID_4_">
				<use xlink:href="#SVGID_3_"  overflow="visible"/>
			</clipPath>
			<g clip-path="url(#SVGID_4_)">
				<defs>
					<rect id="SVGID_5_" x="278.6" y="221" width="12.3" height="12.3"/>
				</defs>
				<clipPath id="SVGID_6_">
					<use xlink:href="#SVGID_5_"  overflow="visible"/>
				</clipPath>
				<rect x="283.4" y="221" clip-path="url(#SVGID_6_)" fill="#146CB0" width="2.6" height="4"/>
				<rect x="283.4" y="229.3" clip-path="url(#SVGID_6_)" fill="#146CB0" width="2.6" height="4"/>
				<rect x="286.9" y="225.9" clip-path="url(#SVGID_6_)" fill="#146CB0" width="4" height="2.6"/>
				<rect x="278.6" y="225.9" clip-path="url(#SVGID_6_)" fill="#146CB0" width="4" height="2.6"/>
			</g>
		</g>
	</g>
	<g opacity="0.5" clip-path="url(#SVGID_2_)">
		<g>
			<defs>
				<rect id="SVGID_7_" x="402.5" y="263.9" width="12.3" height="12.3"/>
			</defs>
			<clipPath id="SVGID_8_">
				<use xlink:href="#SVGID_7_"  overflow="visible"/>
			</clipPath>
			<g clip-path="url(#SVGID_8_)">
				<defs>
					<rect id="SVGID_9_" x="402.5" y="263.9" width="12.3" height="12.3"/>
				</defs>
				<clipPath id="SVGID_10_">
					<use xlink:href="#SVGID_9_"  overflow="visible"/>
				</clipPath>
				<rect x="407.4" y="263.9" clip-path="url(#SVGID_10_)" fill="#146CB0" width="2.6" height="4"/>
				<rect x="407.4" y="272.2" clip-path="url(#SVGID_10_)" fill="#146CB0" width="2.6" height="4"/>
				<rect x="410.9" y="268.7" clip-path="url(#SVGID_10_)" fill="#146CB0" width="4" height="2.6"/>
				<rect x="402.5" y="268.7" clip-path="url(#SVGID_10_)" fill="#146CB0" width="4" height="2.6"/>
			</g>
		</g>
	</g>
	<g opacity="0.5" clip-path="url(#SVGID_2_)">
		<g>
			<defs>
				<rect id="SVGID_11_" x="486.3" y="196.3" width="12.3" height="12.3"/>
			</defs>
			<clipPath id="SVGID_12_">
				<use xlink:href="#SVGID_11_"  overflow="visible"/>
			</clipPath>
			<g clip-path="url(#SVGID_12_)">
				<defs>
					<rect id="SVGID_13_" x="486.3" y="196.3" width="12.3" height="12.3"/>
				</defs>
				<clipPath id="SVGID_14_">
					<use xlink:href="#SVGID_13_"  overflow="visible"/>
				</clipPath>
				<rect x="491.1" y="196.3" clip-path="url(#SVGID_14_)" fill="#146CB0" width="2.6" height="4"/>
				<rect x="491.1" y="204.7" clip-path="url(#SVGID_14_)" fill="#146CB0" width="2.6" height="4"/>
				<rect x="494.6" y="201.2" clip-path="url(#SVGID_14_)" fill="#146CB0" width="4" height="2.6"/>
				<rect x="486.3" y="201.2" clip-path="url(#SVGID_14_)" fill="#146CB0" width="4" height="2.6"/>
			</g>
		</g>
	</g>
	<g opacity="0.5" clip-path="url(#SVGID_2_)">
		<g>
			<defs>
				<rect id="SVGID_15_" x="606.4" y="265.2" width="12.3" height="12.3"/>
			</defs>
			<clipPath id="SVGID_16_">
				<use xlink:href="#SVGID_15_"  overflow="visible"/>
			</clipPath>
			<g clip-path="url(#SVGID_16_)">
				<defs>
					<rect id="SVGID_17_" x="606.4" y="265.2" width="12.3" height="12.3"/>
				</defs>
				<clipPath id="SVGID_18_">
					<use xlink:href="#SVGID_17_"  overflow="visible"/>
				</clipPath>
				<rect x="611.3" y="265.2" clip-path="url(#SVGID_18_)" fill="#146CB0" width="2.6" height="4"/>
				<rect x="611.3" y="273.5" clip-path="url(#SVGID_18_)" fill="#146CB0" width="2.6" height="4"/>
				<rect x="614.7" y="270" clip-path="url(#SVGID_18_)" fill="#146CB0" width="4" height="2.6"/>
				<rect x="606.4" y="270" clip-path="url(#SVGID_18_)" fill="#146CB0" width="4" height="2.6"/>
			</g>
		</g>
	</g>
	<g opacity="0.5" clip-path="url(#SVGID_2_)">
		<g>
			<defs>
				<rect id="SVGID_19_" x="646.6" y="392.7" width="12.3" height="12.3"/>
			</defs>
			<clipPath id="SVGID_20_">
				<use xlink:href="#SVGID_19_"  overflow="visible"/>
			</clipPath>
			<g clip-path="url(#SVGID_20_)">
				<defs>
					<rect id="SVGID_21_" x="646.6" y="392.7" width="12.3" height="12.3"/>
				</defs>
				<clipPath id="SVGID_22_">
					<use xlink:href="#SVGID_21_"  overflow="visible"/>
				</clipPath>
				<rect x="651.5" y="392.7" clip-path="url(#SVGID_22_)" fill="#146CB0" width="2.6" height="4"/>
				<rect x="651.5" y="401" clip-path="url(#SVGID_22_)" fill="#146CB0" width="2.6" height="4"/>
				<rect x="655" y="397.5" clip-path="url(#SVGID_22_)" fill="#146CB0" width="4" height="2.6"/>
				<rect x="646.6" y="397.5" clip-path="url(#SVGID_22_)" fill="#146CB0" width="4" height="2.6"/>
			</g>
		</g>
	</g>
	<g opacity="0.5" clip-path="url(#SVGID_2_)">
		<g>
			<defs>
				<rect id="SVGID_23_" x="537.3" y="123" width="9" height="9"/>
			</defs>
			<clipPath id="SVGID_24_">
				<use xlink:href="#SVGID_23_"  overflow="visible"/>
			</clipPath>
			<g clip-path="url(#SVGID_24_)">
				<defs>
					<rect id="SVGID_25_" x="537.3" y="123" width="9" height="9"/>
				</defs>
				<clipPath id="SVGID_26_">
					<use xlink:href="#SVGID_25_"  overflow="visible"/>
				</clipPath>
				<rect x="540.9" y="123" clip-path="url(#SVGID_26_)" fill="#146CB0" width="1.9" height="2.9"/>
				<rect x="540.9" y="129.1" clip-path="url(#SVGID_26_)" fill="#146CB0" width="1.9" height="2.9"/>
				<rect x="543.4" y="126.6" clip-path="url(#SVGID_26_)" fill="#146CB0" width="2.9" height="1.9"/>
				<rect x="537.3" y="126.6" clip-path="url(#SVGID_26_)" fill="#146CB0" width="2.9" height="1.9"/>
			</g>
		</g>
	</g>
	<g opacity="0.5" clip-path="url(#SVGID_2_)">
		<g>
			<defs>
				<rect id="SVGID_27_" x="356.3" y="432" width="9" height="9"/>
			</defs>
			<clipPath id="SVGID_28_">
				<use xlink:href="#SVGID_27_"  overflow="visible"/>
			</clipPath>
			<g clip-path="url(#SVGID_28_)">
				<defs>
					<rect id="SVGID_29_" x="356.3" y="432" width="9" height="9"/>
				</defs>
				<clipPath id="SVGID_30_">
					<use xlink:href="#SVGID_29_"  overflow="visible"/>
				</clipPath>
				<rect x="359.8" y="432" clip-path="url(#SVGID_30_)" fill="#146CB0" width="1.9" height="2.9"/>
				<rect x="359.8" y="438" clip-path="url(#SVGID_30_)" fill="#146CB0" width="1.9" height="2.9"/>
				<rect x="362.3" y="435.5" clip-path="url(#SVGID_30_)" fill="#146CB0" width="2.9" height="1.9"/>
				<rect x="356.3" y="435.5" clip-path="url(#SVGID_30_)" fill="#146CB0" width="2.9" height="1.9"/>
			</g>
		</g>
	</g>
	<g opacity="0.5" clip-path="url(#SVGID_2_)">
		<g>
			<defs>
				<rect id="SVGID_31_" x="157.7" y="146.5" width="9" height="9"/>
			</defs>
			<clipPath id="SVGID_32_">
				<use xlink:href="#SVGID_31_"  overflow="visible"/>
			</clipPath>
			<g clip-path="url(#SVGID_32_)">
				<defs>
					<rect id="SVGID_33_" x="157.7" y="146.5" width="9" height="9"/>
				</defs>
				<clipPath id="SVGID_34_">
					<use xlink:href="#SVGID_33_"  overflow="visible"/>
				</clipPath>
				<rect x="161.3" y="146.5" clip-path="url(#SVGID_34_)" fill="#146CB0" width="1.9" height="2.9"/>
				<rect x="161.3" y="152.5" clip-path="url(#SVGID_34_)" fill="#146CB0" width="1.9" height="2.9"/>
				<rect x="163.8" y="150" clip-path="url(#SVGID_34_)" fill="#146CB0" width="2.9" height="1.9"/>
				<rect x="157.7" y="150" clip-path="url(#SVGID_34_)" fill="#146CB0" width="2.9" height="1.9"/>
			</g>
		</g>
	</g>
	<g opacity="0.5" clip-path="url(#SVGID_2_)">
		<g>
			<defs>
				<rect id="SVGID_35_" x="688.2" y="125.3" width="9" height="9"/>
			</defs>
			<clipPath id="SVGID_36_">
				<use xlink:href="#SVGID_35_"  overflow="visible"/>
			</clipPath>
			<g clip-path="url(#SVGID_36_)">
				<defs>
					<rect id="SVGID_37_" x="688.2" y="125.3" width="9" height="9"/>
				</defs>
				<clipPath id="SVGID_38_">
					<use xlink:href="#SVGID_37_"  overflow="visible"/>
				</clipPath>
				<rect x="691.7" y="125.3" clip-path="url(#SVGID_38_)" fill="#146CB0" width="1.9" height="2.9"/>
				<rect x="691.7" y="131.3" clip-path="url(#SVGID_38_)" fill="#146CB0" width="1.9" height="2.9"/>
				<rect x="694.3" y="128.8" clip-path="url(#SVGID_38_)" fill="#146CB0" width="2.9" height="1.9"/>
				<rect x="688.2" y="128.8" clip-path="url(#SVGID_38_)" fill="#146CB0" width="2.9" height="1.9"/>
			</g>
		</g>
	</g>
	<path clip-path="url(#SVGID_2_)" fill="#1F2B50" d="M425.4,423.1c-7.5-16.5-24.4-24.1-37.3-27.6c-14.1-3.8-26.6-3.6-26.7-3.6H316
		c-22.3,0-39-5.8-49.4-17.1c-12.4-13.5-11.5-29.8-11.4-31v-162h2.3l0,162.1c0,0.2-1.1,16.4,10.9,29.4c10,10.8,26.1,16.3,47.7,16.4
		h45.3c0.1,0,12.9-0.2,27.3,3.7c19.2,5.2,32.6,15.1,38.8,28.9L425.4,423.1z"/>
	<path clip-path="url(#SVGID_2_)" fill="#1F2B50" d="M427.5,424.8h-2.3V334c-0.2-11.1-3.3-19.5-9.4-24.7c-8.6-7.4-20.3-6-20.4-6
		l-0.1,0h-16.5c-12.8,0-22.4-3.4-28.7-9.9c-7.8-8.2-7.4-18.3-7.4-18.7l0-56.6h2.3v56.7c0,0.1-0.4,9.7,6.8,17.2
		c5.8,6.1,14.9,9.2,27.1,9.2h16.5c1.2-0.1,13-1.3,22,6.5c6.6,5.7,10,14.5,10.2,26.4V424.8z"/>
	<rect x="447.1" y="190.1" clip-path="url(#SVGID_2_)" fill="#1F2B50" width="2.3" height="224.8"/>
	<rect x="477.6" y="270.4" clip-path="url(#SVGID_2_)" fill="#1F2B50" width="2.3" height="144.5"/>
	<path clip-path="url(#SVGID_2_)" fill="#1F2B50" d="M467.1,392.4h-2.3v-34.6c0-9.9,2.4-17.1,7.2-21.5c4.9-4.5,10.5-4.3,11.2-4.2
		h15.4c6.6,0,11.6-2,14.9-5.8c6-7.2,4.1-18.7,4-18.9l0-0.2V110.5h2.3v196.7c0.2,1.3,1.9,12.9-4.6,20.6c-3.7,4.4-9.3,6.6-16.6,6.6
		l-15.5,0c0,0-5.2-0.4-9.6,3.7c-4.3,3.9-6.4,10.6-6.4,19.8V392.4z"/>
	<path clip-path="url(#SVGID_2_)" fill="#1F2B50" d="M487.6,408.7h-2.3v-27.6c0-6.6,2.1-12,6.2-16c7.9-7.7,20.2-7.4,20.8-7.4h18.5
		c13,0,22.7-3.4,28.9-10c7.8-8.4,7.1-19.1,7.1-19.2l0-0.1v-56h2.3v56c0.1,0.9,0.6,12-7.7,20.8c-6.6,7.1-16.9,10.7-30.5,10.7h-18.5
		c-0.1,0-12-0.2-19.2,6.8c-3.6,3.6-5.5,8.4-5.5,14.4V408.7z"/>
	<path clip-path="url(#SVGID_2_)" fill="#1F2B50" d="M489.3,407.9l-2-1c4.4-8.4,15-14.5,31.5-18.3c12.1-2.7,23.2-3.1,23.3-3.1h46.9
		c22.7-1.2,39.7-9.8,49-24.9c7.1-11.4,7.4-22.5,7.4-22.6l-1.3-113.4l2.3,0l1.3,113.4c0,0.5-0.3,11.9-7.7,23.8
		c-6.8,11-21.2,24.4-50.9,25.9l-46.9,0C541.7,387.8,499.1,389.2,489.3,407.9"/>
	<path clip-path="url(#SVGID_2_)" fill="#1F2B50" d="M533.8,464.6c-6.8,0-13.6-1.5-19.1-3.2l0.7-2.2c32.8,10.2,41.3-7.4,41.7-8.2
		l0.1-0.1l17.2-28.9c15.2-22.1,37.9-11,38.2-10.9l40.3,21.5l-1.1,2l-40.3-21.4c-0.8-0.4-21.2-10.2-35.2,10.1l-17.1,28.8
		c-0.3,0.6-2.7,5.4-9.1,8.9C545,463.6,539.4,464.6,533.8,464.6"/>
	<path clip-path="url(#SVGID_2_)" fill="#146CB0" d="M729.6,445.8c0,9.4-2.9,18.1-8,25.2c-1.5,2.1-3.1,4.1-4.9,5.9
		c-2.8,2.8-6.1,5.3-9.6,7.2c-1.3,0.7-2.7,1.4-4.1,2c-5.3,2.3-11.1,3.5-17.3,3.5c-4.5,0-8.9-0.7-13-2c-1.4-0.4-2.8-0.9-4.1-1.5
		c-4.3-1.8-8.2-4.3-11.6-7.3c-1-0.9-2-1.8-3-2.8c-1.3-1.3-2.5-2.7-3.5-4.2c-1.1-1.4-2.1-3-3-4.5c-3.6-6.4-5.7-13.8-5.7-21.6
		c0-3.7,0.5-7.3,1.3-10.7c0.3-1.1,0.6-2.2,1-3.3c0.9-2.6,2-5.2,3.4-7.6c0.9-1.5,1.8-3,2.8-4.4c1.1-1.6,2.4-3,3.7-4.4
		c0.9-1,1.9-1.9,3-2.8c7.7-6.7,17.8-10.7,28.8-10.7c12.1,0,23.1,4.9,31,12.8c1.8,1.8,3.5,3.8,4.9,5.9c0.1,0.2,0.3,0.4,0.4,0.6
		c0.7,1,1.3,2,1.9,3C727.6,430.6,729.6,438,729.6,445.8"/>
	<polygon clip-path="url(#SVGID_2_)" fill="#E95C45" points="683.2,459.4 678.8,465.7 697.5,465.7 693.1,459.4 	"/>
	<path clip-path="url(#SVGID_2_)" fill="#FFFFFF" d="M711.6,427.2c0-0.7-0.6-1.3-1.2-1.3h-44.5c-0.7,0-1.2,0.6-1.2,1.3v28.3h47
		V427.2z"/>
	<path clip-path="url(#SVGID_2_)" fill="#E95C45" d="M664.6,456.9c0,1.2,0.6,2.2,1.2,2.2h17.3c0.1,0,0.2,0,0.3,0h9.2
		c0.1,0,0.2,0,0.2,0h17.3c0.7,0,1.2-1,1.2-2.2v-1.2h-46.9V456.9z"/>
	<path clip-path="url(#SVGID_2_)" fill="#3C3C3B" d="M675.1,465.3c-0.3,0-0.5,0.2-0.5,0.5c0,0.3,0.2,0.5,0.5,0.5h26.2
		c0.3,0,0.5-0.2,0.5-0.5c0-0.3-0.2-0.5-0.5-0.5h-3.2L698,465l-4.2-5.4h15.9c0.7,0,1.3-0.3,1.8-0.8c0.5-0.5,0.8-1.1,0.8-1.8v-29
		c0-1.4-1.2-2.6-2.6-2.6h-43c-1.4,0-2.6,1.2-2.6,2.6v29c0,1.4,1.2,2.6,2.6,2.6h15.9l-4.2,5.5l-0.1,0.2H675.1z M696.9,465.3h-17.5
		l4.4-5.6h8.7L696.9,465.3z M709.7,458.6l-16.8,0c0,0-0.1,0-0.1,0l-0.1,0l-9,0c0,0-0.1,0-0.1,0l-0.1,0h-16.8c-0.9,0-1.6-0.7-1.6-1.6
		v-1.1h46.2v1.1C711.3,457.9,710.6,458.6,709.7,458.6 M711.3,455h-46.2V428c0-0.9,0.7-1.6,1.6-1.6h43c0.9,0,1.6,0.7,1.6,1.6V455z"/>
	<path clip-path="url(#SVGID_2_)" fill="#F7C245" d="M670.5,442.8c0-0.3-0.2-0.5-0.5-0.5h-9.8c-0.3,0-0.5,0.2-0.5,0.5v1.7h10.7
		V442.8z M666,443.5h-1.7v-0.2h1.7V443.5z"/>
	<polygon clip-path="url(#SVGID_2_)" fill="#FFFFFF" points="670.5,446.9 670.5,446 670.5,445.2 659.8,445.2 659.8,459.7 
		670.5,459.7 	"/>
	<path clip-path="url(#SVGID_2_)" fill="#F7C245" d="M670.5,462.8v-2.4h-10.7v2.4c0,0.3,0.2,0.5,0.5,0.5h9.8
		C670.3,463.2,670.5,463,670.5,462.8 M665.1,462.7c-0.5,0-0.9-0.4-0.9-0.9c0-0.5,0.4-0.9,0.9-0.9c0.5,0,0.9,0.4,0.9,0.9
		C666,462.3,665.6,462.7,665.1,462.7"/>
	<path clip-path="url(#SVGID_2_)" fill="#3C3C3B" d="M671.1,462.8v-15.9V446v-3.2c0-0.6-0.5-1.1-1.1-1.1h-9.7
		c-0.6,0-1.1,0.5-1.1,1.1v19.9c0,0.6,0.5,1.1,1.1,1.1h9.7C670.6,463.9,671.1,463.4,671.1,462.8 M659.8,442.8c0-0.3,0.2-0.5,0.5-0.5
		h9.7c0.3,0,0.5,0.2,0.5,0.5v1.7h-10.7V442.8z M659.8,445.2h10.7v0.8v0.9v12.8h-10.7V445.2z M659.8,462.8v-2.4h10.7v2.4
		c0,0.3-0.2,0.5-0.5,0.5h-9.7C660,463.2,659.8,463,659.8,462.8"/>
	<rect x="664.3" y="443.3" clip-path="url(#SVGID_2_)" fill="#3C3C3B" width="1.7" height="0.2"/>
	<path clip-path="url(#SVGID_2_)" fill="#3C3C3B" d="M665.1,460.9c-0.5,0-0.9,0.4-0.9,0.9c0,0.5,0.4,0.9,0.9,0.9
		c0.5,0,0.9-0.4,0.9-0.9C666,461.3,665.6,460.9,665.1,460.9"/>
	<path clip-path="url(#SVGID_2_)" fill="#146CB0" d="M691.3,185.2c0,9.3-2.9,17.9-7.9,24.9c-1.5,2.1-3.1,4-4.9,5.8
		c-2.8,2.8-6,5.2-9.5,7.2c-1.3,0.7-2.7,1.4-4.1,2c-5.2,2.2-11,3.5-17.1,3.5c-4.5,0-8.8-0.7-12.8-1.9c-1.4-0.4-2.7-0.9-4.1-1.5
		c-4.2-1.8-8.1-4.2-11.5-7.2c-1-0.9-2-1.8-2.9-2.8c-1.3-1.3-2.4-2.7-3.5-4.1c-1.1-1.4-2-2.9-2.9-4.5c-3.6-6.3-5.6-13.6-5.6-21.3
		c0-3.6,0.5-7.2,1.3-10.6c0.3-1.1,0.6-2.2,1-3.2c0.9-2.6,2-5.1,3.3-7.5c0.8-1.5,1.8-2.9,2.8-4.3c1.1-1.5,2.4-3,3.7-4.4
		c0.9-1,1.9-1.9,2.9-2.8c7.6-6.6,17.5-10.6,28.4-10.6c11.9,0,22.8,4.8,30.6,12.6c1.8,1.8,3.4,3.7,4.9,5.8c0.1,0.2,0.3,0.4,0.4,0.6
		c0.7,1,1.3,2,1.9,3C689.2,170.2,691.3,177.5,691.3,185.2"/>
	<path clip-path="url(#SVGID_2_)" fill="#146CB0" d="M601.6,246.3c0,7.2-2.3,13.9-6.1,19.4c-1.1,1.6-2.4,3.1-3.8,4.5
		c-2.2,2.2-4.7,4-7.4,5.6c-1,0.6-2.1,1.1-3.2,1.6c-4.1,1.7-8.6,2.7-13.3,2.7c-3.5,0-6.8-0.5-10-1.5c-1.1-0.3-2.1-0.7-3.2-1.2
		c-3.3-1.4-6.3-3.3-8.9-5.6c-0.8-0.7-1.6-1.4-2.3-2.2c-1-1-1.9-2.1-2.7-3.2c-0.8-1.1-1.6-2.3-2.3-3.5c-2.8-4.9-4.4-10.6-4.4-16.6
		c0-2.8,0.4-5.6,1-8.2c0.2-0.9,0.5-1.7,0.7-2.5c0.7-2,1.6-4,2.6-5.8c0.7-1.2,1.4-2.3,2.2-3.4c0.9-1.2,1.8-2.3,2.9-3.4
		c0.7-0.8,1.5-1.5,2.3-2.2c5.9-5.1,13.6-8.2,22.1-8.2c9.3,0,17.7,3.8,23.8,9.8c1.4,1.4,2.7,2.9,3.8,4.5c0.1,0.2,0.2,0.3,0.3,0.5
		c0.5,0.8,1,1.5,1.4,2.3C600,234.6,601.6,240.3,601.6,246.3"/>
	<rect x="558.2" y="231.9" clip-path="url(#SVGID_2_)" fill="#3C3C3B" width="17.8" height="25.6"/>
	<path clip-path="url(#SVGID_2_)" fill="#FFFFFF" d="M552.8,231.2h2.8c0.3,0,0.6,0.3,0.6,0.6c0,0.3-0.3,0.6-0.6,0.6h-2.8v5.7h2.8
		c0.3,0,0.6,0.3,0.6,0.6c0,0.3-0.3,0.6-0.6,0.6h-2.8v5.7h2.8c0.3,0,0.6,0.3,0.6,0.6c0,0.3-0.3,0.6-0.6,0.6h-2.8v5.7h2.8
		c0.3,0,0.6,0.3,0.6,0.6c0,0.3-0.3,0.6-0.6,0.6h-2.8v5.7h2.8c0.3,0,0.6,0.3,0.6,0.6c0,0.3-0.3,0.6-0.6,0.6h-2.8v2.9h27.6v-34.7
		h-27.6V231.2z M573.2,252.9h-12.6v-1h12.6V252.9z M573.2,250.9h-12.6v-1h12.6V250.9z M566.9,233.4c2.1,0,3.7,1.6,3.7,3.7
		c0,2.3-1.7,4.2-3.7,4.2s-3.7-2-3.7-4.2C563.2,235,564.8,233.4,566.9,233.4 M560.6,247c0-2.3,1.2-4.5,3.1-5.6l0.3-0.2l0.2,0.3
		c0.8,0.9,1.7,1.4,2.7,1.4c1,0,2-0.5,2.7-1.4l0.2-0.3l0.3,0.2c1.9,1.2,3,3.3,3,5.6v0.4h-12.6V247z"/>
	<path clip-path="url(#SVGID_2_)" fill="#E95C45" d="M570.1,242.3l-0.1-0.1l-0.1,0.1c-0.8,0.8-1.9,1.3-3,1.3c-1.1,0-2.2-0.5-3-1.3
		l-0.1-0.1l-0.1,0.1c-1.3,1-2.2,2.5-2.3,4.1l0,0.2h11l0-0.2C572.2,244.7,571.4,243.3,570.1,242.3"/>
	<path clip-path="url(#SVGID_2_)" fill="#E95C45" d="M566.9,240.6c1.6,0,2.9-1.6,2.9-3.5c0-1.7-1.2-3-2.9-3c-1.7,0-2.9,1.2-2.9,3
		C563.9,239,565.3,240.6,566.9,240.6"/>
	<path clip-path="url(#SVGID_2_)" fill="#3C3C3B" d="M581,227.1h-28.8c-0.3,0-0.6,0.3-0.6,0.6v3.5h-2.8c-0.3,0-0.6,0.3-0.6,0.6
		c0,0.3,0.3,0.6,0.6,0.6h2.8v5.7h-2.8c-0.3,0-0.6,0.3-0.6,0.6s0.3,0.6,0.6,0.6h2.8v5.7h-2.8c-0.3,0-0.6,0.3-0.6,0.6
		c0,0.3,0.3,0.6,0.6,0.6h2.8v5.7h-2.8c-0.3,0-0.6,0.3-0.6,0.6s0.3,0.6,0.6,0.6h2.8v5.7h-2.8c-0.3,0-0.6,0.3-0.6,0.6
		c0,0.3,0.3,0.6,0.6,0.6h2.8v3.5c0,0.3,0.3,0.6,0.6,0.6H581c0.3,0,0.6-0.3,0.6-0.6v-35.9C581.6,227.3,581.3,227.1,581,227.1
		 M580.4,263h-27.6v-2.9h2.8c0.3,0,0.6-0.3,0.6-0.6c0-0.3-0.3-0.6-0.6-0.6h-2.8v-5.7h2.8c0.3,0,0.6-0.3,0.6-0.6s-0.3-0.6-0.6-0.6
		h-2.8v-5.7h2.8c0.3,0,0.6-0.3,0.6-0.6c0-0.3-0.3-0.6-0.6-0.6h-2.8v-5.7h2.8c0.3,0,0.6-0.3,0.6-0.6c0-0.3-0.3-0.6-0.6-0.6h-2.8v-5.7
		h2.8c0.3,0,0.6-0.3,0.6-0.6c0-0.3-0.3-0.6-0.6-0.6h-2.8v-2.9h27.6V263z"/>
	<rect x="560.6" y="249.9" clip-path="url(#SVGID_2_)" fill="#3C3C3B" width="12.6" height="1"/>
	<rect x="560.6" y="251.9" clip-path="url(#SVGID_2_)" fill="#3C3C3B" width="12.6" height="1"/>
	<rect x="629.6" y="169.6" clip-path="url(#SVGID_2_)" fill="#FFFFFF" width="41.9" height="29.4"/>
	<path clip-path="url(#SVGID_2_)" fill="#FFFFFF" d="M636.5,188.3c2.6-2.6,2.6-6.9,0-9.5c-1.3-1.3-3-2-4.8-2c-1.7,0-3.5,0.7-4.8,2
		c-2.6,2.6-2.6,6.9,0,9.5S633.9,191,636.5,188.3 M636.4,186.3c-0.4,0.6-0.8,1.2-1.4,1.6c0,0,0,0,0,0c-0.2,0.1-0.5,0.1-0.6-0.1
		c-0.1-0.2-0.1-0.5,0.1-0.6c0.5-0.4,0.9-0.8,1.2-1.3c0.1-0.1,0.2-0.2,0.4-0.2c0.1,0,0.2,0,0.2,0.1
		C636.5,185.8,636.6,186.1,636.4,186.3 M634.3,178.8c0.1,0,0.1,0,0.2,0.1c1.9,1.1,2.9,3.2,2.7,5.4c0,0,0,0,0,0
		c0,0.2-0.3,0.4-0.5,0.4c-0.2,0-0.4-0.3-0.4-0.5c0.2-1.8-0.6-3.6-2.2-4.5c-0.1-0.1-0.2-0.2-0.2-0.4C633.8,179,634,178.8,634.3,178.8
		"/>
	<path clip-path="url(#SVGID_2_)" fill="#FFFFFF" d="M624.2,190.2c-0.1,0-0.2,0-0.4,0c-0.4,0-0.7,0.1-1,0.4l-3.8,3.8
		c-0.3,0.3-0.5,0.8-0.4,1.3c0.1,0.5,0.5,0.8,1,1c0.5,0.1,1,0,1.3-0.3l3.8-3.8c0.3-0.3,0.5-0.8,0.3-1.3
		C625,190.7,624.7,190.3,624.2,190.2"/>
	<rect x="627.3" y="166.8" clip-path="url(#SVGID_2_)" fill="#FFFFFF" width="46.7" height="2.3"/>
	<path clip-path="url(#SVGID_2_)" fill="#E95C45" d="M636.3,185.7c-0.1,0-0.1-0.1-0.2-0.1c-0.2,0-0.3,0.1-0.4,0.2
		c-0.3,0.5-0.7,1-1.2,1.3c-0.2,0.1-0.3,0.4-0.1,0.6c0.1,0.2,0.4,0.3,0.6,0.1c0,0,0,0,0,0c0.6-0.4,1-1,1.4-1.6
		C636.6,186.1,636.5,185.8,636.3,185.7"/>
	<path clip-path="url(#SVGID_2_)" fill="#3C3C3B" d="M637.2,189c3-3,3-7.8,0-10.8c-1.5-1.5-3.4-2.2-5.4-2.2s-3.9,0.7-5.4,2.2
		c-2.9,2.9-3,7.5-0.3,10.5l-1,1c-0.2-0.1-0.4-0.2-0.7-0.3c-0.4-0.1-0.8-0.1-1.2,0c-0.4,0.1-0.7,0.3-1,0.6l-3.8,3.8
		c-0.6,0.6-0.8,1.4-0.6,2.2c0.2,0.8,0.8,1.4,1.6,1.6c0.8,0.2,1.6,0,2.2-0.6l3.8-3.8c0.6-0.6,0.8-1.4,0.6-2.2
		c-0.1-0.2-0.2-0.5-0.3-0.7l1-1C629.7,192,634.3,191.9,637.2,189 M624.8,192.4l-3.8,3.8c-0.3,0.3-0.8,0.5-1.3,0.3
		c-0.5-0.1-0.8-0.5-1-1c-0.1-0.5,0-1,0.4-1.3l3.8-3.8c0.3-0.3,0.6-0.4,0.9-0.4c0.1,0,0.2,0,0.4,0c0.5,0.1,0.8,0.5,1,1
		C625.3,191.6,625.1,192.1,624.8,192.4 M627,178.8c1.3-1.3,3-2,4.8-2c1.7,0,3.5,0.7,4.8,2c2.6,2.6,2.6,6.9,0,9.5
		c-2.6,2.6-6.9,2.6-9.5,0C624.4,185.7,624.4,181.4,627,178.8"/>
	<path clip-path="url(#SVGID_2_)" fill="#E95C45" d="M634,179.7c1.6,0.9,2.4,2.7,2.2,4.5c0,0.2,0.1,0.5,0.4,0.5
		c0.2,0,0.5-0.1,0.5-0.4c0,0,0,0,0,0c0.3-2.2-0.8-4.3-2.7-5.4c-0.1,0-0.1-0.1-0.2-0.1c-0.2,0-0.5,0.2-0.5,0.4
		C633.8,179.4,633.9,179.6,634,179.7"/>
	<path clip-path="url(#SVGID_2_)" fill="#E95C45" d="M669.3,177.7c0.2-0.2,0.2-0.6,0-0.8l-4.8-4.8c-0.1-0.1-0.3-0.2-0.4-0.2
		c-0.1,0-0.3,0.1-0.4,0.2c-0.2,0.2-0.2,0.6,0,0.8l4.8,4.8C668.7,177.9,669,177.9,669.3,177.7"/>
	<path clip-path="url(#SVGID_2_)" fill="#3C3C3B" d="M674.6,165.6h-23.4v-2.8c0-0.3-0.3-0.6-0.6-0.6c-0.3,0-0.6,0.3-0.6,0.6v2.8
		h-23.4c-0.4,0-0.6,0.3-0.6,0.6v3.4c0,0.3,0.3,0.6,0.6,0.6h2.3v5.1c0.3-0.2,0.7-0.3,1.1-0.4v-4.7h41v28.5h-41v-6c0,0-0.1,0-0.1,0
		c-0.1-0.1-0.2-0.1-0.4-0.2c-0.2,0-0.5,0-0.7,0v6.3c0,0.6,0.5,1.1,1.1,1.1h19.9v2.6l-7.2,7.8c-0.3,0.2-0.3,0.5-0.1,0.8
		c0.2,0.3,0.5,0.3,0.8,0.1c0.1,0,0.1-0.1,0.1-0.2l6.4-6.9v5.4c0,0.3,0.3,0.6,0.6,0.6c0.3,0,0.6-0.3,0.6-0.6v-5.4l6.4,6.9
		c0.2,0.3,0.5,0.3,0.8,0.2c0.3-0.2,0.3-0.5,0.2-0.8c0-0.1-0.1-0.1-0.1-0.2l-7.2-7.8v-2.6h19.9c0.6,0,1.1-0.5,1.1-1.1v-28.5h2.3
		c0.3,0,0.6-0.3,0.6-0.6v-3.4C675.1,165.9,674.9,165.6,674.6,165.6 M674,169h-46.7v-2.3H674V169z"/>
	<path clip-path="url(#SVGID_2_)" fill="#E95C45" d="M661.6,173.5c-0.1,0-0.3,0-0.4,0.2c-0.2,0.2-0.2,0.6,0,0.8l5.6,5.6
		c0.2,0.2,0.6,0.2,0.8,0c0.2-0.2,0.2-0.6,0-0.8l-5.6-5.6C661.9,173.5,661.8,173.5,661.6,173.5"/>
	<rect x="654.6" y="177.6" clip-path="url(#SVGID_2_)" fill="#F7C245" width="2" height="12.8"/>
	<rect x="644.6" y="183.6" clip-path="url(#SVGID_2_)" fill="#F7C245" width="2" height="6.8"/>
	<rect x="649.6" y="180.6" clip-path="url(#SVGID_2_)" fill="#F7C245" width="2" height="9.8"/>
	<path clip-path="url(#SVGID_2_)" fill="#3C3C3B" d="M659.8,190.4h-2.4v-13.2c0-0.2-0.2-0.4-0.4-0.4h-2.7c-0.2,0-0.4,0.2-0.4,0.4
		v13.2h-1.5v-10.2c0-0.2-0.2-0.4-0.4-0.4h-2.7c-0.2,0-0.4,0.2-0.4,0.4v10.2h-1.5v-7.2c0-0.2-0.2-0.4-0.4-0.4h-2.7
		c-0.2,0-0.4,0.2-0.4,0.4v7.2h-2.4c-0.2,0-0.4,0.2-0.4,0.4c0,0.2,0.2,0.4,0.4,0.4h7.8h2.7h2.3h2.7h2.7c0.2,0,0.4-0.2,0.4-0.4
		C660.1,190.6,660,190.4,659.8,190.4 M644.6,183.6h2v6.8h-2V183.6z M649.6,180.6h2v9.8h-2V180.6z M654.6,177.6h2v12.8h-2V177.6z"/>
	<path clip-path="url(#SVGID_2_)" fill="#146CB0" d="M299.9,150.6c0,9.2-2.9,17.8-7.9,24.8c-1.4,2.1-3.1,4-4.9,5.8
		c-2.8,2.8-6,5.2-9.4,7.1c-1.3,0.7-2.7,1.4-4.1,2c-5.2,2.2-11,3.5-17,3.5c-4.4,0-8.7-0.7-12.8-1.9c-1.4-0.4-2.7-0.9-4.1-1.5
		c-4.2-1.8-8.1-4.2-11.5-7.1c-1-0.9-2-1.8-2.9-2.8c-1.2-1.3-2.4-2.7-3.5-4.1c-1.1-1.4-2-2.9-2.9-4.5c-3.6-6.3-5.6-13.5-5.6-21.3
		c0-3.6,0.5-7.2,1.3-10.5c0.3-1.1,0.6-2.2,0.9-3.2c0.9-2.6,2-5.1,3.3-7.4c0.8-1.5,1.8-2.9,2.8-4.3c1.1-1.5,2.3-3,3.7-4.4
		c0.9-1,1.9-1.9,2.9-2.8c7.6-6.6,17.5-10.6,28.3-10.6c11.9,0,22.7,4.8,30.5,12.6c1.8,1.8,3.4,3.7,4.9,5.8c0.1,0.2,0.3,0.4,0.4,0.6
		c0.7,1,1.3,2,1.8,3C297.9,135.6,299.9,142.8,299.9,150.6"/>
	<path clip-path="url(#SVGID_2_)" fill="#146CB0" d="M481.2,162.7c0,7-2.2,13.6-6,18.9c-1.1,1.6-2.3,3-3.7,4.4
		c-2.1,2.1-4.5,4-7.2,5.4c-1,0.6-2,1.1-3.1,1.5c-4,1.7-8.4,2.6-13,2.6c-3.4,0-6.7-0.5-9.7-1.5c-1.1-0.3-2.1-0.7-3.1-1.1
		c-3.2-1.4-6.1-3.2-8.7-5.4c-0.8-0.7-1.5-1.4-2.2-2.1c-1-1-1.8-2-2.7-3.2c-0.8-1.1-1.6-2.2-2.2-3.4c-2.7-4.8-4.3-10.3-4.3-16.2
		c0-2.8,0.3-5.5,1-8c0.2-0.8,0.5-1.7,0.7-2.5c0.7-2,1.5-3.9,2.5-5.7c0.6-1.1,1.3-2.2,2.1-3.3c0.9-1.2,1.8-2.3,2.8-3.3
		c0.7-0.7,1.4-1.4,2.2-2.1c5.8-5,13.3-8,21.6-8c9.1,0,17.3,3.7,23.2,9.6c1.4,1.3,2.6,2.8,3.7,4.4c0.1,0.2,0.2,0.3,0.3,0.5
		c0.5,0.7,1,1.5,1.4,2.3C479.6,151.2,481.2,156.8,481.2,162.7"/>
	<path clip-path="url(#SVGID_2_)" fill="#FFFFFF" d="M242,170.6c0,1.3,1,2.4,2.4,2.4h25.6c1.3,0,2.4-1.1,2.4-2.4v-3.7H242V170.6z
		 M257.2,167.8c1.2,0,2.2,1,2.1,2.1c0,1.1-0.9,2.1-2.1,2.1c-1.1,0-2.1-0.9-2.1-2.1C255.1,168.8,256,167.8,257.2,167.8"/>
	<path clip-path="url(#SVGID_2_)" fill="#FFFFFF" d="M257.2,171c0.6,0,1-0.4,1-1c0-0.5-0.4-1-1-1s-1,0.4-1,1
		C256.2,170.5,256.6,171,257.2,171"/>
	<path clip-path="url(#SVGID_2_)" fill="#FFFFFF" d="M278.2,150.7c-0.7-0.2-1.8-0.3-2.5-0.4c-0.8,2.8-3.4,4.8-6.4,4.8
		c-1.3,0-2.6-0.4-3.7-1.2l-1.8,1.8c1.6,1.2,3.5,1.9,5.5,1.9C273.5,157.5,277.2,154.7,278.2,150.7"/>
	<polygon clip-path="url(#SVGID_2_)" fill="#FFFFFF" points="260.5,150.2 261.7,156.2 266.6,151.4 	"/>
	<path clip-path="url(#SVGID_2_)" fill="#FFFFFF" d="M237.8,142.9c-0.7,1-1.7,1.5-2.8,1.5h-0.4v8.6v0.1c0.4,0.1,1,0.2,1.6,0.4
		c0.1,0.1,0.3,0.2,0.4,0.2c0.6,0.4,1.2,0.7,2.5,1c1.5,0.3,4.9,0.1,4.9,0.1h3.4c0.5,0,0.9-0.4,0.9-0.9c0-0.5-0.4-0.9-0.9-0.9H244v-1
		h4.8c0.5,0,0.9-0.4,0.9-0.9c0-0.5-0.4-0.9-0.9-0.9H245v-1.1h4.5c0.5,0,0.9-0.4,0.9-0.9c0-0.5-0.4-0.9-0.9-0.9h-4.6v-1.1h8.2
		c0.5,0,0.9-0.4,0.9-0.9c0-0.5-0.4-0.9-0.9-0.9h-10.8v-1.1h2.2c0.5,0,0.9-0.4,0.9-0.9c0-0.5-0.4-0.9-0.9-0.9h-0.1h-3.8
		C239.4,141.4,238.4,142,237.8,142.9"/>
	<polygon clip-path="url(#SVGID_2_)" fill="#FFFFFF" points="278.2,146.9 277,140.8 272.1,145.7 	"/>
	<path clip-path="url(#SVGID_2_)" fill="#FFFFFF" d="M274.8,141.4c-1.6-1.2-3.5-1.9-5.5-1.9c-4.2,0-7.8,2.8-8.8,6.8
		c0.7,0.1,1.8,0.3,2.5,0.4c0.8-2.8,3.4-4.8,6.4-4.8c1.3,0,2.6,0.4,3.7,1.2L274.8,141.4z"/>
	<path clip-path="url(#SVGID_2_)" fill="#FFFFFF" d="M269.9,126.3h-25.6c-1.3,0-2.4,1.1-2.4,2.4v2.2h30.4v-2.2
		C272.3,127.5,271.3,126.3,269.9,126.3 M259.8,129.2H252v-1.1h7.8V129.2z M262.2,129.2H261v-1.1h1.1V129.2z"/>
	<polygon clip-path="url(#SVGID_2_)" fill="#FFFFFF" points="278.2,146.9 277,140.8 272.1,145.7 	"/>
	<path clip-path="url(#SVGID_2_)" fill="#FFFFFF" d="M260.4,146.3c0.7,0.2,1.8,0.3,2.5,0.4c0.8-2.8,3.4-4.8,6.4-4.8
		c1.3,0,2.6,0.4,3.7,1.2l1.8-1.8c-1.6-1.2-3.5-1.9-5.5-1.9C265.1,139.5,261.5,142.3,260.4,146.3"/>
	<polygon clip-path="url(#SVGID_2_)" fill="#FFFFFF" points="260.5,150.2 261.7,156.2 266.6,151.4 	"/>
	<path clip-path="url(#SVGID_2_)" fill="#FFFFFF" d="M263.1,156.4l-2.1,2.1l-1.9-9.8l9.8,1.9l-2.4,2.4c0.9,0.6,1.9,0.9,2.9,0.9
		c1.3,0,2.5-0.5,3.5-1.2V147l-3-0.6l2.4-2.4c-0.9-0.6-1.9-0.9-2.9-0.9c-2.6,0-4.9,1.9-5.4,4.4l-0.1,0.5l-4.6-0.8l0.1-0.5
		c0.9-4.8,5.1-8.3,10-8.3c1,0,2.1,0.2,3.1,0.5v-6.7h-30.3v8.1h2.5c1.1,0,2,0.9,2,2c0,0.3-0.1,0.6-0.2,0.9h6.7c1.1,0,2,0.9,2,2
		c0,1.1-0.9,2-2,2h-1.8c0.2,0.3,0.2,0.6,0.2,0.9c0,0.7-0.4,1.3-1,1.7c0.2,0.4,0.4,0.7,0.4,1.2c0,1-0.7,1.7-1.6,1.9
		c0.2,0.3,0.2,0.6,0.2,1c0,1.1-0.9,2-2,2h-3.4c-0.1,0-1,0.1-2.1,0.1v9.6h30.4v-7.5c-1,0.3-1.9,0.4-3,0.4
		C267.2,158.6,264.9,157.8,263.1,156.4"/>
	<path clip-path="url(#SVGID_2_)" fill="#FFFFFF" d="M278.2,150.7c-0.7-0.2-1.8-0.3-2.5-0.4c-0.8,2.8-3.4,4.8-6.4,4.8
		c-1.3,0-2.6-0.4-3.7-1.2l-1.8,1.8c1.6,1.2,3.5,1.9,5.5,1.9C273.5,157.5,277.2,154.7,278.2,150.7"/>
	<path clip-path="url(#SVGID_2_)" fill="#FFFFFF" d="M247.4,154.8c0.5,0,0.9-0.4,0.9-0.9s-0.4-0.9-0.9-0.9H244v-1h4.8
		c0.5,0,0.9-0.4,0.9-0.9c0-0.5-0.4-0.9-0.9-0.9H245v-1.1h4.5c0.5,0,0.9-0.4,0.9-0.9c0-0.5-0.4-0.9-0.9-0.9h-4.6v-1.1h8.2
		c0.5,0,0.9-0.4,0.9-0.9c0-0.5-0.4-0.9-0.9-0.9h-10.8v-1.1h2.2c0.5,0,0.9-0.4,0.9-0.9c0-0.5-0.4-0.9-0.9-0.9h-0.1h-3.8
		c-1.1,0-2.2,0.5-2.8,1.4c-0.7,1-1.7,1.5-2.8,1.5h-0.4v8.6v0.1c0.4,0.1,1,0.2,1.6,0.4c0.1,0.1,0.3,0.2,0.4,0.2
		c0.6,0.4,1.2,0.7,2.5,1c1.5,0.3,4.9,0.1,4.9,0.1H247.4z"/>
	<path clip-path="url(#SVGID_2_)" fill="#3C3C3B" d="M240.9,170.5c0,1.9,1.6,3.5,3.5,3.5h25.6c1.9,0,3.5-1.6,3.5-3.5v-4.3h-32.6
		V170.5z M242,166.9h30.3v3.7c0,1.3-1,2.4-2.4,2.4h-25.6c-1.3,0-2.4-1.1-2.4-2.4V166.9z"/>
	<path clip-path="url(#SVGID_2_)" fill="#3C3C3B" d="M242,128.7c0-1.3,1-2.4,2.4-2.4h25.6c1.3,0,2.4,1.1,2.4,2.4v2.2h1.1v-2.2
		c0-1.9-1.6-3.5-3.5-3.5h-25.6c-1.9,0-3.5,1.6-3.5,3.5v2.2h1.1V128.7z"/>
	<path clip-path="url(#SVGID_2_)" fill="#3C3C3B" d="M279.4,150.3l0.1-0.5l-0.5-0.2c0.1,0,0.1,0-3.5-0.6l-0.5-0.1l-0.1,0.5
		c-0.5,2.5-2.8,4.4-5.4,4.4c-1,0-2-0.3-2.9-0.9l2.4-2.4l-9.8-1.9l1.9,9.8l2.1-2.1c1.8,1.4,4,2.2,6.3,2.2c1,0,2-0.1,3-0.4v7.5H242
		V156c1,0,1.9-0.1,2.1-0.1h3.4c1.1,0,2-0.9,2-2c0-0.4-0.1-0.7-0.2-1c0.9-0.2,1.6-1,1.6-1.9c0-0.4-0.1-0.8-0.4-1.2c0.6-0.4,1-1,1-1.7
		c0-0.3-0.1-0.6-0.2-0.9h1.8c1.1,0,2-0.9,2-2c0-1.1-0.9-2-2-2h-6.7c0.2-0.3,0.2-0.6,0.2-0.9c0-1.1-0.9-2-2-2h-0.1h-2.4v-8.1h30.4
		v6.7c-1-0.3-2-0.5-3.1-0.5c-4.9,0-9.1,3.5-10,8.3l-0.1,0.5l4.6,0.8l0.1-0.5c0.5-2.5,2.8-4.4,5.4-4.4c1,0,2,0.3,2.9,0.9l-2.4,2.4
		l9.7,1.9l-1.9-9.8l-2.1,2.1c-0.7-0.5-1.3-1-2.1-1.3V131h-1.1H242h-1.1v9.3h-0.3h-0.2c-1.4,0.1-2.7,0.7-3.4,1.9
		c-0.4,0.6-1.1,1-1.9,1h-0.7c0-0.1-0.1-0.1-0.1-0.1c-0.3-0.3-0.8-0.4-1.3-0.4c-0.5,0-0.7,0.1-0.9,0.1c-0.2,0-0.4,0.1-1,0.1v1.1
		c0.7,0,0.8,0,1.1-0.1c0.2,0,0.4-0.1,0.8-0.1c0.2,0,0.4,0.1,0.4,0.2c0.1,0.1,0.1,0.1,0.1,0.2v8.8c0,0.1,0,0.2-0.1,0.2
		c-0.1,0.1-0.3,0.2-0.4,0.2c-0.6-0.1-0.7-0.1-0.7-0.1c-0.2-0.1-0.3-0.1-1.1-0.1v1.1h0.2h0.6c0.1,0.1,0.3,0.1,1.1,0.2h0.2
		c0.4,0,0.7-0.2,1-0.4c0.3,0,1.1,0.1,1.6,0.4c0.1,0.1,0.3,0.2,0.4,0.2c0.7,0.4,1.3,0.8,2.8,1.2c0.5,0.1,1.3,0.1,1.9,0.2v10.2h32.6
		v-8.4C276.4,156.5,278.8,153.8,279.4,150.3"/>
	<polygon clip-path="url(#SVGID_2_)" fill="#F7C245" points="277,140.8 278.2,146.9 272.1,145.7 	"/>
	<path clip-path="url(#SVGID_2_)" fill="#F7C245" d="M274.8,141.4l-1.8,1.8c-1.1-0.7-2.4-1.2-3.7-1.2c-3,0-5.5,2-6.4,4.8
		c-0.7-0.2-1.8-0.3-2.5-0.4c1-4,4.6-6.8,8.8-6.8C271.3,139.5,273.2,140.2,274.8,141.4"/>
	<path clip-path="url(#SVGID_2_)" fill="#E95C45" d="M239.1,154.7c-1.3-0.3-1.9-0.7-2.5-1c-0.2-0.1-0.3-0.2-0.5-0.2
		c-0.5-0.3-1.1-0.4-1.6-0.4V153v-8.6h0.4c1.1,0,2.2-0.5,2.8-1.5c0.6-0.9,1.6-1.4,2.8-1.4h3.8h0.1c0.5,0,0.9,0.4,0.9,0.9
		c0,0.5-0.4,0.9-0.9,0.9h-2.2v1.1H253c0.5,0,0.9,0.4,0.9,0.9c0,0.5-0.4,0.9-0.9,0.9h-8.2v1.1h4.6c0.5,0,0.9,0.4,0.9,0.9
		c0,0.5-0.4,0.9-0.9,0.9H245v1.1h3.8c0.5,0,0.9,0.4,0.9,0.9c0,0.5-0.4,0.9-0.9,0.9H244v1h3.4c0.5,0,0.9,0.4,0.9,0.9
		c0,0.5-0.4,0.9-0.9,0.9H244v0.1v-0.1C244,154.8,240.6,155,239.1,154.7"/>
	<polygon clip-path="url(#SVGID_2_)" fill="#F7C245" points="261.7,156.2 260.5,150.2 266.6,151.4 	"/>
	<path clip-path="url(#SVGID_2_)" fill="#F7C245" d="M269.4,157.5c-2,0-4-0.7-5.5-1.9l1.8-1.8c1.1,0.7,2.4,1.2,3.7,1.2
		c3,0,5.5-2,6.4-4.8c0.7,0.1,1.8,0.3,2.5,0.4C277.2,154.7,273.5,157.5,269.4,157.5"/>
	<rect x="252" y="128.1" clip-path="url(#SVGID_2_)" fill="#3C3C3B" width="7.8" height="1.1"/>
	<rect x="261" y="128.1" clip-path="url(#SVGID_2_)" fill="#3C3C3B" width="1.1" height="1.1"/>
	<path clip-path="url(#SVGID_2_)" fill="#3C3C3B" d="M257.2,172c1.2,0,2.1-1,2.1-2.1c0.1-1.1-0.9-2.1-2.1-2.1c-1.2,0-2.1,1-2.1,2.1
		C255.1,171.1,256,172,257.2,172 M257.2,169c0.5,0,1,0.4,1,1c0.1,0.5-0.4,1-1,1c-0.5,0-1-0.4-1-1C256.2,169.5,256.6,169,257.2,169"
		/>
	<rect x="429.2" y="147.5" clip-path="url(#SVGID_2_)" fill="#FFFFFF" width="38" height="28.4"/>
	<path clip-path="url(#SVGID_2_)" fill="#EAB629" d="M459.7,158.4c0,1.7-1.3,3-3,3c-1.7,0-3-1.3-3-3c0-1.7,1.3-3,3-3
		C458.3,155.3,459.7,156.7,459.7,158.4"/>
	<polygon clip-path="url(#SVGID_2_)" fill="#E95C45" points="445,161.5 437.3,171.2 443.8,171.4 448,165.9 	"/>
	<polygon clip-path="url(#SVGID_2_)" fill="#E95C45" points="444.3,171.4 458.7,171.2 451.7,161.4 	"/>
	<path clip-path="url(#SVGID_2_)" fill="#3C3C3B" d="M428.3,152.9h1v-5.4h5.4v-1h-5.1c-0.7,0-1.3,0.6-1.3,1.3V152.9z"/>
	<path clip-path="url(#SVGID_2_)" fill="#3C3C3B" d="M434.6,176.8v-1h-5.4v-5.4h-1v5.1c0,0.7,0.6,1.3,1.3,1.3H434.6z"/>
	<path clip-path="url(#SVGID_2_)" fill="#3C3C3B" d="M468.2,147.7c0-0.7-0.6-1.3-1.3-1.3h-5.1v1h5.4v5.4h1V147.7z"/>
	<path clip-path="url(#SVGID_2_)" fill="#3C3C3B" d="M467,176.8c0.7,0,1.3-0.6,1.3-1.3v-5.1h-1v5.4h-5.4v1H467z"/>
	<path clip-path="url(#SVGID_2_)" fill="#3C3C3B" d="M435.7,171.8h24.7v-0.7h-1.2l-0.1-0.1l-6.2-8.7l1-1l-0.5-0.5l-0.9,0.9l-0.7-1
		l-3.7,4.6l-3.3-4.6l-8.2,10.4h-1V171.8z M458.5,171.1h-13.9l7.3-9.2L458.5,171.1z M443.7,171.1h-6.1l7.3-9.2l2.9,4L443.7,171.1z"/>
	<rect x="456.3" y="153.1" clip-path="url(#SVGID_2_)" fill="#3C3C3B" width="0.7" height="1.2"/>
	<rect x="456.3" y="162.2" clip-path="url(#SVGID_2_)" fill="#3C3C3B" width="0.7" height="1.2"/>
	<rect x="460.5" y="157.9" clip-path="url(#SVGID_2_)" fill="#3C3C3B" width="1.2" height="0.7"/>
	<rect x="451.4" y="157.9" clip-path="url(#SVGID_2_)" fill="#3C3C3B" width="1.2" height="0.7"/>
	
		<rect x="459.2" y="161.1" transform="matrix(-0.7071 -0.7071 0.7071 -0.7071 670.7437 600.8223)" clip-path="url(#SVGID_2_)" fill="#3C3C3B" width="1.2" height="0.7"/>
	
		<rect x="452.8" y="154.7" transform="matrix(-0.7071 -0.7071 0.7071 -0.7071 664.319 585.2993)" clip-path="url(#SVGID_2_)" fill="#3C3C3B" width="1.2" height="0.7"/>
	
		<rect x="459.5" y="154.4" transform="matrix(-0.7071 -0.7071 0.7071 -0.7071 675.2895 589.8471)" clip-path="url(#SVGID_2_)" fill="#3C3C3B" width="0.7" height="1.2"/>
	<path clip-path="url(#SVGID_2_)" fill="#3C3C3B" d="M456.7,155c-1.8,0-3.3,1.5-3.3,3.3c0,1.8,1.5,3.3,3.3,3.3
		c1.8,0,3.3-1.5,3.3-3.3C460,156.5,458.5,155,456.7,155 M456.7,161.1c-1.5,0-2.8-1.2-2.8-2.8c0-1.5,1.2-2.8,2.8-2.8
		c1.5,0,2.8,1.2,2.8,2.8C459.4,159.9,458.2,161.1,456.7,161.1"/>
	<path clip-path="url(#SVGID_2_)" fill="#146CB0" d="M549.7,83.9c0,7-2.2,13.6-6,18.9c-1.1,1.6-2.3,3-3.7,4.4
		c-2.1,2.1-4.5,4-7.2,5.4c-1,0.6-2,1.1-3.1,1.5c-4,1.7-8.4,2.7-13,2.7c-3.4,0-6.7-0.5-9.7-1.5c-1.1-0.3-2.1-0.7-3.1-1.1
		c-3.2-1.4-6.1-3.2-8.7-5.4c-0.8-0.7-1.5-1.4-2.2-2.1c-1-1-1.8-2-2.7-3.2c-0.8-1.1-1.6-2.2-2.2-3.4c-2.7-4.8-4.3-10.3-4.3-16.2
		c0-2.8,0.3-5.5,1-8c0.2-0.8,0.5-1.7,0.7-2.5c0.7-2,1.5-3.9,2.5-5.7c0.6-1.1,1.3-2.2,2.1-3.3c0.9-1.2,1.8-2.3,2.8-3.3
		c0.7-0.7,1.4-1.4,2.2-2.1c5.8-5,13.3-8,21.6-8c9.1,0,17.3,3.7,23.2,9.6c1.4,1.3,2.6,2.8,3.7,4.4c0.1,0.2,0.2,0.3,0.3,0.5
		c0.5,0.7,1,1.5,1.4,2.3C548.1,72.5,549.7,78,549.7,83.9"/>
	<path clip-path="url(#SVGID_2_)" fill="#F8F7F7" d="M534.2,74.9l0,18.5c0,1.4-1.1,2.5-2.5,2.5l-17.2,0l-12,0c-0.8,0-1.6-0.4-2-1.1
		c-0.3-0.4-0.4-0.9-0.4-1.4l0-18.5c0-1.4,1.1-2.5,2.5-2.5l29.2,0C533,72.4,534.2,73.6,534.2,74.9"/>
	<path clip-path="url(#SVGID_2_)" fill="#3C3C3B" d="M531.7,96.3l-29.2,0c-0.9,0-1.8-0.5-2.3-1.3c-0.3-0.5-0.5-1-0.5-1.6l0-18.5
		c0-1.6,1.3-2.8,2.8-2.8l29.2,0c0.8,0,1.5,0.3,2,0.8c0.5,0.5,0.8,1.2,0.8,2l0,18.5C534.5,95,533.2,96.3,531.7,96.3 M502.5,72.8
		c-1.1,0-2.1,0.9-2.1,2.1l0,18.5c0,0.4,0.1,0.8,0.4,1.2c0.4,0.6,1,0.9,1.7,0.9l29.2,0c1.1,0,2.1-0.9,2.1-2.1l0-18.5
		c0-0.6-0.2-1.1-0.6-1.5c-0.4-0.4-0.9-0.6-1.5-0.6L502.5,72.8z"/>
	<rect x="505.3" y="84.2" clip-path="url(#SVGID_2_)" fill="#3C3C3B" width="14.6" height="2.1"/>
	<rect x="505.3" y="88.1" clip-path="url(#SVGID_2_)" fill="#3C3C3B" width="14.6" height="0.6"/>
	<rect x="505.3" y="89.7" clip-path="url(#SVGID_2_)" fill="#3C3C3B" width="14.6" height="0.6"/>
	<rect x="500.1" y="76.5" clip-path="url(#SVGID_2_)" fill="#3C3C3B" width="34.1" height="5.8"/>
	<path clip-path="url(#SVGID_2_)" fill="#146CB0" d="M500.3,253.1c0,4.6-1.4,8.9-3.9,12.4c-0.7,1-1.5,2-2.4,2.9
		c-1.4,1.4-3,2.6-4.7,3.6c-0.7,0.4-1.3,0.7-2,1c-2.6,1.1-5.5,1.7-8.5,1.7c-2.2,0-4.4-0.3-6.4-1c-0.7-0.2-1.4-0.5-2-0.7
		c-2.1-0.9-4-2.1-5.7-3.6c-0.5-0.4-1-0.9-1.5-1.4c-0.6-0.7-1.2-1.3-1.7-2.1c-0.5-0.7-1-1.5-1.5-2.2c-1.8-3.1-2.8-6.8-2.8-10.6
		c0-1.8,0.2-3.6,0.6-5.3c0.1-0.5,0.3-1.1,0.5-1.6c0.4-1.3,1-2.5,1.7-3.7c0.4-0.7,0.9-1.5,1.4-2.1c0.6-0.8,1.2-1.5,1.8-2.2
		c0.5-0.5,0.9-0.9,1.5-1.4c3.8-3.3,8.7-5.3,14.1-5.3c5.9,0,11.3,2.4,15.2,6.3c0.9,0.9,1.7,1.8,2.4,2.9c0.1,0.1,0.1,0.2,0.2,0.3
		c0.3,0.5,0.6,1,0.9,1.5C499.3,245.7,500.3,249.3,500.3,253.1"/>
	<path clip-path="url(#SVGID_2_)" fill="#FFFFFF" d="M491.3,255.8l-1.2-0.9c0.4-0.9,0.6-1.6,0.7-2.5l0,0l1.5-0.2
		c0.3,0,0.6-0.3,0.5-0.7l-0.3-2.6c0-0.3-0.3-0.6-0.7-0.5l-1.6,0.1c-0.3-0.8-0.5-1.3-1.3-2.3l0,0l1-1.1c0.2-0.3,0.2-0.6-0.1-0.8
		l-2-1.6c-0.3-0.2-0.5-0.1-0.7,0.2l-0.9,1.2c-0.9-0.4-1.7-0.6-2.5-0.7l0,0l-0.2-1.5c0-0.3-0.3-0.6-0.7-0.5l-2.6,0.3
		c-0.3,0-0.6,0.3-0.5,0.7l0.1,1.6c-0.8,0.3-1.3,0.5-2.3,1.3l0,0l-1.1-1c-0.3-0.2-0.5-0.2-0.7,0.1l-1.6,2c-0.2,0.3-0.2,0.6,0.1,0.8
		l1.2,0.9c-0.4,0.9-0.6,1.6-0.7,2.4l0,0l-1.5,0.2c-0.3,0-0.6,0.3-0.5,0.7l0.3,2.6c0,0.3,0.3,0.6,0.7,0.5l1.5-0.1
		c0.3,0.8,0.7,1.5,1.3,2.2l0,0l-0.9,1.2c-0.2,0.3-0.3,0.6,0,0.8l2,1.6c0.3,0.2,0.7,0.2,0.9-0.1l0.9-1.2c0.9,0.4,1.6,0.6,2.4,0.6l0,0
		l0.2,1.5c0,0.3,0.4,0.6,0.7,0.6l2.6-0.3c0.3,0,0.6-0.3,0.5-0.7l-0.1-1.5c0.8-0.3,1.3-0.4,2.2-1.3l0,0l1.1,1c0.3,0.2,0.7,0.3,0.9,0
		l1.6-2C491.8,256.4,491.6,256,491.3,255.8 M479.5,253.2c0,0,0-0.1-0.1-0.1c-0.1-0.1-0.1-0.2-0.1-0.3c0-0.1,0-0.1-0.1-0.2
		c0-0.1,0-0.1-0.1-0.2c0,0,0-0.1,0-0.1c0-0.2-0.1-0.3-0.1-0.5c0-0.2,0-0.3,0-0.5c0-0.1,0-0.1,0-0.2c0-0.2,0.1-0.4,0.1-0.6
		c0.1-0.5,0.4-0.9,0.7-1.3c0.7-0.9,1.7-1.3,2.7-1.4c0.1,0,0.2,0,0.3,0c0,0,0.1,0,0.1,0c0.1,0,0.1,0,0.2,0c0.2,0,0.4,0,0.5,0.1
		c0.1,0,0.1,0,0.2,0c0.5,0.1,0.9,0.4,1.3,0.7c0.5,0.4,0.8,0.9,1.1,1.4c0,0.1,0,0.1,0.1,0.2c0,0.1,0.1,0.2,0.1,0.3
		c0,0.1,0,0.1,0.1,0.2c0,0,0,0.1,0,0.1c0,0.1,0,0.1,0,0.2c0,0.1,0,0.2,0,0.3c0,0.1,0,0.1,0,0.2c0,0.2,0,0.3,0,0.5c0,0.1,0,0.1,0,0.2
		c0,0.1,0,0.1,0,0.2c0,0.1,0,0.2-0.1,0.3c-0.1,0.5-0.4,1-0.7,1.5c-0.2,0.3-0.4,0.5-0.7,0.7c0,0-0.1,0.1-0.2,0.1
		c-0.1,0.1-0.2,0.1-0.2,0.1c-0.1,0-0.1,0.1-0.2,0.1c0,0-0.1,0-0.1,0.1c-0.1,0-0.1,0.1-0.2,0.1c-0.1,0-0.1,0-0.2,0.1c0,0-0.1,0-0.1,0
		c0,0-0.1,0-0.1,0c0,0-0.1,0-0.1,0c-0.1,0-0.1,0-0.2,0c0,0-0.1,0-0.1,0c-0.1,0-0.1,0-0.2,0c0,0-0.1,0-0.1,0c-0.1,0-0.2,0-0.4,0
		c0,0-0.1,0-0.1,0c-0.1,0-0.1,0-0.2,0c-0.1,0-0.1,0-0.2,0c0,0-0.1,0-0.1,0c-0.1,0-0.1,0-0.2,0c-0.6-0.1-1.1-0.4-1.6-0.7
		c-0.4-0.3-0.7-0.7-0.9-1.1C479.6,253.3,479.6,253.3,479.5,253.2"/>
	<path clip-path="url(#SVGID_2_)" fill="#3C3C3B" d="M483,241.4c0.3,0,0.6,0.2,0.6,0.5l0.2,1.5l0,0c0.8,0.1,1.6,0.3,2.5,0.7l0.9-1.2
		c0.1-0.2,0.3-0.3,0.4-0.3c0.1,0,0.2,0,0.3,0.1l2,1.6c0.3,0.2,0.3,0.5,0.1,0.8l-1,1.1l0,0c0.9,0.9,1,1.5,1.3,2.3l1.6-0.1
		c0,0,0,0,0.1,0c0.3,0,0.6,0.2,0.6,0.5l0.3,2.6c0,0.3-0.2,0.6-0.5,0.7l-1.5,0.2l0,0c-0.1,0.8-0.3,1.6-0.7,2.5l1.2,0.9
		c0.3,0.2,0.4,0.6,0.2,0.8l-1.6,2c-0.1,0.1-0.2,0.2-0.4,0.2c-0.2,0-0.3-0.1-0.5-0.2l-1.1-1l0,0c-0.9,0.9-1.4,1-2.2,1.3l0.1,1.5
		c0,0.3-0.2,0.6-0.5,0.7l-2.6,0.3c0,0,0,0-0.1,0c-0.3,0-0.6-0.3-0.6-0.6l-0.2-1.5l0,0c-0.8-0.1-1.5-0.2-2.4-0.6l-0.9,1.2
		c-0.1,0.2-0.3,0.2-0.5,0.2c-0.1,0-0.3,0-0.4-0.1l-2-1.6c-0.3-0.2-0.2-0.5,0-0.8l0.9-1.2l0,0c-0.6-0.7-1-1.4-1.3-2.2l-1.5,0.1
		c0,0-0.1,0-0.1,0c-0.3,0-0.6-0.2-0.6-0.5l-0.3-2.6c0-0.3,0.2-0.6,0.5-0.7l1.5-0.2l0,0c0.1-0.8,0.3-1.6,0.7-2.4l-1.2-0.9
		c-0.3-0.2-0.3-0.5-0.1-0.8l1.6-2c0.1-0.1,0.2-0.2,0.4-0.2c0.1,0,0.2,0.1,0.3,0.1l1.1,1l0,0c0.9-0.9,1.5-1,2.3-1.3l-0.1-1.6
		c0-0.3,0.2-0.6,0.5-0.7L483,241.4C483,241.4,483,241.4,483,241.4 M482.8,247.7L482.8,247.7c-0.1,0-0.2,0-0.3,0
		c-1,0.1-2,0.6-2.7,1.4c-0.3,0.4-0.5,0.9-0.7,1.3c-0.1,0.2-0.1,0.4-0.1,0.6c0,0.1,0,0.1,0,0.2c0,0.2,0,0.3,0,0.5
		c0,0.2,0,0.3,0.1,0.5c0,0,0,0.1,0,0.1c0,0.1,0,0.1,0.1,0.2c0,0.1,0,0.1,0.1,0.2c0,0.1,0.1,0.2,0.1,0.3c0,0,0,0.1,0.1,0.1
		c0,0,0,0.1,0.1,0.1c0.2,0.4,0.5,0.8,0.9,1.1c0.5,0.4,1,0.6,1.6,0.7c0.1,0,0.1,0,0.2,0c0,0,0.1,0,0.1,0c0.1,0,0.1,0,0.2,0
		c0.1,0,0.1,0,0.2,0c0,0,0.1,0,0.1,0c0.1,0,0.2,0,0.4,0c0,0,0.1,0,0.1,0c0.1,0,0.1,0,0.2,0c0,0,0.1,0,0.1,0c0.1,0,0.1,0,0.2,0
		c0,0,0.1,0,0.1,0c0,0,0.1,0,0.1,0c0,0,0.1,0,0.1,0c0.1,0,0.1,0,0.2-0.1c0.1,0,0.1-0.1,0.2-0.1c0,0,0.1,0,0.1-0.1
		c0.1,0,0.1-0.1,0.2-0.1c0.1,0,0.2-0.1,0.2-0.1c0.1,0,0.1-0.1,0.1-0.1c0.2-0.2,0.5-0.4,0.7-0.7c0.4-0.5,0.6-1,0.7-1.5
		c0-0.1,0-0.2,0-0.3c0-0.1,0-0.1,0-0.2c0-0.1,0-0.1,0-0.2c0-0.2,0-0.3,0-0.4c0-0.1,0-0.1,0-0.2c0-0.1,0-0.2,0-0.3c0-0.1,0-0.1,0-0.2
		c0,0,0-0.1,0-0.1c0-0.1,0-0.1-0.1-0.2c0-0.1-0.1-0.2-0.1-0.3c0-0.1,0-0.1-0.1-0.2c-0.2-0.5-0.6-1-1.1-1.4c-0.4-0.3-0.9-0.5-1.3-0.7
		c-0.1,0-0.1,0-0.2,0c-0.2,0-0.4-0.1-0.5-0.1C483.1,247.7,483,247.7,482.8,247.7C482.9,247.7,482.9,247.7,482.8,247.7L482.8,247.7
		 M483,240.8c0,0-0.1,0-0.1,0l-2.6,0.3c-0.6,0.1-1.1,0.6-1,1.3l0.1,1.2c-0.5,0.2-1,0.4-1.7,1l-0.8-0.7l0,0l0,0
		c-0.2-0.2-0.4-0.3-0.7-0.3c-0.2,0-0.5,0.1-0.8,0.4l-1.6,2c-0.2,0.2-0.3,0.5-0.3,0.8c0,0.3,0.2,0.6,0.4,0.7l0.8,0.7
		c-0.3,0.7-0.4,1.3-0.5,1.8l-1.1,0.1c-0.6,0.1-1.1,0.6-1,1.3l0.3,2.6c0.1,0.6,0.6,1,1.1,1c0,0,0.1,0,0.1,0l1.1-0.1
		c0.3,0.6,0.6,1.2,1,1.7l-0.7,0.8c-0.4,0.5-0.4,1.2,0.1,1.5l2,1.6c0.2,0.2,0.4,0.2,0.7,0.2c0.4,0,0.7-0.2,0.9-0.4l0,0l0,0l0.6-0.9
		c0.6,0.3,1.2,0.4,1.7,0.4l0.2,1.1c0.1,0.6,0.6,1,1.2,1c0,0,0.1,0,0.1,0l2.6-0.3c0.3,0,0.6-0.2,0.8-0.4c0.2-0.2,0.3-0.5,0.2-0.8
		l-0.1-1.1c0.5-0.2,1-0.4,1.7-1l0.8,0.7l0,0l0,0c0.2,0.2,0.5,0.3,0.8,0.3c0.3,0,0.6-0.1,0.8-0.4l1.6-2c0.2-0.3,0.3-0.6,0.1-0.9
		c-0.1-0.2-0.2-0.5-0.5-0.6l-0.8-0.7c0.2-0.6,0.4-1.2,0.5-1.8l1.1-0.1c0.3,0,0.6-0.2,0.8-0.4c0.2-0.2,0.3-0.5,0.2-0.8l-0.3-2.6
		c-0.1-0.6-0.6-1-1.1-1c0,0-0.1,0-0.1,0l-1.2,0.1c-0.2-0.5-0.4-1-1-1.7l0.7-0.7l0,0l0,0c0.2-0.2,0.3-0.5,0.2-0.8
		c0-0.3-0.2-0.5-0.4-0.7l-2-1.6c-0.2-0.2-0.4-0.2-0.6-0.2c-0.3,0-0.6,0.2-0.9,0.5l-0.7,0.8c-0.6-0.3-1.2-0.4-1.9-0.5l-0.1-1.1
		C484.1,241.3,483.6,240.8,483,240.8 M482.8,254.7C482.8,254.7,482.8,254.7,482.8,254.7c-0.1,0-0.2,0-0.2,0c-0.1,0-0.1,0-0.2,0
		c0,0-0.1,0-0.1,0c-0.1,0-0.1,0-0.2,0c-0.5-0.1-1-0.3-1.4-0.6c-0.3-0.3-0.6-0.6-0.8-0.9c0,0,0-0.1-0.1-0.1c0,0,0-0.1,0-0.1
		c0-0.1-0.1-0.2-0.1-0.3c0,0,0-0.1-0.1-0.1c0,0,0-0.1,0-0.1c0,0,0,0,0-0.1c0-0.1-0.1-0.3-0.1-0.4c0-0.1,0-0.3,0-0.4
		c0-0.1,0-0.1,0-0.2c0-0.2,0-0.4,0.1-0.5c0.1-0.4,0.3-0.8,0.6-1.1c0.6-0.7,1.4-1.2,2.3-1.2c0.1,0,0.2,0,0.2,0c0,0,0.1,0,0.1,0
		c0.1,0,0.1,0,0.2,0c0.2,0,0.3,0,0.5,0.1c0.1,0,0.1,0,0.2,0c0.4,0.1,0.8,0.3,1.1,0.6c0.4,0.3,0.7,0.7,0.9,1.2c0,0,0,0.1,0.1,0.1
		c0,0.1,0.1,0.1,0.1,0.2c0,0,0,0.1,0,0.1c0,0,0,0,0,0.1c0,0.1,0,0.1,0,0.2c0,0.1,0,0.2,0,0.2c0,0.1,0,0.1,0,0.2c0,0.1,0,0.3,0,0.4
		c0,0.1,0,0.1,0,0.2c0,0.1,0,0.1,0,0.2c0,0.1,0,0.2,0,0.2c-0.1,0.5-0.3,0.9-0.6,1.3c-0.2,0.2-0.4,0.4-0.6,0.6c0,0-0.1,0.1-0.1,0.1
		c-0.1,0-0.1,0.1-0.2,0.1c0,0-0.1,0.1-0.1,0.1c0,0-0.1,0-0.1,0c-0.1,0-0.1,0.1-0.2,0.1c0,0-0.1,0-0.1,0.1c0,0-0.1,0-0.1,0
		c0,0-0.1,0-0.1,0c0,0,0,0-0.1,0c-0.1,0-0.1,0-0.2,0c0,0,0,0-0.1,0c-0.1,0-0.1,0-0.2,0c0,0-0.1,0-0.1,0
		C483,254.7,482.9,254.7,482.8,254.7z"/>
	<path clip-path="url(#SVGID_2_)" fill="#F7C245" d="M473.2,259.3l-0.7-0.3c0.1-0.5,0.1-0.8,0-1.2l0,0l0.7-0.3
		c0.1-0.1,0.2-0.2,0.2-0.4l-0.5-1.2c-0.1-0.2-0.2-0.2-0.4-0.2l-0.7,0.2c-0.2-0.3-0.4-0.6-0.9-0.9l0,0l0.3-0.6c0.1-0.1,0-0.3-0.1-0.4
		l-1.1-0.5c-0.1-0.1-0.2,0-0.3,0.2l-0.3,0.7c-0.5-0.1-0.8-0.1-1.2,0l0,0l-0.3-0.7c-0.1-0.2-0.2-0.2-0.4-0.2l-1.2,0.5
		c-0.1,0.1-0.2,0.2-0.2,0.4l0.2,0.7c-0.3,0.2-0.6,0.4-0.9,0.9h0l-0.6-0.3c-0.1-0.1-0.3,0-0.3,0.1l-0.5,1.1c-0.1,0.1,0,0.3,0.1,0.3
		l0.7,0.3c-0.1,0.5-0.1,0.8,0,1.2l0,0l-0.7,0.3c-0.1,0.1-0.2,0.2-0.2,0.4l0.5,1.2c0.1,0.1,0.2,0.2,0.4,0.2l0.7-0.3
		c0.2,0.3,0.5,0.6,0.9,0.9v0l-0.3,0.7c-0.1,0.1-0.1,0.3,0.1,0.4l1.1,0.5c0.1,0.1,0.3,0,0.4-0.2l0.2-0.7c0.5,0.1,0.8,0.1,1.2,0
		l0.3,0.7c0.1,0.1,0.2,0.2,0.4,0.2l1.2-0.5c0.1-0.1,0.2-0.2,0.2-0.4l-0.2-0.7c0.3-0.2,0.6-0.4,0.9-0.9h0l0.6,0.3
		c0.1,0.1,0.3,0,0.4-0.1l0.5-1.1C473.5,259.5,473.3,259.4,473.2,259.3 M467.4,259.6C467.4,259.6,467.4,259.5,467.4,259.6
		c-0.1-0.1-0.1-0.1-0.1-0.2c0,0,0,0,0-0.1c0,0,0-0.1,0-0.1c0,0,0,0,0,0c0-0.1-0.1-0.1-0.1-0.2c0-0.1-0.1-0.2-0.1-0.2
		c0,0,0-0.1,0-0.1c0-0.1,0-0.2,0-0.3c0-0.2,0-0.5,0.1-0.7c0.2-0.5,0.6-0.8,1.1-1c0,0,0.1,0,0.1,0c0,0,0,0,0,0c0,0,0.1,0,0.1,0
		c0.1,0,0.2,0,0.3,0c0,0,0.1,0,0.1,0c0.2,0,0.5,0.1,0.7,0.1c0.3,0.1,0.5,0.3,0.7,0.5c0,0,0,0,0.1,0.1c0,0,0.1,0.1,0.1,0.1
		c0,0,0,0,0,0.1c0,0,0,0,0,0c0,0,0,0.1,0,0.1c0,0,0,0.1,0.1,0.1c0,0,0,0.1,0,0.1c0,0.1,0,0.1,0.1,0.2c0,0,0,0.1,0,0.1
		c0,0,0,0.1,0,0.1c0,0,0,0.1,0,0.1c0,0.3,0,0.5-0.1,0.8c-0.1,0.1-0.1,0.3-0.2,0.4c0,0,0,0-0.1,0.1c0,0-0.1,0.1-0.1,0.1
		c0,0,0,0-0.1,0.1c0,0,0,0,0,0c0,0-0.1,0.1-0.1,0.1c0,0,0,0-0.1,0.1c0,0,0,0-0.1,0c0,0,0,0-0.1,0c0,0,0,0,0,0c0,0-0.1,0-0.1,0
		c0,0,0,0,0,0c0,0-0.1,0-0.1,0c0,0,0,0,0,0c-0.1,0-0.1,0-0.2,0.1c0,0,0,0,0,0c0,0-0.1,0-0.1,0c0,0-0.1,0-0.1,0c0,0,0,0,0,0
		c0,0-0.1,0-0.1,0c-0.3,0-0.6,0-0.8-0.1C467.8,259.9,467.6,259.8,467.4,259.6C467.4,259.6,467.4,259.6,467.4,259.6"/>
	<path clip-path="url(#SVGID_2_)" fill="#ECD9AF" d="M508.5,379.5c-4.8,0-8.7,3.9-8.7,8.7v13.2h-1.1v-16.6c0-6.4-5.2-11.6-11.6-11.6
		c-6.4,0-11.6,5.2-11.6,11.6v16.6h-1.5v-20.8c0-6.4-5.2-11.6-11.6-11.6c-6.4,0-11.6,5.2-11.6,11.6v20.8h-1.5v-18.3
		c0-6.4-5.2-11.6-11.6-11.6c-6.4,0-11.6,5.2-11.6,11.6v21.1c-4.5,0-8.4,2.9-9.7,7.2l-3.7,12.2c-2.3,7.7-0.9,15.9,3.9,22.4l14.1,19.7
		c0.5,0.7,1,1.5,1.5,2.2l0.1,0.1c0,0,0,0,0,0c5.3,6.7,13.5,10.9,22.7,10.9h33.2c16,0,29-13,29-29v-61.7
		C517.2,383.4,513.3,379.5,508.5,379.5"/>
	<path clip-path="url(#SVGID_2_)" fill="#ECD9AF" d="M466.5,479c4.4-5.1,5.9-11.9,4.6-18.2c-0.7,3.4-2.3,6.7-4.7,9.5
		c-8.2,9.4-25.5,6.4-34.1-2.3l-1.9-2.7c2.6,4.2,6.3,7.7,10.7,10.1v46.6H502v-46.6c-4.1,2.2-8.8,3.5-13.9,3.5H466.5z"/>
	<path clip-path="url(#SVGID_2_)" fill="#1F2B50" d="M508.5,377.3c-3.2,0-6.2,1.4-8.1,3.7c-1.7-5.8-7-10-13.2-10
		c-4.7,0-8.9,2.4-11.4,6.1c-1.6-5.9-6.9-10.3-13.3-10.3c-6,0-11.1,3.8-13,9.2c-2.4-4-6.8-6.6-11.8-6.6c-7.6,0-13.8,6.2-13.8,13.8
		v19.1c-4.5,0.8-8.2,4-9.6,8.6l-3.7,12.2c-2.5,8.3-0.9,17.4,4.2,24.3l14.1,19.7c0.5,0.8,1,1.5,1.6,2.2l0.1,0.1
		c0.1,0.1,0.1,0.2,0.2,0.2c2.3,2.9,5.1,5.3,8.2,7.2v45.3c0,1.2,1,2.2,2.2,2.2H502c1.2,0,2.2-1,2.2-2.2v-45.3
		c9.4-5.6,15.1-15.8,15.1-26.7v-61.7C519.4,382.2,514.5,377.3,508.5,377.3 M502,388.2c0-3.6,2.9-6.5,6.5-6.5c3.6,0,6.5,2.9,6.5,6.5
		v17c0,1.8-0.7,3.5-2.1,4.7c-1.3,1.2-3.1,1.9-4.9,1.7c-3.4-0.2-6.1-3.2-6.1-6.8V388.2z M477.7,384.9c0-5.2,4.2-9.4,9.4-9.4
		c5.2,0,9.4,4.2,9.4,9.4v17.4c0,2.6-1,5-2.9,6.8c-1.9,1.8-4.3,2.7-7,2.6c-4.9-0.2-8.9-4.6-8.9-9.7V384.9z M452.9,380.7
		c0-5.2,4.2-9.4,9.4-9.4c5.2,0,9.4,4.2,9.4,9.4v21.6c0,0.2,0,0.4,0,0.7c-1.3-0.5-2.7-0.9-4.2-0.9h-14.5c0,0,0-0.1,0-0.1V380.7z
		 M428.2,383.2c0-5.2,4.2-9.4,9.4-9.4c5.2,0,9.4,4.2,9.4,9.4v18.9h-18.8c0,0,0-0.1,0-0.1V383.2z M501,473.5
		c-0.7,0.4-1.1,1.1-1.1,1.9v44.4h-56.6v-44.4c0-0.8-0.4-1.5-1.1-1.9c-3.1-1.7-5.9-4-8.1-6.8c0,0,0,0-0.1-0.1l0,0c0,0,0-0.1-0.1-0.1
		c-0.5-0.6-1-1.3-1.4-2c0,0,0-0.1-0.1-0.1l-14.1-19.7c-4.3-5.8-5.7-13.5-3.6-20.4l3.7-12.2c1-3.4,4.1-5.6,7.6-5.6h41.5
		c3.7,0,6.7,3,6.7,6.7c0,9.8-8,17.8-17.8,17.8H429c-1.2,0-2.2,1-2.2,2.2c0,1.2,1,2.2,2.2,2.2h9.4l1.2,2.6c0.5,1.1,1.8,1.5,2.9,1.1
		c7.8-3.5,16.8-1.4,22.3,5.1c6,7.1,6,17.7-0.2,24.7c-0.8,0.9-0.7,2.3,0.2,3.1c0.4,0.4,0.9,0.5,1.4,0.5c0.6,0,1.2-0.3,1.7-0.8
		c7.5-8.6,7.6-21.7,0.2-30.5c-2.3-2.7-5.1-4.8-8.2-6.2c10.5-1.8,18.5-10.9,18.5-21.9c0,0,0-0.1,0-0.1c2.2,1.8,4.9,2.9,7.9,3
		c0.2,0,0.5,0,0.7,0c3.6,0,6.9-1.3,9.5-3.8c0.8-0.8,1.5-1.6,2.1-2.5c1.7,3.5,5.1,6.1,9.1,6.3c0.2,0,0.5,0,0.7,0
		c2.4,0,4.6-0.8,6.5-2.2V450C515,459.8,509.6,468.8,501,473.5"/>
	<path clip-path="url(#SVGID_2_)" fill="#146CB0" d="M369.8,209.6c0,5.7-1.8,11-4.8,15.3c-0.9,1.3-1.9,2.5-3,3.5
		c-1.7,1.7-3.7,3.2-5.8,4.4c-0.8,0.5-1.6,0.9-2.5,1.2c-3.2,1.4-6.8,2.1-10.5,2.1c-2.7,0-5.4-0.4-7.9-1.2c-0.9-0.3-1.7-0.6-2.5-0.9
		c-2.6-1.1-5-2.6-7.1-4.4c-0.6-0.5-1.2-1.1-1.8-1.7c-0.8-0.8-1.5-1.7-2.1-2.5c-0.7-0.9-1.3-1.8-1.8-2.8c-2.2-3.9-3.4-8.3-3.4-13.1
		c0-2.2,0.3-4.4,0.8-6.5c0.2-0.7,0.4-1.3,0.6-2c0.5-1.6,1.2-3.1,2-4.6c0.5-0.9,1.1-1.8,1.7-2.6c0.7-0.9,1.4-1.8,2.3-2.7
		c0.6-0.6,1.2-1.2,1.8-1.7c4.7-4,10.8-6.5,17.4-6.5c7.3,0,14,3,18.8,7.8c1.1,1.1,2.1,2.3,3,3.5c0.1,0.1,0.2,0.2,0.3,0.4
		c0.4,0.6,0.8,1.2,1.1,1.8C368.6,200.3,369.8,204.8,369.8,209.6"/>
	<path clip-path="url(#SVGID_2_)" fill="#E95C45" d="M330.7,211.6c-1.8-1.6-3-3.9-3-6.5c0-4.8,3.9-8.6,8.7-8.6
		c2.7,0,5.2,1.2,6.8,3.2c1.6-2,4-3.2,6.8-3.2c4.8,0,8.7,3.9,8.7,8.6c0,2.6-1.1,4.8-2.9,6.4l-11.9,12.9c-0.4,0.4-0.9,0.4-1.3,0
		L330.7,211.6z"/>
	<path clip-path="url(#SVGID_2_)" fill="#3C3C3B" d="M343.2,225.3c-0.4,0-0.8-0.2-1.1-0.5L330.3,212c-2-1.7-3.1-4.2-3.1-6.9
		c0-5.1,4.1-9.2,9.2-9.2c2.6,0,5,1.1,6.8,2.9c1.7-1.9,4.2-2.9,6.8-2.9c5.1,0,9.2,4.1,9.2,9.2c0,2.6-1.1,5.1-3.1,6.8l-11.9,12.9
		C344,225.1,343.6,225.3,343.2,225.3 M336.5,197.1c-4.5,0-8.1,3.6-8.1,8.1c0,2.3,1,4.5,2.8,6.1l11.9,12.9c0.1,0.1,0.3,0.2,0.5,0
		l11.9-12.9c1.8-1.6,2.7-3.8,2.7-6c0-4.4-3.6-8.1-8.1-8.1c-2.5,0-4.8,1.1-6.3,3l-0.4,0.5l-0.4-0.5
		C341.2,198.2,338.9,197.1,336.5,197.1"/>
	<path clip-path="url(#SVGID_2_)" fill="#F7C245" d="M344.2,218.5c0,0-0.1,0-0.1,0c-0.4-0.1-0.7-0.4-0.8-0.8l-2.3-11.4l-1.7,3.9
		c-0.2,0.4-0.5,0.6-0.9,0.6h-3.9c-0.5,0-1-0.4-1-1c0-0.5,0.4-1,1-1h3.2l2.6-6.1c0.2-0.4,0.6-0.6,1-0.6c0.4,0,0.8,0.4,0.8,0.8
		l2.3,11.6l2.6-5.2c0.2-0.3,0.5-0.5,0.9-0.5h3.9c0.5,0,1,0.4,1,1c0,0.5-0.4,1-1,1h-3.3L345,218C344.9,218.3,344.5,218.5,344.2,218.5
		"/>
</g>
</svg>
