<?xml version="1.0" encoding="utf-8"?>
<!-- Generator: Adobe Illustrator 17.1.0, SVG Export Plug-In . SVG Version: 6.00 Build 0)  -->
<!DOCTYPE svg PUBLIC "-//W3C//DTD SVG 1.1//EN" "http://www.w3.org/Graphics/SVG/1.1/DTD/svg11.dtd">
<svg version="1.1" id="Calque_1" xmlns="http://www.w3.org/2000/svg" xmlns:xlink="http://www.w3.org/1999/xlink" x="0px" y="0px"
	 viewBox="0 0 800 400" enable-background="new 0 0 800 400" xml:space="preserve">
<g>
	<path fill="#E75548" d="M466.9,108.6c0.4,0.7,0.5,1.7,0.1,2.5c-0.6,1.5-2.3,2.1-3.8,1.5l-32.6-14c-1.5-0.6-2.1-2.3-1.5-3.8
		c0.6-1.5,2.3-2.1,3.8-1.5l32.6,14C466.1,107.6,466.6,108,466.9,108.6"/>
	<path fill="#E75548" d="M433.3,94.2c0.5,0.8,0.5,1.8,0,2.4l-25.9,29.8c-0.6,0.6-1.6,0.4-2.4-0.5c-0.7-0.9-0.9-2.2-0.3-2.8
		l25.9-29.8c0.6-0.6,1.6-0.4,2.4,0.5C433.1,93.9,433.2,94.1,433.3,94.2"/>
	<path fill="#3C3C3B" d="M463.1,62.1c-1.1,1.4-3.1,1.6-4.5,0.5c-1.4-1.1-1.6-3.1-0.5-4.5c1.1-1.4,3.1-1.6,4.5-0.5
		C464,58.7,464.2,60.7,463.1,62.1"/>
	<path fill="#3C3C3B" d="M404.8,134.8c-1.1,1.4-3.1,1.6-4.5,0.5c-1.4-1.1-1.6-3.1-0.5-4.5c1.1-1.4,3.1-1.6,4.5-0.5
		C405.7,131.3,405.9,133.4,404.8,134.8"/>
	<path fill="#3C3C3B" d="M465.3,128.7c-1.4-1.1-1.6-3.1-0.5-4.5c1.1-1.4,3.1-1.6,4.5-0.5s1.6,3.1,0.5,4.5
		C468.7,129.6,466.6,129.8,465.3,128.7"/>
	<path fill="#3C3C3B" d="M392.6,70.4c-1.4-1.1-1.6-3.1-0.5-4.5c1.1-1.4,3.1-1.6,4.5-0.5c1.4,1.1,1.6,3.1,0.5,4.5
		C396,71.3,394,71.5,392.6,70.4"/>
	<path fill="#3C3C3B" d="M476.1,81.1c-0.6,0.8-1.7,0.9-2.5,0.3c-0.8-0.6-0.9-1.7-0.3-2.5c0.6-0.8,1.7-0.9,2.5-0.3
		C476.6,79.3,476.7,80.4,476.1,81.1"/>
	<path fill="#3C3C3B" d="M478.4,105.4c-0.6,0.8-1.7,0.9-2.5,0.3c-0.8-0.6-0.9-1.7-0.3-2.5c0.6-0.8,1.7-0.9,2.5-0.3
		C478.9,103.5,479,104.6,478.4,105.4"/>
	<path fill="#3C3C3B" d="M449.5,141.1c-0.6,0.8-1.7,0.9-2.5,0.3c-0.8-0.6-0.9-1.7-0.3-2.5c0.6-0.8,1.7-0.9,2.5-0.3
		S450.2,140.3,449.5,141.1"/>
	<path fill="#3C3C3B" d="M425.5,143.7c-0.6,0.8-1.7,0.9-2.5,0.3c-0.8-0.6-0.9-1.7-0.3-2.5c0.6-0.8,1.7-0.9,2.5-0.3
		C426,141.8,426.1,143,425.5,143.7"/>
	<path fill="#3C3C3B" d="M389.7,115.1c-0.6,0.8-1.7,0.9-2.5,0.3c-0.8-0.6-0.9-1.7-0.3-2.5c0.6-0.8,1.7-0.9,2.5-0.3
		C390.2,113.2,390.3,114.3,389.7,115.1"/>
	<path fill="#3C3C3B" d="M387,91c-0.6,0.8-1.7,0.9-2.5,0.3c-0.8-0.6-0.9-1.7-0.3-2.5c0.6-0.8,1.7-0.9,2.5-0.3
		C387.5,89.1,387.6,90.2,387,91"/>
	<path fill="#3C3C3B" d="M415.9,55.2c-0.6,0.8-1.7,0.9-2.5,0.3c-0.8-0.6-0.9-1.7-0.3-2.5s1.7-0.9,2.5-0.3
		C416.3,53.3,416.5,54.4,415.9,55.2"/>
	<path fill="#3C3C3B" d="M440,52.4c-0.6,0.8-1.7,0.9-2.5,0.3c-0.8-0.6-0.9-1.7-0.3-2.5c0.6-0.8,1.7-0.9,2.5-0.3
		C440.5,50.6,440.6,51.7,440,52.4"/>
	<path fill="#F7A720" d="M478.2,133.9c-20.7,25.8-58.5,29.9-84.3,9.2c-25.8-20.7-29.9-58.5-9.2-84.3c20.7-25.8,58.5-29.9,84.3-9.2
		C494.8,70.4,498.9,108.1,478.2,133.9 M474.7,42.5c-29.8-23.9-73.3-19.1-97.2,10.6c-23.9,29.8-19.1,73.3,10.6,97.2
		c29.8,23.9,73.3,19.1,97.2-10.6C509.3,109.9,504.5,66.4,474.7,42.5"/>
	<path fill="#3C3C3B" d="M682.5,194.5c0-7.5-3.3-9.9-10-9.9H440.5c-6.7,0-10,2.9-10,10.4v133.7h252V194.5z"/>
	<path fill="#C6C6C6" d="M430.5,328.7v3.6c0,7.5,3.3,10.4,10,10.4h232.1c6.7,0,10-3.4,10-10.9v-3.1H430.5z"/>
</g>
<rect x="438.6" y="191.8" fill="#ECEBEC" width="235.7" height="128.1"/>
<polygon fill="#C6C6C6" points="579.9,358.9 533,358.9 534.4,342.7 578.1,342.7 "/>
<g>
	<path fill="#878787" d="M588.1,366c1.3,1.9,0.3,3.4-2.3,3.4h-58.8c-2.6,0-3.6-1.5-2.3-3.4l8.2-7h46.9L588.1,366z"/>
</g>
<g>
	<defs>
		<path id="SVGID_1_" d="M558.5,344.7c-0.1,0-0.2,0.1-0.2,0.2c0,0,0,0.2,0.1,0.4c-1.2,1.1-3,1.1-4.2,0c0.1-0.2,0.1-0.4,0.1-0.4
			c0-0.1-0.1-0.2-0.2-0.2c0,0,0,0,0,0c-0.1,0-0.2,0.1-0.2,0.2c0,0,0,0.4-0.3,0.6c-0.1,0.1-0.1,0.2-0.1,0.3c0,0.1,0.1,0.1,0.2,0.1
			c0,0,0.1,0,0.1,0c0.1-0.1,0.2-0.1,0.2-0.2c0.6,0.6,1.5,0.9,2.3,0.9c0.8,0,1.6-0.3,2.3-0.9c0.1,0.1,0.1,0.1,0.2,0.2
			c0,0,0.1,0,0.1,0c0.1,0,0.1,0,0.2-0.1c0.1-0.1,0-0.2-0.1-0.3c-0.3-0.2-0.3-0.6-0.3-0.6C558.7,344.8,558.6,344.7,558.5,344.7
			C558.5,344.7,558.5,344.7,558.5,344.7 M547.7,345.9c0-2.3,1.8-4.2,4.1-4.2c0.3,0,0.5-0.2,0.5-0.5c0.1-2.3,1.9-4.1,4.2-4.1
			s4.1,1.8,4.2,4.1c0,0.3,0.3,0.5,0.6,0.5h0c2.3,0,4.2,1.9,4.2,4.2c0,2.3-1.9,4.2-4.2,4.2h0h0h-9.2c0,0,0,0,0,0l0,0h0
			C549.5,350.1,547.7,348.2,547.7,345.9 M552.8,337.5c-0.9,0.8-1.4,1.9-1.5,3.1c-1.2,0.1-2.3,0.7-3.1,1.5c-1,1-1.5,2.3-1.5,3.7
			c0,2.9,2.3,5.2,5.2,5.2h9.2h0c2.9,0,5.2-2.3,5.2-5.2c0-2.7-2.1-5-4.7-5.2c-0.1-1.2-0.7-2.3-1.5-3.1c-1-1-2.3-1.5-3.6-1.5
			C555,336,553.7,336.6,552.8,337.5"/>
	</defs>
	<clipPath id="SVGID_2_">
		<use xlink:href="#SVGID_1_"  overflow="visible"/>
	</clipPath>
	<rect x="545.2" y="334.4" clip-path="url(#SVGID_2_)" fill="#3C3D3B" width="22.9" height="18.3"/>
</g>
<g>
	<path fill="#FFFFFF" d="M649.7,306h-4.7h-4.8h-3.9h-4.8H618c-0.4,0-0.6-0.3-0.6-0.6c0-0.4,0.3-0.6,0.6-0.6h4.1v-12.4
		c0-0.4,0.3-0.6,0.6-0.6h4.8c0.4,0,0.6,0.3,0.6,0.6v12.4h2.7v-17.7c0-0.4,0.3-0.6,0.6-0.6h4.8c0.4,0,0.6,0.3,0.6,0.6v17.7h2.7v-22.9
		c0-0.4,0.3-0.6,0.6-0.6h4.8c0.4,0,0.6,0.3,0.6,0.6v22.9h4.1c0.4,0,0.6,0.3,0.6,0.6C650.3,305.7,650,306,649.7,306 M659.1,276.2
		h-50.5c-1.6,0-2.9,1.4-2.9,3v0.8v28.9c0,1.7,1.3,3,2.9,3h50.5c1.6,0,2.9-1.4,2.9-3v-28.8v-0.8C662,277.6,660.7,276.2,659.1,276.2"
		/>
	<path fill="#FEEB17" d="M661.9,275.1c0-0.1,0-0.3-0.1-0.4C661.9,274.9,661.9,275,661.9,275.1z"/>
	<path fill="#FEEB17" d="M628.3,271.6h30.8c1.1,0,2,0.9,2.5,2.1c-0.5-1.3-1.4-2.1-2.5-2.1H628.3c-1.7,0-2.6-1-3.3-2
		C625.6,270.6,626.5,271.6,628.3,271.6"/>
</g>
<rect x="640.8" y="282.5" fill="#F7A720" width="3.5" height="22.2"/>
<g>
	<path fill="#FEEB17" d="M605.7,271.3c0-2.2,1.3-4.1,2.9-4.1h13.2c0.9,0,1.5,0.3,2,0.8c-0.5-0.5-1.1-0.8-2-0.8h-13.2
		C607,267.2,605.7,269.1,605.7,271.3v3.9v0V271.3z"/>
</g>
<rect x="623.4" y="293" fill="#F7A720" width="3.5" height="11.8"/>
<rect x="632.1" y="287.7" fill="#F7A720" width="3.5" height="17"/>
<g>
	<path fill="#F7A720" d="M608.6,267.2c-1.6,0-2.9,1.9-2.9,4.1v3.9c0.8-0.6,1.8-1,2.9-1h50.5c1.1,0,2,0.4,2.9,1c0-0.1,0-0.3-0.1-0.4
		c-0.1-0.3-0.1-0.7-0.3-1c-0.5-1.3-1.4-2.1-2.5-2.1h-30.8c-1.7,0-2.6-1-3.3-2c-0.1-0.1-0.2-0.3-0.3-0.4c-0.3-0.5-0.6-0.8-0.9-1.2
		c-0.5-0.5-1.1-0.8-2-0.8H608.6z"/>
	<path fill="#010101" d="M662,280.1v28.8c0,1.7-1.3,3-2.9,3h-50.5c-1.6,0-2.9-1.4-2.9-3V280v-0.8c0-1.7,1.3-3,2.9-3h50.5
		c1.6,0,2.9,1.4,2.9,3V280.1z M605.7,271.3c0-2.2,1.3-4.1,2.9-4.1h13.2c0.9,0,1.5,0.3,2,0.8c0.3,0.3,0.6,0.7,0.9,1.2
		c0.1,0.1,0.2,0.3,0.3,0.4c0.7,1,1.6,2,3.3,2h30.8c1.1,0,2,0.9,2.5,2.1c0.1,0.3,0.2,0.6,0.3,1c0,0.1,0.1,0.3,0.1,0.4
		c-0.8-0.6-1.8-1-2.9-1h-50.5c-1.1,0-2.1,0.4-2.9,1v0h0V271.3z M659.1,269.6h-30.8c-0.9,0-1.3-0.5-1.9-1.6c-0.8-1.2-1.9-2.8-4.5-2.8
		h-13.2c-2.7,0-4.9,2.7-4.9,6.1v8v0.8v28.9c0,2.8,2.2,5.1,4.9,5.1h50.5c2.7,0,4.9-2.3,4.9-5.1v-28.8v-0.8v-3.6
		C664,272.3,661.8,269.6,659.1,269.6"/>
	<path fill="#010101" d="M608.6,274.2c-1.1,0-2.1,0.4-2.9,1v0C606.5,274.6,607.5,274.2,608.6,274.2l50.5,0c1.1,0,2,0.4,2.9,1v0
		c-0.8-0.6-1.8-1-2.9-1H608.6z"/>
	<path fill="#010101" d="M661.6,273.8c0.1,0.3,0.2,0.6,0.3,1C661.8,274.4,661.7,274.1,661.6,273.8"/>
	<path fill="#010101" d="M639.5,305.4v-0.6h-2.7v0.6c0,0.4-0.3,0.6-0.6,0.6h3.9C639.8,306,639.5,305.7,639.5,305.4"/>
	<path fill="#010101" d="M649.7,304.8h-4.1v0.6c0,0.4-0.3,0.6-0.6,0.6h4.7c0.4,0,0.6-0.3,0.6-0.6C650.3,305,650,304.8,649.7,304.8"
		/>
	<path fill="#010101" d="M630.8,305.4v-0.6h-2.7v0.6c0,0.4-0.3,0.6-0.6,0.6h-4.8c-0.4,0-0.6-0.3-0.6-0.6v-0.6H618
		c-0.4,0-0.6,0.3-0.6,0.6c0,0.4,0.3,0.6,0.6,0.6h13.4C631.1,306,630.8,305.7,630.8,305.4"/>
	<path fill="#010101" d="M626.9,304.8h-3.5V293h3.5V304.8z M628.1,292.3c0-0.4-0.3-0.6-0.6-0.6h-4.8c-0.4,0-0.6,0.3-0.6,0.6v12.4
		h6.1V292.3z"/>
	<path fill="#010101" d="M622.7,306h4.8c0.4,0,0.6-0.3,0.6-0.6v-0.6h-6.1v0.6C622.1,305.7,622.4,306,622.7,306"/>
	<path fill="#010101" d="M632.1,287.7h3.5v17h1.3v-17.7c0-0.4-0.3-0.6-0.6-0.6h-4.8c-0.4,0-0.6,0.3-0.6,0.6v17.7h1.3V287.7z"/>
	<path fill="#010101" d="M636.8,305.4v-0.6h-1.3h-3.5h-1.3v0.6c0,0.4,0.3,0.6,0.6,0.6h4.8C636.6,306,636.8,305.7,636.8,305.4"/>
	<path fill="#010101" d="M640.8,282.5h3.5v22.2h1.3v-22.9c0-0.4-0.3-0.6-0.6-0.6h-4.8c-0.4,0-0.6,0.3-0.6,0.6v22.9h1.3V282.5z"/>
	<path fill="#010101" d="M645.6,305.4v-0.6h-1.3h-3.5h-1.3v0.6c0,0.4,0.3,0.6,0.6,0.6h4.8C645.3,306,645.6,305.7,645.6,305.4"/>
	<path fill="#010101" d="M628.8,238.6L628.8,238.6C628.8,238.6,628.8,238.6,628.8,238.6L628.8,238.6z"/>
</g>
<rect x="531" y="235.4" fill="#FFFFFF" width="50.6" height="63.7"/>
<g>
	<path fill="#1D1D1B" d="M531.9,298.1h48.6v-61.8h-48.6V298.1z M581.5,300H531c-0.5,0-1-0.4-1-1v-63.7c0-0.5,0.4-1,1-1h50.6
		c0.5,0,1,0.4,1,1v63.7C582.5,299.6,582.1,300,581.5,300"/>
</g>
<rect x="534.8" y="239.1" fill="#FFFFFF" width="50.6" height="63.7"/>
<g>
	<path fill="#1D1D1B" d="M535.7,301.9h48.6v-61.8h-48.6V301.9z M585.3,303.8h-50.6c-0.5,0-1-0.4-1-1v-63.7c0-0.5,0.4-1,1-1h50.6
		c0.5,0,1,0.4,1,1v63.7C586.3,303.4,585.9,303.8,585.3,303.8"/>
</g>
<rect x="538.5" y="242.9" fill="#FFFFFF" width="50.6" height="63.7"/>
<g>
	<path fill="#1D1D1B" d="M539.5,305.7h48.6v-61.8h-48.6V305.7z M589.1,307.6h-50.6c-0.5,0-1-0.4-1-1v-63.7c0-0.5,0.4-1,1-1h50.6
		c0.5,0,1,0.4,1,1v63.7C590.1,307.2,589.6,307.6,589.1,307.6"/>
</g>
<path fill="none" stroke="#E75548" stroke-width="0.738" stroke-linecap="round" stroke-linejoin="round" stroke-miterlimit="10" d="
	M547.1,261.5h32.4 M547.1,268.1h32.4 M547.1,274.6h32.4 M547.1,281.2h32.4 M547.1,287.8h32.4 M547.1,294.3h32.4"/>
<rect x="526" y="286.7" fill="#010101" width="21.3" height="0.7"/>
<rect x="526" y="283.9" fill="#010101" width="6.2" height="0.7"/>
<g>
	<path fill="#010101" d="M519.3,289.3l1.5-1.1c0,0,0.1,0,0.1,0c0,0,0.1,0,0.1,0.1v1l1.1,0.4v-9.6c0-0.1,0-0.1,0.1-0.1h29.2
		c0.1,0,0.1,0,0.1,0.1v9.6l1.1-0.4v-1c0,0,0-0.1,0.1-0.1c0,0,0.1,0,0.1,0l1.4,1.2c0,0,0,0,0,0.1c0,0,0,0.1-0.1,0.1l-17.3,7.4
		c0,0,0,0,0,0c0,0,0,0,0,0l-17.3-7.4C519.3,289.5,519.3,289.5,519.3,289.3C519.3,289.4,519.3,289.4,519.3,289.3 M518.8,290.6
		C518.8,290.5,518.8,290.5,518.8,290.6c0.1-0.1,0.1-0.1,0.1-0.1l17.5,7.6c0,0,0,0,0,0c0,0,0.2,0,0.2,0c0,0,0.2,0,0.2,0c0,0,0,0,0,0
		l17.5-7.6c0,0,0.1,0,0.1,0c0,0,0,0,0,0.1v19.9c0,0,0,0.1-0.1,0.1h-35.6c0,0-0.1,0-0.1-0.1V290.6z"/>
</g>
<rect x="526" y="289.1" fill="#010101" width="21.3" height="0.7"/>
<g>
	<path fill="#010101" d="M547.5,289.9V289c0,0,0-0.1-0.1-0.1h-21.5c0,0-0.1,0-0.1,0.1v0.9c0,0,0,0.1,0.1,0.1L547.5,289.9
		C547.4,290,547.5,290,547.5,289.9 M525.9,289h21.5v0.9h-21.5V289z"/>
	<path fill="#010101" d="M554,289.5l-1.4-1.2v1l-1.3,0.5v-9.7h-29.2v9.7l-1.3-0.5v-1l-1.5,1.1l17.3,7.4L554,289.5z M520.7,288.4v0.8
		c0,0,0,0.1,0.1,0.1l1.3,0.5c0,0,0.1,0,0.1,0c0,0,0,0,0-0.1v-9.6h29.1v9.6c0,0,0,0.1,0,0.1c0,0,0.1,0,0.1,0l1.3-0.5
		c0,0,0.1,0,0.1-0.1v-0.8l1.1,1l-17.2,7.3l-17.1-7.4L520.7,288.4z"/>
	<path fill="#010101" d="M554.4,290.6l-17.5,7.6c-0.1,0.1-0.2,0.1-0.3,0.1c-0.1,0-0.2,0-0.3-0.1l-17.5-7.6v19.9h35.6V290.6z
		 M554.3,310.4h-35.4v-19.7l17.4,7.5c0.1,0.1,0.2,0.1,0.3,0.1c0.1,0,0.2,0,0.3-0.1l17.4-7.5V310.4z"/>
	<path fill="#010101" d="M525.9,284.8h6.4c0,0,0.1,0,0.1-0.1v-0.9c0,0,0-0.1-0.1-0.1h-6.4c0,0-0.1,0-0.1,0.1L525.9,284.8
		C525.8,284.7,525.9,284.8,525.9,284.8 M525.9,283.8h6.4v0.9h-6.4V283.8z"/>
	<path fill="#010101" d="M525.9,287.5h21.5c0,0,0.1,0,0.1-0.1v-0.9c0,0,0-0.1-0.1-0.1h-21.5c0,0-0.1,0-0.1,0.1L525.9,287.5
		C525.8,287.5,525.9,287.5,525.9,287.5 M525.9,286.6h21.5v0.9h-21.5V286.6z"/>
	<path fill="#010101" d="M521.4,279.1c-0.1,0-0.3,0.1-0.3,0.3v7.2c0,0.1,0,0.2-0.1,0.2l-3,2.5c-0.1,0.1-0.1,0.2-0.1,0.3v21.5
		c0,0.1,0.1,0.3,0.3,0.3H555c0.1,0,0.3-0.1,0.3-0.3v-21.5l0-0.1c0,0,0-0.1-0.1-0.2l-3-2.5c-0.1-0.1-0.1-0.1-0.1-0.2v-7.2
		c0-0.1-0.1-0.3-0.3-0.3h-8.7c-0.1,0-0.1,0-0.2-0.1l-6.1-5.1c-0.1-0.1-0.3-0.1-0.5,0l-6.1,5.1c-0.1,0-0.1,0.1-0.2,0.1H521.4z"/>
	<path fill="#010101" d="M555.1,289.4C555.1,289.4,555.1,289.4,555.1,289.4L555.1,289.4z M555.1,289.6
		C555.1,289.6,555.1,289.6,555.1,289.6L555.1,289.6z M521.4,279.4C521.4,279.4,521.3,279.4,521.4,279.4l-0.1,7.2
		c0,0.2-0.1,0.3-0.2,0.5l-3,2.5c0,0,0,0.1,0,0.1l0,21.5l36.9,0.1l0.1-21.6l-3-2.5c-0.1-0.1-0.2-0.3-0.2-0.5v-7.2l-8.8,0
		c-0.1,0-0.3,0-0.4-0.1l-6.1-5.1c0,0-0.1,0-0.1,0l-6.1,5.1c-0.1,0.1-0.2,0.1-0.4,0.1H521.4z M555,311.7h-36.9
		c-0.4,0-0.6-0.3-0.6-0.6v-21.5c0-0.2,0.1-0.3,0.2-0.5l3-2.5l0-7.2c0-0.4,0.3-0.6,0.6-0.6h8.7l6.1-5.1c0.3-0.2,0.6-0.2,0.8,0
		l6.1,5.1l8.7,0c0.4,0,0.6,0.3,0.6,0.6v7.2l3,2.5c0.2,0.1,0.2,0.3,0.2,0.5v21.5C555.6,311.5,555.3,311.7,555,311.7"/>
	<path fill="#010101" d="M554.8,289.4C554.8,289.4,554.8,289.4,554.8,289.4L554.8,289.4z M554.9,289.8
		C554.9,289.8,554.9,289.8,554.9,289.8L554.9,289.8z M518.4,310.8h36.4v-21.2l-2.9-2.4c-0.2-0.2-0.3-0.4-0.3-0.7v-6.9h-8.5
		c-0.2,0-0.4-0.1-0.6-0.2l-6-5l-5.9,5c-0.2,0.1-0.4,0.2-0.6,0.2h-8.5v6.9c0,0.3-0.1,0.5-0.3,0.7l-2.9,2.4V310.8z M555,312h-36.9
		c-0.6,0-0.9-0.5-0.9-0.9v-21.5c0-0.2,0.1-0.5,0.3-0.7l2.9-2.4v-7c0-0.6,0.5-0.9,0.9-0.9h8.6l6-5c0.4-0.3,0.9-0.3,1.2,0l6,5h8.6
		c0.6,0,0.9,0.5,0.9,0.9v7l2.9,2.4c0.2,0.2,0.4,0.5,0.3,0.8l0,21.4C555.9,311.7,555.5,312,555,312"/>
	<path fill="#010101" d="M518.7,310.5h35.8v-20.7l-2.8-2.3c-0.3-0.2-0.4-0.6-0.4-0.9V280h-8.2c-0.3,0-0.5-0.1-0.7-0.3l-5.8-4.8
		l-5.8,4.8c-0.2,0.2-0.5,0.3-0.8,0.3h-8.2v6.6c0,0.4-0.2,0.7-0.4,0.9l-2.8,2.3V310.5z M521.4,278.8c-0.3,0-0.6,0.2-0.6,0.6v7.2
		l-3,2.5c-0.1,0.1-0.2,0.3-0.2,0.5v21.5c0,0.3,0.2,0.6,0.6,0.6H555c0.3,0,0.6-0.2,0.6-0.6l0-21.4l0,0c0.1-0.2,0-0.4-0.1-0.5
		l-0.3-0.2l-0.2,0.7l0,0l0.1,0l-0.1,0.1v21.4h-37v-21.6l3-2.5c0.1-0.1,0.2-0.3,0.2-0.5v-7.2h8.8c0.1,0,0.3,0,0.4-0.1l6.1-5.1
		l0.2,0.2l6,5c0.1,0.1,0.2,0.1,0.4,0.1h8.8v7.2c0,0.2,0.1,0.3,0.2,0.5l2.5,2.1l0.3-0.5l-2.4-2v-7.2c0-0.3-0.2-0.6-0.6-0.6h-8.7
		l-6.1-5.1c-0.2-0.2-0.6-0.2-0.8,0l-6.1,5.1H521.4z M555.4,288.2l0.5,0.4c0.3,0.2,0.5,0.7,0.4,1.1l0,21.3c0,0.8-0.6,1.2-1.2,1.2
		h-36.9c-0.8,0-1.2-0.6-1.2-1.2v-21.5c0-0.3,0.2-0.6,0.4-0.9l2.8-2.4v-6.9c0-0.8,0.6-1.2,1.2-1.2h8.5l5.9-4.9c0.5-0.4,1.1-0.4,1.6,0
		l6,5h8.5c0.8,0,1.2,0.6,1.2,1.2v6.9l2.1,1.7L555.4,288.2z"/>
	<path fill="#E75548" d="M518.8,310.5h35.6c0.1,0,0.1,0,0.1-0.1v-19.9c0,0,0-0.1,0-0.1c0,0-0.1,0-0.1,0l-17.5,7.6c0,0,0,0,0,0
		c0,0-0.1,0-0.2,0c0,0-0.2,0-0.2,0c0,0,0,0,0,0l-17.5-7.6c0,0-0.1,0-0.1,0c0,0,0,0,0,0.1L518.8,310.5
		C518.8,310.5,518.8,310.5,518.8,310.5"/>
	<path fill="#FFFFFF" d="M536.5,296.9C536.5,296.9,536.5,296.9,536.5,296.9C536.6,296.9,536.6,296.9,536.5,296.9l17.4-7.4
		c0,0,0,0,0.1-0.1c0,0,0-0.1,0-0.1l-1.4-1.2c0,0-0.1,0-0.1,0c0,0-0.1,0-0.1,0.1v1l-1.1,0.4v-9.6c0,0,0-0.1-0.1-0.1H522
		c0,0-0.1,0-0.1,0.1v9.6l-1.1-0.4v-1c0,0,0-0.1-0.1-0.1c0,0-0.1,0-0.1,0l-1.5,1.1c0,0,0,0.1,0,0.1c0,0,0,0.1,0.1,0.1L536.5,296.9z"
		/>
</g>
<rect x="526" y="289.1" fill="#010101" width="21.3" height="0.7"/>
<rect x="526" y="286.7" fill="#010101" width="21.3" height="0.7"/>
<rect x="526" y="283.9" fill="#010101" width="6.2" height="0.7"/>
<g>
	<path fill="#F7A720" d="M208.5,199.5c-0.9-0.8-1-2.3-0.2-3.3l8.7-10c0.6-0.7,1.7-1,2.6-0.6c0.9,0.4,1.6,1.2,1.6,2.2l0,6.5l-0.1,4.8
		l4.5-5.2l0.1-0.1c0.8-0.9,2.3-1,3.3-0.2c0.3,0.3,0.6,0.7,0.7,1c0.2,0.8,0,1.6-0.5,2.2l-2.4,2.8l-6.3,7.2c-0.6,0.7-1.7,1-2.6,0.6
		c-0.9-0.4-1.6-1.2-1.6-2.2l0-2.1l0.1-7.1l0.1-2.2l-4.7,5.3C210.8,200.3,209.4,200.3,208.5,199.5"/>
	<path fill="#F7A720" d="M186.5,186.3c0.8,0.7,0.9,1.8,0.2,2.6l-0.6,0.7l-4.1,4.8c-0.5,0.6-1.3,0.7-1.9,0.6
		c-0.7-0.2-1.3-0.9-1.2-1.7l0-4.5l-1.4,1.6c-0.7,0.8-1.8,0.9-2.6,0.2c-0.8-0.7-0.9-1.8-0.2-2.6l4.8-5.5c0.5-0.6,1.3-0.7,2-0.5
		c0.8,0.3,1.2,1,1.3,1.8l0,4.5l1.4-1.6C184.8,186,186,185.8,186.5,186.3"/>
	<path fill="#F7A720" d="M210.7,166.6c-0.6-0.5-0.7-1.6-0.2-2.2l5.8-6.7c0.4-0.5,1.1-0.7,1.7-0.4c0.6,0.3,1.1,0.8,1.1,1.5l0,4.4
		l-0.1,3.2l3.1-3.5l0.1-0.1c0.5-0.6,1.6-0.7,2.2-0.2c0.2,0.2,0.4,0.5,0.5,0.7c0.1,0.5,0,1.1-0.3,1.5l-1.6,1.9l-4.2,4.8
		c-0.4,0.5-1.1,0.7-1.7,0.4c-0.6-0.3-1.1-0.8-1.1-1.5l0-1.4l0-4.8l0-1.5l-3.1,3.6C212.3,167.2,211.3,167.2,210.7,166.6"/>
	<path fill="#F7A720" d="M154.8,140.1c0.5,0.5,0.6,1.2,0.1,1.8l-0.4,0.5l-2.8,3.2c-0.3,0.4-0.8,0.5-1.3,0.4
		c-0.4-0.1-0.8-0.6-0.8-1.1l0-3l-1,1.1c-0.5,0.5-1.2,0.6-1.8,0.1c-0.5-0.5-0.6-1.2-0.1-1.8l3.2-3.7c0.3-0.4,0.8-0.5,1.4-0.3
		c0.5,0.2,0.8,0.7,0.9,1.2l0,3l1-1.1C153.6,139.9,154.4,139.8,154.8,140.1"/>
	<path fill="#F7A720" d="M150.5,168.9c-0.6-0.5-0.7-1.6-0.2-2.2l5.8-6.7c0.4-0.5,1.1-0.7,1.7-0.4c0.6,0.3,1.1,0.8,1.1,1.5l0,4.4
		l-0.1,3.2l3.1-3.5l0.1-0.1c0.5-0.6,1.6-0.7,2.2-0.2c0.2,0.2,0.4,0.5,0.5,0.7c0.1,0.5,0,1.1-0.3,1.5l-1.6,1.9l-4.2,4.8
		c-0.4,0.5-1.1,0.7-1.7,0.4c-0.6-0.3-1.1-0.8-1.1-1.5l0-1.4l0-4.8l0-1.5l-3.1,3.6C152,169.4,151.1,169.4,150.5,168.9"/>
	<path fill="#F7A720" d="M196.1,163c0.5,0.5,0.6,1.2,0.1,1.8l-0.4,0.5l-2.8,3.2c-0.3,0.4-0.8,0.5-1.3,0.4c-0.4-0.1-0.8-0.6-0.8-1.1
		l0-3l-1,1.1c-0.5,0.5-1.2,0.6-1.8,0.1c-0.5-0.5-0.6-1.2-0.1-1.8l3.2-3.7c0.3-0.4,0.8-0.5,1.4-0.3c0.5,0.2,0.8,0.7,0.9,1.2l0,3
		l1-1.1C194.9,162.8,195.7,162.7,196.1,163"/>
	<path fill="#F7A720" d="M198.2,147.6c-0.6-0.5-0.7-1.6-0.2-2.2l5.8-6.7c0.4-0.5,1.1-0.7,1.7-0.4c0.6,0.3,1.1,0.8,1.1,1.5l0,4.4
		l-0.1,3.2l3.1-3.5l0.1-0.1c0.5-0.6,1.6-0.7,2.2-0.2c0.2,0.2,0.4,0.5,0.5,0.7c0.1,0.5,0,1.1-0.3,1.5l-1.6,1.9l-4.2,4.8
		c-0.4,0.5-1.1,0.7-1.7,0.4c-0.6-0.3-1.1-0.8-1.1-1.5l0-1.4l0-4.8l0-1.5l-3.1,3.6C199.8,148.1,198.8,148.1,198.2,147.6"/>
	<path fill="#F7A720" d="M175.2,104.9c0.5,0.5,0.6,1.2,0.1,1.8l-0.4,0.5l-2.8,3.2c-0.3,0.4-0.8,0.5-1.3,0.4
		c-0.4-0.1-0.8-0.6-0.8-1.1l0-3l-1,1.1c-0.5,0.5-1.2,0.6-1.8,0.1c-0.5-0.5-0.6-1.2-0.1-1.8l3.2-3.7c0.3-0.4,0.8-0.5,1.4-0.3
		c0.5,0.2,0.8,0.7,0.9,1.2l0,3l1-1.1C174,104.7,174.8,104.6,175.2,104.9"/>
	<path fill="#F7A720" d="M233.7,118.1c0.5,0.5,0.6,1.2,0.1,1.8l-0.4,0.5l-2.8,3.2c-0.3,0.4-0.8,0.5-1.3,0.4
		c-0.4-0.1-0.8-0.6-0.8-1.1l0-3l-1,1.1c-0.5,0.5-1.2,0.6-1.8,0.1c-0.5-0.5-0.6-1.2-0.1-1.8l3.2-3.7c0.3-0.4,0.8-0.5,1.4-0.3
		c0.5,0.2,0.8,0.7,0.9,1.2l0,3l1-1.1C232.5,117.9,233.3,117.7,233.7,118.1"/>
	<path fill="#F7A720" d="M138,181.9c0.5,0.5,0.6,1.2,0.1,1.8l-0.4,0.5l-2.8,3.2c-0.3,0.4-0.8,0.5-1.3,0.4c-0.4-0.1-0.8-0.6-0.8-1.1
		l0-3l-1,1.1c-0.5,0.5-1.2,0.6-1.8,0.1c-0.5-0.5-0.6-1.2-0.1-1.8l3.2-3.7c0.3-0.4,0.8-0.5,1.4-0.3c0.5,0.2,0.8,0.7,0.9,1.2l0,3
		l1-1.1C136.8,181.7,137.6,181.6,138,181.9"/>
	<path fill="#F7A720" d="M250.5,100.7c0.3,0.6,0.1,1.3-0.6,1.7l-0.6,0.3l-3.8,1.9c-0.5,0.2-1,0.1-1.3-0.1c-0.4-0.3-0.6-0.9-0.3-1.3
		l1.1-2.8l-1.3,0.7c-0.6,0.3-1.3,0.1-1.7-0.6c-0.3-0.6-0.1-1.3,0.6-1.7l4.3-2.2c0.5-0.2,1-0.1,1.4,0.2c0.4,0.4,0.5,0.9,0.4,1.4
		l-1.1,2.8l1.3-0.7C249.5,100,250.3,100.2,250.5,100.7"/>
	<path fill="#3C3C3B" d="M248.2,253.3c-1.4-3.1-0.9-6.4,1-8.9l6.3,14C252.4,258.1,249.4,256.4,248.2,253.3 M245.8,223.3
		c-1.2-2.7,0.3-5.7,3-6.4l0.1-0.1c21.9-4.7,42.6-14,60.6-27.4c0.2-0.3,0.5-0.4,0.8-0.5c2.4-1.1,5-0.1,6.1,2.3l6.1,13.6l1.1,2.5
		l1.1,2.5l7.1,15.7l1.1,2.5c0.4,0.8,0.6,1.7,1,2.6c6.8,18.9-1.9,40.2-20.4,48.6c-18.8,8.5-40.7,0.7-50.2-17.3
		c-0.5-0.6-0.8-1.3-1.1-2l-0.2-0.4L261,257l-7.2-15.8l-1.1-2.5l-1.1-2.5L245.8,223.3z M330.2,208.3c2.3,0.2,4.2,1.1,5.8,2.8
		c0.7,0.7,1.2,1.5,1.6,2.3c1.3,2.9,0.9,6.4-1.1,8.8L330.2,208.3z M242.7,255.3l-0.1,0.5c2.7,6,8.9,9.3,15.2,8.3
		c10.7,21,36.1,30.3,57.9,20.5c21.6-9.8,31.6-34.7,23.1-56.5c4.8-4,6.4-10.8,3.8-16.7c-0.6-1.3-1.2-2.3-2-3.3
		c-5.8-11.2-16.4-38-16.5-38.3c-5.5-12.2-19.8-17.6-31.8-12.1c-1.4,0.6-2.9,1.5-4.2,2.4c-11.7-4.2-24.3-3.7-35.7,1.4
		c-8.3,3.7-15.1,9.7-20,16.6c-0.3,0.5-0.6,0.9-0.9,1.4c-0.2,1-0.1,1.9,0.5,2.6c1.1,1.2,2.8,1.4,4.1,0.5l0.1-0.1
		c0.3-0.5,0.6-0.9,0.9-1.4c4.3-6.2,10.2-11.4,17.5-14.7c10.5-4.8,22.2-5,32.8-1l1.5,0.7l1.2-1.1c1.4-1,2.7-1.9,4.2-2.6
		c9.3-4.2,20.3,0,24.4,9.2c0.4,0.8,7.3,18.5,13.1,31.2c-1.4-0.2-3-0.2-4.4,0l-6.3-14c-2.3-5-8.4-7.4-13.4-5.1
		c-0.6,0.3-1.3,0.6-1.8,1c-17.3,12.9-37.2,21.9-58.2,26.3l-0.3,0.1c-0.6,0.1-1.3,0.4-1.9,0.7c-5,2.3-7.4,8.4-5.1,13.4l6.1,13.6
		c-1.4,1.1-2.3,2.4-3.1,3.9c-3.2-7-6.3-13.5-8.3-17.5c-0.7-1.2-1.2-2.2-1.6-3.2c-1-2.2-1.9-4.6-2.5-7c-0.1-0.5-0.3-1-0.4-1.5
		c-0.1-0.1-0.1-0.3-0.2-0.4c-1.1-1.2-2.8-1.4-4.1-0.5c-0.6,0.5-1.1,1.3-1.1,2.2c0.1,0.5,0.3,1,0.4,1.5c0.7,2.7,1.6,5.4,2.8,8
		c0.4,1,1,2.2,1.7,3.4c2.9,5.6,8.2,16.7,11.9,26.4C242.4,254.6,242.5,254.9,242.7,255.3"/>
	<path fill="#3C3C3B" d="M259.1,375.2c-2.1,0-3.8-1.7-3.8-3.8V337c0-2.1,1.7-3.8,3.8-3.8s3.8,1.7,3.8,3.8v34.3
		C262.9,373.4,261.2,375.2,259.1,375.2"/>
	<path fill="#3C3C3B" d="M366.1,375.2c-2.1,0-3.8-1.7-3.8-3.8V337c0-2.1,1.7-3.8,3.8-3.8s3.8,1.7,3.8,3.8v34.3
		C369.9,373.4,368.2,375.2,366.1,375.2"/>
	<path fill="#3C3C3B" d="M377.1,293H260.6l-2.1,7.6h118.6c12.3,0,22.3,11.4,22.3,25.4v44.5c0,2.1,1.7,3.8,3.8,3.8
		c2.1,0,3.8-1.7,3.8-3.8V326C407.1,307.8,393.6,293,377.1,293"/>
	<path fill="#1F2C51" d="M188.9,374.3c0.3,0,0.6-0.1,0.9-0.1c-1-0.1-2-0.3-3.1-0.5C187.4,374.1,188.1,374.3,188.9,374.3"/>
	<path fill="#3C3C3B" d="M255.4,283l-2.7,10l-2.1,7.6l-15,54.3c-1.9,6.9-8.1,11.5-14.9,11.8c-1.6,0.1-3.2-0.1-4.8-0.6
		c-1-0.3-1.9-0.6-2.8-1.1c-2.8-1.4-5.2-3.6-6.8-6.5c-2.1-3.7-2.7-8.1-1.5-12.2l19.8-71.9c2-7.1,8.4-11.8,15.5-11.8
		c1.4,0,2.8,0.2,4.3,0.6C252.8,265.7,257.8,274.5,255.4,283 M246.3,256c-12.6-3.5-25.6,3.9-29.1,16.5l-19.8,71.9
		c-1.7,6.1-0.9,12.4,2.3,18c3.1,5.5,8.2,9.5,14.3,11.1c0.3,0.1,0.6,0.1,0.9,0.2c1,0.2,2.1,0.4,3.1,0.5c0.8,0.1,1.6,0.1,2.3,0.1
		c10.4,0,19.9-6.9,22.8-17.4l15.5-56.3l2.1-7.6l2.2-7.9C266.2,272.5,258.8,259.4,246.3,256"/>
	<path fill="#EDDDB0" d="M245.8,223.3c-1.2-2.7,0.3-5.7,3-6.4l0.1-0.1c21.9-4.7,42.6-14,60.6-27.4c0.2-0.3,0.5-0.4,0.8-0.5
		c2.4-1.1,5-0.1,6.1,2.3l6.2,13.6l1.1,2.5l1.1,2.5l7.1,15.7l1.1,2.5c0.4,0.8,0.6,1.7,1,2.6c6.8,18.9-1.9,40.2-20.4,48.6
		c-18.8,8.5-40.7,0.7-50.2-17.3c-0.5-0.6-0.8-1.3-1.1-2l-0.2-0.4L261,257l-7.2-15.8l-1.1-2.5l-1.1-2.5L245.8,223.3z"/>
	<path fill="#3C3C3B" d="M264.2,237.1c3.7,3.2,8.7,4,13.1,2c4.5-2,7.3-6.3,7.1-11.2c0-1.5-1.3-2.8-2.8-2.8c-1.5,0-2.8,1.3-2.8,2.8
		c0,2.5-1.5,4.9-3.9,6c-2.4,1.1-5.1,0.6-7.1-1c-1.1-1-2.9-0.9-3.9,0.3C262.9,234.3,262.9,236,264.2,237.1"/>
	<path fill="#3C3C3B" d="M307.4,224.8c4.1-1.8,6.8-5.9,7-10.4c0-1.5-1.1-2.7-2.6-2.9c-1.5,0-2.7,1.1-2.9,2.6
		c-0.1,2.4-1.6,4.6-3.7,5.6c-2.1,1-4.8,0.6-6.6-0.9c-1.1-1-2.9-0.9-3.9,0.4c-1,1.1-0.9,2.9,0.4,3.9
		C298.7,226.1,303.4,226.7,307.4,224.8"/>
	<path fill="#3C3C3B" d="M315,253.2c1.6,3.5,0,7.6-3.5,9.2c-3.5,1.6-7.6,0-9.2-3.5c-1.6-3.5,0-7.6,3.5-9.2
		C309.3,248.1,313.4,249.7,315,253.2"/>
	<path fill="#010101" d="M204.9,259.8c-1.6,0-2.9-1.3-2.9-2.9c0-1.6,1.3-2.9,2.9-2.9c1.6,0,2.9,1.3,2.9,2.9
		C207.8,258.6,206.5,259.8,204.9,259.8 M194.2,245.1v-2.2l13.3-4.2v2.2L194.2,245.1z M189.5,264.9c-1.6,0-2.9-1.3-2.9-2.9
		c0-1.6,1.3-2.9,2.9-2.9s2.9,1.3,2.9,2.9C192.4,263.6,191.1,264.9,189.5,264.9 M209.5,237.2v-0.1V237v-0.1v-0.1
		c0-0.1-0.1-0.1-0.1-0.1l-0.1-0.1c0-0.1-0.1-0.1-0.1-0.1l-0.1-0.1l-0.1-0.1l-0.1-0.1c-0.1,0-0.1-0.1-0.1-0.1c0,0-0.1-0.1-0.1-0.1
		c-0.1,0-0.1-0.1-0.1-0.1c-0.1,0-0.1,0-0.1-0.1h-0.1h-0.1h-0.1h-0.1h-0.1h-0.1h-0.1l-15.3,4.9h-0.1c-0.1,0-0.1,0.1-0.1,0.1
		c-0.1,0-0.1,0.1-0.1,0.1c-0.1,0-0.1,0.1-0.1,0.1l-0.1,0.1l-0.1,0.1l-0.1,0.1c0,0.1-0.1,0.1-0.1,0.1c0,0.1-0.1,0.1-0.1,0.1
		c0,0.1,0,0.1-0.1,0.1c0,0.1,0,0.1-0.1,0.1v0.1v0.1v0.1v16c-0.7-0.5-1.6-0.8-2.5-0.8c-2.5,0-4.6,2.1-4.6,4.6c0,2.5,2.1,4.6,4.6,4.6
		c2.5,0,4.6-2.1,4.6-4.6v-14.7l13.3-4.2v10.2c-0.7-0.5-1.6-0.8-2.5-0.8c-2.5,0-4.6,2.1-4.6,4.6c0,2.5,2.1,4.6,4.6,4.6
		c2.5,0,4.6-2.1,4.6-4.6L209.5,237.2L209.5,237.2z"/>
	<path fill="#010101" d="M174.7,241.9c-1,0-1.8-0.8-1.8-1.8c0-1,0.8-1.8,1.8-1.8c1,0,1.8,0.8,1.8,1.8
		C176.5,241.1,175.7,241.9,174.7,241.9 M167.9,232.6v-1.4l8.4-2.7v1.4L167.9,232.6z M164.9,245.1c-1,0-1.8-0.8-1.8-1.8
		c0-1,0.8-1.8,1.8-1.8c1,0,1.8,0.8,1.8,1.8C166.7,244.3,165.9,245.1,164.9,245.1 M177.6,227.6L177.6,227.6v-0.1v0v0c0,0,0,0,0-0.1
		l0,0c0,0,0,0,0-0.1l0,0l0,0l0,0c0,0,0,0-0.1,0c0,0,0,0-0.1,0c0,0,0,0-0.1,0c0,0,0,0-0.1,0H177H177h0h0h-0.1h-0.1h0l-9.7,3.1h0
		c0,0,0,0-0.1,0c0,0,0,0-0.1,0c0,0,0,0-0.1,0l0,0l0,0l0,0c0,0,0,0,0,0.1c0,0,0,0,0,0.1c0,0,0,0,0,0.1c0,0,0,0,0,0.1v0.1v0.1v0v10.1
		c-0.5-0.3-1-0.5-1.6-0.5c-1.6,0-2.9,1.3-2.9,2.9c0,1.6,1.3,2.9,2.9,2.9c1.6,0,2.9-1.3,2.9-2.9V234l8.4-2.7v6.5
		c-0.5-0.3-1-0.5-1.6-0.5c-1.6,0-2.9,1.3-2.9,2.9c0,1.6,1.3,2.9,2.9,2.9c1.6,0,2.9-1.3,2.9-2.9L177.6,227.6L177.6,227.6z"/>
	<path fill="#FFFFFF" d="M628.8,253.3H610c-3,0-5.5-2.5-5.5-5.5V222c0-3,2.5-5.5,5.5-5.5h18.8c3,0,5.5,2.5,5.5,5.5v25.9
		C634.3,250.9,631.9,253.3,628.8,253.3"/>
	<path fill="#010101" d="M608,253.8h22.5c2.4,0,4.4-2,4.4-4.4v-10.1c0-0.5-0.4-0.9-0.9-0.9c-0.3,0-0.6,0.2-0.8,0.5
		c0,0.1-0.1,1.5-0.1,1.6v8.8c0,1.5-1.2,2.7-2.7,2.7h-22.8c-0.1,0-0.2,0-0.4,0c-1.2-0.3-2-1.4-2-2.6v-29.4c0-1.5,1.2-2.7,2.7-2.7
		h22.5c1.5,0,2.7,1.2,2.7,2.7v4.2c0,0.5,0.4,0.8,0.8,0.8h0c0.5,0,0.8-0.4,0.8-0.8v-4.2c0-2.4-1.9-4.3-4.3-4.4c0,0,0,0,0,0H608
		c-2.4,0-4.4,2-4.4,4.4v29.3C603.7,251.8,605.6,253.7,608,253.8"/>
</g>
<rect x="609.7" y="224.9" fill="#010101" width="9.9" height="2"/>
<rect x="609.7" y="242" fill="#010101" width="19.7" height="2"/>
<rect x="609.7" y="236.1" fill="#010101" width="19.7" height="2"/>
<rect x="609.7" y="230.1" fill="#010101" width="19.7" height="2"/>
<polygon fill="#010101" points="631.2,238 633,236.4 641.5,216.5 640.6,216.1 640.5,216 639.6,215.7 631.1,235.6 "/>
<g>
	<path fill="#3C3C3B" d="M678.1,378.4H168.5c-2.6,0-4.7-2.1-4.7-4.7c0-2.6,2.1-4.7,4.7-4.7h509.6c2.6,0,4.7,2.1,4.7,4.7
		C682.9,376.3,680.8,378.4,678.1,378.4"/>
	<path fill="#010101" d="M498.1,291.1h-13.2c-2.8,0-5.1,2.3-5.1,5.2c0,2.8,2.3,5.2,5.1,5.2h13.2v8.5c0,0.7-0.5,1.3-1.3,1.3
		c0,0,0,0,0,0c0,0,0,0,0,0c0,0,0,0,0,0h-41.6c-0.7,0-1.3-0.5-1.3-1.3v-29h44.2V291.1z M498.1,299h-13.2c-1.4,0-2.6-1.2-2.6-2.7
		c0-1.5,1.1-2.7,2.6-2.7h13.2V299z M479.9,271.3l4.1,7.1h-16.4L479.9,271.3z M489.2,272.2v6.3H487l-3.6-6.3H489.2z M499.3,278.5
		h-7.6v-7.6c0-0.7-0.6-1.3-1.3-1.3h-8.6l-0.4-0.6c-0.3-0.5-0.8-0.7-1.3-0.6c-0.2,0-0.3,0.1-0.4,0.2l-1.9,1.1l-4.4,2.5l-10.9,6.3
		h-8.7l-2.5,0V310c0,2.1,1.7,3.8,3.8,3.8h41.6c0,0,0,0,0,0c0,0,0,0,0,0c0,0,0,0,0,0c2.1,0,3.8-1.7,3.8-3.8v-30.3
		C500.6,279,500,278.5,499.3,278.5"/>
</g>
<polygon fill="#4175BA" points="489.7,278.1 489.7,271.8 483.8,271.8 487.4,278.1 "/>
<path fill="#4175BA" d="M487.8,277.5h1.3v-5.1h-4.3L487.8,277.5z M490.3,278.7h-3.2l-4.3-7.5h7.5V278.7z"/>
<g>
	<path fill="#E75548" d="M482.2,296.3c0,1.5,1.1,2.7,2.6,2.7h13.2v-5.3h-13.2C483.4,293.6,482.2,294.8,482.2,296.3"/>
	<path fill="#E75548" d="M484.8,294.2c-1.1,0-2,0.9-2,2.1c0,1.2,0.9,2.1,2,2.1h12.6v-4.2H484.8z M498.7,299.6h-13.8
		c-1.8,0-3.2-1.4-3.2-3.3c0-1.8,1.4-3.3,3.2-3.3h13.8V299.6z"/>
	<path fill="#FFFFFF" d="M453.9,310c0,0.7,0.5,1.3,1.3,1.3h41.6c0,0,0,0,0,0c0,0,0,0,0,0c0,0,0,0,0,0c0.7,0,1.3-0.5,1.3-1.3v-8.5
		h-13.2c-2.8,0-5.1-2.4-5.1-5.2c0-2.8,2.3-5.2,5.1-5.2h13.2V281h-44.2V310z"/>
	<path fill="#FFFFFF" d="M454.5,281.6V310c0,0.4,0.3,0.7,0.7,0.7h41.6c0.5,0,0.8-0.3,0.8-0.7v-7.9h-12.6c-3.1,0-5.7-2.6-5.7-5.8
		c0-3.2,2.6-5.8,5.7-5.8h12.6v-8.9H454.5z M496.8,311.9h-41.7c-1.1,0-1.9-0.8-1.9-1.9v-29.6h45.4v11.3h-13.8c-2.5,0-4.5,2.1-4.5,4.6
		c0,2.5,2,4.6,4.5,4.6h13.8v9.1C498.7,311.1,497.8,311.9,496.8,311.9"/>
</g>
<polygon fill="#4175BA" points="479.9,270.9 467.6,278.1 484,278.1 "/>
<path fill="#4175BA" d="M469.8,277.5H483l-3.3-5.7L469.8,277.5z M485.1,278.7h-19.7l14.8-8.5L485.1,278.7z"/>
</svg>
