<?xml version="1.0" encoding="utf-8"?>
<!-- Generator: Adobe Illustrator 17.1.0, SVG Export Plug-In . SVG Version: 6.00 Build 0)  -->
<!DOCTYPE svg PUBLIC "-//W3C//DTD SVG 1.1//EN" "http://www.w3.org/Graphics/SVG/1.1/DTD/svg11.dtd">
<svg version="1.1" id="Calque_1" xmlns="http://www.w3.org/2000/svg" xmlns:xlink="http://www.w3.org/1999/xlink" x="0px" y="0px"
	 viewBox="0 0 800 400" enable-background="new 0 0 800 400" xml:space="preserve">
<g>
	<path fill="#E75548" d="M465.2,101.7c0.4,0.8,0.5,1.8,0.1,2.7c-0.7,1.6-2.5,2.3-4,1.6l-34.9-15c-1.6-0.7-2.3-2.5-1.6-4
		c0.7-1.6,2.5-2.3,4-1.6l34.9,15C464.3,100.7,464.8,101.1,465.2,101.7"/>
	<path fill="#E75548" d="M429.2,86.4c0.5,0.9,0.5,1.9,0,2.5l-27.7,31.9c-0.6,0.7-1.7,0.5-2.5-0.5c-0.8-1-0.9-2.3-0.3-3l27.7-31.9
		c0.6-0.7,1.7-0.5,2.5,0.5C429,86,429.1,86.2,429.2,86.4"/>
	<path fill="#3C3C3B" d="M461.1,52c-1.2,1.5-3.4,1.7-4.9,0.5c-1.5-1.2-1.7-3.4-0.5-4.9c1.2-1.5,3.4-1.7,4.9-0.5
		C462.1,48.3,462.3,50.5,461.1,52"/>
	<path fill="#3C3C3B" d="M398.7,129.8c-1.2,1.5-3.4,1.7-4.9,0.5c-1.5-1.2-1.7-3.4-0.5-4.9c1.2-1.5,3.4-1.7,4.9-0.5
		C399.7,126.1,399.9,128.3,398.7,129.8"/>
	<path fill="#3C3C3B" d="M463.4,123.3c-1.5-1.2-1.7-3.4-0.5-4.9c1.2-1.5,3.4-1.7,4.9-0.5c1.5,1.2,1.7,3.4,0.5,4.9
		S464.9,124.5,463.4,123.3"/>
	<path fill="#3C3C3B" d="M385.6,60.8c-1.5-1.2-1.7-3.4-0.5-4.9c1.2-1.5,3.4-1.7,4.9-0.5c1.5,1.2,1.7,3.4,0.5,4.9
		C389.3,61.8,387.1,62,385.6,60.8"/>
	<path fill="#3C3C3B" d="M475,72.4c-0.7,0.8-1.8,0.9-2.7,0.3c-0.8-0.7-0.9-1.8-0.3-2.7c0.7-0.8,1.8-0.9,2.7-0.3
		C475.5,70.4,475.7,71.6,475,72.4"/>
	<path fill="#3C3C3B" d="M477.5,98.3c-0.7,0.8-1.8,0.9-2.7,0.3c-0.8-0.7-0.9-1.8-0.3-2.7c0.7-0.8,1.8-0.9,2.7-0.3
		C478.1,96.3,478.2,97.5,477.5,98.3"/>
	<path fill="#3C3C3B" d="M446.6,136.5c-0.7,0.8-1.8,0.9-2.7,0.3c-0.8-0.7-0.9-1.8-0.3-2.7c0.7-0.8,1.8-0.9,2.7-0.3
		C447.1,134.5,447.3,135.7,446.6,136.5"/>
	<path fill="#3C3C3B" d="M420.9,139.4c-0.7,0.8-1.8,0.9-2.7,0.3c-0.8-0.7-0.9-1.8-0.3-2.7c0.7-0.8,1.8-0.9,2.7-0.3
		C421.4,137.4,421.5,138.5,420.9,139.4"/>
	<path fill="#3C3C3B" d="M382.5,108.7c-0.7,0.8-1.8,0.9-2.7,0.3c-0.8-0.7-0.9-1.8-0.3-2.7c0.7-0.8,1.8-0.9,2.7-0.3
		C383.1,106.7,383.2,107.9,382.5,108.7"/>
	<path fill="#3C3C3B" d="M379.6,82.9c-0.7,0.8-1.8,0.9-2.7,0.3c-0.8-0.7-0.9-1.8-0.3-2.7c0.7-0.8,1.8-0.9,2.7-0.3
		C380.2,80.9,380.3,82.1,379.6,82.9"/>
	<path fill="#3C3C3B" d="M410.6,44.6c-0.7,0.8-1.8,0.9-2.7,0.3c-0.8-0.7-0.9-1.8-0.3-2.7c0.7-0.8,1.8-0.9,2.7-0.3
		C411.1,42.6,411.2,43.7,410.6,44.6"/>
	<path fill="#3C3C3B" d="M436.4,41.7c-0.7,0.8-1.8,0.9-2.7,0.3c-0.8-0.7-0.9-1.8-0.3-2.7c0.7-0.8,1.8-0.9,2.7-0.3
		C436.9,39.7,437,40.9,436.4,41.7"/>
	<path fill="#F7A720" d="M477.3,128.9c-22.2,27.6-62.6,32.1-90.2,9.9c-27.6-22.2-32.1-62.6-9.9-90.2c22.2-27.6,62.6-32.1,90.2-9.9
		C495,60.8,499.5,101.2,477.3,128.9 M473.6,31c-31.9-25.6-78.5-20.5-104.1,11.4c-25.6,31.9-20.5,78.5,11.4,104.1
		C412.8,172,459.4,166.9,485,135C510.5,103.2,505.4,56.6,473.6,31"/>
	<path fill="#3C3C3B" d="M696,193.7c0-8.1-3.5-10.5-10.7-10.5H436.9c-7.2,0-10.7,3.1-10.7,11.1v143.1H696V193.7z"/>
	<path fill="#C6C6C6" d="M426.2,337.3v3.9c0,8.1,3.5,11.1,10.7,11.1h248.4c7.2,0,10.7-3.6,10.7-11.7v-3.3H426.2z"/>
</g>
<rect x="434.9" y="190.8" fill="#ECEBEC" width="252.3" height="137.1"/>
<polygon fill="#C6C6C6" points="586.2,369.7 536,369.7 537.4,352.4 584.3,352.4 "/>
<g>
	<path fill="#878787" d="M594.9,377.3c1.4,2,0.4,3.6-2.4,3.6h-62.9c-2.8,0-3.8-1.6-2.4-3.6l8.8-7.5h50.2L594.9,377.3z"/>
</g>
<g>
	<defs>
		<path id="SVGID_1_" d="M563.3,354.5c-0.1,0-0.2,0.1-0.2,0.2c0,0,0,0.2,0.1,0.4c-1.2,1.2-3.2,1.2-4.5,0c0.1-0.2,0.1-0.4,0.1-0.5
			c0-0.1-0.1-0.2-0.2-0.2c0,0,0,0,0,0c-0.1,0-0.2,0.1-0.2,0.2c0,0,0,0.4-0.4,0.7c-0.1,0.1-0.1,0.2-0.1,0.3c0,0.1,0.1,0.1,0.2,0.1
			c0,0,0.1,0,0.1,0c0.1-0.1,0.2-0.1,0.2-0.2c0.7,0.6,1.6,0.9,2.4,0.9c0.9,0,1.8-0.3,2.5-0.9c0.1,0.1,0.1,0.1,0.2,0.2
			c0,0,0.1,0,0.1,0c0.1,0,0.1,0,0.2-0.1c0.1-0.1,0-0.2-0.1-0.3c-0.3-0.2-0.4-0.7-0.4-0.7C563.5,354.6,563.4,354.5,563.3,354.5
			C563.3,354.5,563.3,354.5,563.3,354.5 M551.6,355.8c0-2.4,1.9-4.4,4.3-4.5c0.3,0,0.6-0.3,0.6-0.6c0.1-2.4,2-4.4,4.4-4.4
			c2.4,0,4.4,2,4.4,4.4c0,0.3,0.3,0.6,0.6,0.6h0c2.5,0,4.4,2,4.4,4.5c0,2.5-2,4.5-4.4,4.5h0h0h-9.9c0,0,0,0,0,0l0,0h0
			C553.6,360.3,551.6,358.2,551.6,355.8 M557.1,346.8c-0.9,0.9-1.5,2.1-1.6,3.3c-1.3,0.1-2.4,0.7-3.3,1.6c-1,1.1-1.6,2.4-1.6,3.9
			c0,3.1,2.5,5.6,5.6,5.6h9.9h0c3.1,0,5.6-2.5,5.6-5.6c0-2.9-2.2-5.3-5.1-5.6c-0.2-1.3-0.7-2.4-1.6-3.3c-1-1-2.4-1.6-3.9-1.6
			C559.5,345.2,558.2,345.8,557.1,346.8"/>
	</defs>
	<clipPath id="SVGID_2_">
		<use xlink:href="#SVGID_1_"  overflow="visible"/>
	</clipPath>
	<rect x="549" y="343.5" clip-path="url(#SVGID_2_)" fill="#3C3D3B" width="24.5" height="19.6"/>
</g>
<g>
	<path fill="#FFFFFF" d="M660.8,313.1h-5.1h-5.1h-4.2h-5.1h-14.4c-0.4,0-0.7-0.3-0.7-0.7c0-0.4,0.3-0.7,0.7-0.7h4.4v-13.3
		c0-0.4,0.3-0.7,0.7-0.7h5.1c0.4,0,0.7,0.3,0.7,0.7v13.3h2.8v-18.9c0-0.4,0.3-0.7,0.7-0.7h5.1c0.4,0,0.7,0.3,0.7,0.7v18.9h2.8v-24.5
		c0-0.4,0.3-0.7,0.7-0.7h5.1c0.4,0,0.7,0.3,0.7,0.7v24.5h4.4c0.4,0,0.7,0.3,0.7,0.7C661.5,312.8,661.2,313.1,660.8,313.1
		 M670.9,281.2h-54c-1.7,0-3.1,1.5-3.1,3.3v0.8v30.9c0,1.8,1.4,3.3,3.1,3.3h54c1.7,0,3.1-1.5,3.1-3.3v-30.8v-0.9
		C674,282.6,672.6,281.2,670.9,281.2"/>
	<path fill="#FEEB17" d="M673.9,280c0-0.1,0-0.3-0.1-0.4C673.9,279.7,673.9,279.9,673.9,280z"/>
	<path fill="#FEEB17" d="M637.9,276.3h33c1.2,0,2.2,0.9,2.7,2.3c-0.5-1.4-1.5-2.3-2.7-2.3H637.9c-1.8,0-2.8-1.1-3.6-2.2
		C635.1,275.1,636.1,276.3,637.9,276.3"/>
</g>
<rect x="651.3" y="287.9" fill="#F7A720" width="3.7" height="23.8"/>
<g>
	<path fill="#FEEB17" d="M613.8,275.9c0-2.4,1.4-4.4,3.1-4.4H631c1,0,1.6,0.3,2.1,0.9c-0.5-0.6-1.1-0.9-2.1-0.9h-14.1
		C615.2,271.6,613.8,273.6,613.8,275.9v4.2v0V275.9z"/>
</g>
<rect x="632.7" y="299.1" fill="#F7A720" width="3.7" height="12.6"/>
<rect x="642" y="293.5" fill="#F7A720" width="3.7" height="18.2"/>
<g>
	<path fill="#F7A720" d="M616.9,271.6c-1.7,0-3.1,2-3.1,4.4v4.1c0.9-0.7,1.9-1.1,3.1-1.1h54c1.1,0,2.2,0.4,3.1,1
		c0-0.1,0-0.3-0.1-0.4c-0.1-0.4-0.2-0.7-0.3-1.1c-0.5-1.4-1.6-2.3-2.7-2.3h-33c-1.8,0-2.8-1.1-3.6-2.2c-0.1-0.2-0.2-0.3-0.3-0.4
		c-0.3-0.5-0.6-0.9-0.9-1.2c-0.5-0.5-1.1-0.9-2.1-0.9H616.9z"/>
	<path fill="#010101" d="M674,285.3v30.8c0,1.8-1.4,3.3-3.1,3.3h-54c-1.7,0-3.1-1.5-3.1-3.3v-30.9v-0.8c0-1.8,1.4-3.3,3.1-3.3h54
		c1.7,0,3.1,1.5,3.1,3.3V285.3z M613.8,275.9c0-2.4,1.4-4.4,3.1-4.4H631c1,0,1.6,0.3,2.1,0.9c0.3,0.3,0.6,0.7,0.9,1.2
		c0.1,0.1,0.2,0.3,0.3,0.4c0.7,1.1,1.7,2.2,3.6,2.2h33c1.2,0,2.2,0.9,2.7,2.3c0.1,0.3,0.2,0.7,0.3,1.1c0,0.1,0.1,0.3,0.1,0.4
		c-0.9-0.6-1.9-1-3.1-1h-54c-1.2,0-2.2,0.4-3.1,1.1v0h0V275.9z M670.9,274.1h-33c-0.9,0-1.3-0.6-2.1-1.7c-0.9-1.3-2.1-3-4.9-3h-14.1
		c-2.9,0-5.3,2.9-5.3,6.5v8.5v0.8v30.9c0,3,2.4,5.4,5.3,5.4h54c2.9,0,5.3-2.4,5.3-5.4v-30.8v-0.9v-3.8
		C676.2,277,673.8,274.1,670.9,274.1"/>
	<path fill="#010101" d="M616.9,279c-1.2,0-2.2,0.4-3.1,1.1v0C614.6,279.4,615.7,279,616.9,279l54,0c1.1,0,2.2,0.4,3.1,1v0
		c-0.9-0.6-1.9-1-3.1-1H616.9z"/>
	<path fill="#010101" d="M673.6,278.6c0.1,0.3,0.2,0.7,0.3,1.1C673.8,279.2,673.7,278.9,673.6,278.6"/>
	<path fill="#010101" d="M649.9,312.4v-0.7h-2.8v0.7c0,0.4-0.3,0.7-0.7,0.7h4.2C650.3,313.1,649.9,312.8,649.9,312.4"/>
	<path fill="#010101" d="M660.8,311.7h-4.4v0.7c0,0.4-0.3,0.7-0.7,0.7h5.1c0.4,0,0.7-0.3,0.7-0.7C661.5,312,661.2,311.7,660.8,311.7
		"/>
	<path fill="#010101" d="M640.6,312.4v-0.7h-2.8v0.7c0,0.4-0.3,0.7-0.7,0.7H632c-0.4,0-0.7-0.3-0.7-0.7v-0.7h-4.4
		c-0.4,0-0.7,0.3-0.7,0.7c0,0.4,0.3,0.7,0.7,0.7h14.4C640.9,313.1,640.6,312.8,640.6,312.4"/>
	<path fill="#010101" d="M636.4,311.7h-3.7v-12.6h3.7V311.7z M637.8,298.4c0-0.4-0.3-0.7-0.7-0.7H632c-0.4,0-0.7,0.3-0.7,0.7v13.3
		h6.5V298.4z"/>
	<path fill="#010101" d="M632,313.1h5.1c0.4,0,0.7-0.3,0.7-0.7v-0.7h-6.5v0.7C631.3,312.8,631.6,313.1,632,313.1"/>
	<path fill="#010101" d="M642,293.5h3.7v18.2h1.4v-18.9c0-0.4-0.3-0.7-0.7-0.7h-5.1c-0.4,0-0.7,0.3-0.7,0.7v18.9h1.4V293.5z"/>
	<path fill="#010101" d="M647.1,312.4v-0.7h-1.4H642h-1.4v0.7c0,0.4,0.3,0.7,0.7,0.7h5.1C646.8,313.1,647.1,312.8,647.1,312.4"/>
	<path fill="#010101" d="M651.3,287.9h3.7v23.8h1.4v-24.5c0-0.4-0.3-0.7-0.7-0.7h-5.1c-0.4,0-0.7,0.3-0.7,0.7v24.5h1.4V287.9z"/>
	<path fill="#010101" d="M656.4,312.4v-0.7h-1.4h-3.7h-1.4v0.7c0,0.4,0.3,0.7,0.7,0.7h5.1C656.1,313.1,656.4,312.8,656.4,312.4"/>
	<path fill="#010101" d="M638.5,240.9L638.5,240.9C638.5,240.9,638.5,240.9,638.5,240.9L638.5,240.9z"/>
</g>
<rect x="533.8" y="237.5" fill="#FFFFFF" width="54.1" height="68.2"/>
<g>
	<path fill="#1D1D1B" d="M534.8,304.6h52.1v-66.1h-52.1V304.6z M587.9,306.7h-54.1c-0.6,0-1-0.5-1-1v-68.2c0-0.6,0.5-1,1-1h54.1
		c0.6,0,1,0.5,1,1v68.2C588.9,306.2,588.5,306.7,587.9,306.7"/>
</g>
<rect x="537.8" y="241.5" fill="#FFFFFF" width="54.1" height="68.2"/>
<g>
	<path fill="#1D1D1B" d="M538.9,308.7h52.1v-66.1h-52.1V308.7z M592,310.7h-54.1c-0.6,0-1-0.5-1-1v-68.2c0-0.6,0.5-1,1-1H592
		c0.6,0,1,0.5,1,1v68.2C593,310.3,592.5,310.7,592,310.7"/>
</g>
<rect x="541.9" y="245.6" fill="#FFFFFF" width="54.1" height="68.2"/>
<g>
	<path fill="#1D1D1B" d="M542.9,312.7H595v-66.1h-52.1V312.7z M596,314.8h-54.1c-0.6,0-1-0.5-1-1v-68.2c0-0.6,0.5-1,1-1H596
		c0.6,0,1,0.5,1,1v68.2C597,314.3,596.6,314.8,596,314.8"/>
</g>
<path fill="none" stroke="#E75548" stroke-width="0.738" stroke-linecap="round" stroke-linejoin="round" stroke-miterlimit="10" d="
	M551.1,265.5h34.7 M551.1,272.5h34.7 M551.1,279.5h34.7 M551.1,286.5h34.7 M551.1,293.6h34.7 M551.1,300.6h34.7"/>
<g>
	<path fill="#FFD75F" d="M558.2,295.3l-1.2-1.1v0.9c0,0,0,0.1-0.1,0.1l-1.4,0.5c0,0-0.1,0-0.1,0c0,0,0,0,0-0.1v-10.3h-31.1v10.3
		c0,0,0,0.1,0,0.1c0,0-0.1,0-0.1,0l-1.4-0.5c0,0-0.1,0-0.1-0.1v-0.9l-1.3,1l18.3,7.9L558.2,295.3z M528.3,289.3
		C528.3,289.2,528.3,289.2,528.3,289.3l6.9-0.1c0.1,0,0.1,0,0.1,0.1v0.9c0,0.1,0,0.1-0.1,0.1h-6.8c0,0-0.1,0-0.1-0.1V289.3z
		 M528.3,292.3C528.3,292.2,528.3,292.2,528.3,292.3l23.1-0.1c0.1,0,0.1,0,0.1,0.1v0.9c0,0.1,0,0.1-0.1,0.1h-23c0,0-0.1,0-0.1-0.1
		V292.3z M528.3,295.8v-0.9c0-0.1,0-0.1,0.1-0.1h23c0.1,0,0.1,0,0.1,0.1v0.9c0,0,0,0.1-0.1,0.1L528.3,295.8
		C528.3,295.9,528.3,295.9,528.3,295.8"/>
	<path fill="#FFFFFF" d="M539.8,304.8c-0.1,0-0.2,0-0.3-0.1l-18.6-8v21.1h37.9v-21.1l-18.6,8C540.1,304.8,539.9,304.8,539.8,304.8"
		/>
</g>
<rect x="528.4" y="292.4" fill="#010101" width="22.8" height="0.8"/>
<rect x="528.4" y="289.4" fill="#010101" width="6.6" height="0.8"/>
<g>
	<path fill="#010101" d="M521.3,295.2l1.6-1.2c0,0,0.1,0,0.1,0c0,0,0.1,0,0.1,0.1v1l1.2,0.5v-10.3c0-0.1,0-0.1,0.1-0.1h31.3
		c0.1,0,0.1,0,0.1,0.1v10.3l1.2-0.5v-1c0,0,0-0.1,0.1-0.1c0,0,0.1,0,0.1,0l1.5,1.3c0,0,0,0.1,0,0.1c0,0,0,0.1-0.1,0.1l-18.6,7.9
		c0,0,0,0,0,0c0,0,0,0,0,0l-18.5-8C521.3,295.4,521.3,295.4,521.3,295.2C521.3,295.3,521.3,295.3,521.3,295.2 M520.7,296.5
		C520.7,296.5,520.7,296.5,520.7,296.5c0.1-0.1,0.1-0.1,0.1-0.1l18.8,8.1c0,0,0,0,0,0c0,0,0.2,0,0.2,0c0,0,0.2,0,0.2,0c0,0,0,0,0,0
		l18.8-8.1c0,0,0.1,0,0.1,0c0,0,0,0,0,0.1v21.3c0,0,0,0.1-0.1,0.1h-38.1c0,0-0.1,0-0.1-0.1V296.5z"/>
</g>
<rect x="528.4" y="295" fill="#010101" width="22.8" height="0.8"/>
<g>
	<path fill="#010101" d="M551.4,295.8v-0.9c0-0.1,0-0.1-0.1-0.1h-23c-0.1,0-0.1,0-0.1,0.1v0.9c0,0.1,0,0.1,0.1,0.1L551.4,295.8
		C551.4,295.9,551.4,295.9,551.4,295.8 M528.4,294.9h23v0.9h-23V294.9z"/>
	<path fill="#010101" d="M558.4,295.4l-1.5-1.3v1.1l-1.4,0.5v-10.4h-31.3v10.4l-1.4-0.5v-1.1l-1.6,1.2l18.5,8L558.4,295.4z
		 M522.8,294.3v0.9c0,0,0,0.1,0.1,0.1l1.4,0.5c0,0,0.1,0,0.1,0c0,0,0,0,0-0.1v-10.3h31.1v10.3c0,0,0,0.1,0,0.1c0,0,0.1,0,0.1,0
		l1.4-0.5c0,0,0.1,0,0.1-0.1v-0.9l1.2,1.1l-18.4,7.8l-18.3-7.9L522.8,294.3z"/>
	<path fill="#010101" d="M558.9,296.5l-18.8,8.1c-0.1,0.1-0.2,0.1-0.3,0.1c-0.1,0-0.2,0-0.3-0.1l-18.8-8.1v21.3h38.1V296.5z
		 M558.8,317.7h-37.9v-21.1l18.6,8c0.1,0.1,0.2,0.1,0.3,0.1c0.1,0,0.2,0,0.3-0.1l18.6-8V317.7z"/>
	<path fill="#010101" d="M528.4,290.3h6.8c0,0,0.1,0,0.1-0.1v-0.9c0-0.1,0-0.1-0.1-0.1h-6.8c-0.1,0-0.1,0-0.1,0.1L528.4,290.3
		C528.3,290.3,528.3,290.3,528.4,290.3 M528.4,289.3h6.8v0.9h-6.8V289.3z"/>
	<path fill="#010101" d="M528.4,293.3h23c0.1,0,0.1,0,0.1-0.1v-0.9c0,0,0-0.1-0.1-0.1h-23c-0.1,0-0.1,0-0.1,0.1L528.4,293.3
		C528.3,293.3,528.3,293.3,528.4,293.3 M528.4,292.3h23v0.9h-23V292.3z"/>
	<path fill="#010101" d="M523.5,284.3c-0.2,0-0.4,0.1-0.4,0.4v7.7c0,0.1,0,0.2-0.1,0.2l-3.2,2.7c-0.1,0.1-0.2,0.2-0.2,0.3v23
		c0,0.2,0.1,0.4,0.4,0.4h39.5c0.1,0,0.4-0.1,0.4-0.4v-23l0-0.1c0,0,0-0.1-0.1-0.2l-3.2-2.7c-0.1-0.1-0.1-0.1-0.1-0.2v-7.7
		c0-0.1-0.1-0.4-0.4-0.4h-9.3c-0.1,0-0.1,0-0.2-0.1l-6.5-5.4c-0.1-0.1-0.3-0.1-0.5,0l-6.5,5.4c-0.1,0-0.1,0.1-0.2,0.1H523.5z"/>
	<path fill="#010101" d="M559.6,295.3C559.6,295.3,559.6,295.3,559.6,295.3L559.6,295.3z M559.6,295.5
		C559.6,295.5,559.6,295.5,559.6,295.5L559.6,295.5z M523.5,284.6C523.5,284.6,523.5,284.6,523.5,284.6l-0.1,7.7
		c0,0.2-0.1,0.4-0.2,0.5l-3.2,2.7c0,0,0,0.1,0,0.1l0,23l39.5,0.1l0.1-23.1l-3.2-2.6c-0.1-0.1-0.2-0.3-0.2-0.5v-7.7l-9.4-0.1
		c-0.1,0-0.3-0.1-0.4-0.1l-6.5-5.4c0,0-0.1,0-0.1,0l-6.5,5.4c-0.1,0.1-0.3,0.1-0.4,0.1H523.5z M559.5,319.2h-39.5
		c-0.4,0-0.7-0.4-0.7-0.7v-23c0-0.2,0.1-0.4,0.2-0.5l3.2-2.7l0-7.7c0-0.4,0.4-0.7,0.7-0.7h9.3l6.5-5.4c0.3-0.2,0.6-0.2,0.9,0
		l6.5,5.5l9.3,0c0.4,0,0.7,0.4,0.7,0.7v7.7l3.2,2.7c0.2,0.1,0.2,0.3,0.2,0.5v23C560.2,318.9,559.8,319.2,559.5,319.2"/>
	<path fill="#010101" d="M559.3,295.3C559.3,295.3,559.3,295.3,559.3,295.3L559.3,295.3z M559.4,295.7
		C559.4,295.7,559.4,295.7,559.4,295.7L559.4,295.7z M520.3,318.2h38.9v-22.7l-3.1-2.5c-0.2-0.2-0.3-0.5-0.3-0.7v-7.4h-9.1
		c-0.2,0-0.4-0.1-0.6-0.2l-6.4-5.3l-6.4,5.3c-0.2,0.1-0.4,0.2-0.6,0.2h-9.1v7.4c0,0.3-0.1,0.5-0.3,0.7l-3.1,2.6V318.2z M559.5,319.5
		h-39.5c-0.6,0-1-0.5-1-1v-23c0-0.2,0.1-0.5,0.3-0.7l3.1-2.6v-7.5c0-0.6,0.5-1,1-1h9.2l6.4-5.4c0.4-0.3,0.9-0.3,1.3,0l6.5,5.4h9.2
		c0.6,0,1,0.5,1,1v7.5l3.1,2.6c0.3,0.2,0.4,0.5,0.3,0.9l0,22.9C560.5,319.1,560,319.5,559.5,319.5"/>
	<path fill="#010101" d="M520.6,317.9h38.3v-22.2l-2.9-2.4c-0.3-0.2-0.5-0.6-0.5-1v-7.1h-8.7c-0.3,0-0.6-0.1-0.8-0.3l-6.2-5.1
		l-6.2,5.1c-0.2,0.2-0.5,0.3-0.8,0.3h-8.7v7.1c0,0.4-0.2,0.7-0.5,1l-3,2.5V317.9z M523.5,283.9c-0.3,0-0.7,0.3-0.7,0.7v7.7l-3.2,2.7
		c-0.1,0.1-0.2,0.3-0.2,0.5v23c0,0.3,0.3,0.7,0.7,0.7h39.5c0.3,0,0.7-0.3,0.7-0.7l0-22.9l0,0c0.1-0.2,0-0.4-0.2-0.5l-0.3-0.3
		l-0.2,0.8l0-0.1l0.1,0l-0.1,0.1v22.9H520v-23.1l3.2-2.7c0.1-0.1,0.2-0.3,0.2-0.5v-7.7h9.4c0.1,0,0.3-0.1,0.4-0.1l6.6-5.5l0.2,0.2
		l6.4,5.3c0.1,0.1,0.3,0.1,0.4,0.1h9.4v7.7c0,0.2,0.1,0.4,0.2,0.5l2.7,2.2l0.3-0.6l-2.6-2.1v-7.7c0-0.3-0.3-0.7-0.7-0.7h-9.3
		l-6.6-5.5c-0.2-0.2-0.6-0.2-0.9,0l-6.5,5.4H523.5z M559.9,294.1l0.5,0.4c0.4,0.2,0.5,0.7,0.4,1.2l0,22.8c0,0.8-0.7,1.3-1.3,1.3
		h-39.5c-0.8,0-1.3-0.7-1.3-1.3v-23c0-0.3,0.2-0.7,0.4-1l3-2.5v-7.4c0-0.8,0.7-1.3,1.3-1.3h9.1l6.3-5.3c0.5-0.4,1.2-0.4,1.7,0
		l6.4,5.3h9.1c0.8,0,1.3,0.7,1.3,1.3v7.4l2.2,1.8L559.9,294.1z"/>
	<path fill="#E75548" d="M520.8,317.9h38.1c0.1,0,0.1,0,0.1-0.1v-21.3c0,0,0-0.1,0-0.1c0,0-0.1,0-0.1,0l-18.8,8.1c0,0,0,0,0,0
		c0,0-0.2,0-0.2,0c0,0-0.2,0-0.2,0c0,0,0,0,0,0l-18.8-8.1c0,0-0.1,0-0.1,0c0,0,0,0,0,0.1L520.8,317.9
		C520.7,317.9,520.8,317.9,520.8,317.9"/>
	<path fill="#FFFFFF" d="M539.7,303.4C539.7,303.4,539.7,303.4,539.7,303.4C539.8,303.4,539.8,303.4,539.7,303.4l18.6-7.9
		c0,0,0,0,0.1-0.1c0,0,0-0.1,0-0.1l-1.5-1.3c0,0-0.1,0-0.1,0c0,0-0.1,0-0.1,0.1v1l-1.2,0.5v-10.3c0-0.1,0-0.1-0.1-0.1h-31.3
		c-0.1,0-0.1,0-0.1,0.1v10.3l-1.2-0.5v-1c0,0,0-0.1-0.1-0.1c0,0-0.1,0-0.1,0l-1.6,1.2c0,0,0,0.1,0,0.1c0,0,0,0.1,0.1,0.1
		L539.7,303.4z"/>
</g>
<rect x="528.4" y="295" fill="#010101" width="22.8" height="0.8"/>
<rect x="528.4" y="292.4" fill="#010101" width="22.8" height="0.8"/>
<rect x="528.4" y="289.4" fill="#010101" width="6.6" height="0.8"/>
<g>
	<path fill="#F7A720" d="M188.6,199c-1-0.9-1.1-2.5-0.2-3.5l9.3-10.7c0.6-0.7,1.8-1.1,2.8-0.7c1,0.4,1.7,1.3,1.7,2.3l0,7l-0.1,5.1
		l4.9-5.6l0.1-0.1c0.9-1,2.5-1.1,3.5-0.2c0.4,0.3,0.6,0.8,0.8,1.1c0.2,0.8,0,1.8-0.5,2.4l-2.6,3l-6.7,7.7c-0.6,0.7-1.8,1.1-2.8,0.7
		c-1-0.4-1.7-1.3-1.7-2.3l0-2.2l0.1-7.6l0.1-2.3l-5,5.7C191.1,199.9,189.6,199.9,188.6,199"/>
	<path fill="#F7A720" d="M165.1,184.9c0.9,0.8,1,1.9,0.2,2.8l-0.6,0.7l-4.4,5.1c-0.5,0.6-1.3,0.8-2.1,0.6c-0.7-0.2-1.3-1-1.3-1.8
		l0-4.8l-1.5,1.7c-0.8,0.9-1.9,1-2.8,0.2c-0.9-0.8-1-1.9-0.2-2.8l5.1-5.8c0.5-0.6,1.3-0.8,2.2-0.5c0.8,0.3,1.2,1.1,1.4,1.9l0,4.8
		l1.5-1.7C163.2,184.6,164.5,184.4,165.1,184.9"/>
	<path fill="#F7A720" d="M190.9,163.9c-0.7-0.6-0.7-1.7-0.2-2.3l6.3-7.2c0.4-0.5,1.2-0.7,1.9-0.4c0.6,0.3,1.2,0.9,1.1,1.6l0,4.7
		l-0.1,3.5l3.3-3.8l0.1-0.1c0.6-0.7,1.7-0.7,2.3-0.2c0.2,0.2,0.4,0.5,0.5,0.7c0.1,0.5,0,1.2-0.4,1.6l-1.7,2l-4.5,5.2
		c-0.4,0.5-1.2,0.7-1.9,0.4c-0.6-0.3-1.2-0.9-1.1-1.6l0-1.5l0-5.1l0-1.6l-3.3,3.8C192.6,164.5,191.6,164.4,190.9,163.9"/>
	<path fill="#F7A720" d="M131.2,135.5c0.6,0.5,0.6,1.3,0.1,1.9l-0.4,0.5l-3,3.4c-0.4,0.4-0.9,0.5-1.4,0.4c-0.5-0.1-0.9-0.6-0.9-1.2
		l0-3.2l-1,1.2c-0.5,0.6-1.3,0.6-1.9,0.1c-0.6-0.5-0.6-1.3-0.1-1.9l3.4-3.9c0.4-0.4,0.9-0.5,1.5-0.3c0.6,0.2,0.8,0.7,1,1.3l0,3.2
		l1-1.2C129.9,135.3,130.7,135.1,131.2,135.5"/>
	<path fill="#F7A720" d="M126.5,166.3c-0.7-0.6-0.7-1.7-0.2-2.3l6.3-7.2c0.4-0.5,1.2-0.7,1.9-0.4c0.6,0.3,1.2,0.9,1.1,1.6l0,4.7
		l-0.1,3.5l3.3-3.8l0.1-0.1c0.6-0.7,1.7-0.7,2.3-0.2c0.2,0.2,0.4,0.5,0.5,0.7c0.1,0.5,0,1.2-0.4,1.6l-1.7,2l-4.5,5.2
		c-0.4,0.5-1.2,0.7-1.9,0.4c-0.6-0.3-1.2-0.9-1.1-1.6l0-1.5l0-5.1l0-1.6l-3.3,3.8C128.2,166.9,127.1,166.9,126.5,166.3"/>
	<path fill="#F7A720" d="M175.3,160.1c0.6,0.5,0.6,1.3,0.1,1.9l-0.4,0.5l-3,3.4c-0.4,0.4-0.9,0.5-1.4,0.4c-0.5-0.1-0.9-0.6-0.9-1.2
		l0-3.2l-1,1.2c-0.5,0.6-1.3,0.6-1.9,0.1c-0.6-0.5-0.6-1.3-0.1-1.9l3.4-3.9c0.4-0.4,0.9-0.5,1.5-0.3c0.6,0.2,0.8,0.7,1,1.3l0,3.2
		l1-1.2C174.1,159.8,174.9,159.7,175.3,160.1"/>
	<path fill="#F7A720" d="M177.6,143.5c-0.7-0.6-0.7-1.7-0.2-2.3l6.3-7.2c0.4-0.5,1.2-0.7,1.9-0.4c0.6,0.3,1.2,0.9,1.1,1.6l0,4.7
		l-0.1,3.5l3.3-3.8l0.1-0.1c0.6-0.7,1.7-0.7,2.3-0.2c0.2,0.2,0.4,0.5,0.5,0.7c0.1,0.5,0,1.2-0.4,1.6l-1.7,2l-4.5,5.2
		c-0.4,0.5-1.2,0.7-1.9,0.4c-0.6-0.3-1.2-0.9-1.1-1.6l0-1.5l0-5.1l0-1.6l-3.3,3.8C179.3,144.1,178.3,144,177.6,143.5"/>
	<path fill="#F7A720" d="M152.9,97.9c0.6,0.5,0.6,1.3,0.1,1.9l-0.4,0.5l-3,3.4c-0.4,0.4-0.9,0.5-1.4,0.4c-0.5-0.1-0.9-0.6-0.9-1.2
		l0-3.2l-1,1.2c-0.5,0.6-1.3,0.6-1.9,0.1c-0.6-0.5-0.6-1.3-0.1-1.9l3.4-3.9c0.4-0.4,0.9-0.5,1.5-0.3c0.6,0.2,0.8,0.7,1,1.3l0,3.2
		l1-1.2C151.7,97.6,152.5,97.5,152.9,97.9"/>
	<path fill="#F7A720" d="M215.5,111.9c0.6,0.5,0.6,1.3,0.1,1.9l-0.4,0.5l-3,3.4c-0.4,0.4-0.9,0.5-1.4,0.4c-0.5-0.1-0.9-0.6-0.9-1.2
		l0-3.2l-1,1.2c-0.5,0.6-1.3,0.6-1.9,0.1c-0.6-0.5-0.6-1.3-0.1-1.9l3.4-3.9c0.4-0.4,0.9-0.5,1.5-0.3c0.6,0.2,0.8,0.7,1,1.3l0,3.2
		l1-1.2C214.3,111.7,215.1,111.5,215.5,111.9"/>
	<path fill="#F7A720" d="M113.1,180.3c0.6,0.5,0.6,1.3,0.1,1.9l-0.4,0.5l-3,3.4c-0.4,0.4-0.9,0.5-1.4,0.4c-0.5-0.1-0.9-0.6-0.9-1.2
		l0-3.2l-1,1.2c-0.5,0.6-1.3,0.6-1.9,0.1c-0.6-0.5-0.6-1.3-0.1-1.9l3.4-3.9c0.4-0.4,0.9-0.5,1.5-0.3c0.6,0.2,0.8,0.7,1,1.3l0,3.2
		l1-1.2C111.9,180,112.7,179.9,113.1,180.3"/>
	<path fill="#F7A720" d="M233.6,93.3c0.3,0.7,0.1,1.4-0.6,1.8l-0.6,0.3l-4.1,2c-0.5,0.3-1,0.2-1.4-0.1c-0.4-0.3-0.6-0.9-0.4-1.4
		l1.2-3l-1.4,0.7c-0.7,0.3-1.4,0.1-1.8-0.6c-0.3-0.7-0.1-1.4,0.6-1.8l4.6-2.3c0.5-0.3,1-0.2,1.5,0.2c0.4,0.4,0.5,1,0.4,1.5l-1.2,3
		l1.4-0.7C232.5,92.6,233.3,92.8,233.6,93.3"/>
	<path fill="#3C3C3B" d="M231.1,256.7c-1.5-3.3-0.9-6.8,1.1-9.5l6.8,15C235.6,261.8,232.4,260,231.1,256.7 M228.5,224.6
		c-1.3-2.9,0.3-6.1,3.2-6.9l0.2-0.1c23.4-5,45.6-15,64.9-29.3c0.2-0.3,0.5-0.4,0.8-0.6c2.6-1.2,5.4-0.1,6.5,2.5l6.6,14.6l1.2,2.7
		l1.2,2.7l7.6,16.8l1.2,2.7c0.4,0.9,0.7,1.9,1.1,2.8c7.3,20.2-2.1,43.1-21.9,52c-20.1,9.1-43.6,0.7-53.8-18.5
		c-0.5-0.7-0.8-1.4-1.2-2.2l-0.2-0.5l-1.2-2.7l-7.7-17l-1.2-2.7l-1.2-2.7L228.5,224.6z M318.9,208.5c2.4,0.2,4.5,1.2,6.2,3
		c0.7,0.8,1.3,1.6,1.7,2.5c1.4,3.2,0.9,6.8-1.2,9.4L318.9,208.5z M225.2,258.8l-0.1,0.6c2.9,6.5,9.6,10,16.3,8.9
		c11.4,22.5,38.7,32.4,62,21.9c23.1-10.4,33.8-37.2,24.7-60.5c5.1-4.3,6.9-11.6,4-17.9c-0.6-1.4-1.3-2.5-2.1-3.5
		c-6.2-12-17.5-40.7-17.6-41c-5.9-13.1-21.2-18.8-34.1-13c-1.5,0.7-3.1,1.6-4.5,2.6c-12.5-4.5-26-4-38.2,1.5
		c-8.9,4-16.1,10.4-21.4,17.8c-0.3,0.5-0.6,1-0.9,1.5c-0.3,1-0.2,2.1,0.6,2.8c1.1,1.3,3,1.5,4.4,0.5l0.2-0.1c0.3-0.5,0.6-1,0.9-1.5
		c4.6-6.6,10.9-12.2,18.8-15.7c11.3-5.1,23.8-5.3,35.1-1.1l1.6,0.7l1.3-1.1c1.5-1,2.9-2,4.5-2.8c9.9-4.5,21.7,0,26.2,9.9
		c0.4,0.9,7.9,19.8,14,33.4c-1.5-0.2-3.2-0.2-4.7,0l-6.8-15c-2.4-5.4-9-7.9-14.4-5.4c-0.6,0.3-1.4,0.6-1.9,1
		c-18.5,13.8-39.8,23.4-62.3,28.2l-0.3,0.1c-0.7,0.1-1.4,0.5-2,0.7c-5.4,2.4-7.9,9-5.4,14.4l6.6,14.6c-1.4,1.2-2.5,2.6-3.3,4.2
		c-3.4-7.5-6.7-14.5-8.8-18.8c-0.8-1.3-1.2-2.3-1.7-3.4c-1.1-2.4-2-4.9-2.7-7.5c-0.1-0.5-0.3-1.1-0.4-1.6c-0.1-0.1-0.1-0.3-0.2-0.5
		c-1.1-1.3-3-1.5-4.4-0.5c-0.7,0.5-1.2,1.4-1.1,2.3c0.1,0.5,0.3,1.1,0.4,1.6c0.8,2.9,1.7,5.7,3,8.6c0.5,1,1.1,2.4,1.8,3.7
		c3.1,6,8.8,17.9,12.8,28.2C224.8,258,225,258.3,225.2,258.8"/>
	<path fill="#3C3C3B" d="M242.7,387.1c-2.3,0-4.1-1.8-4.1-4.1v-36.7c0-2.3,1.8-4.1,4.1-4.1c2.3,0,4.1,1.8,4.1,4.1V383
		C246.8,385.3,245,387.1,242.7,387.1"/>
	<path fill="#3C3C3B" d="M357.3,387.1c-2.3,0-4.1-1.8-4.1-4.1v-36.7c0-2.3,1.8-4.1,4.1-4.1c2.3,0,4.1,1.8,4.1,4.1V383
		C361.3,385.3,359.5,387.1,357.3,387.1"/>
	<path fill="#3C3C3B" d="M369.1,299.1H244.4l-2.2,8.2h127c13.2,0,23.9,12.2,23.9,27.2v47.6c0,2.3,1.8,4.1,4.1,4.1
		c2.3,0,4.1-1.8,4.1-4.1v-47.6C401.1,315,386.7,299.1,369.1,299.1"/>
	<path fill="#1F2C51" d="M167.6,386.2c0.4,0,0.7-0.1,1-0.1c-1.1-0.1-2.2-0.3-3.3-0.5C166,385.9,166.8,386.2,167.6,386.2"/>
	<path fill="#3C3C3B" d="M238.8,288.5l-2.9,10.7l-2.3,8.2l-16,58.1c-2,7.4-8.7,12.4-16,12.6c-1.7,0.1-3.4-0.1-5.1-0.6
		c-1.1-0.3-2.1-0.7-3-1.2c-3-1.5-5.6-3.9-7.3-6.9c-2.3-4-2.9-8.6-1.6-13l21.2-77c2.1-7.6,9-12.6,16.5-12.6c1.5,0,3,0.2,4.6,0.6
		C236,269.9,241.4,279.3,238.8,288.5 M229,259.5c-13.5-3.7-27.4,4.2-31.1,17.7l-21.2,77c-1.8,6.5-0.9,13.3,2.4,19.2
		c3.3,5.9,8.8,10.1,15.3,11.9c0.3,0.1,0.6,0.2,0.9,0.2c1.1,0.3,2.2,0.4,3.3,0.5c0.8,0.1,1.7,0.1,2.5,0.1c11.1,0,21.3-7.4,24.4-18.6
		l16.6-60.3l2.2-8.2l2.3-8.5C250.4,277.2,242.5,263.2,229,259.5"/>
	<path fill="#EDDDB0" d="M228.5,224.6c-1.3-2.9,0.3-6.1,3.2-6.9l0.1-0.1c23.4-5,45.6-15,64.9-29.3c0.2-0.3,0.5-0.4,0.8-0.6
		c2.6-1.2,5.4-0.1,6.5,2.5l6.6,14.6l1.2,2.7l1.2,2.7l7.6,16.8l1.2,2.7c0.4,0.9,0.7,1.9,1.1,2.8c7.3,20.2-2.1,43.1-21.9,52
		c-20.1,9.1-43.6,0.7-53.8-18.5c-0.5-0.7-0.8-1.4-1.2-2.2l-0.2-0.4l-1.2-2.7l-7.7-17l-1.2-2.7l-1.2-2.7L228.5,224.6z"/>
	<path fill="#3C3C3B" d="M248.2,239.3c3.9,3.5,9.3,4.3,14,2.2c4.8-2.2,7.8-6.8,7.6-11.9c0-1.6-1.4-3-3-3c-1.6,0-3,1.4-3,3
		c0,2.7-1.6,5.2-4.2,6.4c-2.6,1.2-5.5,0.7-7.6-1.1c-1.2-1.1-3.1-0.9-4.2,0.3C246.9,236.3,246.8,238.2,248.2,239.3"/>
	<path fill="#3C3C3B" d="M294.5,226.2c4.4-2,7.3-6.4,7.4-11.1c0-1.6-1.1-2.9-2.8-3.1c-1.6,0-2.9,1.1-3.1,2.8c-0.1,2.6-1.7,4.9-4,6
		c-2.3,1-5.1,0.7-7.1-0.9c-1.2-1.1-3.1-0.9-4.1,0.4c-1.1,1.2-0.9,3.1,0.4,4.1C285.2,227.5,290.2,228.1,294.5,226.2"/>
	<path fill="#3C3C3B" d="M302.6,256.5c1.7,3.7,0,8.1-3.7,9.8c-3.7,1.7-8.1,0-9.8-3.7c-1.7-3.7,0-8.1,3.7-9.8
		C296.5,251.1,300.9,252.8,302.6,256.5"/>
	<path fill="#010101" d="M184.8,263.7c-1.7,0-3.1-1.4-3.1-3.1c0-1.7,1.4-3.1,3.1-3.1c1.7,0,3.1,1.4,3.1,3.1
		C187.8,262.3,186.5,263.7,184.8,263.7 M173.3,247.9v-2.4l14.2-4.5v2.4L173.3,247.9z M168.2,269c-1.7,0-3.1-1.4-3.1-3.1
		c0-1.7,1.4-3.1,3.1-3.1s3.1,1.4,3.1,3.1C171.3,267.7,169.9,269,168.2,269 M189.7,239.4v-0.1v-0.1v-0.1v-0.1c0-0.1-0.1-0.1-0.1-0.1
		l-0.1-0.1c0-0.1-0.1-0.1-0.1-0.1l-0.1-0.1l-0.1-0.1l-0.1-0.1c-0.1,0-0.1-0.1-0.1-0.1c0,0-0.1-0.1-0.1-0.1c-0.1,0-0.1-0.1-0.1-0.1
		c-0.1,0-0.1,0-0.1-0.1h-0.1h-0.1h-0.1h-0.1h-0.1h-0.1h-0.1l-16.4,5.3h-0.1c-0.1,0-0.1,0.1-0.1,0.1c-0.1,0-0.1,0.1-0.1,0.1
		c-0.1,0-0.1,0.1-0.1,0.1l-0.1,0.1l-0.1,0.1l-0.1,0.1c0,0.1-0.1,0.1-0.1,0.1c0,0.1-0.1,0.1-0.1,0.1c0,0.1,0,0.1-0.1,0.1
		c0,0.1,0,0.1-0.1,0.1v0.1v0.1v0.1v17.1c-0.8-0.5-1.8-0.9-2.7-0.9c-2.7,0-4.9,2.2-4.9,4.9c0,2.7,2.2,4.9,4.9,4.9s4.9-2.2,4.9-4.9
		v-15.7l14.2-4.5v10.9c-0.8-0.5-1.8-0.9-2.7-0.9c-2.7,0-4.9,2.2-4.9,4.9c0,2.7,2.2,4.9,4.9,4.9c2.7,0,4.9-2.2,4.9-4.9L189.7,239.4
		L189.7,239.4z"/>
	<path fill="#010101" d="M152.4,244.5c-1.1,0-1.9-0.9-1.9-1.9c0-1.1,0.9-1.9,1.9-1.9s1.9,0.9,1.9,1.9
		C154.3,243.6,153.5,244.5,152.4,244.5 M145.1,234.5V233l9-2.9v1.5L145.1,234.5z M141.9,247.9c-1.1,0-1.9-0.9-1.9-1.9
		c0-1.1,0.9-1.9,1.9-1.9c1.1,0,1.9,0.9,1.9,1.9C143.9,247,143,247.9,141.9,247.9 M155.5,229.2L155.5,229.2V229v0v0c0,0,0,0,0-0.1
		l0,0c0,0,0,0,0-0.1l0,0l0,0l0,0c0,0,0,0-0.1,0c0,0,0,0-0.1,0c0,0,0,0-0.1,0c0,0,0,0-0.1,0h-0.1h-0.1h0h0h-0.1h-0.1h0l-10.4,3.3h0
		c0,0,0,0-0.1,0c0,0,0,0-0.1,0c0,0,0,0-0.1,0l0,0l0,0l0,0c0,0,0,0,0,0.1c0,0,0,0,0,0.1c0,0,0,0,0,0.1c0,0,0,0,0,0.1v0.1v0.1v0v10.8
		c-0.5-0.3-1.1-0.5-1.7-0.5c-1.7,0-3.1,1.4-3.1,3.1c0,1.7,1.4,3.1,3.1,3.1c1.7,0,3.1-1.4,3.1-3.1V236l9-2.9v6.9
		c-0.5-0.3-1.1-0.5-1.7-0.5c-1.7,0-3.1,1.4-3.1,3.1s1.4,3.1,3.1,3.1c1.7,0,3.1-1.4,3.1-3.1L155.5,229.2L155.5,229.2z"/>
	<path fill="#FFFFFF" d="M638.5,256.7h-20.1c-3.3,0-5.9-2.6-5.9-5.9v-27.7c0-3.3,2.6-5.9,5.9-5.9h20.1c3.3,0,5.9,2.6,5.9,5.9v27.7
		C644.4,254,641.8,256.7,638.5,256.7"/>
	<path fill="#010101" d="M616.2,257.1h24.1c2.6,0,4.7-2.1,4.7-4.7v-10.8c0-0.5-0.4-0.9-0.9-0.9c-0.4,0-0.7,0.2-0.8,0.6
		c0,0.1-0.1,1.6-0.1,1.7v9.4c0,1.6-1.3,2.8-2.8,2.8H616c-0.1,0-0.3,0-0.4,0c-1.3-0.3-2.2-1.4-2.2-2.8v-31.4c0-1.6,1.3-2.8,2.8-2.8
		h24.1c1.6,0,2.8,1.3,2.8,2.8v4.5c0,0.5,0.4,0.9,0.9,0.9h0c0.5,0,0.9-0.4,0.9-0.9v-4.5c0-2.6-2-4.7-4.6-4.7c0,0,0,0,0,0h-24.1
		c-2.6,0-4.7,2.1-4.7,4.7v31.4C611.6,255,613.7,257.1,616.2,257.1"/>
</g>
<rect x="618.1" y="226.2" fill="#010101" width="10.6" height="2.1"/>
<rect x="618.1" y="244.5" fill="#010101" width="21.1" height="2.1"/>
<rect x="618.1" y="238.2" fill="#010101" width="21.1" height="2.1"/>
<rect x="618.1" y="231.9" fill="#010101" width="21.1" height="2.1"/>
<polygon fill="#010101" points="641.1,240.3 643,238.6 652.1,217.2 651.1,216.8 651,216.8 650.1,216.4 641,237.7 "/>
<g>
	<path fill="#3C3C3B" d="M691.3,390.6H145.8c-2.8,0-5.1-2.3-5.1-5.1c0-2.8,2.3-5.1,5.1-5.1h545.5c2.8,0,5.1,2.3,5.1,5.1
		C696.4,388.3,694.1,390.6,691.3,390.6"/>
	<path fill="#010101" d="M498.6,297.1h-14.2c-3,0-5.5,2.5-5.5,5.6c0,3,2.4,5.6,5.5,5.6h14.2v9.1c0,0.8-0.6,1.4-1.4,1.4c0,0,0,0,0,0
		c0,0,0,0,0,0c0,0,0,0,0,0h-44.5c-0.8,0-1.4-0.6-1.4-1.4v-31.1h47.3V297.1z M498.6,305.5h-14.2c-1.5,0-2.8-1.2-2.8-2.9
		c0-1.6,1.2-2.9,2.8-2.9h14.2V305.5z M479.2,276l4.4,7.6H466L479.2,276z M489.1,276.8v6.8h-2.4l-3.9-6.8H489.1z M499.9,283.6h-8.1
		v-8.1c0-0.7-0.6-1.4-1.4-1.4h-9.2l-0.4-0.7c-0.3-0.5-0.8-0.8-1.4-0.7c-0.2,0-0.3,0.1-0.5,0.2l-2,1.2l-4.7,2.7l-11.7,6.8h-9.3
		l-2.7,0v33.8c0,2.2,1.8,4.1,4.1,4.1h44.5c0,0,0,0,0,0c0,0,0,0,0,0c0,0,0,0,0,0c2.2,0,4.1-1.8,4.1-4.1v-32.4
		C501.3,284.2,500.7,283.6,499.9,283.6"/>
</g>
<polygon fill="#4175BA" points="489.6,283.2 489.6,276.4 483.3,276.4 487.2,283.2 "/>
<path fill="#4175BA" d="M487.5,282.5h1.4V277h-4.6L487.5,282.5z M490.2,283.8h-3.4l-4.6-8h8.1V283.8z"/>
<g>
	<path fill="#E75548" d="M481.6,302.7c0,1.6,1.2,2.9,2.8,2.9h14.2v-5.7h-14.2C482.8,299.8,481.6,301,481.6,302.7"/>
	<path fill="#E75548" d="M484.4,300.4c-1.2,0-2.1,1-2.1,2.2c0,1.3,0.9,2.2,2.1,2.2h13.5v-4.4H484.4z M499.2,306.2h-14.8
		c-1.9,0-3.4-1.5-3.4-3.5c0-2,1.5-3.5,3.4-3.5h14.8V306.2z"/>
	<path fill="#FFFFFF" d="M451.3,317.4c0,0.8,0.6,1.4,1.4,1.4h44.5c0,0,0,0,0,0c0,0,0,0,0,0c0,0,0,0,0,0c0.8,0,1.4-0.6,1.4-1.4v-9.1
		h-14.2c-3,0-5.5-2.5-5.5-5.6c0-3,2.4-5.6,5.5-5.6h14.2v-10.8h-47.3V317.4z"/>
	<path fill="#FFFFFF" d="M451.9,286.9v30.4c0,0.4,0.3,0.7,0.7,0.7h44.5c0.5,0,0.8-0.3,0.8-0.7v-8.5h-13.5c-3.4,0-6.1-2.8-6.1-6.2
		c0-3.4,2.7-6.2,6.1-6.2h13.5v-9.5H451.9z M497.2,319.4h-44.6c-1.1,0-2-0.9-2-2v-31.7h48.6v12.1h-14.8c-2.7,0-4.8,2.2-4.8,4.9
		c0,2.7,2.2,4.9,4.8,4.9h14.8v9.8C499.2,318.5,498.3,319.4,497.2,319.4"/>
</g>
<polygon fill="#4175BA" points="479.2,275.5 466,283.2 483.5,283.2 "/>
<path fill="#4175BA" d="M468.3,282.5h14.1l-3.5-6.1L468.3,282.5z M484.6,283.8h-21.1l15.8-9.1L484.6,283.8z"/>
<g>
	<path fill="#1D1D1B" d="M518.8,236.7c-0.4-0.7-1.1-1.2-2-1.4c-1.1-0.2-2.4-0.5-3.7-0.7c-1.2-0.2-2.5-0.4-3.4-0.6
		c-1.6-0.3-3.2,0.6-3.6,2.1c-2,6.9-8.4,11.7-15.5,11.7c-3,0-5.9-0.9-8.8-2.7l2.7-2.7c0.8-0.8,1.1-2,0.8-3.1
		c-0.3-1.1-1.2-1.9-2.3-2.1l-17.6-3.5c-1-0.2-2,0.1-2.8,0.8c-0.7,0.7-1,1.8-0.8,2.8l3.5,17.6c0.2,1.1,1,2,2.1,2.3
		c1.1,0.3,2.3,0,3.1-0.8l1.8-1.8c0.1,0.1,0.3,0.3,0.4,0.4c5.1,3.9,11.5,6.1,17.9,6.1c13.4,0,25.2-9.1,28.6-22.1
		C519.3,238.3,519.2,237.4,518.8,236.7"/>
	<path fill="#1D1D1B" d="M463.8,228.5c1.1,0.2,2.4,0.5,3.7,0.7c1.2,0.2,2.5,0.4,3.4,0.6c1.6,0.3,3.2-0.6,3.6-2.1
		c2-6.9,8.4-11.7,15.5-11.7c3,0,6,0.9,8.9,2.8l-2.8,2.8c-0.8,0.8-1.1,2-0.8,3.1c0.3,1.1,1.2,1.9,2.3,2.1l17.6,3.5
		c0.2,0,0.4,0.1,0.6,0.1h0c1.7,0,3.1-1.4,3.1-3.1c0-0.3,0-0.6-0.1-0.8l-3.4-17.3c-0.2-1.1-1-2-2.1-2.3c-1.1-0.3-2.3,0-3.1,0.8
		l-1.7,1.7c-0.2-0.2-0.3-0.4-0.5-0.5c-5.1-3.9-11.5-6.1-17.9-6.1c-13.4,0-25.2,9.1-28.6,22.1c-0.2,0.8-0.1,1.7,0.3,2.4
		C462.3,227.8,463,228.3,463.8,228.5"/>
	<path fill="#4175BA" d="M490.4,258c-5.9,0-11.5-2-16.1-5.4l5.2-5.2c3.3,2.2,6.9,3.5,10.9,3.5c8.7,0,16.1-5.9,18.5-13.9
		c2,0.4,5.2,0.9,7.2,1.3C513,249.8,502.4,258,490.4,258 M464.6,236.8l17.6,3.5l-14.1,14.1L464.6,236.8z M500.9,216.3
		c-3.3-2.2-7-3.5-10.9-3.5c-8.7,0-16.1,5.9-18.5,13.9c-2-0.4-5.2-0.9-7.2-1.3c3-11.5,13.5-19.8,25.6-19.8c5.9,0,11.5,2,16.1,5.4
		L500.9,216.3z M515.8,227.2l-17.6-3.5l14.1-14.1L515.8,227.2z"/>
</g>
</svg>
